<?xml version="1.0" encoding="utf-8"?>
<!-- Generator: Adobe Illustrator 16.0.0, SVG Export Plug-In . SVG Version: 6.00 Build 0)  -->
<!DOCTYPE svg PUBLIC "-//W3C//DTD SVG 1.1//EN" "http://www.w3.org/Graphics/SVG/1.1/DTD/svg11.dtd">
<svg version="1.1" id="Livello_1" xmlns="http://www.w3.org/2000/svg" xmlns:xlink="http://www.w3.org/1999/xlink" x="0px" y="0px"
	 width="70px" height="70px" viewBox="0 0 70 70" enable-background="new 0 0 70 70" xml:space="preserve">
<g id="Livello_1_1_">
	<g>
		<path fill="#FFFFFF" d="M34.982,2c18.186,0,32.981,14.786,32.981,32.961S53.168,67.922,34.982,67.922S2,53.136,2,34.961
			S16.796,2,34.982,2 M34.982,0C15.662,0,0,15.652,0,34.961C0,54.27,15.662,69.922,34.982,69.922
			c19.317,0,34.981-15.652,34.981-34.961C69.964,15.652,54.3,0,34.982,0L34.982,0z"/>
	</g>
</g>
<g id="Livello_5">
	<g>
		<path fill="#FFFFFF" d="M44.791,14.53c7.561,0,13.711,6.15,13.711,13.71c0,7.562-6.15,13.712-13.711,13.712
			S31.08,35.803,31.08,28.24C31.08,20.681,37.23,14.53,44.791,14.53 M44.796,11.034c-9.514,0-17.226,7.713-17.226,17.227
			c0,9.517,7.712,17.228,17.226,17.228c9.515,0,17.228-7.711,17.228-17.228C62.021,18.747,54.311,11.034,44.796,11.034"/>
		<polygon fill="#FFFFFF" points="13.912,18.17 13.912,24.409 17.608,24.409 17.608,21.876 39.689,21.873 39.691,18.17 		"/>
		<path fill="#FFFFFF" d="M13.393,57.693c0.596-0.281,1.176-0.551,1.454-0.683l0.044-0.562c0.879-13.902,7.555-22.308,13-26.915
			c4.317-3.652,8.375-5.492,10.414-6.269l1.379-0.557l0.004-4.539C13.127,28.197,13.155,53.464,13.393,57.693"/>
	</g>
</g>
</svg>
