<?xml version="1.0" encoding="utf-8"?>
<!-- Generator: Adobe Illustrator 16.0.0, SVG Export Plug-In . SVG Version: 6.00 Build 0)  -->
<!DOCTYPE svg PUBLIC "-//W3C//DTD SVG 1.1//EN" "http://www.w3.org/Graphics/SVG/1.1/DTD/svg11.dtd">
<svg version="1.1" id="Livello_1" xmlns="http://www.w3.org/2000/svg" xmlns:xlink="http://www.w3.org/1999/xlink" x="0px" y="0px"
	 width="70px" height="70px" viewBox="0 0 70 70" enable-background="new 0 0 70 70" xml:space="preserve">
<g>
	<path fill="none" stroke="#FFFFFF" stroke-width="2" stroke-miterlimit="10" d="M49.793,57.865c-0.34,0-0.68-0.093-0.98-0.282
		l-13.831-8.644l-13.831,8.644c-0.661,0.412-1.513,0.365-2.126-0.113c-0.613-0.485-0.857-1.301-0.611-2.042l5.161-15.482
		L11.56,29.646c-0.589-0.503-0.799-1.32-0.532-2.047c0.27-0.727,0.962-1.21,1.736-1.21h13.667l6.894-13.788
		c0.627-1.255,2.686-1.255,3.311,0l6.896,13.788h13.666c0.773,0,1.469,0.483,1.736,1.21c0.27,0.727,0.057,1.543-0.533,2.047
		L46.389,39.945l5.162,15.482c0.246,0.741,0.002,1.557-0.611,2.042C50.602,57.729,50.199,57.865,49.793,57.865z"/>
</g>
<g>
	<path fill="#FFFFFF" d="M34.982,2c18.186,0,32.981,14.786,32.981,32.961S53.168,67.922,34.982,67.922
		C16.796,67.922,2,53.136,2,34.961S16.796,2,34.982,2 M34.982,0C15.662,0,0,15.652,0,34.961c0,19.308,15.662,34.961,34.982,34.961
		c19.317,0,34.981-15.653,34.981-34.961C69.964,15.652,54.3,0,34.982,0L34.982,0z"/>
</g>
</svg>
