<?xml version="1.0" encoding="utf-8"?>
<!-- Generator: Adobe Illustrator 16.0.0, SVG Export Plug-In . SVG Version: 6.00 Build 0)  -->
<!DOCTYPE svg PUBLIC "-//W3C//DTD SVG 1.1//EN" "http://www.w3.org/Graphics/SVG/1.1/DTD/svg11.dtd">
<svg version="1.1" id="Livello_1" xmlns="http://www.w3.org/2000/svg" xmlns:xlink="http://www.w3.org/1999/xlink" x="0px" y="0px"
	 width="70px" height="70px" viewBox="0 0 70 70" enable-background="new 0 0 70 70" xml:space="preserve">
<g id="Livello_1_1_">
	<g>
		<path fill="#FFFFFF" d="M34.982,2c18.186,0,32.981,14.786,32.981,32.961S53.168,67.922,34.982,67.922S2,53.136,2,34.961
			S16.796,2,34.982,2 M34.982,0C15.662,0,0,15.652,0,34.961C0,54.27,15.662,69.922,34.982,69.922
			c19.317,0,34.981-15.652,34.981-34.961C69.964,15.652,54.3,0,34.982,0L34.982,0z"/>
	</g>
</g>
<g id="Livello_4">
	<g>
		<g>
			<g>
				<path fill="#FFFFFF" d="M47.201,18.748c4.162,0,8.865,1.277,13.933,4.28c-13.432,0.906-8.516,18.503-22.028,18.503
					c-1.313,0-2.807-0.167-4.503-0.532c0.32-7.715,5.117-13.147,10.47-16.149c-12.587,3.312-20.045,23.703-1.161,32.458
					C19.775,47.895,27.317,18.748,47.201,18.748 M47.201,16.748L47.201,16.748c-9.926,0-18.16,6.93-20.026,16.853
					c-1.562,8.307,1.692,19.987,16.009,25.571c0.238,0.094,0.484,0.137,0.727,0.137c0.779,0,1.518-0.457,1.841-1.216
					c0.424-0.993-0.019-2.145-0.999-2.599c-7.693-3.567-9.825-8.664-10.207-12.465c1.643,0.334,3.176,0.502,4.562,0.502
					c8.086,0,10.763-5.647,12.912-10.186c2.105-4.443,3.77-7.953,9.25-8.322c0.875-0.059,1.607-0.68,1.812-1.532
					c0.204-0.852-0.172-1.737-0.927-2.184C57.049,18.282,52.018,16.748,47.201,16.748L47.201,16.748L47.201,16.748z"/>
			</g>
			<g>
				<path fill="#FFFFFF" d="M17.671,36.861c4.329,0,8.312,3.062,10.131,8.033c-2.845-3.082-6.183-4.026-9.051-4.026
					c-1.572,0-3.003,0.282-4.135,0.655c0.554-0.033,1.132-0.053,1.724-0.053c3.122,0,6.598,0.53,8.558,2.262
					c-2.474,1.938-4.565,2.597-6.409,2.597c-3.91,0-6.701-2.961-9.632-2.961c-0.499,0-1.002,0.085-1.515,0.286
					C10.352,38.915,14.127,36.861,17.671,36.861 M17.671,34.862L17.671,34.862c-4.589,0-8.856,2.742-12.017,7.72
					c-0.464,0.73-0.405,1.676,0.145,2.344c0.388,0.473,0.958,0.729,1.544,0.729c0.244,0,0.491-0.045,0.729-0.137
					c0.256-0.102,0.513-0.148,0.786-0.148c0.906,0,1.993,0.521,3.251,1.124c1.796,0.86,3.831,1.837,6.381,1.837
					c2.41,0,4.778-0.885,7.224-2.702c0.211,0.198,0.417,0.406,0.619,0.625c0.39,0.423,0.927,0.644,1.471,0.644
					c0.357,0,0.718-0.096,1.041-0.293c0.814-0.496,1.164-1.498,0.836-2.395C27.604,38.531,22.89,34.862,17.671,34.862L17.671,34.862
					z"/>
			</g>
		</g>
	</g>
</g>
</svg>
