<?xml version="1.0" encoding="UTF-8"?>
<svg width="106px" height="31px" viewBox="0 0 106 31" version="1.1" xmlns="http://www.w3.org/2000/svg" xmlns:xlink="http://www.w3.org/1999/xlink">
    <!-- Generator: Sketch 61 (89581) - https://sketch.com -->
    <title>bnr-beauty-food3</title>
    <desc>Created with Sketch.</desc>
    <g id="Page-1" stroke="none" stroke-width="1" fill="none" fill-rule="evenodd">
        <g id="Group-8">
            <path d="M105.68,22.712 C105.68,27.233 101.981,30.933 97.46,30.933 L8.221,30.933 C3.7,30.933 1.42108547e-13,27.233 1.42108547e-13,22.712 L1.42108547e-13,8.22 C1.42108547e-13,3.699 3.7,-3.55271368e-15 8.221,-3.55271368e-15 L97.46,-3.55271368e-15 C101.981,-3.55271368e-15 105.68,3.699 105.68,8.22 L105.68,22.712 Z" id="Fill-32" fill="#910000"></path>
            <path d="M20.3587,15.7032 C20.7697,16.4682 21.5897,17.8852 24.5357,19.0972 L23.1557,20.6252 C22.5037,20.4022 20.6387,19.6002 19.1097,17.1392 C18.1587,18.7802 16.9097,19.9542 15.4917,20.5882 L13.8147,19.1902 C15.4367,18.4632 16.9277,17.3632 17.5617,15.7032 L14.1127,15.7032 L14.1127,13.8942 L17.9907,13.8942 C18.0467,13.2982 18.0657,12.9062 18.0657,12.3282 L14.7277,12.3282 L14.7277,10.5192 L16.5177,10.5192 C16.1267,9.8112 15.4917,8.9902 14.8207,8.4122 L16.4807,7.1262 C17.1327,7.7602 17.5997,8.3382 18.3267,9.5872 L17.0957,10.5192 L19.3707,10.5192 C20.0237,9.4192 20.6947,8.2632 21.1797,7.1262 L23.0817,7.7042 C23.1367,7.7232 23.4357,7.8162 23.4357,7.9652 C23.4357,8.0022 23.3987,8.0392 23.3607,8.0582 C23.3237,8.0772 23.0817,8.1882 23.0257,8.2262 C22.2977,9.4942 22.0747,9.8852 21.6457,10.5192 L23.8827,10.5192 L23.8827,12.3282 L20.0977,12.3282 C20.1167,13.0932 20.0977,13.4652 20.0607,13.8942 L24.7407,13.8942 L24.7407,15.7032 L20.3587,15.7032 Z M11.7067,11.3772 C11.1477,10.6682 10.2147,9.6612 9.0777,8.9722 L10.6257,7.5172 C11.4457,8.0022 12.2847,8.6182 13.2357,10.0162 L11.7067,11.3772 Z M24.7407,23.1432 C22.5217,23.2362 17.7487,23.2552 17.2077,23.2552 C13.5897,23.2552 12.7517,22.7142 11.8377,21.3342 C11.2227,21.8562 10.4577,22.4342 10.1777,22.6402 C9.7867,22.9382 9.7497,22.9562 9.7307,23.0312 C9.6747,23.2732 9.6557,23.3852 9.5447,23.3852 C9.5067,23.3852 9.3947,23.3292 9.3017,23.1612 L8.3697,21.2782 C9.3947,20.7932 9.9167,20.4952 10.6627,19.9172 L10.6627,15.8902 L8.8167,15.8902 L8.8167,13.9502 L12.8817,13.9502 L12.8817,19.4322 C12.8817,21.0552 14.2427,21.3342 16.6487,21.3342 C19.6507,21.3342 22.6717,21.2602 25.6727,20.9242 L24.7407,23.1432 Z" id="Fill-33" fill="#FFFFFF"></path>
            <path d="M38.723,12.1232 C38.145,11.2282 37.325,10.5382 36.803,10.1462 L38.052,8.8602 C38.611,9.2892 39.376,9.9602 39.973,10.8362 L38.723,12.1232 Z M38.611,16.6172 C38.07,15.8152 37.287,14.9762 36.523,14.3792 L37.753,13.1112 C38.481,13.6892 39.301,14.5102 39.86,15.3492 L38.611,16.6172 Z M42.583,18.4252 L42.583,23.3482 L40.569,23.3482 L40.569,18.9292 L35.889,20.1412 L35.665,18.3702 L40.569,17.1022 L40.569,7.4052 L42.564,7.5922 C42.937,7.6292 43.012,7.7042 43.012,7.8162 C43.012,7.8902 42.956,7.9282 42.881,7.9832 C42.695,8.1142 42.583,8.1882 42.583,8.2632 L42.583,16.5982 L44.149,16.1882 L44.261,17.9972 L42.583,18.4252 Z M36.504,9.4192 C36.318,9.5132 36.299,9.5312 36.28,9.5872 C36.224,9.7732 35.87,11.2282 35.348,12.2162 L33.838,11.5632 C34.304,10.5012 34.528,9.2332 34.621,8.5992 L36.187,8.9532 C36.579,9.0462 36.691,9.1022 36.691,9.2142 C36.691,9.3082 36.541,9.4012 36.504,9.4192 L36.504,9.4192 Z M29.101,12.1792 C28.915,11.1532 28.505,10.0532 28.151,9.3632 L29.903,8.6552 C30.407,9.6992 30.705,10.9112 30.854,11.5452 L29.101,12.1792 Z M33.278,14.6962 C33.931,15.8902 35.199,16.9902 35.683,17.4182 L34.621,18.8542 C34.285,18.5372 33.726,18.0152 33.278,17.3812 L33.278,23.3852 L31.358,23.3852 L31.358,18.6122 C31.022,19.2652 30.351,20.3652 29.661,21.1102 L27.946,20.1032 C29.549,18.4072 30.612,16.4122 31.003,14.6962 L28.356,14.6962 L28.356,12.9812 L31.358,12.9812 L31.358,7.4052 L33.036,7.5552 C33.539,7.5922 33.614,7.7042 33.614,7.8162 C33.614,7.8902 33.577,7.9652 33.465,8.0402 C33.316,8.1512 33.278,8.1702 33.278,8.2632 L33.278,12.9812 L35.814,12.9812 L35.814,14.6962 L33.278,14.6962 Z" id="Fill-34" fill="#FFFFFF"></path>
            <path d="M61.8983,23.3297 C60.9283,21.8747 60.1453,21.0737 59.5673,20.4957 L60.9473,19.3207 C61.8613,20.0847 62.6253,20.8497 63.4463,22.0247 L61.8983,23.3297 Z M57.9453,16.9907 L59.1013,16.9907 L59.1013,14.6407 L57.9453,14.6407 L57.9453,16.9907 Z M57.9453,12.8507 L59.1013,12.8507 L59.1013,10.5197 L57.9453,10.5197 L57.9453,12.8507 Z M57.1063,23.1247 C56.9383,21.8187 56.4353,20.6817 56.1923,20.1787 L57.7773,19.6747 C58.0763,20.1417 58.7473,21.2967 58.9153,22.6217 L57.1063,23.1247 Z M55.1303,16.9907 L56.2303,16.9907 L56.2303,14.6407 L55.1303,14.6407 L55.1303,16.9907 Z M55.1303,12.8507 L56.2303,12.8507 L56.2303,10.5197 L55.1303,10.5197 L55.1303,12.8507 Z M53.2653,23.3857 C53.2463,22.1367 53.1533,21.2417 52.7433,20.0847 L54.3653,19.6747 C54.7383,20.5327 55.1293,21.6517 55.1113,22.9937 L53.2653,23.3857 Z M52.2773,16.9907 L53.3773,16.9907 L53.3773,14.6407 L52.2773,14.6407 L52.2773,16.9907 Z M52.2773,12.8507 L53.3773,12.8507 L53.3773,10.5197 L52.2773,10.5197 L52.2773,12.8507 Z M51.8113,20.7747 C51.5493,20.7937 51.5313,20.7937 51.4563,20.8867 C50.3933,22.2857 49.4243,23.1057 49.0513,23.4227 L47.5783,22.1177 C48.7523,21.2787 49.6293,20.2347 50.2813,19.1897 L51.7923,20.3277 C51.9603,20.4577 51.9973,20.5327 51.9973,20.6067 C51.9973,20.7377 51.8663,20.7567 51.8113,20.7747 L51.8113,20.7747 Z M60.9473,14.6407 L60.9473,16.9897 L62.9803,16.9897 L62.9803,18.7237 L48.3613,18.7237 L48.3613,16.9897 L50.3753,16.9897 L50.3753,14.6407 L47.6713,14.6407 L47.6713,12.8507 L50.3753,12.8507 L50.3753,10.7997 C49.9643,11.3027 49.6103,11.6387 49.2193,11.9737 L47.3733,11.0597 C48.9013,9.9227 50.0023,8.4497 50.7103,7.1257 L52.8173,7.7227 C52.8553,7.7417 53.1343,7.8157 53.1343,7.9837 C53.1343,8.0767 53.1343,8.0767 52.7063,8.2447 C52.5753,8.3007 52.4633,8.3567 52.1273,8.7857 L62.7933,8.7857 L62.7933,10.5197 L60.9473,10.5197 L60.9473,12.8507 L63.6133,12.8507 L63.6133,14.6407 L60.9473,14.6407 Z" id="Fill-35" fill="#FFFFFF"></path>
            <path d="M77.5028,12.1232 C76.9248,11.2282 76.1048,10.5382 75.5828,10.1462 L76.8318,8.8602 C77.3908,9.2892 78.1558,9.9602 78.7528,10.8362 L77.5028,12.1232 Z M77.3908,16.6172 C76.8508,15.8152 76.0668,14.9762 75.3028,14.3792 L76.5328,13.1112 C77.2608,13.6892 78.0808,14.5102 78.6408,15.3492 L77.3908,16.6172 Z M81.3628,18.4252 L81.3628,23.3482 L79.3488,23.3482 L79.3488,18.9292 L74.6688,20.1412 L74.4448,18.3702 L79.3488,17.1022 L79.3488,7.4052 L81.3438,7.5922 C81.7168,7.6292 81.7918,7.7042 81.7918,7.8162 C81.7918,7.8902 81.7358,7.9282 81.6608,7.9832 C81.4748,8.1142 81.3628,8.1882 81.3628,8.2632 L81.3628,16.5982 L82.9288,16.1882 L83.0408,17.9972 L81.3628,18.4252 Z M75.2838,9.4192 C75.0978,9.5132 75.0788,9.5312 75.0608,9.5872 C75.0038,9.7732 74.6498,11.2282 74.1278,12.2162 L72.6178,11.5632 C73.0838,10.5012 73.3078,9.2332 73.4008,8.5992 L74.9668,8.9532 C75.3578,9.0462 75.4708,9.1022 75.4708,9.2142 C75.4708,9.3082 75.3208,9.4012 75.2838,9.4192 L75.2838,9.4192 Z M67.8808,12.1792 C67.6948,11.1532 67.2848,10.0532 66.9308,9.3632 L68.6828,8.6552 C69.1868,9.6992 69.4848,10.9112 69.6338,11.5452 L67.8808,12.1792 Z M72.0578,14.6962 C72.7108,15.8902 73.9788,16.9902 74.4638,17.4182 L73.4008,18.8542 C73.0648,18.5372 72.5058,18.0152 72.0578,17.3812 L72.0578,23.3852 L70.1378,23.3852 L70.1378,18.6122 C69.8018,19.2652 69.1308,20.3652 68.4408,21.1102 L66.7258,20.1032 C68.3288,18.4072 69.3918,16.4122 69.7828,14.6962 L67.1358,14.6962 L67.1358,12.9812 L70.1378,12.9812 L70.1378,7.4052 L71.8158,7.5552 C72.3188,7.5922 72.3938,7.7042 72.3938,7.8162 C72.3938,7.8902 72.3568,7.9652 72.2448,8.0402 C72.0958,8.1512 72.0578,8.1702 72.0578,8.2632 L72.0578,12.9812 L74.5938,12.9812 L74.5938,14.6962 L72.0578,14.6962 Z" id="Fill-36" fill="#FFFFFF"></path>
            <path d="M86.6953,23.1748 L89.4623,23.1748 L89.4623,20.4078 L86.6953,20.4078 L86.6953,23.1748 Z M88.7653,19.1378 L87.4133,19.1378 L86.6953,12.3748 L86.6953,8.2148 L89.4623,8.2148 L89.4623,12.3748 L88.7653,19.1378 Z" id="Fill-37" fill="#FFFFFF"></path>
            <path d="M92.8223,23.1748 L95.5893,23.1748 L95.5893,20.4078 L92.8223,20.4078 L92.8223,23.1748 Z M94.8923,19.1378 L93.5403,19.1378 L92.8223,12.3748 L92.8223,8.2148 L95.5893,8.2148 L95.5893,12.3748 L94.8923,19.1378 Z" id="Fill-38" fill="#FFFFFF"></path>
        </g>
    </g>
</svg>