<?xml version="1.0" encoding="UTF-8"?>
<svg width="55px" height="55px" viewBox="0 0 55 55" version="1.1" xmlns="http://www.w3.org/2000/svg" xmlns:xlink="http://www.w3.org/1999/xlink">
    <!-- Generator: Sketch 61 (89581) - https://sketch.com -->
    <title>bnr-beauty-food2</title>
    <desc>Created with Sketch.</desc>
    <g id="Page-1" stroke="none" stroke-width="1" fill="none" fill-rule="evenodd">
        <g id="Group-7">
            <path d="M55,27.5 C55,42.6892206 42.6872231,55 27.5,55 C12.3127769,55 0,42.6892206 0,27.5 C0,12.3127769 12.3127769,0 27.5,0 C42.6872231,0 55,12.3127769 55,27.5" id="Fill-29" fill="#910000"></path>
            <path d="M33.4106,18.8144 C33.1816,18.8144 32.5696,18.9674 32.2886,19.0434 C32.1606,19.0694 29.3306,19.7324 26.6796,19.9364 C26.7046,20.7524 26.6796,21.1344 26.6536,23.0984 L33.7676,23.0984 L33.7676,25.8264 L31.4736,25.8264 L31.4736,37.6064 L28.8216,37.6064 L28.8216,25.8264 L26.6026,25.8264 C26.3226,32.0984 25.6596,34.5214 23.5176,37.8104 L20.8146,36.9184 C21.6566,35.9744 22.1916,35.3364 22.7526,33.9604 C23.7726,31.4104 24.0016,28.4014 24.0016,24.4244 C24.0016,22.1544 23.9766,19.8854 23.8746,17.6164 L25.4556,17.7184 C25.7356,17.7434 26.1186,17.6674 26.2206,17.6674 C30.3256,16.8774 30.7846,16.7744 32.2126,16.2394 L33.7426,18.0754 C33.8186,18.1774 33.9966,18.4324 33.9966,18.6104 C33.9966,18.8144 33.8446,18.8144 33.4106,18.8144 L33.4106,18.8144 Z M16.6586,20.2164 C16.9906,21.0584 17.2966,22.0274 17.5516,23.0224 L18.4946,23.0224 C18.6986,22.4354 19.0806,21.3384 19.3106,20.2164 L16.6586,20.2164 Z M19.3356,25.3674 L19.3356,27.1524 L22.7276,27.1524 L22.7276,29.5744 L19.3356,29.5744 C20.2536,30.8494 21.5286,31.9454 22.2686,32.5324 L20.6366,34.4184 C19.9986,33.9854 19.6416,33.6284 19.3356,33.2204 L19.3356,37.7594 L16.5826,37.7594 L16.5826,32.9144 C15.8426,34.0874 14.7976,35.4644 13.8286,36.3824 L11.5596,34.9034 C13.2676,33.4754 14.6186,31.8694 15.6136,29.5744 L12.6046,29.5744 L12.6046,27.1524 L16.5826,27.1524 L16.5826,25.3674 L12.2736,25.3674 L12.2736,23.0224 L14.8996,23.0224 C14.7466,22.4864 14.3896,21.1344 14.0326,20.2164 L12.7836,20.2164 L12.7836,17.9474 L16.7606,17.9474 L16.7606,15.7544 L19.5656,16.0094 C19.9486,16.0354 20.1006,16.1114 20.1006,16.2394 C20.1006,16.3664 19.9736,16.4944 19.8716,16.5704 C19.8206,16.6224 19.6166,16.8004 19.6166,16.9534 L19.6166,17.9474 L22.9316,17.9474 L22.9316,20.2164 L22.1156,20.2164 C21.8346,21.2624 21.5796,22.0024 21.0956,23.0224 L23.1856,23.0224 L23.1856,25.3674 L19.3356,25.3674 Z" id="Fill-30" fill="#FFFFFF"></path>
            <path d="M46.8525,18.6807 L45.2975,24.4887 L41.7965,33.6697 L39.9085,33.1637 L41.4635,23.4627 L43.0185,17.6547 L46.8525,18.6807 Z M42.2945,35.7037 L41.2605,39.5667 L37.4265,38.5397 L38.4605,34.6777 L42.2945,35.7037 Z" id="Fill-31" fill="#FFFFFF"></path>
        </g>
    </g>
</svg>