<?xml version="1.0" encoding="UTF-8"?>
<svg width="64px" height="183px" viewBox="0 0 64 183" version="1.1" xmlns="http://www.w3.org/2000/svg" xmlns:xlink="http://www.w3.org/1999/xlink">
    <!-- Generator: Sketch 54.1 (76490) - https://sketchapp.com -->
    <title>copy-footer</title>
    <desc>Created with Sketch.</desc>
    <g id="Symbols" stroke="none" stroke-width="1" fill="none" fill-rule="evenodd">
        <g id="contents/footer" transform="translate(-1216.000000, -208.000000)" fill="#C8A062">
            <g id="Group-48" transform="translate(1216.000000, 208.000000)">
                <path d="M58.3451578,176.404067 C60.0645551,177.797872 62.3637751,180.097835 63.5947832,181.537728 L62.2009787,182.815568 C61.0398466,181.328843 58.6937947,178.889871 57.1141496,177.519111 L58.3451578,176.404067 Z" id="Fill-1"></path>
                <path d="M60.2732169,134.438953 C58.7396602,133.50975 57.4856078,132.905397 55.1856444,132.324831 L56.2315554,130.327416 C57.9502093,130.629221 59.6926508,131.163699 61.4113048,132.464583 L60.2732169,134.438953 Z M52.3519469,141.407976 C51.1439829,141.407976 50.5864611,142.058418 50.5864611,142.52302 C50.5864611,143.034453 51.2369032,143.568187 52.5139999,143.568187 C54.3961935,143.568187 54.3731493,142.592896 54.3731493,141.756613 C53.9546363,141.640649 53.1413978,141.407976 52.3519469,141.407976 L52.3519469,141.407976 Z M59.2280493,144.358382 C58.4378551,143.70794 57.8342448,143.313214 56.928086,142.824825 C56.7192011,144.683231 56.0219272,145.659266 52.9786014,145.659266 C51.4918765,145.659266 50.1679481,145.426594 49.1926565,144.567267 C48.8209753,144.242417 48.3333296,143.568187 48.3333296,142.592896 C48.3333296,141.3381 49.238745,139.293854 52.4448672,139.293854 C53.2112738,139.293854 53.7918399,139.36373 54.2564414,139.433606 C54.2103529,138.899128 53.931592,136.530032 53.931592,136.041643 C53.931592,134.926599 54.4660696,134.230069 54.9306711,133.672547 L57.3458557,134.973431 C56.6032366,135.577041 56.4634845,136.158351 56.4634845,136.831837 C56.4634845,137.319483 56.5103163,138.341606 56.7652896,140.06026 C58.2988463,140.664614 59.2979254,141.24518 60.7608626,142.174383 L59.2280493,144.358382 Z M51.0042308,131.999981 C49.1227805,137.435447 47.9148165,139.758455 46.7068526,141.965498 L44.2210486,140.897286 C46.0794547,138.062845 47.2413302,135.066351 48.1935774,132.440795 C47.1253656,132.580547 46.4749235,132.650423 45.3829241,132.719556 L45.0342871,130.304372 C46.5678438,130.280584 47.5431353,130.187664 48.9830283,130.001823 C49.3784972,128.608019 49.6572581,127.585895 49.8193111,126.169046 L52.3519469,126.726568 C52.4679114,126.749613 52.9094687,126.865577 52.9094687,127.121294 C52.9094687,127.353966 52.5139999,127.492975 52.3749911,127.632727 C52.3519469,127.655771 51.9103896,129.142496 51.8174693,129.444301 C53.1882296,129.096408 53.8847602,128.863735 54.4891138,128.65485 L54.4891138,131.256619 C53.6989196,131.465504 52.9786014,131.651344 51.0042308,131.999981 L51.0042308,131.999981 Z" id="Fill-5"></path>
                <path d="M56.5099446,118.961925 C54.5586182,120.239765 52.8630085,120.44865 51.8869737,120.44865 C50.423293,120.44865 49.2391167,119.914172 48.4957543,119.26373 C47.4037549,118.311483 47.0320736,117.126563 47.0320736,111.551345 C47.0320736,110.134496 47.2179143,103.235349 47.1480382,101.678748 L50.2374524,102.120306 C50.7957176,102.190182 51.0046025,102.352235 51.0046025,102.491987 C51.0046025,102.677827 50.7258416,102.863668 50.3541603,103.165473 C50.1683197,103.769827 49.7037182,109.901823 49.7037182,112.457503 C49.7037182,113.526459 49.7037182,115.77959 50.1445321,116.569041 C50.191364,116.638917 50.7027973,117.545076 52.1895222,117.545076 C53.4904064,117.545076 56.6028649,116.731837 58.879784,112.271663 L61.1559598,114.153113 C60.2037125,115.477785 58.809908,117.4752 56.5099446,118.961925" id="Fill-7"></path>
                <path d="M57.9734766,86.3875601 C56.4867517,86.3875601 55.0461153,86.5734007 54.4893369,86.6432768 L54.4893369,84.2035613 C55.6965574,84.110641 56.8584329,84.0415083 58.0894411,84.0415083 C59.7159181,84.0415083 60.4592805,84.110641 61.1558111,84.1805171 L61.1558111,86.6432768 C59.4133696,86.4106044 58.3221135,86.3875601 57.9734766,86.3875601 M57.4627866,95.6097144 C53.2813729,95.6097144 51.4920995,94.4485823 51.4920995,92.0787429 C51.4920995,91.9627783 51.4920995,91.2194159 51.7708605,90.4061774 L54.0708238,90.8938232 C53.9779035,91.3353805 53.9779035,91.7070617 53.9779035,91.7538935 C53.9779035,92.0556986 54.0247353,92.2415393 54.2566644,92.4504241 C54.9071065,93.0547777 56.6725923,93.077822 57.2070699,93.077822 C59.3672811,93.077822 60.6220769,92.729185 61.2955632,92.567132 L61.5274923,95.2618208 C60.343316,95.4707056 59.0885202,95.6097144 57.4627866,95.6097144 M51.5850198,83.089261 C50.446932,86.945082 49.238968,90.6849383 46.7999959,95.4476614 L43.965555,94.5875911 C45.3593595,92.3344596 46.8460844,89.8256114 48.6814462,83.530075 C46.8230401,83.7627474 46.0335892,83.7857916 45.2203507,83.8088359 L45.0345101,81.392908 C45.2902268,81.4397398 45.7778726,81.5326601 46.9159604,81.5326601 C47.2408098,81.5326601 48.7044904,81.5096159 49.2159238,81.392908 C49.5638174,79.8132628 49.9592862,78.0247328 50.0053747,76.4681319 L52.8628599,77.1416183 C52.9096917,77.1416183 53.4434259,77.2583262 53.4434259,77.5132995 C53.4434259,77.6760958 53.3742932,77.7459719 53.164665,77.8388922 C52.8628599,77.977901 52.8167714,78.0016886 52.7699396,78.2336177 C52.5610547,79.2787852 52.3752141,80.115068 52.2124177,80.7662535 C53.5831781,80.4637049 54.9769826,79.8363071 55.9061856,79.3954931 L55.9061856,81.9742174 C55.1159914,82.2291907 54.1406999,82.6008719 51.5850198,83.089261" id="Fill-9"></path>
                <path d="M56.2311837,62.1288193 C56.2311837,63.0349781 56.2772722,65.9155075 56.2772722,66.7049584 L53.5825834,66.7049584 C53.6524594,65.38103 53.6755037,64.2429421 53.6992913,63.2208187 C52.8161767,63.662376 50.4002488,64.87034 50.4002488,66.4960736 C50.4002488,68.0058427 52.1895222,68.3083912 53.8851319,68.3083912 C55.8825467,68.3083912 57.8576607,68.0058427 59.8082437,67.5642854 L59.8082437,70.1898415 C57.601944,70.5384785 55.0232197,70.5384785 54.2798573,70.5384785 C52.9789731,70.5384785 50.2842843,70.5384785 48.8206036,68.9818776 C47.9382324,68.0526745 47.9382324,67.0305512 47.9382324,66.7049584 C47.9382324,63.824429 50.0753994,62.7324296 53.5595391,60.9438996 C53.4205304,60.247369 53.1417694,59.4110863 51.7940534,59.4110863 C49.5178776,59.4110863 48.1240731,61.525209 46.846233,63.6155442 L44.5693139,62.1986954 C46.4046758,60.2235814 47.5665512,58.5748036 49.1461964,55.8102387 C47.8215245,55.8801148 47.1019497,55.903159 46.1259148,55.903159 L45.8471539,53.4872311 C47.2409585,53.6031956 48.2630818,53.6500275 50.2842843,53.5801514 C50.8648503,52.3253556 51.1673988,51.5128605 51.4461597,50.4907372 L54.3497334,51.0014271 C54.4188661,51.0244714 54.8143349,51.0713032 54.8143349,51.2340996 C54.8143349,51.3731084 54.7214146,51.4429844 54.5816625,51.4890729 C54.535574,51.5128605 54.0709725,51.7217453 54.0471849,51.7217453 C54.0241406,51.7447896 53.4435746,53.0456738 53.32761,53.3013905 C55.464777,52.9527535 56.5099446,52.6509484 57.8807049,52.1164708 L57.7179085,54.7182393 C55.6275734,55.205885 53.7223355,55.4155132 52.1657346,55.6013539 C51.4223721,56.9721142 51.2365315,57.2969636 50.8418061,57.9013172 C51.1436112,57.7615651 51.8408852,57.4129281 52.8399643,57.4129281 C54.4426537,57.4129281 55.464777,58.2261666 55.9992546,59.7589799 C58.7169877,58.4818833 59.0187928,58.3421311 60.1107922,57.8544854 L60.9002431,60.5023423 C59.0656246,61.0836518 57.950581,61.4783772 56.2311837,62.1288193" id="Fill-11"></path>
                <path d="M48.1002111,35.3158109 L57.6479581,35.3158109 L57.6479581,32.2494409 L48.1002111,32.2494409 L48.1002111,35.3158109 Z M43.4779835,28.3467881 L62.1319203,28.3467881 L62.1319203,26.069869 L43.4779835,26.069869 L43.4779835,28.3467881 Z M43.013382,44.8397703 L43.013382,42.377754 L49.2851308,42.377754 C48.727609,41.0768697 48.0310784,40.0547464 47.3107602,39.2645521 L49.5876793,37.7778273 C50.1912896,38.5211897 51.283289,40.0079145 51.8868993,41.4946394 L50.4700505,42.377754 L53.6062966,42.377754 C54.6053757,40.9140733 55.3249506,39.5901449 56.0452687,37.684907 L45.4293099,37.684907 L45.4293099,29.8565572 L60.1337621,29.8565572 L60.1337621,37.684907 L56.7425427,37.684907 L58.6009488,38.7300745 C58.7169133,38.7999506 59.0187185,38.962747 59.0187185,39.2184636 C59.0187185,39.4503927 58.6938691,39.543313 58.3221879,39.6362333 C57.9965951,40.3795958 57.3000645,41.6574358 56.8116754,42.377754 L62.5727342,42.377754 L62.5727342,44.8397703 L43.013382,44.8397703 Z" id="Fill-13"></path>
                <path d="M60.7610857,20.1637059 C56.0920262,17.3062207 54.442505,15.1928413 52.816028,11.5451619 C50.6558168,16.0752125 48.4725614,18.3513883 44.4301565,20.3265022 L42.1539807,18.2822556 C47.5203141,16.1220443 49.6567377,13.0318867 50.8416574,8.15394247 L42.7813786,8.15394247 L42.7813786,5.64509428 L51.1204183,5.64509428 C51.2133386,4.62297094 51.2133386,3.43805123 51.2133386,3.08941425 C51.2133386,1.74244153 51.1672502,0.743362428 51.1204183,6.92779167e-13 L54.2098326,0.162796372 C54.372629,0.162796372 54.6053014,0.185840607 54.6053014,0.441557282 C54.6053014,0.627397889 54.372629,0.836282731 54.1637441,1.02212334 C54.1169123,1.50976909 54.1169123,1.20796395 54.1169123,2.36983942 C54.1169123,2.57872426 54.0708238,4.55309487 54.023992,5.64509428 L62.7592439,5.64509428 L62.7592439,8.15394247 L54.2566644,8.15394247 C55.6735132,12.614117 57.4858308,15.1928413 63.1539693,17.9336186 L60.7610857,20.1637059 Z" id="Fill-15"></path>
                <path d="M20.907217,179.284596 C20.907217,177.960668 19.8390051,176.891713 18.5143333,176.891713 C17.1673606,176.891713 16.0984054,177.960668 16.0984054,179.284596 C16.0984054,180.631569 17.1673606,181.700524 18.5143333,181.700524 C19.8850936,181.700524 20.907217,180.585481 20.907217,179.284596 M21.7665439,179.284596 C21.7665439,181.073126 20.3036067,182.536807 18.5143333,182.536807 C16.7258033,182.536807 15.2621227,181.073126 15.2621227,179.284596 C15.2621227,177.496066 16.7258033,176.032386 18.5143333,176.032386 C20.3496951,176.032386 21.7665439,177.542155 21.7665439,179.284596" id="Fill-16"></path>
                <path d="M18.3983688,157.674828 C17.330157,156.420775 16.4931309,155.630581 14.6354682,154.329697 L16.0523169,152.28545 C17.6550063,153.354405 18.839926,154.399573 20.0709342,155.816422 L18.3983688,157.674828 Z M6.1328887,160.718153 C5.50549081,160.718153 4.78591598,161.48456 4.78591598,162.459852 C4.78591598,163.389055 5.45940234,163.574895 5.73816325,163.574895 C6.43469385,163.574895 7.0152599,162.622648 7.0152599,161.693445 C7.0152599,161.043003 6.55065839,160.718153 6.1328887,160.718153 L6.1328887,160.718153 Z M16.0054851,168.80222 C14.2637869,169.452662 11.3364257,169.591671 9.68690447,169.591671 C8.40906446,169.591671 5.31965021,169.591671 5.31965021,167.408415 C5.31965021,167.152699 5.43635811,166.409336 5.48244658,166.084487 C4.83200445,165.944735 2.71788171,165.503177 2.71788171,162.506683 C2.71788171,158.812915 5.64524295,158.743039 6.62053446,158.719995 C6.73649899,158.092597 6.73649899,157.442899 6.71345476,157.071217 C5.76120749,157.187182 4.60007538,157.349978 3.18248323,157.396067 L2.83458961,154.910263 C4.66920808,154.933307 5.57536688,154.864174 6.8294193,154.747466 C6.8532069,152.657131 6.78333083,151.588176 6.71345476,150.775681 L9.31522326,151.054442 C9.82665661,151.10053 9.94262115,151.147362 9.94262115,151.356247 C9.94262115,151.495256 9.82665661,151.519043 9.68690447,151.611964 C9.5478957,151.704884 9.47801963,151.797804 9.43118779,151.890725 L9.29217902,154.376528 C11.1736293,153.958015 12.0567439,153.65621 13.1249557,153.237697 L13.1249557,155.76959 C11.6382308,156.211147 10.2912581,156.466864 9.19925872,156.675748 C9.17621448,157.396067 9.12938265,158.812915 9.08329418,159.974791 C9.29217902,160.253552 9.50106386,160.532313 9.50106386,161.089835 C9.50106386,161.833197 9.17621448,162.738612 8.8275775,163.644771 C8.40906446,164.806647 8.13030355,165.619885 8.13030355,166.293372 C8.13030355,166.966858 8.47894052,167.222575 10.0585857,167.222575 C14.5886363,167.222575 15.355043,166.43238 15.355043,165.201372 C15.355043,164.829691 15.2621227,163.714647 14.3329196,162.042082 L16.5860512,161.251888 C17.9568115,163.668559 17.9805991,165.665974 17.9805991,165.805726 C17.9805991,168.058857 16.4470424,168.639423 16.0054851,168.80222 L16.0054851,168.80222 Z" id="Fill-17"></path>
                <path d="M14.6815566,143.219922 C12.7302302,144.497762 11.0346206,144.706647 10.0585857,144.706647 C8.59490506,144.706647 7.41072872,144.172169 6.66736629,143.521727 C5.57536688,142.56948 5.20368567,141.38456 5.20368567,135.809342 C5.20368567,134.392493 5.38952627,127.493347 5.31965021,125.936746 L8.40906446,126.378303 C8.96732964,126.448179 9.17621448,126.610232 9.17621448,126.749984 C9.17621448,126.935825 8.89745357,127.121665 8.52577236,127.423471 C8.33993175,128.027824 7.87533023,134.159821 7.87533023,136.715501 C7.87533023,137.784456 7.87533023,140.037588 8.31614415,140.827039 C8.36297599,140.896915 8.87440934,141.803073 10.3611342,141.803073 C11.6620184,141.803073 14.7744769,140.989835 17.051396,136.52966 L19.3275718,138.411111 C18.3753245,139.735782 16.98152,141.733197 14.6815566,143.219922" id="Fill-18"></path>
                <path d="M6.43491686,107.137779 C4.78539563,108.717424 4.11190927,110.877635 4.11190927,112.294484 C4.11190927,114.176678 5.18086444,115.151969 5.59863413,115.151969 C6.80659807,115.151969 8.80475628,109.089105 9.26935779,105.465213 C8.59512807,105.697886 7.5499605,106.04578 6.43491686,107.137779 M18.932326,116.081172 C17.1906278,118.659897 14.7746999,119.658976 13.5199042,120.169666 L11.8012502,117.777525 C12.8464178,117.474977 14.5658151,116.987331 15.9826639,115.291721 C17.3995127,113.619156 17.6552293,111.690874 17.6552293,110.66875 C17.6552293,109.39091 17.2835481,107.83431 15.9826639,106.603301 C14.5189833,105.209497 12.8932496,105.116577 12.0331793,105.0467 C11.2898169,110.57583 9.91905656,113.828041 9.15264989,115.384642 C8.4561193,116.824535 7.38716413,118.775861 6.17920018,118.775861 C5.34291745,118.775861 1.53318501,116.685526 1.53318501,112.527157 C1.53318501,107.369708 5.78447473,102.677604 11.7774626,102.677604 C16.6100618,102.677604 20.4190508,105.952859 20.4190508,111.133352 C20.4190508,113.177599 19.7923963,114.804076 18.932326,116.081172" id="Fill-19"></path>
                <path d="M16.1450886,86.3875601 C14.6583637,86.3875601 13.2177273,86.5734007 12.6609489,86.6432768 L12.6609489,84.2035613 C13.8681695,84.110641 15.0300449,84.0415083 16.2610531,84.0415083 C17.8875301,84.0415083 18.6308925,84.110641 19.3274231,84.1805171 L19.3274231,86.6432768 C17.5849816,86.4106044 16.4937255,86.3875601 16.1450886,86.3875601 M15.6343986,95.6097144 C11.4529849,95.6097144 9.66371156,94.4485823 9.66371156,92.0787429 C9.66371156,91.9627783 9.66371156,91.2194159 9.94247247,90.4061774 L12.2424358,90.8938232 C12.1495155,91.3353805 12.1495155,91.7070617 12.1495155,91.7538935 C12.1495155,92.0556986 12.1963474,92.2415393 12.4282764,92.4504241 C13.0787186,93.0547777 14.8442043,93.077822 15.3786819,93.077822 C17.5388931,93.077822 18.7936889,92.729185 19.4671753,92.567132 L19.6991043,95.2618208 C18.514928,95.4707056 17.2601322,95.6097144 15.6343986,95.6097144 M9.75663187,83.089261 C8.61854399,86.945082 7.41058004,90.6849383 4.97160792,95.4476614 L2.13716698,94.5875911 C3.53097153,92.3344596 5.01769639,89.8256114 6.85305822,83.530075 C4.99465215,83.7627474 4.20520125,83.7857916 3.39196276,83.8088359 L3.20612215,81.392908 C3.46183883,81.4397398 3.94948458,81.5326601 5.08757246,81.5326601 C5.41242184,81.5326601 6.87610246,81.5096159 7.38753581,81.392908 C7.73542942,79.8132628 8.13089824,78.0247328 8.17698671,76.4681319 L11.0344719,77.1416183 C11.0813037,77.1416183 11.6150379,77.2583262 11.6150379,77.5132995 C11.6150379,77.6760958 11.5459052,77.7459719 11.336277,77.8388922 C11.0344719,77.977901 10.9883834,78.0016886 10.9415516,78.2336177 C10.7326667,79.2787852 10.5468261,80.115068 10.3840298,80.7662535 C11.7547901,80.4637049 13.1485946,79.8363071 14.0777977,79.3954931 L14.0777977,81.9742174 C13.2876034,82.2291907 12.3123119,82.6008719 9.75663187,83.089261" id="Fill-20"></path>
                <path d="M14.4027957,62.1288193 C14.4027957,63.0349781 14.4488842,65.9155075 14.4488842,66.7049584 L11.7541954,66.7049584 C11.8240715,65.38103 11.8471157,64.2429421 11.8709033,63.2208187 C10.9877887,63.662376 8.57186083,64.87034 8.57186083,66.4960736 C8.57186083,68.0058427 10.3611342,68.3083912 12.0567439,68.3083912 C14.0541587,68.3083912 16.0292727,68.0058427 17.9798557,67.5642854 L17.9798557,70.1898415 C15.773556,70.5384785 13.1948318,70.5384785 12.4514693,70.5384785 C11.1505851,70.5384785 8.45589629,70.5384785 6.99221567,68.9818776 C6.10984447,68.0526745 6.10984447,67.0305512 6.10984447,66.7049584 C6.10984447,63.824429 8.24701145,62.7324296 11.7311511,60.9438996 C11.5921424,60.247369 11.3133815,59.4110863 9.96566538,59.4110863 C7.68948963,59.4110863 6.29568507,61.525209 5.01784506,63.6155442 L2.74092594,62.1986954 C4.57628778,60.2235814 5.73816325,58.5748036 7.31780841,55.8102387 C5.99313657,55.8801148 5.27356174,55.903159 4.29752687,55.903159 L4.01876596,53.4872311 C5.41257051,53.6031956 6.43469385,53.6500275 8.45589629,53.5801514 C9.03646235,52.3253556 9.33901085,51.5128605 9.61777176,50.4907372 L12.5213454,51.0014271 C12.5904781,51.0244714 12.9859469,51.0713032 12.9859469,51.2340996 C12.9859469,51.3731084 12.8930266,51.4429844 12.7532745,51.4890729 C12.707186,51.5128605 12.2425845,51.7217453 12.2187969,51.7217453 C12.1957527,51.7447896 11.6151866,53.0456738 11.4992221,53.3013905 C13.636389,52.9527535 14.6815566,52.6509484 16.0523169,52.1164708 L15.8895206,54.7182393 C13.7991854,55.205885 11.8939475,55.4155132 10.3373466,55.6013539 C9.59398417,56.9721142 9.40814356,57.2969636 9.01341811,57.9013172 C9.31522326,57.7615651 10.0124972,57.4129281 11.0115763,57.4129281 C12.6142657,57.4129281 13.636389,58.2261666 14.1708666,59.7589799 C16.8885997,58.4818833 17.1904048,58.3421311 18.2824042,57.8544854 L19.0718551,60.5023423 C17.2372366,61.0836518 16.122193,61.4783772 14.4027957,62.1288193" id="Fill-21"></path>
                <path d="M4.34421003,28.7413649 C4.4140861,29.6936122 4.4140861,30.6228152 4.43713033,31.9705313 C5.52912974,31.2732573 6.52820884,30.6466028 7.94505763,28.7413649 L4.34421003,28.7413649 Z M8.40965915,28.7413649 L9.73358763,29.6936122 C9.94247247,29.8564086 10.2442776,30.0883376 10.1751449,30.2979658 L15.5875667,30.2979658 L15.5875667,29.0201258 L17.6779019,29.1360904 C18.0495831,29.1591346 18.3982201,29.1829222 18.3982201,29.4148513 C18.3982201,29.4847273 18.3521316,29.5546034 18.2592113,29.6237361 C18.0733707,29.7634882 18.0733707,29.8095767 18.0733707,30.2979658 L20.9070683,30.2979658 L20.9070683,32.1095401 L18.0733707,32.1095401 L18.0733707,33.9909904 C18.0733707,34.8042289 17.1902561,35.5944231 15.0070007,35.6405116 L14.0547534,33.5263889 C14.2866825,33.5501765 14.7282398,33.5962649 14.9140804,33.5962649 C15.3556377,33.5962649 15.5875667,33.4803004 15.5875667,32.968867 L15.5875667,32.1095401 L11.7778343,32.1095401 C12.3123119,32.3422125 13.2184707,32.8529025 13.7759925,33.3643358 L12.8928779,34.9900695 C13.1017628,34.9900695 13.7061164,35.0369013 13.7061164,35.3387065 C13.7061164,35.454671 13.6362404,35.5015028 13.5433201,35.6174674 C13.4043113,35.7802637 13.3805237,35.8501398 13.3344352,35.9430601 L19.606184,35.9430601 L19.606184,42.9113395 C19.606184,44.9094977 17.6087692,45.1183826 16.1919204,45.1183826 L15.4946464,43.1670562 L14.751284,44.0263832 C13.8689128,43.6086135 13.1485946,43.1901004 12.1264713,42.3538177 C11.3831089,43.1209677 10.6167022,43.8174983 9.43178248,44.5608607 L7.57337642,43.1209677 C9.03631367,42.4935698 10.5929146,41.5643668 11.684914,39.6360847 L13.311391,40.2634825 C13.3805237,40.2865268 13.6362404,40.4032347 13.6362404,40.6121195 C13.6362404,40.7511283 13.5433201,40.7979601 13.2645592,40.9600131 C14.2168064,41.7962959 15.4716022,42.1449328 16.2380089,42.284685 L15.9131595,42.6563662 C16.1681328,42.7723307 16.4008052,42.795375 16.469938,42.795375 C16.9114952,42.795375 17.1902561,42.5864901 17.1902561,41.7502074 L17.1902561,37.9174307 L14.0777977,37.9174307 C14.3796028,38.2660677 15.1460095,39.1023504 16.888451,39.5669519 L15.5176907,41.0997653 C14.1937622,40.5422435 13.0326301,39.6598723 12.033551,38.6139613 C11.4529849,39.450244 10.6627907,40.3564028 9.29203035,41.076721 L7.80530549,39.5431644 C8.64158822,39.1952707 9.50091519,38.7068816 10.0123485,37.9174307 L7.45666851,37.9174307 L7.45666851,45.1652144 L5.06452822,45.1652144 L5.06452822,35.9430601 L10.8486313,35.9430601 C10.8954631,35.7572195 10.9883834,35.4085825 11.0575161,34.8510607 L12.7538692,34.9900695 C12.3123119,34.6183883 11.5459052,34.014778 10.6397464,33.6193092 L11.4529849,32.1095401 L9.8725964,32.1095401 L9.8725964,30.4369746 C9.6867558,30.4369746 9.54774702,30.4607622 9.45482672,30.599771 C9.36190642,30.6926913 8.9902252,31.1572928 8.8973049,31.2502131 C9.06010127,31.2970449 9.26898611,31.3431334 9.26898611,31.528974 C9.26898611,31.7378589 8.94339337,31.8307792 8.82742883,31.877611 L8.82742883,35.4316268 L6.55125308,35.4316268 L6.55125308,33.3643358 C6.01677549,33.8051498 5.92385519,33.8750258 5.71497035,34.014778 L4.43713033,32.8529025 C4.43713033,34.943981 4.46017457,36.5466704 4.22824549,38.6838374 C3.85656428,42.284685 3.15929032,43.8873744 2.67164457,45.0485065 L-5.36459765e-13,44.1891795 C0.999079103,42.1679771 2.11412274,39.8687571 2.11412274,34.0839107 C2.11412274,33.2015395 2.06729091,29.8794528 1.74244153,26.6041979 L9.59383549,26.6041979 L9.59383549,25.0944288 L12.3584004,25.2103934 C12.614117,25.2103934 13.0787186,25.2572252 13.0787186,25.5359861 C13.0787186,25.6289064 13.0088425,25.7218267 12.8467895,25.8608355 C12.6371613,26.0466761 12.614117,26.0927646 12.614117,26.1626406 L12.614117,26.6041979 L20.9999886,26.6041979 L20.9999886,28.7413649 L8.40965915,28.7413649 Z" id="Fill-22"></path>
                <path d="M6.27182314,9.75603718 L15.8195702,9.75603718 L15.8195702,6.68966716 L6.27182314,6.68966716 L6.27182314,9.75603718 Z M1.64959556,2.78775778 L20.3035323,2.78775778 L20.3035323,0.51083866 L1.64959556,0.51083866 L1.64959556,2.78775778 Z M1.18499405,19.28074 L1.18499405,16.8179802 L7.45674285,16.8179802 C6.89922103,15.517096 6.20269043,14.4949727 5.48237224,13.7055218 L7.75929136,12.2187969 C8.36290165,12.9621593 9.45490106,14.4488842 10.0585113,15.935609 L8.64166256,16.8179802 L11.7779086,16.8179802 C12.7769877,15.355043 13.4965626,14.0303711 14.2168808,12.1258766 L3.60092194,12.1258766 L3.60092194,4.29752687 L18.3053741,4.29752687 L18.3053741,12.1258766 L14.9141547,12.1258766 L16.7725608,13.1710442 C16.8885253,13.2409202 17.1903305,13.4037166 17.1903305,13.6586899 C17.1903305,13.8913624 16.8654811,13.9842827 16.4937999,14.077203 C16.1682071,14.8205654 15.4716765,16.0984054 14.9832874,16.8179802 L20.7443462,16.8179802 L20.7443462,19.28074 L1.18499405,19.28074 Z" id="Fill-23"></path>
            </g>
            <path d="M1276.39837,365.674828 C1275.33016,364.420775 1274.49313,363.630581 1272.63547,362.329697 L1274.05232,360.28545 C1275.65501,361.354405 1276.83993,362.399573 1278.07093,363.816422 L1276.39837,365.674828 Z M1264.13289,368.718153 C1263.50549,368.718153 1262.78592,369.48456 1262.78592,370.459852 C1262.78592,371.389055 1263.4594,371.574895 1263.73816,371.574895 C1264.43469,371.574895 1265.01526,370.622648 1265.01526,369.693445 C1265.01526,369.043003 1264.55066,368.718153 1264.13289,368.718153 L1264.13289,368.718153 Z M1274.00549,376.80222 C1272.26379,377.452662 1269.33643,377.591671 1267.6869,377.591671 C1266.40906,377.591671 1263.31965,377.591671 1263.31965,375.408415 C1263.31965,375.152699 1263.43636,374.409336 1263.48245,374.084487 C1262.832,373.944735 1260.71788,373.503177 1260.71788,370.506683 C1260.71788,366.812915 1263.64524,366.743039 1264.62053,366.719995 C1264.7365,366.092597 1264.7365,365.442899 1264.71345,365.071217 C1263.76121,365.187182 1262.60008,365.349978 1261.18248,365.396067 L1260.83459,362.910263 C1262.66921,362.933307 1263.57537,362.864174 1264.82942,362.747466 C1264.85321,360.657131 1264.78333,359.588176 1264.71345,358.775681 L1267.31522,359.054442 C1267.82666,359.10053 1267.94262,359.147362 1267.94262,359.356247 C1267.94262,359.495256 1267.82666,359.519043 1267.6869,359.611964 C1267.5479,359.704884 1267.47802,359.797804 1267.43119,359.890725 L1267.29218,362.376528 C1269.17363,361.958015 1270.05674,361.65621 1271.12496,361.237697 L1271.12496,363.76959 C1269.63823,364.211147 1268.29126,364.466864 1267.19926,364.675748 C1267.17621,365.396067 1267.12938,366.812915 1267.08329,367.974791 C1267.29218,368.253552 1267.50106,368.532313 1267.50106,369.089835 C1267.50106,369.833197 1267.17621,370.738612 1266.82758,371.644771 C1266.40906,372.806647 1266.1303,373.619885 1266.1303,374.293372 C1266.1303,374.966858 1266.47894,375.222575 1268.05859,375.222575 C1272.58864,375.222575 1273.35504,374.43238 1273.35504,373.201372 C1273.35504,372.829691 1273.26212,371.714647 1272.33292,370.042082 L1274.58605,369.251888 C1275.95681,371.668559 1275.9806,373.665974 1275.9806,373.805726 C1275.9806,376.058857 1274.44704,376.639423 1274.00549,376.80222 L1274.00549,376.80222 Z" id="Fill-17"></path>
        </g>
    </g>
</svg>