<?xml version="1.0" encoding="UTF-8"?>
<svg width="86px" height="22px" viewBox="0 0 86 22" version="1.1" xmlns="http://www.w3.org/2000/svg" xmlns:xlink="http://www.w3.org/1999/xlink">
    <title>gnav-about-mamestro</title>
    <g id="Symbols" stroke="none" stroke-width="1" fill="none" fill-rule="evenodd">
        <g id="contents/header-1440" transform="translate(-383.000000, -54.000000)" fill="#C8A062">
            <g id="Group-18" transform="translate(383.000000, 54.000000)">
                <path d="M6.9151465,11.2558469 L6.35099363,11.2558469 C5.94354989,11.2558469 5.51901062,11.2729425 5.07025265,11.3071335 C4.62434395,11.3441739 4.21262633,11.4196792 3.83509979,11.5379234 C3.45614862,11.6575921 3.14273036,11.8242737 2.89199575,12.0422418 C2.63983652,12.2587854 2.51304459,12.5551081 2.51304459,12.9326346 C2.51304459,13.1705476 2.56575584,13.3685709 2.67117834,13.5295539 C2.77660085,13.6905369 2.91194055,13.8201781 3.08004671,13.9170529 C3.24815287,14.0153522 3.43620382,14.085159 3.6456242,14.1278979 C3.85646921,14.1692121 4.06446497,14.1905815 4.27388535,14.1905815 C5.14148408,14.1905815 5.79823779,13.9583671 6.2441465,13.4982121 C6.69290446,13.0366325 6.9151465,12.4083713 6.9151465,11.612004 L6.9151465,11.2558469 Z M6.95646072,14.5666834 L6.89377707,14.5666834 C6.64304246,15.0154414 6.23702335,15.3815709 5.678569,15.6679212 C5.12011465,15.9542715 4.48473036,16.0967344 3.77099151,16.0967344 C3.36639703,16.0967344 2.94328238,16.0440231 2.50307219,15.9400253 C2.06428662,15.8360274 1.65826752,15.6607981 1.28786412,15.415762 C0.917460722,15.1721505 0.609740977,14.8501845 0.364704883,14.4512885 C0.11966879,14.0538172 1.08817885e-13,13.5608958 1.08817885e-13,12.9739488 C1.08817885e-13,12.2203204 0.212269639,11.6191272 0.638233546,11.1717938 C1.06419745,10.7244605 1.61267941,10.3825497 2.28367941,10.1446367 C2.95467941,9.90814841 3.69833546,9.75001465 4.51464756,9.67308471 C5.33380892,9.59615478 6.13302548,9.55768981 6.9151465,9.55768981 L6.9151465,9.3069552 C6.9151465,8.67726943 6.68863057,8.21284055 6.2341741,7.91224395 C5.77971762,7.61164735 5.23835881,7.46206136 4.61009766,7.46206136 C4.07871125,7.46206136 3.56869427,7.57318238 3.08004671,7.79684904 C2.59139915,8.02051571 2.18538004,8.29404437 1.86341401,8.61458577 L0.564152866,7.08453482 C1.1368535,6.55314841 1.7978811,6.15567707 2.54581104,5.88927155 C3.29231635,5.62429066 4.05021868,5.49180021 4.81951805,5.49180021 C5.71276008,5.49180021 6.45071762,5.61716752 7.0305414,5.86932675 C7.61036518,6.12148599 8.06909554,6.44915053 8.40388323,6.85374501 C8.73867091,7.25833949 8.97230998,7.71422059 9.10622505,8.21568981 C9.2387155,8.72000828 9.30567304,9.22147749 9.30567304,9.72579597 L9.30567304,15.8459998 L6.95646072,15.8459998 L6.95646072,14.5666834 Z" id="Fill-1"></path>
                <path d="M20.7703705,10.7730403 C20.7703705,10.3826921 20.7105361,9.99376858 20.5922919,9.61054352 C20.4726231,9.22589384 20.2945446,8.87970913 20.0580563,8.57198938 C19.8201433,8.26569427 19.5195467,8.01638429 19.1562665,7.82833333 C18.7929862,7.64028238 18.3670223,7.54483227 17.8783747,7.54483227 C17.4167951,7.54483227 17.0036529,7.64313163 16.6417972,7.83830573 C16.278517,8.03490446 15.9665234,8.28706369 15.7086656,8.59335881 C15.4508079,8.90107856 15.2542091,9.25153715 15.1217187,9.64188535 C14.9878036,10.0322335 14.9236953,10.4240064 14.9236953,10.8143546 C14.9236953,11.207552 14.9878036,11.5936263 15.1217187,11.9797006 C15.2542091,12.3629257 15.4508079,12.7091104 15.7086656,13.0154055 C15.9665234,13.3231253 16.278517,13.5724352 16.6417972,13.7604862 C17.0036529,13.9485372 17.4167951,14.0439873 17.8783747,14.0439873 C18.3670223,14.0439873 18.7929862,13.9456879 19.1562665,13.7505138 C19.5195467,13.5539151 19.8201433,13.3017558 20.0580563,12.9954607 C20.2945446,12.687741 20.4726231,12.338707 20.5922919,11.9469342 C20.7105361,11.556586 20.7703705,11.1648132 20.7703705,10.7730403 L20.7703705,10.7730403 Z M15.0063238,-4.04903759e-14 L15.0063238,7.06330786 L15.0690074,7.06330786 C15.1943747,6.8952017 15.3553577,6.72139703 15.5519565,6.53904459 C15.7471306,6.35811677 15.9807696,6.19001062 16.2528737,6.03615074 C16.5264023,5.88229087 16.8426699,5.75407431 17.2073747,5.6486518 C17.570655,5.5432293 17.9823726,5.49194268 18.4439522,5.49194268 C19.1562665,5.49194268 19.8130202,5.62870701 20.4142134,5.89938641 C21.0154066,6.17291507 21.5311221,6.54616773 21.9656338,7.020569 C22.3987208,7.4963949 22.7335085,8.05627389 22.9714214,8.69878132 C23.2093344,9.34128875 23.3275786,10.0322335 23.3275786,10.7730403 C23.3275786,11.5152718 23.2121837,12.2090658 22.9813938,12.8586964 C22.7520287,13.508327 22.4229395,14.0739045 21.995551,14.5568535 C21.5710117,15.0383779 21.0524469,15.4244522 20.4441306,15.7093779 C19.8386635,15.9957282 19.1491433,16.1396157 18.3798439,16.1396157 C17.6675297,16.1396157 17.0008036,15.9857558 16.3796656,15.6780361 C15.757103,15.371741 15.2713047,14.922983 14.9236953,14.3360361 L14.8795318,14.3360361 L14.8795318,15.8461423 L12.4904299,15.8461423 L12.4904299,-4.04903759e-14 L15.0063238,-4.04903759e-14 Z" id="Fill-3"></path>
                <path d="M27.8338208,10.7730403 C27.8338208,11.1648132 27.8936552,11.556586 28.0118994,11.9469342 C28.1301435,12.338707 28.3082221,12.687741 28.546135,12.9954607 C28.784048,13.3017558 29.0846446,13.5539151 29.4479248,13.7505138 C29.8112051,13.9456879 30.2442921,14.0439873 30.747186,14.0439873 C31.2500798,14.0439873 31.6831669,13.9456879 32.0464471,13.7505138 C32.4097274,13.5539151 32.710324,13.3017558 32.9482369,12.9954607 C33.1861499,12.687741 33.3642285,12.338707 33.4824726,11.9469342 C33.6007168,11.556586 33.6605512,11.1648132 33.6605512,10.7730403 C33.6605512,10.3826921 33.6007168,9.99376858 33.4824726,9.61054352 C33.3642285,9.22589384 33.1861499,8.87970913 32.9482369,8.57198938 C32.710324,8.26569427 32.4097274,8.01638429 32.0464471,7.82833333 C31.6831669,7.64028238 31.2500798,7.54483227 30.747186,7.54483227 C30.2442921,7.54483227 29.8112051,7.64028238 29.4479248,7.82833333 C29.0846446,8.01638429 28.784048,8.26569427 28.546135,8.57198938 C28.3082221,8.87970913 28.1301435,9.22589384 28.0118994,9.61054352 C27.8936552,9.99376858 27.8338208,10.3826921 27.8338208,10.7730403 M25.2766127,10.7730403 C25.2766127,9.97667304 25.4205002,9.25438641 25.7068505,8.60475584 C25.9932008,7.95370064 26.3792752,7.39952017 26.8693473,6.93794055 C27.3579949,6.47636093 27.9378187,6.12020382 28.6088187,5.86946921 C29.2812433,5.61730998 29.9935575,5.49194268 30.747186,5.49194268 C31.5022391,5.49194268 32.2145533,5.61730998 32.8855533,5.86946921 C33.5565533,6.12020382 34.1363771,6.47636093 34.6250246,6.93794055 C35.1136722,7.39952017 35.5025958,7.95370064 35.7889461,8.60475584 C36.0738718,9.25438641 36.2177592,9.97667304 36.2177592,10.7730403 C36.2177592,11.5708323 36.0738718,12.2959682 35.7889461,12.9527219 C35.5025958,13.6094756 35.1136722,14.1736285 34.6250246,14.6409066 C34.1363771,15.1096093 33.5565533,15.4757389 32.8855533,15.7407197 C32.2145533,16.0071253 31.5022391,16.1396157 30.747186,16.1396157 C29.9935575,16.1396157 29.2812433,16.0071253 28.6088187,15.7407197 C27.9378187,15.4757389 27.3579949,15.1096093 26.8693473,14.6409066 C26.3792752,14.1736285 25.9932008,13.6094756 25.7068505,12.9527219 C25.4205002,12.2959682 25.2766127,11.5708323 25.2766127,10.7730403" id="Fill-5"></path>
                <path d="M47.934331,15.8455724 L45.5438045,15.8455724 L45.5438045,14.2314684 L45.5024902,14.2314684 C45.2788236,14.7357868 44.8913246,15.1788463 44.3399934,15.563496 C43.7872376,15.946721 43.1347577,16.1390459 42.3797047,16.1390459 C41.722951,16.1390459 41.1602227,16.023651 40.69152,15.7942858 C40.2242418,15.563496 39.8395921,15.2586255 39.5389955,14.8810989 C39.2383989,14.504997 39.0175815,14.07191 38.8793926,13.5818378 C38.739779,13.0931902 38.6685476,12.5902964 38.6685476,12.0731563 L38.6685476,5.78484628 L41.1844414,5.78484628 L41.1844414,11.360842 C41.1844414,11.6543155 41.2043862,11.9606106 41.2485497,12.2825766 C41.2898639,12.6045427 41.3796155,12.8951669 41.5192291,13.1516 C41.6602673,13.4108824 41.8511675,13.623152 42.0962036,13.7926828 C42.3398151,13.9593643 42.666055,14.0434174 43.0706495,14.0434174 C43.4609977,14.0434174 43.808607,13.9636382 44.107779,13.8012306 C44.4083756,13.6416722 44.6534117,13.4365257 44.8414626,13.1843665 C45.0309382,12.9322072 45.1748257,12.6430076 45.2717004,12.3139185 C45.3685752,11.9862539 45.4184372,11.6543155 45.4184372,11.3181032 L45.4184372,5.78484628 L47.934331,5.78484628 L47.934331,15.8455724 Z" id="Fill-7"></path>
                <path d="M50.3439476,7.79727643 L50.3439476,5.78570106 L52.1047883,5.78570106 L52.1047883,2.87091125 L54.5793679,2.87091125 L54.5793679,5.78570106 L57.0924125,5.78570106 L57.0924125,7.79727643 L54.5793679,7.79727643 L54.5793679,12.4714824 C54.5793679,12.9188157 54.6577225,13.2877945 54.8201301,13.5826926 C54.9796885,13.876166 55.3401195,14.0229028 55.8985739,14.0229028 C56.06668,14.0229028 56.2490325,14.0043826 56.442782,13.9701915 C56.6393807,13.9360004 56.8131854,13.8818645 56.9670452,13.8134824 L57.0510983,15.7823189 C56.8288563,15.866372 56.5624507,15.9333295 56.254731,15.9817669 C55.9484359,16.0302042 55.6549624,16.0558476 55.3743106,16.0558476 C54.7047352,16.0558476 54.1591025,15.9603975 53.7402618,15.7737711 C53.321421,15.5842955 52.988058,15.3250132 52.7444465,14.9973486 C52.4994104,14.6682594 52.3327289,14.2921575 52.2415527,13.8661936 C52.1503764,13.4388051 52.1047883,12.9814994 52.1047883,12.4928518 L52.1047883,7.79727643 L50.3439476,7.79727643 Z" id="Fill-9"></path>
                <path d="M74.1772692,15.8455724 L71.7867427,15.8455724 L71.7867427,14.2314684 L71.7454285,14.2314684 C71.5217618,14.7357868 71.1342628,15.1788463 70.5829316,15.563496 C70.0301758,15.946721 69.377696,16.1390459 68.6226429,16.1390459 C67.9658892,16.1390459 67.4031609,16.023651 66.9344582,15.7942858 C66.46718,15.563496 66.0825304,15.2586255 65.7819338,14.8810989 C65.4813372,14.504997 65.2605197,14.07191 65.1223308,13.5818378 C64.9827172,13.0931902 64.9114858,12.5902964 64.9114858,12.0731563 L64.9114858,5.78484628 L67.4273796,5.78484628 L67.4273796,11.360842 C67.4273796,11.6543155 67.4473244,11.9606106 67.4914879,12.2825766 C67.5328021,12.6045427 67.6225537,12.8951669 67.7621673,13.1516 C67.9032055,13.4108824 68.0941057,13.623152 68.3391418,13.7926828 C68.5827533,13.9593643 68.9089932,14.0434174 69.3135877,14.0434174 C69.7039359,14.0434174 70.0515452,13.9636382 70.3507172,13.8012306 C70.6513138,13.6416722 70.8963499,13.4365257 71.0844008,13.1843665 C71.2738764,12.9322072 71.4177639,12.6430076 71.5146386,12.3139185 C71.6115134,11.9862539 71.6613754,11.6543155 71.6613754,11.3181032 L71.6613754,5.78484628 L74.1772692,5.78484628 L74.1772692,15.8455724 Z" id="Fill-11"></path>
                <path d="M83.4402034,8.46784904 C83.2165367,8.17437558 82.908817,7.91936709 82.5184688,7.70282357 C82.126696,7.48628004 81.7007321,7.37800828 81.2391524,7.37800828 C80.834558,7.37800828 80.4641546,7.46206136 80.1293669,7.62874289 C79.7931546,7.79684904 79.6250484,8.07750085 79.6250484,8.46784904 C79.6250484,8.85819724 79.8102501,9.13599979 80.1806535,9.29555817 C80.5510569,9.45654119 81.0938403,9.62179809 81.8061546,9.78847962 C82.1822565,9.87110807 82.5640569,9.98365372 82.947282,10.1232673 C83.3319316,10.2643055 83.6809656,10.4495072 83.9958085,10.6788724 C84.3092268,10.9096622 84.5656599,11.1960125 84.760834,11.5379234 C84.9560081,11.8812588 85.0543074,12.2972503 85.0543074,12.7858979 C85.0543074,13.4013374 84.9389125,13.9213268 84.7095473,14.3472907 C84.4787575,14.7746792 84.1710378,15.1194393 83.7863881,15.3844202 C83.4017384,15.6508257 82.9544051,15.8431505 82.4443881,15.9613947 C81.9343711,16.0796389 81.4072586,16.1394732 80.8616259,16.1394732 C80.0795049,16.1394732 79.3173287,15.9955858 78.5779465,15.7092355 C77.8357151,15.4243098 77.2217002,15.0154414 76.7330527,14.484055 L78.3884709,12.9326346 C78.6676981,13.2959149 79.0309783,13.5965115 79.4797363,13.8344244 C79.925645,14.0723374 80.4228403,14.1905815 80.9670484,14.1905815 C81.1494008,14.1905815 81.3331779,14.1692121 81.5226535,14.1278979 C81.7107045,14.085159 81.8859338,14.0182015 82.0454921,13.9284499 C82.2078998,13.8372737 82.337541,13.7161803 82.4344157,13.5608958 C82.5312904,13.4084605 82.5797278,13.2189849 82.5797278,12.9953183 C82.5797278,12.5764775 82.3888276,12.2758809 82.0041779,12.0935285 C81.6209529,11.9126006 81.0425537,11.7302482 80.274679,11.5493204 C79.8985771,11.4652673 79.5310229,11.3569955 79.1748658,11.2245051 C78.8187087,11.0920146 78.4995919,10.9167854 78.2217894,10.7002418 C77.9425622,10.4836983 77.7174709,10.2158682 77.5507894,9.89247749 C77.3826832,9.57193609 77.2986301,9.17304013 77.2986301,8.69863885 C77.2986301,8.1401845 77.4154497,7.65866008 77.6448149,7.25121635 C77.8756047,6.84662187 78.1804752,6.51468344 78.5565771,6.25682569 C78.9341036,5.99896794 79.3600675,5.8066431 79.8358934,5.67985117 C80.3102947,5.55448386 80.7989423,5.49180021 81.3018361,5.49180021 C82.0298212,5.49180021 82.7378616,5.61716752 83.430231,5.86932675 C84.1226004,6.12148599 84.6696577,6.50471104 85.0742522,7.02042654 L83.4402034,8.46784904 Z" id="Fill-13"></path>
            </g>
        </g>
    </g>
</svg>