<?xml version="1.0" encoding="UTF-8"?>
<svg width="75px" height="22px" viewBox="0 0 75 22" version="1.1" xmlns="http://www.w3.org/2000/svg" xmlns:xlink="http://www.w3.org/1999/xlink">
    <title>gnav-contact</title>
    <g id="Symbols" stroke="none" stroke-width="1" fill="none" fill-rule="evenodd">
        <g id="contents/header-1440" transform="translate(-717.000000, -54.000000)" fill="#C8A062">
            <g id="Group-13" transform="translate(717.787686, 56.849257)">
                <path d="M7.46077919,5.70136306 C7.2656051,5.42356051 6.97213163,5.18849682 6.58178344,5.00044586 C6.18858599,4.81097028 5.79111465,4.7169448 5.38652017,4.7169448 C4.92494055,4.7169448 4.52034607,4.81097028 4.16988747,5.00044586 C3.8208535,5.18849682 3.53165393,5.43638217 3.30086412,5.74267728 C3.07007431,6.05182166 2.8991189,6.39658174 2.78799788,6.78123142 C2.67545223,7.1658811 2.61989172,7.55338004 2.61989172,7.94372824 C2.61989172,8.33692569 2.67972611,8.723 2.79797028,9.10907431 C2.91621444,9.49229936 3.09571762,9.83848408 3.33220594,10.1447792 C3.5701189,10.4524989 3.86786624,10.7018089 4.22402335,10.8898599 C4.58018047,11.0779108 4.99617197,11.1733609 5.47057325,11.1733609 C5.86092144,11.1733609 6.25269427,11.0950064 6.64446709,10.9425711 C7.03481529,10.7872866 7.34965817,10.5650446 7.58757113,10.2715711 L9.15893631,11.8643057 C8.73867091,12.3116391 8.20443524,12.6578238 7.55480467,12.9028599 C6.9051741,13.1464713 6.20283227,13.2689894 5.44920382,13.2689894 C4.70839703,13.2689894 4.0060552,13.1507452 3.34217834,12.9128323 C2.67972611,12.6749193 2.09847771,12.3244607 1.60270701,11.8643057 C1.10693631,11.4027261 0.71658811,10.8442718 0.428813163,10.1860934 C0.142462845,9.53076433 -2.84697955e-14,8.78283439 -2.84697955e-14,7.94372824 C-2.84697955e-14,7.13453928 0.142462845,6.40085563 0.428813163,5.74267728 C0.71658811,5.08592357 1.10266242,4.52889384 1.59273461,4.06731423 C2.08138217,3.60573461 2.65123355,3.24957749 3.30086412,2.99884289 C3.95049469,2.74668365 4.64428875,2.62131635 5.38652017,2.62131635 C6.12590234,2.62131635 6.84249045,2.76092994 7.53485987,3.04015711 C8.22580467,3.31938429 8.77428662,3.70403397 9.18030573,4.19268153 L7.46077919,5.70136306 Z" id="Fill-36"></path>
                <path d="M13.5181569,7.90227155 C13.5181569,8.29404437 13.5779913,8.6858172 13.6962355,9.07616539 C13.8144796,9.46793822 13.9925582,9.81697219 14.2304711,10.1246919 C14.4683841,10.430987 14.7689807,10.6831463 15.1322609,10.879745 C15.4955412,11.0749191 15.9286282,11.1732185 16.4315221,11.1732185 C16.9344159,11.1732185 17.367503,11.0749191 17.7307832,10.879745 C18.0940635,10.6831463 18.3946601,10.430987 18.632573,10.1246919 C18.870486,9.81697219 19.0485645,9.46793822 19.1668087,9.07616539 C19.2850529,8.6858172 19.3448873,8.29404437 19.3448873,7.90227155 C19.3448873,7.51192335 19.2850529,7.12299979 19.1668087,6.73977473 C19.0485645,6.35512505 18.870486,6.00894034 18.632573,5.70122059 C18.3946601,5.39492548 18.0940635,5.1456155 17.7307832,4.95756454 C17.367503,4.76951359 16.9344159,4.67406348 16.4315221,4.67406348 C15.9286282,4.67406348 15.4955412,4.76951359 15.1322609,4.95756454 C14.7689807,5.1456155 14.4683841,5.39492548 14.2304711,5.70122059 C13.9925582,6.00894034 13.8144796,6.35512505 13.6962355,6.73977473 C13.5779913,7.12299979 13.5181569,7.51192335 13.5181569,7.90227155 M10.9609488,7.90227155 C10.9609488,7.10590425 11.1048363,6.38361762 11.3911866,5.73398705 C11.6775369,5.08293185 12.0636113,4.52875138 12.5536834,4.06717176 C13.042331,3.60559214 13.6221548,3.24943503 14.2931548,2.99870042 C14.9655794,2.74654119 15.6778936,2.62117389 16.4315221,2.62117389 C17.1865752,2.62117389 17.8988894,2.74654119 18.5698894,2.99870042 C19.2408894,3.24943503 19.8207132,3.60559214 20.3093607,4.06717176 C20.7980083,4.52875138 21.1869318,5.08293185 21.4732822,5.73398705 C21.7582079,6.38361762 21.9020953,7.10590425 21.9020953,7.90227155 C21.9020953,8.70006348 21.7582079,9.42519936 21.4732822,10.0819531 C21.1869318,10.7387068 20.7980083,11.3028597 20.3093607,11.7701378 C19.8207132,12.2388406 19.2408894,12.6049701 18.5698894,12.869951 C17.8988894,13.1363565 17.1865752,13.2688469 16.4315221,13.2688469 C15.6778936,13.2688469 14.9655794,13.1363565 14.2931548,12.869951 C13.6221548,12.6049701 13.042331,12.2388406 12.5536834,11.7701378 C12.0636113,11.3028597 11.6775369,10.7387068 11.3911866,10.0819531 C11.1048363,9.42519936 10.9609488,8.70006348 10.9609488,7.90227155" id="Fill-37"></path>
                <path d="M24.0192357,2.91464735 L26.4083376,2.91464735 L26.4083376,4.52875138 L26.4496518,4.52875138 C26.6733185,4.02443291 27.062242,3.58137346 27.6135732,3.19672378 C28.1649045,2.81349873 28.8188089,2.62117389 29.5724374,2.62117389 C30.2291911,2.62117389 30.7919193,2.73514416 31.2606221,2.96593397 C31.7279002,3.19672378 32.1139745,3.50016964 32.4145711,3.87912081 C32.7151677,4.25522272 32.9345605,4.68830977 33.0727495,5.17838195 C33.2137877,5.66702951 33.2835945,6.16992335 33.2835945,6.68563885 L33.2835945,12.9753735 L30.7677006,12.9753735 L30.7677006,7.39937771 C30.7677006,7.10590425 30.7477558,6.79960913 30.705017,6.4776431 C30.6637028,6.15567707 30.5725265,5.86647749 30.432913,5.60861975 C30.2918747,5.34933737 30.1009745,5.13706773 29.8573631,4.96753694 C29.612327,4.79943079 29.286087,4.71680234 28.8814926,4.71680234 C28.4768981,4.71680234 28.1278641,4.79658153 27.8343907,4.95756454 C27.5409172,5.11854756 27.300155,5.32369406 27.1106794,5.57585329 C26.9212038,5.82801253 26.778741,6.1172121 26.6804416,6.44630127 C26.5835669,6.77396582 26.5351295,7.10590425 26.5351295,7.44211656 L26.5351295,12.9753735 L24.0192357,12.9753735 L24.0192357,2.91464735 Z" id="Fill-38"></path>
                <path d="M35.6097278,4.92636518 L35.6097278,2.91478981 L37.3705686,2.91478981 L37.3705686,7.59194547e-14 L39.8451482,7.59194547e-14 L39.8451482,2.91478981 L42.3581928,2.91478981 L42.3581928,4.92636518 L39.8451482,4.92636518 L39.8451482,9.60057113 C39.8451482,10.0479045 39.9235028,10.4168832 40.0859104,10.7117813 C40.2454688,11.0052548 40.6058998,11.1519915 41.1643541,11.1519915 C41.3324603,11.1519915 41.5148127,11.1334713 41.7085622,11.0992803 C41.9051609,11.0650892 42.0789656,11.0109533 42.2328255,10.9425711 L42.3168786,12.9114076 C42.0946365,12.9954607 41.828231,13.0624183 41.5205113,13.1108556 C41.2142161,13.159293 40.9207427,13.1849363 40.6400909,13.1849363 C39.9705155,13.1849363 39.4248828,13.0894862 39.006042,12.9028599 C38.5872013,12.7133843 38.2538382,12.4541019 38.0102268,12.1264374 C37.7651907,11.7973482 37.5985091,11.4212463 37.5073329,10.9952824 C37.4161567,10.5678938 37.3705686,10.1105881 37.3705686,9.62194055 L37.3705686,4.92636518 L35.6097278,4.92636518 Z" id="Fill-39"></path>
                <path d="M51.6436361,8.38507813 L51.0794832,8.38507813 C50.6720395,8.38507813 50.2475002,8.40217367 49.7987423,8.43636476 C49.3528335,8.4734051 48.9411159,8.5489104 48.5635894,8.66715456 C48.1846382,8.78682335 47.87122,8.95350488 47.6204854,9.17147304 C47.3683261,9.38801656 47.2415342,9.68433928 47.2415342,10.0618658 C47.2415342,10.2997788 47.2942454,10.4978021 47.3996679,10.6587851 C47.5050904,10.8197682 47.6404301,10.9494093 47.8085363,11.0462841 C47.9766425,11.1445834 48.1646934,11.2143902 48.3741138,11.2571291 C48.5849588,11.2984433 48.7929546,11.3198127 49.0023749,11.3198127 C49.8699737,11.3198127 50.5267274,11.0875983 50.9726361,10.6274433 C51.4213941,10.1658637 51.6436361,9.53760255 51.6436361,8.74123524 L51.6436361,8.38507813 Z M51.6849503,11.6959146 L51.6222667,11.6959146 C51.3715321,12.1446726 50.965513,12.5108021 50.4070586,12.7971524 C49.8486042,13.0835028 49.21322,13.2259656 48.4994811,13.2259656 C48.0948866,13.2259656 47.671772,13.1732544 47.2315618,13.0692565 C46.7927762,12.9652586 46.3867571,12.7900293 46.0163537,12.5449932 C45.6459503,12.3013817 45.3382306,11.9794157 45.0931945,11.5805197 C44.8481584,11.1830484 44.7284896,10.690127 44.7284896,10.10318 C44.7284896,9.34955159 44.9407592,8.74835839 45.3667231,8.30102505 C45.792687,7.85369172 46.341169,7.51178089 47.012169,7.27386794 C47.683169,7.03737962 48.4268251,6.87924586 49.2431372,6.80231592 C50.0622985,6.72538599 50.8615151,6.68692102 51.6436361,6.68692102 L51.6436361,6.43618641 C51.6436361,5.80650064 51.4171202,5.34207176 50.9626637,5.04147516 C50.5082072,4.74087856 49.9668484,4.59129257 49.3385873,4.59129257 C48.8072008,4.59129257 48.2971839,4.70241359 47.8085363,4.92608025 C47.3198887,5.14974692 46.9138696,5.42327558 46.5919036,5.74381699 L45.2926425,4.21376603 C45.8653431,3.68237962 46.5263707,3.28490828 47.2743006,3.01850276 C48.0208059,2.75352187 48.7787083,2.62103142 49.5480076,2.62103142 C50.4412497,2.62103142 51.1792072,2.74639873 51.759031,2.99855796 C52.3388548,3.2507172 52.7975851,3.57838174 53.1323728,3.98297622 C53.4671605,4.3875707 53.7007996,4.8434518 53.8347146,5.34492102 C53.9672051,5.84923949 54.0341626,6.3507087 54.0341626,6.85502718 L54.0341626,12.975231 L51.6849503,12.975231 L51.6849503,11.6959146 Z" id="Fill-40"></path>
                <path d="M63.3176115,5.70136306 C63.1224374,5.42356051 62.8289639,5.18849682 62.4386157,5.00044586 C62.0454183,4.81097028 61.6479469,4.7169448 61.2433524,4.7169448 C60.7817728,4.7169448 60.3771783,4.81097028 60.0267197,5.00044586 C59.6776858,5.18849682 59.3884862,5.43638217 59.1576964,5.74267728 C58.9269066,6.05182166 58.7559512,6.39658174 58.6448301,6.78123142 C58.5322845,7.1658811 58.476724,7.55338004 58.476724,7.94372824 C58.476724,8.33692569 58.5365584,8.723 58.6548025,9.10907431 C58.7730467,9.49229936 58.9525499,9.83848408 59.1890382,10.1447792 C59.4269512,10.4524989 59.7246985,10.7018089 60.0808556,10.8898599 C60.4370127,11.0779108 60.8530042,11.1733609 61.3274055,11.1733609 C61.7177537,11.1733609 62.1095265,11.0950064 62.5012994,10.9425711 C62.8916476,10.7872866 63.2064904,10.5650446 63.4444034,10.2715711 L65.0157686,11.8643057 C64.5955032,12.3116391 64.0612675,12.6578238 63.4116369,12.9028599 C62.7620064,13.1464713 62.0596645,13.2689894 61.3060361,13.2689894 C60.5652293,13.2689894 59.8628875,13.1507452 59.1990106,12.9128323 C58.5365584,12.6749193 57.95531,12.3244607 57.4595393,11.8643057 C56.9637686,11.4027261 56.5734204,10.8442718 56.2856454,10.1860934 C55.9992951,9.53076433 55.8568323,8.78283439 55.8568323,7.94372824 C55.8568323,7.13453928 55.9992951,6.40085563 56.2856454,5.74267728 C56.5734204,5.08592357 56.9594947,4.52889384 57.4495669,4.06731423 C57.9382144,3.60573461 58.5080658,3.24957749 59.1576964,2.99884289 C59.807327,2.74668365 60.501121,2.62131635 61.2433524,2.62131635 C61.9827346,2.62131635 62.6993227,2.76092994 63.3916921,3.04015711 C64.0826369,3.31938429 64.6311189,3.70403397 65.037138,4.19268153 L63.3176115,5.70136306 Z" id="Fill-41"></path>
                <path d="M66.5884159,4.92636518 L66.5884159,2.91478981 L68.3492567,2.91478981 L68.3492567,7.59194547e-14 L70.8238363,7.59194547e-14 L70.8238363,2.91478981 L73.3368809,2.91478981 L73.3368809,4.92636518 L70.8238363,4.92636518 L70.8238363,9.60057113 C70.8238363,10.0479045 70.9021909,10.4168832 71.0645985,10.7117813 C71.2241569,11.0052548 71.5845879,11.1519915 72.1430423,11.1519915 C72.3111484,11.1519915 72.4935008,11.1334713 72.6872503,11.0992803 C72.883849,11.0650892 73.0576537,11.0109533 73.2115136,10.9425711 L73.2955667,12.9114076 C73.0733246,12.9954607 72.8069191,13.0624183 72.4991994,13.1108556 C72.1929042,13.159293 71.8994308,13.1849363 71.618779,13.1849363 C70.9492036,13.1849363 70.4035709,13.0894862 69.9847301,12.9028599 C69.5658894,12.7133843 69.2325263,12.4541019 68.9889149,12.1264374 C68.7438788,11.7973482 68.5771972,11.4212463 68.486021,10.9952824 C68.3948448,10.5678938 68.3492567,10.1105881 68.3492567,9.62194055 L68.3492567,4.92636518 L66.5884159,4.92636518 Z" id="Fill-42"></path>
            </g>
        </g>
    </g>
</svg>