<?xml version="1.0" encoding="UTF-8"?>
<svg width="51px" height="22px" viewBox="0 0 51 22" version="1.1" xmlns="http://www.w3.org/2000/svg" xmlns:xlink="http://www.w3.org/1999/xlink">
    <title>gnav-store</title>
    <g id="Symbols" stroke="none" stroke-width="1" fill="none" fill-rule="evenodd">
        <g id="contents/header-1440" transform="translate(-820.000000, -54.000000)" fill="#C8A062">
            <g id="Group-12" transform="translate(820.360934, 56.849257)">
                <path d="M6.70715074,5.59551316 C6.48348408,5.30346433 6.17576433,5.04703121 5.78541614,4.83191231 C5.39364331,4.61536879 4.96767941,4.5056724 4.50609979,4.5056724 C4.10150531,4.5056724 3.73110191,4.58972548 3.39631423,4.75783163 C3.06010191,4.92451316 2.89199575,5.20516497 2.89199575,5.59551316 C2.89199575,5.98728599 3.07719745,6.26366391 3.44760085,6.42464692 C3.81800425,6.58420531 4.36078769,6.74946221 5.07310191,6.91756837 C5.44920382,7.00019682 5.83100425,7.11131783 6.2142293,7.25235605 C6.59887898,7.39196964 6.94791295,7.57717134 7.26275584,7.80796115 C7.5761741,8.03875096 7.83260722,8.32510127 8.02778132,8.6670121 C8.22295541,9.00892293 8.32125478,9.42491444 8.32125478,9.913562 C8.32125478,10.5290015 8.20585987,11.0489909 7.97649469,11.4763794 C7.74570488,11.9023433 7.43798514,12.248528 7.05333546,12.5120843 C6.66868577,12.7784898 6.22135244,12.9708146 5.71133546,13.0904834 C5.20131847,13.2087276 4.67420594,13.268562 4.12857325,13.268562 C3.34645223,13.268562 2.58427601,13.1246745 1.84489384,12.8383242 C1.10266242,12.5519739 0.488647558,12.1431055 1.26532425e-14,11.6117191 L1.65541826,10.0617234 C1.93464544,10.4250036 2.29792569,10.7256002 2.74668365,10.9620885 C3.19259236,11.2000015 3.68978769,11.3196703 4.23399575,11.3196703 C4.4163482,11.3196703 4.60012527,11.2968762 4.78960085,11.255562 C4.9776518,11.2128231 5.1528811,11.1472902 5.31243949,11.056114 C5.47484713,10.9663624 5.60448832,10.8438444 5.70136306,10.6899845 C5.79823779,10.5361246 5.84667516,10.3480737 5.84667516,10.124407 C5.84667516,9.70414161 5.65577495,9.40496964 5.27112527,9.2226172 C4.88790021,9.04168938 4.30950106,8.85933694 3.54162633,8.6769845 C3.16552442,8.59293142 2.79797028,8.48465966 2.44181316,8.35359384 C2.08565605,8.21967877 1.76653928,8.0458741 1.48873673,7.82790594 C1.20950955,7.61136242 0.984418259,7.34353227 0.81773673,7.02156624 C0.649630573,6.69960021 0.565577495,6.30212887 0.565577495,5.82630297 C0.565577495,5.26927325 0.682397028,4.7863242 0.911762208,4.3803051 C1.14255202,3.97428599 1.44742251,3.64377219 1.82352442,3.38448981 C2.20105096,3.12663206 2.62701486,2.93430722 3.10284076,2.80893992 C3.57724204,2.68214798 4.0658896,2.61946433 4.56878344,2.61946433 C5.29676858,2.61946433 6.00480892,2.74625626 6.69717834,2.99699087 C7.38954777,3.24915011 7.9366051,3.63237516 8.34119958,4.14951529 L6.70715074,5.59551316 Z" id="Fill-43"></path>
                <path d="M9.99747261,4.92494055 L9.99747261,2.91336518 L11.7583134,2.91336518 L11.7583134,-6.83275093e-14 L14.232893,-6.83275093e-14 L14.232893,2.91336518 L16.7459376,2.91336518 L16.7459376,4.92494055 L14.232893,4.92494055 L14.232893,9.5991465 C14.232893,10.0479045 14.3112476,10.4168832 14.4736552,10.7117813 C14.6332136,11.0052548 14.9936446,11.1505669 15.5520989,11.1505669 C15.7202051,11.1505669 15.9025575,11.1334713 16.096307,11.0978556 C16.2929057,11.0636645 16.4667104,11.0109533 16.6205703,10.9411465 L16.7046234,12.9114076 C16.4823813,12.9954607 16.2159758,13.0609936 15.9082561,13.1108556 C15.6019609,13.159293 15.3084875,13.1835117 15.0278357,13.1835117 C14.3582603,13.1835117 13.8126276,13.0894862 13.3937868,12.9014352 C12.9749461,12.7119597 12.641583,12.4541019 12.3979715,12.1264374 C12.1529355,11.7973482 11.9862539,11.4212463 11.8950777,10.9938577 C11.8039015,10.5678938 11.7583134,10.1105881 11.7583134,9.62051592 L11.7583134,4.92494055 L9.99747261,4.92494055 Z" id="Fill-44"></path>
                <path d="M20.9589913,7.90212909 C20.9589913,8.29247728 21.0188257,8.68425011 21.1370699,9.0745983 C21.255314,9.46779575 21.4333926,9.81682972 21.6713055,10.1245495 C21.9092185,10.4308446 22.2098151,10.6830038 22.5730953,10.8781779 C22.9363756,11.0747766 23.3694626,11.1716514 23.8723565,11.1716514 C24.3752503,11.1716514 24.8083374,11.0747766 25.1716176,10.8781779 C25.5348979,10.6830038 25.8354945,10.4308446 26.0734074,10.1245495 C26.3113204,9.81682972 26.4893989,9.46779575 26.6076431,9.0745983 C26.7258873,8.68425011 26.7857217,8.29247728 26.7857217,7.90212909 C26.7857217,7.51178089 26.7258873,7.12285732 26.6076431,6.73963227 C26.4893989,6.35355796 26.3113204,6.00879788 26.0734074,5.70107813 C25.8354945,5.39335839 25.5348979,5.14547304 25.1716176,4.95742208 C24.8083374,4.7679465 24.3752503,4.67392102 23.8723565,4.67392102 C23.3694626,4.67392102 22.9363756,4.7679465 22.5730953,4.95742208 C22.2098151,5.14547304 21.9092185,5.39335839 21.6713055,5.70107813 C21.4333926,6.00879788 21.255314,6.35355796 21.1370699,6.73963227 C21.0188257,7.12285732 20.9589913,7.51178089 20.9589913,7.90212909 M18.4017832,7.90212909 C18.4017832,7.10433715 18.5456707,6.38205053 18.832021,5.73241996 C19.1183713,5.08278938 19.5044456,4.52718429 19.9945178,4.0670293 C20.4831654,3.60402505 21.0629892,3.24786794 21.7339892,2.99713333 C22.4064138,2.74639873 23.118728,2.61960679 23.8723565,2.61960679 C24.6274096,2.61960679 25.3397238,2.74639873 26.0107238,2.99713333 C26.6817238,3.24786794 27.2615476,3.60402505 27.7501951,4.0670293 C28.2388427,4.52718429 28.6277662,5.08278938 28.9141166,5.73241996 C29.1990423,6.38205053 29.3429297,7.10433715 29.3429297,7.90212909 C29.3429297,8.69849639 29.1990423,9.4250569 28.9141166,10.0818106 C28.6277662,10.7385643 28.2388427,11.3012926 27.7501951,11.7685707 C27.2615476,12.2372735 26.6817238,12.6048276 26.0107238,12.8683839 C25.3397238,13.1347894 24.6274096,13.2687045 23.8723565,13.2687045 C23.118728,13.2687045 22.4064138,13.1347894 21.7339892,12.8683839 C21.0629892,12.6048276 20.4831654,12.2372735 19.9945178,11.7685707 C19.5044456,11.3012926 19.1183713,10.7385643 18.832021,10.0818106 C18.5456707,9.4250569 18.4017832,8.69849639 18.4017832,7.90212909" id="Fill-45"></path>
                <path d="M32.1946085,2.91322272 L34.6036552,2.91322272 L34.6036552,4.5900104 L34.6463941,4.5900104 C34.9256212,4.00306348 35.3173941,3.52866221 35.8202879,3.16538195 C36.3231817,2.8021017 36.9115533,2.61974926 37.5811287,2.61974926 C37.679428,2.61974926 37.7834259,2.62402314 37.8959715,2.63114628 C38.0070926,2.63826943 38.1039673,2.65394034 38.189445,2.68243291 L38.189445,4.98890637 C38.0213389,4.94616752 37.8774514,4.91767495 37.7592072,4.90342866 C37.6395384,4.89060701 37.5241435,4.88348386 37.4130225,4.88348386 C36.8403219,4.88348386 36.3801669,4.98890637 36.0297083,5.19832675 C35.6806743,5.40774713 35.4085703,5.65990637 35.2119715,5.95337983 C35.0153728,6.24685329 34.884307,6.54744989 34.8145002,6.85374501 C34.7446934,7.16146476 34.7105023,7.40507622 34.7105023,7.58742866 L34.7105023,12.9739488 L32.1946085,12.9739488 L32.1946085,2.91322272 Z" id="Fill-46"></path>
                <path d="M47.3271544,6.93808301 C47.3271544,6.61611699 47.2815662,6.30982187 47.19039,6.01634841 C47.1006384,5.72145032 46.956751,5.46359257 46.7615769,5.2399259 C46.5664028,5.01625924 46.3170928,4.83818068 46.0164962,4.70569023 C45.7158996,4.57319979 45.3640163,4.50624225 44.9594219,4.50624225 C44.2043688,4.50624225 43.5647106,4.73275817 43.0404473,5.18721465 C42.5161841,5.64167113 42.2269845,6.22434416 42.171424,6.93808301 L47.3271544,6.93808301 Z M49.8430482,8.069238 L49.8430482,8.40402569 C49.8430482,8.51657134 49.8359251,8.62911699 49.8216788,8.740238 L42.171424,8.740238 C42.1984919,9.10494289 42.293942,9.43545669 42.4535004,9.73605329 C42.6144834,10.0366499 42.8281777,10.2945076 43.0931586,10.5110512 C43.3581395,10.7275947 43.6601607,10.8985501 43.9949484,11.025342 C44.3297361,11.1507093 44.6801947,11.213393 45.0420503,11.213393 C45.6717361,11.213393 46.2016979,11.0979981 46.6362096,10.8686329 C47.067872,10.6378431 47.4240291,10.320151 47.7046809,9.91413185 L49.3814686,11.2547072 C48.3885025,12.5981318 46.9496278,13.2677072 45.0634197,13.2677072 C44.2798741,13.2677072 43.5604367,13.1451892 42.9051076,12.9015777 C42.2483539,12.6565416 41.6785025,12.3103569 41.1955535,11.8630236 C40.7140291,11.4171149 40.3379272,10.8686329 40.0643985,10.2190023 C39.7922945,9.56937176 39.6555301,8.83141423 39.6555301,8.00655435 C39.6555301,7.19736539 39.7922945,6.45940786 40.0643985,5.795531 C40.3379272,5.13165414 40.7097552,4.56607665 41.1855811,4.09737389 C41.6599824,3.63009575 42.2227106,3.2668155 42.8737658,3.00753312 C43.5233964,2.74967537 44.2243136,2.62003418 44.9807913,2.62003418 C45.6788592,2.62003418 46.3242159,2.73542909 46.918286,2.9662189 C47.5123561,3.19558408 48.0252223,3.53891953 48.459734,3.99337601 C48.892821,4.44640786 49.2318826,5.01198535 49.4754941,5.69010849 C49.7205301,6.36965626 49.8430482,7.16174968 49.8430482,8.069238 L49.8430482,8.069238 Z" id="Fill-47"></path>
            </g>
        </g>
    </g>
</svg>