<?xml version="1.0" encoding="UTF-8"?>
<svg width="114px" height="22px" viewBox="0 0 114 22" version="1.1" xmlns="http://www.w3.org/2000/svg" xmlns:xlink="http://www.w3.org/1999/xlink">
    <title>gnav-lineup</title>
    <g id="Symbols" stroke="none" stroke-width="1" fill="none" fill-rule="evenodd">
        <g id="contents/header-1440" transform="translate(-575.000000, -54.000000)" fill="#C8A062">
            <g id="Group-14" transform="translate(575.324841, 54.000000)">
                <path d="M2.55720807,10.7730403 C2.55720807,11.1648132 2.61704246,11.556586 2.73528662,11.9469342 C2.85353079,12.338707 3.03160934,12.687741 3.26952229,12.9954607 C3.50743524,13.3017558 3.80803185,13.5539151 4.1713121,13.7505138 C4.53459236,13.9456879 4.96767941,14.0439873 5.47057325,14.0439873 C5.97346709,14.0439873 6.40655414,13.9456879 6.76983439,13.7505138 C7.13311465,13.5539151 7.43371125,13.3017558 7.6716242,12.9954607 C7.90953715,12.687741 8.08761571,12.338707 8.20585987,11.9469342 C8.32410403,11.556586 8.38393843,11.1648132 8.38393843,10.7730403 C8.38393843,10.3826921 8.32410403,9.99376858 8.20585987,9.61054352 C8.08761571,9.22589384 7.90953715,8.87970913 7.6716242,8.57198938 C7.43371125,8.26569427 7.13311465,8.01638429 6.76983439,7.82833333 C6.40655414,7.64028238 5.97346709,7.54483227 5.47057325,7.54483227 C4.96767941,7.54483227 4.53459236,7.64028238 4.1713121,7.82833333 C3.80803185,8.01638429 3.50743524,8.26569427 3.26952229,8.57198938 C3.03160934,8.87970913 2.85353079,9.22589384 2.73528662,9.61054352 C2.61704246,9.99376858 2.55720807,10.3826921 2.55720807,10.7730403 M-1.16409831e-13,10.7730403 C-1.16409831e-13,9.97667304 0.143887473,9.25438641 0.430237792,8.60475584 C0.71658811,7.95370064 1.10266242,7.39952017 1.59273461,6.93794055 C2.08138217,6.47636093 2.66120594,6.12020382 3.33220594,5.86946921 C4.00463057,5.61730998 4.7169448,5.49194268 5.47057325,5.49194268 C6.22562633,5.49194268 6.93794055,5.61730998 7.60894055,5.86946921 C8.27994055,6.12020382 8.85976433,6.47636093 9.34841189,6.93794055 C9.83705945,7.39952017 10.225983,7.95370064 10.5123333,8.60475584 C10.797259,9.25438641 10.9411465,9.97667304 10.9411465,10.7730403 C10.9411465,11.5708323 10.797259,12.2959682 10.5123333,12.9527219 C10.225983,13.6094756 9.83705945,14.1736285 9.34841189,14.6409066 C8.85976433,15.1096093 8.27994055,15.4757389 7.60894055,15.7407197 C6.93794055,16.0071253 6.22562633,16.1396157 5.47057325,16.1396157 C4.7169448,16.1396157 4.00463057,16.0071253 3.33220594,15.7407197 C2.66120594,15.4757389 2.08138217,15.1096093 1.59273461,14.6409066 C1.10266242,14.1736285 0.71658811,13.6094756 0.430237792,12.9527219 C0.143887473,12.2959682 -1.16409831e-13,11.5708323 -1.16409831e-13,10.7730403" id="Fill-23"></path>
                <path d="M13.1625696,5.7855586 L15.5516715,5.7855586 L15.5516715,7.39966263 L15.5929858,7.39966263 C15.8166524,6.89534416 16.205576,6.45228471 16.7569072,6.06763503 C17.3082384,5.68440998 17.9621429,5.49208514 18.7157713,5.49208514 C19.3725251,5.49208514 19.9352533,5.60605541 20.4039561,5.83684522 C20.8712342,6.06763503 21.2573085,6.37108089 21.5579051,6.75003206 C21.8585017,7.12613397 22.0778945,7.55922102 22.2160834,8.04929321 C22.3571217,8.53794076 22.4269285,9.04083461 22.4269285,9.55655011 L22.4269285,15.8462847 L19.9110346,15.8462847 L19.9110346,10.270289 C19.9110346,9.9768155 19.8910898,9.67052038 19.848351,9.34855435 C19.8070367,9.02658832 19.7158605,8.73738875 19.5762469,8.479531 C19.4352087,8.22024862 19.2443085,8.00797898 19.000697,7.8384482 C18.7556609,7.67034204 18.429421,7.58771359 18.0248265,7.58771359 C17.6202321,7.58771359 17.2711981,7.66749278 16.9777246,7.8284758 C16.6842512,7.98945881 16.443489,8.19460531 16.2540134,8.44676454 C16.0645378,8.69892378 15.9220749,8.98812335 15.8237756,9.31721253 C15.7269008,9.64487707 15.6784635,9.9768155 15.6784635,10.3130278 L15.6784635,15.8462847 L13.1625696,15.8462847 L13.1625696,5.7855586 Z" id="Fill-25"></path>
                <polygon id="Fill-27" points="25.8232427 15.8461423 28.3391365 15.8461423 28.3391365 3.03677819e-14 25.8232427 3.03677819e-14"></polygon>
                <path d="M31.7553955,15.8461423 L34.2712894,15.8461423 L34.2712894,5.78541614 L31.7553955,5.78541614 L31.7553955,15.8461423 Z M31.3992384,2.36915711 C31.3992384,1.963138 31.5488244,1.60983015 31.849421,1.30923355 C32.1500176,1.01006157 32.5303934,0.859050955 32.991973,0.859050955 C33.452128,0.859050955 33.8410516,1.00293843 34.1544699,1.28928875 C34.4693127,1.57563907 34.6260219,1.93607006 34.6260219,2.36915711 C34.6260219,2.80081953 34.4693127,3.16125053 34.1544699,3.44760085 C33.8410516,3.7353758 33.452128,3.87783864 32.991973,3.87783864 C32.5303934,3.87783864 32.1500176,3.72825265 31.849421,3.42765605 C31.5488244,3.12705945 31.3992384,2.77375159 31.3992384,2.36915711 L31.3992384,2.36915711 Z" id="Fill-29"></path>
                <path d="M37.4355316,5.7855586 L39.8246335,5.7855586 L39.8246335,7.39966263 L39.8659478,7.39966263 C40.0896144,6.89534416 40.478538,6.45228471 41.0298692,6.06763503 C41.5812004,5.68440998 42.2351049,5.49208514 42.9887333,5.49208514 C43.645487,5.49208514 44.2082153,5.60605541 44.676918,5.83684522 C45.1441962,6.06763503 45.5302705,6.37108089 45.8308671,6.75003206 C46.1314637,7.12613397 46.3508565,7.55922102 46.4890454,8.04929321 C46.6300837,8.53794076 46.6998904,9.04083461 46.6998904,9.55655011 L46.6998904,15.8462847 L44.1839966,15.8462847 L44.1839966,10.270289 C44.1839966,9.9768155 44.1640518,9.67052038 44.121313,9.34855435 C44.0799987,9.02658832 43.9888225,8.73738875 43.8492089,8.479531 C43.7081707,8.22024862 43.5172705,8.00797898 43.273659,7.8384482 C43.0286229,7.67034204 42.702383,7.58771359 42.2977885,7.58771359 C41.8931941,7.58771359 41.5441601,7.66749278 41.2506866,7.8284758 C40.9572132,7.98945881 40.716451,8.19460531 40.5269754,8.44676454 C40.3374998,8.69892378 40.1950369,8.98812335 40.0967376,9.31721253 C39.9998628,9.64487707 39.9514255,9.9768155 39.9514255,10.3130278 L39.9514255,15.8462847 L37.4355316,15.8462847 L37.4355316,5.7855586 Z" id="Fill-30"></path>
                <path d="M56.5080299,9.80899427 C56.5080299,9.48702824 56.4624418,9.18073312 56.3712656,8.88725966 C56.281514,8.59236157 56.1376265,8.33592845 55.9424524,8.11226178 C55.7472783,7.88717049 55.4979684,7.70909193 55.1973718,7.57802611 C54.8967752,7.44411104 54.5448919,7.37857813 54.1402975,7.37857813 C53.3852444,7.37857813 52.7455862,7.60509406 52.2213229,8.0581259 C51.6970597,8.51400701 51.4078601,9.09668004 51.3522996,9.80899427 L56.5080299,9.80899427 Z M59.0239238,10.9415739 L59.0239238,11.2763616 C59.0239238,11.3874826 59.0168006,11.5000282 59.0025544,11.6125739 L51.3522996,11.6125739 C51.3793675,11.9758541 51.4748176,12.3077926 51.634376,12.6083892 C51.795359,12.9089858 52.0090533,13.1654189 52.2740342,13.383387 C52.5390151,13.5999306 52.8410363,13.770886 53.175824,13.8962533 C53.5106117,14.0230452 53.8610703,14.0857289 54.2229259,14.0857289 C54.8526117,14.0857289 55.3825735,13.970334 55.8170851,13.7395442 C56.2487476,13.5087544 56.6049047,13.1910622 56.8855565,12.7864677 L58.5623442,14.1270431 C57.5693781,15.4690431 56.1305034,16.1386185 54.2442953,16.1386185 C53.4607497,16.1386185 52.7413123,16.0161004 52.0859832,15.7739136 C51.4292295,15.5288775 50.8593781,15.1812682 50.3764291,14.7353594 C49.8949047,14.2880261 49.5188028,13.7395442 49.2452741,13.0899136 C48.9731701,12.440283 48.8364057,11.7023255 48.8364057,10.8788902 C48.8364057,10.0682766 48.9731701,9.33031911 49.2452741,8.66644225 C49.5188028,8.00256539 49.8906308,7.4369879 50.3664567,6.96970977 C50.840858,6.50100701 51.4035862,6.13772675 52.0546414,5.87844437 C52.704272,5.62201125 53.4051892,5.49237006 54.1616669,5.49237006 C54.8597348,5.49237006 55.5050915,5.60634034 56.0991616,5.83713015 C56.6932316,6.06791996 57.2060979,6.40983079 57.6406096,6.86428726 C58.0736966,7.31874374 58.4127582,7.88432123 58.6563696,8.56244437 C58.9014057,9.24056752 59.0239238,10.0326609 59.0239238,10.9415739 L59.0239238,10.9415739 Z" id="Fill-31"></path>
                <path d="M73.0471115,8.46784904 C72.8234448,8.17437558 72.5157251,7.91936709 72.1253769,7.70282357 C71.733604,7.48628004 71.3076401,7.37800828 70.8460605,7.37800828 C70.441466,7.37800828 70.0710626,7.46206136 69.7362749,7.62874289 C69.4000626,7.79684904 69.2319565,8.07750085 69.2319565,8.46784904 C69.2319565,8.85819724 69.4171582,9.13599979 69.7875616,9.29555817 C70.157965,9.45654119 70.7007484,9.62179809 71.4130626,9.78847962 C71.7891645,9.87110807 72.170965,9.98365372 72.55419,10.1232673 C72.9388397,10.2643055 73.2878737,10.4495072 73.6027166,10.6788724 C73.9161348,10.9096622 74.1725679,11.1960125 74.367742,11.5379234 C74.5629161,11.8812588 74.6612155,12.2972503 74.6612155,12.7858979 C74.6612155,13.4013374 74.5458206,13.9213268 74.3164554,14.3472907 C74.0856656,14.7746792 73.7779459,15.1194393 73.3932962,15.3844202 C73.0086465,15.6508257 72.5613132,15.8431505 72.0512962,15.9613947 C71.5412792,16.0796389 71.0141667,16.1394732 70.468534,16.1394732 C69.686413,16.1394732 68.9242367,15.9955858 68.1848546,15.7092355 C67.4426231,15.4243098 66.8286083,15.0154414 66.3399607,14.484055 L67.995379,12.9326346 C68.2746062,13.2959149 68.6378864,13.5965115 69.0866444,13.8344244 C69.5325531,14.0723374 70.0297484,14.1905815 70.5739565,14.1905815 C70.7563089,14.1905815 70.940086,14.1692121 71.1295616,14.1278979 C71.3176125,14.085159 71.4928418,14.0182015 71.6524002,13.9284499 C71.8148079,13.8372737 71.944449,13.7161803 72.0413238,13.5608958 C72.1381985,13.4084605 72.1866359,13.2189849 72.1866359,12.9953183 C72.1866359,12.5764775 71.9957357,12.2758809 71.611086,12.0935285 C71.2278609,11.9126006 70.6494618,11.7302482 69.881587,11.5493204 C69.5054851,11.4652673 69.137931,11.3569955 68.7817739,11.2245051 C68.4256168,11.0920146 68.1065,10.9167854 67.8286975,10.7002418 C67.5494703,10.4836983 67.324379,10.2158682 67.1576975,9.89247749 C66.9895913,9.57193609 66.9055382,9.17304013 66.9055382,8.69863885 C66.9055382,8.1401845 67.0223577,7.65866008 67.2517229,7.25121635 C67.4825127,6.84662187 67.7873832,6.51468344 68.1634851,6.25682569 C68.5410117,5.99896794 68.9669756,5.8066431 69.4428015,5.67985117 C69.9172028,5.55448386 70.4058503,5.49180021 70.9087442,5.49180021 C71.6367293,5.49180021 72.3447696,5.61716752 73.0371391,5.86932675 C73.7295085,6.12148599 74.2765658,6.50471104 74.6811603,7.02042654 L73.0471115,8.46784904 Z" id="Fill-32"></path>
                <path d="M83.0653837,5.49194268 C83.7221374,5.49194268 84.2848656,5.60591295 84.7535684,5.83670276 C85.2222711,6.06749257 85.6054962,6.37093843 85.9060928,6.7498896 C86.2066894,7.12599151 86.4260822,7.55907856 86.5656958,8.04915074 C86.706734,8.5377983 86.7751161,9.04069214 86.7751161,9.55783227 L86.7751161,15.8461423 L84.2606469,15.8461423 L84.2606469,10.3128854 C84.2606469,10.0194119 84.2392775,9.7145414 84.1979633,9.39969851 C84.156649,9.08485563 84.0683221,8.79992994 83.9358316,8.54207219 C83.8033412,8.28278981 83.6138656,8.07052017 83.3702541,7.90098938 C83.125218,7.73430786 82.7989781,7.65025478 82.3943837,7.65025478 C81.9897892,7.65025478 81.6407552,7.72718471 81.3472817,7.88104459 C81.0538083,8.03490446 80.8087722,8.24147558 80.6135981,8.49933333 C80.418424,8.75861571 80.2702626,9.04781529 80.1733879,9.36978132 C80.0750885,9.69032272 80.0266512,10.0194119 80.0266512,10.3541996 L80.0266512,15.8461423 L77.512182,15.8461423 L77.512182,3.03677819e-14 L80.0266512,3.03677819e-14 L80.0266512,7.18867516 L80.0679654,7.18867516 C80.1662648,6.97925478 80.3087276,6.77268365 80.4982032,6.57181104 C80.6862541,6.36808917 80.9070715,6.18573673 81.1578062,6.02617834 C81.4099654,5.86519533 81.6963157,5.73555414 82.0182817,5.63867941 C82.3388231,5.54038004 82.6878571,5.49194268 83.0653837,5.49194268" id="Fill-33"></path>
                <path d="M91.5769688,10.7730403 C91.5769688,11.1648132 91.6368032,11.556586 91.7550473,11.9469342 C91.8732915,12.338707 92.0513701,12.687741 92.289283,12.9954607 C92.527196,13.3017558 92.8277926,13.5539151 93.1910728,13.7505138 C93.5543531,13.9456879 93.9874401,14.0439873 94.490334,14.0439873 C94.9932278,14.0439873 95.4263149,13.9456879 95.7895951,13.7505138 C96.1528754,13.5539151 96.453472,13.3017558 96.6913849,12.9954607 C96.9292979,12.687741 97.1073764,12.338707 97.2256206,11.9469342 C97.3438648,11.556586 97.4036992,11.1648132 97.4036992,10.7730403 C97.4036992,10.3826921 97.3438648,9.99376858 97.2256206,9.61054352 C97.1073764,9.22589384 96.9292979,8.87970913 96.6913849,8.57198938 C96.453472,8.26569427 96.1528754,8.01638429 95.7895951,7.82833333 C95.4263149,7.64028238 94.9932278,7.54483227 94.490334,7.54483227 C93.9874401,7.54483227 93.5543531,7.64028238 93.1910728,7.82833333 C92.8277926,8.01638429 92.527196,8.26569427 92.289283,8.57198938 C92.0513701,8.87970913 91.8732915,9.22589384 91.7550473,9.61054352 C91.6368032,9.99376858 91.5769688,10.3826921 91.5769688,10.7730403 M89.0197607,10.7730403 C89.0197607,9.97667304 89.1636482,9.25438641 89.4499985,8.60475584 C89.7363488,7.95370064 90.1224231,7.39952017 90.6124953,6.93794055 C91.1011429,6.47636093 91.6809667,6.12020382 92.3519667,5.86946921 C93.0243913,5.61730998 93.7367055,5.49194268 94.490334,5.49194268 C95.245387,5.49194268 95.9577013,5.61730998 96.6287013,5.86946921 C97.2997013,6.12020382 97.8795251,6.47636093 98.3681726,6.93794055 C98.8568202,7.39952017 99.2457437,7.95370064 99.5320941,8.60475584 C99.8170197,9.25438641 99.9609072,9.97667304 99.9609072,10.7730403 C99.9609072,11.5708323 99.8170197,12.2959682 99.5320941,12.9527219 C99.2457437,13.6094756 98.8568202,14.1736285 98.3681726,14.6409066 C97.8795251,15.1096093 97.2997013,15.4757389 96.6287013,15.7407197 C95.9577013,16.0071253 95.245387,16.1396157 94.490334,16.1396157 C93.7367055,16.1396157 93.0243913,16.0071253 92.3519667,15.7407197 C91.6809667,15.4757389 91.1011429,15.1096093 90.6124953,14.6409066 C90.1224231,14.1736285 89.7363488,13.6094756 89.4499985,12.9527219 C89.1636482,12.2959682 89.0197607,11.5708323 89.0197607,10.7730403" id="Fill-34"></path>
                <path d="M110.565984,10.7730403 C110.565984,10.3826921 110.506149,9.99376858 110.387905,9.61054352 C110.268237,9.22589384 110.090158,8.87970913 109.85367,8.57198938 C109.615757,8.26569427 109.31516,8.01638429 108.95188,7.82833333 C108.587175,7.64028238 108.162636,7.54483227 107.673988,7.54483227 C107.212408,7.54483227 106.799266,7.64313163 106.437411,7.83830573 C106.07413,8.03490446 105.762137,8.28706369 105.502854,8.59335881 C105.244997,8.90107856 105.049823,9.25153715 104.917332,9.64188535 C104.783417,10.0322335 104.717884,10.4240064 104.717884,10.8143546 C104.717884,11.207552 104.783417,11.5936263 104.917332,11.9797006 C105.049823,12.3629257 105.244997,12.7091104 105.502854,13.0154055 C105.762137,13.3231253 106.07413,13.5724352 106.437411,13.7604862 C106.799266,13.9485372 107.212408,14.0439873 107.673988,14.0439873 C108.162636,14.0439873 108.587175,13.9456879 108.95188,13.7505138 C109.31516,13.5539151 109.615757,13.3017558 109.85367,12.9954607 C110.090158,12.687741 110.268237,12.338707 110.387905,11.9469342 C110.506149,11.556586 110.565984,11.1648132 110.565984,10.7730403 L110.565984,10.7730403 Z M104.696515,5.78541614 L104.696515,7.18867516 L104.760623,7.18867516 C104.88599,6.99350106 105.049823,6.79405308 105.253544,6.59175584 C105.454417,6.3894586 105.703727,6.20710616 105.995776,6.04754777 C106.289249,5.88656476 106.621188,5.75407431 106.991591,5.6486518 C107.361994,5.5432293 107.777986,5.49194268 108.239566,5.49194268 C108.95188,5.49194268 109.608634,5.62870701 110.209827,5.89938641 C110.809595,6.17291507 111.326735,6.54616773 111.761247,7.020569 C112.194334,7.4963949 112.529122,8.05627389 112.767035,8.69878132 C113.003523,9.34128875 113.123192,10.0322335 113.123192,10.7730403 C113.123192,11.5152718 113.007797,12.2090658 112.777007,12.8586964 C112.547642,13.508327 112.217128,14.0739045 111.791164,14.5568535 C111.366625,15.0383779 110.84806,15.4244522 110.239744,15.7093779 C109.632852,15.9957282 108.944757,16.1396157 108.175457,16.1396157 C107.463143,16.1396157 106.809239,15.992879 106.216593,15.6994055 C105.622523,15.4059321 105.165217,15.0084607 104.843251,14.5041423 L104.801937,14.5041423 L104.801937,20.8765053 L102.286043,20.8765053 L102.286043,5.78541614 L104.696515,5.78541614 Z" id="Fill-35"></path>
            </g>
        </g>
    </g>
</svg>