<?xml version="1.0" encoding="UTF-8"?>
<svg width="157px" height="22px" viewBox="0 0 157 22" version="1.1" xmlns="http://www.w3.org/2000/svg" xmlns:xlink="http://www.w3.org/1999/xlink">
    <title>gnav-shopping-guide</title>
    <g id="Symbols" stroke="none" stroke-width="1" fill="none" fill-rule="evenodd">
        <g id="contents/header-1440" transform="translate(-898.000000, -54.000000)" fill="#C8A062">
            <g id="Group-7" transform="translate(898.715499, 54.000000)">
                <path d="M6.70715074,8.46770658 C6.48348408,8.17423312 6.17576433,7.91922463 5.78541614,7.7026811 C5.39364331,7.48613758 4.96767941,7.37786582 4.50609979,7.37786582 C4.10150531,7.37786582 3.73110191,7.4619189 3.39631423,7.62860042 C3.06010191,7.79670658 2.89199575,8.07735839 2.89199575,8.46770658 C2.89199575,8.85805478 3.07719745,9.13585732 3.44760085,9.29541571 C3.81800425,9.45639873 4.36078769,9.62165563 5.07310191,9.78833715 C5.44920382,9.87096561 5.83100425,9.98351125 6.2142293,10.1231248 C6.59887898,10.2641631 6.94791295,10.4493648 7.26275584,10.6787299 C7.5761741,10.9095197 7.83260722,11.1958701 8.02778132,11.5377809 C8.22295541,11.8811163 8.32125478,12.2971079 8.32125478,12.7857554 C8.32125478,13.4011949 8.20585987,13.9211843 7.97649469,14.3471482 C7.74570488,14.7745367 7.43798514,15.1192968 7.05333546,15.3842777 C6.66868577,15.6506832 6.22135244,15.8430081 5.71133546,15.9612522 C5.20131847,16.0794964 4.67420594,16.1393308 4.12857325,16.1393308 C3.34645223,16.1393308 2.58427601,15.9954433 1.84489384,15.709093 C1.10266242,15.4241673 0.488647558,15.0152989 1.26532425e-14,14.4839125 L1.65541826,12.9324921 C1.93464544,13.2957724 2.29792569,13.596369 2.74668365,13.834282 C3.19259236,14.0721949 3.68978769,14.1904391 4.23399575,14.1904391 C4.4163482,14.1904391 4.60012527,14.1690696 4.78960085,14.1277554 C4.9776518,14.0850166 5.1528811,14.018059 5.31243949,13.9283074 C5.47484713,13.8371312 5.60448832,13.7160378 5.70136306,13.5607533 C5.79823779,13.408318 5.84667516,13.2188425 5.84667516,12.9951758 C5.84667516,12.576335 5.65577495,12.2757384 5.27112527,12.093386 C4.88790021,11.9124582 4.30950106,11.7301057 3.54162633,11.5491779 C3.16552442,11.4651248 2.79797028,11.3568531 2.44181316,11.2243626 C2.08565605,11.0918722 1.76653928,10.9166429 1.48873673,10.7000994 C1.20950955,10.4835558 0.984418259,10.2157257 0.81773673,9.89233503 C0.649630573,9.57179363 0.565577495,9.17289766 0.565577495,8.69849639 C0.565577495,8.14004204 0.682397028,7.65851762 0.911762208,7.25107389 C1.14255202,6.84647941 1.44742251,6.51454098 1.82352442,6.25668323 C2.20105096,5.99882548 2.62701486,5.80650064 3.10284076,5.6797087 C3.57724204,5.5543414 4.0658896,5.49165775 4.56878344,5.49165775 C5.29676858,5.49165775 6.00480892,5.61702505 6.69717834,5.86918429 C7.38954777,6.12134352 7.9366051,6.50456858 8.34119958,7.02028408 L6.70715074,8.46770658 Z" id="Fill-48"></path>
                <path d="M16.5154327,5.49194268 C17.1721864,5.49194268 17.7349146,5.60591295 18.2036174,5.83670276 C18.6723202,6.06749257 19.0555452,6.37093843 19.3561418,6.7498896 C19.6567384,7.12599151 19.8761312,7.55907856 20.0157448,8.04915074 C20.156783,8.5377983 20.2251652,9.04069214 20.2251652,9.55783227 L20.2251652,15.8461423 L17.710696,15.8461423 L17.710696,10.3128854 C17.710696,10.0194119 17.6893265,9.7145414 17.6480123,9.39969851 C17.6066981,9.08485563 17.5183711,8.79992994 17.3858807,8.54207219 C17.2533902,8.28278981 17.0639146,8.07052017 16.8203032,7.90098938 C16.5752671,7.73430786 16.2490272,7.65025478 15.8444327,7.65025478 C15.4398382,7.65025478 15.0908042,7.72718471 14.7973308,7.88104459 C14.5038573,8.03490446 14.2588212,8.24147558 14.0636471,8.49933333 C13.868473,8.75861571 13.7203117,9.04781529 13.6234369,9.36978132 C13.5251376,9.69032272 13.4767002,10.0194119 13.4767002,10.3541996 L13.4767002,15.8461423 L10.962231,15.8461423 L10.962231,3.28984304e-14 L13.4767002,3.28984304e-14 L13.4767002,7.18867516 L13.5180144,7.18867516 C13.6163138,6.97925478 13.7587766,6.77268365 13.9482522,6.57181104 C14.1363032,6.36808917 14.3571206,6.18573673 14.6078552,6.02617834 C14.8600144,5.86519533 15.1463648,5.73555414 15.4683308,5.63867941 C15.7888722,5.54038004 16.1379062,5.49194268 16.5154327,5.49194268" id="Fill-49"></path>
                <path d="M25.2370081,10.7730403 C25.2370081,11.1648132 25.2968425,11.556586 25.4150866,11.9469342 C25.5333308,12.338707 25.7114093,12.687741 25.9493223,12.9954607 C26.1872352,13.3017558 26.4878318,13.5539151 26.8511121,13.7505138 C27.2143924,13.9456879 27.6474794,14.0439873 28.1503732,14.0439873 C28.6532671,14.0439873 29.0863541,13.9456879 29.4496344,13.7505138 C29.8129146,13.5539151 30.1135113,13.3017558 30.3514242,12.9954607 C30.5893372,12.687741 30.7674157,12.338707 30.8856599,11.9469342 C31.003904,11.556586 31.0637384,11.1648132 31.0637384,10.7730403 C31.0637384,10.3826921 31.003904,9.99376858 30.8856599,9.61054352 C30.7674157,9.22589384 30.5893372,8.87970913 30.3514242,8.57198938 C30.1135113,8.26569427 29.8129146,8.01638429 29.4496344,7.82833333 C29.0863541,7.64028238 28.6532671,7.54483227 28.1503732,7.54483227 C27.6474794,7.54483227 27.2143924,7.64028238 26.8511121,7.82833333 C26.4878318,8.01638429 26.1872352,8.26569427 25.9493223,8.57198938 C25.7114093,8.87970913 25.5333308,9.22589384 25.4150866,9.61054352 C25.2968425,9.99376858 25.2370081,10.3826921 25.2370081,10.7730403 M22.6798,10.7730403 C22.6798,9.97667304 22.8236875,9.25438641 23.1100378,8.60475584 C23.3963881,7.95370064 23.7824624,7.39952017 24.2725346,6.93794055 C24.7611822,6.47636093 25.3410059,6.12020382 26.0120059,5.86946921 C26.6844306,5.61730998 27.3967448,5.49194268 28.1503732,5.49194268 C28.9054263,5.49194268 29.6177406,5.61730998 30.2887406,5.86946921 C30.9597406,6.12020382 31.5395643,6.47636093 32.0282119,6.93794055 C32.5168594,7.39952017 32.905783,7.95370064 33.1921333,8.60475584 C33.477059,9.25438641 33.6209465,9.97667304 33.6209465,10.7730403 C33.6209465,11.5708323 33.477059,12.2959682 33.1921333,12.9527219 C32.905783,13.6094756 32.5168594,14.1736285 32.0282119,14.6409066 C31.5395643,15.1096093 30.9597406,15.4757389 30.2887406,15.7407197 C29.6177406,16.0071253 28.9054263,16.1396157 28.1503732,16.1396157 C27.3967448,16.1396157 26.6844306,16.0071253 26.0120059,15.7407197 C25.3410059,15.4757389 24.7611822,15.1096093 24.2725346,14.6409066 C23.7824624,14.1736285 23.3963881,13.6094756 23.1100378,12.9527219 C22.8236875,12.2959682 22.6798,11.5708323 22.6798,10.7730403" id="Fill-50"></path>
                <path d="M44.4361558,10.7730403 C44.4361558,10.3826921 44.3763214,9.99376858 44.2580773,9.61054352 C44.1384085,9.22589384 43.9603299,8.87970913 43.7238416,8.57198938 C43.4859287,8.26569427 43.1853321,8.01638429 42.8220518,7.82833333 C42.4573469,7.64028238 42.0328076,7.54483227 41.5441601,7.54483227 C41.0825805,7.54483227 40.6694382,7.64313163 40.3075826,7.83830573 C39.9443023,8.03490446 39.6323087,8.28706369 39.3730263,8.59335881 C39.1151686,8.90107856 38.9199945,9.25153715 38.787504,9.64188535 C38.653589,10.0322335 38.5880561,10.4240064 38.5880561,10.8143546 C38.5880561,11.207552 38.653589,11.5936263 38.787504,11.9797006 C38.9199945,12.3629257 39.1151686,12.7091104 39.3730263,13.0154055 C39.6323087,13.3231253 39.9443023,13.5724352 40.3075826,13.7604862 C40.6694382,13.9485372 41.0825805,14.0439873 41.5441601,14.0439873 C42.0328076,14.0439873 42.4573469,13.9456879 42.8220518,13.7505138 C43.1853321,13.5539151 43.4859287,13.3017558 43.7238416,12.9954607 C43.9603299,12.687741 44.1384085,12.338707 44.2580773,11.9469342 C44.3763214,11.556586 44.4361558,11.1648132 44.4361558,10.7730403 L44.4361558,10.7730403 Z M38.5666866,5.78541614 L38.5666866,7.18867516 L38.6307949,7.18867516 C38.7561622,6.99350106 38.9199945,6.79405308 39.1237163,6.59175584 C39.324589,6.3894586 39.5738989,6.20710616 39.8659478,6.04754777 C40.1594212,5.88656476 40.4913597,5.75407431 40.8617631,5.6486518 C41.2321665,5.5432293 41.648158,5.49194268 42.1097376,5.49194268 C42.8220518,5.49194268 43.4788055,5.62870701 44.0799987,5.89938641 C44.6797673,6.17291507 45.1969074,6.54616773 45.6314191,7.020569 C46.0645062,7.4963949 46.3992938,8.05627389 46.6372068,8.69878132 C46.8736951,9.34128875 46.9933639,10.0322335 46.9933639,10.7730403 C46.9933639,11.5152718 46.877969,12.2090658 46.6471792,12.8586964 C46.417814,13.508327 46.0873002,14.0739045 45.6613363,14.5568535 C45.236797,15.0383779 44.7182323,15.4244522 44.1099159,15.7093779 C43.5030242,15.9957282 42.8149287,16.1396157 42.0456293,16.1396157 C41.3333151,16.1396157 40.6794106,15.992879 40.0867652,15.6994055 C39.4926951,15.4059321 39.0353894,15.0084607 38.7134234,14.5041423 L38.6721091,14.5041423 L38.6721091,20.8765053 L36.1562153,20.8765053 L36.1562153,5.78541614 L38.5666866,5.78541614 Z" id="Fill-51"></path>
                <path d="M57.8087157,10.7730403 C57.8087157,10.3826921 57.7488813,9.99376858 57.6306372,9.61054352 C57.5109684,9.22589384 57.3328898,8.87970913 57.0964015,8.57198938 C56.8584885,8.26569427 56.5578919,8.01638429 56.1946117,7.82833333 C55.8299068,7.64028238 55.4053675,7.54483227 54.91672,7.54483227 C54.4551403,7.54483227 54.0419981,7.64313163 53.6801425,7.83830573 C53.3168622,8.03490446 53.0048686,8.28706369 52.7455862,8.59335881 C52.4877285,8.90107856 52.2925544,9.25153715 52.1600639,9.64188535 C52.0261488,10.0322335 51.9606159,10.4240064 51.9606159,10.8143546 C51.9606159,11.207552 52.0261488,11.5936263 52.1600639,11.9797006 C52.2925544,12.3629257 52.4877285,12.7091104 52.7455862,13.0154055 C53.0048686,13.3231253 53.3168622,13.5724352 53.6801425,13.7604862 C54.0419981,13.9485372 54.4551403,14.0439873 54.91672,14.0439873 C55.4053675,14.0439873 55.8299068,13.9456879 56.1946117,13.7505138 C56.5578919,13.5539151 56.8584885,13.3017558 57.0964015,12.9954607 C57.3328898,12.687741 57.5109684,12.338707 57.6306372,11.9469342 C57.7488813,11.556586 57.8087157,11.1648132 57.8087157,10.7730403 L57.8087157,10.7730403 Z M51.9392465,5.78541614 L51.9392465,7.18867516 L52.0033548,7.18867516 C52.1287221,6.99350106 52.2925544,6.79405308 52.4962762,6.59175584 C52.6971488,6.3894586 52.9464588,6.20710616 53.2385076,6.04754777 C53.5319811,5.88656476 53.8639195,5.75407431 54.2343229,5.6486518 C54.6047263,5.5432293 55.0207178,5.49194268 55.4822975,5.49194268 C56.1946117,5.49194268 56.8513654,5.62870701 57.4525586,5.89938641 C58.0523272,6.17291507 58.5694673,6.54616773 59.003979,7.020569 C59.437066,7.4963949 59.7718537,8.05627389 60.0097667,8.69878132 C60.246255,9.34128875 60.3659238,10.0322335 60.3659238,10.7730403 C60.3659238,11.5152718 60.2505289,12.2090658 60.0197391,12.8586964 C59.7903739,13.508327 59.4598601,14.0739045 59.0338962,14.5568535 C58.6093569,15.0383779 58.0907921,15.4244522 57.4824758,15.7093779 C56.8755841,15.9957282 56.1874885,16.1396157 55.4181892,16.1396157 C54.7058749,16.1396157 54.0519705,15.992879 53.4593251,15.6994055 C52.865255,15.4059321 52.4079493,15.0084607 52.0859832,14.5041423 L52.044669,14.5041423 L52.044669,20.8765053 L49.5287752,20.8765053 L49.5287752,5.78541614 L51.9392465,5.78541614 Z" id="Fill-52"></path>
                <path d="M63.2592017,15.8458573 L65.7750955,15.8458573 L65.7750955,5.78513121 L63.2592017,5.78513121 L63.2592017,15.8458573 Z M62.9030446,2.36887219 C62.9030446,1.96427771 63.0540552,1.61096985 63.3546518,1.31037325 C63.6552484,1.00977665 64.0341996,0.85876603 64.4957792,0.85876603 C64.9573588,0.85876603 65.3448577,1.0026535 65.6597006,1.28900382 C65.9745435,1.57535414 66.1312527,1.93578514 66.1312527,2.36887219 C66.1312527,2.80053461 65.9745435,3.16096561 65.6597006,3.44874055 C65.3448577,3.73509087 64.9573588,3.87755372 64.4957792,3.87755372 C64.0341996,3.87755372 63.6552484,3.72796773 63.3546518,3.42737113 C63.0540552,3.12677452 62.9030446,2.77346667 62.9030446,2.36887219 L62.9030446,2.36887219 Z" id="Fill-53"></path>
                <path d="M69.1501828,5.78541614 L71.5392847,5.78541614 L71.5392847,7.39952017 L71.5805989,7.39952017 C71.8042656,6.8952017 72.1931892,6.45214225 72.7445204,6.06749257 C73.2958516,5.68426752 73.9497561,5.49194268 74.7033845,5.49194268 C75.3601382,5.49194268 75.9228665,5.60591295 76.3915692,5.83670276 C76.8588473,6.06749257 77.2449217,6.37093843 77.5455183,6.7498896 C77.8461149,7.12599151 78.0655076,7.55907856 78.2036966,8.04915074 C78.3447348,8.5377983 78.4145416,9.04069214 78.4145416,9.55640764 L78.4145416,15.8461423 L75.8986478,15.8461423 L75.8986478,10.2701465 C75.8986478,9.97667304 75.878703,9.67037792 75.8359641,9.34841189 C75.7946499,9.02644586 75.7034737,8.73724628 75.5638601,8.47938854 C75.4228219,8.22010616 75.2319217,8.00783652 74.9883102,7.83830573 C74.7432741,7.67019958 74.4170342,7.58757113 74.0124397,7.58757113 C73.6078452,7.58757113 73.2588113,7.66735032 72.9653378,7.82833333 C72.6718643,7.98931635 72.4311021,8.19446285 72.2416265,8.44662208 C72.052151,8.69878132 71.9096881,8.98798089 71.8113887,9.31707006 C71.714514,9.64473461 71.6660766,9.97667304 71.6660766,10.3128854 L71.6660766,15.8461423 L69.1501828,15.8461423 L69.1501828,5.78541614 Z" id="Fill-54"></path>
                <path d="M86.4195289,7.54540212 C85.9593739,7.54540212 85.5505055,7.6294552 85.1943484,7.79613673 C84.8381913,7.96281826 84.5361701,8.18933418 84.2925586,8.47425987 C84.0475225,8.76203482 83.8580469,9.09824713 83.7255565,9.48859533 C83.5944907,9.87894352 83.5275331,10.2977843 83.5275331,10.7422684 C83.5275331,11.1454382 83.5944907,11.5357864 83.7255565,11.9118883 C83.8580469,12.2879902 84.0475225,12.6256272 84.2925586,12.9247992 C84.5361701,13.2239711 84.8381913,13.4647333 85.1943484,13.6456611 C85.5505055,13.826589 85.9508261,13.9177652 86.3981594,13.9177652 C86.8597391,13.9177652 87.2757306,13.8308628 87.6447093,13.6570582 C88.0151127,13.4818289 88.3299556,13.2496144 88.5878134,12.956141 C88.8470958,12.6640921 89.0465437,12.3264552 89.1861573,11.9432301 C89.3257709,11.5600051 89.3955777,11.1596845 89.3955777,10.7422684 C89.3955777,10.3091813 89.3257709,9.89888832 89.1861573,9.50996476 C89.0465437,9.11819193 88.8470958,8.77770573 88.5878134,8.4856569 C88.3299556,8.19360807 88.0193866,7.96281826 87.6561064,7.79613673 C87.2928261,7.6294552 86.8811085,7.54540212 86.4195289,7.54540212 L86.4195289,7.54540212 Z M91.7861042,5.78598599 L91.7861042,14.9434977 C91.7861042,15.8524106 91.6735586,16.6729966 91.4498919,17.4081049 C91.2262253,18.1403639 90.8814652,18.7629265 90.4127624,19.2729435 C89.9454843,19.7829605 89.3542635,20.1775826 88.6419493,20.4568098 C87.929635,20.7374616 87.0834057,20.8756505 86.104686,20.8756505 C85.7000915,20.8756505 85.2698537,20.8414594 84.8168219,20.7716527 C84.3623654,20.7004212 83.9150321,20.5964234 83.4748219,20.4568098 C83.0346117,20.3171962 82.611497,20.1433915 82.2069025,19.9325465 C81.8008834,19.7231261 81.4376032,19.4866378 81.1156372,19.2202323 L82.5630597,17.2713406 C83.0517072,17.7314955 83.6030384,18.0848034 84.2184779,18.3298395 C84.8339174,18.573451 85.4550554,18.695969 86.0847412,18.695969 C86.6859344,18.695969 87.1916775,18.6090667 87.6033951,18.4338374 C88.0151127,18.2586081 88.3456265,18.0164212 88.5878134,17.7087015 C88.8328495,17.3995571 89.0080788,17.0348522 89.1135013,16.6131622 C89.2174992,16.1928968 89.2702104,15.7298926 89.2702104,15.2255741 L89.2702104,14.4890412 L89.2288962,14.4890412 C88.8656159,14.9833873 88.401187,15.3609138 87.8341849,15.6216208 C87.2686074,15.8837524 86.6360724,16.0133936 85.9380045,16.0133936 C85.1829514,16.0133936 84.4977051,15.87378 83.8836902,15.5931282 C83.2682507,15.3153257 82.7482614,14.9363745 82.3222975,14.4619732 C81.8949089,13.987572 81.5643951,13.4319669 81.3264822,12.7965826 C81.0885692,12.1597737 80.9703251,11.487349 80.9703251,10.7736102 C80.9703251,10.0470497 81.08572,9.3618034 81.3150851,8.71929597 C81.5458749,8.07678854 81.8749641,7.51690955 82.300928,7.04250828 C82.7268919,6.56668238 83.2440321,6.19058047 83.8509238,5.91135329 C84.4592401,5.63070149 85.1416372,5.49251253 85.8952656,5.49251253 C86.6090045,5.49251253 87.2728813,5.63782463 87.8868962,5.93129809 C88.5023357,6.22477155 88.9909832,6.67922803 89.3542635,7.29324289 L89.3955777,7.29324289 L89.3955777,5.78598599 L91.7861042,5.78598599 Z" id="Fill-55"></path>
                <path d="M105.746608,7.54540212 C105.286453,7.54540212 104.877585,7.6294552 104.521428,7.79613673 C104.165271,7.96281826 103.863249,8.18933418 103.619638,8.47425987 C103.374602,8.76203482 103.185126,9.09824713 103.052636,9.48859533 C102.92157,9.87894352 102.854613,10.2977843 102.854613,10.7422684 C102.854613,11.1454382 102.92157,11.5357864 103.052636,11.9118883 C103.185126,12.2879902 103.374602,12.6256272 103.619638,12.9247992 C103.863249,13.2239711 104.165271,13.4647333 104.521428,13.6456611 C104.877585,13.826589 105.277906,13.9177652 105.725239,13.9177652 C106.186818,13.9177652 106.60281,13.8308628 106.971789,13.6570582 C107.342192,13.4818289 107.657035,13.2496144 107.914893,12.956141 C108.174175,12.6640921 108.373623,12.3264552 108.513237,11.9432301 C108.65285,11.5600051 108.722657,11.1596845 108.722657,10.7422684 C108.722657,10.3091813 108.65285,9.89888832 108.513237,9.50996476 C108.373623,9.11819193 108.174175,8.77770573 107.914893,8.4856569 C107.657035,8.19360807 107.346466,7.96281826 106.983186,7.79613673 C106.619906,7.6294552 106.208188,7.54540212 105.746608,7.54540212 L105.746608,7.54540212 Z M111.113184,5.78598599 L111.113184,14.9434977 C111.113184,15.8524106 111.000638,16.6729966 110.776971,17.4081049 C110.553305,18.1403639 110.208545,18.7629265 109.739842,19.2729435 C109.272564,19.7829605 108.681343,20.1775826 107.969029,20.4568098 C107.256714,20.7374616 106.410485,20.8756505 105.431765,20.8756505 C105.027171,20.8756505 104.596933,20.8414594 104.143901,20.7716527 C103.689445,20.7004212 103.242111,20.5964234 102.801901,20.4568098 C102.361691,20.3171962 101.938576,20.1433915 101.533982,19.9325465 C101.127963,19.7231261 100.764683,19.4866378 100.442717,19.2202323 L101.890139,17.2713406 C102.378787,17.7314955 102.930118,18.0848034 103.545557,18.3298395 C104.160997,18.573451 104.782135,18.695969 105.411821,18.695969 C106.013014,18.695969 106.518757,18.6090667 106.930475,18.4338374 C107.342192,18.2586081 107.672706,18.0164212 107.914893,17.7087015 C108.159929,17.3995571 108.335158,17.0348522 108.440581,16.6131622 C108.544579,16.1928968 108.59729,15.7298926 108.59729,15.2255741 L108.59729,14.4890412 L108.555976,14.4890412 C108.192695,14.9833873 107.728266,15.3609138 107.161264,15.6216208 C106.595687,15.8837524 105.963152,16.0133936 105.265084,16.0133936 C104.510031,16.0133936 103.824785,15.87378 103.21077,15.5931282 C102.59533,15.3153257 102.075341,14.9363745 101.649377,14.4619732 C101.221988,13.987572 100.891475,13.4319669 100.653562,12.7965826 C100.415649,12.1597737 100.297404,11.487349 100.297404,10.7736102 C100.297404,10.0470497 100.412799,9.3618034 100.642165,8.71929597 C100.872954,8.07678854 101.202044,7.51690955 101.628007,7.04250828 C102.053971,6.56668238 102.571111,6.19058047 103.178003,5.91135329 C103.78632,5.63070149 104.468717,5.49251253 105.222345,5.49251253 C105.936084,5.49251253 106.599961,5.63782463 107.213976,5.93129809 C107.829415,6.22477155 108.318063,6.67922803 108.681343,7.29324289 L108.722657,7.29324289 L108.722657,5.78598599 L111.113184,5.78598599 Z" id="Fill-56"></path>
                <path d="M122.998004,15.8455724 L120.607477,15.8455724 L120.607477,14.2314684 L120.566163,14.2314684 C120.342497,14.7357868 119.954998,15.1788463 119.403666,15.563496 C118.850911,15.946721 118.198431,16.1390459 117.443378,16.1390459 C116.786624,16.1390459 116.223896,16.023651 115.755193,15.7942858 C115.287915,15.563496 114.903265,15.2586255 114.602669,14.8810989 C114.302072,14.504997 114.081255,14.07191 113.943066,13.5818378 C113.803452,13.0931902 113.732221,12.5902964 113.732221,12.0731563 L113.732221,5.78484628 L116.248114,5.78484628 L116.248114,11.360842 C116.248114,11.6543155 116.268059,11.9606106 116.312223,12.2825766 C116.353537,12.6045427 116.443289,12.8951669 116.582902,13.1516 C116.72394,13.4108824 116.914841,13.623152 117.159877,13.7926828 C117.403488,13.9593643 117.729728,14.0434174 118.134323,14.0434174 C118.524671,14.0434174 118.87228,13.9636382 119.171452,13.8012306 C119.472049,13.6416722 119.717085,13.4365257 119.905136,13.1843665 C120.094611,12.9322072 120.238499,12.6430076 120.335373,12.3139185 C120.432248,11.9862539 120.48211,11.6543155 120.48211,11.3181032 L120.48211,5.78484628 L122.998004,5.78484628 L122.998004,15.8455724 Z" id="Fill-57"></path>
                <path d="M126.267669,15.8458573 L128.783563,15.8458573 L128.783563,5.78513121 L126.267669,5.78513121 L126.267669,15.8458573 Z M125.911512,2.36887219 C125.911512,1.96427771 126.061098,1.61096985 126.361694,1.31037325 C126.662291,1.00977665 127.042667,0.85876603 127.504246,0.85876603 C127.964401,0.85876603 128.353325,1.0026535 128.666743,1.28900382 C128.981586,1.57535414 129.138295,1.93578514 129.138295,2.36887219 C129.138295,2.80053461 128.981586,3.16096561 128.666743,3.44874055 C128.353325,3.73509087 127.964401,3.87755372 127.504246,3.87755372 C127.042667,3.87755372 126.662291,3.72796773 126.361694,3.42737113 C126.061098,3.12677452 125.911512,2.77346667 125.911512,2.36887219 L125.911512,2.36887219 Z" id="Fill-58"></path>
                <path d="M134.001264,10.7730403 C134.001264,11.1648132 134.061099,11.556586 134.179343,11.9469342 C134.297587,12.338707 134.475666,12.687741 134.713579,12.9954607 C134.951492,13.3017558 135.252088,13.5539151 135.615368,13.7505138 C135.978649,13.9456879 136.404613,14.0439873 136.89326,14.0439873 C137.35484,14.0439873 137.767982,13.9485372 138.129838,13.7604862 C138.493118,13.5724352 138.803687,13.3231253 139.062969,13.0154055 C139.320827,12.7091104 139.517426,12.3629257 139.649916,11.9797006 C139.783831,11.5936263 139.847939,11.207552 139.847939,10.8143546 C139.847939,10.4240064 139.783831,10.0322335 139.649916,9.64188535 C139.517426,9.25153715 139.320827,8.90107856 139.062969,8.59335881 C138.803687,8.28706369 138.493118,8.03490446 138.129838,7.83830573 C137.767982,7.64313163 137.35484,7.54483227 136.89326,7.54483227 C136.404613,7.54483227 135.978649,7.64028238 135.615368,7.82833333 C135.252088,8.01638429 134.951492,8.26569427 134.713579,8.57198938 C134.475666,8.87970913 134.297587,9.22589384 134.179343,9.61054352 C134.061099,9.99376858 134.001264,10.3826921 134.001264,10.7730403 L134.001264,10.7730403 Z M142.281205,15.8461423 L139.890678,15.8461423 L139.890678,14.3360361 L139.847939,14.3360361 C139.498906,14.922983 139.014532,15.371741 138.391969,15.6780361 C137.770831,15.9857558 137.104105,16.1396157 136.390366,16.1396157 C135.622492,16.1396157 134.932971,15.9957282 134.32608,15.7093779 C133.719188,15.4244522 133.200623,15.0383779 132.776084,14.5568535 C132.348695,14.0739045 132.019606,13.508327 131.788816,12.8586964 C131.559451,12.2090658 131.444056,11.5152718 131.444056,10.7730403 C131.444056,10.0322335 131.5623,9.34128875 131.800213,8.69878132 C132.038126,8.05627389 132.372914,7.4963949 132.806001,7.020569 C133.239088,6.54616773 133.756228,6.17291507 134.357421,5.89938641 C134.958615,5.62870701 135.615368,5.49194268 136.327683,5.49194268 C136.789262,5.49194268 137.20098,5.5432293 137.56426,5.6486518 C137.92754,5.75407431 138.245232,5.88229087 138.518761,6.03615074 C138.789441,6.19001062 139.024504,6.35811677 139.219678,6.53904459 C139.416277,6.72139703 139.575835,6.8952017 139.702627,7.06330786 L139.765311,7.06330786 L139.765311,1.26532425e-13 L142.281205,1.26532425e-13 L142.281205,15.8461423 Z" id="Fill-59"></path>
                <path d="M152.739972,9.8088518 C152.739972,9.48688577 152.694384,9.18059066 152.603208,8.8871172 C152.513456,8.59221911 152.369569,8.33578599 152.174395,8.11211932 C151.979221,7.88702803 151.729911,7.70894947 151.429314,7.57788365 C151.128717,7.44396858 150.776834,7.37843567 150.37224,7.37843567 C149.617187,7.37843567 148.977528,7.60495159 148.453265,8.05798344 C147.929002,8.51386454 147.639802,9.09653758 147.584242,9.8088518 L152.739972,9.8088518 Z M155.255866,10.9414314 L155.255866,11.2762191 C155.255866,11.3873401 155.248743,11.4998858 155.234497,11.6124314 L147.584242,11.6124314 C147.61131,11.9757117 147.70676,12.3076501 147.866318,12.6082467 C148.027301,12.9088433 148.240996,13.1652764 148.505976,13.3832446 C148.770957,13.5997881 149.072979,13.7707435 149.407766,13.8961108 C149.742554,14.0229028 150.093013,14.0855864 150.454868,14.0855864 C151.084554,14.0855864 151.614516,13.9701915 152.049027,13.7394017 C152.48069,13.5086119 152.836847,13.1909197 153.117499,12.7863253 L154.794286,14.1269006 C153.80132,15.4689006 152.362446,16.138476 150.476238,16.138476 C149.692692,16.138476 148.973255,16.015958 148.317925,15.7737711 C147.661172,15.528735 147.09132,15.1811257 146.608371,14.735217 C146.126847,14.2878837 145.750745,13.7394017 145.477216,13.0897711 C145.205112,12.4401406 145.068348,11.702183 145.068348,10.8787478 C145.068348,10.0681342 145.205112,9.33017665 145.477216,8.66629979 C145.750745,8.00242293 146.122573,7.43684544 146.598399,6.9695673 C147.0728,6.50086454 147.635528,6.13758429 148.286584,5.87830191 C148.936214,5.62186879 149.637131,5.4922276 150.393609,5.4922276 C151.091677,5.4922276 151.737034,5.60619788 152.331104,5.83698769 C152.925174,6.06777749 153.43804,6.40968832 153.872552,6.8641448 C154.305639,7.31860127 154.6447,7.88417877 154.888312,8.56230191 C155.133348,9.24042505 155.255866,10.0325185 155.255866,10.9414314 L155.255866,10.9414314 Z" id="Fill-60"></path>
            </g>
        </g>
    </g>
</svg>