<?xml version="1.0" encoding="UTF-8"?>
<svg width="51px" height="22px" viewBox="0 0 51 22" version="1.1" xmlns="http://www.w3.org/2000/svg" xmlns:xlink="http://www.w3.org/1999/xlink">
    <title>gnav-news</title>
    <g id="Symbols" stroke="none" stroke-width="1" fill="none" fill-rule="evenodd">
        <g id="contents/header-1440" transform="translate(-496.000000, -54.000000)" fill="#C8A062">
            <g id="Group-17" transform="translate(496.970276, 59.698514)">
                <path d="M1.11348534e-13,0.293758386 L2.38910191,0.293758386 L2.38910191,1.90786242 L2.43041614,1.90786242 C2.6540828,1.40496858 3.04300637,0.96190913 3.59433758,0.57583482 C4.14566879,0.192609766 4.79957325,0.00028492569 5.5532017,0.00028492569 C6.20995541,0.00028492569 6.77268365,0.11567983 7.24138641,0.346469639 C7.70866454,0.57583482 8.09473885,0.880705308 8.39533546,1.25823185 C8.69593206,1.63433376 8.91532484,2.06884544 9.0535138,2.55749299 C9.19455202,3.04756518 9.26435881,3.54903439 9.26435881,4.06617452 L9.26435881,10.3544845 L6.74846497,10.3544845 L6.74846497,4.77848875 C6.74846497,4.48501529 6.72852017,4.17872017 6.68578132,3.85675414 C6.64446709,3.53478811 6.55329087,3.24558854 6.41367728,2.98773079 C6.27263907,2.72844841 6.08173885,2.51617877 5.83812739,2.34807261 C5.5930913,2.17996645 5.26685138,2.097338 4.8622569,2.097338 C4.45766242,2.097338 4.10862845,2.1771172 3.81515499,2.33810021 C3.52168153,2.49908323 3.28091932,2.70422972 3.09144374,2.95496433 C2.90196815,3.20712357 2.75950531,3.49774777 2.66120594,3.82541231 C2.56433121,4.15450149 2.51589384,4.48501529 2.51589384,4.8212276 L2.51589384,10.3544845 L1.11348534e-13,10.3544845 L1.11348534e-13,0.293758386 Z" id="Fill-15"></path>
                <path d="M19.4926212,4.31861868 C19.4926212,3.99665265 19.4470331,3.69035754 19.3558569,3.39688408 C19.2661053,3.10198599 19.1222178,2.84412824 18.9270437,2.62046157 C18.7318696,2.3967949 18.4825597,2.21871635 18.1819631,2.0862259 C17.8813665,1.95373546 17.5294832,1.88677792 17.1248887,1.88677792 C16.3698357,1.88677792 15.7301775,2.11329384 15.2059142,2.56775032 C14.681651,3.02220679 14.3924514,3.60487983 14.3368909,4.31861868 L19.4926212,4.31861868 Z M22.0085151,5.44977367 L22.0085151,5.78456136 C22.0085151,5.89710701 22.0013919,6.00965265 21.9871456,6.12077367 L14.3368909,6.12077367 C14.3639588,6.48547856 14.4594089,6.81599236 14.6189673,7.11658896 C14.7799503,7.41718556 14.9936446,7.67504331 15.2586255,7.89158684 C15.5236064,8.10813036 15.8256276,8.27908577 16.1604153,8.40587771 C16.495203,8.53124501 16.8456616,8.59392866 17.2075172,8.59392866 C17.837203,8.59392866 18.3671648,8.47853376 18.8016764,8.24916858 C19.2333389,8.01837877 19.589496,7.70068662 19.8701478,7.29466752 L21.5469355,8.63524289 C20.5539694,9.97866752 19.1150947,10.6482429 17.2288866,10.6482429 C16.445341,10.6482429 15.7259036,10.5257248 15.0705745,10.2821134 C14.4138208,10.0370773 13.8439694,9.69089257 13.3610204,9.24355924 C12.879496,8.79765053 12.5033941,8.24916858 12.2298654,7.599538 C11.9577614,6.94990743 11.820997,6.21194989 11.820997,5.38709002 C11.820997,4.57790106 11.9577614,3.83994352 12.2298654,3.17606667 C12.5033941,2.51218981 12.8752221,1.94661231 13.351048,1.47790955 C13.8254493,1.01063142 14.3881775,0.647351168 15.0392327,0.38806879 C15.6888633,0.13021104 16.3897805,0.00056985138 17.1462582,0.00056985138 C17.8443261,0.00056985138 18.4896828,0.115964756 19.0837529,0.346754565 C19.6778229,0.576119745 20.1906892,0.919455202 20.6252008,1.37391168 C21.0582879,1.82694352 21.3973495,2.39252102 21.6409609,3.07064416 C21.885997,3.75019193 22.0085151,4.54228535 22.0085151,5.44977367 L22.0085151,5.44977367 Z" id="Fill-17"></path>
                <polygon id="Fill-19" points="23.6427064 0.293758386 26.3680206 0.293758386 28.463649 7.5052276 28.5063879 7.5052276 30.6647 0.293758386 33.3472754 0.293758386 35.5283815 7.5052276 35.5696958 7.5052276 37.7080631 0.293758386 40.3279548 0.293758386 36.8490121 10.3544845 34.291804 10.3544845 32.0067 3.31254607 31.9639611 3.31254607 29.7002265 10.3544845 27.1430185 10.3544845"></polygon>
                <path d="M48.0616928,2.97604883 C47.8380261,2.684 47.5303064,2.42756688 47.1399582,2.21244798 C46.7481854,1.99590446 46.3222214,1.88620807 45.8606418,1.88620807 C45.4560473,1.88620807 45.0856439,1.97026115 44.7508563,2.1383673 C44.4146439,2.30504883 44.2465378,2.58570064 44.2465378,2.97604883 C44.2465378,3.36782166 44.4317395,3.64419958 44.8021429,3.80518259 C45.1725463,3.96474098 45.7153297,4.12999788 46.4276439,4.29810403 C46.8037459,4.38073248 47.1855463,4.4918535 47.5687713,4.63289172 C47.953421,4.77250531 48.302455,4.95770701 48.6172979,5.18849682 C48.9307161,5.41928662 49.1871493,5.70563694 49.3823234,6.04754777 C49.5774975,6.3894586 49.6757968,6.80545011 49.6757968,7.29409766 C49.6757968,7.90953715 49.5604019,8.42952654 49.3310367,8.85691507 C49.1002469,9.28287898 48.7925272,9.62906369 48.4078775,9.89261996 C48.0232278,10.1590255 47.5758945,10.3513503 47.0658775,10.4710191 C46.5558605,10.5892633 46.028748,10.6490977 45.4831153,10.6490977 C44.7009943,10.6490977 43.938818,10.5052102 43.1994359,10.2188599 C42.4572045,9.93250955 41.8431896,9.52364119 41.354542,8.99225478 L43.0099603,7.44225902 C43.2891875,7.80553928 43.6524677,8.10613588 44.1012257,8.3426242 C44.5471344,8.58053715 45.0443297,8.70020594 45.5885378,8.70020594 C45.7708902,8.70020594 45.9546673,8.67741189 46.1441429,8.63609766 C46.3321938,8.59335881 46.5074231,8.5278259 46.6669815,8.43664968 C46.8293892,8.34689809 46.9590304,8.22438004 47.0559051,8.07052017 C47.1527798,7.9166603 47.2012172,7.72860934 47.2012172,7.50494268 C47.2012172,7.08467728 47.010317,6.78550531 46.6256673,6.60315287 C46.2424423,6.42222505 45.6640431,6.23987261 44.8961684,6.05752017 C44.5200665,5.97346709 44.1525123,5.86519533 43.7963552,5.73412951 C43.4401981,5.60021444 43.1210813,5.42640977 42.8432788,5.20844161 C42.5640516,4.99189809 42.3389603,4.72406794 42.1722788,4.40210191 C42.0041726,4.08013588 41.9201195,3.68266454 41.9201195,3.20683864 C41.9201195,2.64980892 42.0369391,2.16685987 42.2663042,1.76084076 C42.4970941,1.35482166 42.8019645,1.02430786 43.1780665,0.765025478 C43.555593,0.507167728 43.9815569,0.314842887 44.4573828,0.189475584 C44.9317841,0.0626836518 45.4204316,-6.07355638e-14 45.9233255,-6.07355638e-14 C46.6513106,-6.07355638e-14 47.359351,0.126791932 48.0517204,0.377526539 C48.7440898,0.629685775 49.2911471,1.01291083 49.6957416,1.53005096 L48.0616928,2.97604883 Z" id="Fill-21"></path>
            </g>
        </g>
    </g>
</svg>