<?xml version="1.0" encoding="UTF-8"?>
<svg width="94px" height="93px" viewBox="0 0 94 93" version="1.1" xmlns="http://www.w3.org/2000/svg" xmlns:xlink="http://www.w3.org/1999/xlink">
    <!-- Generator: Sketch 57.1 (83088) - https://sketch.com -->
    <title>gochisoy-logo</title>
    <desc>Created with Sketch.</desc>
    <defs>
        <polygon id="path-1" points="0 0.120209888 17.7257128 0.120209888 17.7257128 26.0405238 0 26.0405238"></polygon>
    </defs>
    <g id="Page-1" stroke="none" stroke-width="1" fill="none" fill-rule="evenodd">
        <g id="top-fix" transform="translate(-1042.000000, -5099.000000)">
            <rect id="Rectangle" fill-opacity="0.01" fill="#FFFFFF" style="mix-blend-mode: multiply;" x="1" y="4834" width="1380" height="448"></rect>
            <g id="Group-46" transform="translate(1042.523757, 5099.000000)">
                <path d="M83.0313576,68.1144387 C83.2652697,68.4115567 83.3608252,68.5807697 83.3608252,68.7196238 C83.3608252,68.8788831 83.1901192,69.0376447 83.0209063,69.0376447 C82.8939965,69.0376447 82.8188461,68.98489 82.7128391,68.8151794 C82.6182789,68.6559201 82.4157211,68.3901562 82.2465081,68.1885937 C82.1614039,68.0940336 82.1295521,68.0193808 82.1295521,67.9342766 C82.1295521,67.7750174 82.2883137,67.6366609 82.4689734,67.6366609 C82.6182789,67.6366609 82.7242859,67.7322164 83.0313576,68.1144387 L83.0313576,68.1144387 Z M81.9802465,68.6867766 C82.2251076,69.0057928 82.352515,69.2397049 82.352515,69.3671123 C82.352515,69.5258738 82.1828044,69.6751794 81.9802465,69.6751794 C81.8433831,69.6751794 81.7896331,69.6318808 81.6846215,69.4517187 C81.5776192,69.271059 81.4397604,69.0799479 81.2377002,68.8261285 C81.1530938,68.7196238 81.132191,68.6773206 81.132191,68.5922164 C81.132191,68.4230035 81.3019016,68.2637442 81.4716123,68.2637442 C81.6099688,68.2637442 81.7363808,68.3697512 81.9802465,68.6867766 L81.9802465,68.6867766 Z M80.5484062,69.5681771 C81.1635451,69.5681771 81.481566,69.8866956 81.481566,70.5023322 L81.481566,74.8744965 C81.481566,75.5005845 81.1530937,75.8300521 80.5265081,75.8300521 L75.263985,75.8300521 C75.0305706,75.8300521 74.8713113,75.6170428 74.8713113,75.3094734 C74.8713113,75.01136 75.0305706,74.7998438 75.263985,74.7998438 L80.166184,74.7998438 C80.3149919,74.7998438 80.3896447,74.7261863 80.3896447,74.5778762 L80.3896447,70.8313021 C80.3896447,70.6720428 80.3045405,70.5874363 80.1452812,70.5874363 L75.3590428,70.5874363 C75.1251308,70.5874363 74.9663692,70.3853762 74.9663692,70.0778067 C74.9663692,69.7806887 75.1251308,69.5681771 75.3590428,69.5681771 L80.5484062,69.5681771 Z" id="Fill-1" fill="#231815"></path>
                <path d="M88.6701308,70.1314074 C87.9902928,70.2478657 86.8232211,70.3857245 86.5156516,70.3857245 C86.2508831,70.3857245 86.0697257,70.1946134 86.0697257,69.9084444 C86.0697257,69.6531319 86.1976308,69.4834213 86.4200961,69.4197176 C86.4728507,69.4092662 86.5052002,69.4092662 86.6435567,69.3983171 C88.372515,69.260956 89.63564,69.0484444 90.8883137,68.6667199 C90.9729201,68.6348681 91.0470752,68.6244167 91.1107789,68.6244167 C91.3760451,68.6244167 91.5776076,68.8682824 91.5776076,69.1654005 C91.5776076,69.3774144 91.4502002,69.5366736 91.2063345,69.610331 C90.8032095,69.7377384 90.1134178,69.8969977 89.7102928,69.9721481 L89.7102928,71.6802037 L92.7874803,71.6583056 C93.0422951,71.6583056 93.2219595,71.8608634 93.2219595,72.1574838 C93.2219595,72.4436528 93.0422951,72.645713 92.7874803,72.645713 L89.6888924,72.6561644 C89.6042859,73.9615926 89.3176192,74.7369861 88.6581863,75.5108866 C88.1286493,76.1270208 87.088985,76.838213 86.7386146,76.838213 C86.4633947,76.838213 86.2185336,76.5833981 86.2185336,76.2758287 C86.2185336,76.0518704 86.3349919,75.9140116 86.6535104,75.7443009 C87.9902928,74.9699028 88.5208252,74.1527037 88.6372836,72.6671134 L85.1679201,72.6775648 C84.9126076,72.6775648 84.742897,72.4769977 84.742897,72.1898333 C84.742897,71.9031667 84.9235567,71.7006088 85.1679201,71.7006088 L88.6701308,71.6911528 L88.6701308,70.1314074 Z" id="Fill-3" fill="#231815"></path>
                <path d="M81.8643854,82.8909109 C81.8643854,83.2303322 81.5244664,84.5029132 81.2278461,85.2673576 C80.6545127,86.7325428 79.9532743,87.7189549 78.8927072,88.5784572 C78.1287604,89.1930984 77.0144433,89.8097303 76.6645706,89.8097303 C76.3565035,89.8097303 76.0907396,89.533515 76.0907396,89.2040475 C76.0907396,89.0353322 76.1753461,88.8750775 76.3142002,88.781015 C76.3779039,88.7387118 76.3779039,88.7387118 76.6854734,88.5998576 C79.0310637,87.5278437 80.1453808,85.9252975 80.7605197,82.7530521 C80.8028229,82.4658877 80.9620822,82.3280289 81.2492465,82.3280289 C81.620022,82.3280289 81.8643854,82.5504942 81.8643854,82.8909109 M76.2186447,83.0397187 C76.6322211,83.6444062 77.0995475,84.7054711 77.0995475,85.0244873 C77.0995475,85.3629132 76.8233322,85.617728 76.4416076,85.617728 C76.2614456,85.617728 76.1016887,85.5221725 76.0165845,85.3733646 C75.9956817,85.3420104 75.9956817,85.3420104 75.9324757,85.1409456 C75.7194664,84.525309 75.3909942,83.8773229 75.008772,83.315934 C74.9450683,83.2089317 74.9132164,83.1243252 74.9132164,83.0183183 C74.9132164,82.7321493 75.2108322,82.4773345 75.528853,82.4773345 C75.7727187,82.4773345 75.9105775,82.5937928 76.2186447,83.0397187" id="Fill-5" fill="#231815"></path>
                <path d="M89.8793565,89.6184201 C89.8793565,89.9050868 89.6578866,90.0957002 89.3279213,90.0957002 C89.0094028,90.0957002 88.7968912,89.9050868 88.7968912,89.6184201 L88.7968912,85.33136 C87.8841366,85.9997512 87.0141829,86.5317766 86.0058727,87.0075637 C85.8466134,87.0817187 85.7411042,87.1150637 85.6350972,87.1150637 C85.3484306,87.1150637 85.1249699,86.8497975 85.1249699,86.5317766 C85.1249699,86.3506192 85.2210231,86.1809086 85.3688356,86.0744039 C85.4116366,86.0530035 85.4215903,86.0425521 85.6774005,85.9250984 C87.8000278,84.8963831 89.2537662,83.7497164 90.7184537,81.9147512 C90.8667639,81.7335937 91.004125,81.6594387 91.1947384,81.6594387 C91.4928519,81.6594387 91.7675741,81.9252025 91.7675741,82.2223206 C91.7675741,82.3711285 91.7257685,82.4447859 91.5252014,82.689647 C90.8667639,83.4739988 90.4636389,83.8885706 89.8793565,84.4081539 L89.8793565,89.6184201 Z" id="Fill-7" fill="#231815"></path>
                <path d="M22.533941,44.0121921 C22.533941,41.0673889 22.6175521,39.0975509 22.7862674,38.0996921 C22.963941,37.1038241 23.2391609,36.2980718 23.6094387,35.6839282 C24.2021817,34.5198426 25.1542535,33.4831644 26.4646586,32.5714051 C27.7521701,31.6511852 29.3591956,31.1783843 31.2852373,31.1544954 C33.2346701,31.1783843 34.8571238,31.6531759 36.1565799,32.577875 C37.4445891,33.491625 38.3737674,34.5322847 38.9461053,35.7003519 C39.3596817,36.3135 39.645353,37.1172616 39.8011285,38.1121343 C39.9464525,39.1075046 40.02011,41.0743565 40.02011,44.0121921 C40.02011,46.9032454 39.9464525,48.8586505 39.8011285,49.8764167 C39.6443576,50.8951782 39.3586863,51.7093912 38.9456076,52.3235347 C38.3737674,53.4916019 37.4445891,54.5208148 36.1565799,55.4116713 C34.8571238,56.3373657 33.2346701,56.8216134 31.2852373,56.8688935 C29.3591956,56.8216134 27.7521701,56.3373657 26.4646586,55.4116713 C25.1542535,54.5208148 24.201684,53.4916019 23.6094387,52.3235347 C23.4297743,51.9423079 23.2675289,51.5775046 23.1227025,51.2306181 C22.9878299,50.871787 22.8748553,50.4198889 22.7862674,49.8764167 C22.6175521,48.8586505 22.533941,46.9032454 22.533941,44.0121921" id="Fill-9" fill="#A37E39"></path>
                <path d="M47.7316424,89.5270451 C47.7316424,90.9165822 46.5944317,92.0537928 45.2048947,92.0537928 L25.0610868,92.0537928 C23.6710521,92.0537928 22.5338414,90.9165822 22.5338414,89.5270451 L22.5338414,68.9447766 C22.5338414,67.5552396 23.6710521,66.4175313 25.0610868,66.4175313 L45.2048947,66.4175313 C46.5944317,66.4175313 47.7316424,67.5552396 47.7316424,68.9447766 L47.7316424,89.5270451 Z" id="Fill-11" fill="#CED0D1"></path>
                <g id="Group-15" transform="translate(0.000000, 30.838565)">
                    <mask id="mask-2" fill="white">
                        <use xlink:href="#path-1"></use>
                    </mask>
                    <g id="Clip-14"></g>
                    <path d="M0.134175926,17.7247095 L0.134175926,17.8222558 C0.156571759,17.9282627 0.139152778,18.0492002 0.163539352,18.1611794 C0.229233796,18.4553113 0.21131713,18.7738299 0.284974537,19.0590035 C0.318319444,19.1923831 0.328770833,19.3372095 0.368087963,19.4740729 C0.461155093,19.807522 0.535310185,20.1414688 0.661722222,20.4465498 C0.893145833,21.0049525 1.13850463,21.544941 1.44607407,22.0291887 C2.13238194,23.1136447 3.08146759,23.9512488 4.14502083,24.6604502 C4.606375,24.969015 5.11152546,25.2243275 5.66047222,25.4517697 C5.90284491,25.5532975 6.16661806,25.6179965 6.42093519,25.7001146 C6.67973148,25.7852188 6.95893287,25.8125914 7.22768287,25.8822674 C7.34015972,25.9116308 7.44417593,25.9006817 7.5591412,25.927059 C7.77165278,25.9783206 8.02149074,25.9609016 8.24544907,26.0101725 C8.3285625,26.0121632 8.41167593,26.0146516 8.49478935,26.0181354 C8.56496296,26.0320706 8.67047222,26.007684 8.75109722,26.0256007 C8.81131713,26.0380428 8.94220833,26.0484942 9.01487037,26.0320706 C9.08305324,26.0181354 9.18557639,26.042522 9.26321528,26.0256007 C9.33836574,26.0081817 9.42944213,26.0290845 9.51156019,26.0101725 C9.68326157,25.9922558 9.85346991,25.9758322 10.0246736,25.9574178 C10.2247431,25.9245706 10.4273009,25.8912257 10.6278681,25.8593738 C11.127544,25.7319664 11.6157731,25.6359132 12.0607037,25.4517697 C12.3593148,25.3288414 12.676838,25.2064109 12.9416065,25.0456586 C13.008794,25.003853 13.079963,24.9869317 13.1451597,24.9471169 C13.4910509,24.7356007 13.8289792,24.5260752 14.1489907,24.2911678 C14.263956,24.2065613 14.3664792,24.098066 14.4804491,24.0119664 C14.6879838,23.8566887 14.864662,23.6725451 15.0458194,23.4923831 C15.5738634,22.9643391 16.0297431,22.3760752 16.4328681,21.7201262 C16.7205301,21.250809 16.9270694,20.7277419 17.1495347,20.1892465 C17.3122778,19.7935868 17.3804606,19.3516424 17.5033889,18.9161678 C17.5501713,18.7484479 17.5536551,18.5682859 17.5934699,18.4035521 C17.6193495,18.1920359 17.6442338,17.981515 17.6686204,17.7695012 C17.6711088,17.7097789 17.6740949,17.6490613 17.6760856,17.5898368 C17.6925093,17.5171748 17.6740949,17.4290845 17.6910162,17.3469664 C17.7248588,17.2001493 17.7144074,17.0035637 17.7144074,16.8423137 L17.7144074,16.5188183 C17.7343148,16.4257512 17.7218727,16.2928692 17.7218727,16.1868623 L17.7218727,15.5458438 L17.7218727,13.5252419 C17.7218727,12.8384363 17.7218727,12.2043854 17.3217338,11.9202072 C17.0126713,11.6987373 16.4995579,11.700728 15.9660394,11.700728 L15.0458194,11.700728 L11.0648356,11.700728 C10.4268032,11.700728 9.64294907,11.6325451 9.24032176,11.8823831 C8.97256713,12.0491076 8.89393287,12.2810289 8.81131713,12.6358785 C8.79240509,12.7184942 8.81529861,12.7966308 8.7953912,12.8842234 C8.77846991,12.9603692 8.80733565,13.0708553 8.7889213,13.1559595 C8.75458102,13.3072558 8.77996296,13.5177766 8.77996296,13.6845012 C8.77996296,14.5365382 8.77747454,15.1730775 9.39211574,15.4249063 C9.67679167,15.54236 10.0878796,15.5304155 10.4845347,15.5304155 L12.2030417,15.5304155 C12.596213,15.5304155 13.1018611,15.5174757 13.350206,15.6667813 C13.5642106,15.795184 13.6702176,15.97236 13.7413866,16.2470822 C13.7682616,16.3466192 13.7488519,16.4620822 13.7712477,16.56361 C13.7861782,16.6288067 13.7752292,16.7432743 13.7642801,16.7980197 L13.7642801,16.9861447 C13.7369074,17.1060868 13.751838,17.254397 13.7269537,17.36986 C13.7219769,17.433066 13.7155069,17.4957743 13.7110278,17.557985 C13.6657384,17.7540729 13.6597662,17.9571285 13.6055185,18.1467465 C13.5308657,18.4135058 13.4651713,18.678772 13.3641412,18.9231354 C13.3248241,19.0191887 13.2690833,19.1177303 13.2292685,19.2098021 C12.7624398,20.2703692 11.8163403,21.1671979 10.7488056,21.6295475 C10.5412708,21.7186331 10.3297546,21.7634248 10.0998241,21.8335984 C9.88880556,21.8977998 9.64294907,21.9077535 9.40654861,21.9620012 C9.29656019,21.9863877 9.18955787,21.9515498 9.07459259,21.9759363 C8.97306481,21.9998252 8.77697685,21.9983322 8.6744537,21.9759363 L8.53958102,21.9759363 C8.45447685,21.9694664 8.368875,21.9620012 8.28227778,21.9535405 C8.20065741,21.9351262 8.10759028,21.9396053 8.0195,21.9157164 C7.82291435,21.8664456 7.62533333,21.8340961 7.43919907,21.7733785 C6.39406019,21.4259942 5.53455787,20.7541192 4.95823843,19.933934 C4.7004375,19.5646516 4.5123125,19.1391308 4.35554167,18.6673252 C4.26147917,18.3841424 4.23410648,18.0755775 4.15895602,17.7695012 C4.12809954,17.6425914 4.13407176,17.5077188 4.10620139,17.3852882 C4.06638657,17.2125914 4.09176852,17.0259595 4.05444213,16.8577419 L4.05444213,16.7592002 C4.0051713,16.5402188 4.05095833,16.2754502 4.0016875,16.0509942 C3.99870139,15.9405081 3.99571528,15.8295243 3.99322685,15.7195359 C3.96684954,15.5966076 3.9713287,15.3716539 3.97083102,15.2367813 L3.97083102,15.0566192 C3.95191898,14.9680313 3.9847662,14.84361 3.96286806,14.747059 C3.9379838,14.630103 3.96784491,14.4763183 3.95590046,14.3469201 C3.9379838,14.1418738 3.94843519,13.9014919 3.94843519,13.6845012 L3.94843519,12.4472558 C3.94843519,12.2656007 3.92056481,11.9814225 3.95590046,11.8221632 L3.95590046,11.5653576 C3.95590046,11.4235174 3.94246296,11.2204618 3.97083102,11.0900683 C3.98725463,11.0129271 3.96336574,10.9104039 3.97879398,10.8417234 L3.97879398,10.6222442 C3.98924537,10.5709826 3.97331944,10.4883669 3.98576157,10.4271516 C3.99571528,10.38236 3.98178009,10.3072095 3.99322685,10.2534595 C4.04050694,10.0414456 3.99322685,9.79061227 4.03901389,9.58257986 C4.04150231,9.51439699 4.04399074,9.44671181 4.04598148,9.37852894 C4.06787963,9.14859838 4.09176852,8.9161794 4.11416435,8.68575116 C4.14203472,8.50210532 4.16940741,8.31845949 4.19628241,8.13481366 C4.29631713,7.74413079 4.36698843,7.36539236 4.51380556,7.02746412 C5.0060162,5.88975579 5.90085417,5.01681597 7.03906019,4.52410764 C7.34314583,4.39271875 7.68107407,4.33150347 8.03393287,4.24490625 C8.15088889,4.21703588 8.25888657,4.23445486 8.38131713,4.20757986 C8.4495,4.19215162 8.54605093,4.1861794 8.62269444,4.18518403 L8.76652546,4.18518403 C8.85710417,4.16477894 9.05120139,4.17323958 9.14327315,4.19215162 C9.2054838,4.19414236 9.26868981,4.19712847 9.33090046,4.20011458 C9.46875926,4.23047338 9.62403704,4.23495255 9.75343519,4.26779977 C10.0052639,4.33150347 10.240669,4.35788079 10.4616412,4.44845949 C10.6841065,4.54003356 10.9190139,4.62165394 11.118088,4.74259144 C11.6819653,5.08599421 12.1831343,5.50056597 12.5573935,6.03209375 C12.7300903,6.27695486 12.8813866,6.53973264 13.0401481,6.80051968 C13.2277755,7.11057755 13.3686204,7.42511458 13.6732037,7.61523032 C14.1465023,7.90985995 15.1125093,7.82575116 15.874963,7.82575116 C16.3288519,7.82575116 16.7568611,7.81977894 17.0355648,7.64509144 C17.3635394,7.43954745 17.4143032,6.95032292 17.2769421,6.49942014 C17.0246157,5.66679282 16.6797199,4.94664236 16.2815718,4.26779977 C16.0984236,3.95376042 15.8898935,3.66609838 15.6783773,3.37793866 C15.5589329,3.21469792 15.3996736,3.0708669 15.2797315,2.91011458 C15.2304606,2.84541551 15.177706,2.78220949 15.1204722,2.72198958 C15.0856343,2.68914236 15.0502986,2.65729051 15.0154606,2.62344792 C14.9418032,2.52689699 14.8492338,2.43333218 14.7511898,2.36067014 C14.7243148,2.32981366 14.6959468,2.30045023 14.6685741,2.26959375 C14.6033773,2.20539236 14.5068264,2.11282292 14.434662,2.05857523 C14.1405301,1.83760301 13.8618264,1.59523032 13.5452986,1.39565856 C12.2901366,0.602846065 10.7184468,0.0962025463 8.65205787,0.121086806 C8.60527546,0.151445602 8.36738194,0.11959375 8.29123611,0.136017361 C8.07424537,0.156920139 7.85924537,0.176329861 7.64225463,0.197232639 C7.44815741,0.226596065 7.25605093,0.256954861 7.0619537,0.287313657 C6.59263657,0.407255787 6.12929167,0.485392361 5.7117338,0.656596065 C5.45741667,0.761109954 5.20061111,0.866619213 4.96620139,0.988552083 C4.90598148,1.01940856 4.84277546,1.03583218 4.78504398,1.07116782 C4.44263657,1.2801956 4.10421065,1.47777662 3.78220833,1.70472106 C3.59557639,1.83561227 3.42238194,1.98939699 3.24022917,2.1267581 C3.19095833,2.16308912 3.15213889,2.21833218 3.10386343,2.25466319 C2.99934954,2.33329745 2.91325,2.42536921 2.8092338,2.50350579 C2.7619537,2.55377199 2.71467361,2.60403819 2.66689583,2.65480208 C2.5942338,2.70904977 2.53301852,2.77026505 2.47827315,2.84342477 C2.4429375,2.87527662 2.40760185,2.90812384 2.37326157,2.94097106 C2.30756713,3.00567014 2.24684954,3.07833218 2.19210417,3.15248727 C2.15378241,3.20275347 2.09455787,3.24406134 2.05573843,3.29532292 C1.9288287,3.46553125 1.78549537,3.62628356 1.66406019,3.79997569 C1.19175694,4.47384144 0.812520833,5.21539236 0.525854167,6.07688542 C0.427810185,6.37101736 0.380032407,6.6855544 0.299407407,6.99710532 C0.269048611,7.11505671 0.2660625,7.23898032 0.24018287,7.35046181 C0.197381944,7.52415394 0.210321759,7.70829745 0.171502315,7.87900347 C0.146618056,8.19553125 0.121733796,8.51156134 0.0953564815,8.82858681 C0.0754490741,9.31382986 0.0560393519,9.7995706 0.0356342593,10.284316 C0.0281689815,10.7382049 0.0207037037,11.1935868 0.0127407407,11.6479734 L0.0127407407,12.0705081 C-0.00318518519,12.1446632 0.00577314815,12.2551493 0.00577314815,12.3422442 L0.00577314815,12.8772558 L0.00577314815,13.6690729 C0.00577314815,13.795485 -0.0111481481,13.9557396 0.0127407407,14.0677188 L0.0127407407,14.4305313 C0.0157268519,14.5848137 0.0182152778,14.7415845 0.0207037037,14.89736 C0.0207037037,14.9939109 0.01075,15.1158438 0.0281689815,15.1994549 C0.0520578704,15.3084479 0.0142337963,15.445809 0.0356342593,15.5458438 C0.0426018519,15.8693391 0.0505648148,16.1943275 0.059025463,16.5188183 C0.101826389,16.7163993 0.0530532407,16.9552882 0.0953564815,17.1513762 L0.0953564815,17.2802766 C0.126710648,17.4176377 0.10381713,17.5883438 0.134175926,17.7247095" id="Fill-13" fill="#222222" mask="url(#mask-2)"></path>
                </g>
                <path d="M52.8003171,56.8640162 C53.0063588,56.8460995 53.2119028,56.8291782 53.4184421,56.8112616 C53.5747153,56.7888657 53.7299931,56.7659722 53.8867639,56.7430787 C54.2396227,56.6534954 54.5959653,56.6111921 54.9259306,56.5021991 C55.7192407,56.2389236 56.425456,55.9283681 57.0669722,55.5222569 C57.3118333,55.3674769 57.5397731,55.1868171 57.7687083,55.0166088 C57.8478403,54.9563889 57.9160231,54.8737731 57.9951551,54.8135532 C58.0708032,54.7558218 58.145456,54.6926157 58.2136389,54.6244329 C58.2459884,54.5895949 58.278338,54.5532639 58.3111852,54.5194213 C58.4092292,54.4457639 58.5017986,54.3452315 58.5749583,54.2486806 C58.6441366,54.1566088 58.7471574,54.0834491 58.8163356,53.991875 C58.9925162,53.7564699 59.1816366,53.5315162 59.3513472,53.2901389 C59.4902014,53.0920602 59.6006875,52.8810417 59.7285926,52.6720139 C60.0102824,52.2116551 60.2272731,51.6910764 60.4452593,51.1650231 C60.4925394,51.0470718 60.5129444,50.9291204 60.5577361,50.8106713 C60.635375,50.6021412 60.7448657,50.1761227 60.6408495,49.9123495 C60.573662,49.7441319 60.4636736,49.6246875 60.3173542,49.5360995 C60.1894491,49.4584606 60.0162546,49.4460185 59.8490324,49.4081944 C59.7908032,49.3942593 59.721625,49.4047106 59.6688704,49.3912731 L59.4498889,49.3912731 C59.3827014,49.3778356 59.2806759,49.3853009 59.2005486,49.3853009 L58.7113241,49.3853009 C58.0334769,49.3853009 57.3436852,49.3574306 56.9395648,49.6256829 C56.5249931,49.9009028 56.2970532,50.4055556 56.0123773,50.8106713 C55.6226898,51.3606134 55.1274931,51.8344097 54.5496806,52.1977199 C54.2192176,52.4052546 53.8379907,52.5460995 53.4254097,52.6720139 C53.200456,52.7416898 52.9555949,52.7451736 52.7097384,52.8004167 C52.6002477,52.8248032 52.4917523,52.7899653 52.3777824,52.8143519 C52.2578403,52.8407292 52.0020301,52.8312731 51.8885579,52.8083796 L51.7825509,52.8083796 C51.6665903,52.7825 51.5292292,52.7815046 51.4207338,52.7541319 C51.3007917,52.7257639 51.1957801,52.7282523 51.0813125,52.6949074 C50.4726435,52.5112616 49.9530602,52.281331 49.4912083,51.9558449 C49.3528519,51.8597917 49.230919,51.7378588 49.0995301,51.6398148 C48.9283264,51.5104167 48.7670764,51.3496644 48.6391713,51.1789583 C48.585919,51.1092824 48.5102708,51.0470718 48.4580139,50.9764005 C48.2818333,50.7360185 48.092713,50.4762269 47.967794,50.1915509 C47.8488472,49.9208102 47.7562778,49.6396181 47.6587315,49.3390162 C47.618419,49.1563657 47.5776088,48.9727199 47.5387894,48.7890741 C47.5049468,48.5561574 47.4730949,48.3222454 47.43975,48.0878356 C47.422331,48.0106944 47.4322847,47.9310648 47.4178519,47.8618866 C47.4153634,47.8046528 47.4123773,47.7469213 47.4098889,47.6881944 C47.3641019,47.4831481 47.403419,47.2362963 47.3581296,47.0252778 C47.3362315,46.9267361 47.3616134,46.8202315 47.3422037,46.7316435 C47.3168218,46.6136921 47.3516597,46.4728472 47.3272731,46.3618634 C47.3168218,45.8721412 47.3068681,45.3819213 47.2969144,44.8917014 L47.2969144,44.416412 C47.2730255,44.3084144 47.2894491,44.1541319 47.2894491,44.0321991 C47.2894491,43.8301389 47.2695417,43.5947338 47.2969144,43.4061111 L47.2969144,43.090081 C47.2984074,42.9039468 47.3018912,42.7178125 47.3048773,42.5316782 C47.3048773,42.4406019 47.2954213,42.3241435 47.3123426,42.2450116 C47.3332454,42.1484606 47.2999005,42.0240394 47.3193102,41.9364468 C47.3372269,41.8563194 47.3118449,41.7513079 47.3272731,41.6801389 C47.3352361,41.433287 47.3422037,41.1879282 47.3491713,40.9410764 C47.3845069,40.7793287 47.3516597,40.58125 47.3869954,40.4209954 L47.3869954,40.3159838 C47.4123773,40.2025116 47.3904792,40.0741088 47.4178519,39.9531713 C47.4387546,39.8615972 47.4248194,39.7580787 47.447713,39.6600347 C47.501463,39.4211458 47.4939977,39.1693171 47.5527245,38.9364005 C47.6562431,38.530787 47.7393565,38.1460764 47.8926435,37.7971991 C48.3564861,36.7401157 49.2742176,35.8472685 50.3352824,35.384919 C50.5990556,35.269456 50.8887083,35.2052546 51.1863241,35.1211458 C51.3226898,35.09875 51.4580602,35.0758565 51.5944259,35.0534606 C51.7039167,35.027581 51.8253519,35.0395255 51.9323542,35.0235995 L52.1140093,35.0235995 C52.2070764,35.0026968 52.4061505,35.0111574 52.4992176,35.0305671 C52.5619259,35.0330556 52.6241366,35.0360417 52.6873426,35.0385301 C52.8515787,35.0748611 53.0332338,35.0808333 53.1850278,35.1211458 C53.4990671,35.2042593 53.7807569,35.26 54.0519954,35.3779514 C54.8756644,35.734294 55.5107106,36.289213 55.9969491,36.9839815 C56.129831,37.1740972 56.2447963,37.3801389 56.3662315,37.5787153 C56.5628171,37.9022106 56.7051551,38.2381481 57.0221806,38.4387153 C57.4253056,38.6925347 58.1195764,38.6571991 58.7790093,38.6571991 L59.2612662,38.6571991 C59.3418912,38.6571991 59.4429213,38.6641667 59.5101088,38.6492361 C59.6101435,38.6467477 59.7116713,38.6442593 59.8112083,38.6422685 C60.01725,38.5959838 60.2098542,38.5840394 60.3616481,38.4914699 C60.7115208,38.277963 60.7906528,37.8081481 60.6333843,37.3224074 C60.3691134,36.5022222 60.0580602,35.7497222 59.6385116,35.0833218 C58.153419,32.7307639 55.8884537,30.9127199 52.0085,30.9595023 C51.9612199,30.9898611 51.7238241,30.9580093 51.6466829,30.9744329 C51.4277014,30.9953356 51.2097153,31.0152431 50.9912315,31.0356481 C50.8120648,31.0625231 50.6343912,31.0898958 50.4552245,31.1182639 C49.9784421,31.2401968 49.5071343,31.3138542 49.0836042,31.4875463 C48.8730833,31.5741435 48.6590787,31.6701968 48.4580139,31.7587847 C48.3659421,31.7990972 48.2778519,31.829456 48.1942407,31.8792245 C48.0339861,31.9772685 47.8622847,32.0583912 47.7035231,32.1584259 C47.5069375,32.2828472 47.3138356,32.4167245 47.1232222,32.5501042 C46.9176782,32.6954282 46.7295532,32.8666319 46.5274931,33.0184259 C46.4762315,33.05625 46.4354213,33.1154745 46.3846574,33.1532986 C46.2184306,33.2787153 46.0775856,33.4300116 45.9322616,33.5758333 C45.8028634,33.7057292 45.6664977,33.827662 45.5550162,33.9754745 C45.5152014,34.0287269 45.4529907,34.0720255 45.4121806,34.1262731 C45.2773079,34.3059375 45.1265093,34.4776389 44.9976088,34.6617824 C44.5362546,35.3202199 44.1629907,36.0523148 43.8817986,36.8929051 C43.7897269,37.1706134 43.738963,37.4677315 43.6638125,37.7603704 C43.6294722,37.8882755 43.6254907,38.0206597 43.5951319,38.1440856 C43.5702477,38.3376852 43.5443681,38.5317824 43.5199815,38.7253819 C43.4955949,39.0443981 43.4697153,39.3634144 43.444831,39.6824306 C43.4244259,40.1721528 43.4045185,40.6623727 43.3846111,41.1525926 L43.3846111,41.4541898 C43.3617176,41.5587037 43.4015324,41.7025347 43.3766481,41.8165046 C43.3567407,41.9055903 43.3686852,42.0369792 43.3686852,42.14 C43.3666944,42.3286227 43.364206,42.5167477 43.3617176,42.7058681 L43.3617176,43.0223958 C43.3447963,43.1338773 43.3542523,43.2816898 43.3542523,43.4061111 L43.3542523,44.1153125 L43.3542523,44.5527778 C43.3542523,44.6284259 43.3472847,44.7229861 43.3617176,44.7856944 L43.3617176,45.0723611 C43.364206,45.2589931 43.3666944,45.4446296 43.3686852,45.6307639 C43.3686852,45.7452315 43.35475,45.8910532 43.3766481,45.992581 C43.3846111,46.3713194 43.3920764,46.7515509 43.399044,47.1312847 C43.4378634,47.3044792 43.3920764,47.5164931 43.4294028,47.6881944 L43.4294028,47.8394907 C43.4647384,47.99875 43.4234306,48.1784144 43.4597616,48.3441435 C43.4876319,48.473044 43.4597616,48.6163773 43.4896227,48.75125 C43.5060463,48.8259028 43.4941019,48.9115046 43.5125162,48.9926273 C43.5443681,49.2489352 43.5772153,49.5057407 43.6105602,49.7615509 C43.6478866,49.9183218 43.6563472,50.085544 43.7011389,50.2443056 C43.7947037,50.5792477 43.8608958,50.918669 43.9878056,51.2242477 C44.2306759,51.815 44.4864861,52.3808681 44.8089861,52.8909954 C45.5161968,54.0082986 46.5394375,54.8966667 47.6587315,55.604375 C48.0742986,55.8676505 48.5247037,56.0901157 49.007956,56.2906829 C49.2518218,56.3922106 49.5155949,56.4569097 49.7694144,56.5390278 C50.0968912,56.6465278 50.4537315,56.6734028 50.8026088,56.7580093 C50.9130949,56.7709491 51.0240787,56.7828935 51.1345648,56.7958333 C51.2455486,56.821713 51.3724583,56.8067824 51.4958843,56.8331597 C51.6795301,56.8744676 51.9572384,56.8710564 52.1677593,56.8710564 L52.6191597,56.8710564 C52.6664398,56.8610301 52.7440787,56.8759606 52.8003171,56.8640162" id="Fill-16" fill="#222222"></path>
                <path d="M81.3197077,51.0366204 L81.3197077,36.3499306 L81.3197077,32.9278472 C81.3197077,32.3301273 81.3255914,31.6816435 80.9886586,31.4273264 C80.6019572,31.1361806 80.1132303,31.1555903 79.4428484,31.1555903 C78.635603,31.1555903 77.8855914,31.0978588 77.5735428,31.6005208 C77.4655451,31.774213 77.45161,31.9603472 77.3998507,32.1967477 C77.3973623,32.286331 77.3943762,32.3769097 77.3923854,32.4674884 C77.3585428,32.6232639 77.3844225,32.8392593 77.3844225,33.010463 L77.3844225,34.104375 L77.3844225,39.1922106 L77.3844225,40.2627315 C77.3844225,40.4299537 77.4093067,40.6389815 77.3764595,40.7907755 C77.3744687,40.8913079 77.3719803,40.9913426 77.3694919,41.0923727 C77.336147,41.2471528 77.326691,41.3939699 77.2719456,41.521875 C77.1768877,41.7403588 76.986772,41.8717477 76.7443993,41.9434144 C76.6508345,41.9717824 76.547316,41.9678009 76.4497697,41.9892014 C76.2770729,41.9916898 76.1033808,41.9946759 75.9296887,41.9966667 C75.859515,42.0115972 75.7550012,42.0041319 75.6728831,42.0041319 L75.1836586,42.0041319 L70.8786817,42.0041319 L69.8534502,42.0041319 C69.6946887,42.0041319 69.4926285,42.0275231 69.3478021,41.9966667 C69.1726169,41.9946759 68.9964363,41.9916898 68.8207535,41.9892014 C68.7451053,41.9797454 68.6704525,41.9687963 68.5948044,41.9588426 C68.3489479,41.8916551 68.1628137,41.7970949 68.0448623,41.6049884 C67.966228,41.4770833 67.947316,41.3158333 67.9084965,41.1451273 C67.8940637,41.0814236 67.9060081,41.0072685 67.8925706,40.948044 L67.8925706,40.5414352 C67.8796308,40.4802199 67.8861007,40.3886458 67.8861007,40.3159838 L67.8861007,39.8934491 L67.8861007,38.5591551 L67.8861007,33.6509838 C67.8861007,32.8561806 67.9736933,31.9613426 67.6292951,31.5024769 C67.3650243,31.1501157 66.7478947,31.1555903 66.129272,31.1555903 L65.2468762,31.1555903 C65.2160197,31.175 65.1408692,31.1610648 65.0960775,31.1630556 C65.0184387,31.1710185 64.9403021,31.1784838 64.8631609,31.1859491 C64.5526053,31.2596065 64.3012743,31.3467014 64.1544572,31.578125 C63.9090984,31.9643287 63.9504063,32.6595949 63.9504063,33.2891667 L63.9504063,36.7873958 L63.9504063,50.4702546 L63.9504063,54.6931134 C63.9504063,55.3694676 63.9095961,56.1279398 64.2972928,56.4190856 C64.6531377,56.6853472 65.1747118,56.6838542 65.797316,56.6838542 C65.9824549,56.6838542 66.2676285,56.7097338 66.4303715,56.6753935 L66.7026053,56.6753935 C66.7787512,56.6579745 66.8698275,56.6704167 66.9504525,56.6525 C67.1032419,56.617662 67.2495613,56.5952662 67.3729873,56.5315625 C67.5103484,56.4613889 67.6337743,56.3434375 67.7129063,56.214537 C67.8771424,55.9497685 67.8861007,55.5361921 67.8861007,55.1076852 L67.8861007,53.6972454 L67.8861007,48.4874769 L67.8861007,47.5528241 C67.8861007,47.4055093 67.8647002,47.2183796 67.8925706,47.0859954 L67.8925706,46.6783912 C67.9363669,46.4773264 67.9184502,46.2956713 67.99161,46.1279514 C68.1304641,45.8054514 68.351934,45.7303009 68.7301748,45.6451968 C68.8540984,45.6178241 68.9999201,45.6586343 69.1303137,45.6307639 C69.219897,45.6113542 69.3507882,45.6228009 69.4533113,45.6228009 L70.0649664,45.6228009 L74.3395845,45.6228009 L75.6957766,45.6228009 C75.9177442,45.6252894 76.1387164,45.6277778 76.3601863,45.6307639 C76.4358345,45.6461921 76.5214363,45.6347454 76.6000706,45.6536574 C76.8319919,45.7069097 77.0459965,45.7701157 77.1659387,45.9318634 C77.3023044,46.1140162 77.3127558,46.2653125 77.3694919,46.5275926 C77.3719803,46.6301157 77.3744687,46.7336343 77.3764595,46.8371528 C77.4107998,46.9954167 77.3844225,47.2134028 77.3844225,47.3865972 L77.3844225,48.5019097 L77.3844225,53.8853704 L77.3844225,54.8737731 C77.3844225,55.0285532 77.3615289,55.2226505 77.3923854,55.3634954 C77.3943762,55.4570602 77.3973623,55.5491319 77.3998507,55.6426968 C77.4416562,55.8348032 77.4511123,56.0239236 77.5357187,56.1692477 C77.6437164,56.3558796 77.794515,56.4922454 78.0030451,56.5778472 C78.3628715,56.723669 79.0606262,56.6838542 79.5637859,56.6838542 C80.067941,56.6838542 80.5735891,56.6813657 80.8831493,56.4857755 C81.3370382,56.2020949 81.3197077,55.5267361 81.3197077,54.7821991 L81.3197077,51.0366204 Z" id="Fill-18" fill="#222222"></path>
                <path d="M90.916831,50.2142951 L90.916831,36.6065868 L90.916831,33.2511933 C90.916831,32.7550012 90.961125,32.1249317 90.8118194,31.7670961 C90.7675255,31.6610891 90.7028264,31.5660313 90.6391227,31.4799317 C90.5669583,31.3853715 90.4385556,31.3256493 90.3211019,31.2763785 C90.0294583,31.1529525 89.6104074,31.1554372 89.1913565,31.1554372 L88.2790995,31.1554372 C88.2477454,31.1753484 88.1730926,31.1609155 88.1283009,31.1634039 C88.050662,31.1708692 87.9715301,31.1783345 87.8938912,31.1862975 C87.5893079,31.2579641 87.3414606,31.3395845 87.1936481,31.5625475 C86.9398287,31.9437743 86.9821319,32.6320729 86.9821319,33.2661238 L86.9821319,36.7872465 L86.9821319,50.5004641 L86.9821319,54.2699317 C86.9821319,54.9194109 86.9169352,55.6997812 87.1244699,56.1546655 C87.377294,56.7085891 88.1108819,56.683874 88.9116574,56.683874 C89.1858819,56.6807187 89.4601065,56.6777326 89.732838,56.6752442 C89.8468079,56.6628021 89.9592847,56.6508576 90.0727569,56.6369225 C90.3340417,56.5717257 90.5555116,56.4801516 90.6903843,56.2905336 C90.980037,55.8859155 90.916831,55.0881262 90.916831,54.3983345 L90.916831,50.2142951 Z" id="Fill-20" fill="#222222"></path>
                <path d="M17.7748264,82.782515 C17.7504398,82.6854664 17.756412,82.5983715 17.7290394,82.502816 C17.6369676,82.17086 17.5757523,81.8344248 17.4508333,81.5308368 C17.2423032,81.0227002 17.0263079,80.5439271 16.7485995,80.1059641 C16.6211921,79.9044016 16.4669097,79.7162766 16.3265625,79.5246678 C16.2469329,79.4151771 16.159838,79.3166354 16.0777199,79.20814 C16.0234722,79.1533947 15.9677315,79.0986493 15.9119907,79.0424109 C15.846794,78.9563113 15.766169,78.874691 15.6785764,78.8099919 C15.6482176,78.7776424 15.6183565,78.7447951 15.5884954,78.7109525 C15.4605903,78.6144016 15.3476157,78.4964502 15.2182176,78.4023877 C14.9101505,78.175941 14.5831713,77.9813461 14.2467361,77.7762998 C14.1835301,77.7384757 14.1158449,77.7200613 14.0501505,77.6862187 C13.8097685,77.5612998 13.5410185,77.4537998 13.2822222,77.3467975 C12.8532176,77.1711146 12.379919,77.0880012 11.9091088,76.9541238 C11.8045949,76.9247604 11.708044,76.9297373 11.600544,76.9028623 C11.2840162,76.8212419 10.9251852,76.814772 10.5977083,76.7366354 C10.4887153,76.7102581 10.3742477,76.7147373 10.2727199,76.6908484 C10.1254051,76.6560104 9.98555556,76.6739271 9.83674769,76.6375961 C9.70386574,76.6072373 9.56152778,76.6117164 9.42118056,76.5773762 C9.3121875,76.5514965 9.19224537,76.5529896 9.07429398,76.5256169 C8.74084491,76.4444942 8.38898148,76.4280706 8.06449074,76.3364965 C7.70217593,76.2349687 7.3468287,76.1458831 7.02383102,76.0060336 C6.30019676,75.6900035 5.75125,75.2256632 5.35758102,74.5801655 C5.2371412,74.3810914 5.1565162,74.1387187 5.08684028,73.894853 C5.0694213,73.8012882 5.05150463,73.7087187 5.03458333,73.6151539 C5.03209491,73.5703623 5.02960648,73.5240775 5.025625,73.4802812 C4.98730324,73.3026076 4.99825231,73.0084757 5.03458333,72.8382674 C5.0694213,72.6770174 5.06046296,72.533684 5.10127315,72.3863692 C5.21126157,71.9976771 5.34314815,71.6637303 5.53923611,71.3695984 C5.99461806,70.6827928 6.64708333,70.2647373 7.50608796,69.9815544 C7.75891204,69.8979433 8.03413194,69.8874919 8.31333333,69.8227928 C8.39445602,69.8043785 8.48652778,69.8118437 8.56267361,69.8008947 L8.69854167,69.8008947 C8.80753472,69.7765081 9.18278935,69.7780012 9.29327546,69.8008947 L9.44407407,69.8008947 C9.56451389,69.8282674 9.71232639,69.8118437 9.82878472,69.8372257 C9.96365741,69.8680822 10.0895718,69.8451887 10.220463,69.8765428 C10.5688426,69.9566701 10.9221991,69.9706053 11.2531597,70.0646678 C11.4915509,70.1313576 11.7433796,70.1915775 11.9698264,70.2677234 C12.0683681,70.3010683 12.1619329,70.312515 12.2564931,70.3508368 C12.4784606,70.4419132 12.7133681,70.5105937 12.9343403,70.606647 C13.1005671,70.679309 13.2697801,70.7688924 13.4325231,70.840559 C13.7853819,70.9963345 14.0939468,71.1988924 14.4721875,71.3238113 C14.718044,71.404934 15.0340741,71.3576539 15.2117477,71.2476655 C15.3391551,71.1685336 15.4765162,71.0505822 15.5660995,70.9311377 C15.955787,70.410559 16.2976968,69.854147 16.6445833,69.2877812 C16.7311806,69.1444479 16.8984028,68.8010451 16.8396759,68.5487187 C16.7426273,68.1361377 16.4873148,67.9370637 16.1847222,67.7355012 C15.8741667,67.5279664 15.5402199,67.3557674 15.1958218,67.1770984 C14.7877199,66.9635914 14.3427894,66.7854201 13.8993519,66.6042627 C13.7619907,66.5480243 13.6261227,66.5206516 13.4847801,66.467897 C13.231956,66.3738345 12.9512616,66.3056516 12.685,66.2195521 C12.5521181,66.1767512 12.4237153,66.1677928 12.2868519,66.1289734 C12.0584144,66.064772 11.8006134,66.0314271 11.5627199,65.9707095 C11.4572106,65.9552812 11.350706,65.9408484 11.2456944,65.9254201 C11.0794676,65.8851076 10.8823843,65.8821215 10.7111806,65.8423067 C10.6429977,65.8373299 10.5748148,65.8328507 10.5076273,65.8278738 C10.3851968,65.7995058 10.2334028,65.8099572 10.1074884,65.7820868 L10.0099421,65.7820868 C9.94424769,65.7676539 9.84918981,65.7751192 9.7825,65.7601887 L9.64016204,65.7601887 C9.58641204,65.7477465 9.5003125,65.7656632 9.43710648,65.7527234 C9.37340278,65.7372951 9.27834491,65.7442627 9.20269676,65.7442627 L8.76622685,65.7442627 C8.55222222,65.7572025 8.33821759,65.7696447 8.12520833,65.7820868 C7.98734954,65.8129433 7.8375463,65.7950266 7.69421296,65.8278738 C7.39908565,65.8950613 7.09101852,65.8985451 6.80534722,65.9781748 C6.43457176,66.0816933 6.05334491,66.1478854 5.71193287,66.2872373 C5.47951389,66.3832905 5.24609954,66.4733715 5.01915509,66.5739039 C4.9315625,66.6122257 4.83550926,66.6689618 4.75438657,66.717735 C4.6628125,66.7724803 4.56675926,66.8043322 4.47618056,66.8600729 C4.29203704,66.9720521 4.1083912,67.0914965 3.93320602,67.2149225 C3.3225463,67.6459178 2.74274306,68.2530937 2.31224537,68.8652465 C2.18234954,69.0513808 2.069375,69.2519479 1.95042824,69.4455475 C1.77375,69.7376887 1.64136574,70.0980127 1.50549769,70.4269826 C1.3805787,70.7325613 1.32085648,71.0719826 1.22679398,71.4069248 C1.19195602,71.529853 1.19842593,71.6478044 1.16657407,71.7752118 C1.12725694,71.9309873 1.12775463,72.1181169 1.09092593,72.2798646 C1.0715162,72.3669595 1.08594907,72.4575382 1.06853009,72.5376655 C1.06554398,72.6197836 1.06355324,72.7033947 1.06056713,72.7860104 C1.048125,72.846728 1.06902778,72.9412882 1.05359954,73.0119595 C1.0312037,73.1134873 1.03170139,73.3100729 1.05359954,73.4120984 L1.05359954,73.6375498 C1.07101852,73.8435914 1.0884375,74.0496331 1.10585648,74.2556748 C1.1322338,74.3701424 1.12775463,74.4930706 1.1591088,74.6100266 C1.23674769,74.9141123 1.27606481,75.2167049 1.37012731,75.4998877 C1.908125,77.1218437 2.85920139,78.3580937 4.1825463,79.1937072 C4.65236111,79.4923183 5.17244213,79.7227465 5.72039352,79.9472025 C5.99461806,80.0606748 6.29273148,80.1253738 6.57939815,80.2194363 C6.68341435,80.2532789 6.78046296,80.256265 6.88846065,80.2871215 C7.15721065,80.363765 7.46478009,80.3956169 7.74846065,80.4682789 C7.85695602,80.4951539 7.97042824,80.4951539 8.0724537,80.5205359 C8.15954861,80.5419363 8.23420139,80.5304896 8.32079861,80.5513924 C8.58407407,80.613603 8.87920139,80.6165891 9.14297454,80.6792975 C9.23056713,80.6892512 9.31815972,80.6992049 9.40625,80.7091586 C9.86859954,80.7798299 10.3309491,80.8495058 10.7937963,80.9206748 C11.0595602,80.9878623 11.3337847,81.0251887 11.5851157,81.1087998 C12.0215856,81.2536262 12.4207292,81.4337882 12.7611458,81.6746678 C13.2608218,82.0260336 13.606713,82.5242164 13.8162384,83.166728 C13.8709838,83.3309641 13.8804398,83.5106285 13.9217477,83.6873067 C13.9411574,83.7694248 13.9277199,83.8585104 13.9451389,83.9356516 L13.9451389,84.1466701 C13.9451389,84.3178738 13.9471296,84.4870868 13.9147801,84.6299225 C13.9073148,84.6976076 13.8993519,84.7647951 13.8923843,84.832978 C13.8525694,84.9857674 13.8281829,85.1395521 13.778912,85.2853738 C13.6644444,85.6242975 13.4947338,85.9010104 13.3046181,86.159309 C12.8935301,86.7197025 12.2604745,87.063603 11.5323611,87.305478 C11.3148727,87.37814 11.0814583,87.4124803 10.8540162,87.4722025 C10.6056713,87.5364039 10.3329398,87.5184873 10.0771296,87.5772141 C9.97709491,87.582191 9.87706019,87.5876655 9.77503472,87.5921447 C9.66405093,87.6165313 9.51872685,87.5811956 9.39928241,87.6075729 C9.29924769,87.6284757 9.10614583,87.6284757 9.0066088,87.6075729 L8.77319444,87.6075729 C8.73337963,87.5986146 8.66420139,87.610559 8.61493056,87.59961 C8.38400463,87.5797025 8.15258102,87.5592975 7.92165509,87.53939 C7.81465278,87.5150035 7.69520833,87.5219711 7.5822338,87.4950961 C7.26670139,87.4179549 6.9437037,87.3995405 6.63912037,87.313441 C6.4062037,87.2482442 6.16034722,87.1845405 5.93788194,87.1098877 C5.83336806,87.0745521 5.73731481,87.0606169 5.63728009,87.0198067 C5.27944444,86.8724919 4.92658565,86.73314 4.58168981,86.5818438 C4.48862269,86.5415312 4.38809028,86.4833021 4.30298611,86.4315428 C4.2362963,86.3897373 4.16462963,86.3733137 4.09893519,86.3334988 C3.89438657,86.2090775 3.68386574,86.0921215 3.48081019,85.9642164 C3.24540509,85.8139155 3.01696759,85.647191 2.74274306,85.5337187 C2.65962963,85.5008715 2.56407407,85.4944016 2.47050926,85.4734988 C2.38789352,85.4550845 2.27989583,85.4809641 2.22216435,85.4973877 C2.00467593,85.5576076 1.85636574,85.6397257 1.7165162,85.7760914 C1.42885417,86.0552928 1.15413194,86.35689 0.909768519,86.6798877 C0.850543981,86.7595174 0.7659375,86.8262072 0.707210648,86.9063345 C0.553923611,87.1088924 0.388194444,87.2965197 0.25431713,87.5164965 C0.0965509259,87.7747951 0.0646990741,88.165478 0.231921296,88.4367164 C0.371273148,88.6626655 0.577314815,88.8308831 0.789328704,88.9866586 C0.879907407,89.0538461 0.968993056,89.132978 1.06056713,89.1981748 C1.2596412,89.3370289 1.46369213,89.4579664 1.67222222,89.589853 C2.14751157,89.8899572 2.65962963,90.1830938 3.19414352,90.4194942 C3.50121528,90.5543669 3.81525463,90.674309 4.12929398,90.8027118 C4.5015625,90.9574919 4.90618056,91.0455822 5.29835648,91.1734873 C5.37997685,91.20086 5.45612269,91.20086 5.53923611,91.2267396 C5.92394676,91.3431979 6.3559375,91.3815197 6.76752315,91.4815544 C6.91185185,91.5188808 7.04971065,91.5009641 7.19752315,91.5348067 C7.2965625,91.5586956 7.41998843,91.5572025 7.5215162,91.5810914 C7.57178241,91.5830822 7.6225463,91.5845752 7.67231481,91.5875613 C7.78329861,91.6119479 7.91269676,91.5900498 8.03413194,91.6179201 C8.10430556,91.6338461 8.18940972,91.6159294 8.26854167,91.6338461 C8.45517361,91.6746563 8.6771412,91.6487766 8.88666667,91.6557442 C9.03895833,91.6612188 9.23056713,91.6572373 9.38435185,91.6557442 L9.65608796,91.6557442 C9.83674769,91.614934 10.041794,91.6666933 10.2289236,91.6253854 C10.3687731,91.5950266 10.5260417,91.6209063 10.6733565,91.5875613 C10.9550463,91.5238576 11.2641088,91.5333137 11.5323611,91.4661262 C11.5771528,91.461647 11.6229398,91.4571678 11.6687269,91.4526887 C11.8055903,91.4168553 11.9563889,91.4088924 12.0982292,91.3690775 C12.3794213,91.290941 12.6765394,91.2317164 12.9418056,91.1426308 C13.0488079,91.1077928 13.1493403,91.094853 13.2513657,91.0525498 C13.5803356,90.9176771 13.9147801,90.8027118 14.2163773,90.6454433 C14.2815741,90.6106053 14.3497569,90.593684 14.4124653,90.5543669 C14.6334375,90.4194942 14.8668519,90.3015428 15.0758796,90.1557211 C15.2027894,90.0666354 15.3217361,89.9596331 15.445162,89.8685567 C15.5312616,89.804853 15.6089005,89.7371678 15.6935069,89.6734641 C15.7134144,89.6500729 15.7338194,89.6276771 15.7537269,89.6052813 C15.8418171,89.5380938 15.928912,89.4594595 15.9951042,89.3713692 C16.0408912,89.3280706 16.0861806,89.286265 16.1314699,89.2424688 C16.1931829,89.1608484 16.2743056,89.0916701 16.3350231,89.0095521 C16.4962731,88.793059 16.6639931,88.578059 16.8103125,88.3466354 C17.0492014,87.9664039 17.2248843,87.5418785 17.4050463,87.1019248 C17.4851736,86.9088229 17.5279745,86.6997951 17.593669,86.499228 C17.6912153,86.2006169 17.7126157,85.8736377 17.7897569,85.5576076 C17.8176273,85.4451308 17.810162,85.3306632 17.8350463,85.2251539 C17.8504745,85.0614155 17.8654051,84.8981748 17.8803356,84.7344363 L17.8803356,84.6149919 C17.9171644,84.4437882 17.8952662,84.2193322 17.8952662,84.026728 C17.8952662,83.6027002 17.8634144,83.13189 17.7748264,82.782515" id="Fill-22" fill="#222222"></path>
                <path d="M69.9364641,66.1601285 C69.8060706,66.0620845 69.6488021,66.0167951 69.4611748,65.9705104 C69.3964757,65.9545845 69.3258044,65.9620498 69.2645891,65.9481146 C69.1242419,65.9451285 68.9838947,65.9431377 68.8430498,65.941147 C68.7803414,65.9267141 68.6842882,65.933184 68.6091377,65.933184 L68.1801331,65.933184 C67.5739525,65.933184 66.9742419,65.9267141 66.6049595,66.1601285 C66.2929109,66.3562164 66.1261863,66.685684 65.955978,67.0265984 C65.7379919,67.4630683 65.5299595,67.9139711 65.3303877,68.3683576 C65.1542072,68.7679988 64.9416956,69.1666447 64.764022,69.5667836 C64.2658391,70.699515 63.7178877,71.7959155 63.2192072,72.93014 C63.1037442,73.1934155 62.9584201,73.4576863 62.8424595,73.7194688 C62.659809,74.1340405 62.4562558,74.5351748 62.2765914,74.9422813 C62.1481887,75.2349201 62.022772,75.5310428 61.8620197,75.7938206 C61.7604919,75.9605451 61.6843461,76.1028831 61.5225984,76.2078947 C61.475816,76.2392488 61.387228,76.2964826 61.2961516,76.2760775 C60.947772,76.2004294 60.8173785,75.850059 60.6715567,75.5668762 C60.5332002,75.3021076 60.4097743,75.0258924 60.2858507,74.7461933 C60.1081771,74.3385891 59.9031308,73.9374549 59.720978,73.5243762 C59.5587326,73.1575822 59.3631424,72.7907882 59.200897,72.4239942 C58.7022164,71.2912627 58.1537674,70.1933692 57.6550868,69.0606377 C57.5396238,68.7983576 57.3947975,68.5335891 57.2783391,68.2703137 C57.0946933,67.8537512 56.9040799,67.4416678 56.7060012,67.0410313 C56.5243461,66.676228 56.3511516,66.3432766 56.012228,66.1362396 C55.5628183,65.8630104 54.5400752,65.9282072 53.8109664,65.933184 C53.7572164,65.9665289 53.4745312,65.9287049 53.3884317,65.9481146 C53.3122859,65.9645382 53.2261863,65.9580683 53.1470544,65.9784734 C52.9151331,66.0367025 52.7075984,66.1163322 52.5966146,66.2950012 C52.374647,66.6513438 52.6498669,67.2221887 52.785735,67.4944225 C52.9459896,67.8159271 53.1092303,68.1468877 53.2754572,68.4659039 C53.323235,68.5594688 53.3550868,68.6530336 53.40386,68.7451053 C53.5063831,68.9421887 53.6228414,69.1452442 53.7119271,69.3478021 C53.8239062,69.6011238 53.9498206,69.8405104 54.0747396,70.079897 C54.1459086,70.2177558 54.1991609,70.3561123 54.2703299,70.4944688 C54.4863252,70.9080451 54.7058044,71.3280914 54.8969155,71.7610775 C55.0103877,72.0208692 55.1741262,72.2692141 55.2885937,72.5300012 C55.3866377,72.7514711 55.4951331,72.9604988 55.6051215,73.170522 C55.6528993,73.2625938 55.6852488,73.3576516 55.7330266,73.4492257 C55.9898322,73.9424317 56.2536053,74.4436007 56.4795544,74.9572118 C56.594022,75.2170035 56.756765,75.4658461 56.8717303,75.7261354 C56.9832118,75.9789595 57.1091262,76.2178484 57.2340451,76.4567373 C57.3106887,76.6060428 57.3674248,76.754353 57.4435706,76.9026632 C57.6550868,77.3062859 57.8690914,77.7173738 58.0552257,78.1384155 C58.1746701,78.4106493 58.3319387,78.6659618 58.4543692,78.9451632 C58.5394734,79.1377674 58.6509549,79.3318646 58.7485012,79.5179988 C58.9520544,79.9091794 59.1287326,80.3028484 59.2984433,80.7243877 C59.3865336,80.9403831 59.3865336,81.1882303 59.4417766,81.4405567 L59.4417766,81.5535313 C59.4766146,81.7157766 59.4567072,81.9277905 59.4567072,82.1114363 L59.4567072,83.4079063 L59.4567072,88.7978368 L59.4567072,89.5438669 C59.4567072,89.6662975 59.4407813,89.8210775 59.4641725,89.9290752 C59.4671586,90.0773854 59.4706424,90.2251979 59.4726331,90.3745035 C59.4890567,90.4501516 59.4825868,90.5362512 59.5024942,90.6148854 C59.550272,90.8045035 59.6065104,90.963265 59.7060475,91.0981377 C60.0195891,91.5186817 60.8114063,91.4599549 61.5454919,91.4599549 C61.9142766,91.4599549 62.2960012,91.4694109 62.5632581,91.3619109 C62.8106076,91.2608808 62.9818113,91.096147 63.0838368,90.8482998 C63.1465451,90.6935197 63.1410706,90.5078831 63.1818808,90.3217488 L63.1818808,90.1246655 C63.2112442,89.9878021 63.1883507,89.7942025 63.1883507,89.6429063 L63.1883507,88.6858576 L63.1883507,83.7697234 L63.1883507,82.2249086 C63.1883507,82.102478 63.1729225,81.949191 63.1963137,81.8401979 C63.2122396,81.7700243 63.1903414,81.6749664 63.2047743,81.6142488 C63.2072627,81.5410891 63.2087558,81.4689248 63.2112442,81.3947697 C63.2654919,81.1528947 63.2704688,80.9164942 63.3550752,80.7089595 C63.4715336,80.4252789 63.5964525,80.1620035 63.7168924,79.8877789 C63.8199132,79.6528715 63.9682234,79.4284155 64.0702488,79.1935081 C64.2026331,78.894897 64.3713484,78.6201748 64.5007465,78.3275359 C64.6077488,78.0851632 64.7281887,77.8557303 64.8476331,77.6262975 C64.986985,77.3575475 65.1104109,77.0828252 65.2467766,76.8190521 C65.4423669,76.4442951 65.6080961,76.0670498 65.7977141,75.6883113 C66.0813947,75.1199549 66.3909549,74.5565752 66.6497512,73.9693067 C66.7781539,73.6766678 66.9468692,73.4024433 67.0787558,73.1028368 C67.2051678,72.8166678 67.3828414,72.5434387 67.5087558,72.2592604 C67.6391493,71.9641331 67.8043808,71.6943877 67.9312905,71.4067257 C68.0363021,71.1683345 68.1532581,70.9458692 68.2707118,70.7204178 C68.4045891,70.4621192 68.5220428,70.196853 68.6549248,69.9440289 C68.8813715,69.5090521 69.0689988,69.0671076 69.2959433,68.6326285 C69.5338368,68.1752558 69.7806887,67.7064363 69.9892188,67.2296539 C70.129566,66.9071539 70.2510012,66.3925475 69.9364641,66.1601285" id="Fill-24" fill="#222222"></path>
                <path d="M9.15208218,2.07539699 C9.39843634,2.07539699 9.57859838,2.32175116 9.57859838,2.66316319 C9.57859838,3.00407755 9.39843634,3.25043171 9.15208218,3.25043171 L6.14755671,3.25043171 C6.59298495,4.68177431 7.57889931,5.83789699 9.22773032,6.8521794 C9.46462847,6.99401968 9.5880544,7.18363773 9.5880544,7.4299919 C9.5880544,7.81868403 9.2755081,8.16009606 8.92464005,8.16009606 C8.76339005,8.16009606 8.66882986,8.12177431 8.43193171,7.97993403 C7.07673495,7.13635764 6.00571644,5.91354514 5.50355208,4.64395023 C5.20942014,5.59154282 4.7639919,6.32114931 4.04384144,7.02238773 C3.36151505,7.68580208 2.35668866,8.31139236 1.94908449,8.31139236 C1.59871412,8.31139236 1.31403819,7.98939005 1.31403819,7.5912419 C1.31403819,7.41107986 1.39018403,7.24982986 1.54148032,7.14581366 C1.5892581,7.10798958 1.5892581,7.10798958 1.84506829,6.97510764 C3.53172338,6.04642708 4.46090162,4.83356829 4.68834375,3.25043171 L1.7405544,3.25043171 C1.48474421,3.25043171 1.31403819,3.01353356 1.31403819,2.66316319 C1.31403819,2.32175116 1.49420023,2.07539699 1.7405544,2.07539699 L4.7639919,2.07539699 L4.7639919,0.521126157 C4.7639919,0.21803588 5.0292581,4.97685185e-05 5.40849421,4.97685185e-05 C5.78773032,4.97685185e-05 6.05299653,0.21803588 6.05299653,0.521126157 L6.05299653,2.07539699 L9.15208218,2.07539699 Z" id="Fill-26" fill="#231815"></path>
                <path d="M13.8803403,4.25520833 C13.8803403,4.34976852 13.9181644,4.38809028 14.0226782,4.3975463 L17.6901204,4.3975463 C17.7851782,4.3975463 17.8230023,4.34976852 17.8324583,4.25520833 L17.8324583,3.37380787 C17.8324583,3.27924769 17.7851782,3.24092593 17.6901204,3.23146991 L14.0226782,3.23146991 C13.9276204,3.23146991 13.8803403,3.27924769 13.8803403,3.37380787 L13.8803403,4.25520833 Z M12.6863935,3.09908565 C12.6863935,2.53023148 12.9705718,2.24605324 13.5394259,2.24605324 L18.1927824,2.24605324 C18.7611389,2.24605324 19.0453171,2.53023148 19.0453171,3.09908565 L19.0453171,4.51101852 C19.0453171,5.07987269 18.7611389,5.36405093 18.1927824,5.36405093 L13.5394259,5.36405093 C12.9705718,5.36405093 12.6863935,5.07987269 12.6863935,4.51101852 L12.6863935,3.09908565 Z M19.2916713,0.426516204 C19.5858032,0.426516204 19.7754213,0.644502315 19.7754213,0.975960648 C19.7754213,1.30791667 19.5858032,1.52590278 19.2916713,1.52590278 L12.4494954,1.52590278 C12.1553634,1.52590278 11.9562894,1.30791667 11.9562894,0.975960648 C11.9562894,0.644502315 12.1459074,0.426516204 12.4494954,0.426516204 L19.2916713,0.426516204 Z M19.5668912,7.06065972 C19.8416134,7.06065972 20.0406875,7.29755787 20.0406875,7.61010417 C20.0406875,7.92314815 19.8416134,8.15059028 19.5668912,8.15059028 L12.1742755,8.15059028 C11.8995532,8.15059028 11.7004792,7.92314815 11.7004792,7.61010417 C11.7004792,7.28810185 11.8995532,7.06065972 12.1742755,7.06065972 L13.9181644,7.06065972 C13.7569144,6.66251157 13.6812662,6.4634375 13.596162,6.27381944 C13.5200162,6.10311343 13.5011042,6.0369213 13.5011042,5.96127315 C13.5011042,5.6671412 13.8519722,5.41133102 14.2501204,5.41133102 C14.4491944,5.41133102 14.5910347,5.49693287 14.6860926,5.65768519 C14.8468449,5.95181713 15.0270069,6.41615741 15.1315208,6.82376157 L15.1409769,6.86158565 C15.1504329,6.91832176 15.1504329,6.95614583 15.1504329,6.97505787 C15.1504329,6.99396991 15.1504329,7.02283565 15.1409769,7.06065972 L16.3822037,7.06065972 C16.5718218,6.6246875 16.6763356,6.34001157 16.8754097,5.76219907 C16.9510579,5.52530093 17.1123079,5.43024306 17.4153981,5.43024306 C17.8324583,5.43024306 18.1450046,5.65768519 18.1450046,5.96127315 C18.1450046,6.11256944 17.9937083,6.47289352 17.6901204,7.06065972 L19.5668912,7.06065972 Z" id="Fill-28" fill="#231815"></path>
                <path d="M30.0478426,2.79569676 C30.1807245,2.99477083 30.2469167,3.1371088 30.2469167,3.25058102 C30.2469167,3.42128704 30.0667546,3.58253704 29.8865926,3.58253704 C29.7636644,3.58253704 29.6780625,3.52530324 29.6024144,3.41183102 C29.4789884,3.19384491 29.2898681,2.9285787 29.1664421,2.78624074 C29.090794,2.70113657 29.0718819,2.6533588 29.0718819,2.55879861 C29.0718819,2.37863657 29.2326343,2.22684259 29.4317083,2.22684259 C29.5929583,2.22684259 29.7731204,2.39754861 30.0478426,2.79569676 M28.920088,3.08933102 C29.1664421,3.402375 29.2993241,3.6676412 29.2993241,3.80997917 C29.2993241,3.97073148 29.119162,4.1414375 28.939,4.1414375 C28.8250301,4.1414375 28.7210139,4.08470139 28.6548218,3.9801875 C28.6453657,3.96127546 28.6453657,3.96127546 28.5030278,3.73383333 C28.4084676,3.56312731 28.2944977,3.402375 28.1999375,3.29786111 C28.1521597,3.241125 28.1332477,3.18438889 28.1332477,3.11769907 C28.1332477,2.93803472 28.3039537,2.7673287 28.4841157,2.7673287 C28.625956,2.7673287 28.7399259,2.85243287 28.920088,3.08933102 M22.8353889,2.72950463 C22.4850185,2.72950463 22.2764884,2.48315046 22.2764884,2.08500231 C22.2764884,1.83864815 22.3899606,1.65848611 22.5795787,1.58234028 C22.6840926,1.5445162 22.6840926,1.5445162 23.195713,1.51614815 C24.6643819,1.43104398 26.8536991,1.19414583 28.4368356,0.947791667 C28.5124838,0.92887963 28.5503079,0.92887963 28.597588,0.92887963 C28.9011759,0.92887963 29.109706,1.15632176 29.109706,1.49723611 C29.109706,1.83864815 28.939,2.0183125 28.5786759,2.0755463 C28.1805278,2.14173843 27.6783634,2.33135648 27.0338611,2.68172685 C26.1713727,3.14656481 25.6502963,3.9801875 25.6502963,4.8805 C25.6502963,5.7907662 26.3042546,6.42531481 27.5076574,6.68162269 C27.8868935,6.75727083 28.0765116,6.96580093 28.0765116,7.3161713 C28.0765116,7.68595139 27.8490694,7.92284954 27.5076574,7.92284954 C26.9298449,7.92284954 26.1997407,7.62921528 25.6124722,7.164875 C24.9017778,6.60547685 24.5130856,5.8380463 24.5130856,4.95664583 C24.5130856,3.9801875 25.005794,2.99477083 25.7737222,2.4448287 C25.8399144,2.39754861 25.8399144,2.39754861 25.9917083,2.30298843 C25.1197639,2.47369444 23.224081,2.72950463 22.8353889,2.72950463" id="Fill-30" fill="#231815"></path>
                <path d="M38.9174387,2.44502778 C39.391235,2.89991204 39.599765,3.43044444 39.599765,4.16054861 C39.599765,5.1554213 39.0503206,5.97062963 38.0171262,6.52007407 C37.3631678,6.86148611 36.5857836,7.10784028 35.676015,7.25963426 C35.3729248,7.30691435 35.0887465,7.34473843 34.9842326,7.34473843 C34.5955405,7.34473843 34.3491863,7.07947222 34.3491863,6.66241204 C34.3491863,6.41605787 34.5009803,6.2169838 34.7567905,6.13187963 C34.8518484,6.10351157 34.8518484,6.10351157 35.1265706,6.08410185 C35.998515,5.99899769 36.8799155,5.75264352 37.3915359,5.44009722 C37.9887581,5.07031713 38.2729363,4.64380093 38.2729363,4.1038125 C38.2729363,3.22241204 37.8085961,2.84317593 36.7375775,2.84317593 C35.960691,2.84317593 34.5766285,3.08007407 32.8327396,3.50659028 C32.7381794,3.52550231 32.6719873,3.53495833 32.5958414,3.53495833 C32.2643831,3.53495833 32.036941,3.26023611 32.036941,2.85263194 C32.036941,2.55899769 32.1882373,2.37883565 32.5012812,2.2932338 C33.6479479,1.99014352 35.5341748,1.73433333 36.6430174,1.73433333 C37.7424039,1.73433333 38.3869062,1.93340741 38.9174387,2.44502778" id="Fill-32" fill="#231815"></path>
                <path d="M46.5934363,0.909668981 C46.5934363,1.11819907 46.5934363,1.11819907 45.939478,1.97123148 C45.3233437,2.76703009 44.8211794,3.34534028 44.3662951,3.76240046 C44.2145012,3.90473843 44.1672211,3.97093056 44.1672211,4.0465787 C44.1672211,4.14163657 44.1672211,4.14163657 44.4797674,4.48255093 C45.787684,5.94226157 46.0340382,6.2169838 46.6690845,7.00382407 C46.8019664,7.16457639 46.8681586,7.32582639 46.8681586,7.48707639 C46.8681586,7.84690278 46.5367002,8.15994676 46.1385521,8.15994676 C45.9773021,8.15994676 45.8255081,8.09375463 45.7309479,7.98924074 C45.7025799,7.96087269 45.6458437,7.88522454 45.5224178,7.72397454 C44.4797674,6.34986574 43.7407049,5.46846528 43.1245706,4.83341898 C42.7836563,4.48255093 42.6980544,4.33125463 42.6980544,4.08440278 C42.6980544,3.87587269 42.7836563,3.69620833 42.9633206,3.48767824 C43.0205544,3.43044444 43.0205544,3.43044444 43.3141887,3.1462662 C43.968147,2.54904398 44.8400914,1.45911343 45.4467697,0.492608796 C45.5507859,0.312446759 45.6742118,0.24625463 45.8827419,0.24625463 C46.2709363,0.24625463 46.5934363,0.539888889 46.5934363,0.909668981" id="Fill-34" fill="#231815"></path>
                <path d="M53.2458449,6.88044792 C53.2458449,6.52012384 52.9522106,6.25485764 52.5540625,6.25485764 C52.3171644,6.25485764 52.1653704,6.38773958 52.1653704,6.58681366 C52.1653704,6.91827199 52.5918866,7.15517014 53.1796528,7.15517014 C53.2269329,7.06060995 53.2458449,6.9750081 53.2458449,6.88044792 M51.321794,1.8856794 C50.9425579,1.8856794 50.7628935,1.69606134 50.7628935,1.28895486 C50.7628935,0.928630787 50.9331019,0.767380787 51.312338,0.767380787 C52.6107986,0.710644676 52.9711227,0.68227662 54.2979514,0.502114583 C54.3735995,0.483202546 54.4114236,0.483202546 54.4492477,0.483202546 C54.8095718,0.483202546 55.112662,0.786292824 55.112662,1.12770486 C55.112662,1.27949884 55.0464699,1.43079514 54.9329977,1.53530903 C54.9041319,1.56367708 54.8757639,1.59204514 54.7339236,1.70601505 C54.2601273,2.06584144 53.0940509,3.09903588 52.5162384,3.65793634 C53.0467708,3.43995023 53.473287,3.34539005 53.9849074,3.34539005 C55.4635301,3.34539005 56.5061806,4.25515856 56.5061806,5.54416319 C56.5061806,6.34991551 56.1458565,7.02278588 55.4729861,7.46821412 C54.8946759,7.85640856 54.0894213,8.07439468 53.2553009,8.07439468 C51.9662963,8.07439468 51.1704977,7.51549421 51.1704977,6.61518171 C51.1704977,5.92339931 51.7861343,5.41128125 52.6297106,5.41128125 C53.5300231,5.41128125 54.2218056,5.9706794 54.2218056,6.70028588 C54.2218056,6.79534375 54.2123495,6.85207986 54.1839815,6.96555208 C54.8852199,6.66246181 55.264456,6.16975347 55.264456,5.56307523 C55.264456,4.7478669 54.6861458,4.2740706 53.6818171,4.2740706 C52.5446065,4.2740706 51.5776042,4.72895486 50.7151157,5.65763542 C50.6016435,5.78106134 50.4782176,5.83779745 50.2985532,5.83779745 C49.9571412,5.83779745 49.710787,5.59144329 49.710787,5.25052894 C49.710787,5.03254282 49.7580671,4.95639699 50.1373032,4.57765856 C51.501956,3.2125081 52.1180903,2.62523958 53.1891088,1.65823727 C52.6297106,1.78166319 51.7766782,1.8856794 51.321794,1.8856794" id="Fill-36" fill="#231815"></path>
                <path d="M8.58367593,13.3617523 C8.83003009,13.6553866 8.97236806,13.9017407 8.97236806,14.0346227 C8.97236806,14.2147847 8.79220602,14.3854907 8.61204398,14.3854907 C8.47916204,14.3854907 8.40351389,14.3282569 8.29949769,14.1675046 C8.15715972,13.9306065 8.02427778,13.7409884 7.8824375,13.5891944 C7.80629167,13.5040903 7.78737963,13.4657685 7.78737963,13.3712083 C7.78737963,13.2005023 7.95808565,13.03975 8.1477037,13.03975 C8.28058565,13.03975 8.38460185,13.1153981 8.58367593,13.3617523 M7.7211875,13.9967986 C7.92971759,14.2809769 8.03423148,14.4895069 8.03423148,14.6129329 C8.03423148,14.7831412 7.85406944,14.9443912 7.65499537,14.9443912 C7.50320139,14.9443912 7.42755324,14.8971111 7.33249537,14.7264051 C7.16228704,14.4327708 7.0861412,14.3188009 6.95375694,14.1485926 C6.87761111,14.0440787 6.85869907,14.0062546 6.85869907,13.9211505 C6.85869907,13.7409884 7.02940509,13.5797384 7.21902315,13.5797384 C7.37031944,13.5797384 7.49374537,13.6837546 7.7211875,13.9967986 M2.59403472,15.1150972 C2.4706088,15.0299931 2.39496065,14.8687431 2.39496065,14.688581 C2.39496065,14.2620648 2.60349074,14.1008148 3.1623912,14.1008148 C4.40411574,14.1008148 5.84491435,14.2242407 6.24256481,14.3665787 C6.56506481,14.4800509 6.69744907,14.679125 6.69744907,15.020537 C6.69744907,15.2952593 6.56506481,15.4659653 6.10072454,15.8352477 C5.50350231,16.2901319 5.15313194,16.489206 4.91573611,16.489206 C4.65046991,16.489206 4.45139583,16.299588 4.45139583,16.0532338 C4.45139583,15.9113935 4.51808565,15.8163356 4.66938194,15.7217755 C4.99188194,15.5227014 5.1815,15.3898194 5.1815,15.3425394 C5.1815,15.2668912 4.47030787,15.2096574 3.47543519,15.2096574 C2.72691667,15.2096574 2.72691667,15.2096574 2.59403472,15.1150972 M7.49374537,19.9391597 C7.49374537,20.232794 7.32303935,20.4507801 7.03886111,20.5169722 C6.63125694,20.6214861 5.83545833,20.6971343 5.13372222,20.6971343 C3.81634954,20.6971343 3.00163889,20.555294 2.48006481,20.2138819 C1.94953241,19.8824236 1.69372222,19.4369954 1.69372222,18.8492292 C1.69372222,18.1858148 1.95898843,17.7592986 2.38550463,17.7592986 C2.71696296,17.7592986 2.96331713,17.9772847 2.96331713,18.261463 C2.96331713,18.3376088 2.95386111,18.3754329 2.91603704,18.4889051 C2.88766898,18.5650509 2.86875694,18.6596111 2.86875694,18.7447153 C2.86875694,19.0388472 3.02055093,19.2190093 3.3236412,19.3230255 C3.67450926,19.4369954 4.2712338,19.5031875 4.88736806,19.5031875 C5.4467662,19.5031875 6.0245787,19.4464514 6.60288889,19.3513935 C6.76413889,19.3230255 6.81141898,19.3135694 6.88706713,19.3135694 C7.2473912,19.3135694 7.49374537,19.5599236 7.49374537,19.9391597" id="Fill-38" fill="#231815"></path>
                <path d="M13.956088,14.6317454 C14.3258681,14.6128333 14.9420023,14.5177755 15.3396528,14.4421273 C15.4252546,14.4232153 15.4819907,14.4137593 15.5292708,14.4137593 C15.8234028,14.4137593 16.0319329,14.6412014 16.0319329,14.9637014 C16.0319329,15.2478796 15.8801389,15.4185856 15.5860069,15.4847778 C15.1505324,15.588794 14.3542361,15.6838519 13.6624537,15.7216759 C13.3877315,16.7926944 13.2643056,17.2002986 13.0935995,17.6362708 C13.7286458,17.2381227 14.4866204,17.0295926 15.3396528,17.0295926 C16.7615394,17.0295926 17.6240278,17.6930069 17.6240278,18.7923935 C17.6240278,19.5598241 17.2542477,20.1286782 16.4674074,20.5551944 C15.8039931,20.9150208 14.6384144,21.2280648 13.965544,21.2280648 C13.6435417,21.2280648 13.4255556,20.9722546 13.4255556,20.5930185 C13.4255556,20.2899282 13.5863079,20.1665023 14.1078819,20.0908542 C15.5481829,19.8728681 16.3539352,19.3990718 16.3539352,18.7734815 C16.3539352,18.2329954 15.936875,17.9393611 15.1978125,17.9393611 C14.4298843,17.9393611 13.3399537,18.3564213 12.8094213,18.8585856 C12.6292593,19.0292917 12.4680093,19.1049398 12.2783912,19.1049398 C11.8901968,19.1049398 11.5866088,18.8113056 11.5866088,18.4226134 C11.5866088,18.2996852 11.5960648,18.2807731 11.6911227,18.0244653 C12.003669,17.1908426 12.2878472,16.3188981 12.4301852,15.740588 C12.003669,15.740588 11.6816667,15.7311319 11.5298727,15.7027639 C11.2267824,15.6554838 11.0655324,15.4658657 11.0655324,15.1622778 C11.0655324,14.8213634 11.2646065,14.6033773 11.5676968,14.6033773 C11.5960648,14.6033773 11.6149769,14.6033773 11.7100347,14.6128333 C11.8901968,14.6412014 12.4301852,14.6695694 12.6859954,14.6695694 C12.7715972,14.2903333 12.8472454,13.9021389 12.8661574,13.7503449 C12.9134375,13.4089329 13.1030556,13.2481806 13.4633796,13.2481806 C13.8615278,13.2481806 14.117338,13.4661667 14.117338,13.788169 C14.117338,13.8832269 14.0984259,14.0061551 13.975,14.5560972 L13.956088,14.6317454 Z" id="Fill-40" fill="#231815"></path>
                <path d="M23.2051192,16.3755845 C24.1999919,16.2521586 26.4370868,16.0436285 26.7969132,16.0436285 C27.1194132,16.0436285 27.3279433,16.2616146 27.3279433,16.6219387 C27.3279433,16.8872049 27.2045174,17.0768229 26.9770752,17.143015 C26.9014271,17.1624248 26.9014271,17.1624248 26.4465428,17.1624248 C25.6313345,17.1624248 24.892272,17.285353 24.4752118,17.5033391 C23.9252697,17.7780613 23.6032674,18.2807234 23.6032674,18.8774479 C23.6032674,19.5314063 24.1810799,19.9484664 25.2331863,20.0624363 C25.6029664,20.1002604 25.8209525,20.3277025 25.8209525,20.6785706 C25.8209525,21.038397 25.5651424,21.2752951 25.1859062,21.2752951 C24.6459178,21.2752951 23.8779896,21.028941 23.3285451,20.6785706 C22.7218669,20.2898785 22.3899109,19.7304803 22.3899109,19.076522 C22.3899109,18.3374595 22.769147,17.7307813 23.4609294,17.3515451 C22.0395405,17.5600752 21.5085104,17.6456771 20.62711,17.7969734 C20.5420058,17.8163831 20.5041817,17.8163831 20.4569016,17.8163831 C20.1722257,17.8163831 19.9542396,17.5411632 19.9542396,17.1907928 C19.9542396,16.9538947 20.0776655,16.7642766 20.2861956,16.6975868 C20.3429317,16.6786748 20.3902118,16.6692188 20.5041817,16.6692188 C20.6843437,16.6597627 21.0914502,16.6219387 21.4990544,16.5746586 C23.2051192,15.2572859 23.8307095,14.7551215 23.8401655,14.7073437 C23.8401655,14.6978877 23.8212535,14.6789757 23.8117975,14.6789757 C23.8023414,14.6789757 23.7928854,14.6789757 23.7739734,14.6884317 C23.1294711,14.8213137 23.110559,14.8307697 22.3993669,14.8969618 C22.1624687,14.9158738 22.0017164,14.9253299 21.9350266,14.9347859 C21.8688345,14.9447396 21.8215544,14.9541956 21.7931863,14.9541956 C21.5274225,14.9541956 21.3094363,14.7073437 21.3094363,14.4137095 C21.3094363,14.1578993 21.4517743,13.9399132 21.6603044,13.8737211 C21.7359525,13.845353 21.7737766,13.845353 22.0489965,13.8353993 C23.3285451,13.7692072 24.2950498,13.684103 24.911184,13.5795891 C24.9773762,13.5701331 25.0246562,13.5606771 25.0530243,13.5606771 C25.2426424,13.5606771 25.4984525,13.684103 25.5935104,13.8259433 C25.6407905,13.8926331 25.7164387,14.1106192 25.7164387,14.1862674 C25.7164387,14.2813252 25.6218785,14.4988137 25.5462303,14.5749595 C25.5079086,14.6127836 25.4889965,14.6127836 25.3187882,14.7362095 C24.882816,15.0487558 24.731022,15.1721817 23.6694595,16.0058044 L23.3663692,16.2427025 L23.2051192,16.3755845 Z" id="Fill-42" fill="#231815"></path>
                <path d="M32.1323472,13.2290694 C32.4926713,13.3903194 33.1939097,13.5704815 33.667706,13.6177616 C33.9991644,13.6461296 34.1698704,13.8262917 34.1698704,14.148294 C34.1698704,14.489706 33.9518843,14.7171481 33.6204259,14.7171481 C33.2411898,14.7171481 32.2363634,14.48025 31.857625,14.309544 C31.554037,14.167206 31.3838287,13.9492199 31.3838287,13.7123218 C31.3838287,13.4186875 31.6112708,13.1439653 31.857625,13.1439653 C31.9427292,13.1439653 31.9710972,13.1534213 32.1323472,13.2290694 M34.8427407,17.6738958 C34.8427407,18.8300185 34.4923704,19.5884907 33.6015139,20.4131551 C33.0326597,20.9436875 32.3030532,21.3607477 31.9616412,21.3607477 C31.6680069,21.3607477 31.3838287,21.0571597 31.3838287,20.7540694 C31.3838287,20.5928194 31.4594769,20.4226111 31.5923588,20.3086412 C31.6585509,20.2519051 31.677463,20.2424491 31.876537,20.1473912 C33.0042917,19.6263148 33.6204259,18.7543704 33.6204259,17.6738958 C33.6204259,16.8492315 33.326294,16.5177731 32.5966875,16.5177731 C32.2557731,16.5177731 31.9143611,16.5839653 31.4783889,16.7452153 C30.9667685,16.9253773 30.6726366,17.0010255 30.4641065,17.0010255 C30.0948241,17.0010255 29.8579259,16.7735833 29.8579259,16.432669 C29.8579259,16.110169 30.0375903,15.9205509 30.3979144,15.8543588 C30.6064444,15.8165347 30.6442685,15.8070787 31.3932847,15.6269167 C31.9710972,15.4845787 32.3219653,15.4372986 32.7012014,15.4372986 C34.1982384,15.4372986 34.8427407,16.110169 34.8427407,17.6738958" id="Fill-44" fill="#231815"></path>
            </g>
        </g>
    </g>
</svg>