<?xml version="1.0" encoding="UTF-8"?>
<svg width="32px" height="32px" viewBox="0 0 32 32" version="1.1" xmlns="http://www.w3.org/2000/svg" xmlns:xlink="http://www.w3.org/1999/xlink">
    <!-- Generator: Sketch 54.1 (76490) - https://sketchapp.com -->
    <title>ico-facebook</title>
    <desc>Created with Sketch.</desc>
    <g id="Symbols" stroke="none" stroke-width="1" fill="none" fill-rule="evenodd">
        <g id="contents/footer" transform="translate(-503.000000, -195.000000)" fill="#C9A063">
            <g id="facebook%N" transform="translate(503.000000, 195.000000)">
                <path d="M20.155,10.656 L18.649,10.657 C17.468,10.657 17.239,11.218 17.239,12.041 L17.239,13.857 L20.056,13.857 L19.689,16.702 L17.239,16.702 L17.239,24 L14.302,24 L14.302,16.702 L11.846,16.702 L11.846,13.857 L14.302,13.857 L14.302,11.76 C14.302,9.325 15.789,8 17.96,8 C19,8 19.894,8.077 20.155,8.112 L20.155,10.656 Z M16,0 C7.164,0 0,7.163 0,16 C0,24.836 7.164,32 16,32 C24.837,32 32,24.836 32,16 C32,7.163 24.837,0 16,0 L16,0 Z" id="Fill-183"></path>
            </g>
        </g>
    </g>
</svg>