<?xml version="1.0" encoding="UTF-8"?>
<svg width="29px" height="29px" viewBox="0 0 29 29" version="1.1" xmlns="http://www.w3.org/2000/svg" xmlns:xlink="http://www.w3.org/1999/xlink">
    <title>ico-instagram</title>
    <g id="Symbols" stroke="none" stroke-width="1" fill="none" fill-rule="evenodd">
        <g id="Group-18">
            <path d="M14.5,0 C6.49146875,0 0,6.49146875 0,14.5 C0,22.507625 6.49146875,29 14.5,29 C22.5085312,29 29,22.507625 29,14.5 C29,6.49146875 22.5085312,0 14.5,0" id="Path" fill="#C9A063"></path>
            <g id="insta" transform="translate(7.000000, 7.000000)" fill="#FFFFFF" fill-rule="nonzero">
                <g id="Combined-Shape-2">
                    <path d="M10.4216336,0 C12.0136313,0 12.5909282,0.16576002 13.1729388,0.477022685 C13.7549493,0.788285351 14.2117146,1.24505066 14.5229773,1.82706124 L14.6042444,1.98644043 C14.8630082,2.52242085 15,3.13109575 15,4.57836643 L15,10.4216336 L14.9959055,10.8314228 C14.9686593,12.1186333 14.8059434,12.6438382 14.5229773,13.1729388 C14.2117146,13.7549493 13.7549493,14.2117146 13.1729388,14.5229773 L13.0135596,14.6042444 C12.4775792,14.8630082 11.8689043,15 10.4216336,15 L4.57836643,15 L4.1685772,14.9959055 C2.88136666,14.9686593 2.35616177,14.8059434 1.82706124,14.5229773 C1.24505066,14.2117146 0.788285351,13.7549493 0.477022685,13.1729388 L0.395755591,13.0135596 C0.149929944,12.5043782 0.0140036054,11.92959 0.00102553568,10.6325304 L0,4.57836643 C0,2.98636868 0.16576002,2.40907183 0.477022685,1.82706124 C0.788285351,1.24505066 1.24505066,0.788285351 1.82706124,0.477022685 L1.98644043,0.395755591 C2.49562183,0.149929944 3.07040999,0.0140036054 4.36746956,0.00102553568 L10.4216336,0 Z M4.57836643,1.42857143 L4.21441022,1.43131793 C3.25495716,1.44710422 2.88209618,1.53282244 2.5007739,1.73675583 C2.16771828,1.91487592 1.91487592,2.16771828 1.73675583,2.5007739 C1.52082636,2.9045269 1.43742878,3.29879387 1.42924823,4.38993578 L1.42857143,10.4216336 C1.42857143,11.657428 1.50883027,12.0730424 1.73675583,12.4992261 C1.91487592,12.8322817 2.16771828,13.0851241 2.5007739,13.2632442 C2.88209618,13.4671776 3.25495716,13.5528958 4.21441022,13.5686821 L4.57836643,13.5714286 L10.4216336,13.5714286 C11.657428,13.5714286 12.0730424,13.4911697 12.4992261,13.2632442 C12.8322817,13.0851241 13.0851241,12.8322817 13.2632442,12.4992261 C13.4671776,12.1179038 13.5528958,11.7450428 13.5686821,10.7855898 L13.5714286,10.4216336 L13.5714286,4.57836643 C13.5714286,3.34257204 13.4911697,2.92695763 13.2632442,2.5007739 C13.0851241,2.16771828 12.8322817,1.91487592 12.4992261,1.73675583 C12.0954731,1.52082636 11.7012061,1.43742878 10.6100642,1.42924823 L4.57836643,1.42857143 Z M7.5,3.57142857 C9.66969009,3.57142857 11.4285714,5.33030991 11.4285714,7.5 C11.4285714,9.66969009 9.66969009,11.4285714 7.5,11.4285714 C5.33030991,11.4285714 3.57142857,9.66969009 3.57142857,7.5 C3.57142857,5.33030991 5.33030991,3.57142857 7.5,3.57142857 Z M7.5,5 C6.11928813,5 5,6.11928813 5,7.5 C5,8.88071187 6.11928813,10 7.5,10 C8.88071187,10 10,8.88071187 10,7.5 C10,6.11928813 8.88071187,5 7.5,5 Z M11.4285714,2.85714286 C11.8230605,2.85714286 12.1428571,3.17693946 12.1428571,3.57142857 C12.1428571,3.96591768 11.8230605,4.28571429 11.4285714,4.28571429 C11.0340823,4.28571429 10.7142857,3.96591768 10.7142857,3.57142857 C10.7142857,3.17693946 11.0340823,2.85714286 11.4285714,2.85714286 Z" id="Combined-Shape"></path>
                </g>
            </g>
        </g>
    </g>
</svg>