<?xml version="1.0" encoding="UTF-8"?>
<svg width="229px" height="77px" viewBox="0 0 229 77" version="1.1" xmlns="http://www.w3.org/2000/svg" xmlns:xlink="http://www.w3.org/1999/xlink">
    <!-- Generator: Sketch 54.1 (76490) - https://sketchapp.com -->
    <title>logo</title>
    <desc>Created with Sketch.</desc>
    <defs>
        <polygon id="path-1" points="0.750534274 0.0598308817 47.342117 0.0598308817 47.342117 32.7692758 0.750534274 32.7692758"></polygon>
        <polygon id="path-3" points="0.126037185 0.0598308817 46.7176199 0.0598308817 46.7176199 32.7692758 0.126037185 32.7692758"></polygon>
        <polygon id="path-5" points="0.875198291 0.0598308817 27.1674379 0.0598308817 27.1674379 32.7690797 0.875198291 32.7690797"></polygon>
        <polygon id="path-7" points="0.175275058 0.0598308817 26.4704572 0.0598308817 26.4704572 34.2674019 0.175275058 34.2674019"></polygon>
    </defs>
    <g id="Symbols" stroke="none" stroke-width="1" fill="none" fill-rule="evenodd">
        <g id="contents/footer" transform="translate(-84.000000, -303.000000)">
            <g id="Group" transform="translate(84.000000, 303.000000)">
                <g id="Group-3" transform="translate(58.750885, 0.000000)">
                    <mask id="mask-2" fill="white">
                        <use xlink:href="#path-1"></use>
                    </mask>
                    <g id="Clip-2"></g>
                    <path d="M34.1979588,0.0594385481 C30.110823,0.0594385481 26.4611392,1.9318509 24.0473064,4.87042994 C21.6295503,1.9318509 17.9749624,0.0594385481 13.8917499,0.0594385481 C6.63357736,0.0594385481 0.750534274,5.96307916 0.750534274,13.2026158 L0.750534274,32.7692758 L6.7149866,32.7692758 L6.7149866,13.2026158 C6.7149866,9.25377765 9.93310337,6.03762255 13.8917499,6.03762255 C17.8435306,6.03762255 21.0596857,9.25377765 21.0596857,13.2026158 L21.0596857,32.7692758 L27.0319847,32.7692758 L27.0319847,13.2026158 C27.0319847,9.25377765 30.2481398,6.03762255 34.1979588,6.03762255 C38.1615095,6.03762255 41.3668755,9.25377765 41.3668755,13.2026158 L41.3668755,32.7692758 L47.342117,32.7692758 L47.342117,13.2026158 C47.342117,5.96307916 41.446323,0.0594385481 34.1979588,0.0594385481" id="Fill-1" fill="#C8A062" mask="url(#mask-2)"></path>
                </g>
                <g id="Group-6" transform="translate(148.987625, 0.000000)">
                    <mask id="mask-4" fill="white">
                        <use xlink:href="#path-3"></use>
                    </mask>
                    <g id="Clip-5"></g>
                    <path d="M33.5764042,0.0594385481 C29.4902493,0.0594385481 25.8307571,1.9318509 23.4208477,4.87042994 C21.0109382,1.9318509 17.3524269,0.0594385481 13.2623486,0.0594385481 C6.01692695,0.0594385481 0.126037185,5.96307916 0.126037185,13.2026158 L0.126037185,32.7692758 L6.09735535,32.7692758 L6.09735535,13.2026158 C6.09735535,9.25377765 9.30664461,6.03762255 13.2623486,6.03762255 C17.2111868,6.03762255 20.4361694,9.25377765 20.4361694,13.2026158 L20.4361694,32.7692758 L26.4074876,32.7692758 L26.4074876,13.2026158 C26.4074876,9.25377765 29.6207002,6.03762255 33.5764042,6.03762255 C37.5311274,6.03762255 40.7463017,9.25377765 40.7463017,13.2026158 L40.7463017,32.7692758 L46.7176199,32.7692758 L46.7176199,13.2026158 C46.7176199,5.96307916 40.8208451,0.0594385481 33.5764042,0.0594385481" id="Fill-4" fill="#C8A062" mask="url(#mask-4)"></path>
                </g>
                <g id="Group-9" transform="translate(113.677596, 0.000000)">
                    <mask id="mask-6" fill="white">
                        <use xlink:href="#path-5"></use>
                    </mask>
                    <g id="Clip-8"></g>
                    <path d="M6.85338229,16.8619118 L6.85338229,13.2034005 C6.85338229,9.25358148 10.0695374,6.03742638 14.0193564,6.03742638 C17.978003,6.03742638 21.1980814,9.25358148 21.1980814,13.2034005 L21.1980814,16.8619118 L6.85338229,16.8619118 Z M14.0193564,0.0592423812 C6.76903056,0.0592423812 0.875198291,5.96288299 0.875198291,13.2034005 L0.875198291,32.7690797 L6.85338229,32.7690797 L6.85338229,22.8351916 L21.1980814,22.8351916 L21.1980814,32.7690797 L27.1674379,32.7690797 L27.1674379,13.2034005 C27.1674379,5.96288299 21.2687014,0.0592423812 14.0193564,0.0592423812 L14.0193564,0.0592423812 Z" id="Fill-7" fill="#C8A062" mask="url(#mask-6)"></path>
                </g>
                <path d="M65.9079338,51.7600881 C65.9079338,49.7121065 68.4649684,48.4311371 71.5624425,48.4311371 C75.5750349,48.4311371 79.2247187,50.6625347 79.2247187,50.6625347 L82.5036472,45.9702243 C82.5036472,45.9702243 77.8446851,42.9217918 72.1548663,42.9217918 C65.2792191,42.9217918 60.0356799,46.5675522 60.0356799,51.9385999 C60.0356799,62.9288463 78.0771428,60.4620485 78.0771428,65.8409428 C78.0771428,68.3538399 75.2072222,69.9006153 71.287809,69.9006153 C67.1849798,69.9006153 62.4975735,67.2160723 62.4975735,67.2160723 L59.7110238,72.0456995 C59.7110238,72.0456995 65.0036047,75.3697464 71.3751032,75.3697464 C78.7607842,75.3697464 84.1857777,71.3149781 84.1857777,65.8409428 C84.1857777,54.7673255 65.9079338,57.7294446 65.9079338,51.7600881" id="Fill-10" fill="#C8A062"></path>
                <polygon id="Fill-12" fill="#C8A062" points="86.4642554 48.6519228 95.1691583 48.6519228 95.1691583 75.0952109 101.136553 75.0952109 101.136553 48.6519228 109.930712 48.6519228 109.930712 43.1935809 86.4642554 43.1935809"></polygon>
                <path d="M126.609992,57.2294154 L121.331143,57.2294154 L121.331143,48.5657075 L126.704152,48.5657075 C130.530386,48.5657075 131.942788,50.8049518 131.942788,52.855876 C131.942788,54.8165634 130.530386,57.2294154 126.609992,57.2294154 M132.215459,61.3754012 C136.046598,59.460813 137.868006,56.2279837 137.868006,52.8960902 C137.868006,48.2557639 134.587116,43.1926982 126.704152,43.1926982 L115.404943,43.1926982 L115.404943,75.095309 L121.369396,75.095309 L121.369396,62.606348 L125.245652,62.606348 C126.15979,62.9290425 127.250477,64.2482644 127.930195,65.3850511 L133.860318,75.095309 L140.734985,75.095309 L133.536643,63.1546343 C133.134501,62.4690313 132.680375,61.8216807 132.215459,61.3754012" id="Fill-14" fill="#C8A062"></path>
                <path d="M159.683425,48.38749 C165.971552,48.38749 170.669748,53.2190789 170.669748,59.1442978 C170.669748,65.0714785 165.971552,69.9011057 159.683425,69.9011057 C153.490438,69.9011057 148.705929,65.0714785 148.705929,59.1442978 C148.705929,53.2190789 153.490438,48.38749 159.683425,48.38749 M159.683425,75.3702368 C169.12003,75.3702368 176.595948,68.1228534 176.595948,59.1442978 C176.595948,50.1588764 169.12003,42.9222822 159.683425,42.9222822 C150.252705,42.9222822 142.731669,50.1588764 142.731669,59.1442978 C142.731669,68.1228534 150.252705,75.3702368 159.683425,75.3702368" id="Fill-16" fill="#C8A062"></path>
                <g id="Group-20" transform="translate(201.952668, 0.000000)">
                    <mask id="mask-8" fill="white">
                        <use xlink:href="#path-7"></use>
                    </mask>
                    <g id="Clip-19"></g>
                    <path d="M6.14561239,13.2030082 C6.14561239,9.25416998 9.36667166,6.03703405 13.3184524,6.03703405 C17.2721947,6.03703405 20.4903115,9.25416998 20.4903115,13.2206632 L20.4903115,13.9533463 L6.14561239,13.9533463 L6.14561239,13.2030082 Z M26.4704572,19.9285878 L26.4508405,13.2030082 C26.4508405,5.96249066 20.5648549,0.0598308817 13.3184524,0.0598308817 C6.06616482,0.0598308817 0.175275058,5.96249066 0.175275058,13.2030082 L0.175275058,21.1320713 C0.175275058,28.3843588 6.06616482,34.2674019 13.3184524,34.2674019 C19.3231189,34.2674019 24.401878,30.2234228 25.9584617,24.7013266 L19.5202665,24.7013266 C18.2834347,26.8591617 15.9676853,28.3029496 13.3184524,28.3029496 C9.36667166,28.3029496 6.14561239,25.0926795 6.14561239,21.1320713 L6.14561239,19.9285878 L26.4704572,19.9285878 Z" id="Fill-18" fill="#C8A062" mask="url(#mask-8)"></path>
                </g>
                <path d="M19.738306,19.6665089 C27.0602327,19.6665089 32.522498,25.2906118 32.522498,32.1937224 C32.522498,39.0948713 27.0602327,44.7130892 19.738306,44.7130892 C12.524271,44.7130892 6.95019062,39.0948713 6.95019062,32.1937224 C6.95019062,25.2906118 12.524271,19.6665089 19.738306,19.6665089 M19.738306,51.0737985 C30.7216865,51.0737985 39.4158002,42.6405866 39.4158002,32.1937224 C39.4158002,21.7350881 30.7216865,13.3048188 19.738306,13.3048188 C8.75296374,13.3048188 -2.48689958e-13,21.7350881 -2.48689958e-13,32.1937224 C-2.48689958e-13,42.6405866 8.75296374,51.0737985 19.738306,51.0737985" id="Fill-21" fill="#C8A062"></path>
                <polygon id="Fill-23" fill="#C8A062" points="1.68203244 8.19290746 38.7938533 8.19290746 38.7938533 1.24664017 1.68203244 1.24664017"></polygon>
                <polygon id="Fill-25" fill="#C8A062" points="1.68203244 76.7335962 38.7938533 76.7335962 38.7938533 69.7834056 1.68203244 69.7834056"></polygon>
                <polygon id="Fill-26" fill="#C8A062" points="6.97069005 65.5373747 13.9277465 65.5373747 13.9277465 54.1871622 6.97069005 54.1871622"></polygon>
                <polygon id="Fill-27" fill="#C8A062" points="26.5520626 65.5373747 33.5022532 65.5373747 33.5022532 54.1871622 26.5520626 54.1871622"></polygon>
            </g>
        </g>
    </g>
</svg>