<?xml version="1.0" encoding="UTF-8"?>
<svg width="804px" height="100px" viewBox="0 0 804 100" version="1.1" xmlns="http://www.w3.org/2000/svg" xmlns:xlink="http://www.w3.org/1999/xlink">
    <title>logo-soymilk</title>
    <defs>
        <polygon id="path-1" points="-6.45947942e-15 0.238236707 57.7953634 0.238236707 57.7953634 75.5294998 -6.45947942e-15 75.5294998"></polygon>
        <polygon id="path-3" points="0 0.381013988 54.7535022 0.381013988 54.7535022 77.3955371 0 77.3955371"></polygon>
    </defs>
    <g id="Page-1" stroke="none" stroke-width="1" fill="none" fill-rule="evenodd">
        <g id="201216_soymilk" transform="translate(-160.000000, -996.000000)">
            <g id="Group-14" transform="translate(160.000000, 996.000000)">
                <g id="Group-5" transform="translate(0.000000, -0.000000)">
                    <g id="Group-3" transform="translate(0.000000, 0.000000)">
                        <mask id="mask-2" fill="white">
                            <use xlink:href="#path-1"></use>
                        </mask>
                        <g id="Clip-2"></g>
                        <path d="M16.1980537,14.1696819 C15.6544566,14.1696819 15.2093062,14.6003933 15.2093062,15.1263583 L15.2093062,30.2923716 C15.2093062,30.822478 15.6544566,31.249048 16.1980537,31.249048 L33.6916094,31.249048 C36.144217,31.249048 38.2586815,30.3876251 39.9879197,28.6854865 C41.7085973,26.983348 42.5860573,24.9706002 42.5860573,22.709365 C42.5860573,20.4439883 41.7085973,18.435382 39.9836394,16.7373848 C38.2586815,15.0311048 36.1399367,14.1696819 33.6916094,14.1696819 L16.1980537,14.1696819 Z M16.1980537,45.1809074 C15.6544566,45.1809074 15.2093062,45.6074774 15.2093062,46.1375838 L15.2093062,61.1710705 C15.2093062,61.7011769 15.6544566,62.1277469 16.1980537,62.1277469 L33.55464,62.1277469 C36.0072476,62.1277469 38.1473939,61.2124851 39.9151547,59.4109515 C41.6871958,57.6135595 42.5860573,55.5428313 42.5860573,53.2567473 C42.5860573,51.3226872 41.9868163,49.4755976 40.8054556,47.7610347 C39.6283751,46.0506132 38.0189851,45.1809074 36.0200885,45.1809074 L16.1980537,45.1809074 Z M1.63988608,75.5294998 C1.32125537,75.5294998 1.01961829,75.4093976 0.794452585,75.1857589 L0.352617992,74.7550475 C0.127452286,74.5396917 0,74.2415069 0,73.9308977 L0,1.83642473 C0,1.5258155 0.127452286,1.22763064 0.352617992,1.01227491 L0.794452585,0.581563442 C1.01961829,0.362066253 1.32125537,0.237822561 1.63988608,0.237822561 L34.6755187,0.237822561 C37.8405838,0.237822561 40.861203,0.838333739 43.6524081,2.02693172 C46.4393647,3.21138825 48.9119391,4.83898062 50.9979082,6.86415279 C53.0796288,8.89760788 54.7492538,11.2830868 55.9600505,13.9584676 C57.179344,16.6421313 57.7953634,19.5618581 57.7953634,22.6431017 C57.7953634,25.6332332 57.2260766,28.4908381 56.0959996,31.1289458 C55.0806297,33.4978589 53.704145,35.6514162 51.9962844,37.5316374 C51.6734053,37.8836612 51.6691569,38.4220505 51.9835392,38.7823572 C53.61068,40.6460126 54.948929,42.7250237 55.9642989,44.9696931 C57.0901274,47.4752742 57.6594143,50.2624744 57.6594143,53.2567473 C57.6594143,56.3379909 57.0433949,59.2618591 55.8241014,61.9413814 C54.6090563,64.6209037 52.9394313,67.0063826 50.8619591,69.0356962 C48.77599,71.0608684 46.3289061,72.6677535 43.5844335,73.806654 C40.8314641,74.9496959 37.8363354,75.5294998 34.6755187,75.5294998 L1.63988608,75.5294998 Z" id="Fill-1" fill="#512800" mask="url(#mask-2)"></path>
                    </g>
                    <path d="M94.2319803,35.7706901 C93.1928148,35.7706901 92.0427502,35.9073582 90.8146455,36.1724114 C89.5947556,36.4374646 88.4446911,36.9013077 87.4014182,37.5597993 C86.3581454,38.2224323 85.4463085,39.0921382 84.7110886,40.1440681 C84.1483785,40.9433692 83.791037,41.9166114 83.659601,43.0306632 C83.6226347,43.3039993 83.7088895,43.5773354 83.8896139,43.7844083 C84.0703384,43.9873396 84.3291029,44.1033004 84.6001895,44.1033004 L103.995207,44.1033004 C104.266294,44.1033004 104.525058,43.9873396 104.705783,43.7844083 C104.886507,43.5773354 104.972762,43.3039993 104.935795,43.0306632 C104.804359,41.9166114 104.451125,40.9475106 103.888415,40.1440681 C103.149088,39.0921382 102.220822,38.2224323 101.12826,37.5639408 C100.039806,36.9013077 98.848668,36.4333232 97.583597,36.16827 C96.3144186,35.9073582 95.1889983,35.7706901 94.2319803,35.7706901 M96.3681675,76.1913046 C92.5570012,76.1913046 88.9169826,75.6819054 85.5482956,74.6713901 C82.1754343,73.6567332 79.1866117,72.0291409 76.6569657,69.8300275 C74.1273197,67.6267727 72.1069424,64.8147238 70.6459257,61.47671 C69.1849091,58.1345547 68.4418777,54.0759274 68.4418777,49.4126475 C68.4418777,45.706044 68.9344491,42.1609574 69.9112431,38.872641 C70.8880371,35.5719002 72.440889,32.6273247 74.519707,30.1258851 C76.598525,27.620304 79.2951443,25.5909903 82.5386013,24.0917831 C85.777884,22.5967173 89.7101059,21.8388308 94.2309089,21.8388308 C97.8625789,21.8388308 101.30223,22.4186347 104.449677,23.5616767 C107.597124,24.7047187 110.364707,26.4234231 112.673113,28.6680924 C114.973171,30.9044789 116.818226,33.691679 118.149839,36.9510052 C119.477277,40.2020485 120.153519,43.9914811 120.153519,48.2199081 L120.153519,49.2801209 C120.053335,50.0297245 120.01994,50.3113435 120.01994,50.6716502 L120.01994,51.930653 C120.01994,52.2454037 119.89471,52.5394471 119.67347,52.7589443 L119.23934,53.1896557 C119.0181,53.4091529 118.721722,53.5292552 118.408647,53.5292552 L84.6842086,53.5292552 C84.4212256,53.5292552 84.162417,53.6410745 83.9787463,53.8357229 C83.79925,54.0303714 83.7074146,54.2912831 83.724112,54.5563363 C83.8535163,56.2791822 84.312693,57.7121261 85.089119,58.817895 C86.015821,60.1348781 87.1637626,61.1826666 88.4912006,61.9281287 C89.8228129,62.6777323 91.2170402,63.1664242 92.6321392,63.3817799 C94.0347152,63.6054186 95.2452719,63.7172379 96.2345889,63.7172379 C98.2006999,63.7172379 100.467363,63.4273359 102.980311,62.855815 C105.501609,62.2884354 107.501114,61.3731736 108.920388,60.143161 C109.951448,59.4639622 110.569249,59.3438599 110.928242,59.3438599 C111.341501,59.3438599 111.721365,59.5592157 111.934256,59.907098 L115.883176,66.3760529 C116.000057,66.5168624 116.16703,66.8026229 116.208774,66.9807055 C116.237994,67.129798 116.279737,67.3741439 116.279737,67.7013189 C116.279737,68.3183959 116.146159,68.8153707 115.883176,69.1632531 C113.562246,72.0788384 110.59847,73.9921912 107.054461,74.8660385 C103.510452,75.7481687 99.9121765,76.1913046 96.3681675,76.1913046" id="Fill-4" fill="#512800"></path>
                    <path d="M152.997124,53.3963144 C149.437515,53.3963144 146.927925,53.8104601 145.337646,54.6553172 C143.743011,55.5043157 142.967478,56.6059431 142.967478,58.0264627 C142.967478,60.0723421 143.812722,61.5218519 145.546779,62.457821 C147.259051,63.3813658 149.624862,63.8493504 152.578859,63.8493504 C152.857702,63.8493504 153.323894,63.8037943 153.973076,63.7168237 C154.626615,63.6298532 155.393434,63.4973266 156.273533,63.3192439 C157.149275,63.1453028 158.038089,62.8554008 158.922545,62.457821 C159.667579,62.1182216 160.342903,61.6668028 160.926731,61.1035648 C161.114079,60.9254821 161.218645,60.6852777 161.218645,60.4326488 L161.218645,57.1236252 C161.218645,56.9289767 161.157648,56.7426112 161.040011,56.5810944 C160.416971,55.7279544 159.632724,54.9949166 158.713412,54.3902639 C157.693891,53.7317724 155.76813,53.3963144 152.997124,53.3963144 M148.135895,76.1908904 C146.648611,76.1908904 144.831734,76.0128078 142.730584,75.660784 C140.629433,75.3129017 138.540643,74.5508737 136.530131,73.4078317 C134.515498,72.2647897 132.785139,70.5502268 131.388492,68.301416 C129.987726,66.0650295 129.279102,62.9630787 129.279102,59.090817 C129.279102,53.3714657 131.030061,49.0850583 134.482539,46.35998 C137.943257,43.6307602 142.44631,42.2475138 147.872222,42.2475138 C150.146408,42.2475138 152.387635,42.4918597 154.534104,42.9764101 C155.988429,43.3035852 157.294438,43.7550039 158.415052,44.3099591 C158.546889,44.3762224 158.691085,44.409354 158.835282,44.409354 C159.028917,44.409354 159.218433,44.3472322 159.383229,44.2395543 C159.659262,44.0449059 159.815819,43.7094479 159.782859,43.365707 C159.548025,40.8601259 158.802323,38.9716218 157.558112,37.7581751 C156.004909,36.242402 153.351692,35.5052228 149.454264,35.5052228 L147.480831,35.5052228 C146.595052,35.5052228 145.610395,35.5549203 144.510381,35.6418908 C143.414487,35.7288614 142.269155,35.8820953 141.086743,36.105734 C139.896091,36.3252312 138.812556,36.6192746 137.860859,36.9671569 C137.8073,36.9712983 137.757861,36.9712983 137.708423,36.9712983 C136.867963,36.9712983 136.12638,36.4163432 135.973944,35.9566415 L132.834578,28.2121181 C132.570904,27.5950411 132.439068,27.1104907 132.439068,26.750184 C132.439068,26.7004865 132.459667,26.3443212 132.463787,26.2946238 C132.517346,25.8721952 132.797499,25.51603 133.18889,25.3545132 C136.666087,23.9712667 139.743654,23.0311561 142.335073,22.567313 C145.050089,22.0827626 147.711546,21.8384167 150.249405,21.8384167 C158.822922,21.8384167 165.146972,23.9795496 169.04028,28.2038352 C172.933588,32.4281207 174.907021,38.3586862 174.907021,45.834015 L174.907021,73.9296552 C174.907021,74.2444059 174.787544,74.5384493 174.565069,74.7579465 L174.136599,75.188658 C173.918244,75.4081552 173.625731,75.5282574 173.316739,75.5282574 L165.274689,75.5282574 C164.224114,75.5282574 163.507251,74.9940095 163.157059,73.9379381 L162.848067,71.9666049 C162.790388,71.6187225 162.534954,71.3288206 162.184762,71.2252842 C162.110604,71.2170013 162.040566,71.2128598 161.978767,71.2128598 C161.579137,71.2128598 161.369022,71.3205377 161.216585,71.4861959 C160.462643,72.3062043 159.609823,72.9978275 158.686965,73.5403583 C157.195561,74.42663 155.704156,75.0726972 154.27043,75.4661355 C152.844944,75.8554324 151.534815,76.0790711 150.377122,76.1287686 C149.235909,76.1701831 148.486087,76.1908904 148.135895,76.1908904" id="Fill-6" fill="#512800"></path>
                    <path d="M212.849997,76.192547 C209.223748,76.192547 206.028422,75.5464798 203.349389,74.2709112 C200.678486,72.9994841 198.446636,71.2393651 196.710753,69.0319689 C194.983,66.8328555 193.690235,64.2900013 192.873109,61.4779524 C192.055984,58.6783279 191.637258,55.6426404 191.637258,52.4620018 L191.637258,24.1013085 C191.637258,23.7906992 191.759217,23.4925144 191.974678,23.2771586 L192.397469,22.8464472 C192.608865,22.6228085 192.901566,22.5027063 193.206464,22.5027063 L204.788505,22.5027063 C205.089338,22.5027063 205.382039,22.6228085 205.5975,22.8464472 L206.020291,23.2771586 C206.235752,23.4925144 206.353646,23.7906992 206.353646,24.1013085 L206.353646,51.0042092 C206.353646,52.6110943 206.443083,54.1517161 206.617891,55.5763771 C206.788633,57.0300283 207.227686,58.3221626 207.918787,59.4155071 C208.613953,60.5295589 209.589625,61.3702746 210.902718,61.9956345 C212.211744,62.6209944 213.996411,62.9233207 216.362416,62.9233207 C219.687832,62.9233207 222.000988,61.7761373 223.44417,59.4155071 C224.871091,57.0838672 225.590649,54.2552525 225.590649,51.0042092 L225.590649,24.1013085 C225.590649,23.7906992 225.712608,23.4925144 225.928069,23.2730172 L226.354925,22.8423057 C226.570386,22.6228085 226.859023,22.5027063 227.16392,22.5027063 L238.737831,22.5027063 C239.042729,22.5027063 239.335431,22.6228085 239.546826,22.8464472 L239.969617,23.2771586 C240.189144,23.4925144 240.307037,23.7906992 240.307037,24.1013085 L240.307037,73.9313118 C240.307037,74.241921 240.189144,74.5401059 239.969617,74.7554616 L239.546826,75.1861731 C239.335431,75.4098117 239.042729,75.529914 238.737831,75.529914 L231.452813,75.529914 C230.664144,75.529914 230.058414,75.0619294 229.708799,74.1715163 L229.32666,71.3884576 C229.286007,71.0405752 229.05835,70.7465318 228.733126,70.6181467 C228.603037,70.6015809 228.489208,70.5932979 228.391641,70.5932979 C228.074548,70.5932979 227.920066,70.6719856 227.785911,70.7838049 C225.249164,72.9953427 222.826244,74.4365695 220.594394,75.0702123 C217.947884,75.8156745 215.342026,76.192547 212.849997,76.192547" id="Fill-8" fill="#512800"></path>
                    <path d="M282.733891,76.192547 C279.907428,76.192547 277.334515,75.8363817 275.085815,75.1323342 C272.832957,74.4282866 270.904312,73.2024155 269.362227,71.4837111 C267.815986,69.7691481 266.627209,67.4499325 265.833305,64.5881862 C265.039401,61.7347227 264.636215,58.0571094 264.636215,53.6547413 L264.636215,36.4635558 C264.636215,35.9334494 264.208089,35.5068794 263.680205,35.5068794 L255.599846,35.5068794 C255.288104,35.5068794 254.992988,35.3826357 254.77269,35.1672799 L254.340408,34.7365685 C254.12011,34.5170713 253.995413,34.2188864 253.995413,33.9082772 L253.995413,23.4386754 C253.995413,23.1280662 254.12011,22.8298813 254.340408,22.6103842 L254.77269,22.1796727 C254.992988,21.9601755 255.288104,21.8400733 255.599846,21.8400733 L263.680205,21.8400733 C264.208089,21.8400733 264.636215,21.4093618 264.636215,20.8833968 L264.636215,1.83683888 C264.636215,1.52622965 264.760912,1.22804479 264.98121,1.01268905 L265.413492,0.581977588 C265.63379,0.362480399 265.933062,0.238236707 266.240648,0.238236707 L278.07854,0.238236707 C278.390282,0.238236707 278.685398,0.358338943 278.905696,0.577836131 L279.337979,1.0085476 C279.558277,1.22804479 279.682974,1.52622965 279.682974,1.83683888 L279.682974,20.8833968 C279.682974,21.4093618 280.115256,21.8400733 280.64314,21.8400733 L291.113522,21.8400733 C291.425265,21.8400733 291.720381,21.9601755 291.940678,22.1796727 L292.372961,22.6103842 C292.597415,22.8298813 292.717956,23.1280662 292.717956,23.4386754 L292.717956,33.9082772 C292.717956,34.2188864 292.597415,34.5170713 292.372961,34.7365685 L291.940678,35.1672799 C291.720381,35.3826357 291.425265,35.5068794 291.113522,35.5068794 L280.64314,35.5068794 C280.115256,35.5068794 279.682974,35.9334494 279.682974,36.4635558 L279.682974,50.739156 C279.682974,53.3027175 279.728696,55.3527384 279.815984,56.8975016 C279.907428,58.4629722 280.123569,59.6764189 280.481034,60.6082466 C280.830185,61.5276499 281.345599,62.1488684 282.006492,62.4594776 C282.675699,62.7700868 283.565204,62.9233207 284.729041,62.9233207 L286.657687,62.9233207 C287.231292,62.9233207 287.967004,62.8363501 288.852352,62.654126 C288.956266,62.6168529 289.213973,62.5505896 289.322044,62.5423067 L289.783422,62.5257409 C290.045286,62.5257409 290.298836,62.60857 290.502508,62.7700868 L290.868285,63.0517059 C291.076113,63.2132227 291.22575,63.4451442 291.288098,63.706056 L293.383006,72.6060458 C293.424572,72.7095822 293.482763,72.9249379 293.495233,73.0367572 C293.507703,73.1610009 293.532642,73.5958538 293.536799,73.6455513 C293.578364,74.2460625 293.154395,74.7803104 292.560006,74.8797053 C291.682972,75.240012 290.872442,75.4926409 290.186609,75.666582 C289.475836,75.8405232 288.765064,75.9689083 288.058448,76.0600204 C287.34352,76.146991 286.570399,76.192547 285.726616,76.192547 L282.733891,76.192547 Z" id="Fill-10" fill="#512800"></path>
                    <path d="M304.735735,98.1919634 C304.41719,98.1919634 304.111386,98.0677197 303.88628,97.8482225 L303.533757,97.5003401 C303.172739,97.1524578 303.083546,96.6140685 303.308651,96.1667912 L319.877261,62.9481694 C320.008927,62.6831162 320.008927,62.3807899 319.877261,62.1198782 L301.265713,24.523737 C301.040608,24.0764597 301.134048,23.5380704 301.499313,23.190188 L301.856084,22.8423057 C302.08119,22.6228085 302.382746,22.5027063 302.701291,22.5027063 L315.613,22.5027063 C316.156651,22.5027063 316.598367,22.6517987 316.96788,22.9582665 C317.34164,23.2813001 317.613465,23.6581726 317.79185,24.1013085 L327.637028,44.3861619 C327.798424,44.7174784 328.146701,44.9328341 328.524708,44.9328341 C328.898468,44.9328341 329.246744,44.7174784 329.412388,44.3861619 L339.249071,24.097167 C339.435951,23.6498897 339.699282,23.2771586 340.064547,22.9665494 C340.446802,22.6517987 340.892765,22.5027063 341.436416,22.5027063 L354.343877,22.5027063 C354.658175,22.5027063 354.959731,22.6228085 355.184837,22.8381643 L355.541608,23.1819051 C355.906873,23.5339289 356.000313,24.0723183 355.779455,24.5195956 L320.106614,96.5975027 C319.915487,97.0406385 319.647908,97.417511 319.28689,97.7239788 C318.908883,98.0387295 318.467167,98.1919634 317.919269,98.1919634 L304.735735,98.1919634 Z" id="Fill-12" fill="#512800"></path>
                </g>
                <g id="Group-2" transform="translate(383.837307, -0.000000)">
                    <g id="Group-16" transform="translate(0.000000, 0.000000)">
                        <mask id="mask-4" fill="white">
                            <use xlink:href="#path-3"></use>
                        </mask>
                        <g id="Clip-15"></g>
                        <path d="M29.2569246,77.3955371 C24.5407704,77.3955371 19.9126511,77.0393719 15.506715,76.3353243 C11.0923947,75.6312767 6.46427535,73.7593384 1.74812116,70.7692069 L1.17379838,70.143847 C1.01030503,69.9326327 0.926462291,69.6717209 0.934846565,69.4066677 C0.947422977,68.7978736 1.02707358,68.5949423 1.09833991,68.4499913 L5.47912314,60.0676836 C5.68453786,59.6701037 6.09955943,59.4381822 6.52715741,59.4381822 C6.64872938,59.4381822 6.77030136,59.454748 6.89187333,59.4920211 C7.23982071,59.4961626 7.41589047,59.5127284 7.56261526,59.5417186 C9.23947009,60.4197073 11.6331804,61.3846667 14.8401652,62.4697283 C18.0806872,63.5672142 22.297977,64.1263108 27.3788472,64.1263108 C28.9760514,64.1263108 30.5355264,63.9275209 32.0027743,63.5299411 C33.4574459,63.1365027 34.7653927,62.5774061 35.8930775,61.8692171 C36.9956096,61.169311 37.9178797,60.3203124 38.6389273,59.3512116 C39.3473985,58.3821108 39.7121144,57.3508882 39.7121144,56.2989582 C39.7121144,54.2447959 38.7479229,52.621345 36.7650421,51.3292106 C34.7989298,50.0453591 32.3171846,48.865044 29.3868808,47.8089726 C26.4356163,46.7487598 23.2621686,45.6429909 19.8623454,44.4875246 C16.4667144,43.3403412 13.2639217,41.8204267 10.3336179,39.9691957 C7.39492978,38.1221061 4.91318464,35.7490516 2.95545663,32.9328613 C0.993536484,30.1125294 2.48689958e-14,26.4473405 2.48689958e-14,22.0366895 C2.48689958e-14,15.2529839 2.35178889,9.88565642 6.97990821,6.09208236 C11.6122197,2.30264976 18.3405997,0.381013988 26.976402,0.381013988 C29.1898504,0.381013988 31.4703729,0.583945352 33.7508955,0.981525166 C36.0356102,1.38738789 38.1777922,1.85951392 40.1229438,2.38962034 C42.1184011,2.93215113 43.9252122,3.51609648 45.4930714,4.12903203 C46.9728958,4.70469446 48.1886156,5.16439612 49.1402307,5.51227846 C49.8612782,5.97198012 50.1505357,6.31157955 50.3349897,6.72158373 C50.3978718,6.8665347 50.4314089,7.02391005 50.4314089,7.18128539 C50.435601,7.25169015 50.4062561,7.71553326 50.3978718,7.78179657 L46.2979617,17.0917905 C46.2015426,17.3195706 46.029665,17.5059362 45.815866,17.6301799 L45.417613,17.8621014 C45.2373511,17.9697793 45.0277442,18.0236182 44.8181374,18.0236182 C44.5414563,18.0236182 44.227046,17.9366476 43.8749065,17.758565 L40.5044283,16.760474 C39.179713,16.3670357 37.7250414,15.9943046 36.1613743,15.6381393 C34.5977072,15.2861156 33.0550008,14.9755063 31.533255,14.7104531 C30.0198935,14.4453999 28.6197197,14.3128733 27.3788472,14.3128733 C24.4401591,14.3128733 22.1177152,14.6938873 20.4702053,15.4393494 C18.8310797,16.1806701 17.5943993,17.0255272 16.7853168,17.9532135 C15.9888108,18.8808997 15.5150993,19.8375761 15.3809509,20.798394 C15.2468025,21.7716363 15.1797283,22.4342693 15.1797283,22.7862931 C15.1797283,25.1055087 16.1439198,26.9194666 18.1268007,28.3441276 C20.0803365,29.7522227 22.5369289,31.0443571 25.4336956,32.1873991 C28.3472308,33.338724 31.5500235,34.4983318 34.958231,35.6330908 C38.3915912,36.7761328 41.594384,38.2711985 44.4869585,40.0727321 C47.375341,41.8701242 49.8361254,44.1686325 51.8022377,46.8978522 C53.7599657,49.627072 54.7535022,53.1514514 54.7535022,57.3757369 C54.7535022,60.452839 53.9150748,63.2648879 52.2717571,65.7331959 C50.6200551,68.1973625 48.5197944,70.3177881 46.029665,72.0282096 C43.5311513,73.7427726 40.7559565,75.080463 37.7795392,76.0040078 C34.7863534,76.9275525 31.9189316,77.3955371 29.2569246,77.3955371" id="Fill-14" fill="#512800" mask="url(#mask-4)"></path>
                    </g>
                    <path d="M91.6528712,36.9736803 C88.1829575,36.9736803 85.2837804,38.1001564 82.7940449,40.419372 C80.3001736,42.7385876 79.0883921,45.8985188 79.0883921,50.0855312 C79.0883921,52.1065619 79.4233897,53.9992075 80.0809776,55.7137704 C80.7427014,57.4324748 81.6567073,58.9275406 82.7940449,60.1534117 C83.9355183,61.3875657 85.2713731,62.3649494 86.7643872,63.0648555 C88.2532656,63.7689031 89.8951676,64.1250684 91.6528712,64.1250684 C93.2327366,64.1250684 94.7464296,63.7689031 96.1484568,63.0648555 C97.5504839,62.3649494 98.8201663,61.3834243 99.9161462,60.1534117 C101.012126,58.9233992 101.880638,57.4283334 102.496869,55.7179119 C103.113099,54.003349 103.423282,52.1065619 103.423282,50.0855312 C103.423282,46.0476112 102.244587,42.8172752 99.920282,40.4856353 C97.5877059,38.1581368 94.8084662,36.9736803 91.6528712,36.9736803 M91.7898547,77.3942947 C87.9808066,77.3942947 84.342811,76.6612569 80.9718243,75.2076057 C77.6091816,73.758096 74.6220201,71.7536311 72.09378,69.2439085 C69.569712,66.7383274 67.5462856,63.7978933 66.0819089,60.4930111 C64.6217043,57.1964118 63.8790859,53.6513252 63.8790859,49.9530046 C63.8790859,46.254684 64.6217043,42.7344461 66.0819089,39.4792614 C67.5462856,36.2240767 69.569712,33.3457645 72.09378,30.9312954 C74.6220201,28.5085434 77.6091816,26.5662003 80.9718243,25.1622466 C84.342811,23.7541514 87.9808066,23.0418209 91.7898547,23.0418209 C95.4236783,23.0418209 98.9073093,23.7541514 102.14062,25.1622466 C105.37393,26.5703418 108.252619,28.5126848 110.689075,30.9312954 C113.121359,33.3457645 115.073861,36.2199352 116.500689,39.4792614 C117.915002,42.742729 118.632588,46.2671084 118.632588,49.9530046 C118.632588,53.6471837 117.915002,57.1922704 116.496517,60.4930111 C115.082205,63.7896104 113.125531,66.7341859 110.689075,69.2439085 C108.252619,71.7453482 105.378102,73.7539545 102.14062,75.2076057 C98.9031373,76.6612569 95.4195062,77.3942947 91.7898547,77.3942947" id="Fill-17" fill="#512800"></path>
                    <path d="M129.830198,99.3949535 C129.511637,99.3949535 129.210066,99.2748512 128.984949,99.0512126 L128.62816,98.7074717 C128.267124,98.3554479 128.173679,97.8212001 128.398796,97.3697813 L144.968236,64.1511596 C145.104156,63.8861064 145.104156,63.58378 144.968236,63.3228683 L126.355756,25.7267271 C126.134886,25.2794498 126.228331,24.745202 126.589367,24.3931782 L126.941909,24.0494373 C127.167025,23.8257986 127.472844,23.7056964 127.791406,23.7056964 L140.703761,23.7056964 C141.264429,23.7056964 141.714662,23.8630717 142.079946,24.1819639 C142.42824,24.4801488 142.704326,24.8611627 142.886968,25.3042986 L152.728392,45.589152 C152.889796,45.9204685 153.23809,46.1358242 153.616116,46.1358242 C153.989895,46.1358242 154.338189,45.9204685 154.499593,45.589152 L164.345264,25.3001571 C164.523658,24.8653042 164.79125,24.4884317 165.160781,24.1695395 C165.513322,23.8630717 165.967803,23.7056964 166.528471,23.7056964 L179.440826,23.7056964 C179.75514,23.7056964 180.060959,23.8257986 180.286076,24.0494373 L180.638617,24.3931782 C180.999654,24.745202 181.093098,25.2794498 180.872229,25.7267271 L145.1976,97.8004928 C145.010711,98.2436286 144.738872,98.6205011 144.373588,98.9311104 C144.008304,99.2417196 143.562318,99.3949535 143.014393,99.3949535 L129.830198,99.3949535 Z" id="Fill-19" fill="#512800"></path>
                    <path d="M271.987957,76.7320758 C271.67465,76.7320758 271.378053,76.6119736 271.15665,76.3924764 L270.722198,75.9617649 C270.500794,75.7422677 270.375471,75.4440829 270.375471,75.1334736 L270.375471,39.4424024 C270.375471,39.0531055 270.137358,38.7052232 269.773922,38.5561307 C269.640245,38.5395649 269.523277,38.531282 269.423018,38.531282 C269.051228,38.531282 268.867421,38.6265355 268.725389,38.767345 L249.881027,57.5695571 C249.659623,57.7890542 249.358849,57.9132979 249.049719,57.9132979 L249.045542,57.9132979 C248.736413,57.9132979 248.435638,57.7890542 248.214235,57.5736985 L229.265437,38.767345 C229.081631,38.5851209 228.835163,38.4815845 228.58034,38.4815845 C227.853468,38.7010817 227.615355,39.0489641 227.615355,39.438261 L227.615355,75.1334736 C227.615355,75.4440829 227.490032,75.7422677 227.268628,75.9617649 L226.829999,76.3924764 C226.612773,76.6119736 226.311998,76.7320758 226.002869,76.7320758 L214.105564,76.7320758 C213.792257,76.7320758 213.49566,76.6119736 213.274257,76.3883349 L212.839804,75.9576235 C212.618401,75.7422677 212.493078,75.4440829 212.493078,75.1334736 L212.493078,2.33909457 C212.493078,2.04505117 212.605869,1.76343213 212.806385,1.5480764 C213.027788,1.30787193 213.64187,1.04281872 213.971886,1.04281872 C214.289371,1.04281872 214.5985,1.17120387 214.819904,1.40312543 L246.593394,34.1744699 C246.852394,34.5430595 247.245072,35.0276099 247.871686,35.3050875 C248.35209,35.5245847 248.732235,35.6322625 248.995413,35.6322625 C249.262768,35.6322625 249.642914,35.5204432 250.127495,35.300946 C250.612076,35.0814488 251.038174,34.7045763 251.389077,34.1786113 L282.820019,1.56050077 C282.945341,1.43211562 283.095729,1.33272067 283.267003,1.27059882 C283.509294,1.18362824 283.780826,1.10079911 284.085778,1.10079911 C284.382375,1.10079911 284.896199,1.29544756 285.113425,1.49009601 C285.359893,1.7095932 285.497748,2.02434389 285.497748,2.3556604 L285.497748,75.1334736 C285.497748,75.4440829 285.372425,75.7422677 285.151022,75.9576235 L284.716569,76.3883349 C284.499343,76.6119736 284.198569,76.7320758 283.885262,76.7320758 L271.987957,76.7320758 Z" id="Fill-21" fill="#512800"></path>
                    <path d="M311.215433,18.0236182 C308.698774,18.0236182 306.618107,17.1994684 304.852561,15.5014713 C303.087015,13.8076156 302.227985,11.8114336 302.227985,9.40110602 C302.227985,6.90380781 303.087015,4.84136253 304.852561,3.09780938 C306.622424,1.3583977 308.703091,0.513540593 311.215433,0.513540593 C313.822742,0.513540593 315.972478,1.3583977 317.785508,3.09780938 C319.598537,4.83722107 320.479152,6.89966635 320.479152,9.40110602 C320.479152,11.7824434 319.576954,13.8324644 317.785508,15.5014713 C315.972478,17.1994684 313.822742,18.0236182 311.215433,18.0236182 L311.215433,18.0236182 Z M305.370681,76.7329041 C305.059772,76.7329041 304.757267,76.6086604 304.538791,76.3933047 L304.097637,75.9625932 C303.874959,75.743096 303.748915,75.4449111 303.748915,75.1343019 L303.748915,25.3042986 C303.748915,24.9936893 303.874959,24.6955045 304.097637,24.4760073 L304.538791,24.0452958 C304.757267,23.8257986 305.059772,23.7056964 305.370681,23.7056964 L317.336456,23.7056964 C317.651565,23.7056964 317.954071,23.8299401 318.176749,24.0494373 L318.613701,24.4801488 C318.836379,24.6955045 318.958221,24.9936893 318.958221,25.3042986 L318.958221,75.1343019 C318.958221,75.4449111 318.836379,75.743096 318.613701,75.9584517 L318.176749,76.3891632 C317.954071,76.6086604 317.651565,76.7329041 317.336456,76.7329041 L305.370681,76.7329041 Z" id="Fill-23" fill="#512800"></path>
                    <path d="M338.834458,76.7320758 C338.523721,76.7320758 338.221383,76.6119736 337.998828,76.3924764 L337.557918,75.9617649 C337.339562,75.7422677 337.209389,75.4440829 337.209389,75.1334736 L337.209389,3.0390007 C337.209389,2.72839147 337.339562,2.43020661 337.557918,2.21070942 L337.998828,1.77999796 C338.221383,1.56464223 338.523721,1.44039853 338.834458,1.44039853 L350.797825,1.44039853 C351.108561,1.44039853 351.4109,1.56464223 351.633455,1.77999796 L352.070166,2.21070942 C352.292721,2.43020661 352.418695,2.72839147 352.418695,3.0390007 L352.418695,75.1334736 C352.418695,75.4440829 352.292721,75.7422677 352.070166,75.9617649 L351.633455,76.3924764 C351.4109,76.6119736 351.108561,76.7320758 350.797825,76.7320758 L338.834458,76.7320758 Z" id="Fill-25" fill="#512800"></path>
                    <path d="M404.100737,76.7320758 C403.566142,76.7320758 403.052267,76.5747005 402.571545,76.2640912 C402.074247,75.9493405 401.742715,75.5766095 401.572804,75.1251907 L387.412237,55.3207462 C387.234038,55.0722589 386.939803,54.919025 386.633136,54.919025 C385.945207,55.0929661 385.679981,55.4615558 385.679981,55.8757014 L385.679981,75.1334736 C385.679981,75.4440829 385.551512,75.7422677 385.336017,75.9617649 L384.900881,76.3924764 C384.681241,76.6119736 384.382862,76.7320758 384.076194,76.7320758 L372.269505,76.7320758 C371.962838,76.7320758 371.664459,76.6119736 371.444819,76.3924764 L371.013827,75.9617649 C370.794187,75.7422677 370.669862,75.4440829 370.669862,75.1334736 L370.669862,3.0390007 C370.669862,2.72839147 370.794187,2.43020661 371.013827,2.21070942 L371.444819,1.77999796 C371.664459,1.56464223 371.962838,1.44039853 372.269505,1.44039853 L384.076194,1.44039853 C384.382862,1.44039853 384.681241,1.56464223 384.900881,1.77999796 L385.336017,2.21070942 C385.551512,2.43020661 385.679981,2.72839147 385.679981,3.0390007 L385.679981,43.612849 C385.679981,44.0269946 385.941063,44.3873014 386.330613,44.519828 C386.409352,44.5281109 386.483947,44.5281109 386.554397,44.5281109 C387.00611,44.5281109 387.246471,44.3914428 387.399804,44.18437 L401.572804,25.2993288 C401.858751,24.8313443 402.132265,24.4710375 402.434788,24.1728527 C402.654428,23.9533555 403.048123,23.7048681 403.698755,23.7048681 L417.892475,23.7048681 C418.203287,23.7048681 418.501666,23.8291118 418.717162,24.048609 C419.135721,24.4627546 419.4341,25.3780165 419.077703,25.8418596 L401.61839,48.603304 C401.369741,48.9346205 401.357309,49.3901807 401.597669,49.7339216 L419.127433,74.6157916 C419.454821,75.0796347 419.396803,75.7091361 418.998964,76.1108573 C418.779324,76.3303545 418.203287,76.7320758 417.892475,76.7320758 L404.100737,76.7320758 Z" id="Fill-27" fill="#512800"></path>
                </g>
            </g>
        </g>
    </g>
</svg>