<?xml version="1.0" encoding="UTF-8"?>
<svg width="243px" height="23px" viewBox="0 0 243 23" version="1.1" xmlns="http://www.w3.org/2000/svg" xmlns:xlink="http://www.w3.org/1999/xlink">
    <title>logo-yushidoufu</title>
    <g id="Page-1" stroke="none" stroke-width="1" fill="none" fill-rule="evenodd">
        <g id="ゆしどうふ" transform="translate(-598.000000, -5170.000000)" fill="#512800" fill-rule="nonzero">
            <path d="M611.704,5192.488 C612.4,5192.488 613.216,5190.28 613.216,5189.368 C613.216,5189.176 613.288,5188.336 613.312,5188.12 L613.432,5186.128 L613.408,5185.984 C613.408,5185.96 613.456,5185.864 613.48,5185.816 C613.504,5185.672 613.456,5184.928 613.456,5184.76 L613.528,5183.152 C613.576,5183.128 614.56,5183.008 614.584,5183.008 L617.032,5183.008 C617.8,5183.008 618.112,5182.288 618.112,5181.976 C618.112,5181.88 617.944,5181.352 617.944,5181.208 C617.944,5181.136 618.04,5180.968 618.088,5180.92 L619.192,5179.384 L619.24,5179.24 C619.528,5178.832 619.552,5178.784 619.888,5178.76 L619.96,5178.688 L620.392,5178.208 L620.464,5178.232 L620.512,5178.232 L620.392,5177.704 C620.296,5177.56 620.128,5177.392 620.056,5177.248 C619.936,5177.128 619.24,5176.696 619.12,5176.552 C618.952,5176.48 618.928,5176.456 618.688,5176.288 C618.544,5176.192 617.848,5175.904 617.416,5175.736 C617.344,5175.712 617.056,5175.448 616.984,5175.448 C616.936,5175.448 616.216,5175.856 616.168,5175.904 L616.168,5175.976 C615.808,5176.12 613.96,5176.24 613.744,5176.24 C613.744,5176.216 613.696,5176.072 613.696,5176 C613.696,5175.895 613.73275,5175.48681 613.782133,5175.04877 L613.826992,5174.67236 C613.881625,5174.23956 613.942,5173.855 613.984,5173.792 C614.296,5173.312 614.344,5173.24 614.344,5172.904 C614.344,5172.688 614.176,5172.256 614.008,5171.896 C613.984,5171.824 613.576,5171.488 613.504,5171.392 C613.36,5171.296 612.304,5170.768 612.16,5170.696 C611.68,5170.384 611.152,5170 610.528,5170 L609.736,5170.144 L609.688,5170.288 C609.592,5170.312 609.064,5170.432 608.968,5170.48 C609.16,5170.744 609.232,5170.792 609.784,5171.104 C610.336,5171.416 610.36,5171.824 610.36,5172.496 L610.384,5174.416 L610.48,5176.528 C610.192,5176.672 608.944,5176.864 608.632,5176.888 L606.088,5177.152 C606.04,5177.152 605.824,5177.224 605.752,5177.224 C605.68,5177.224 605.2,5177.08 605.128,5177.056 C604.864,5176.984 604.24,5176.936 604.216,5176.936 C603.448,5176.936 603.328,5177.032 603.136,5177.2 L603.136,5177.248 C603.28,5177.368 603.4,5177.44 603.544,5177.608 C603.64,5177.704 604.024,5178.208 604.12,5178.304 C604.456,5178.664 604.528,5178.736 604.864,5179.696 C604.912,5179.816 605.512,5182.48 605.704,5182.888 C605.752,5182.984 606.088,5183.344 606.136,5183.416 C606.712,5184.232 607.6,5184.592 607.768,5184.592 C608.44,5184.592 608.536,5184.16 608.608,5183.848 C608.632,5183.8 609.712,5183.344 610.576,5183.392 L610.624,5184.16 L610.624,5186.824 L610.672,5189.68 C610.672,5189.8 610.792,5190.424 610.792,5190.544 C610.792,5190.736 610.984,5191.552 611.056,5191.816 C611.104,5191.936 611.272,5192.488 611.704,5192.488 Z M603.712,5176.24 C604.024,5176.24 604.528,5176.024 604.792,5175.568 C604.84,5175.472 605.08,5174.68 605.08,5174.632 C605.08,5174.512 604.912,5173.936 604.864,5173.792 C604.648,5173 604.672,5172.88 604.384,5172.64 C604.048,5172.376 603.4,5172.184 603.04,5171.968 C602.488,5171.656 602.152,5171.464 601.144,5171.464 C600.856,5171.464 600.208,5171.656 600.16,5171.656 C599.728,5171.872 599.68,5171.896 599.248,5171.992 L599.344,5172.184 C599.44,5172.208 599.92,5172.352 600.04,5172.4 C600.376,5172.592 600.976,5173.216 601.072,5173.336 L601.936,5175.016 C602.008,5175.136 602.08,5175.256 602.176,5175.304 C602.224,5175.328 602.344,5175.4 602.368,5175.424 C602.728,5175.88 603.232,5176.24 603.712,5176.24 Z M603.448,5181.592 C603.856,5181.592 604.216,5180.824 604.216,5180.272 C604.216,5179.336 603.424,5178.928 603.136,5178.784 C603.064,5178.736 602.68,5178.592 602.608,5178.544 C602.152,5178.28 601.768,5178.04 601.12,5178.04 C601.024,5178.04 600.208,5178.232 599.896,5178.352 C599.824,5178.376 599.512,5178.4 599.224,5178.424 C599.128,5178.448 598.24,5178.592 598.192,5178.616 C598.144,5178.688 598.12,5178.688 598,5178.736 L598,5178.808 L598.096,5178.904 C598.096,5178.976 598.144,5179.12 598.216,5179.168 C598.408,5179.288 598.72,5179.504 598.912,5179.648 C599.008,5179.696 599.584,5179.936 599.704,5180.008 L601.096,5180.8 C601.576,5181.088 602.656,5181.664 603.208,5181.544 C603.28,5181.568 603.376,5181.592 603.448,5181.592 Z M613.672,5180.608 C613.636,5180.572 613.627,5180.3065 613.62475,5180.1355 L613.624,5180.008 C613.624,5179.816 613.648,5178.88 613.648,5178.664 C613.648,5178.568 613.696,5178.352 613.696,5178.328 C613.936,5178.136 615.112,5178.064 615.208,5178.064 C615.352,5178.064 615.448,5178.112 615.568,5178.16 C615.592,5178.352 615.592,5178.52 615.52,5178.832 C615.472,5179.072 615.208,5180.248 615.136,5180.512 C615.118857,5180.52914 614.918041,5180.53404 614.787195,5180.53544 L614.68,5180.536 L614.68,5180.536 C614.536,5180.536 613.84,5180.632 613.672,5180.608 Z M608.176,5181.424 L607.864,5180.656 C607.936,5180.248 607.816,5179.888 607.744,5179.696 C607.696,5179.552 607.6,5179.192 607.6,5179.072 C607.624,5179.072 607.672,5179.048 607.696,5179.048 C607.816,5179.048 608.392,5179.072 608.512,5179.072 C608.584,5179.072 608.92,5178.976 608.992,5178.952 C609.25,5178.916 609.451,5178.8875 609.610375,5178.86463 L609.820141,5178.8343 C609.880937,5178.82544 609.93325,5178.81775 609.979,5178.811 L610.147064,5178.78616 C610.223031,5178.775 610.276,5178.7675 610.336,5178.76 L610.384,5178.808 L610.384,5180.92 L610.36,5181.064 C609.784,5181.184 608.656,5181.424 608.176,5181.424 Z M601.288,5190.808 C601.36,5190.76 601.816,5190.664 601.912,5190.616 C602.008,5190.544 602.344,5190.256 602.368,5190.184 C602.384,5190.152 602.389333,5189.704 602.391111,5189.38044 L602.391986,5189.09744 C602.392,5189.07817 602.392,5189.064 602.392,5189.056 L602.396216,5189.03263 L602.396216,5189.03263 L602.426478,5188.89227 C602.447732,5188.79613 602.477015,5188.6663 602.509131,5188.52639 L602.575603,5188.24014 C602.642776,5187.95445 602.707429,5187.69143 602.728,5187.64 C602.728,5187.544 603.232,5186.176 603.28,5186.104 C603.291294,5186.02494 603.43546,5185.56853 603.599948,5185.07741 L603.725365,5184.70792 C603.872028,5184.28174 604.012706,5183.89459 604.072,5183.776 C604.12,5183.68 604.264,5183.104 604.312,5183.008 C604.312,5182.96 604.432,5182.72 604.456,5182.672 C604.48,5182.576 604.528,5182.168 604.576,5182.096 C604.912,5181.352 604.96,5181.256 604.96,5181.04 C604.96,5180.944 604.936,5180.704 604.768,5180.704 C604.6784,5180.704 604.47904,5180.94965 604.274802,5181.23364 L604.100992,5181.4816 C603.93088,5181.72928 603.7792,5181.9616 603.712,5182.048 L601.936,5184.184 L600.472,5186.032 L599.944,5186.56 C599.848,5186.512 599.152,5186.248 599.104,5186.248 C598.9504,5186.2288 598.88896,5186.22496 598.600192,5186.23648 L598.336,5186.248 L598.336,5186.248 L598.264,5186.392 L598.408,5186.608 C598.456,5186.752 598.48,5186.776 598.696,5187.016 C598.704,5187.024 598.736,5187.096 598.775111,5187.19022 L598.857811,5187.39592 C598.912593,5187.5363 598.96,5187.66667 598.96,5187.688 C598.96,5187.784 598.792,5188.576 598.768,5188.696 L598.768,5188.744 C598.768,5188.768 599.32,5189.68 599.392,5189.728 C600.328,5190.616 600.832,5190.808 601.288,5190.808 Z M641.715713,5191.6 C641.739713,5191.6 642.195713,5191.528 642.219713,5191.528 C642.339713,5191.528 642.915713,5191.552 643.059713,5191.552 C643.419713,5191.552 643.755713,5191.48 643.899713,5191.432 C644.019713,5191.408 644.547713,5191.36 644.667713,5191.336 C644.763713,5191.336 645.195713,5191.12 645.291713,5191.096 C646.155713,5190.904 646.803713,5190.064 646.803713,5189.848 C646.803713,5189.728 646.707713,5189.632 646.659713,5189.56 C646.611713,5189.392 646.347713,5189.032 646.299713,5188.984 C646.251713,5188.96 645.819713,5188.744 645.723713,5188.672 L645.675713,5188.504 C645.339713,5188.048 645.291713,5187.904 644.835713,5186.464 C644.715713,5186.128 644.523713,5185.72 644.235713,5185.456 L644.187713,5185.432 L644.067713,5185.552 L643.947713,5185.552 L643.827713,5188.12 C643.803713,5188.408 643.755713,5188.624 643.659713,5188.696 C643.395713,5188.912 641.499713,5189.32 640.611713,5189.32 C640.395713,5189.32 638.595713,5189.272 638.523713,5188.984 C638.504513,5188.9072 638.500673,5187.9088 638.499905,5187.40192 L638.499713,5187.136 L638.499713,5187.136 C638.499713,5186.488 638.571713,5186.488 639.219713,5186.488 C639.339713,5186.488 639.963713,5186.392 640.107713,5186.392 C640.275713,5186.392 640.491713,5186.512 640.731713,5186.68 C640.875713,5186.776 641.187713,5186.992 641.427713,5186.992 C641.547713,5186.992 641.691713,5186.824 641.811713,5186.704 C641.907713,5186.584 642.627713,5185.84 642.723713,5185.744 C643.035713,5185.504 643.491713,5183.248 643.491713,5182.648 C643.491713,5182.048 643.587713,5181.976 644.043713,5181.616 C644.091713,5181.568 644.187713,5181.496 644.187713,5181.376 C644.187713,5181.04 643.755713,5180.464 643.539713,5180.224 C643.443713,5180.152 642.915713,5179.792 642.843713,5179.672 C642.627713,5179.216 641.643713,5178.832 641.475713,5178.832 C641.355713,5178.832 641.211713,5178.928 641.139713,5178.952 L641.115713,5179.168 C640.995713,5179.312 640.899713,5179.336 640.827713,5179.336 C640.587713,5179.36 639.387713,5179.48 639.099713,5179.48 C638.979713,5179.48 638.931713,5179.336 638.931713,5179.12 C638.931713,5178.208 638.979713,5178.208 639.291713,5178.208 C639.531713,5178.16 639.939713,5178.112 640.107713,5178.112 C640.203713,5178.112 640.611713,5178.424 640.707713,5178.472 C640.803713,5178.52 640.875713,5178.544 641.043713,5178.544 C641.139713,5178.544 641.307713,5178.544 641.451713,5178.472 C641.571713,5178.424 641.691713,5178.208 641.787713,5178.136 C642.387713,5177.752 642.411713,5177.656 642.627713,5176.84 L643.155713,5174.92 C643.179713,5174.896 643.179713,5174.848 643.179713,5174.8 C643.179713,5174.632 643.251713,5174.272 643.323713,5174.128 C643.347713,5174.056 643.683713,5173.864 643.731713,5173.792 C643.899713,5173.528 643.923713,5173.528 644.091713,5173.432 C644.115713,5173.336 644.139713,5173.216 644.139713,5173.144 C644.139713,5172.808 643.635713,5172.352 643.395713,5172.184 L641.691713,5171.056 C641.571713,5171.056 641.019713,5170.936 640.899713,5170.936 C640.755713,5170.912 640.515713,5170.912 640.347713,5170.912 C640.299713,5170.912 640.203713,5170.96 640.155713,5170.96 C640.203713,5171.08 640.203713,5171.128 640.179713,5171.224 L637.899713,5171.392 L635.475713,5171.632 C635.355713,5171.656 634.299713,5171.968 634.083713,5171.968 C633.939713,5171.968 633.243713,5171.728 633.075713,5171.728 C633.051713,5171.728 631.803713,5171.8 631.731713,5171.824 L631.755713,5171.896 C631.827713,5171.944 632.115713,5172.232 632.163713,5172.304 C632.691713,5172.568 632.715713,5172.664 632.955713,5173.408 C633.051713,5173.744 633.147713,5175.496 633.147713,5176.048 C633.147713,5176.144 633.291713,5176.936 633.315713,5177.104 C633.435713,5177.8 634.779713,5179.024 635.283713,5179.024 C635.331713,5179.024 635.379713,5179 635.403713,5179 C635.451713,5178.976 635.643713,5178.808 635.715713,5178.76 C635.811713,5178.784 635.883713,5178.784 636.051713,5178.832 C636.171713,5178.832 636.507713,5178.76 636.579713,5178.76 C636.579713,5178.904 636.627713,5179.288 636.627713,5179.456 C636.627713,5179.552 636.579713,5179.696 636.555713,5179.792 C636.387713,5179.816 635.811713,5179.912 635.595713,5179.936 C635.475713,5179.96 634.923713,5180.104 634.779713,5180.128 L633.123713,5180.272 C633.051713,5180.296 632.619713,5180.368 632.523713,5180.368 C632.091713,5180.368 632.067713,5180.296 631.851713,5179.792 C631.827713,5179.696 631.251713,5179.048 631.179713,5178.976 C630.699713,5178.736 630.651713,5178.712 630.507713,5178.592 C630.555713,5178.52 630.795713,5178.184 630.867713,5178.112 L631.635713,5177.104 L631.635713,5177.104 C631.683713,5177.056 631.875713,5176.648 631.923713,5176.576 C631.995713,5176.48 632.451713,5176 632.547713,5175.88 C632.571713,5175.832 632.907713,5175.568 632.907713,5175.496 L632.907713,5175.424 C632.883713,5175.256 632.427713,5174.68 632.331713,5174.536 C632.283713,5174.464 631.923713,5174.224 631.851713,5174.152 C631.347713,5173.744 631.155713,5173.576 630.099713,5173.336 C630.123713,5173.456 630.315713,5173.96 630.315713,5174.104 C630.315713,5174.176 629.835713,5175.328 629.811713,5175.376 L629.043713,5176.864 L628.851713,5177.272 C628.827713,5177.32 628.803713,5177.32 628.755713,5177.32 C628.659713,5177.32 627.891713,5177.152 627.891713,5176.984 C627.891713,5176.936 629.283713,5173.984 629.379713,5173.768 C629.427713,5173.672 629.859713,5173.432 629.955713,5173.384 C630.027713,5173.168 630.027713,5173.096 630.027713,5173.024 C630.027713,5172.76 629.355713,5172.016 629.115713,5171.8 C627.867713,5170.792 627.339713,5170.768 626.475713,5170.768 C626.403713,5170.768 626.355713,5170.816 626.355713,5170.864 C626.355713,5170.912 626.403713,5170.96 626.427713,5170.984 C626.475713,5171.176 626.499713,5171.2 626.811713,5171.464 C626.883713,5171.584 627.051713,5171.776 627.147713,5171.872 C627.123713,5172.112 626.955713,5172.904 626.907713,5173.072 L625.971713,5175.88 C625.923713,5176.048 625.611713,5176.696 625.515713,5176.768 C625.203713,5176.84 624.963713,5176.84 624.939713,5176.84 C624.819713,5176.84 624.555713,5176.816 624.459713,5176.792 C624.459713,5176.864 624.459713,5176.864 624.363713,5176.96 C624.339713,5176.984 624.291713,5177.344 624.291713,5177.392 C624.291713,5177.536 624.699713,5178.208 624.723713,5178.232 L624.723713,5178.304 C624.723713,5178.376 624.843713,5178.928 625.323713,5178.928 C625.371713,5178.976 625.467713,5179.048 625.611713,5179.048 C625.683713,5179.048 625.731713,5179.024 625.923713,5178.952 C626.403713,5179 627.291713,5179.096 627.603713,5179.24 C627.363713,5179.888 625.635713,5181.88 625.587713,5181.904 L625.563713,5181.88 C624.843713,5182.144 624.723713,5182.192 624.051713,5182.192 C623.955713,5182.192 623.931713,5182.192 623.787713,5182.144 C623.739713,5182.168 623.643713,5182.288 623.643713,5182.384 C623.643713,5182.432 624.195713,5183.152 624.699713,5183.488 C624.699713,5183.512 624.867713,5183.632 624.891713,5183.656 C624.939713,5183.728 625.179713,5184.064 625.227713,5184.112 C625.227713,5184.136 625.827713,5184.4 625.995713,5184.4 C626.067713,5184.4 627.339713,5183.8 627.555713,5183.584 C627.771713,5183.344 627.771713,5183.344 627.987713,5183.296 C628.083713,5183.56 628.179713,5183.824 628.179713,5184.424 C628.179713,5184.568 628.083713,5185.216 628.059713,5185.36 L627.963713,5187.112 C627.963713,5187.208 627.795713,5188.48 627.723713,5188.624 L627.531713,5188.6 C627.555713,5189.368 628.155713,5191.408 629.043713,5191.408 C629.379713,5191.408 629.787713,5191.216 629.931713,5190.856 C630.219713,5190.136 630.315713,5189.152 630.315713,5188.432 C630.315713,5188.336 630.243713,5187.808 630.243713,5187.712 C630.243713,5187.544 630.315713,5186.824 630.291713,5186.656 L630.339713,5186.608 C630.483713,5186.752 631.059713,5187.592 631.131713,5187.664 C631.755713,5188.24 632.067713,5188.552 632.667713,5188.552 C632.691713,5188.552 633.387713,5188.24 633.411713,5188.24 C633.699713,5187.88 633.747713,5187.832 633.723713,5187.52 L633.603713,5187.448 C633.507713,5187.28 633.243713,5186.464 633.099713,5186.32 C631.899713,5185.168 631.035713,5185.024 630.291713,5184.904 C630.291713,5184.88 630.171713,5183.992 630.147713,5183.944 C630.120021,5183.89785 629.985819,5183.75583 629.817481,5183.58487 L629.493235,5183.26033 C629.309985,5183.07872 629.136021,5182.90831 629.043713,5182.816 L629.067713,5182.768 C629.211713,5182.696 630.315713,5182.192 630.435713,5182.168 C630.483713,5182.24 630.747713,5182.528 630.819713,5182.576 C630.915713,5182.672 631.563713,5182.744 631.587713,5182.744 C631.635713,5182.744 631.755713,5182.696 631.803713,5182.648 L632.139713,5182.096 C632.139713,5182.072 632.259713,5181.688 632.259713,5181.424 C632.259713,5181.304 632.235713,5181.232 632.187713,5181.04 L632.259713,5181.064 C632.355713,5181.208 632.427713,5181.304 632.523713,5181.856 C632.547713,5182 632.571713,5182.696 632.595713,5182.864 L632.883713,5184.4 C633.123713,5185.624 633.147713,5185.648 633.267713,5185.84 C633.627713,5186.32 633.939713,5186.488 634.755713,5186.944 C634.803713,5186.896 634.875713,5186.8 634.923713,5186.8 C635.067713,5186.8 635.427713,5187.064 635.547713,5187.064 C635.571713,5187.064 636.195713,5186.944 636.267713,5186.944 C636.411713,5186.944 636.459713,5187.04 636.459713,5187.136 C636.459713,5187.232 636.411713,5187.688 636.411713,5187.736 C636.411713,5187.88 636.507713,5188.528 636.507713,5188.696 C636.507713,5188.816 636.483713,5189.032 636.483713,5189.128 C636.459713,5189.632 637.035713,5191.168 639.051713,5191.36 L640.875713,5191.528 C641.019713,5191.528 641.619713,5191.6 641.715713,5191.6 Z M640.299713,5174.2 L639.747713,5174.032 L639.339713,5173.936 C639.315713,5173.888 639.243713,5173.6 639.219713,5173.528 C639.195713,5173.456 639.003713,5173.264 638.835713,5173.12 C638.763713,5173.072 638.259713,5172.952 638.259713,5172.856 C638.259713,5172.736 638.595713,5172.736 638.643713,5172.736 C638.883713,5172.736 640.011713,5172.568 640.251713,5172.568 C640.299713,5172.568 640.347713,5172.592 640.371713,5172.64 C640.371713,5172.688 640.395713,5173.72 640.395713,5173.792 C640.395713,5173.96 640.371713,5174.032 640.299713,5174.2 Z M635.451713,5174.632 C635.427713,5174.512 635.427713,5173.888 635.379713,5173.768 C635.355713,5173.6 635.307713,5173.456 635.307713,5173.432 L635.321046,5173.36 L635.321046,5173.36 L635.379713,5173.216 L635.379713,5173.216 C635.475713,5173.216 635.859713,5173.264 635.955713,5173.264 C636.027713,5173.264 636.435713,5173.144 636.531713,5173.12 C636.627713,5173.312 636.651713,5173.984 636.651713,5174.2 C636.651713,5174.416 636.579713,5174.464 636.507713,5174.488 C636.435713,5174.512 636.003713,5174.632 635.451713,5174.632 Z M640.203713,5176.864 C640.035713,5176.864 639.219713,5176.816 639.051713,5176.816 C639.003713,5176.672 638.955713,5176.504 638.955713,5176.216 C638.955713,5175.904 638.979713,5175.832 639.123713,5175.616 L640.227713,5175.52 C640.251713,5175.736 640.275713,5175.88 640.275713,5175.88 C640.275713,5176.024 640.203713,5176.696 640.203713,5176.864 Z M635.523713,5177.344 L635.427713,5176.744 L635.427713,5176.144 C635.523713,5176.096 636.459713,5176 636.555713,5176 C636.627713,5176.336 636.651713,5176.48 636.603713,5177.128 C636.387713,5177.248 636.315713,5177.272 635.523713,5177.344 Z M628.659713,5181.184 L628.635713,5181.16 C628.779713,5180.824 629.379713,5179.888 629.595713,5179.6 C629.835713,5179.888 630.171713,5180.416 630.171713,5180.728 C630.171713,5180.872 630.075713,5180.896 629.835713,5180.92 C629.739713,5180.92 628.827713,5181.136 628.659713,5181.184 Z M640.635713,5182.288 C640.443713,5182.264 640.419713,5182.24 640.203713,5182.168 C639.747713,5182.024 639.675713,5182.024 639.027713,5181.976 C638.859713,5181.952 638.859713,5181.856 638.859713,5181.568 C638.859713,5181.496 638.859713,5181.184 638.955713,5181.016 C638.979713,5180.944 640.011713,5180.824 640.659713,5180.824 C640.683713,5180.992 640.707713,5181.04 640.707713,5181.184 C640.707713,5181.472 640.707713,5182 640.635713,5182.288 Z M634.851713,5182.84 C634.731713,5182.84 634.563713,5181.976 634.563713,5181.856 C634.683713,5181.832 635.139713,5181.592 635.259713,5181.544 C635.787713,5181.376 636.195713,5181.376 636.459713,5181.376 C636.483713,5181.592 636.507713,5181.664 636.507713,5181.88 L636.507014,5182.13073 C636.503169,5182.52559 636.478174,5182.58338 636.315713,5182.624 C636.219713,5182.648 634.899713,5182.84 634.851713,5182.84 Z M638.907713,5184.88 C638.883713,5184.88 638.739713,5184.856 638.691713,5184.832 L638.691713,5184.28 C638.691713,5184.16 638.691713,5183.896 638.859713,5183.872 C639.099713,5183.848 640.275713,5183.752 640.563713,5183.728 C640.563713,5184.04 640.539713,5184.544 640.467713,5184.736 C640.429313,5184.8128 640.375553,5184.82816 639.962369,5184.83123 L639.579713,5184.832 L639.579713,5184.832 C639.531713,5184.832 638.931713,5184.88 638.907713,5184.88 Z M635.331713,5185.384 C635.259713,5185.336 635.115713,5184.88 635.067713,5184.76 L635.043713,5184.304 L635.067713,5184.184 C635.115713,5184.232 635.403713,5184.424 635.499713,5184.424 L636.363713,5184.136 C636.435713,5184.328 636.459713,5184.448 636.459713,5184.664 C636.459713,5184.832 636.435713,5184.952 636.411713,5185.168 L636.267713,5185.192 L635.331713,5185.384 Z M624.339713,5188.816 C624.459713,5188.792 624.987713,5188.576 625.131713,5188.552 C625.827713,5188.312 626.211713,5188.192 627.027713,5187.376 C627.099713,5187.304 627.315713,5186.824 627.387713,5186.728 C627.675713,5186.296 627.723713,5186.248 627.723713,5186.2 C627.723713,5186.056 627.651713,5185.936 627.531713,5185.744 C627.099713,5185.456 627.051713,5185.408 626.739713,5185.12 C626.715713,5185.096 626.571713,5185.072 626.523713,5185.048 C625.467713,5184.424 625.347713,5184.352 624.675713,5184.232 C624.699713,5184.328 624.723713,5184.448 624.747713,5184.496 C624.819713,5184.664 625.371713,5185.312 625.371713,5185.48 C625.371713,5185.672 625.059713,5186.224 624.915713,5186.416 L623.523713,5188.048 C623.475713,5188.096 622.947713,5188.432 622.827713,5188.504 C623.245713,5188.834 623.724213,5188.8615 623.893491,5188.86379 L623.931713,5188.864 C624.051713,5188.864 624.195713,5188.864 624.339713,5188.816 Z M661.768689,5189.536 C664.816689,5188.456 668.080689,5185.816 668.080689,5181.136 C668.080689,5177.32 665.344689,5173.624 659.512689,5173.624 C651.208689,5173.624 648.448689,5181.52 651.112689,5185.528 C652.264689,5187.232 654.040689,5188.48 655.480689,5187.304 C657.520689,5185.624 660.112689,5181.256 660.784689,5178.784 C661.000689,5178.04 660.592689,5177.296 660.016689,5176.816 C663.424689,5177.2 664.648689,5179.576 664.312689,5182.072 C663.976689,5184.376 661.744689,5186.56 659.680689,5187.496 C657.712689,5188.408 658.384689,5190.76 661.768689,5189.536 Z M653.968689,5183.68 C652.624689,5182.792 653.032689,5177.56 657.880689,5176.84 L657.808689,5177.08 C657.064689,5180.512 654.688689,5184.184 653.968689,5183.68 Z M678.642297,5189.968 C685.026297,5186.704 686.922297,5181.304 688.266297,5176.648 C688.890297,5174.488 687.234297,5172.952 685.314297,5172.952 C684.330297,5172.952 682.458297,5174.128 682.986297,5174.416 C683.514297,5174.704 684.546297,5174.896 684.282297,5175.928 C682.434297,5183.224 679.002297,5186.224 675.474297,5188.48 C673.530297,5189.704 675.834297,5191.408 678.642297,5189.968 Z M680.202297,5179.072 C680.784697,5177.8624 680.09179,5178.32533 679.29435,5178.99733 L679.122297,5179.144 L679.122297,5179.144 C678.594297,5179.6 677.082297,5176.36 677.010297,5175.16 C676.914297,5173.888 672.786297,5173.264 673.026297,5175.208 C673.170297,5176.408 674.370297,5180.152 675.762297,5181.28 C677.682297,5182.816 679.578297,5180.416 680.202297,5179.072 Z M703.279273,5174.728 C703.231273,5173.696 702.391273,5172.088 701.695273,5171.368 C700.687273,5170.336 697.399273,5171.2 698.455273,5172.616 C699.199273,5173.6 699.775273,5174.944 699.247273,5175.04 C698.215273,5175.208 698.983273,5175.616 700.423273,5176.048 C701.719273,5176.432 703.327273,5175.736 703.279273,5174.728 Z M699.127273,5191.096 C705.079273,5187.688 708.367273,5182.264 708.871273,5180.128 C709.183273,5178.808 707.887273,5176.816 706.351273,5176.672 C704.671273,5176.528 700.543273,5176.672 698.575273,5177.056 C697.327273,5177.296 696.583273,5178.52 696.223273,5179.456 C696.103273,5178.808 696.055273,5178.28 696.103273,5177.968 C696.295273,5176.984 694.015273,5175.328 693.511273,5177.032 C693.079273,5178.472 692.935273,5183.176 693.871273,5184.448 C694.807273,5185.696 697.375273,5185.144 697.135273,5183.824 C697.159273,5182.96 698.071273,5181.16 699.031273,5180.944 C700.951273,5180.512 701.143273,5180.56 702.487273,5180.32 C703.135273,5180.2 704.671273,5179.936 704.311273,5180.68 C703.231273,5182.984 700.183273,5186.632 696.367273,5189.128 C693.871273,5190.784 697.231273,5192.176 699.127273,5191.096 Z M724.806354,5187.832 C726.966354,5186.488 729.462354,5184.28 731.142354,5182.288 C732.942354,5180.152 731.550354,5177.272 729.678354,5179.072 C729.484001,5179.25976 729.250312,5179.4941 728.991748,5179.75316 L728.646738,5180.09814 C728.448716,5180.29546 728.241163,5180.50061 728.029349,5180.70564 L727.773465,5180.95111 L727.773465,5180.95111 L727.515514,5181.19341 C726.13786,5182.47175 724.758354,5183.48424 724.758354,5182.144 C724.758354,5180.152 724.734354,5178.592 724.758354,5176.528 C724.782354,5174.848 720.894354,5173.336 720.894354,5176.096 L720.894354,5185.816 C720.894354,5187.304 723.414354,5188.696 724.806354,5187.832 Z M715.518354,5187.28 C717.222354,5185.096 719.502354,5179.984 719.310354,5177.944 C719.118354,5175.88 715.206354,5176.408 715.110354,5177.128 C715.014354,5177.848 715.542354,5177.752 715.470354,5178.4 C715.302354,5180.032 713.454354,5184.76 712.182354,5186.296 C710.910354,5187.832 713.838354,5189.44 715.518354,5187.28 Z M751.92199,5190.376 C752.73799,5189.752 753.76999,5188.864 754.44199,5187.208 C762.48199,5186.68 763.17799,5175.064 755.08999,5174.68 L754.94599,5173.816 C754.56199,5171.848 752.30599,5170.96 750.28999,5173.096 C749.47399,5173.984 748.53799,5175.424 748.08199,5177.608 C746.90599,5178.976 746.23399,5180.56 745.80199,5181.76 C745.68199,5179.24 746.11399,5178.184 746.28199,5176.312 C746.40199,5174.704 743.47399,5174.032 743.18599,5175.76 C742.41799,5180.752 743.23399,5184.568 744.14599,5186.656 C744.88999,5188.312 747.52999,5186.248 747.36199,5184.952 C747.28999,5184.496 747.43399,5183.32 747.98599,5182.048 C748.39399,5184.52 749.64199,5186.104 751.29799,5186.8 C750.81799,5188.192 750.26599,5188.792 749.42599,5189.656 C747.91399,5191.288 750.64999,5191.312 751.92199,5190.376 Z M749.20999,5176.504 C749.54599,5175.232 750.02599,5174.224 750.45799,5173.792 C750.96199,5173.288 751.32199,5173.528 751.58599,5174.44 C751.65799,5174.632 751.70599,5174.872 751.77799,5175.112 C750.76999,5175.448 749.92999,5175.928 749.20999,5176.504 Z M751.89799,5184.52 C750.43399,5184.256 748.99399,5183.272 748.80199,5180.56 C749.54599,5179.456 750.64999,5178.496 752.23399,5178.088 C752.37799,5179.96 752.35399,5182.216 751.89799,5184.52 Z M755.16199,5184.184 C755.44999,5182.192 755.52199,5180.104 755.42599,5178.088 C758.49799,5179.048 758.35399,5182.888 755.16199,5184.184 Z M778.154335,5188.432 C780.170335,5187.16 779.162335,5183.968 777.194335,5185.168 C776.210335,5185.768 773.426335,5186.944 771.698335,5187.064 C770.546335,5187.136 769.874335,5186.344 769.850335,5185.264 C769.778335,5181.136 770.210335,5177.608 770.450335,5175.016 C770.690335,5171.872 765.794335,5171.68 766.274335,5173.408 C766.442335,5173.984 766.562335,5174.608 766.562335,5175.304 C766.554059,5176.7109 766.488708,5177.90091 766.416469,5179.0738 L766.3727,5179.77707 C766.248622,5181.77293 766.133645,5183.83476 766.274335,5186.944 C766.394335,5189.224 767.834335,5190.568 770.210335,5190.76 C773.234335,5191.024 775.898335,5189.896 778.154335,5188.432 Z M799.511311,5175.28 C799.295311,5174.824 799.343311,5174.248 799.223311,5173.768 C799.799311,5174.344 800.135311,5174.776 800.567311,5175.496 C800.879311,5176.024 802.631311,5175.352 801.983311,5173.864 C801.359311,5172.376 800.135311,5171.944 799.343311,5171.728 C798.647311,5171.56 797.807311,5171.872 797.807311,5172.424 C797.831311,5172.88 798.143311,5173.552 797.855311,5173.36 C797.231311,5172.904 796.679311,5172.544 796.199311,5172.52 C795.215311,5172.496 794.543311,5173.144 795.383311,5173.792 C796.847311,5174.92 797.135311,5175.904 797.591311,5176.864 C797.975311,5177.704 800.183311,5176.744 799.511311,5175.28 Z M794.687311,5190.904 C798.791311,5190.136 796.991311,5185.792 795.095311,5186.92 C793.199311,5188.072 789.191311,5188.072 788.975311,5185.888 C788.783311,5183.728 794.399311,5181.664 796.439311,5180.8 C798.767311,5179.84 796.991311,5176.384 795.023311,5176.432 C794.063311,5176.456 794.903311,5176.912 793.631311,5177.656 C793.559311,5177.698 793.445311,5177.7595 793.296811,5177.839 L793.049123,5177.97156 C792.596311,5178.21437 791.951311,5178.565 791.231311,5179 C790.607311,5177.272 791.063311,5174.848 790.943311,5173.312 C790.775311,5171.464 786.911311,5171.8 787.247311,5174.08 C787.463311,5175.52 787.535311,5179.336 788.471311,5180.92 C786.503311,5182.576 784.847311,5184.712 785.399311,5187.088 C786.407311,5191.552 791.543311,5191.504 794.687311,5190.904 Z M813.084287,5175.688 C814.452287,5175.64 815.508287,5173.288 813.924287,5172.064 C812.988287,5171.344 811.500287,5170.84 809.940287,5170.768 C807.924287,5170.648 806.964287,5173.096 808.236287,5173.576 C809.748287,5174.128 810.468287,5174.272 810.828287,5174.752 C811.332287,5175.448 808.260287,5175.808 808.596287,5176.48 C808.788287,5176.888 810.732287,5175.808 813.084287,5175.688 Z M812.172287,5190.928 C813.708287,5189.704 816.204287,5187.064 816.684287,5182.6 C817.548287,5174.512 808.740287,5177.944 806.748287,5178.64 C803.940287,5179.672 806.484287,5183.152 807.852287,5182.264 C809.580287,5181.16 813.180287,5179.984 813.036287,5182.312 C812.868287,5184.952 811.692287,5187.088 809.244287,5189.608 C807.300287,5191.576 810.588287,5192.2 812.172287,5190.928 Z M833.747368,5187.4 C834.035368,5186.056 833.867368,5184.928 833.483368,5183.968 C835.043368,5184.208 836.099368,5185.312 836.699368,5186.872 C836.820701,5187.184 836.578998,5187.33326 836.323471,5187.43505 L836.205826,5187.47908 C835.799535,5187.62433 835.497368,5187.692 836.771368,5188.168 C838.403368,5188.768 840.611368,5187.952 839.963368,5185.744 C839.315368,5183.584 837.419368,5180.296 831.395368,5181.16 C830.339368,5180.2 829.355368,5179.624 829.499368,5179.312 C830.075368,5178.064 833.555368,5179.072 834.227368,5176.696 C834.851368,5174.56 831.275368,5173.36 829.283368,5171.92 C828.131368,5171.08 827.579368,5172.856 828.083368,5174.056 C828.395368,5174.824 829.283368,5175.952 829.475368,5176.12 C830.147368,5176.648 827.363368,5176.816 827.051368,5179.048 C826.931368,5180.056 827.603368,5181.064 828.347368,5182.168 C827.94155,5182.36764 827.529038,5182.5878 827.119507,5182.81748 L826.711329,5183.04992 C824.272525,5184.45871 822.057186,5186.07782 822.155368,5185.528 C822.515368,5183.512 820.763368,5185.864 820.523368,5186.776 C820.163368,5188.024 820.883368,5190.064 822.611368,5189.44 C823.571368,5189.104 824.555368,5188.432 825.539368,5187.688 C828.227368,5189.32 826.715368,5189.992 828.587368,5190.208 C830.315368,5190.424 833.267368,5189.56 833.747368,5187.4 Z M827.387368,5187.88 C827.219368,5187.832 826.475368,5187.616 825.851368,5187.472 C827.099368,5186.512 828.395368,5185.432 829.763368,5184.736 C829.955368,5185.312 830.027368,5185.912 829.931368,5186.56 C829.811368,5187.352 828.443368,5188.144 827.387368,5187.88 Z" id="沖縄のソウルゆしどうふ"></path>
        </g>
    </g>
</svg>