<?xml version="1.0" encoding="UTF-8"?>
<svg width="271px" height="18px" viewBox="0 0 271 18" version="1.1" xmlns="http://www.w3.org/2000/svg" xmlns:xlink="http://www.w3.org/1999/xlink">
    <!-- Generator: Sketch 54.1 (76490) - https://sketchapp.com -->
    <title>logo-soy-milk-raw-caramel-s</title>
    <desc>Created with Sketch.</desc>
    <g id="Symbols" stroke="none" stroke-width="1" fill="none" fill-rule="evenodd">
        <g id="contents/3items" transform="translate(-151.000000, -314.000000)" fill="#512700">
            <g id="Group-49" transform="translate(151.000000, 314.000000)">
                <g id="Group-47" transform="translate(135.643974, 9.267962) rotate(-270.000000) translate(-135.643974, -9.267962) translate(126.843974, -126.332038)">
                    <path d="M14.9620096,270.480627 C14.8820398,270.480627 14.80207,270.480627 14.7758614,270.454038 L13.0655834,269.558848 C12.9856136,269.504987 12.959405,269.423854 12.959405,269.288178 C12.959405,269.207045 12.959405,269.125912 12.9856136,269.099322 C13.3068368,268.530028 13.8935058,267.201221 13.8935058,265.142217 C13.8935058,263.868634 13.1993144,262.648913 12.3183028,262.648913 C9.83386352,262.648913 10.7686363,270.670165 5.4267895,270.670165 C2.67556031,270.670165 1.07280466,268.719565 1.07280466,265.22335 C1.07280466,263.380473 1.81941327,261.511007 2.11375581,260.697632 C2.19372559,260.589228 2.27369537,260.508095 2.40742635,260.480823 C2.48806814,260.480823 2.56803792,260.480823 2.59559053,260.508095 L4.41204693,261.320788 C4.54443388,261.347377 4.59819507,261.456464 4.59819507,261.618729 C4.59819507,261.673273 4.57198649,261.727134 4.54443388,261.808267 C4.33073312,262.513237 3.85024244,264.139305 3.85024244,265.142217 C3.85024244,267.553706 5.23862532,267.608249 5.56052048,267.608249 C8.33795825,267.608249 7.37697688,259.613587 12.5313315,259.613587 C15.0157708,259.613587 16.5661093,262.595052 16.5661093,264.76246 C16.5661093,266.687151 16.4323783,268.39367 15.2294715,270.318361 C15.203263,270.345633 15.0957406,270.480627 14.9620096,270.480627" id="Fill-17"></path>
                    <path d="M8.89942674,244.598608 C6.14685352,244.598608 3.87745904,246.603751 3.87745904,249.422268 C3.87745904,252.240785 6.14685352,254.192066 8.89942674,254.192066 C11.6768645,254.192066 13.8938418,252.240785 13.8938418,249.422268 C13.8938418,246.603751 11.6768645,244.598608 8.89942674,244.598608 M8.81945696,241.536693 C13.0928,241.536693 16.5657733,245.059498 16.5657733,249.394997 C16.5657733,253.731859 13.0928,257.253982 8.81945696,257.253982 C4.54476988,257.253982 1.07314067,253.731859 1.07314067,249.394997 C1.07314067,245.059498 4.54476988,241.536693 8.81945696,241.536693" id="Fill-19"></path>
                    <path d="M16.11176,230.991457 C16.3241167,230.991457 16.4323111,231.099861 16.4323111,231.317352 L16.4323111,233.728841 C16.4323111,233.94565 16.3241167,234.054054 16.11176,234.054054 L10.7685691,234.054054 L1.57943673,239.772222 C1.36573598,239.772222 1.2588856,239.663817 1.2588856,239.447008 L1.2588856,236.628491 C1.2588856,236.411682 1.39328859,236.276006 1.57943673,236.194873 L7.45687946,232.536391 L1.57943673,229.013586 C1.39328859,228.931771 1.2588856,228.796095 1.2588856,228.579968 L1.2588856,225.760769 C1.2588856,225.544642 1.36573598,225.436237 1.57943673,225.436237 L10.7423605,230.991457 L16.11176,230.991457 Z" id="Fill-21"></path>
                    <path d="M8.44527904,214.538585 L16.1116256,214.538585 C16.3246543,214.538585 16.4321767,214.646989 16.4321767,214.86448 L16.4321767,217.275969 C16.4321767,217.492778 16.3246543,217.601182 16.1116256,217.601182 L1.36560157,217.601182 C1.23321463,217.520049 1.17878142,217.438916 1.17878142,217.30324 C1.17878142,217.113021 1.25942321,217.085749 1.36560157,216.978027 L7.85726596,210.689884 C8.07096671,210.554889 8.15160851,210.311491 8.15160851,210.203086 C8.15160851,210.094 8.07096671,209.850601 7.85726596,209.714925 L1.36560157,203.427464 C1.25942321,203.319059 1.17878142,203.292469 1.17878142,203.102932 C1.17878142,202.966574 1.23321463,202.885441 1.36560157,202.804308 L16.1116256,202.804308 C16.3246543,202.804308 16.4321767,202.912713 16.4321767,203.129522 L16.4321767,205.541692 C16.4321767,205.758501 16.3246543,205.866224 16.1116256,205.866224 L8.44527904,205.866224 L12.4511601,209.904462 C12.6386523,210.094 12.6648609,210.094 12.6648609,210.203086 C12.6648609,210.311491 12.6386523,210.311491 12.4511601,210.501028 L8.44527904,214.538585 Z" id="Fill-23"></path>
                    <path d="M16.11176,195.945166 C16.3241167,195.945166 16.4323111,196.053571 16.4323111,196.271062 L16.4323111,198.682551 C16.4323111,198.89936 16.3241167,199.007764 16.11176,199.007764 L1.57943673,199.007764 C1.36573598,199.007764 1.2588856,198.89936 1.2588856,198.682551 L1.2588856,196.271062 C1.2588856,196.053571 1.36573598,195.945166 1.57943673,195.945166 L16.11176,195.945166 Z" id="Fill-25"></path>
                    <path d="M16.11176,181.445893 C16.3241167,181.445893 16.4323111,181.554298 16.4323111,181.771107 L16.4323111,191.825454 C16.4323111,192.042263 16.3241167,192.150668 16.11176,192.150668 L1.57943673,192.150668 C1.36573598,192.150668 1.2588856,192.042263 1.2588856,191.825454 L1.2588856,189.413965 C1.2588856,189.196475 1.36573598,189.08807 1.57943673,189.08807 L13.7334991,189.08807 L13.7334991,181.771107 C13.7334991,181.554298 13.8410215,181.445893 14.0533782,181.445893 L16.11176,181.445893 Z" id="Fill-27"></path>
                    <path d="M6.76127678,170.468676 L16.1116928,164.669376 C16.3240495,164.669376 16.4322439,164.77778 16.4322439,164.994589 L16.4322439,167.813106 C16.4322439,168.002644 16.3240495,168.165591 16.1916625,168.246724 L9.08577649,172.636766 L11.9445281,175.293017 L16.1116928,175.293017 C16.3240495,175.293017 16.4322439,175.40074 16.4322439,175.618231 L16.4322439,178.02972 C16.4322439,178.246529 16.3240495,178.354933 16.1116928,178.354933 L1.57936953,178.354933 C1.36566878,178.354933 1.2588184,178.246529 1.2588184,178.02972 L1.2588184,175.618231 C1.2588184,175.40074 1.36566878,175.293017 1.57936953,175.293017 L7.56299062,175.293017 L1.49939975,169.709844 C1.36566878,169.628711 1.2588184,169.465764 1.2588184,169.276226 L1.2588184,165.97023 C1.2588184,165.753421 1.36566878,165.645016 1.57936953,165.645016 L6.76127678,170.468676 Z" id="Fill-29"></path>
                    <path d="M16.5659077,100.838553 C16.5659077,105.174733 13.0929344,108.697539 8.81959137,108.697539 C4.54423227,108.697539 1.07260306,105.174733 1.07260306,100.838553 C1.07260306,98.6704628 1.92740607,96.6919101 3.31578895,95.2833333 C3.42331134,95.2015186 3.50395313,95.174247 3.58392291,95.174247 C3.66389269,95.174247 3.74386247,95.2015186 3.82383225,95.2833333 L5.29285692,96.8275862 C5.34661812,96.8821293 5.3728267,96.9359907 5.3728267,97.0178054 C5.3728267,97.1255281 5.32040954,97.2339326 5.23909573,97.3157474 C4.35808413,98.2913879 3.87759345,99.4565659 3.87759345,100.865824 C3.87759345,103.684342 6.14698792,105.635623 8.89956114,105.635623 C11.6769989,105.635623 13.8933042,103.684342 13.8933042,100.865824 C13.8933042,99.1313524 13.0929344,97.6948222 11.9169083,96.7191817 C11.8369385,96.6380488 11.7845213,96.5296442 11.7845213,96.4212397 C11.7845213,96.339425 11.8107299,96.2855637 11.8644911,96.2317023 L13.252874,94.7951722 C13.3328437,94.7140392 13.4134855,94.6867677 13.4934553,94.6867677 C13.5734251,94.6867677 13.6533949,94.7140392 13.7609173,94.7951722 C15.4698513,96.2317023 16.5659077,98.4263822 16.5659077,100.838553" id="Fill-31"></path>
                    <path d="M10.4482196,83.9529489 L7.26958889,85.4978836 L10.4482196,87.0428183 L10.4482196,83.9529489 Z M13.1470316,82.6248233 L13.1470316,88.3702621 L16.1119616,89.8067922 C16.2981097,89.8879252 16.4318407,90.0236013 16.4318407,90.2404103 L16.4318407,92.86939 C16.4318407,93.086199 16.3243183,93.1946035 16.1119616,93.1946035 L1.36526557,85.90423 C1.23287862,85.7692358 1.17911743,85.6335597 1.17911743,85.4978836 C1.17911743,85.3622075 1.23287862,85.2265314 1.36526557,85.0908554 L16.1119616,77.8011637 C16.3243183,77.8011637 16.4318407,77.9095682 16.4318407,78.1263772 L16.4318407,80.7553569 C16.4318407,80.9721659 16.2981097,81.107842 16.1119616,81.1889749 L13.1470316,82.6248233 Z" id="Fill-33"></path>
                    <path d="M8.0974441,68.3144059 C8.0974441,67.3387653 7.34949147,66.553344 6.09483956,66.553344 C4.83817161,66.553344 4.03780181,67.3387653 4.03780181,68.3144059 L4.03780181,72.298101 L8.0974441,72.298101 L8.0974441,68.3144059 Z M10.8762259,69.7236645 L10.8762259,72.298101 L16.1118944,72.298101 C16.3242511,72.298101 16.4317735,72.4065055 16.4317735,72.6233145 L16.4317735,75.0354852 C16.4317735,75.2522942 16.3242511,75.3606987 16.1118944,75.3606987 L1.57957113,75.3606987 C1.36519836,75.3606987 1.25902,75.2522942 1.25902,75.0354852 L1.25902,68.0975969 C1.25902,65.5770217 3.28984917,63.4907463 6.06728695,63.4907463 C8.17741388,63.4907463 9.80772214,64.6559243 10.5281222,66.3092634 L16.1118944,63.4089316 C16.3242511,63.4089316 16.4317735,63.5173361 16.4317735,63.7341451 L16.4317735,66.5799338 C16.4317735,66.7967428 16.2980425,66.9324189 16.1118944,67.0135518 L10.8762259,69.7236645 Z" id="Fill-35"></path>
                    <path d="M10.4482196,52.5400504 L7.26958889,54.084985 L10.4482196,55.6299197 L10.4482196,52.5400504 Z M13.1470316,51.2119247 L13.1470316,56.9573635 L16.1119616,58.3938937 C16.2981097,58.4750266 16.4318407,58.6107027 16.4318407,58.8275117 L16.4318407,61.4564914 C16.4318407,61.6733004 16.3243183,61.7817049 16.1119616,61.7817049 L1.36526557,54.4913315 C1.23287862,54.3563372 1.17911743,54.2206611 1.17911743,54.084985 C1.17911743,53.949309 1.23287862,53.8136329 1.36526557,53.6779568 L16.1119616,46.3882651 C16.3243183,46.3882651 16.4318407,46.4966696 16.4318407,46.7134787 L16.4318407,49.3424584 C16.4318407,49.5592674 16.2981097,49.6949435 16.1119616,49.7760764 L13.1470316,51.2119247 Z" id="Fill-37"></path>
                    <path d="M8.44527904,40.885407 L16.1116256,40.885407 C16.3246543,40.885407 16.4321767,40.9938115 16.4321767,41.2106205 L16.4321767,43.6227912 C16.4321767,43.8396002 16.3246543,43.9480047 16.1116256,43.9480047 L1.36560157,43.9480047 C1.23321463,43.86619 1.17878142,43.7850571 1.17878142,43.649381 C1.17878142,43.4598435 1.25942321,43.432572 1.36560157,43.3241675 L7.85726596,37.0367061 C8.07096671,36.9017119 8.15160851,36.6576313 8.15160851,36.5492268 C8.15160851,36.4408223 8.07096671,36.1967417 7.85726596,36.0610656 L1.36560157,29.7742861 C1.25942321,29.6651998 1.17878142,29.63861 1.17878142,29.4490725 C1.17878142,29.3133965 1.23321463,29.2322635 1.36560157,29.1511306 L16.1116256,29.1511306 C16.3246543,29.1511306 16.4321767,29.2588533 16.4321767,29.4763441 L16.4321767,31.887833 C16.4321767,32.104642 16.3246543,32.2130465 16.1116256,32.2130465 L8.44527904,32.2130465 L12.4511601,36.2512848 C12.6386523,36.4408223 12.6648609,36.4408223 12.6648609,36.5492268 C12.6648609,36.6576313 12.6386523,36.6576313 12.4511601,36.8471687 L8.44527904,40.885407 Z" id="Fill-39"></path>
                    <path d="M1.57943673,25.354723 C1.36573598,25.354723 1.2588856,25.2463185 1.2588856,25.0295095 L1.2588856,14.975162 C1.2588856,14.758353 1.36573598,14.6499485 1.57943673,14.6499485 L3.69023568,14.6499485 C3.90393643,14.6499485 4.01011479,14.758353 4.01011479,14.975162 L4.01011479,22.2921253 L7.72366939,22.2921253 L7.72366939,16.4928251 C7.72366939,16.2760161 7.83119178,16.1676116 8.0435485,16.1676116 L10.0743777,16.1676116 C10.2880784,16.1676116 10.3942568,16.2760161 10.3942568,16.4928251 L10.3942568,22.2921253 L13.6810819,22.2921253 L13.6810819,14.975162 C13.6810819,14.758353 13.7872603,14.6499485 14.000961,14.6499485 L16.11176,14.6499485 C16.3241167,14.6499485 16.4323111,14.758353 16.4323111,14.975162 L16.4323111,25.0295095 C16.4323111,25.2463185 16.3241167,25.354723 16.11176,25.354723 L1.57943673,25.354723 Z" id="Fill-41"></path>
                    <path d="M16.11176,0.555931031 C16.3241167,0.555931031 16.4323111,0.664335536 16.4323111,0.881144547 L16.4323111,10.935492 C16.4323111,11.152301 16.3241167,11.2607055 16.11176,11.2607055 L1.57943673,11.2607055 C1.36573598,11.2607055 1.2588856,11.152301 1.2588856,10.935492 L1.2588856,8.52400309 C1.2588856,8.30651229 1.36573598,8.19810778 1.57943673,8.19810778 L13.7334991,8.19810778 L13.7334991,0.881144547 C13.7334991,0.664335536 13.8410215,0.555931031 14.0533782,0.555931031 L16.11176,0.555931031 Z" id="Fill-43"></path>
                    <path d="M15.7225961,139.863698 C15.6936995,140.394812 15.5062073,140.752751 15.1298789,140.991377 C14.36983,141.475448 12.8436841,141.418177 11.4956221,140.852974 C9.38952724,139.969375 7.76593913,138.138089 7.76593913,136.65997 C7.76593913,136.640879 7.76593913,136.621789 7.76661115,136.603381 C7.78475555,135.964544 8.03205705,135.695919 8.21753317,135.550016 C8.95271753,134.962996 10.4506388,135.125262 10.9674183,135.237075 C10.9909389,135.242529 11.0124433,135.245938 11.0352918,135.248666 C12.0540665,135.70751 13.018408,136.151355 13.3618076,136.40089 C14.3395893,137.109269 15.8119741,138.176951 15.7225961,139.863698 M11.5634956,115.222467 C11.3800355,115.590633 11.5251907,116.039933 11.8880788,116.227425 C12.8927412,116.744221 14.3879744,117.875991 14.4108229,118.66414 C14.4202311,118.958673 14.3590778,119.14821 14.236099,119.247751 C14.0775035,119.374564 13.8086975,119.380019 13.6534621,119.344566 C11.8847187,118.619824 11.2362243,118.348471 11.2187519,118.342335 C8.3714246,117.223519 7.06099545,116.611954 7.04822717,116.607181 C6.67861895,116.431962 6.24113722,116.597636 6.07044542,116.971939 C5.89908161,117.344877 6.05969318,117.790768 6.4293014,117.962579 C6.48239058,117.989168 7.78677159,118.598688 10.6724038,119.73114 C10.6724038,119.73114 11.3343385,120.006583 13.1628912,120.758597 C14.9793476,121.501065 15.7219241,122.274896 15.7219241,123.420984 C15.7219241,124.10141 15.4578222,124.269812 15.3711323,124.325719 C14.9578431,124.588889 14.190402,124.465485 13.7952572,124.273221 C13.740152,124.245267 13.6830307,124.228223 13.6265815,124.218678 C11.8786706,123.501435 11.2362243,123.23281 11.2187519,123.225992 C8.3714246,122.10854 7.06099545,121.496293 7.04822717,121.490838 C6.67861895,121.316982 6.24113722,121.480612 6.07044542,121.855596 C5.89908161,122.229216 6.05969318,122.674425 6.4293014,122.848281 C6.48239058,122.874189 7.78677159,123.483027 10.6724038,124.614797 C10.6724038,124.614797 11.3343385,124.891604 13.1628912,125.641572 C14.9793476,126.386086 15.7219241,127.159235 15.7219241,128.306005 C15.7219241,128.985749 15.4578222,129.154832 15.3711323,129.210739 C14.9578431,129.474592 14.190402,129.349142 13.7697207,129.143924 C13.7515763,129.135061 13.7320878,129.125516 13.7159595,129.118698 C11.9989613,128.415091 11.3215702,128.133512 11.2362243,128.098059 C11.2348803,128.097377 11.2328642,128.09465 11.2295042,128.09465 L11.2288322,128.093968 C11.2288322,128.093968 11.220096,128.090559 11.2187519,128.090559 C8.3714246,126.973788 7.06099545,126.36086 7.04822717,126.356087 C6.67861895,126.182913 6.24113722,126.34586 6.07044542,126.720844 C5.89908161,127.094465 6.05969318,127.540355 6.4293014,127.712166 C6.48239058,127.737392 7.78677159,128.347594 10.6724038,129.479364 L10.6764359,129.480046 C10.6771079,129.48141 10.6771079,129.48141 10.6777799,129.48141 C12.4424911,130.204788 15.7219241,132.831722 15.7219241,134.043262 C15.7219241,134.722324 15.4578222,134.890726 15.3711323,134.947996 C14.9578431,135.211849 14.190402,135.087763 13.7952572,134.895499 C13.7562804,134.876409 13.7179755,134.863455 13.6783266,134.851864 C13.1272744,134.555286 12.2939758,134.178938 11.1502064,133.666233 L10.1825049,133.231251 C8.68659961,132.552189 7.21891896,131.838355 7.20413463,131.830856 C6.83721447,131.651545 6.39637267,131.808357 6.22097677,132.181295 C6.04222079,132.552189 6.2001443,132.999443 6.56639245,133.179435 C6.57580066,133.182162 7.23168725,133.503285 8.11471489,133.918495 C7.83045256,134.026899 7.55694248,134.173484 7.310313,134.369839 C6.67055477,134.876409 6.32043498,135.633877 6.2942264,136.561792 C6.24516931,138.965781 8.57638916,141.245685 10.9318015,142.233597 C11.2348803,142.362456 11.5742478,142.476314 11.9317598,142.571765 C11.984177,142.599718 12.0392822,142.624263 12.0990915,142.63858 C12.1320202,142.646762 15.4242215,143.516725 15.6419543,145.558002 C15.6889954,146.023664 15.6768991,146.389103 15.4544621,146.664546 C15.1614636,147.023849 14.5015449,147.257703 13.5445957,147.343609 C12.2583591,147.456786 11.3383706,147.887676 10.683828,148.459698 C10.6703877,148.358793 10.6643396,148.252434 10.6488833,148.156301 C10.2234978,145.701178 8.95002947,144.554408 7.95544735,144.02534 C6.21291259,143.096061 4.20560394,143.410366 2.90928711,144.012386 C1.58541766,144.629405 0.594195616,145.97253 0.190314633,147.698821 C-0.265311501,149.64192 0.109000824,151.625927 1.19228892,153.003142 C3.89244498,156.436633 8.20140482,154.863745 8.38352087,154.79693 C8.76455334,154.651709 8.95876566,154.223545 8.81764252,153.836288 C8.67853543,153.449714 8.25382198,153.251313 7.87278951,153.393125 C7.72965032,153.44426 4.37360768,154.649663 2.34412254,152.071818 C1.55248893,151.064815 1.2769628,149.521926 1.62439453,148.04517 C1.92344118,146.76886 2.61561658,145.795265 3.52350877,145.371874 C4.50129052,144.917802 5.99921183,144.672358 7.2699921,145.348693 C8.29145482,145.893443 8.93860521,146.924308 9.19733097,148.415381 C9.35256642,149.320116 9.25781231,150.607334 9.18456268,151.325258 C8.29212683,151.034134 7.4588283,150.797553 6.76866895,150.624379 C4.69281478,150.105537 4.41661663,149.229438 4.3971282,149.162623 C4.34067895,148.771275 3.98652707,148.489015 3.59272631,148.530604 C3.18817331,148.572875 2.89719084,148.941041 2.93616771,149.351478 C2.95565614,149.545106 3.22110204,151.277533 6.4158611,152.07659 C11.0077392,153.225405 15.2528577,155.310999 15.6876513,156.630261 C15.8240704,157.047516 15.9235286,157.61681 15.6164177,157.968614 C15.3677722,158.254965 14.8778733,158.364733 14.3382453,158.254965 C13.9410845,158.173832 13.5513158,158.437685 13.471346,158.842668 C13.3927203,159.24765 13.650774,159.641043 14.0492789,159.720812 C15.1184547,159.938985 16.1170689,159.652633 16.7225543,158.958572 C16.9671678,158.676311 17.290407,158.152015 17.290407,157.341367 C17.290407,156.997064 17.2326137,156.604353 17.0861144,156.156418 C16.5323741,154.470353 13.5876046,152.941099 10.7315411,151.868644 C10.7301971,151.860463 10.7328851,151.852281 10.7328851,151.843418 C10.7241489,151.732287 10.5642094,149.107398 13.6722785,148.831955 C15.0734297,148.709914 16.0283629,148.311749 16.5928555,147.614961 C17.0457935,147.05453 17.1405476,146.417739 17.1405476,145.937077 C17.1405476,145.717541 17.1210592,145.530049 17.1082909,145.397782 C16.9725439,144.131017 16.2017428,143.208556 15.3234192,142.551993 C15.5297278,142.472905 15.7273002,142.377455 15.9147924,142.258824 C16.6956737,141.759754 17.1392036,140.961379 17.1949809,139.94824 C17.199685,139.864379 17.201701,139.783247 17.201701,139.702795 C17.201701,138.288764 16.5075096,137.221764 15.71722,136.422025 C15.8704394,136.368164 16.0196267,136.300667 16.1573898,136.212716 C16.6325043,135.908638 17.1963249,135.288209 17.1963249,134.043262 C17.1963249,132.990579 16.3227054,131.830856 15.223289,130.811581 C15.5539204,130.758401 15.8758155,130.656133 16.1573898,130.47614 C16.6325043,130.172062 17.1963249,129.549588 17.1963249,128.306005 C17.1963249,127.129918 16.6876096,126.274272 16.0411312,125.650435 C16.078764,125.629982 16.1197569,125.6143 16.1573898,125.591801 C16.6325043,125.288405 17.1963249,124.66525 17.1963249,123.420984 C17.1963249,121.852869 16.2931368,120.853365 15.3610521,120.21862 C15.6345621,119.918632 15.8838797,119.44547 15.8838797,118.713229 C15.8838797,118.685275 15.8838797,118.654595 15.8832077,118.623914 C15.8294465,116.626953 12.887365,115.06361 12.5527016,114.892481 C12.1884695,114.706353 11.7476277,114.853619 11.5634956,115.222467" id="Fill-45"></path>
                </g>
            </g>
        </g>
    </g>
</svg>