<?xml version="1.0" encoding="UTF-8"?>
<svg width="386px" height="86px" viewBox="0 0 386 86" version="1.1" xmlns="http://www.w3.org/2000/svg" xmlns:xlink="http://www.w3.org/1999/xlink">
    <!-- Generator: Sketch 56.2 (81672) - https://sketch.com -->
    <title>logo-brown</title>
    <desc>Created with Sketch.</desc>
    <defs>
        <polygon id="path-1" points="2.84217094e-13 85.405598 385.805608 85.405598 385.805608 -4.26325641e-14 2.84217094e-13 -4.26325641e-14"></polygon>
    </defs>
    <g id="Page-1" stroke="none" stroke-width="1" fill="none" fill-rule="evenodd">
        <g id="top-fix" transform="translate(-845.000000, -984.000000)">
            <g id="logo/yoko-2" transform="translate(845.000000, 984.000000)">
                <g id="logo/yoko" transform="translate(0.000000, 0.000000)">
                    <path d="M4.07578124,78.8767166 C5.86040462,78.8767166 7.04959654,77.6894856 7.04959654,76.3049386 C7.04959654,74.9198357 5.86040462,73.7320489 4.07578124,73.7320489 L2.78688658,73.7320489 L2.78688658,78.8767166 L4.07578124,78.8767166 Z M4.07578124,81.0533068 L2.78688658,81.0533068 L2.78688658,85.0107436 L0.406831746,85.0107436 L0.406831746,71.5560145 L4.07578124,71.5560145 C7.34759076,71.5560145 9.52824012,73.7320489 9.52824012,76.3049386 C9.52824012,78.8767166 7.34759076,81.0533068 4.07578124,81.0533068 L4.07578124,81.0533068 Z" id="Fill-1" fill="#512700" fill-rule="evenodd"></path>
                    <path d="M17.3618678,77.8869128 C18.8691059,77.8869128 19.8410684,76.8981094 19.8410684,75.8098143 C19.8410684,74.7209634 18.849054,73.73216 17.3618678,73.73216 L15.1801045,73.73216 L15.1801045,77.8869128 L17.3618678,77.8869128 Z M20.0388029,79.5693792 L23.1123209,85.0102989 L20.5345316,85.0102989 L17.7584508,80.063503 L15.1801045,80.063503 L15.1801045,85.0102989 L12.8011636,85.0102989 L12.8011636,71.5561257 L17.3618678,71.5561257 C20.3362401,71.5561257 22.319712,73.5342882 22.319712,75.8098143 C22.319712,78.2832123 20.0388029,79.3909611 20.0388029,79.3709516 L20.0388029,79.5693792 Z" id="Fill-3" fill="#512700" fill-rule="evenodd"></path>
                    <polygon id="Fill-5" fill="#512700" fill-rule="evenodd" points="25.9888286 71.5560701 33.8207853 71.5560701 33.8207853 73.7321045 28.3677694 73.7321045 28.3677694 77.0959257 32.2338964 77.0959257 32.2338964 79.2719601 28.3677694 79.2719601 28.3677694 82.8330973 34.0190768 82.8330973 34.0190768 85.0107992 25.9888286 85.0107992"></polygon>
                    <polygon id="Fill-7" fill="#512700" fill-rule="evenodd" points="39.8699567 77.2931305 39.6711082 77.2931305 39.6711082 85.010688 37.2921674 85.010688 37.2921674 71.1602152 37.6881934 71.1602152 43.7360837 78.5792975 49.783974 71.1602152 50.181114 71.1602152 50.181114 85.010688 47.8010592 85.010688 47.8010592 77.2931305 47.6033247 77.2931305 43.7360837 82.0420546"></polygon>
                    <mask id="mask-2" fill="white">
                        <use xlink:href="#path-1"></use>
                    </mask>
                    <g id="Clip-10"></g>
                    <polygon id="Fill-9" fill="#512700" fill-rule="evenodd" mask="url(#mask-2)" points="54.3457922 85.0109659 56.724733 85.0109659 56.724733 71.5562368 54.3457922 71.5562368"></polygon>
                    <path d="M63.170376,80.3606998 C63.170376,82.0420546 64.359568,83.2292857 65.7481654,83.2292857 C67.1356488,83.2292857 68.3253977,82.0420546 68.3253977,80.3606998 L68.3253977,71.5559589 L70.7048955,71.5559589 L70.7048955,80.3606998 C70.7048955,83.2292857 68.5236892,85.40532 65.7481654,85.40532 C62.9720846,85.40532 60.7914352,83.2292857 60.7914352,80.3606998 L60.7914352,71.5559589 L63.170376,71.5559589 L63.170376,80.3606998 Z" id="Fill-11" fill="#512700" fill-rule="evenodd" mask="url(#mask-2)"></path>
                    <polygon id="Fill-12" fill="#512700" fill-rule="evenodd" mask="url(#mask-2)" points="77.3493313 77.2931305 77.1504828 77.2931305 77.1504828 85.010688 74.771542 85.010688 74.771542 71.1602152 75.167568 71.1602152 81.2154583 78.5792975 87.2627916 71.1602152 87.6599316 71.1602152 87.6599316 85.010688 85.2809908 85.010688 85.2809908 77.2931305 85.0821423 77.2931305 81.2154583 82.0420546"></polygon>
                    <path d="M101.046278,82.8331529 C102.534021,82.8331529 103.425776,81.9827487 103.425776,80.8555462 C103.425776,79.727232 102.534021,78.8768278 101.046278,78.8768278 L98.9642173,78.8768278 L98.9642173,82.8331529 L101.046278,82.8331529 Z M100.847986,76.6996818 C102.037178,76.6996818 102.731199,76.0071303 102.731199,75.2161988 C102.731199,74.4252673 102.037178,73.73216 100.847986,73.73216 L98.9642173,73.73216 L98.9642173,76.6996818 L100.847986,76.6996818 Z M96.5847195,71.5561257 L100.847986,71.5561257 C103.624067,71.5561257 105.210399,73.1385445 105.210399,74.9199469 C105.210399,77.0959813 103.029193,77.5906609 103.029193,77.5906609 L103.029193,77.7885327 C103.029193,77.7885327 106.002451,78.2832123 106.002451,81.1517981 C106.002451,83.1305165 104.119796,85.0102989 101.046278,85.0102989 L96.5847195,85.0102989 L96.5847195,71.5561257 Z" id="Fill-13" fill="#512700" fill-rule="evenodd" mask="url(#mask-2)"></path>
                    <path d="M113.83658,77.8869128 C115.343261,77.8869128 116.314667,76.8981094 116.314667,75.8098143 C116.314667,74.7209634 115.323766,73.73216 113.83658,73.73216 L111.655374,73.73216 L111.655374,77.8869128 L113.83658,77.8869128 Z M116.514072,79.5693792 L119.586476,85.0102989 L117.008687,85.0102989 L114.23372,80.063503 L111.655374,80.063503 L111.655374,85.0102989 L109.275876,85.0102989 L109.275876,71.5561257 L113.83658,71.5561257 C116.811509,71.5561257 118.79331,73.5342882 118.79331,75.8098143 C118.79331,78.2832123 116.514072,79.3909611 116.514072,79.3709516 L116.514072,79.5693792 Z" id="Fill-14" fill="#512700" fill-rule="evenodd" mask="url(#mask-2)"></path>
                    <path d="M125.437245,80.8554906 L128.808757,80.8554906 L127.221868,76.6996262 L127.024134,76.6996262 L125.437245,80.8554906 Z M133.071467,85.0107992 L130.493678,85.0107992 L129.701069,83.0320808 L124.525438,83.0320808 L123.752324,85.0107992 L121.173978,85.0107992 L127.024134,70.7634711 L127.221868,70.7634711 L133.071467,85.0107992 Z" id="Fill-15" fill="#512700" fill-rule="evenodd" mask="url(#mask-2)"></path>
                    <polygon id="Fill-16" fill="#512700" fill-rule="evenodd" mask="url(#mask-2)" points="143.680841 79.4694428 143.680841 71.5562368 146.059782 71.5562368 146.059782 85.405598 145.663756 85.405598 138.52582 77.0960924 138.327528 77.0960924 138.327528 85.0104101 135.94803 85.0104101 135.94803 71.1599373 136.344056 71.1599373 143.48255 79.4694428"></polygon>
                    <path d="M152.605351,73.7321045 L152.605351,82.8330973 L154.191683,82.8330973 C156.472035,82.8330973 158.553538,80.7559989 158.553538,78.2831567 C158.553538,75.8097587 156.472035,73.7321045 154.191683,73.7321045 L152.605351,73.7321045 Z M154.191683,71.5560701 C157.958107,71.5560701 161.032182,74.6225277 161.032182,78.2831567 C161.032182,81.9426741 157.958107,85.0107992 154.191683,85.0107992 L150.225853,85.0107992 L150.225853,71.5560701 L154.191683,71.5560701 Z" id="Fill-17" fill="#512700" fill-rule="evenodd" mask="url(#mask-2)"></path>
                    <path d="M175.210859,73.3361385 C172.831918,73.3361385 170.651268,75.5132845 170.651268,78.2834902 C170.651268,81.0531401 172.831918,83.2291745 175.210859,83.2291745 C177.590913,83.2291745 179.771563,81.0531401 179.771563,78.2834902 C179.771563,75.5132845 177.590913,73.3361385 175.210859,73.3361385 M175.210859,71.1601041 C179.0781,71.1601041 182.25132,74.3260535 182.25132,78.2834902 C182.25132,82.2409269 179.0781,85.4052089 175.210859,85.4052089 C171.345846,85.4052089 168.172625,82.2409269 168.172625,78.2834902 C168.172625,74.3260535 171.345846,71.1601041 175.210859,71.1601041" id="Fill-18" fill="#512700" fill-rule="evenodd" mask="url(#mask-2)"></path>
                    <path d="M193.653805,73.4346853 L191.869182,74.7208522 C191.869182,74.7208522 190.877724,73.3363052 189.688532,73.3363052 C188.498226,73.3363052 187.705617,74.1272367 187.705617,75.1171517 C187.705617,77.491058 193.851539,77.0958701 193.851539,81.3495588 C193.851539,83.4272131 191.869182,85.4053756 189.192246,85.4053756 C185.821291,85.4053756 184.334105,82.6357257 184.334105,82.6357257 L186.119285,81.3495588 C186.119285,81.3495588 187.209332,83.2293412 188.993955,83.2293412 C190.381995,83.2293412 191.373453,82.2405379 191.373453,81.1516869 C191.373453,78.7772249 185.226974,79.1729686 185.226974,74.9198357 C185.226974,73.0400533 187.110743,71.1602708 189.489684,71.1602708 C192.266322,71.1602708 193.653805,73.4346853 193.653805,73.4346853" id="Fill-19" fill="#512700" fill-rule="evenodd" mask="url(#mask-2)"></path>
                    <path d="M200.098445,80.8554906 L203.469958,80.8554906 L201.883626,76.6996262 L201.685334,76.6996262 L200.098445,80.8554906 Z M207.733225,85.0107992 L205.155435,85.0107992 L204.362826,83.0320808 L199.186639,83.0320808 L198.414082,85.0107992 L195.835735,85.0107992 L201.685334,70.7634711 L201.883626,70.7634711 L207.733225,85.0107992 Z" id="Fill-20" fill="#512700" fill-rule="evenodd" mask="url(#mask-2)"></path>
                    <path d="M215.963658,77.8869128 L220.424659,85.0102989 L217.847427,85.0102989 L213.485571,77.8869128 L217.450844,71.5561257 L220.028076,71.5561257 L215.963658,77.8869128 Z M210.609788,85.0102989 L212.988729,85.0102989 L212.988729,71.5555698 L210.609788,71.5555698 L210.609788,85.0102989 Z" id="Fill-21" fill="#512700" fill-rule="evenodd" mask="url(#mask-2)"></path>
                    <polygon id="Fill-22" fill="#512700" fill-rule="evenodd" mask="url(#mask-2)" points="223.20269 85.0109659 225.581631 85.0109659 225.581631 71.5562368 223.20269 71.5562368"></polygon>
                    <polygon id="Fill-23" fill="#512700" fill-rule="evenodd" mask="url(#mask-2)" points="239.165043 73.7321045 239.165043 85.0107992 236.785545 85.0107992 236.785545 73.7321045 233.315444 73.7321045 233.315444 71.5560701 242.634587 71.5560701 242.634587 73.7321045"></polygon>
                    <path d="M251.756831,73.3361385 C249.377333,73.3361385 247.196127,75.5132845 247.196127,78.2834902 C247.196127,81.0531401 249.377333,83.2291745 251.756831,83.2291745 C254.135772,83.2291745 256.317535,81.0531401 256.317535,78.2834902 C256.317535,75.5132845 254.135772,73.3361385 251.756831,73.3361385 M251.756831,71.1601041 C255.622958,71.1601041 258.795622,74.3260535 258.795622,78.2834902 C258.795622,82.2409269 255.622958,85.4052089 251.756831,85.4052089 C247.890147,85.4052089 244.716926,82.2409269 244.716926,78.2834902 C244.716926,74.3260535 247.890147,71.1601041 251.756831,71.1601041" id="Fill-24" fill="#512700" fill-rule="evenodd" mask="url(#mask-2)"></path>
                    <polygon id="Fill-25" fill="#512700" fill-rule="evenodd" mask="url(#mask-2)" points="262.068879 71.5560701 270.099685 71.5560701 270.099685 73.7321045 264.448377 73.7321045 264.448377 77.9857931 268.512796 77.9857931 268.512796 80.1618275 264.448377 80.1618275 264.448377 85.0107992 262.068879 85.0107992"></polygon>
                    <path d="M275.355801,80.3606998 C275.355801,82.0420546 276.544993,83.2292857 277.933591,83.2292857 C279.321074,83.2292857 280.510266,82.0420546 280.510266,80.3606998 L280.510266,71.5559589 L282.889764,71.5559589 L282.889764,80.3606998 C282.889764,83.2292857 280.709115,85.40532 277.933591,85.40532 C275.156953,85.40532 272.975747,83.2292857 272.975747,80.3606998 L272.975747,71.5559589 L275.355801,71.5559589 L275.355801,80.3606998 Z" id="Fill-26" fill="#512700" fill-rule="evenodd" mask="url(#mask-2)"></path>
                    <path d="M44.1304387,12.4622017 C38.7386926,12.4622017 33.9161991,14.9305973 30.7335094,18.7946564 C27.5513766,14.9305973 22.7283261,12.4622017 17.3365801,12.4622017 C7.77681385,12.4622017 -4.8316906e-13,20.2225573 -4.8316906e-13,29.762092 L-4.8316906e-13,55.5160009 L7.87985859,55.5160009 L7.87985859,29.762092 C7.87985859,24.5590632 12.1219596,20.3259398 17.3365801,20.3259398 C22.5506436,20.3259398 26.7933016,24.5590632 26.7933016,29.762092 L26.7933016,55.5160009 L34.6731602,55.5160009 L34.6731602,29.762092 C34.6731602,24.5590632 38.9152612,20.3259398 44.1304387,20.3259398 C49.3439452,20.3259398 53.5860462,24.5590632 53.5860462,29.762092 L53.5860462,55.5160009 L61.4664618,55.5160009 L61.4664618,29.762092 C61.4664618,20.2225573 53.6890909,12.4622017 44.1304387,12.4622017" id="Fill-27" fill="#512700" fill-rule="evenodd" mask="url(#mask-2)"></path>
                    <path d="M162.335169,12.4622017 C156.945094,12.4622017 152.120929,14.9305973 148.939353,18.7946564 C145.756663,14.9305973 140.93417,12.4622017 135.542981,12.4622017 C125.983215,12.4622017 118.205844,20.2225573 118.205844,29.762092 L118.205844,55.5160009 L126.086259,55.5160009 L126.086259,29.762092 C126.086259,24.5590632 130.32836,20.3259398 135.542981,20.3259398 C140.757044,20.3259398 144.999145,24.5590632 144.999145,29.762092 L144.999145,55.5160009 L152.879004,55.5160009 L152.879004,29.762092 C152.879004,24.5590632 157.121662,20.3259398 162.335169,20.3259398 C167.550346,20.3259398 171.792447,24.5590632 171.792447,29.762092 L171.792447,55.5160009 L179.672306,55.5160009 L179.672306,29.762092 C179.672306,20.2225573 171.895492,12.4622017 162.335169,12.4622017" id="Fill-28" fill="#512700" fill-rule="evenodd" mask="url(#mask-2)"></path>
                    <path d="M80.5085714,34.5783259 L80.5085714,29.7615918 C80.5085714,24.5591187 84.7512294,20.3259954 89.9652929,20.3259954 C95.1810274,20.3259954 99.4231284,24.5591187 99.4231284,29.7615918 L99.4231284,34.5783259 L80.5085714,34.5783259 Z M89.9652929,12.4622573 C80.4055267,12.4622573 72.6287128,20.2226129 72.6287128,29.7615918 L72.6287128,55.5160565 L80.5085714,55.5160565 L80.5085714,42.4420639 L99.4231284,42.4420639 L99.4231284,55.5160565 L107.303544,55.5160565 L107.303544,29.7615918 C107.303544,20.2226129 99.5256162,12.4622573 89.9652929,12.4622573 L89.9652929,12.4622573 Z" id="Fill-29" fill="#512700" fill-rule="evenodd" mask="url(#mask-2)"></path>
                    <path d="M239.805814,25.2715685 C239.805814,22.5719519 243.171756,20.8922646 247.259012,20.8922646 C252.549384,20.8922646 257.35851,23.8319953 257.35851,23.8319953 L261.686388,17.6535028 C261.686388,17.6535028 255.554948,13.6343701 248.041038,13.6343701 C238.964189,13.6343701 232.050723,18.4333179 232.050723,25.5116827 C232.050723,39.9685548 255.854614,36.7286814 255.854614,43.8081577 C255.854614,47.1069481 252.068137,49.1468066 246.898634,49.1468066 C241.48795,49.1468066 235.296354,45.6073463 235.296354,45.6073463 L231.629632,51.9659245 C231.629632,51.9659245 238.60214,56.3452284 247.019502,56.3452284 C256.758065,56.3452284 263.911598,51.0065796 263.911598,43.8081577 C263.911598,29.2306727 239.805814,33.1297484 239.805814,25.2715685" id="Fill-30" fill="#512700" fill-rule="evenodd" mask="url(#mask-2)"></path>
                    <polygon id="Fill-31" fill="#512700" fill-rule="evenodd" mask="url(#mask-2)" points="266.915435 21.1922405 278.396846 21.1922405 278.396846 55.9854463 286.272249 55.9854463 286.272249 21.1922405 297.874529 21.1922405 297.874529 13.9938187 266.915435 13.9938187"></polygon>
                    <path d="M319.8738,32.4701015 L312.901292,32.4701015 L312.901292,21.0719055 L319.994668,21.0719055 C325.044974,21.0719055 326.908134,24.0116363 326.908134,26.7112529 C326.908134,29.2908124 325.044974,32.4701015 319.8738,32.4701015 M327.268513,37.9288074 C332.317704,35.4098322 334.722824,31.1500295 334.722824,26.7718372 C334.722824,20.6522616 330.394388,13.9940966 319.994668,13.9940966 L305.086602,13.9940966 L305.086602,55.9851684 L312.961448,55.9851684 L312.961448,39.5484662 L318.071352,39.5484662 C319.273912,39.968666 320.716539,41.707826 321.617762,43.2074277 L329.431895,55.9851684 L338.510414,55.9851684 L329.011918,40.2682528 C328.470515,39.3683806 327.869514,38.5290928 327.268513,37.9288074" id="Fill-32" fill="#512700" fill-rule="evenodd" mask="url(#mask-2)"></path>
                    <path d="M363.504109,20.8331809 C371.799489,20.8331809 377.992199,27.1912032 377.992199,34.9893546 C377.992199,42.7880617 371.799489,49.1466399 363.504109,49.1466399 C355.329042,49.1466399 349.01602,42.7880617 349.01602,34.9893546 C349.01602,27.1912032 355.329042,20.8331809 363.504109,20.8331809 M363.504109,56.3456175 C375.948014,56.3456175 385.805775,46.8066386 385.805775,34.9893546 C385.805775,23.1720705 375.948014,13.6342033 363.504109,13.6342033 C351.060762,13.6342033 341.141174,23.1720705 341.141174,34.9893546 C341.141174,46.8066386 351.060762,56.3456175 363.504109,56.3456175" id="Fill-33" fill="#512700" fill-rule="evenodd" mask="url(#mask-2)"></path>
                    <path d="M196.027566,29.7626478 C196.027566,24.5590632 200.26911,20.3259398 205.483173,20.3259398 C210.698351,20.3259398 214.941009,24.5590632 214.941009,29.77432 L214.943794,30.7431139 L196.027566,30.7431139 L196.027566,29.7626478 Z M222.848717,38.6062961 L222.821981,29.7626478 C222.821981,20.2231132 215.044053,12.4622017 205.483173,12.4622017 C195.923407,12.4622017 188.14715,20.2231132 188.14715,29.7626478 L188.14715,40.1976081 C188.14715,49.736587 195.923407,57.4963867 205.484844,57.4963867 C213.40982,57.4963867 220.106613,52.1599611 222.16528,44.8998434 L213.671052,44.8998434 C212.035147,47.7234078 208.982238,49.6326487 205.484844,49.6326487 C200.269667,49.6326487 196.027566,45.4000811 196.027566,40.1976081 L196.027566,38.6062961 L222.848717,38.6062961 Z" id="Fill-34" fill="#512700" fill-rule="evenodd" mask="url(#mask-2)"></path>
                    <polygon id="Fill-35" fill="#512700" fill-rule="evenodd" mask="url(#mask-2)" points="343.05374 7.86373806 385.094877 7.86373806 385.094877 -4.4408921e-15 343.05374 -4.4408921e-15"></polygon>
                    <polygon id="Fill-36" fill="#512700" fill-rule="evenodd" mask="url(#mask-2)" points="343.05374 85.3577975 385.094877 85.3577975 385.094877 77.4940594 343.05374 77.4940594"></polygon>
                    <polygon id="Fill-37" fill="#512700" fill-rule="evenodd" mask="url(#mask-2)" points="349.040918 72.6856626 356.92189 72.6856626 356.92189 59.8673471 349.040918 59.8673471"></polygon>
                    <polygon id="Fill-38" fill="#512700" fill-rule="evenodd" mask="url(#mask-2)" points="371.227841 72.6856626 379.108257 72.6856626 379.108257 59.8673471 371.227841 59.8673471"></polygon>
                </g>
            </g>
        </g>
    </g>
</svg>