<?xml version="1.0" encoding="UTF-8"?>
<svg width="186px" height="71px" viewBox="0 0 186 71" version="1.1" xmlns="http://www.w3.org/2000/svg" xmlns:xlink="http://www.w3.org/1999/xlink">
    <!-- Generator: Sketch 54.1 (76490) - https://sketchapp.com -->
    <title>logo-sub</title>
    <desc>Created with Sketch.</desc>
    <g id="Symbols" stroke="none" stroke-width="1" fill="none" fill-rule="evenodd">
        <g id="contents/footer" transform="translate(-86.000000, -201.000000)" fill="#C8A062">
            <g id="Group-73" transform="translate(86.000000, 201.000000)">
                <path d="M4.91619118,67.8558794 L2.02475224,64.9886522 L2.02475224,70.4567777 C2.02475224,70.5778363 1.9726039,70.6290534 1.84968283,70.6290534 L0.52735004,70.6290534 C0.401635303,70.6290534 0.35414307,70.5778363 0.35414307,70.4567777 L0.35414307,60.7543936 C0.38859822,60.7041077 0.419328489,60.6873458 0.453783639,60.6873458 C0.52735004,60.6873458 0.52735004,60.7041077 0.575773494,60.7543936 L4.93295315,65.4207384 C5.00000101,65.4915112 5.01583175,65.5250351 5.09126059,65.5250351 C5.15830845,65.5250351 5.17507042,65.4915112 5.24398072,65.4207384 L9.59836671,60.7543936 C9.65330871,60.7041077 9.65330871,60.6873458 9.71942535,60.6873458 C9.75667416,60.6873458 9.79485419,60.7041077 9.8227908,60.7543936 L9.8227908,70.4567777 C9.8227908,70.5778363 9.77622978,70.6290534 9.65330871,70.6290534 L8.32911348,70.6290534 C8.20619241,70.6290534 8.15311285,70.5778363 8.15311285,70.4567777 L8.15311285,64.9886522 L5.26539879,67.8558794 C5.19183238,67.9480702 5.14154649,67.9815942 5.09126059,67.9815942 C5.03724982,67.9815942 4.9813766,67.9480702 4.91619118,67.8558794" id="Fill-28"></path>
                <path d="M16.8779018,68.7479885 L16.8779018,68.1883251 C16.6581338,67.7916252 15.8191044,67.5653387 15.3665313,67.5653387 C14.5144648,67.5653387 14.2853846,67.8940595 14.2853846,68.4015745 C14.2853846,69.0953336 14.6727722,69.270403 15.5583627,69.270403 C15.6971145,69.270403 16.4681649,69.2182547 16.8779018,68.7479885 L16.8779018,68.7479885 Z M17.1609928,69.7760556 C16.6581338,70.6998261 15.2277795,70.7156569 15.0545725,70.7156569 C14.3058714,70.7156569 12.6157066,70.4567777 12.6157066,68.4891092 C12.6157066,67.0270934 13.6083874,66.2439371 15.0191862,66.2439371 C15.6607969,66.2439371 16.4961015,66.42925 16.8779018,66.8166376 C16.8779018,65.4719555 16.2036983,65.1097109 15.0052179,65.1097109 C14.8105928,65.1097109 14.3766442,65.1590655 13.7666949,65.2978173 C13.6959222,65.3136481 13.678229,65.3350662 13.6260806,65.3350662 C13.5581016,65.3350662 13.5022283,65.2829178 13.4714981,65.1935207 L13.1045973,64.4280576 C13.0664173,64.3610098 13.0487241,64.290237 13.0487241,64.2222579 C13.0487241,64.150554 13.0869041,64.1011993 13.1399837,64.0630193 C14.0590981,63.5955467 14.6727722,63.5778535 15.2454727,63.5778535 C17.3882105,63.5778535 18.5540983,64.7437413 18.5540983,66.7114097 L18.5540983,70.4567777 C18.5540983,70.5778363 18.5056749,70.6290534 18.3808913,70.6290534 L17.4757452,70.6290534 C17.3556178,70.6290534 17.2839139,70.5778363 17.2326967,70.4567777 L17.1609928,69.7760556 Z" id="Fill-29"></path>
                <path d="M26.5984446,67.1274789 C26.5984446,65.9308609 25.7128542,65.0918314 24.7024802,65.0918314 C23.6613759,65.0918314 22.875426,65.9308609 22.875426,67.1274789 C22.875426,68.3129223 23.6781379,69.2702168 24.7024802,69.2702168 C25.750103,69.2702168 26.5984446,68.3846263 26.5984446,67.1274789 L26.5984446,67.1274789 Z M26.7744453,69.7088215 C26.1663584,70.5953432 25.1038361,70.7164019 24.3532726,70.7164019 C22.5448428,70.7164019 21.1684992,69.0783854 21.1684992,67.1097858 C21.1684992,65.1756412 22.5634672,63.5776673 24.4575692,63.5776673 C24.7890836,63.5776673 25.9056168,63.5953604 26.5984446,64.5154061 L26.5984446,60.9125148 C26.5984446,60.7914562 26.6533866,60.7374454 26.7744453,60.7374454 L28.0986405,60.7374454 C28.223424,60.7374454 28.2709162,60.7914562 28.2709162,60.9125148 L28.2709162,70.4565914 C28.2709162,70.57765 28.223424,70.6288672 28.0986405,70.6288672 L27.1245841,70.6288672 C27.0053879,70.6288672 26.9299591,70.57765 26.8806044,70.4565914 L26.7744453,69.7088215 Z" id="Fill-30"></path>
                <path d="M32.6977512,66.4481537 L36.0585251,66.4481537 C36.0585251,65.4722349 35.1915591,65.125821 34.371154,65.125821 C33.5693734,65.125821 32.6977512,65.5439389 32.6977512,66.4481537 M34.6318957,70.7159363 C32.6120789,70.7159363 30.9722,69.6524827 30.9722,67.1987173 C30.9722,65.265504 31.9686057,63.5781329 34.332974,63.5781329 C36.2177638,63.5781329 37.6965416,64.7440206 37.6965416,66.9891927 L37.6965416,67.6699147 C37.6965416,67.7909734 37.6490494,67.8440529 37.5242658,67.8440529 L32.6977512,67.8440529 C32.6977512,69.0118032 34.0219464,69.2697512 34.6188586,69.2697512 C35.1170614,69.2697512 35.8685562,69.1635921 36.3397537,68.8339401 C36.3742088,68.8004162 36.4114576,68.7864479 36.4608123,68.7864479 C36.5306538,68.7864479 36.5995641,68.8218342 36.6507812,68.867464 L37.1610899,69.6711071 C37.1955451,69.7400174 37.2095134,69.793097 37.2095134,69.8135838 C37.2095134,69.8638697 37.1955451,69.9141556 37.1415343,69.9514044 C36.5306538,70.5948776 35.4653378,70.7159363 34.6318957,70.7159363" id="Fill-31"></path>
                <path d="M44.735915,63.8418544 C44.735915,63.7180022 44.7936507,63.6639914 44.9109844,63.6639914 L46.2351796,63.6639914 C46.3571695,63.6639914 46.4083866,63.7180022 46.4083866,63.8418544 L46.4083866,70.4572433 C46.4083866,70.5773707 46.3571695,70.6285878 46.2351796,70.6285878 L44.9109844,70.6285878 C44.7936507,70.6285878 44.735915,70.5773707 44.735915,70.4572433 L44.735915,63.8418544 Z M45.5879816,60.8610184 C46.1662693,60.8610184 46.6365356,61.3452529 46.6365356,61.9049163 C46.6365356,62.4645797 46.1662693,62.9143591 45.5879816,62.9143591 C45.0534611,62.9143591 44.5804012,62.4645797 44.5804012,61.9049163 C44.5804012,61.3452529 45.0534611,60.8610184 45.5879816,60.8610184 L45.5879816,60.8610184 Z" id="Fill-32"></path>
                <path d="M51.1816355,64.5156854 C51.7878599,63.7679156 52.6278206,63.5779466 53.302024,63.5779466 C55.4140316,63.5779466 56.2120874,65.0241317 56.2120874,66.6761165 L56.2120874,70.4568708 C56.2120874,70.5779294 56.1627327,70.6282153 56.0379492,70.6282153 L54.7128228,70.6282153 C54.595489,70.6282153 54.540547,70.5779294 54.540547,70.4568708 L54.540547,66.9377894 C54.540547,65.9451086 54.3822396,65.0921108 52.9071866,65.0921108 C51.8604951,65.0921108 51.3883664,65.9451086 51.3883664,66.9377894 L51.3883664,70.4568708 C51.3883664,70.5779294 51.3418054,70.6282153 51.2160906,70.6282153 L49.8909642,70.6282153 C49.7736304,70.6282153 49.7158948,70.5779294 49.7158948,70.4568708 L49.7158948,63.841482 C49.7158948,63.7185609 49.7736304,63.6636189 49.8909642,63.6636189 L50.8501211,63.6636189 C50.9367246,63.6636189 51.0084285,63.7185609 51.023328,63.841482 L51.1816355,64.5156854 Z" id="Fill-33"></path>
                <path d="M66.9265216,62.1330653 C65.135785,62.1330653 65.1003986,63.2086247 65.1003986,63.4730912 C65.1003986,65.5087387 70.4297723,64.8149796 70.4297723,68.1729599 C70.4297723,69.7588281 68.5272892,70.7161225 67.1341837,70.7161225 C65.9384969,70.7161225 64.8554877,70.6285878 63.6691131,69.9134106 C63.6206896,69.8798867 63.5853033,69.830532 63.5853033,69.7588281 C63.5853033,69.7234417 63.5853033,69.6861929 63.6020652,69.6712934 L64.0555695,68.7670785 C64.0909559,68.7167926 64.1393793,68.6786125 64.1915277,68.6786125 C64.226914,68.6786125 64.260438,68.6786125 64.281856,68.7000306 C64.7493286,68.921661 65.6721679,69.2699374 66.9758763,69.2699374 C67.8800912,69.2699374 68.7573007,68.7316921 68.7573007,68.0342081 C68.7573007,66.1419685 63.4269958,66.9055691 63.4269958,63.3697258 C63.4269958,61.6255502 64.62827,60.614245 66.873442,60.614245 C68.0085996,60.614245 69.177281,61.0360878 69.7164575,61.2614431 C69.7825742,61.3135914 69.8170293,61.3620149 69.8170293,61.4150944 C69.8170293,61.4523432 69.8170293,61.4877296 69.7993361,61.5016979 L69.3467631,62.4990348 C69.3281387,62.5502519 69.295546,62.5856383 69.2294293,62.6005378 C69.194043,62.6005378 69.1549317,62.6005378 69.1335136,62.5856383 C68.6855967,62.4440928 67.64263,62.1330653 66.9265216,62.1330653" id="Fill-34"></path>
                <path d="M74.9214201,64.3046709 C75.5313694,63.7515261 76.2316471,63.5783191 76.8369402,63.5783191 C78.9489478,63.5783191 79.7423475,65.023573 79.7423475,66.676489 L79.7423475,70.456312 C79.7423475,70.5773707 79.6967177,70.6285878 79.5747278,70.6285878 L78.2496014,70.6285878 C78.1276115,70.6285878 78.0717383,70.5773707 78.0717383,70.456312 L78.0717383,66.9372306 C78.0717383,65.945481 77.9171557,65.0924833 76.4355843,65.0924833 C75.3916864,65.0924833 74.9214201,65.945481 74.9214201,66.9372306 L74.9214201,70.456312 C74.9214201,70.5773707 74.8711342,70.6285878 74.7463507,70.6285878 L73.4240179,70.6285878 C73.3020281,70.6285878 73.250811,70.5773707 73.250811,70.456312 L73.250811,60.9122355 C73.250811,60.7921081 73.3020281,60.7371661 73.4240179,60.7371661 L74.7463507,60.7371661 C74.8711342,60.7371661 74.9214201,60.7921081 74.9214201,60.9122355 L74.9214201,64.3046709 Z" id="Fill-35"></path>
                <path d="M82.8854953,63.8418544 C82.8854953,63.7180022 82.9376436,63.6639914 83.0587022,63.6639914 L84.3782414,63.6639914 C84.5011624,63.6639914 84.5551732,63.7180022 84.5551732,63.8418544 L84.5551732,70.4572433 C84.5551732,70.5773707 84.5011624,70.6285878 84.3782414,70.6285878 L83.0587022,70.6285878 C82.9376436,70.6285878 82.8854953,70.5773707 82.8854953,70.4572433 L82.8854953,63.8418544 Z M83.7366306,60.8610184 C84.3111935,60.8610184 84.7814597,61.3452529 84.7814597,61.9049163 C84.7814597,62.4645797 84.3111935,62.9143591 83.7366306,62.9143591 C83.1974541,62.9143591 82.7271878,62.4645797 82.7271878,61.9049163 C82.7271878,61.3452529 83.1974541,60.8610184 83.7366306,60.8610184 L83.7366306,60.8610184 Z" id="Fill-36"></path>
                <path d="M97.4626312,70.4567777 C97.4626312,70.5778363 97.4067579,70.6290534 97.2847681,70.6290534 L95.9615041,70.6290534 C95.8367206,70.6290534 95.7892283,70.5778363 95.7892283,70.4567777 L95.7892283,66.6760233 C95.7892283,65.6311942 95.4949627,65.1097109 94.7462616,65.1097109 C94.1381748,65.1097109 93.5785114,65.5622839 93.5058762,66.1889951 C93.5282255,66.3789641 93.5282255,66.5009539 93.5282255,66.6946478 L93.5282255,70.4567777 C93.5282255,70.5778363 93.4714211,70.6290534 93.3503624,70.6290534 L92.0261672,70.6290534 C91.9041774,70.6290534 91.8529602,70.5778363 91.8529602,70.4567777 L91.8529602,66.9553894 C91.8529602,65.9636398 91.5763878,65.1097109 90.7904379,65.1097109 C89.9346465,65.1097109 89.5360842,65.9636398 89.5360842,66.9553894 L89.5360842,70.4567777 C89.5360842,70.5778363 89.4811422,70.6290534 89.3628772,70.6290534 L88.038682,70.6290534 C87.9185546,70.6290534 87.8682687,70.5778363 87.8682687,70.4567777 L87.8682687,63.8413888 C87.8682687,63.7184678 87.9185546,63.6635258 88.038682,63.6635258 L89.0648867,63.6635258 C89.1570776,63.6635258 89.2241254,63.7184678 89.2380937,63.8413888 L89.3805704,64.4811372 C89.9905197,63.7678224 90.6507549,63.5778535 91.2616354,63.5778535 C91.9367701,63.5778535 92.6584658,63.9969026 93.090552,64.6701749 C93.6809456,63.7184678 94.5348746,63.5778535 95.2165279,63.5778535 C96.6059085,63.5778535 97.4626312,64.8815619 97.4626312,66.5009539 L97.4626312,70.4567777 Z" id="Fill-37"></path>
                <path d="M104.337644,68.7479885 L104.337644,68.1883251 C104.117876,67.7916252 103.278847,67.5653387 102.83093,67.5653387 C101.974207,67.5653387 101.749783,67.8940595 101.749783,68.4015745 C101.749783,69.0953336 102.131583,69.270403 103.018105,69.270403 C103.162444,69.270403 103.92977,69.2182547 104.337644,68.7479885 L104.337644,68.7479885 Z M104.623529,69.7760556 C104.117876,70.6998261 102.687522,70.7156569 102.514315,70.7156569 C101.767476,70.7156569 100.080105,70.4567777 100.080105,68.4891092 C100.080105,67.0270934 101.06813,66.2439371 102.481722,66.2439371 C103.116814,66.2439371 103.959569,66.42925 104.337644,66.8166376 C104.337644,65.4719555 103.661578,65.1097109 102.463098,65.1097109 C102.268473,65.1097109 101.833593,65.1590655 101.221781,65.2978173 C101.157527,65.3136481 101.138903,65.3350662 101.086754,65.3350662 C101.019706,65.3350662 100.961039,65.2829178 100.929378,65.1935207 L100.566202,64.4280576 C100.528953,64.3610098 100.513123,64.290237 100.513123,64.2222579 C100.513123,64.150554 100.547578,64.1011993 100.59507,64.0630193 C101.521634,63.5955467 102.131583,63.5778535 102.70149,63.5778535 C104.845159,63.5778535 106.013841,64.7437413 106.013841,66.7114097 L106.013841,70.4567777 C106.013841,70.5778363 105.961692,70.6290534 105.840634,70.6290534 L104.936419,70.6290534 C104.81536,70.6290534 104.741794,70.5778363 104.691508,70.4567777 L104.623529,69.7760556 Z" id="Fill-38"></path>
                <path d="M114.634705,67.1274789 C114.634705,65.9308609 113.853412,65.0918314 112.809514,65.0918314 C111.801933,65.0918314 110.909824,65.9308609 110.909824,67.1274789 C110.909824,68.3846263 111.764685,69.2702168 112.809514,69.2702168 C113.834787,69.2702168 114.634705,68.3129223 114.634705,67.1274789 L114.634705,67.1274789 Z M110.628596,70.4565914 C110.582035,70.57765 110.5094,70.6288672 110.390203,70.6288672 L109.407766,70.6288672 C109.291364,70.6288672 109.24294,70.57765 109.24294,70.4565914 L109.24294,60.9125148 C109.24294,60.7914562 109.291364,60.7374454 109.407766,60.7374454 L110.740342,60.7374454 C110.855814,60.7374454 110.909824,60.7914562 110.909824,60.9125148 L110.909824,64.5154061 C111.60824,63.5953604 112.721979,63.5776673 113.054425,63.5776673 C114.952252,63.5776673 116.346288,65.1756412 116.346288,67.1097858 C116.346288,69.0783854 114.96622,70.7164019 113.160584,70.7164019 C112.373703,70.7164019 111.340979,70.5953432 110.740342,69.7088215 L110.628596,70.4565914 Z" id="Fill-39"></path>
                <path d="M122.789681,68.7479885 L122.789681,68.1883251 C122.564325,67.7916252 121.726227,67.5653387 121.27086,67.5653387 C120.420656,67.5653387 120.195301,67.8940595 120.195301,68.4015745 C120.195301,69.0953336 120.578964,69.270403 121.466417,69.270403 C121.603306,69.270403 122.367838,69.2182547 122.789681,68.7479885 L122.789681,68.7479885 Z M123.069047,69.7760556 C122.564325,70.6998261 121.134902,70.7156569 120.95797,70.7156569 C120.212994,70.7156569 118.523761,70.4567777 118.523761,68.4891092 C118.523761,67.0270934 119.516442,66.2439371 120.922584,66.2439371 C121.571645,66.2439371 122.405087,66.42925 122.789681,66.8166376 C122.789681,65.4719555 122.112684,65.1097109 120.911409,65.1097109 C120.717716,65.1097109 120.281905,65.1590655 119.672887,65.2978173 C119.597458,65.3136481 119.582558,65.3350662 119.532272,65.3350662 C119.462431,65.3350662 119.414007,65.2829178 119.375827,65.1935207 L119.009858,64.4280576 C118.98099,64.3610098 118.961434,64.290237 118.961434,64.2222579 C118.961434,64.150554 118.994958,64.1011993 119.044313,64.0630193 C119.969946,63.5955467 120.578964,63.5778535 121.149802,63.5778535 C123.293471,63.5778535 124.462152,64.7437413 124.462152,66.7114097 L124.462152,70.4567777 C124.462152,70.5778363 124.410935,70.6290534 124.288945,70.6290534 L123.381006,70.6290534 C123.257153,70.6290534 123.191968,70.5778363 123.138888,70.4567777 L123.069047,69.7760556 Z" id="Fill-40"></path>
                <path d="M131.113859,65.092297 C129.67233,65.092297 129.356646,66.0142051 129.356646,66.9370444 L129.356646,70.457057 C129.356646,70.5781157 129.311016,70.6284015 129.183439,70.6284015 L127.860175,70.6284015 C127.739117,70.6284015 127.687899,70.5781157 127.687899,70.457057 L127.687899,63.8416682 C127.687899,63.7178159 127.739117,63.6638051 127.860175,63.6638051 L128.885449,63.6638051 C128.975777,63.6638051 129.045619,63.7178159 129.062381,63.8416682 L129.200201,64.428337 C129.845537,63.7178159 130.593307,63.5781329 131.151108,63.5781329 L131.552464,63.5781329 C131.673522,63.5781329 131.730327,63.6312124 131.730327,63.7522711 L131.730327,64.9190901 C131.730327,65.0401487 131.673522,65.092297 131.552464,65.092297 L131.113859,65.092297 Z" id="Fill-41"></path>
                <path d="M137.737442,68.7479885 L137.737442,68.1883251 C137.505568,67.7916252 136.672126,67.5653387 136.217691,67.5653387 C135.366556,67.5653387 135.1412,67.8940595 135.1412,68.4015745 C135.1412,69.0953336 135.525794,69.270403 136.413247,69.270403 C136.55293,69.270403 137.317462,69.2182547 137.737442,68.7479885 L137.737442,68.7479885 Z M138.013084,69.7760556 C137.505568,70.6998261 136.080801,70.7156569 135.902938,70.7156569 C135.158893,70.7156569 133.467797,70.4567777 133.467797,68.4891092 C133.467797,67.0270934 134.464203,66.2439371 135.867552,66.2439371 C136.517544,66.2439371 137.347261,66.42925 137.737442,66.8166376 C137.737442,65.4719555 137.052064,65.1097109 135.851721,65.1097109 C135.665477,65.1097109 135.228735,65.1590655 134.618786,65.2978173 C134.549875,65.3136481 134.533113,65.3350662 134.474446,65.3350662 C134.40833,65.3350662 134.35525,65.2829178 134.318933,65.1935207 L133.955757,64.4280576 C133.917577,64.3610098 133.899884,64.290237 133.899884,64.2222579 C133.899884,64.150554 133.939926,64.1011993 133.990212,64.0630193 C134.916776,63.5955467 135.525794,63.5778535 136.099426,63.5778535 C138.243095,63.5778535 139.408051,64.7437413 139.408051,66.7114097 L139.408051,70.4567777 C139.408051,70.5778363 139.354041,70.6290534 139.23112,70.6290534 L138.325042,70.6290534 C138.204915,70.6290534 138.134142,70.5778363 138.084787,70.4567777 L138.013084,69.7760556 Z" id="Fill-42"></path>
                <path d="M5.95431554,9.9056694 C7.94526448,9.9056694 9.28063436,8.57868051 9.28063436,7.03564852 C9.28063436,5.48516677 7.94526448,4.154453 5.95431554,4.154453 L4.51744266,4.154453 L4.51744266,9.9056694 L5.95431554,9.9056694 Z M5.95431554,12.3491914 L4.51744266,12.3491914 L4.51744266,16.778075 L1.85415268,16.778075 L1.85415268,1.71931199 L5.95431554,1.71931199 C9.60190535,1.71931199 12.0454273,4.154453 12.0454273,7.03564852 C12.0454273,9.9056694 9.60190535,12.3491914 5.95431554,12.3491914 L5.95431554,12.3491914 Z" id="Fill-43"></path>
                <path d="M20.7901444,8.80068343 C22.4700658,8.80068343 23.5558686,7.69532496 23.5558686,6.49032593 C23.5558686,5.26204639 22.449579,4.15482549 20.7901444,4.15482549 L18.3577971,4.15482549 L18.3577971,8.80068343 L20.7901444,8.80068343 Z M23.7821552,10.6901294 L27.2118394,16.7775163 L24.3343688,16.7775163 L21.2324741,11.2358244 L18.3577971,11.2358244 L18.3577971,16.7775163 L15.7028881,16.7775163 L15.7028881,1.71968448 L20.7901444,1.71968448 C24.1080823,1.71968448 26.3215928,3.92760774 26.3215928,6.49032593 C26.3215928,9.2495316 23.7821552,10.4861921 23.7821552,10.4647741 L23.7821552,10.6901294 Z" id="Fill-44"></path>
                <polygon id="Fill-45" points="30.4269705 1.71921887 39.175785 1.71921887 39.175785 4.15435988 33.0800171 4.15435988 33.0800171 7.91648978 37.3897045 7.91648978 37.3897045 10.3562869 33.0800171 10.3562869 33.0800171 14.3381848 39.3964842 14.3381848 39.3964842 16.7779819 30.4269705 16.7779819"></polygon>
                <polygon id="Fill-46" points="45.9199616 8.1359784 45.7029873 8.1359784 45.7029873 16.7777025 43.0490095 16.7777025 43.0490095 1.28126597 43.4932015 1.28126597 50.2417549 9.57936982 57.002414 1.28126597 57.4410188 1.28126597 57.4410188 16.7777025 54.7851786 16.7777025 54.7851786 8.1359784 54.5635481 8.1359784 50.2417549 13.4504525"></polygon>
                <polygon id="Fill-47" points="62.0900429 16.7777956 64.7449519 16.7777956 64.7449519 1.71903262 62.0900429 1.71903262"></polygon>
                <path d="M71.9472888,11.5679907 C71.9472888,13.4499869 73.271484,14.7788382 74.822897,14.7788382 C76.3733788,14.7788382 77.697574,13.4499869 77.697574,11.5679907 L77.697574,1.71940511 L80.3543454,1.71940511 L80.3543454,11.5679907 C80.3543454,14.7788382 77.9210669,17.2223602 74.822897,17.2223602 C71.7219335,17.2223602 69.2923798,14.7788382 69.2923798,11.5679907 L69.2923798,1.71940511 L71.9472888,1.71940511 L71.9472888,11.5679907 Z" id="Fill-48"></path>
                <polygon id="Fill-49" points="87.7784059 8.1359784 87.5577067 8.1359784 87.5577067 16.7777025 84.8906919 16.7777025 84.8906919 1.28126597 85.3432649 1.28126597 92.1048553 9.57936982 98.8468901 1.28126597 99.2938758 1.28126597 99.2938758 16.7777025 96.639898 16.7777025 96.639898 8.1359784 96.4145427 8.1359784 92.1048553 13.4504525"></polygon>
                <path d="M118.109461,14.3379985 C119.768895,14.3379985 120.769026,13.3872226 120.769026,12.1300753 C120.769026,10.8598908 119.768895,9.90539004 118.109461,9.90539004 L115.791654,9.90539004 L115.791654,14.3379985 L118.109461,14.3379985 Z M117.891555,7.47397391 C119.221338,7.47397391 119.993319,6.69454254 119.993319,5.8154706 C119.993319,4.92801768 119.221338,4.15417363 117.891555,4.15417363 L115.791654,4.15417363 L115.791654,7.47397391 L117.891555,7.47397391 Z M113.136745,1.71903262 L117.891555,1.71903262 C120.990656,1.71903262 122.762768,3.48835114 122.762768,5.4848874 C122.762768,7.91630353 120.32204,8.47224204 120.32204,8.47224204 L120.32204,8.700391 C120.32204,8.700391 123.64929,9.24981096 123.64929,12.4541399 C123.64929,14.6741691 121.54287,16.7777956 118.109461,16.7777956 L113.136745,16.7777956 L113.136745,1.71903262 Z" id="Fill-50"></path>
                <path d="M132.398384,8.80068343 C134.076443,8.80068343 135.162246,7.69532496 135.162246,6.49032593 C135.162246,5.26204639 134.061543,4.15482549 132.398384,4.15482549 L129.959518,4.15482549 L129.959518,8.80068343 L132.398384,8.80068343 Z M135.381083,10.6901294 L138.820079,16.7775163 L135.940746,16.7775163 L132.841645,11.2358244 L129.959518,11.2358244 L129.959518,16.7775163 L127.311128,16.7775163 L127.311128,1.71968448 L132.398384,1.71968448 C135.713528,1.71968448 137.931695,3.92760774 137.931695,6.49032593 C137.931695,9.2495316 135.381083,10.4861921 135.381083,10.4647741 L135.381083,10.6901294 Z" id="Fill-51"></path>
                <path d="M145.353148,12.1299821 L149.108759,12.1299821 L147.345028,7.47388078 L147.118742,7.47388078 L145.353148,12.1299821 Z M153.870089,16.7777025 L150.999136,16.7777025 L150.113546,14.5651232 L144.338118,14.5651232 L143.474877,16.7777025 L140.59275,16.7777025 L147.118742,0.82683048 L147.345028,0.82683048 L153.870089,16.7777025 Z" id="Fill-52"></path>
                <polygon id="Fill-53" points="165.723591 10.5740062 165.723591 1.71903262 168.3785 1.71903262 168.3785 17.2229189 167.93524 17.2229189 159.962132 7.91630353 159.73957 7.91630353 159.73957 16.7777956 157.087455 16.7777956 157.087455 1.28135909 157.528853 1.28135909 165.504755 10.5740062"></polygon>
                <path d="M175.684203,4.15463924 L175.684203,14.3384641 L177.461902,14.3384641 C180.011583,14.3384641 182.332184,12.0113447 182.332184,9.25027657 C182.332184,6.49013969 180.011583,4.15463924 177.461902,4.15463924 L175.684203,4.15463924 Z M177.461902,1.71949823 C181.671949,1.71949823 185.097909,5.15104494 185.097909,9.25027657 C185.097909,13.3457833 181.671949,16.7782613 177.461902,16.7782613 L173.031156,16.7782613 L173.031156,1.71949823 L177.461902,1.71949823 Z" id="Fill-54"></path>
                <path d="M7.86769384,30.4725072 C5.20999118,30.4725072 2.76181308,32.9076482 2.76181308,35.9992995 C2.76181308,39.1067816 5.20999118,41.5409914 7.86769384,41.5409914 C10.5226028,41.5409914 12.9502941,39.1067816 12.9502941,35.9992995 C12.9502941,32.9076482 10.5226028,30.4725072 7.86769384,30.4725072 M7.86769384,28.0345725 C12.1829686,28.0345725 15.7243993,31.5760032 15.7243993,35.9992995 C15.7243993,40.4356329 12.1829686,43.9761324 7.86769384,43.9761324 C3.54124445,43.9761324 -0.000186244055,40.4356329 -0.000186244055,35.9992995 C-0.000186244055,31.5760032 3.54124445,28.0345725 7.86769384,28.0345725" id="Fill-55"></path>
                <path d="M28.4531561,30.580715 L26.465932,32.0175879 C26.465932,32.0175879 25.3605735,30.4726935 24.0317222,30.4726935 C22.6972836,30.4726935 21.8210053,31.3554903 21.8210053,32.4571239 C21.8210053,35.1176202 28.6766489,34.6743593 28.6766489,39.4310325 C28.6766489,41.7609456 26.465932,43.9763186 23.47299,43.9763186 C19.7108601,43.9763186 18.048632,40.87908 18.048632,40.87908 L20.0433058,39.4310325 C20.0433058,39.4310325 21.2613419,41.5411776 23.2522908,41.5411776 C24.8009101,41.5411776 25.9090623,40.4358192 25.9090623,39.2196455 C25.9090623,36.5507682 19.0599372,37.00241 19.0599372,32.2373559 C19.0599372,30.1374542 21.1486642,28.0347588 23.8091606,28.0347588 C26.9082616,28.0347588 28.4531561,30.580715 28.4531561,30.580715" id="Fill-56"></path>
                <path d="M35.6533512,38.8817056 L39.4219996,38.8817056 L37.6498875,34.2321228 L37.4217385,34.2321228 L35.6533512,38.8817056 Z M44.1823977,43.537807 L41.2993397,43.537807 L40.4165429,41.3149842 L34.6401835,41.3149842 L33.7741487,43.537807 L30.8929532,43.537807 L37.4217385,27.5897286 L37.6498875,27.5897286 L44.1823977,43.537807 Z" id="Fill-57"></path>
                <path d="M53.3710275,35.562371 L58.3511935,43.5373414 L55.4746541,43.5373414 L50.6034408,35.562371 L55.0341869,28.4692662 L57.9079326,28.4692662 L53.3710275,35.562371 Z M47.395387,43.5373414 L50.050296,43.5373414 L50.050296,28.4683349 L47.395387,28.4683349 L47.395387,43.5373414 Z" id="Fill-58"></path>
                <polygon id="Fill-59" points="61.4596067 43.5382726 64.1145157 43.5382726 64.1145157 28.4692662 61.4596067 28.4692662"></polygon>
                <polygon id="Fill-60" points="79.2729193 30.9089702 79.2729193 43.5381795 76.6235977 43.5381795 76.6235977 30.9089702 72.7469277 30.9089702 72.7469277 28.469173 83.1561079 28.469173 83.1561079 30.9089702"></polygon>
                <path d="M93.3357423,30.4725072 C90.6799021,30.4725072 88.2503484,32.9076482 88.2503484,35.9992995 C88.2503484,39.1067816 90.6799021,41.5409914 93.3357423,41.5409914 C95.9897201,41.5409914 98.4360357,39.1067816 98.4360357,35.9992995 C98.4360357,32.9076482 95.9897201,30.4725072 93.3357423,30.4725072 M93.3357423,28.0345725 C97.6612604,28.0345725 101.195241,31.5760032 101.195241,35.9992995 C101.195241,40.4356329 97.6612604,43.9761324 93.3357423,43.9761324 C89.0195363,43.9761324 85.4827617,40.4356329 85.4827617,35.9992995 C85.4827617,31.5760032 89.0195363,28.0345725 93.3357423,28.0345725" id="Fill-61"></path>
                <polygon id="Fill-62" points="104.864156 28.4690799 113.82622 28.4690799 113.82622 30.908877 107.508822 30.908877 107.508822 35.677656 112.056902 35.677656 112.056902 38.1109346 107.508822 38.1109346 107.508822 43.5380864 104.864156 43.5380864"></polygon>
                <path d="M119.694118,38.3342412 C119.694118,40.2125125 121.019245,41.5404326 122.579039,41.5404326 C124.120208,41.5404326 125.456509,40.2125125 125.456509,38.3342412 L125.456509,28.4688937 L128.110487,28.4688937 L128.110487,38.3342412 C128.110487,41.5404326 125.674415,43.9765049 122.579039,43.9765049 C119.471557,43.9765049 117.039209,41.5404326 117.039209,38.3342412 L117.039209,28.4688937 L119.694118,28.4688937 L119.694118,38.3342412 Z" id="Fill-63"></path>
                <path d="M138.665031,33.916346 L140.872954,33.916346 C140.872954,33.2654231 140.170814,33.062417 139.761077,33.062417 C139.342959,33.062417 138.665031,33.2654231 138.665031,33.916346 M142.186906,34.8708468 L138.665031,34.8708468 C138.665031,35.7862363 139.547828,35.9212633 139.93894,35.9212633 C140.333778,35.9212633 140.941864,35.8132417 141.224024,35.5571561 C141.303178,35.5022141 141.374882,35.4752088 141.432617,35.4752088 C141.468935,35.4752088 141.497803,35.4891771 141.524808,35.5124576 L141.93082,36.1913171 C141.963413,36.2164601 141.971794,36.2565026 141.971794,36.3254129 C141.971794,36.3915295 141.963413,36.4334344 141.93082,36.4753393 C141.454967,37.0731827 140.669948,37.1942414 139.952908,37.1942414 C138.390321,37.1942414 137.12293,36.3673178 137.12293,34.457385 C137.12293,32.9543955 137.890256,31.63765 139.735934,31.63765 C141.211918,31.63765 142.363838,32.5986693 142.363838,34.3344639 C142.363838,34.5262953 142.353594,34.4843904 142.353594,34.7125394 C142.353594,34.8233546 142.29679,34.8708468 142.186906,34.8708468" id="Fill-64"></path>
                <path d="M144.125055,36.5426666 C144.125055,36.5314919 144.125055,36.5026241 144.135298,36.4877246 L144.424908,35.5667477 C144.438876,35.5378799 144.462156,35.5267052 144.518961,35.5267052 C144.545035,35.5267052 144.573903,35.5267052 144.584146,35.5378799 C144.791808,35.6477639 145.424107,35.9345797 146.169083,35.9345797 C146.388851,35.9345797 146.886123,35.8647382 146.886123,35.5918907 C146.886123,34.8646076 144.164166,35.3367363 144.164166,33.2508029 C144.164166,32.1538254 145.113079,31.6369982 146.346946,31.6369982 C147.009044,31.6369982 147.705597,31.8400042 147.985894,31.9657189 C148.015693,31.978756 148.041767,32.0178673 148.067841,32.0560473 C148.067841,32.0998146 148.067841,32.1137829 148.052011,32.1249576 L147.767988,33.128813 C147.753089,33.1669931 147.713978,33.1958609 147.66276,33.1958609 C147.647861,33.1958609 147.63203,33.183755 147.594781,33.183755 C147.272579,33.0748023 146.70081,32.9919237 146.277105,32.9919237 C145.735135,32.9919237 145.698817,33.128813 145.698817,33.3038825 C145.698817,33.9399059 148.419843,33.7648365 148.419843,35.4754881 C148.419843,36.7894399 147.225087,37.1935895 146.181189,37.1935895 C145.521885,37.1935895 144.882137,37.0958114 144.192103,36.6637252 C144.175341,36.6525506 144.125055,36.6106456 144.125055,36.5426666" id="Fill-65"></path>
                <path d="M152.605585,33.033363 L152.605585,34.5912945 C152.605585,35.6230865 152.646558,35.8428545 153.122412,35.8428545 C153.269545,35.8428545 153.364529,35.8530979 153.546117,35.8130555 C153.552636,35.7990872 153.593609,35.7990872 153.635514,35.7990872 C153.690456,35.7990872 153.76961,35.8530979 153.783578,35.9071087 L154.003346,36.8280856 C154.011727,36.8411227 154.011727,36.88489 154.011727,36.92307 C154.011727,36.9938428 153.944679,37.0627531 153.92978,37.0627531 C153.546117,37.2080234 153.391534,37.1940551 152.917543,37.1940551 C151.751656,37.1940551 151.071865,36.6781591 151.071865,34.8902162 L151.071865,33.033363 L150.15275,33.033363 C150.046591,33.033363 149.988856,32.978421 149.988856,32.8722619 L149.988856,31.8013585 C149.988856,31.6924058 150.046591,31.6374638 150.15275,31.6374638 L151.071865,31.6374638 L151.071865,29.5952977 C151.071865,29.4835513 151.131463,29.4295405 151.23576,29.4295405 L152.44169,29.4295405 C152.547849,29.4295405 152.605585,29.4835513 152.605585,29.5952977 L152.605585,31.6374638 L153.76961,31.6374638 C153.882288,31.6374638 153.92978,31.6924058 153.92978,31.8013585 L153.92978,32.8722619 C153.92978,32.978421 153.882288,33.033363 153.76961,33.033363 L152.605585,33.033363 Z" id="Fill-66"></path>
                <path d="M156.937063,35.566934 C157.418503,35.566934 157.756536,35.9068294 157.756536,36.3770956 C157.756536,36.8538804 157.418503,37.1937758 156.937063,37.1937758 C156.465865,37.1937758 156.129695,36.8538804 156.129695,36.3770956 C156.129695,35.9068294 156.465865,35.566934 156.937063,35.566934" id="Fill-67"></path>
                <path d="M163.662894,36.9646956 C163.662894,37.0727171 163.607952,37.1276591 163.498999,37.1276591 L162.294,37.1276591 C162.185047,37.1276591 162.131037,37.0727171 162.131037,36.9646956 L162.131037,31.6483591 C161.450315,32.1782234 160.353337,32.3439806 159.924976,32.3439806 C159.824404,32.3439806 159.785293,32.2750703 159.785293,32.1782234 L159.785293,31.1073201 C159.785293,31.0151293 159.841166,30.9611185 159.9436,30.9480814 C161.587204,30.6193607 163.093918,29.4292611 163.498999,29.4292611 C163.593053,29.4292611 163.647995,29.4674412 163.662894,29.5661505 L163.662894,36.9646956 Z" id="Fill-68"></path>
                <path d="M170.287874,32.0175879 C170.287874,31.1860082 169.599703,30.7576469 168.891044,30.7576469 C168.18611,30.7576469 167.497007,31.1860082 167.497007,32.0175879 C167.497007,32.8435803 168.18611,33.2942909 168.891044,33.2942909 C169.599703,33.2942909 170.287874,32.8435803 170.287874,32.0175879 M171.815076,32.0864982 C171.815076,32.5027537 171.721022,32.8854852 171.519879,33.2393489 L169.487025,36.96423 C169.447914,37.0629393 169.380866,37.1271935 169.270982,37.1271935 L167.906744,37.1271935 C167.794998,37.1271935 167.739125,37.0731827 167.739125,36.96423 L169.000928,34.6473539 L168.891044,34.6473539 C167.330319,34.6473539 165.966081,33.603456 165.966081,32.0864982 C165.966081,30.2408196 167.357324,29.3310174 168.90315,29.3310174 C170.421039,29.3310174 171.815076,30.2408196 171.815076,32.0864982" id="Fill-69"></path>
                <path d="M179.55184,34.713005 C179.55184,36.230894 178.184809,37.1937758 176.724655,37.1937758 C175.351105,37.1937758 174.242953,36.5316782 173.98128,35.3657904 C173.98128,35.2559064 174.035291,35.2028268 174.146106,35.2028268 L175.351105,35.2028268 C175.463783,35.2028268 175.510344,35.2559064 175.510344,35.3657904 C175.7208,35.7438658 176.176166,35.8425752 176.706962,35.8425752 C177.359747,35.8425752 178.022776,35.5566905 178.022776,34.7279045 C178.022776,33.9000497 177.462182,33.6113714 176.813121,33.6113714 C176.366135,33.6113714 176.017859,33.630927 175.74408,33.8078589 C175.706831,33.9000497 175.623022,33.9168116 175.554111,33.9168116 C175.554111,33.9168116 175.501032,33.9168116 174.282064,33.8181023 C174.185218,33.7892345 174.146106,33.7389486 174.146106,33.6681758 L174.146106,29.6080554 C174.146106,29.5093461 174.132138,29.4292611 174.282064,29.4292611 L178.899986,29.4292611 C179.00987,29.4292611 179.066674,29.4842031 179.066674,29.5950184 L179.066674,30.6594031 C179.066674,30.7711496 179.00987,30.8270228 178.899986,30.8270228 L175.677032,30.8270228 L175.677032,32.3942665 C176.044864,32.2648269 176.421077,32.1959166 176.828021,32.1959166 C178.309592,32.1959166 179.55184,33.1960471 179.55184,34.713005" id="Fill-70"></path>
                <path d="M184.905425,36.9646956 C184.905425,37.0727171 184.855139,37.1276591 184.746187,37.1276591 L183.537463,37.1276591 C183.431304,37.1276591 183.37543,37.0727171 183.37543,36.9646956 L183.37543,31.6483591 C182.693777,32.1782234 181.594937,32.3439806 181.160057,32.3439806 C181.07066,32.3439806 181.029687,32.2750703 181.029687,32.1782234 L181.029687,31.1073201 C181.029687,31.0151293 181.080904,30.9611185 181.187994,30.9480814 C182.829735,30.6193607 184.339243,29.4292611 184.746187,29.4292611 C184.838377,29.4292611 184.886801,29.4674412 184.905425,29.5661505 L184.905425,36.9646956 Z" id="Fill-71"></path>
                <polygon id="Fill-72" points="136.97319 42.8063335 185.655523 42.8063335 185.655523 40.8787075 136.97319 40.8787075"></polygon>
            </g>
        </g>
    </g>
</svg>