<?xml version="1.0" encoding="UTF-8"?>
<svg width="330px" height="18px" viewBox="0 0 330 18" version="1.1" xmlns="http://www.w3.org/2000/svg" xmlns:xlink="http://www.w3.org/1999/xlink">
    <!-- Generator: Sketch 54.1 (76490) - https://sketchapp.com -->
    <title>Group 35</title>
    <desc>Created with Sketch.</desc>
    <g id="Symbols" stroke="none" stroke-width="1" fill="none" fill-rule="evenodd">
        <g id="contents/3items" transform="translate(-927.000000, -314.000000)" fill="#512700">
            <g id="Group-35" transform="translate(927.000000, 314.000000)">
                <g id="Group-34">
                    <path d="M4.28963365,9.5058985 C6.37616564,9.5058985 7.76653574,8.11487717 7.76653574,6.49267019 C7.76653574,4.86981197 6.37616564,3.47813942 4.28963365,3.47813942 L2.78269388,3.47813942 L2.78269388,9.5058985 L4.28963365,9.5058985 Z M4.28963365,12.0561043 L2.78269388,12.0561043 L2.78269388,16.692842 L1.19015908e-13,16.692842 L1.19015908e-13,0.928584882 L4.28963365,0.928584882 C8.11494229,0.928584882 10.6644968,3.47813942 10.6644968,6.49267019 C10.6644968,9.5058985 8.11494229,12.0561043 4.28963365,12.0561043 L4.28963365,12.0561043 Z" id="Fill-1"></path>
                    <path d="M19.8233563,8.34619308 C21.5855772,8.34619308 22.7219687,7.18765987 22.7219687,5.91255698 C22.7219687,4.63680288 21.562133,3.47826966 19.8233563,3.47826966 L17.2724994,3.47826966 L17.2724994,8.34619308 L19.8233563,8.34619308 Z M22.9531543,10.3174578 L26.5466261,16.692321 L23.5327465,16.692321 L20.2870301,10.8963988 L17.2724994,10.8963988 L17.2724994,16.692321 L14.4911079,16.692321 L14.4911079,0.928715128 L19.8233563,0.928715128 C23.3009097,0.928715128 25.6199298,3.24643278 25.6199298,5.91255698 C25.6199298,8.81051808 22.9531543,10.1084139 22.9531543,10.0849697 L22.9531543,10.3174578 Z" id="Fill-3"></path>
                    <polygon id="Fill-5" points="29.9097588 0.928650005 39.0666646 0.928650005 39.0666646 3.47820454 32.6911502 3.47820454 32.6911502 7.41943163 37.2113183 7.41943163 37.2113183 9.96898617 32.6911502 9.96898617 32.6911502 14.1413989 39.2985015 14.1413989 39.2985015 16.6929071 29.9097588 16.6929071"></polygon>
                    <polygon id="Fill-7" points="46.1391875 7.65048705 45.9066994 7.65048705 45.9066994 16.6927769 43.125308 16.6927769 43.125308 0.464845984 43.5883305 0.464845984 50.6593556 9.15742682 57.7303807 0.464845984 58.1947057 0.464845984 58.1947057 16.6927769 55.4120118 16.6927769 55.4120118 7.65048705 55.1808261 7.65048705 50.6593556 13.2145723"></polygon>
                    <polygon id="Fill-9" points="63.0639315 16.6931025 65.845323 16.6931025 65.845323 0.928845373 63.0639315 0.928845373"></polygon>
                    <path d="M73.3813894,11.24461 C73.3813894,13.2145723 74.7717595,14.6055937 76.3952689,14.6055937 C78.0174759,14.6055937 79.4084972,13.2145723 79.4084972,11.24461 L79.4084972,0.928519759 L82.1905399,0.928519759 L82.1905399,11.24461 C82.1905399,14.6055937 79.6403341,17.1551482 76.3952689,17.1551482 C73.1495525,17.1551482 70.599998,14.6055937 70.599998,11.24461 L70.599998,0.928519759 L73.3813894,0.928519759 L73.3813894,11.24461 Z" id="Fill-11"></path>
                    <polygon id="Fill-12" points="89.9590293 7.65048705 89.7265412 7.65048705 89.7265412 16.6927769 86.9451498 16.6927769 86.9451498 0.464845984 87.4081723 0.464845984 94.4791974 9.15742682 101.549571 0.464845984 102.013896 0.464845984 102.013896 16.6927769 99.2325048 16.6927769 99.2325048 7.65048705 99.0000167 7.65048705 94.4791974 13.2145723"></polygon>
                    <path d="M117.66484,14.141464 C119.404268,14.141464 120.446882,13.1450864 120.446882,11.8243976 C120.446882,10.5024064 119.404268,9.50602874 117.66484,9.50602874 L115.230553,9.50602874 L115.230553,14.141464 L117.66484,14.141464 Z M117.433003,6.95517175 C118.823373,6.95517175 119.634802,6.14374264 119.634802,5.21704632 C119.634802,4.29035 118.823373,3.47826966 117.433003,3.47826966 L115.230553,3.47826966 L115.230553,6.95517175 L117.433003,6.95517175 Z M112.44851,0.928715128 L117.433003,0.928715128 C120.678719,0.928715128 122.533414,2.782759 122.533414,4.86994222 C122.533414,7.41949675 119.983209,7.99908897 119.983209,7.99908897 L119.983209,8.23092586 C119.983209,8.23092586 123.45946,8.81051808 123.45946,12.1715017 C123.45946,14.4898706 121.258312,16.692321 117.66484,16.692321 L112.44851,16.692321 L112.44851,0.928715128 Z" id="Fill-13"></path>
                    <path d="M132.618905,8.34619308 C134.380475,8.34619308 135.516215,7.18765987 135.516215,5.91255698 C135.516215,4.63680288 134.357682,3.47826966 132.618905,3.47826966 L130.068699,3.47826966 L130.068699,8.34619308 L132.618905,8.34619308 Z M135.749354,10.3174578 L139.341524,16.692321 L136.327644,16.692321 L133.08323,10.8963988 L130.068699,10.8963988 L130.068699,16.692321 L127.286657,16.692321 L127.286657,0.928715128 L132.618905,0.928715128 C136.09711,0.928715128 138.414176,3.24643278 138.414176,5.91255698 C138.414176,8.81051808 135.749354,10.1084139 135.749354,10.0849697 L135.749354,10.3174578 Z" id="Fill-14"></path>
                    <path d="M146.182079,11.8243325 L150.123958,11.8243325 L148.268611,6.95510663 L148.037426,6.95510663 L146.182079,11.8243325 Z M155.1078,16.6929071 L152.09392,16.6929071 L151.167224,14.3745383 L145.116021,14.3745383 L144.212117,16.6929071 L141.197586,16.6929071 L148.037426,5.32907052e-14 L148.268611,5.32907052e-14 L155.1078,16.6929071 Z" id="Fill-15"></path>
                    <polygon id="Fill-16" points="167.511985 10.2003672 167.511985 0.928845373 170.293376 0.928845373 170.293376 17.1554738 169.830354 17.1554738 161.484877 7.419627 161.25304 7.419627 161.25304 16.6924513 158.470997 16.6924513 158.470997 0.464520371 158.93402 0.464520371 167.280148 10.2003672"></polygon>
                    <path d="M177.946273,3.47820454 L177.946273,14.1413989 L179.800968,14.1413989 C182.467092,14.1413989 184.900728,11.7077628 184.900728,8.81045296 C184.900728,5.91249186 182.467092,3.47820454 179.800968,3.47820454 L177.946273,3.47820454 Z M179.800968,0.928650005 C184.204566,0.928650005 187.798689,4.52147054 187.798689,8.81045296 C187.798689,13.0981329 184.204566,16.6929071 179.800968,16.6929071 L175.16423,16.6929071 L175.16423,0.928650005 L179.800968,0.928650005 Z" id="Fill-17"></path>
                </g>
                <g id="Group-32" transform="translate(195.535852, 0.000000)">
                    <path d="M8.22890706,3.01427028 C5.44751563,3.01427028 2.8979611,5.56512727 2.8979611,8.81084369 C2.8979611,12.0559089 5.44751563,14.6054634 8.22890706,14.6054634 C11.0116009,14.6054634 13.5611555,12.0559089 13.5611555,8.81084369 C13.5611555,5.56512727 11.0116009,3.01427028 8.22890706,3.01427028 M8.22890706,0.464715739 C12.7503776,0.464715739 16.460419,4.17410594 16.460419,8.81084369 C16.460419,13.4475814 12.7503776,17.155018 8.22890706,17.155018 C3.71004143,17.155018 7.67386155e-13,13.4475814 7.67386155e-13,8.81084369 C7.67386155e-13,4.17410594 3.71004143,0.464715739 8.22890706,0.464715739" id="Fill-18"></path>
                    <path d="M29.7918867,3.12973286 L27.7053547,4.63667263 C27.7053547,4.63667263 26.5461702,3.01446564 25.1558001,3.01446564 C23.7641276,3.01446564 22.8374313,3.94116197 22.8374313,5.10099763 C22.8374313,7.88238906 30.0230723,7.41936651 30.0230723,12.4032084 C30.0230723,14.8374957 27.7053547,17.1552133 24.5755567,17.1552133 C20.6343296,17.1552133 18.8955529,13.9101481 18.8955529,13.9101481 L20.9827362,12.4032084 C20.9827362,12.4032084 22.2571878,14.6056588 24.3437198,14.6056588 C25.966578,14.6056588 27.1257624,13.4471256 27.1257624,12.1713715 C27.1257624,9.38932883 19.9394702,9.8530026 19.9394702,4.86981197 C19.9394702,2.66736154 22.1419206,0.464911107 24.923312,0.464911107 C28.1696797,0.464911107 29.7918867,3.12973286 29.7918867,3.12973286" id="Fill-19"></path>
                    <path d="M37.3267809,11.8243325 L41.2686592,11.8243325 L39.4139641,6.95510663 L39.1821272,6.95510663 L37.3267809,11.8243325 Z M46.2531523,16.6929071 L43.2392727,16.6929071 L42.3125764,14.3745383 L36.2607219,14.3745383 L35.3574698,16.6929071 L32.342939,16.6929071 L39.1821272,7.81597009e-14 L39.4139641,7.81597009e-14 L46.2531523,16.6929071 Z" id="Fill-20"></path>
                    <path d="M55.8759461,8.34619308 L61.0916248,16.692321 L58.0783965,16.692321 L52.9786362,8.34619308 L57.6147227,0.928715128 L60.627951,0.928715128 L55.8759461,8.34619308 Z M49.6163501,16.692321 L52.3977415,16.692321 L52.3977415,0.9280639 L49.6163501,0.9280639 L49.6163501,16.692321 Z" id="Fill-21"></path>
                    <polygon id="Fill-22" points="64.3396205 16.6931025 67.1210119 16.6931025 67.1210119 0.928845373 64.3396205 0.928845373"></polygon>
                    <polygon id="Fill-23" points="83.0023597 3.47820454 83.0023597 16.6929071 80.2203171 16.6929071 80.2203171 3.47820454 76.1631715 3.47820454 76.1631715 0.928650005 87.058854 0.928650005 87.058854 3.47820454"></polygon>
                    <path d="M97.7243277,3.01427028 C94.9422851,3.01427028 92.3920793,5.56512727 92.3920793,8.81084369 C92.3920793,12.0559089 94.9422851,14.6054634 97.7243277,14.6054634 C100.505719,14.6054634 103.056576,12.0559089 103.056576,8.81084369 C103.056576,5.56512727 100.505719,3.01427028 97.7243277,3.01427028 M97.7243277,0.464715739 C102.244496,0.464715739 105.953886,4.17410594 105.953886,8.81084369 C105.953886,13.4475814 102.244496,17.155018 97.7243277,17.155018 C93.2035084,17.155018 89.493467,13.4475814 89.493467,8.81084369 C89.493467,4.17410594 93.2035084,0.464715739 97.7243277,0.464715739" id="Fill-24"></path>
                    <polygon id="Fill-25" points="109.780888 0.928650005 119.170282 0.928650005 119.170282 3.47820454 112.56293 3.47820454 112.56293 8.4620464 117.314935 8.4620464 117.314935 11.0116009 112.56293 11.0116009 112.56293 16.6929071 109.780888 16.6929071"></polygon>
                    <path d="M125.315587,11.24461 C125.315587,13.2145723 126.705957,14.6055937 128.329467,14.6055937 C129.951674,14.6055937 131.342044,13.2145723 131.342044,11.24461 L131.342044,0.928519759 L134.124087,0.928519759 L134.124087,11.24461 C134.124087,14.6055937 131.574532,17.1551482 128.329467,17.1551482 C125.083099,17.1551482 122.532893,14.6055937 122.532893,11.24461 L122.532893,0.928519759 L125.315587,0.928519759 L125.315587,11.24461 Z" id="Fill-26"></path>
                </g>
            </g>
        </g>
    </g>
</svg>