<?xml version="1.0" encoding="UTF-8"?>
<svg width="1088px" height="91px" viewBox="0 0 1088 91" version="1.1" xmlns="http://www.w3.org/2000/svg" xmlns:xlink="http://www.w3.org/1999/xlink">
    <!-- Generator: Sketch 61 (89581) - https://sketch.com -->
    <title>logo-mamestro-beauty-food</title>
    <desc>Created with Sketch.</desc>
    <g id="Page-1" stroke="none" stroke-width="1" fill="none" fill-rule="evenodd">
        <g id="190530_mamestro-item-detail-tofu" transform="translate(-172.000000, -994.000000)" fill="#512800">
            <g id="logo-mamestro-beauty-food" transform="translate(172.000000, 994.000000)">
                <path d="M588.060247,71.451005 C598.477689,71.451005 606.949015,62.991206 606.949015,52.7022613 C606.949015,47.7864322 604.659468,43.2135678 600.996191,39.2123116 C604.659468,35.2110553 607.063493,30.2952261 607.063493,25.379397 C607.063493,14.9761307 598.592166,6.51633166 588.060247,6.51633166 L559.211946,6.51633166 C558.410604,6.51633166 558.067172,6.85929648 558.067172,7.65954774 L558.067172,70.3077889 C558.067172,71.1080402 558.410604,71.451005 559.211946,71.451005 L588.060247,71.451005 Z M587.144428,34.2964824 L569.057001,34.2964824 L569.057001,16.4623116 L587.144428,16.4623116 C592.181433,16.4623116 596.073664,20.4635678 596.073664,25.379397 C596.073664,30.0665829 592.181433,34.2964824 587.144428,34.2964824 Z M587.02995,61.8479899 L569.057001,61.8479899 L569.057001,44.3567839 L589.205021,44.3567839 C593.326207,44.3567839 596.073664,48.701005 596.073664,52.7022613 C596.073664,57.6180905 591.952478,61.8479899 587.02995,61.8479899 Z M640.834322,72.0226131 C646.329236,72.0226131 653.312357,71.2223618 657.319065,66.9924623 C657.662497,66.7638191 657.776975,66.4208543 657.776975,66.0778894 C657.776975,65.9635678 657.662497,65.620603 657.433543,65.1633166 L654.113698,59.9045226 C653.770266,59.5615578 653.312357,59.3329146 652.854447,59.3329146 C652.511015,59.3329146 652.28206,59.4472362 652.053105,59.6758794 C648.962216,61.8479899 644.039688,62.5339196 640.719844,62.5339196 C636.827613,62.5339196 628.127332,60.8190955 628.127332,53.1595477 L659.837568,53.1595477 C660.638909,53.1595477 660.982342,52.8165829 660.982342,52.0163317 L660.982342,47.5577889 C660.982342,32.8103015 651.251764,25.1507538 638.888206,25.1507538 C623.319282,25.1507538 616.794071,36.2399497 616.794071,48.9296482 C616.794071,65.048995 627.554945,72.0226131 640.834322,72.0226131 Z M650.221467,44.0138191 L628.127332,44.0138191 C628.127332,38.0690955 633.851201,35.3253769 639.117161,35.3253769 C644.497598,35.3253769 650.221467,37.611809 650.221467,44.0138191 Z M699.446743,65.8492462 L699.904653,70.3077889 C700.248085,71.1080402 700.705994,71.451005 701.507336,71.451005 L707.46016,71.451005 C708.261502,71.451005 708.604934,71.1080402 708.604934,70.3077889 L708.604934,45.7286432 C708.604934,32.8103015 700.934949,25.1507538 686.854231,25.1507538 L686.204031,25.1524069 C682.611839,25.1735248 678.723066,25.4414573 673.002467,28.3517588 C672.659035,28.580402 672.43008,28.9233668 672.43008,29.3806533 C672.43008,29.8379397 672.544558,30.2952261 672.773512,30.7525126 L675.177537,35.7826633 C675.406492,36.3542714 675.749924,36.6972362 676.207834,36.6972362 C676.551266,36.6972362 676.665743,36.5829146 677.123653,36.468593 C681.130362,35.5540201 683.992296,35.2110553 685.251547,35.2110553 C693.150487,35.2110553 697.615105,37.611809 697.615105,46.4145729 C695.096603,43.8994975 689.601688,42.6419598 685.366025,42.6419598 C676.093357,42.6419598 669.568146,47.7864322 669.568146,57.3894472 C669.568146,70.1593023 680.418648,71.9817116 685.422813,72.0219662 L685.74222,72.0219662 C687.379928,72.0076602 696.241376,71.6993589 699.446743,65.8492462 Z M688.914824,62.5339196 C683.076477,62.5339196 680.557975,61.3907035 680.557975,56.8178392 C680.557975,53.5025126 682.046181,51.330402 687.655572,51.330402 C690.631985,51.330402 696.126899,52.8165829 697.615105,55.4459799 L697.615105,59.1042714 C694.867648,62.1909548 689.830643,62.5339196 688.914824,62.5339196 Z M742.032331,72.0226131 C746.496949,72.0226131 751.991863,70.7650754 755.998572,65.8492462 L757.028868,70.3077889 C757.143346,71.1080402 757.601255,71.451005 758.173642,71.451005 L764.469898,71.451005 C765.27124,71.451005 765.614672,71.1080402 765.614672,70.3077889 L765.614672,26.8655779 C765.614672,26.0653266 765.27124,25.7223618 764.469898,25.7223618 L755.769617,25.7223618 C754.968275,25.7223618 754.624843,26.0653266 754.624843,26.8655779 L754.624843,50.4158291 C754.624843,56.9321608 751.533954,62.5339196 744.665311,62.5339196 C735.073741,62.5339196 733.935649,57.0910678 733.90509,50.6945269 L733.904436,26.8655779 C733.904436,26.0653266 733.561004,25.7223618 732.759663,25.7223618 L724.059381,25.7223618 C723.258039,25.7223618 722.914607,26.0653266 722.914607,26.8655779 L722.914607,51.6733668 C722.914607,62.5339196 728.180567,72.0226131 742.032331,72.0226131 Z M808.887124,71.2223618 C809.001601,71.2223618 809.459511,70.7650754 809.459511,70.3077889 C809.459511,69.9648241 809.459511,69.7361809 809.345034,69.6218593 L807.856828,62.991206 C807.74235,62.419598 807.284441,62.1909548 806.712054,62.1909548 C806.368622,62.1909548 806.025189,62.1909548 805.910712,62.3052764 C804.880416,62.419598 803.964597,62.419598 802.9343,62.419598 C797.748128,62.419598 797.114376,60.3128103 797.096362,50.6390596 L797.095953,35.0967337 L807.74235,35.0967337 C808.543692,35.0967337 808.887124,34.7537688 808.887124,33.9535176 L808.887124,26.2939698 C808.887124,25.4937186 808.543692,25.1507538 807.74235,25.1507538 L797.095953,25.1507538 L797.095953,7.65954774 C797.095953,6.85929648 796.752521,6.51633166 795.95118,6.51633166 L787.250898,6.51633166 C786.449556,6.51633166 786.106124,6.85929648 786.106124,7.65954774 L786.106124,25.1507538 L777.634798,25.1507538 C776.833456,25.1507538 776.490024,25.4937186 776.490024,26.2939698 L776.490024,33.9535176 C776.490024,34.7537688 776.833456,35.0967337 777.634798,35.0967337 L786.106124,35.0967337 L786.106124,52.8165829 C786.106124,67.7927136 791.486561,72.0226131 801.102662,72.0226131 L802.011142,72.0226131 C805.033413,72.016562 806.483099,71.953026 808.887124,71.2223618 Z M830.52335,91 C831.324692,91 831.324692,90.6570352 831.782601,89.8567839 L862.004631,26.8655779 C862.004631,26.0653266 861.661199,25.7223618 860.859857,25.7223618 L851.014802,25.7223618 C850.21346,25.7223618 850.21346,26.0653266 849.755551,26.8655779 L839.567064,48.8153266 L829.264099,26.8655779 C828.806189,26.0653266 828.806189,25.7223618 828.004848,25.7223618 L818.159792,25.7223618 C817.358451,25.7223618 817.015019,26.0653266 817.015019,26.8655779 C822.395456,37.8404523 828.233802,49.8442211 833.385285,60.8190955 L819.533521,89.8567839 C819.533521,90.6570352 819.876953,91 820.678295,91 L830.52335,91 Z M908.253495,71.451005 C909.054837,71.451005 909.398269,71.1080402 909.398269,70.3077889 L909.398269,34.9824121 L921.532872,34.9824121 C922.334213,34.9824121 922.677646,34.6394472 922.677646,33.839196 L922.677646,26.2939698 C922.677646,25.4937186 922.334213,25.1507538 921.532872,25.1507538 L909.398269,25.1507538 L909.398269,22.75 C909.398269,14.1758794 910.428565,9.60301508 916.037957,9.60301508 C917.068254,9.60301508 918.899892,9.71733668 920.388098,10.2889447 C920.502575,10.4032663 920.73153,10.4032663 921.074962,10.4032663 C921.532872,10.4032663 921.876304,10.2889447 922.105259,10.0603015 L924.280329,3.77261307 C924.394806,3.65829146 924.394806,3.42964824 924.394806,3.08668342 C924.394806,2.62939698 923.936897,2.28643216 923.822419,2.17211055 C919.701234,0 915.809002,0 913.977364,0 C903.330967,0 898.40844,6.40201005 898.40844,22.75 L898.40844,25.1507538 L889.937113,25.1507538 C889.135772,25.1507538 888.792339,25.4937186 888.792339,26.2939698 L888.792339,33.839196 C888.792339,34.6394472 889.135772,34.9824121 889.937113,34.9824121 L898.40844,34.9824121 L898.40844,70.3077889 C898.40844,71.1080402 898.751872,71.451005 899.553214,71.451005 L908.253495,71.451005 Z M953.243108,72.0226131 C966.29353,72.0226131 976.939927,61.2763819 976.939927,48.3580402 C976.939927,35.6683417 966.29353,25.1507538 953.243108,25.1507538 C940.192686,25.1507538 929.546289,35.6683417 929.546289,48.3580402 C929.546289,61.2763819 940.192686,72.0226131 953.243108,72.0226131 Z M953.12863,62.5339196 C946.14551,62.5339196 940.536118,56.7035176 940.536118,48.4723618 C940.536118,40.241206 946.14551,35.2110553 953.12863,35.2110553 C960.340706,35.2110553 965.950097,40.241206 965.950097,48.4723618 C965.950097,56.7035176 960.111751,62.5339196 953.12863,62.5339196 Z M1008.65016,72.0226131 C1021.70058,72.0226131 1032.34698,61.2763819 1032.34698,48.3580402 C1032.34698,35.6683417 1021.70058,25.1507538 1008.65016,25.1507538 C995.59974,25.1507538 984.953344,35.6683417 984.953344,48.3580402 C984.953344,61.2763819 995.59974,72.0226131 1008.65016,72.0226131 Z M1008.53569,62.5339196 C1001.55256,62.5339196 995.943173,56.7035176 995.943173,48.4723618 C995.943173,40.241206 1001.55256,35.2110553 1008.53569,35.2110553 C1015.74776,35.2110553 1021.35715,40.241206 1021.35715,48.4723618 C1021.35715,56.7035176 1015.51881,62.5339196 1008.53569,62.5339196 Z M1077.22212,65.3919598 L1077.90898,70.3077889 C1078.25241,71.1080402 1078.71032,71.451005 1079.51166,71.451005 L1085.9224,71.451005 C1086.72374,71.451005 1087.06717,71.1080402 1087.06717,70.3077889 L1087.06717,7.65954774 C1087.06717,6.85929648 1086.72374,6.51633166 1085.9224,6.51633166 L1077.22212,6.51633166 C1076.42077,6.51633166 1076.07734,6.85929648 1076.07734,7.65954774 L1076.07734,31.3241206 C1071.49825,25.2650754 1064.17169,25.1507538 1061.99662,25.1507538 C1049.51859,25.1507538 1040.3604,35.6683417 1040.3604,48.3580402 C1040.3604,61.2763819 1049.40411,72.0226131 1061.30976,72.0226131 C1066.23229,72.0226131 1073.21541,71.2223618 1077.22212,65.3919598 Z M1063.59931,62.5339196 C1056.84514,62.5339196 1051.57918,56.2462312 1051.57918,48.4723618 C1051.57918,40.5841709 1056.73066,35.0967337 1063.59931,35.0967337 C1070.239,35.0967337 1076.07734,40.5841709 1076.07734,48.4723618 C1076.07734,56.7035176 1070.46795,62.5339196 1063.59931,62.5339196 Z" id="Beautyfood" fill-rule="nonzero"></path>
                <g id="Group-17" transform="translate(0.067172, 13.000000)">
                    <path d="M60.0040847,0.537024194 C52.7096401,0.537024194 46.1830319,3.90077419 41.8709758,9.17992742 C37.5682835,3.90077419 31.0276295,0.537024194 23.733185,0.537024194 C10.7876528,0.537024194 0.253313773,11.1330726 0.253313773,24.177629 L0.253313773,59.3955726 L10.9327926,59.3955726 L10.9327926,24.177629 C10.9327926,17.0727097 16.6681549,11.2793226 23.733185,11.2793226 C30.7935331,11.2793226 36.5335773,17.0727097 36.5335773,24.177629 L36.5335773,59.3955726 L47.2083742,59.3955726 L47.2083742,24.177629 C47.2083742,17.0727097 52.9390546,11.2793226 60.0040847,11.2793226 C67.0784786,11.2793226 72.8185228,17.0727097 72.8185228,24.177629 L72.8185228,59.3955726 L83.4886378,59.3955726 L83.4886378,24.177629 C83.4886378,11.1330726 72.9496168,0.537024194 60.0040847,0.537024194" id="Fill-1"></path>
                    <path d="M220.067514,0.537024194 C212.773069,0.537024194 206.246461,3.90077419 201.929723,9.17992742 C197.622349,3.90077419 191.100422,0.537024194 183.791932,0.537024194 C170.851082,0.537024194 160.326107,11.1330726 160.326107,24.177629 L160.326107,59.3955726 L170.986858,59.3955726 L170.986858,24.177629 C170.986858,17.0727097 176.736266,11.2793226 183.791932,11.2793226 C190.856962,11.2793226 196.597006,17.0727097 196.597006,24.177629 L196.597006,59.3955726 L207.281167,59.3955726 L207.281167,24.177629 C207.281167,17.0727097 213.011847,11.2793226 220.067514,11.2793226 C227.155953,11.2793226 232.881952,17.0727097 232.881952,24.177629 L232.881952,59.3955726 L243.556749,59.3955726 L243.556749,24.177629 C243.556749,11.1330726 233.02241,0.537024194 220.067514,0.537024194" id="Fill-3"></path>
                    <path d="M109.269677,30.7692581 L109.269677,24.1785726 C109.269677,17.0736532 115.014403,11.2802661 122.079433,11.2802661 C129.135099,11.2802661 134.879825,17.0736532 134.879825,24.1785726 L134.879825,30.7692581 L109.269677,30.7692581 Z M122.079433,0.537967742 C109.133901,0.537967742 98.5995619,11.1340161 98.5995619,24.1785726 L98.5995619,59.3965161 L109.269677,59.3965161 L109.269677,41.5304274 L134.879825,41.5304274 L134.879825,59.3965161 L145.554622,59.3965161 L145.554622,24.1785726 C145.554622,11.1340161 135.034329,0.537967742 122.079433,0.537967742 L122.079433,0.537967742 Z" id="Fill-5"></path>
                    <path d="M324.976421,18.0488105 C324.976421,14.3501008 329.545983,12.0525605 335.07534,12.0525605 C342.229327,12.0525605 348.746572,16.0862298 348.746572,16.0862298 L354.613028,7.63203629 C354.613028,7.63203629 346.311969,2.13114919 336.128774,2.13114919 C323.843394,2.13114919 314.484219,8.69824597 314.484219,18.3696169 C314.484219,38.1322379 346.714615,33.706996 346.714615,43.3925202 C346.714615,47.9121169 341.583221,50.6955847 334.58842,50.6955847 C327.261202,50.6955847 318.866504,45.8410282 318.866504,45.8410282 L313.917706,54.5452621 C313.917706,54.5452621 323.342428,60.5320766 334.752287,60.5320766 C347.94128,60.5320766 357.618826,53.2337298 357.618826,43.3925202 C357.618826,23.4553427 324.976421,28.7863911 324.976421,18.0488105" id="Fill-7"></path>
                    <polygon id="Fill-9" points="361.686954 12.46725 377.235638 12.46725 377.235638 60.0409597 387.901071 60.0409597 387.901071 12.46725 403.618305 12.46725 403.618305 2.62604032 361.686954 2.62604032"></polygon>
                    <path d="M433.401456,27.8876613 L423.962689,27.8876613 L423.962689,12.3002419 L433.570006,12.3002419 C440.396257,12.3002419 442.924499,16.3197581 442.924499,20.01375 C442.924499,23.5473387 440.396257,27.8876613 433.401456,27.8876613 M443.420783,35.3558468 C450.265763,31.9166129 453.515021,26.0854839 453.515021,20.0986694 C453.515021,11.7246774 447.653247,2.62415323 433.570006,2.62415323 L413.386212,2.62415323 L413.386212,60.0390726 L424.046963,60.0390726 L424.046963,37.56375 L430.971535,37.56375 C432.582119,38.1345968 434.548529,40.5170565 435.76583,42.5739919 L446.346988,60.0390726 L458.655778,60.0390726 L445.785157,38.5497581 C445.054776,37.3184274 444.240121,36.1767339 443.420783,35.3558468" id="Fill-11"></path>
                    <path d="M492.48833,11.9789637 C503.720276,11.9789637 512.10561,20.6784798 512.10561,31.3311411 C512.10561,41.9932379 503.720276,50.6974718 492.48833,50.6974718 C481.420251,50.6974718 472.861686,41.9932379 472.861686,31.3311411 C472.861686,20.6784798 481.420251,11.9789637 492.48833,11.9789637 M492.48833,60.5339637 C509.333908,60.5339637 522.682086,47.494125 522.682086,31.3311411 C522.682086,15.1681573 509.333908,2.13303629 492.48833,2.13303629 C475.638069,2.13303629 462.205617,15.1681573 462.205617,31.3311411 C462.205617,47.494125 475.638069,60.5339637 492.48833,60.5339637" id="Fill-13"></path>
                    <path d="M265.70742,24.1766855 C265.70742,17.0764839 271.456829,11.2830968 278.507813,11.2830968 C285.563479,11.2830968 291.308205,17.0764839 291.308205,24.2002742 L291.326933,25.5306774 L265.70742,25.5306774 L265.70742,24.1766855 Z M302.020457,36.2729758 L301.987684,24.1766855 C301.987684,11.132129 291.453345,0.536080645 278.507813,0.536080645 C265.562281,0.536080645 255.032623,11.132129 255.032623,24.1766855 L255.032623,38.4572903 C255.032623,51.5018468 265.562281,62.1073306 278.507813,62.1073306 C289.238793,62.1073306 298.303006,54.8089839 301.098118,44.8828548 L289.589937,44.8828548 C287.375385,48.7419677 283.250606,51.3555968 278.507813,51.3555968 C271.456829,51.3555968 265.70742,45.5669274 265.70742,38.4572903 L265.70742,36.2729758 L302.020457,36.2729758 Z" id="Fill-15"></path>
                </g>
            </g>
        </g>
    </g>
</svg>