<?xml version="1.0" encoding="UTF-8"?>
<svg width="266px" height="18px" viewBox="0 0 266 18" version="1.1" xmlns="http://www.w3.org/2000/svg" xmlns:xlink="http://www.w3.org/1999/xlink">
    <!-- Generator: Sketch 56.2 (81672) - https://sketch.com -->
    <title>logo-tofu-raw-chocolate-s</title>
    <desc>Created with Sketch.</desc>
    <defs>
        <path d="M0.144,7.4414717 C0.144,11.5026792 3.55245283,14.7803774 7.83203774,14.7803774 L7.83203774,14.7803774 C12.108566,14.7803774 15.495283,11.5026792 15.495283,7.4414717 L15.495283,7.4414717 C15.495283,3.37516981 12.108566,0.0981509434 7.83203774,0.0981509434 L7.83203774,0.0981509434 C3.55245283,0.0981509434 0.144,3.37516981 0.144,7.4414717 L0.144,7.4414717 Z M2.85181132,7.4414717 C2.85181132,4.75743396 5.02233962,2.57264151 7.83203774,2.57264151 L7.83203774,2.57264151 C10.6824906,2.57264151 12.8112453,4.75743396 12.8112453,7.4414717 L12.8112453,7.4414717 C12.8112453,10.1227925 10.6824906,12.3086038 7.83203774,12.3086038 L7.83203774,12.3086038 C5.02233962,12.3086038 2.85181132,10.1227925 2.85181132,7.4414717 L2.85181132,7.4414717 Z" id="path-1"></path>
        <path d="M0.0370188679,7.4414717 C0.0370188679,11.5026792 3.4454717,14.7803774 7.72437736,14.7803774 L7.72437736,14.7803774 C12.0012453,14.7803774 15.3886415,11.5026792 15.3886415,7.4414717 L15.3886415,7.4414717 C15.3886415,3.37516981 12.0012453,0.0981509434 7.72437736,0.0981509434 L7.72437736,0.0981509434 C3.4454717,0.0981509434 0.0370188679,3.37516981 0.0370188679,7.4414717 L0.0370188679,7.4414717 Z M2.74449057,7.4414717 C2.74449057,4.75743396 4.91501887,2.57264151 7.72437736,2.57264151 L7.72437736,2.57264151 C10.5751698,2.57264151 12.7039245,4.75743396 12.7039245,7.4414717 L12.7039245,7.4414717 C12.7039245,10.1227925 10.5751698,12.3086038 7.72437736,12.3086038 L7.72437736,12.3086038 C4.91501887,12.3086038 2.74449057,10.1227925 2.74449057,7.4414717 L2.74449057,7.4414717 Z" id="path-3"></path>
        <path d="M0.340641509,0.212943396 C0.133132075,0.212943396 0.0292075472,0.317207547 0.0292075472,0.524037736 L0.0292075472,0.524037736 L0.0292075472,2.57433962 C0.0292075472,2.78116981 0.133132075,2.88543396 0.340641509,2.88543396 L0.340641509,2.88543396 L3.90260377,2.88543396 L3.90260377,14.6404528 C3.90260377,14.8486415 4.00686792,14.9518868 4.21403774,14.9518868 L4.21403774,14.9518868 L6.52856604,14.9518868 C6.73607547,14.9518868 6.84067925,14.8486415 6.84067925,14.6404528 L6.84067925,14.6404528 L6.84067925,2.88543396 L10.4023019,2.88543396 C10.6094717,2.88543396 10.7140755,2.78116981 10.7140755,2.57433962 L10.7140755,2.57433962 L10.7140755,0.524037736 C10.7140755,0.317207547 10.6094717,0.212943396 10.4023019,0.212943396 L10.4023019,0.212943396 L0.340641509,0.212943396 Z" id="path-5"></path>
        <path d="M0.483283019,0.213622642 C0.276113208,0.213622642 0.171849057,0.317207547 0.171849057,0.524716981 L0.171849057,0.524716981 L0.171849057,14.6404528 C0.171849057,14.8486415 0.276113208,14.9515472 0.483283019,14.9515472 L0.483283019,14.9515472 L2.79781132,14.9515472 C3.006,14.9515472 3.10958491,14.8486415 3.10958491,14.6404528 L3.10958491,14.6404528 L3.10958491,9.08762264 L8.67396226,9.08762264 C8.88249057,9.08762264 8.98437736,8.98335849 8.98437736,8.7765283 L8.98437736,8.7765283 L8.98437736,6.80433962 C8.98437736,6.59649057 8.88249057,6.49324528 8.67396226,6.49324528 L8.67396226,6.49324528 L3.10958491,6.49324528 L3.10958491,2.88577358 L10.1302642,2.88577358 C10.3381132,2.88577358 10.4410189,2.78150943 10.4410189,2.57501887 L10.4410189,2.57501887 L10.4410189,0.524716981 C10.4410189,0.317207547 10.3381132,0.213622642 10.1302642,0.213622642 L10.1302642,0.213622642 L0.483283019,0.213622642 Z" id="path-7"></path>
        <path d="M9.88879245,0.213622642 C9.68060377,0.213622642 9.57701887,0.317886792 9.57701887,0.524716981 L9.57701887,0.524716981 L9.57701887,8.43860377 C9.57701887,11.1379245 8.71913208,12.4869057 6.30169811,12.4869057 L6.30169811,12.4869057 C3.88324528,12.4869057 3.02467925,11.1379245 3.02467925,8.43860377 L3.02467925,8.43860377 L3.02467925,0.524716981 C3.02467925,0.317886792 2.92143396,0.213622642 2.71324528,0.213622642 L2.71324528,0.213622642 L0.398377358,0.213622642 C0.190867925,0.213622642 0.0876226415,0.317886792 0.0876226415,0.524716981 L0.0876226415,0.524716981 L0.0876226415,8.43860377 C0.0876226415,12.5133962 2.14098113,15.0823019 6.27520755,15.0823019 L6.27520755,15.0823019 C10.4349057,15.0823019 12.5144151,12.5133962 12.5144151,8.43860377 L12.5144151,8.43860377 L12.5144151,0.524716981 C12.5144151,0.317886792 12.4104906,0.213622642 12.2019623,0.213622642 L12.2019623,0.213622642 L9.88879245,0.213622642 Z" id="path-9"></path>
        <path d="M0.118528302,7.85954717 C0.118528302,12.1224906 3.58743396,15.5856226 7.85716981,15.5856226 L7.85716981,15.5856226 C10.2331698,15.5856226 12.3948679,14.4930566 13.8093962,12.7891698 L13.8093962,12.7891698 C13.8892075,12.6821887 13.916717,12.6023774 13.916717,12.5222264 L13.916717,12.5222264 C13.916717,12.4413962 13.8892075,12.3615849 13.8093962,12.2821132 L13.8093962,12.2821132 L12.3948679,10.8964528 C12.3412075,10.8438113 12.2882264,10.8176604 12.2077358,10.8176604 L12.2077358,10.8176604 C12.1017736,10.8176604 11.9954717,10.8709811 11.9149811,10.949434 L11.9149811,10.949434 C10.9538491,12.1224906 9.53898113,12.9216226 7.83135849,12.9216226 L7.83135849,12.9216226 C5.05562264,12.9216226 3.13267925,10.7106792 3.13267925,7.94003774 L3.13267925,7.94003774 C3.13267925,5.19622642 5.05562264,2.93264151 7.83135849,2.93264151 L7.83135849,2.93264151 C9.21939623,2.93264151 10.3666415,3.41184906 11.327434,4.29045283 L11.327434,4.29045283 C11.4075849,4.36992453 11.5142264,4.42426415 11.6215472,4.42426415 L11.6215472,4.42426415 C11.7013585,4.42426415 11.754,4.39709434 11.8083396,4.34411321 L11.8083396,4.34411321 L13.3284906,2.87830189 C13.4093208,2.79849057 13.4358113,2.71901887 13.4358113,2.63920755 L13.4358113,2.63920755 C13.4358113,2.55973585 13.4093208,2.47890566 13.3284906,2.3729434 L13.3284906,2.3729434 C11.9411321,0.987283019 9.99339623,0.134490566 7.85716981,0.134490566 L7.85716981,0.134490566 C3.58743396,0.134490566 0.118528302,3.59728302 0.118528302,7.85954717 L0.118528302,7.85954717 Z" id="path-11"></path>
        <path d="M9.33486792,0.321622642 C9.12158491,0.321622642 9.01358491,0.427924528 9.01358491,0.64154717 L9.01358491,0.64154717 L9.01358491,6.76766038 L3.08920755,6.76766038 L3.08920755,0.64154717 C3.08920755,0.427924528 2.98154717,0.321622642 2.7689434,0.321622642 L2.7689434,0.321622642 L0.392943396,0.321622642 C0.18,0.321622642 0.0730188679,0.427924528 0.0730188679,0.64154717 L0.0730188679,0.64154717 L0.0730188679,15.1329057 C0.0730188679,15.3458491 0.18,15.4524906 0.392943396,15.4524906 L0.392943396,15.4524906 L2.7689434,15.4524906 C2.98154717,15.4524906 3.08920755,15.3458491 3.08920755,15.1329057 L3.08920755,15.1329057 L3.08920755,9.432 L9.01358491,9.432 L9.01358491,15.1329057 C9.01358491,15.3458491 9.12158491,15.4524906 9.33486792,15.4524906 L9.33486792,15.4524906 L11.7108679,15.4524906 C11.9234717,15.4524906 12.0311321,15.3458491 12.0311321,15.1329057 L12.0311321,15.1329057 L12.0311321,0.64154717 C12.0311321,0.427924528 11.9234717,0.321622642 11.7108679,0.321622642 L11.7108679,0.321622642 L9.33486792,0.321622642 Z" id="path-13"></path>
        <path d="M0.152830189,7.85954717 C0.152830189,12.1224906 3.62207547,15.5859623 7.89181132,15.5859623 L7.89181132,15.5859623 C12.1622264,15.5859623 15.6335094,12.1224906 15.6335094,7.85954717 L15.6335094,7.85954717 C15.6335094,3.59796226 12.1622264,0.135169811 7.89181132,0.135169811 L7.89181132,0.135169811 C3.62207547,0.135169811 0.152830189,3.59796226 0.152830189,7.85954717 L0.152830189,7.85954717 Z M3.16766038,7.94003774 C3.16766038,5.19588679 5.09060377,2.93264151 7.86667925,2.93264151 L7.86667925,2.93264151 C10.6417358,2.93264151 12.6163019,5.19588679 12.6163019,7.94003774 L12.6163019,7.94003774 C12.6163019,10.7103396 10.6417358,12.9219623 7.86667925,12.9219623 L7.86667925,12.9219623 C5.09060377,12.9219623 3.16766038,10.7103396 3.16766038,7.94003774 L3.16766038,7.94003774 Z" id="path-15"></path>
        <path d="M0.0309056604,7.85954717 C0.0309056604,12.1224906 3.50015094,15.5856226 7.77090566,15.5856226 L7.77090566,15.5856226 C10.1458868,15.5856226 12.3082642,14.4930566 13.7221132,12.7891698 L13.7221132,12.7891698 C13.8026038,12.6821887 13.8287547,12.6023774 13.8287547,12.5222264 L13.8287547,12.5222264 C13.8287547,12.4413962 13.8026038,12.3615849 13.7221132,12.2821132 L13.7221132,12.2821132 L12.3082642,10.8964528 C12.2539245,10.8438113 12.2009434,10.8176604 12.1214717,10.8176604 L12.1214717,10.8176604 C12.0144906,10.8176604 11.9075094,10.8709811 11.8273585,10.949434 L11.8273585,10.949434 C10.8662264,12.1224906 9.45237736,12.9216226 7.74373585,12.9216226 L7.74373585,12.9216226 C4.96867925,12.9216226 3.04641509,10.7106792 3.04641509,7.94003774 L3.04641509,7.94003774 C3.04641509,5.19622642 4.96867925,2.93264151 7.74373585,2.93264151 L7.74373585,2.93264151 C9.13211321,2.93264151 10.2790189,3.41184906 11.2404906,4.29045283 L11.2404906,4.29045283 C11.3209811,4.36992453 11.427283,4.42426415 11.5335849,4.42426415 L11.5335849,4.42426415 C11.6144151,4.42426415 11.666717,4.39709434 11.7203774,4.34411321 L11.7203774,4.34411321 L13.2418868,2.87830189 C13.3223774,2.79849057 13.3485283,2.71901887 13.3485283,2.63920755 L13.3485283,2.63920755 C13.3485283,2.55973585 13.3223774,2.47890566 13.2418868,2.3729434 L13.2418868,2.3729434 C11.8535094,0.987283019 9.90611321,0.134490566 7.77090566,0.134490566 L7.77090566,0.134490566 C3.50015094,0.134490566 0.0309056604,3.59728302 0.0309056604,7.85954717 L0.0309056604,7.85954717 Z" id="path-17"></path>
        <path d="M0.337924528,7.85954717 C0.337924528,12.1224906 3.80716981,15.5859623 8.07792453,15.5859623 L8.07792453,15.5859623 C12.3476604,15.5859623 15.8179245,12.1224906 15.8179245,7.85954717 L15.8179245,7.85954717 C15.8179245,3.59796226 12.3476604,0.135169811 8.07792453,0.135169811 L8.07792453,0.135169811 C3.80716981,0.135169811 0.337924528,3.59796226 0.337924528,7.85954717 L0.337924528,7.85954717 Z M3.35343396,7.94003774 C3.35343396,5.19588679 5.27535849,2.93264151 8.05075472,2.93264151 L8.05075472,2.93264151 C10.8268302,2.93264151 12.8027547,5.19588679 12.8027547,7.94003774 L12.8027547,7.94003774 C12.8027547,10.7103396 10.8268302,12.9219623 8.05075472,12.9219623 L8.05075472,12.9219623 C5.27535849,12.9219623 3.35343396,10.7103396 3.35343396,7.94003774 L3.35343396,7.94003774 Z" id="path-19"></path>
        <path d="M0.524037736,0.321622642 C0.310415094,0.321622642 0.20309434,0.427924528 0.20309434,0.64154717 L0.20309434,0.64154717 L0.20309434,15.1329057 C0.20309434,15.3458491 0.310415094,15.4524906 0.524037736,15.4524906 L0.524037736,15.4524906 L10.4257358,15.4524906 C10.6393585,15.4524906 10.7463396,15.3458491 10.7463396,15.1329057 L10.7463396,15.1329057 L10.7463396,13.0815849 C10.7463396,12.8686415 10.6393585,12.7616604 10.4257358,12.7616604 L10.4257358,12.7616604 L3.21962264,12.7616604 L3.21962264,0.64154717 C3.21962264,0.427924528 3.11230189,0.321622642 2.90003774,0.321622642 L2.90003774,0.321622642 L0.524037736,0.321622642 Z" id="path-21"></path>
        <path d="M7.40411321,0.427245283 L0.224830189,15.132566 C0.224830189,15.3451698 0.331132075,15.4521509 0.54509434,15.4521509 L0.54509434,15.4521509 L3.13335849,15.4521509 C3.348,15.4521509 3.48113208,15.3190189 3.56060377,15.132566 L3.56060377,15.132566 L4.9754717,12.1751321 L10.6329057,12.1751321 L12.0484528,15.132566 C12.1275849,15.3190189 12.2617358,15.4521509 12.4756981,15.4521509 L12.4756981,15.4521509 L15.0643019,15.4521509 C15.2779245,15.4521509 15.384566,15.3451698 15.384566,15.132566 L15.384566,15.132566 L8.20528302,0.427245283 C8.07079245,0.294113208 7.93867925,0.240792453 7.80520755,0.240792453 L7.80520755,0.240792453 C7.67071698,0.240792453 7.53724528,0.294113208 7.40411321,0.427245283 L7.40411321,0.427245283 Z M7.80520755,6.3149434 L9.32637736,9.48498113 L6.28233962,9.48498113 L7.80520755,6.3149434 Z" id="path-23"></path>
        <path d="M0.394301887,0.321283019 C0.180339623,0.321283019 0.0733584906,0.427245283 0.0733584906,0.641207547 L0.0733584906,0.641207547 L0.0733584906,2.74618868 C0.0733584906,2.95811321 0.180339623,3.06509434 0.394301887,3.06509434 L0.394301887,3.06509434 L4.05033962,3.06509434 L4.05033962,15.132566 C4.05033962,15.3461887 4.15664151,15.4531698 4.3709434,15.4531698 L4.3709434,15.4531698 L6.74592453,15.4531698 C6.95920755,15.4531698 7.06618868,15.3461887 7.06618868,15.132566 L7.06618868,15.132566 L7.06618868,3.06509434 L10.7232453,3.06509434 C10.9368679,3.06509434 11.0428302,2.95811321 11.0428302,2.74618868 L11.0428302,2.74618868 L11.0428302,0.641207547 C11.0428302,0.427245283 10.9368679,0.321283019 10.7232453,0.321283019 L10.7232453,0.321283019 L0.394301887,0.321283019 Z" id="path-25"></path>
        <path d="M0.44354717,0.321622642 C0.230943396,0.321622642 0.123962264,0.427924528 0.123962264,0.64154717 L0.123962264,0.64154717 L0.123962264,15.1329057 C0.123962264,15.3458491 0.230943396,15.4524906 0.44354717,15.4524906 L0.44354717,15.4524906 L10.3462642,15.4524906 C10.560566,15.4524906 10.6672075,15.3458491 10.6672075,15.1329057 L10.6672075,15.1329057 L10.6672075,13.0286038 C10.6672075,12.8139623 10.560566,12.708 10.3462642,12.708 L10.3462642,12.708 L3.14083019,12.708 L3.14083019,9.432 L8.85124528,9.432 C9.06554717,9.432 9.17286792,9.32501887 9.17286792,9.11207547 L9.17286792,9.11207547 L9.17286792,7.08758491 C9.17286792,6.87430189 9.06554717,6.76766038 8.85124528,6.76766038 L8.85124528,6.76766038 L3.14083019,6.76766038 L3.14083019,3.06543396 L10.3462642,3.06543396 C10.560566,3.06543396 10.6672075,2.95845283 10.6672075,2.74550943 L10.6672075,2.74550943 L10.6672075,0.64154717 C10.6672075,0.427924528 10.560566,0.321622642 10.3462642,0.321622642 L10.3462642,0.321622642 L0.44354717,0.321622642 Z" id="path-27"></path>
        <path d="M6.7649434,1.48483019 C3.38298113,4.17973585 4.93166038,8.47664151 5.00026415,8.65901887 L5.00026415,8.65901887 C5.14188679,9.0390566 5.56335849,9.23162264 5.94509434,9.09237736 L5.94509434,9.09237736 C6.32615094,8.95177358 6.52109434,8.52996226 6.38116981,8.14890566 L6.38116981,8.14890566 C6.33022642,8.00626415 5.14324528,4.65826415 7.68430189,2.63377358 L7.68430189,2.63377358 C8.67498113,1.84415094 10.1954717,1.56939623 11.6504151,1.91513208 L11.6504151,1.91513208 C12.9073585,2.214 13.8661132,2.90411321 14.2838491,3.81090566 L14.2838491,3.81090566 C14.7311321,4.78664151 14.9726038,6.28030189 14.3059245,7.54777358 L14.3059245,7.54777358 C13.7703396,8.56630189 12.7541887,9.2129434 11.286,9.47037736 L11.286,9.47037736 C10.3938113,9.62490566 9.12667925,9.53150943 8.41924528,9.45713208 L8.41924528,9.45713208 C8.70588679,8.56833962 8.93954717,7.73626415 9.10867925,7.04784906 L9.10867925,7.04784906 C9.62049057,4.97683019 10.4831321,4.70003774 10.5483396,4.68237736 L10.5483396,4.68237736 C10.9355094,4.62532075 11.2126415,4.27313208 11.1722264,3.87950943 L11.1722264,3.87950943 C11.1301132,3.47535849 10.7670566,3.18532075 10.3639245,3.22437736 L10.3639245,3.22437736 C10.1720377,3.24373585 8.46509434,3.50864151 7.67886792,6.69566038 L7.67886792,6.69566038 C6.54758491,11.2764906 4.4925283,15.5119245 3.19279245,15.9442642 L3.19279245,15.9442642 C2.78150943,16.0801132 2.21977358,16.1799623 1.87403774,15.8749811 L1.87403774,15.8749811 C1.59181132,15.6260377 1.48381132,15.138 1.59181132,14.5990189 L1.59181132,14.5990189 C1.67196226,14.2013208 1.41249057,13.8138113 1.01309434,13.7343396 L1.01309434,13.7343396 C0.614377358,13.6569057 0.226188679,13.9126415 0.147396226,14.3106792 L0.147396226,14.3106792 C-0.0669056604,15.3777736 0.213962264,16.3735472 0.899660377,16.9773962 L0.899660377,16.9773962 C1.17645283,17.2212453 1.69335849,17.5442264 2.4914717,17.5442264 L2.4914717,17.5442264 C2.82871698,17.5442264 3.21792453,17.4868302 3.65841509,17.339434 L3.65841509,17.339434 C5.32086792,16.7882264 6.82573585,13.8494717 7.88298113,11.0013962 L7.88298113,11.0013962 C7.89181132,11.0000377 7.89996226,11.0020755 7.90811321,11.0020755 L7.90811321,11.0020755 C8.0174717,10.992566 10.6040377,10.8343019 10.8743774,13.9350566 L10.8743774,13.9350566 C10.9956226,15.3329434 11.3875472,16.2842264 12.0746038,16.8476604 L12.0746038,16.8476604 C12.6261509,17.300717 13.253434,17.3958113 13.7265283,17.3958113 L13.7265283,17.3958113 C13.944566,17.3958113 14.1289811,17.3750943 14.2573585,17.3618491 L14.2573585,17.3618491 C15.5064906,17.2266792 16.4146415,16.4577736 17.0619623,15.5822264 L17.0619623,15.5822264 C17.1390566,15.7876981 17.2341509,15.9853585 17.3509811,16.1718113 L17.3509811,16.1718113 C17.8427547,16.9512453 18.6286415,17.3930943 19.6267925,17.4494717 L19.6267925,17.4494717 C19.7093208,17.4538868 19.7891321,17.4559245 19.8679245,17.4559245 L19.8679245,17.4559245 C21.260717,17.4559245 22.3128679,16.7624151 23.0997736,15.9748302 L23.0997736,15.9748302 C23.1554717,16.1273208 23.2193208,16.2760755 23.3076226,16.4146415 L23.3076226,16.4146415 C23.6054717,16.886717 24.2188302,17.4501509 25.4441887,17.4501509 L25.4441887,17.4501509 C26.4813962,17.4501509 27.6238868,16.5783396 28.6278113,15.4810189 L28.6278113,15.4810189 C28.6804528,15.8111321 28.7813208,16.1313962 28.9596226,16.4146415 L28.9596226,16.4146415 C29.2574717,16.886717 29.8715094,17.4501509 31.0961887,17.4501509 L31.0961887,17.4501509 C32.2549811,17.4501509 33.0982642,16.9427547 33.7116226,16.2971321 L33.7116226,16.2971321 C33.7330189,16.3358491 33.7489811,16.3769434 33.7713962,16.4146415 L33.7713962,16.4146415 C34.0702642,16.886717 34.683283,17.4501509 35.9086415,17.4501509 L35.9086415,17.4501509 C37.4539245,17.4501509 38.4378113,16.5477736 39.0640755,15.6189057 L39.0640755,15.6189057 C39.3609057,15.8919623 39.8258491,16.1419245 40.5468679,16.1419245 L40.5468679,16.1419245 C40.5750566,16.1419245 40.605283,16.1412453 40.6348302,16.140566 L40.6348302,16.140566 C42.6015849,16.0858868 44.1421132,13.1518868 44.3115849,12.8173585 L44.3115849,12.8173585 C44.4943019,12.4553208 44.349283,12.0134717 43.9858868,11.8307547 L43.9858868,11.8307547 C43.6235094,11.6473585 43.1796226,11.792717 42.9962264,12.1547547 L42.9962264,12.1547547 C42.4871321,13.1559623 41.3721509,14.6489434 40.5940755,14.6713585 L40.5940755,14.6713585 C40.3057358,14.6801887 40.1182642,14.6197358 40.0207925,14.4967925 L40.0207925,14.4967925 C39.8964906,14.3385283 39.8900377,14.0712453 39.9250189,13.9143396 L39.9250189,13.9143396 C40.6399245,12.1516981 40.9068679,11.504717 40.9136604,11.4873962 L40.9136604,11.4873962 C42.0143774,8.64645283 42.6175472,7.33890566 42.6226415,7.326 L42.6226415,7.326 C42.7938113,6.95750943 42.6328302,6.52007547 42.2629811,6.35060377 L42.2629811,6.35060377 C41.8944906,6.17943396 41.4560377,6.34075472 41.2862264,6.70890566 L41.2862264,6.70890566 C41.2604151,6.76256604 40.6599623,8.06366038 39.5449811,10.9429811 L39.5449811,10.9429811 C39.5449811,10.9429811 39.2726038,11.6018491 38.5335849,13.4266415 L38.5335849,13.4266415 C37.8003396,15.2398868 37.0382264,15.9789057 35.9086415,15.9789057 L35.9086415,15.9789057 C35.2382264,15.9789057 35.0724906,15.7163774 35.0181509,15.629434 L35.0181509,15.629434 C34.7583396,15.2174717 34.8809434,14.4506038 35.0697736,14.058 L35.0697736,14.058 C35.0959245,14.0019623 35.1129057,13.9452453 35.1247925,13.8881887 L35.1247925,13.8881887 C35.8301887,12.1455849 36.0950943,11.5043774 36.1012075,11.4873962 L36.1012075,11.4873962 C37.2026038,8.64645283 37.8050943,7.33890566 37.8105283,7.326 L37.8105283,7.326 C37.9816981,6.95750943 37.820717,6.52007547 37.4512075,6.35060377 L37.4512075,6.35060377 C37.0833962,6.17943396 36.6439245,6.34075472 36.4727547,6.70890566 L36.4727547,6.70890566 C36.4483019,6.76256604 35.8485283,8.06366038 34.7332075,10.9429811 L34.7332075,10.9429811 C34.7332075,10.9429811 34.4604906,11.6018491 33.7228302,13.4266415 L33.7228302,13.4266415 C32.9868679,15.2398868 32.2271321,15.9789057 31.0961887,15.9789057 L31.0961887,15.9789057 C30.4271321,15.9789057 30.260717,15.7163774 30.2063774,15.629434 L30.2063774,15.629434 C29.9462264,15.2174717 30.0695094,14.4506038 30.2712453,14.0308302 L30.2712453,14.0308302 C30.2804151,14.0135094 30.2889057,13.9948302 30.2953585,13.9771698 L30.2953585,13.9771698 C30.9888679,12.2651321 31.2666792,11.5903019 31.302,11.504717 L31.302,11.504717 C31.3023396,11.5030189 31.3040377,11.5013208 31.3040377,11.4979245 L31.3040377,11.4979245 C31.3040377,11.4979245 31.3040377,11.4975849 31.3050566,11.496566 L31.3050566,11.496566 C31.3060755,11.4952075 31.3091321,11.4880755 31.3091321,11.4873962 L31.3091321,11.4873962 C32.4095094,8.64645283 33.0126792,7.33890566 33.0184528,7.326 L33.0184528,7.326 C33.1896226,6.95750943 33.0279623,6.52007547 32.6594717,6.35060377 L32.6594717,6.35060377 C32.2909811,6.17943396 31.8518491,6.34075472 31.6810189,6.70890566 L31.6810189,6.70890566 C31.656566,6.76256604 31.055434,8.06366038 29.9407925,10.9429811 L29.9407925,10.9429811 L29.9401132,10.9453585 C29.9387547,10.946717 29.9387547,10.946717 29.9387547,10.9477358 L29.9387547,10.9477358 C29.2255472,12.7073208 26.637283,15.9789057 25.4441887,15.9789057 L25.4441887,15.9789057 C24.7751321,15.9789057 24.6093962,15.7163774 24.5536981,15.629434 L24.5536981,15.629434 C24.2935472,15.2174717 24.4168302,14.4506038 24.6056604,14.058 L24.6056604,14.058 C24.6233208,14.0196226 24.6358868,13.9788679 24.6477736,13.9398113 L24.6477736,13.9398113 C24.9401887,13.3916604 25.3113962,12.5609434 25.817434,11.4177736 L25.817434,11.4177736 L26.2453585,10.4532453 C26.9133962,8.9609434 27.6177736,7.49683019 27.6249057,7.48154717 L27.6249057,7.48154717 C27.8008302,7.11611321 27.6463019,6.67698113 27.2798491,6.5010566 L27.2798491,6.5010566 C26.9123774,6.32343396 26.472566,6.47898113 26.2963019,6.84475472 L26.2963019,6.84475472 C26.2918868,6.85460377 25.9770566,7.51007547 25.5678113,8.38969811 L25.5678113,8.38969811 C25.4601509,8.10645283 25.3151321,7.83373585 25.1235849,7.5885283 L25.1235849,7.5885283 C24.6233208,6.95037736 23.8764906,6.60022642 22.9632453,6.57475472 L22.9632453,6.57475472 C20.594717,6.52584906 18.3481132,8.85090566 17.3744151,11.201434 L17.3744151,11.201434 C17.2490943,11.5030189 17.1363396,11.8409434 17.0429434,12.1975472 L17.0429434,12.1975472 C17.0150943,12.2508679 16.9906415,12.3052075 16.976717,12.366 L16.976717,12.366 C16.968566,12.3989434 16.1110189,15.6824151 14.1007925,15.8997736 L14.1007925,15.8997736 C13.6416226,15.9483396 13.2819623,15.935434 13.0106038,15.7119623 L13.0106038,15.7119623 C12.6563774,15.4209057 12.425434,14.7623774 12.342566,13.808717 L12.342566,13.808717 C12.2301509,12.5239245 11.8046038,11.6055849 11.2415094,10.9531698 L11.2415094,10.9531698 C11.3416981,10.941283 11.4459623,10.9341509 11.5400377,10.9178491 L11.5400377,10.9178491 C13.9595094,10.4953585 15.0890943,9.22415094 15.6100755,8.23177358 L15.6100755,8.23177358 C16.5263774,6.49256604 16.2169811,4.49150943 15.6219623,3.19720755 L15.6219623,3.19720755 C15.0160755,1.87641509 13.6922264,0.887433962 11.9920755,0.484301887 L11.9920755,0.484301887 C11.4558113,0.356943396 10.9161509,0.294792243 10.3876981,0.294792243 L10.3876981,0.294792243 C9.0285283,0.29445283 7.74203774,0.706415094 6.7649434,1.48483019 L6.7649434,1.48483019 Z M19.7103396,15.9802642 C19.1876604,15.9517358 18.8347925,15.7639245 18.5990943,15.3883019 L18.5990943,15.3883019 C18.1215849,14.631283 18.1789811,13.1056981 18.735283,11.7628302 L18.735283,11.7628302 C19.6064151,9.66328302 21.4098113,8.04430189 22.8664528,8.04430189 L22.8664528,8.04430189 L22.9221509,8.04430189 C23.5511321,8.06230189 23.8160377,8.3085283 23.9617358,8.49192453 L23.9617358,8.49192453 C24.5390943,9.22686792 24.3791321,10.7215472 24.2690943,11.2364151 L24.2690943,11.2364151 C24.2633208,11.2595094 24.2599245,11.2809057 24.2572075,11.3029811 L24.2572075,11.3029811 C23.8055094,12.3204906 23.3677358,13.2809434 23.1218491,13.6246415 L23.1218491,13.6246415 C22.4443019,14.5721887 21.4335849,15.984 19.8526415,15.984 L19.8526415,15.984 C19.805434,15.984 19.7582264,15.9829811 19.7103396,15.9802642 L19.7103396,15.9802642 Z" id="path-29"></path>
    </defs>
    <g id="Symbols" stroke="none" stroke-width="1" fill="none" fill-rule="evenodd">
        <g id="Group-76">
            <path d="M37.7186943,5.03198491 C40.5694868,5.03198491 42.6982415,7.21677736 42.6982415,9.90081509 C42.6982415,12.5817962 40.5694868,14.7679472 37.7186943,14.7679472 C34.9093358,14.7679472 32.7384679,12.5817962 32.7384679,9.90081509 C32.7384679,7.21677736 34.9093358,5.03198491 37.7186943,5.03198491 M37.7186943,17.2393811 C41.9955623,17.2393811 45.3819396,13.9620226 45.3819396,9.90081509 C45.3819396,5.83451321 41.9955623,2.55749434 37.7186943,2.55749434 C33.4391094,2.55749434 30.0306566,5.83451321 30.0306566,9.90081509 C30.0306566,13.9620226 33.4391094,17.2393811 37.7186943,17.2393811" id="Fill-1" fill="#512800"></path>
            <g id="Group-5" transform="translate(29.886792, 2.459275)">
                <mask id="mask-2" fill="white">
                    <use xlink:href="#path-1"></use>
                </mask>
                <g id="Clip-4"></g>
                <polygon id="Fill-3" fill="#512800" mask="url(#mask-2)" points="-1.25150943 16.1755472 16.8907925 16.1755472 16.8907925 -1.29735849 -1.25150943 -1.29735849"></polygon>
            </g>
            <path d="M7.72444528,5.03198491 C10.5752377,5.03198491 12.7039925,7.21677736 12.7039925,9.90081509 C12.7039925,12.5817962 10.5752377,14.7679472 7.72444528,14.7679472 C4.91508679,14.7679472 2.74455849,12.5817962 2.74455849,9.90081509 C2.74455849,7.21677736 4.91508679,5.03198491 7.72444528,5.03198491 M7.72444528,17.2393811 C12.0013132,17.2393811 15.3883698,13.9620226 15.3883698,9.90081509 C15.3883698,5.83451321 12.0013132,2.55749434 7.72444528,2.55749434 C3.44553962,2.55749434 0.0370867925,5.83451321 0.0370867925,9.90081509 C0.0370867925,13.9620226 3.44553962,17.2393811 7.72444528,17.2393811" id="Fill-6" fill="#512800"></path>
            <g id="Group-10" transform="translate(0.000000, 2.459275)">
                <mask id="mask-4" fill="white">
                    <use xlink:href="#path-3"></use>
                </mask>
                <g id="Clip-9"></g>
                <polygon id="Fill-8" fill="#512800" mask="url(#mask-4)" points="-1.35849057 16.1755472 16.7838113 16.1755472 16.7838113 -1.29735849 -1.35849057 -1.29735849"></polygon>
            </g>
            <path d="M21.2234264,5.3447434 L17.6614642,5.3447434 C17.4539547,5.3447434 17.3500302,5.24047925 17.3500302,5.03364906 L17.3500302,2.98334717 C17.3500302,2.77651698 17.4539547,2.67225283 17.6614642,2.67225283 L27.7231245,2.67225283 C27.9302943,2.67225283 28.0348981,2.77651698 28.0348981,2.98334717 L28.0348981,5.03364906 C28.0348981,5.24047925 27.9302943,5.3447434 27.7231245,5.3447434 L24.1611623,5.3447434 L24.1611623,17.0994226 C24.1611623,17.3079509 24.0568981,17.4108566 23.8490491,17.4108566 L21.5348604,17.4108566 C21.3276906,17.4108566 21.2234264,17.3079509 21.2234264,17.0994226 L21.2234264,5.3447434 Z" id="Fill-11" fill="#512800"></path>
            <g id="Group-15" transform="translate(17.320755, 2.459275)">
                <mask id="mask-6" fill="white">
                    <use xlink:href="#path-5"></use>
                </mask>
                <g id="Clip-14"></g>
                <polygon id="Fill-13" fill="#512800" mask="url(#mask-6)" points="-1.36630189 16.3470566 12.1095849 16.3470566 12.1095849 -1.18188679 -1.36630189 -1.18188679"></polygon>
            </g>
            <path d="M50.9964792,11.5468642 L50.9964792,17.0996943 C50.9964792,17.307883 50.8928943,17.4107887 50.6847057,17.4107887 L48.3701774,17.4107887 C48.1630075,17.4107887 48.0587434,17.307883 48.0587434,17.0996943 L48.0587434,2.98395849 C48.0587434,2.77644906 48.1630075,2.67286415 48.3701774,2.67286415 L58.0171585,2.67286415 C58.2246679,2.67286415 58.3279132,2.77644906 58.3279132,2.98395849 L58.3279132,5.03426038 C58.3279132,5.24109057 58.2246679,5.34501509 58.0171585,5.34501509 L50.9964792,5.34501509 L50.9964792,8.95248679 L56.5608566,8.95248679 C56.7693849,8.95248679 56.8712717,9.05573208 56.8712717,9.26358113 L56.8712717,11.2357698 C56.8712717,11.4426 56.7693849,11.5468642 56.5608566,11.5468642 L50.9964792,11.5468642 Z" id="Fill-16" fill="#512800"></path>
            <g id="Group-20" transform="translate(47.886792, 2.459275)">
                <mask id="mask-8" fill="white">
                    <use xlink:href="#path-7"></use>
                </mask>
                <g id="Clip-19"></g>
                <polygon id="Fill-18" fill="#512800" mask="url(#mask-8)" points="-1.22366038 16.3470566 11.8361887 16.3470566 11.8361887 -1.18188679 -1.22366038 -1.18188679"></polygon>
            </g>
            <path d="M60.5403849,10.8977774 L60.5403849,2.98389057 C60.5403849,2.77706038 60.6439698,2.67279623 60.8514792,2.67279623 L63.1660075,2.67279623 C63.3741962,2.67279623 63.4774415,2.77706038 63.4774415,2.98389057 L63.4774415,10.8977774 C63.4774415,13.5970981 64.3363472,14.9464189 66.7544604,14.9464189 C69.1718943,14.9464189 70.0294415,13.5970981 70.0294415,10.8977774 L70.0294415,2.98389057 C70.0294415,2.77706038 70.133366,2.67279623 70.3412151,2.67279623 L72.6547245,2.67279623 C72.8632528,2.67279623 72.9671774,2.77706038 72.9671774,2.98389057 L72.9671774,10.8977774 C72.9671774,14.9725698 70.8876679,17.5414755 66.7279698,17.5414755 C62.594083,17.5414755 60.5403849,14.9725698 60.5403849,10.8977774" id="Fill-21" fill="#512800"></path>
            <g id="Group-25" transform="translate(60.452830, 2.459275)">
                <mask id="mask-10" fill="white">
                    <use xlink:href="#path-9"></use>
                </mask>
                <g id="Clip-24"></g>
                <polygon id="Fill-23" fill="#512800" mask="url(#mask-10)" points="-1.30754717 16.4778113 13.9099245 16.4778113 13.9099245 -1.18188679 -1.30754717 -1.18188679"></polygon>
            </g>
            <path d="M136.574083,17.7051736 C132.304347,17.7051736 128.835442,14.2420415 128.835442,9.97943774 C128.835442,5.71683396 132.304347,2.25438113 136.574083,2.25438113 C138.710309,2.25438113 140.658045,3.10683396 142.045404,4.49283396 C142.126574,4.5984566 142.152725,4.67928679 142.152725,4.75909811 C142.152725,4.83856981 142.126574,4.91838113 142.045404,4.99785283 L140.525592,6.46366415 C140.471253,6.51698491 140.418272,6.54415472 140.3388,6.54415472 C140.231479,6.54415472 140.124498,6.48981509 140.044347,6.41000377 C139.083555,5.5314 137.936649,5.05219245 136.548611,5.05219245 C133.772875,5.05219245 131.849932,7.31577736 131.849932,10.0595887 C131.849932,12.8302302 133.772875,15.0411736 136.548611,15.0411736 C138.255894,15.0411736 139.670762,14.2420415 140.631894,13.0693245 C140.712725,12.9905321 140.818687,12.9372113 140.924989,12.9372113 C141.005479,12.9372113 141.058121,12.9633623 141.111781,13.0160038 L142.526309,14.4016642 C142.60646,14.4814755 142.63363,14.5609472 142.63363,14.6417774 C142.63363,14.7222679 142.60646,14.8020792 142.526309,14.9090604 C141.111781,16.6126075 138.950083,17.7051736 136.574083,17.7051736" id="Fill-26" fill="#512800"></path>
            <g id="Group-30" transform="translate(128.716981, 2.119653)">
                <mask id="mask-12" fill="white">
                    <use xlink:href="#path-11"></use>
                </mask>
                <g id="Clip-29"></g>
                <polygon id="Fill-28" fill="#512800" mask="url(#mask-12)" points="-1.27732075 16.9807925 15.3118868 16.9807925 15.3118868 -1.26067925 -1.27732075 -1.26067925"></polygon>
            </g>
            <path d="M157.389555,2.76109811 L157.389555,17.2524566 C157.389555,17.4654 157.282234,17.5720415 157.069291,17.5720415 L154.69363,17.5720415 C154.480008,17.5720415 154.372008,17.4654 154.372008,17.2524566 L154.372008,11.5515509 L148.44797,11.5515509 L148.44797,17.2524566 C148.44797,17.4654 148.33997,17.5720415 148.127706,17.5720415 L145.751366,17.5720415 C145.538423,17.5720415 145.431442,17.4654 145.431442,17.2524566 L145.431442,2.76109811 C145.431442,2.54747547 145.538423,2.44151321 145.751366,2.44151321 L148.127706,2.44151321 C148.33997,2.44151321 148.44797,2.54747547 148.44797,2.76109811 L148.44797,8.88755094 L154.372008,8.88755094 L154.372008,2.76109811 C154.372008,2.54747547 154.480008,2.44151321 154.69363,2.44151321 L157.069291,2.44151321 C157.282234,2.44151321 157.389555,2.54747547 157.389555,2.76109811" id="Fill-31" fill="#512800"></path>
            <g id="Group-35" transform="translate(145.358491, 2.119653)">
                <mask id="mask-14" fill="white">
                    <use xlink:href="#path-13"></use>
                </mask>
                <g id="Clip-34"></g>
                <polygon id="Fill-33" fill="#512800" mask="url(#mask-14)" points="-1.32249057 16.848 13.4263019 16.848 13.4263019 -1.07388679 -1.32249057 -1.07388679"></polygon>
            </g>
            <path d="M172.918019,10.0596906 C172.918019,7.31553962 170.943792,5.05229434 168.168396,5.05229434 C165.392321,5.05229434 163.469717,7.31553962 163.469717,10.0596906 C163.469717,12.8296528 165.392321,15.0416151 168.168396,15.0416151 C170.943792,15.0416151 172.918019,12.8296528 172.918019,10.0596906 M175.935566,9.97953962 C175.935566,14.2418038 172.464283,17.7059547 168.193868,17.7059547 C163.924132,17.7059547 160.454887,14.2418038 160.454887,9.97953962 C160.454887,5.71761509 163.924132,2.25516226 168.193868,2.25516226 C172.464283,2.25516226 175.935566,5.71761509 175.935566,9.97953962" id="Fill-36" fill="#512800"></path>
            <g id="Group-40" transform="translate(160.301887, 2.119653)">
                <mask id="mask-16" fill="white">
                    <use xlink:href="#path-15"></use>
                </mask>
                <g id="Clip-39"></g>
                <polygon id="Fill-38" fill="#512800" mask="url(#mask-16)" points="-1.24267925 16.9811321 17.0293585 16.9811321 17.0293585 -1.26 -1.24267925 -1.26"></polygon>
            </g>
            <path d="M186.072758,17.7051736 C181.802004,17.7051736 178.332758,14.2420415 178.332758,9.97943774 C178.332758,5.71683396 181.802004,2.25438113 186.072758,2.25438113 C188.207966,2.25438113 190.155362,3.10683396 191.54374,4.49283396 C191.62423,4.5984566 191.650381,4.67928679 191.650381,4.75909811 C191.650381,4.83856981 191.62423,4.91838113 191.54374,4.99785283 L190.02223,6.46366415 C189.968909,6.51698491 189.915928,6.54415472 189.835438,6.54415472 C189.729136,6.54415472 189.622834,6.48981509 189.542343,6.41000377 C188.581211,5.5314 187.433966,5.05219245 186.045589,5.05219245 C183.270532,5.05219245 181.348268,7.31577736 181.348268,10.0595887 C181.348268,12.8302302 183.270532,15.0411736 186.045589,15.0411736 C187.75423,15.0411736 189.168079,14.2420415 190.129211,13.0693245 C190.209362,12.9905321 190.316343,12.9372113 190.423664,12.9372113 C190.503136,12.9372113 190.555777,12.9633623 190.610117,13.0160038 L192.023966,14.4016642 C192.104796,14.4814755 192.130608,14.5609472 192.130608,14.6417774 C192.130608,14.7222679 192.104796,14.8020792 192.023966,14.9090604 C190.610117,16.6126075 188.44774,17.7051736 186.072758,17.7051736" id="Fill-41" fill="#512800"></path>
            <g id="Group-45" transform="translate(178.301887, 2.119653)">
                <mask id="mask-18" fill="white">
                    <use xlink:href="#path-17"></use>
                </mask>
                <g id="Clip-44"></g>
                <polygon id="Fill-43" fill="#512800" mask="url(#mask-18)" points="-1.36460377 16.9807925 15.2235849 16.9807925 15.2235849 -1.26067925 -1.36460377 -1.26067925"></polygon>
            </g>
            <path d="M206.727045,10.0596906 C206.727045,7.31553962 204.75146,5.05229434 201.975385,5.05229434 C199.199989,5.05229434 197.278064,7.31553962 197.278064,10.0596906 C197.278064,12.8296528 199.199989,15.0416151 201.975385,15.0416151 C204.75146,15.0416151 206.727045,12.8296528 206.727045,10.0596906 M209.742555,9.97953962 C209.742555,14.2418038 206.272291,17.7059547 202.002555,17.7059547 C197.7318,17.7059547 194.262555,14.2418038 194.262555,9.97953962 C194.262555,5.71761509 197.7318,2.25516226 202.002555,2.25516226 C206.272291,2.25516226 209.742555,5.71761509 209.742555,9.97953962" id="Fill-46" fill="#512800"></path>
            <g id="Group-50" transform="translate(193.924528, 2.119653)">
                <mask id="mask-20" fill="white">
                    <use xlink:href="#path-19"></use>
                </mask>
                <g id="Clip-49"></g>
                <polygon id="Fill-48" fill="#512800" mask="url(#mask-20)" points="-1.05758491 16.9811321 17.213434 16.9811321 17.213434 -1.26 -1.05758491 -1.26"></polygon>
            </g>
            <path d="M223.350317,17.2524566 C223.350317,17.4654 223.243336,17.5720415 223.029713,17.5720415 L213.127675,17.5720415 C212.914053,17.5720415 212.806732,17.4654 212.806732,17.2524566 L212.806732,2.76109811 C212.806732,2.54747547 212.914053,2.44151321 213.127675,2.44151321 L215.503675,2.44151321 C215.71594,2.44151321 215.82326,2.54747547 215.82326,2.76109811 L215.82326,14.8815509 L223.029713,14.8815509 C223.243336,14.8815509 223.350317,14.9881925 223.350317,15.2011358 L223.350317,17.2524566 Z" id="Fill-51" fill="#512800"></path>
            <g id="Group-55" transform="translate(212.603774, 2.119653)">
                <mask id="mask-22" fill="white">
                    <use xlink:href="#path-21"></use>
                </mask>
                <g id="Clip-54"></g>
                <polygon id="Fill-53" fill="#512800" mask="url(#mask-22)" points="-1.19241509 16.848 12.1415094 16.848 12.1415094 -1.07388679 -1.19241509 -1.07388679"></polygon>
            </g>
            <path d="M234.156532,11.604566 L232.635362,8.4345283 L231.112494,11.604566 L234.156532,11.604566 Z M235.4634,14.2950566 L229.805626,14.2950566 L228.390758,17.2521509 C228.311287,17.4386038 228.177815,17.5717358 227.963513,17.5717358 L225.375249,17.5717358 C225.161287,17.5717358 225.054985,17.4650943 225.054985,17.2521509 L232.234268,2.54683019 C232.3674,2.41369811 232.500872,2.36037736 232.635362,2.36037736 C232.768834,2.36037736 232.901287,2.41369811 233.035438,2.54683019 L240.214721,17.2521509 C240.214721,17.4650943 240.10774,17.5717358 239.894457,17.5717358 L237.305853,17.5717358 C237.09223,17.5717358 236.95774,17.4386038 236.878947,17.2521509 L235.4634,14.2950566 Z" id="Fill-56" fill="#512800"></path>
            <g id="Group-60" transform="translate(224.830189, 2.119653)">
                <mask id="mask-24" fill="white">
                    <use xlink:href="#path-23"></use>
                </mask>
                <g id="Clip-59"></g>
                <polygon id="Fill-58" fill="#512800" mask="url(#mask-24)" points="-1.17033962 16.848 16.7800755 16.848 16.7800755 -1.15403774 -1.17033962 -1.15403774"></polygon>
            </g>
            <path d="M245.522309,5.18457736 L241.865932,5.18457736 C241.65197,5.18457736 241.545328,5.07793585 241.545328,4.86601132 L241.545328,2.76069057 C241.545328,2.5467283 241.65197,2.44110566 241.865932,2.44110566 L252.194875,2.44110566 C252.408158,2.44110566 252.51446,2.5467283 252.51446,2.76069057 L252.51446,4.86601132 C252.51446,5.07793585 252.408158,5.18457736 252.194875,5.18457736 L248.537819,5.18457736 L248.537819,17.2520491 C248.537819,17.4656717 248.430838,17.5729925 248.217555,17.5729925 L245.842574,17.5729925 C245.628272,17.5729925 245.522309,17.4656717 245.522309,17.2520491 L245.522309,5.18457736 Z" id="Fill-61" fill="#512800"></path>
            <g id="Group-65" transform="translate(241.471698, 2.119653)">
                <mask id="mask-26" fill="white">
                    <use xlink:href="#path-25"></use>
                </mask>
                <g id="Clip-64"></g>
                <polygon id="Fill-63" fill="#512800" mask="url(#mask-26)" points="-1.3214717 16.8483396 12.438 16.8483396 12.438 -1.07388679 -1.3214717 -1.07388679"></polygon>
            </g>
            <path d="M255.180634,2.76109811 C255.180634,2.54747547 255.287615,2.44151321 255.499879,2.44151321 L265.402936,2.44151321 C265.616898,2.44151321 265.723879,2.54747547 265.723879,2.76109811 L265.723879,4.86506038 C265.723879,5.07800377 265.616898,5.18498491 265.402936,5.18498491 L258.197502,5.18498491 L258.197502,8.88755094 L263.907917,8.88755094 C264.122219,8.88755094 264.22954,8.99385283 264.22954,9.20713585 L264.22954,11.2316264 C264.22954,11.4445698 264.122219,11.5515509 263.907917,11.5515509 L258.197502,11.5515509 L258.197502,14.8275509 L265.402936,14.8275509 C265.616898,14.8275509 265.723879,14.9338528 265.723879,15.1484943 L265.723879,17.2524566 C265.723879,17.4654 265.616898,17.5720415 265.402936,17.5720415 L255.499879,17.5720415 C255.287615,17.5720415 255.180634,17.4654 255.180634,17.2524566 L255.180634,2.76109811 Z" id="Fill-66" fill="#512800"></path>
            <g id="Group-70" transform="translate(255.056604, 2.119653)">
                <mask id="mask-28" fill="white">
                    <use xlink:href="#path-27"></use>
                </mask>
                <g id="Clip-69"></g>
                <polygon id="Fill-68" fill="#512800" mask="url(#mask-28)" points="-1.27120755 16.848 12.0630566 16.848 12.0630566 -1.07388679 -1.27120755 -1.07388679"></polygon>
            </g>
            <path d="M97.8232755,16.0621132 C97.3009358,16.0335849 96.9480679,15.8457736 96.7123698,15.4701509 C96.2348604,14.7127925 96.2922566,13.1878868 96.8485585,11.8446792 C97.7193509,9.74513208 99.5230868,8.12615094 100.979728,8.12615094 L101.035426,8.12615094 C101.664408,8.14415094 101.929313,8.39037736 102.075011,8.57377358 C102.65237,9.30871698 102.492408,10.8033962 102.38237,11.3182642 C102.376596,11.3413585 102.37286,11.3627547 102.370483,11.3851698 C101.918785,12.4023396 101.481011,13.3631321 101.235125,13.7064906 C100.5372,14.6822264 99.4864075,16.1504151 97.8232755,16.0621132 M122.099162,11.9126038 C121.736785,11.7292075 121.292898,11.874566 121.109502,12.2366038 C120.600068,13.2381509 119.485087,14.7307925 118.707351,14.7532075 C118.419011,14.7620377 118.23154,14.7015849 118.134068,14.5789811 C118.009766,14.4203774 118.003313,14.1530943 118.037955,13.9961887 C118.7532,12.2335472 119.020143,11.586566 119.026936,11.5692453 C120.127653,8.72830189 120.730823,7.42109434 120.735917,7.40818868 C120.907087,7.03969811 120.746106,6.60226415 120.376257,6.43245283 C120.007426,6.26162264 119.569313,6.42260377 119.399162,6.79075472 C119.373691,6.84441509 118.773238,8.14550943 117.658257,11.0248302 C117.658257,11.0248302 117.385879,11.6833585 116.64686,13.5081509 C115.913615,15.3217358 115.151162,16.0610943 114.021917,16.0610943 C113.351842,16.0610943 113.185426,15.798566 113.131426,15.711283 C112.871955,15.2993208 112.994219,14.5327925 113.183049,14.1398491 C113.2092,14.0841509 113.226521,14.0270943 113.238408,13.9700377 C113.943464,12.227434 114.20837,11.5858868 114.214483,11.5692453 C115.315879,8.72830189 115.91803,7.42109434 115.923804,7.40818868 C116.094974,7.03969811 115.933653,6.60226415 115.564483,6.43245283 C115.196332,6.26162264 114.7572,6.42260377 114.58603,6.79075472 C114.561577,6.84441509 113.961804,8.14550943 112.846143,11.0248302 C112.846143,11.0248302 112.573766,11.6833585 111.836106,13.5081509 C111.100143,15.3217358 110.340408,16.0610943 109.209464,16.0610943 C108.540747,16.0610943 108.373653,15.798566 108.319313,15.711283 C108.059502,15.2993208 108.182445,14.5327925 108.384521,14.1126792 C108.393691,14.0953585 108.401842,14.0766792 108.408634,14.0593585 C109.102143,12.3469811 109.379615,11.6721509 109.415275,11.586566 C109.415615,11.5848679 109.417653,11.5831698 109.417653,11.5801132 C109.417653,11.5801132 109.417653,11.579434 109.418332,11.5784151 C109.419351,11.5773962 109.422068,11.5699245 109.422068,11.5692453 C110.522785,8.72830189 111.125955,7.42109434 111.131728,7.40818868 C111.302558,7.03969811 111.141238,6.60226415 110.772747,6.43245283 C110.404257,6.26162264 109.965125,6.42260377 109.794294,6.79075472 C109.769842,6.84441509 109.16837,8.14550943 108.054068,11.0248302 L108.053389,11.0275472 C108.05203,11.028566 108.05203,11.028566 108.05203,11.0295849 C107.339162,12.7891698 104.750558,16.0610943 103.557464,16.0610943 C102.888068,16.0610943 102.722672,15.798566 102.666974,15.711283 C102.406823,15.2993208 102.529766,14.5327925 102.718936,14.1398491 C102.736596,14.1014717 102.749162,14.060717 102.761049,14.0216604 C103.053464,13.4735094 103.424672,12.6427925 103.93037,11.4996226 L104.358294,10.535434 C105.026672,9.04279245 105.730709,7.57867925 105.738181,7.56373585 C105.913766,7.19796226 105.759577,6.75883019 105.393125,6.58324528 C105.025653,6.40528302 104.585842,6.56083019 104.409577,6.9269434 C104.405162,6.93645283 104.090332,7.59226415 103.681087,8.47154717 C103.573766,8.18830189 103.428408,7.91592453 103.236521,7.67071698 C102.736596,7.03222642 101.989766,6.68207547 101.076521,6.6569434 C98.7079925,6.60769811 96.4613887,8.93275472 95.4876906,11.283283 C95.3623698,11.5848679 95.2496151,11.9227925 95.1562189,12.2793962 C95.1283698,12.3330566 95.103917,12.3870566 95.0899925,12.4475094 C95.0818415,12.4807925 94.2242943,15.7642642 92.2137283,15.9816226 C91.7548981,16.0301887 91.3948981,16.017283 91.1235396,15.7938113 C90.7696528,15.5030943 90.5387094,14.8442264 90.4558415,13.8902264 C90.3434264,12.6057736 89.9178792,11.687434 89.3547849,11.0350189 C89.454634,11.0231321 89.5592377,11.0163396 89.6533132,11.0000377 C92.0724453,10.5772075 93.2027094,9.306 93.7233509,8.31396226 C94.6396528,6.57441509 94.3302566,4.57335849 93.7352377,3.2790566 C93.1293509,1.95860377 91.8055019,0.969622642 90.1050113,0.566150943 C88.1895396,0.111735849 86.2353509,0.486 84.8782189,1.56667925 C81.4962566,4.26158491 83.0449358,8.55849057 83.1132,8.74086792 C83.2548226,9.12124528 83.676634,9.3134717 84.0583698,9.17422642 C84.4394264,9.03362264 84.6343698,8.61181132 84.4944453,8.23075472 C84.4435019,8.08811321 83.2565208,4.74011321 85.7975774,2.71596226 C86.7882566,1.926 88.3087472,1.65124528 89.7640302,1.99698113 C91.020634,2.29584906 91.9793887,2.98596226 92.3967849,3.89275472 C92.8444075,4.86849057 93.0858792,6.36215094 92.4192,7.62962264 C91.8836151,8.64815094 90.8678038,9.29479245 89.3989358,9.55222642 C88.5070868,9.70675472 87.2399547,9.61335849 86.5325208,9.53898113 C86.8191623,8.65018868 87.0528226,7.81845283 87.2219547,7.12969811 C87.7334264,5.05901887 88.5964075,4.78222642 88.6612755,4.76422642 C89.0487849,4.70716981 89.3255774,4.35498113 89.2851623,3.96135849 C89.2430491,3.55754717 88.8803321,3.26716981 88.4772,3.30622642 C88.2853132,3.32558491 86.5783698,3.59049057 85.7918038,6.77750943 C84.6608604,11.3583396 82.6058038,15.5937736 81.3060679,16.0264528 C80.8947849,16.1623019 80.3330491,16.2618113 79.9869736,15.9564906 C79.7050868,15.7078868 79.5970868,15.2198491 79.7050868,14.6812075 C79.7852377,14.2835094 79.525766,13.8956604 79.1260302,13.8161887 C78.7273132,13.7387547 78.3394642,13.9944906 78.2603321,14.3928679 C78.0463698,15.4599623 78.3272377,16.4553962 79.0125962,17.0595849 C79.2897283,17.3030943 79.806634,17.6260755 80.6047472,17.6260755 C80.9419925,17.6260755 81.3312,17.5690189 81.7716906,17.421283 C83.4341434,16.8700755 84.9386717,13.9316604 85.9962566,11.0832453 C86.0050868,11.0822264 86.0135774,11.0839245 86.0213887,11.0839245 C86.1307472,11.0744151 88.7173132,10.9161509 88.9876528,14.0172453 C89.1088981,15.4147925 89.5008226,16.3660755 90.1878792,16.9298491 C90.7394264,17.3829057 91.3667094,17.4776604 91.8398038,17.4776604 C92.0575019,17.4776604 92.241917,17.4569434 92.370634,17.4436981 C93.619766,17.3088679 94.527917,16.5396226 95.1752377,15.6640755 C95.2523321,15.8698868 95.3474264,16.0675472 95.4642566,16.2533208 C95.9556906,17.0330943 96.741917,17.4749434 97.7400679,17.5313208 C97.8225962,17.5357358 97.9020679,17.5381132 97.9812,17.5381132 C99.3739925,17.5381132 100.426143,16.8446038 101.212709,16.0566792 C101.268747,16.2095094 101.332257,16.3579245 101.420898,16.4964906 C101.718747,16.968566 102.331766,17.532 103.557464,17.532 C104.594672,17.532 105.737162,16.6605283 106.741087,15.5628679 C106.793728,15.8929811 106.894596,16.2132453 107.072898,16.4964906 C107.370747,16.968566 107.984785,17.532 109.209464,17.532 C110.368257,17.532 111.21154,17.0246038 111.824898,16.3793208 C111.846294,16.4176981 111.862257,16.4591321 111.884672,16.4964906 C112.1832,16.968566 112.796558,17.532 114.021917,17.532 C115.5672,17.532 116.551087,16.6299623 117.177011,15.7010943 C117.473842,15.9738113 117.938785,16.2241132 118.660143,16.2241132 C118.688672,16.2241132 118.718219,16.223434 118.747766,16.2224151 C120.71486,16.1677358 122.255389,13.2337358 122.42486,12.8992075 C122.607577,12.5371698 122.462558,12.0953208 122.099162,11.9126038" id="Fill-71" fill="#512800"></path>
            <g id="Group-75" transform="translate(78.113208, 0.081917)">
                <mask id="mask-30" fill="white">
                    <use xlink:href="#path-29"></use>
                </mask>
                <g id="Clip-74"></g>
                <polygon id="Fill-73" fill="#512800" mask="url(#mask-30)" points="-1.31909434 18.9393962 45.7855472 18.9393962 45.7855472 -1.10071698 -1.31909434 -1.10071698"></polygon>
            </g>
        </g>
    </g>
</svg>