<?xml version="1.0" encoding="UTF-8"?>
<svg width="153px" height="19px" viewBox="0 0 153 19" version="1.1" xmlns="http://www.w3.org/2000/svg" xmlns:xlink="http://www.w3.org/1999/xlink">
    <title>nav-yushidoufu</title>
    <g id="Symbols" stroke="none" stroke-width="1" fill="none" fill-rule="evenodd">
        <g id="contents/header-1440" transform="translate(-1168.000000, -184.000000)" fill-rule="nonzero">
            <g id="Group-8" transform="translate(1168.000000, 186.000000)">
                <polygon id="Line-8" fill="#C9A063" opacity="0.600000024" points="0 17 153 17 153 16 0 16"></polygon>
                <g id="沖縄のソウルゆしどうふ-2" transform="translate(1.000000, 0.000000)" fill="#512800">
                    <path d="M8.53148346,14 C8.96478122,14 9.47278549,12.6254002 9.47278549,12.0576307 C9.47278549,11.9381003 9.51760939,11.4151547 9.53255069,11.280683 L9.6072572,10.040555 L9.5923159,9.95090715 C9.5923159,9.93596585 9.62219851,9.87620064 9.63713981,9.84631804 C9.65208111,9.75667022 9.62219851,9.29348986 9.62219851,9.18890075 L9.66702241,8.18783351 C9.69690502,8.17289221 10.3094984,8.0981857 10.3244397,8.0981857 L11.8484525,8.0981857 C12.3265742,8.0981857 12.5208111,7.64994664 12.5208111,7.45570971 C12.5208111,7.3959445 12.416222,7.06723586 12.416222,6.97758805 C12.416222,6.93276414 12.4759872,6.82817503 12.5058698,6.79829242 L13.1931697,5.84204909 L13.2230523,5.75240128 C13.4023479,5.49839915 13.4172892,5.46851654 13.6264674,5.45357524 L13.6712914,5.40875133 L13.9402348,5.10992529 L13.9850587,5.1248666 L14.0149413,5.1248666 L13.9402348,4.79615795 C13.8804696,4.70651014 13.7758805,4.60192102 13.7310566,4.51227321 C13.6563501,4.4375667 13.2230523,4.16862327 13.1483458,4.07897545 C13.0437567,4.03415155 13.0288154,4.01921025 12.8794023,3.91462113 C12.7897545,3.85485592 12.3564568,3.6755603 12.0875133,3.57097118 C12.0426894,3.55602988 11.8633938,3.39167556 11.8185699,3.39167556 C11.7886873,3.39167556 11.3404482,3.64567769 11.3105656,3.6755603 L11.3105656,3.7203842 C11.0864461,3.81003202 9.93596585,3.88473853 9.80149413,3.88473853 C9.80149413,3.86979723 9.77161153,3.78014941 9.77161153,3.73532551 C9.77161153,3.66995731 9.79449039,3.41583845 9.82523387,3.1431305 L9.85316127,2.90879719 C9.88717316,2.63935766 9.92475987,2.39994664 9.95090715,2.36072572 C10.1451441,2.06189968 10.1750267,2.01707577 10.1750267,1.80789755 C10.1750267,1.67342583 10.0704376,1.40448239 9.96584845,1.18036286 C9.95090715,1.13553895 9.69690502,0.926360726 9.65208111,0.866595518 C9.5624333,0.806830309 8.90501601,0.478121665 8.8153682,0.433297759 C8.51654216,0.239060832 8.18783351,0 7.79935966,0 L7.30629669,0.0896478122 L7.27641409,0.179295624 C7.21664888,0.194236926 6.88794023,0.268943436 6.82817503,0.298826041 C6.94770544,0.463180363 6.99252935,0.493062967 7.3361793,0.687299893 C7.67982924,0.88153682 7.69477054,1.13553895 7.69477054,1.55389541 L7.70971185,2.74919957 L7.76947705,4.06403415 C7.59018143,4.15368196 6.81323372,4.27321238 6.6189968,4.28815368 L5.03521878,4.452508 C5.00533618,4.452508 4.87086446,4.49733191 4.82604055,4.49733191 C4.78121665,4.49733191 4.48239061,4.4076841 4.4375667,4.3927428 C4.27321238,4.34791889 3.88473853,4.31803629 3.86979723,4.31803629 C3.39167556,4.31803629 3.31696905,4.37780149 3.19743863,4.48239061 L3.19743863,4.51227321 C3.28708645,4.58697972 3.36179296,4.63180363 3.45144077,4.73639274 C3.51120598,4.79615795 3.75026681,5.10992529 3.81003202,5.1696905 C4.01921025,5.39381003 4.06403415,5.43863394 4.27321238,6.03628602 C4.30309498,6.11099253 4.67662753,7.76947705 4.79615795,8.02347919 C4.82604055,8.0832444 5.03521878,8.30736393 5.06510139,8.35218783 C5.42369264,8.8601921 5.97652081,9.08431163 6.08110993,9.08431163 C6.49946638,9.08431163 6.55923159,8.8153682 6.6040555,8.62113127 C6.6189968,8.59124867 7.29135539,8.30736393 7.82924226,8.33724653 L7.85912487,8.8153682 L7.85912487,10.4738527 L7.88900747,12.2518677 C7.88900747,12.3265742 7.96371398,12.715048 7.96371398,12.7897545 C7.96371398,12.909285 8.0832444,13.4172892 8.1280683,13.5816435 C8.15795091,13.6563501 8.26254002,14 8.53148346,14 Z M3.55602988,3.88473853 C3.75026681,3.88473853 4.06403415,3.75026681 4.22838847,3.46638207 C4.25827108,3.40661686 4.4076841,2.9135539 4.4076841,2.88367129 C4.4076841,2.80896478 4.30309498,2.45037353 4.27321238,2.36072572 C4.13874066,1.86766275 4.15368196,1.79295624 3.97438634,1.64354322 C3.76520811,1.4791889 3.36179296,1.35965848 3.13767343,1.22518677 C2.79402348,1.03094984 2.58484525,0.911419424 1.95731057,0.911419424 C1.77801494,0.911419424 1.37459979,1.03094984 1.34471718,1.03094984 C1.07577375,1.16542156 1.04589114,1.18036286 0.776947705,1.24012807 L0.836712914,1.35965848 C0.896478122,1.37459979 1.19530416,1.4642476 1.27001067,1.4941302 C1.4791889,1.61366062 1.85272145,2.00213447 1.91248666,2.07684098 L2.45037353,3.12273212 C2.49519744,3.19743863 2.54002134,3.27214514 2.59978655,3.30202775 C2.62966916,3.31696905 2.70437567,3.36179296 2.71931697,3.37673426 C2.9434365,3.660619 3.25720384,3.88473853 3.55602988,3.88473853 Z M3.39167556,7.21664888 C3.64567769,7.21664888 3.86979723,6.73852721 3.86979723,6.39487727 C3.86979723,5.81216649 3.37673426,5.55816435 3.19743863,5.46851654 C3.15261473,5.43863394 2.9135539,5.34898613 2.86872999,5.31910352 C2.58484525,5.1547492 2.34578442,5.00533618 1.94236926,5.00533618 C1.88260406,5.00533618 1.37459979,5.1248666 1.18036286,5.19957311 C1.13553895,5.21451441 0.941302028,5.22945571 0.762006403,5.24439701 C0.702241195,5.25933831 0.14941302,5.34898613 0.119530416,5.36392743 C0.0896478122,5.40875133 0.0747065101,5.40875133 0,5.43863394 L0,5.48345784 L0.0597652081,5.54322305 C0.0597652081,5.58804696 0.0896478122,5.67769477 0.134471718,5.70757737 C0.254002134,5.78228388 0.448239061,5.9167556 0.567769477,6.00640342 C0.627534685,6.03628602 0.986125934,6.18569904 1.06083244,6.23052295 L1.92742796,6.72358591 C2.226254,6.90288154 2.89861259,7.26147279 3.24226254,7.18676628 C3.28708645,7.20170758 3.34685165,7.21664888 3.39167556,7.21664888 Z M9.75667022,6.6040555 C9.73425827,6.58164354 9.72865528,6.41635539 9.72725454,6.30989861 L9.72678762,6.23052295 C9.72678762,6.11099253 9.74172892,5.52828175 9.74172892,5.39381003 C9.74172892,5.33404482 9.77161153,5.19957311 9.77161153,5.1846318 C9.92102455,5.06510139 10.6531483,5.02027748 10.7129136,5.02027748 C10.8025614,5.02027748 10.8623266,5.05016009 10.9370331,5.08004269 C10.9519744,5.19957311 10.9519744,5.30416222 10.9071505,5.49839915 C10.8772679,5.64781217 10.7129136,6.37993597 10.6680896,6.54429029 C10.6574173,6.55496265 10.5323982,6.55801189 10.4509398,6.55888311 L10.3842049,6.55923159 L10.3842049,6.55923159 C10.2945571,6.55923159 9.86125934,6.6189968 9.75667022,6.6040555 Z M6.33511206,7.11205977 L6.14087513,6.6339381 C6.18569904,6.37993597 6.11099253,6.15581644 6.06616862,6.03628602 C6.03628602,5.94663821 5.97652081,5.72251868 5.97652081,5.64781217 C5.99146211,5.64781217 6.02134472,5.63287086 6.03628602,5.63287086 C6.11099253,5.63287086 6.46958378,5.64781217 6.54429029,5.64781217 C6.58911419,5.64781217 6.79829242,5.58804696 6.84311633,5.57310566 C7.00373533,5.5506937 7.12886873,5.53295091 7.22808831,5.51870998 L7.3586788,5.49982908 C7.39652815,5.49431363 7.42909552,5.48952775 7.45757737,5.48532551 L7.56220661,5.46986257 C7.60950007,5.46291355 7.64247599,5.4582444 7.67982924,5.45357524 L7.70971185,5.48345784 L7.70971185,6.79829242 L7.69477054,6.88794023 C7.3361793,6.96264674 6.6339381,7.11205977 6.33511206,7.11205977 Z M2.04695838,12.9541089 C2.09178228,12.9242263 2.37566702,12.864461 2.43543223,12.8345784 C2.49519744,12.7897545 2.70437567,12.6104589 2.71931697,12.565635 C2.72927784,12.5457133 2.73259813,12.266809 2.73370489,12.0653781 L2.73424962,11.8891952 C2.73425827,11.8771938 2.73425827,11.8683742 2.73425827,11.8633938 L2.7368828,11.8488446 L2.7368828,11.8488446 L2.75572278,11.7614619 C2.76895433,11.7016096 2.78718446,11.6207828 2.80717879,11.5336833 L2.84856141,11.3554767 C2.89037963,11.1776185 2.93062967,11.0138741 2.9434365,10.981857 C2.9434365,10.9220918 3.25720384,10.0704376 3.28708645,10.0256137 C3.29411765,9.97639525 3.38386886,9.69225202 3.48627137,9.38650426 L3.56435054,9.15647572 C3.6556558,8.89116041 3.74323561,8.65013497 3.78014941,8.57630736 C3.81003202,8.51654216 3.89967983,8.15795091 3.92956243,8.0981857 C3.92956243,8.06830309 4.00426894,7.91889007 4.01921025,7.88900747 C4.03415155,7.82924226 4.06403415,7.57524013 4.09391676,7.53041622 C4.30309498,7.06723586 4.33297759,7.00747065 4.33297759,6.87299893 C4.33297759,6.81323372 4.31803629,6.6638207 4.21344717,6.6638207 C4.15766631,6.6638207 4.0335539,6.81675323 3.90640452,6.99354757 L3.79819851,7.14791889 C3.69229456,7.30211313 3.59786553,7.44674493 3.55602988,7.50053362 L2.45037353,8.8303095 L1.53895411,9.98078975 L1.21024546,10.3094984 C1.15048026,10.2796158 0.717182497,10.1152615 0.687299893,10.1152615 C0.59167556,10.1033084 0.553425827,10.1009178 0.373652081,10.1080896 L0.209178228,10.1152615 L0.209178228,10.1152615 L0.164354322,10.2049093 L0.254002134,10.339381 C0.283884739,10.4290288 0.298826041,10.4439701 0.433297759,10.5933831 C0.438278193,10.5983636 0.458199929,10.6431875 0.482548717,10.7018459 L0.534033698,10.8299025 C0.568138398,10.9172958 0.597652081,10.9984584 0.597652081,11.0117396 C0.597652081,11.0715048 0.493062967,11.5645678 0.478121665,11.6392743 L0.478121665,11.6691569 C0.478121665,11.6840982 0.821771612,12.2518677 0.866595518,12.2817503 C1.4493063,12.8345784 1.76307364,12.9541089 2.04695838,12.9541089 Z M27.2154029,13.4471718 C27.2303442,13.4471718 27.5142289,13.4023479 27.5291702,13.4023479 C27.6038768,13.4023479 27.962468,13.4172892 28.0521158,13.4172892 C28.2762353,13.4172892 28.4854136,13.3724653 28.5750614,13.3425827 C28.6497679,13.3276414 28.9784765,13.2977588 29.0531831,13.2828175 C29.1129483,13.2828175 29.3818917,13.1483458 29.4416569,13.1334045 C29.9795438,13.0138741 30.3829589,12.4909285 30.3829589,12.3564568 C30.3829589,12.2817503 30.3231937,12.2219851 30.2933111,12.1771612 C30.2634285,12.072572 30.0990742,11.8484525 30.0691916,11.8185699 C30.039309,11.8036286 29.7703655,11.6691569 29.7106003,11.624333 L29.6807177,11.5197439 C29.4715395,11.2358591 29.4416569,11.1462113 29.1577722,10.2497332 C29.0830657,10.040555 28.9635352,9.78655283 28.7842396,9.62219851 L28.754357,9.6072572 L28.6796505,9.68196371 L28.604944,9.68196371 L28.5302375,11.280683 C28.5152962,11.4599787 28.4854136,11.5944504 28.4256484,11.6392743 C28.261294,11.773746 27.0809312,12.0277481 26.528103,12.0277481 C26.3936313,12.0277481 25.2730336,11.9978655 25.2282097,11.8185699 C25.2162567,11.7707577 25.2138661,11.1491996 25.213388,10.8336393 L25.2132684,10.6680896 L25.2132684,10.6680896 C25.2132684,10.2646745 25.2580923,10.2646745 25.6615075,10.2646745 C25.736214,10.2646745 26.1246879,10.2049093 26.2143357,10.2049093 C26.3189248,10.2049093 26.4533965,10.2796158 26.6028095,10.3842049 C26.6924573,10.4439701 26.8866943,10.5784418 27.0361073,10.5784418 C27.1108138,10.5784418 27.2004616,10.4738527 27.2751681,10.3991462 C27.3349333,10.3244397 27.7831724,9.86125934 27.8429376,9.80149413 C28.0371745,9.65208111 28.3210593,8.24759872 28.3210593,7.87406617 C28.3210593,7.50053362 28.3808245,7.45570971 28.6647092,7.23159018 C28.6945918,7.20170758 28.754357,7.15688367 28.754357,7.08217716 C28.754357,6.87299893 28.4854136,6.51440768 28.3509419,6.36499466 C28.2911766,6.32017076 27.962468,6.09605123 27.9176441,6.02134472 C27.7831724,5.73745998 27.170579,5.49839915 27.0659899,5.49839915 C26.9912834,5.49839915 26.9016356,5.55816435 26.8568117,5.57310566 L26.8418704,5.70757737 C26.7671638,5.79722519 26.7073986,5.81216649 26.6625747,5.81216649 C26.5131617,5.82710779 25.7660966,5.9018143 25.586801,5.9018143 C25.5120945,5.9018143 25.4822119,5.81216649 25.4822119,5.67769477 C25.4822119,5.10992529 25.5120945,5.10992529 25.7063314,5.10992529 C25.8557444,5.08004269 26.1097466,5.05016009 26.2143357,5.05016009 C26.2741009,5.05016009 26.528103,5.24439701 26.5878682,5.27427962 C26.6476334,5.30416222 26.6924573,5.31910352 26.7970464,5.31910352 C26.8568117,5.31910352 26.9614008,5.31910352 27.0510486,5.27427962 C27.1257551,5.24439701 27.2004616,5.10992529 27.2602268,5.06510139 C27.6337594,4.82604055 27.6487007,4.76627535 27.7831724,4.25827108 L28.111881,3.06296692 C28.1268223,3.04802561 28.1268223,3.01814301 28.1268223,2.98826041 C28.1268223,2.88367129 28.1716462,2.65955176 28.2164701,2.56990395 C28.2314114,2.52508004 28.4405897,2.40554963 28.4704723,2.36072572 C28.5750614,2.1963714 28.5900027,2.1963714 28.6945918,2.13660619 C28.7095331,2.07684098 28.7244744,2.00213447 28.7244744,1.95731057 C28.7244744,1.74813234 28.4107071,1.4642476 28.261294,1.35965848 L27.2004616,0.657417289 C27.1257551,0.657417289 26.7821051,0.582710779 26.7073986,0.582710779 C26.6177508,0.567769477 26.4683378,0.567769477 26.3637487,0.567769477 C26.3338661,0.567769477 26.2741009,0.597652081 26.2442183,0.597652081 C26.2741009,0.672358591 26.2741009,0.702241195 26.2591596,0.762006403 L24.8397359,0.866595518 L23.3306644,1.01600854 C23.2559579,1.03094984 22.5985406,1.22518677 22.4640689,1.22518677 C22.374421,1.22518677 21.9411233,1.07577375 21.8365342,1.07577375 C21.8215929,1.07577375 21.0446452,1.12059765 20.9998213,1.13553895 L21.0147626,1.18036286 C21.0595865,1.21024546 21.2388821,1.38954109 21.2687647,1.43436499 C21.5974733,1.59871932 21.6124146,1.65848453 21.7618277,2.12166489 C21.8215929,2.33084312 21.8813581,3.42155816 21.8813581,3.76520811 C21.8813581,3.82497332 21.9710059,4.31803629 21.9859472,4.4226254 C22.0606537,4.85592316 22.8973666,5.61792956 23.211134,5.61792956 C23.2410166,5.61792956 23.2708992,5.60298826 23.2858405,5.60298826 C23.3157231,5.58804696 23.4352535,5.48345784 23.4800774,5.45357524 C23.5398426,5.46851654 23.5846665,5.46851654 23.6892556,5.49839915 C23.7639621,5.49839915 23.9731404,5.45357524 24.0179643,5.45357524 C24.0179643,5.54322305 24.0478469,5.78228388 24.0478469,5.886873 C24.0478469,5.94663821 24.0179643,6.03628602 24.003023,6.09605123 C23.8984339,6.11099253 23.5398426,6.17075774 23.4053709,6.18569904 C23.3306644,6.20064034 22.9870144,6.29028815 22.8973666,6.30522946 L21.8664168,6.39487727 C21.8215929,6.40981857 21.5526494,6.45464248 21.4928842,6.45464248 C21.2239408,6.45464248 21.2089995,6.40981857 21.0745278,6.09605123 C21.0595865,6.03628602 20.7009952,5.63287086 20.6561713,5.58804696 C20.3573453,5.43863394 20.3274627,5.42369264 20.2378149,5.34898613 C20.2676975,5.30416222 20.4171105,5.09498399 20.4619344,5.05016009 L20.940056,4.4226254 L20.940056,4.4226254 C20.9699387,4.3927428 21.0894691,4.13874066 21.1193517,4.09391676 C21.1641756,4.03415155 21.4480603,3.73532551 21.5078255,3.660619 C21.5227668,3.63073639 21.7319451,3.46638207 21.7319451,3.42155816 L21.7319451,3.37673426 C21.7170038,3.27214514 21.433119,2.9135539 21.3733538,2.82390608 C21.3434712,2.77908218 21.1193517,2.62966916 21.0745278,2.58484525 C20.7607604,2.33084312 20.64123,2.226254 19.9838127,2.07684098 C19.998754,2.15154749 20.1182844,2.46531483 20.1182844,2.55496265 C20.1182844,2.59978655 19.8194584,3.31696905 19.8045171,3.34685165 L19.3263954,4.27321238 L19.206865,4.52721451 C19.1919237,4.55709712 19.1769824,4.55709712 19.1470998,4.55709712 C19.0873346,4.55709712 18.6092129,4.452508 18.6092129,4.34791889 C18.6092129,4.31803629 19.4758085,2.48025614 19.5355737,2.34578442 C19.5654563,2.28601921 19.8343997,2.13660619 19.8941649,2.10672359 C19.9389888,1.97225187 19.9389888,1.92742796 19.9389888,1.88260406 C19.9389888,1.71824973 19.5206324,1.25506937 19.3712193,1.12059765 C18.5942716,0.493062967 18.265563,0.478121665 17.7276761,0.478121665 C17.6828522,0.478121665 17.6529696,0.508004269 17.6529696,0.537886873 C17.6529696,0.567769477 17.6828522,0.597652081 17.6977935,0.612593383 C17.7276761,0.732123799 17.7426174,0.747065101 17.9368543,0.911419424 C17.9816782,0.986125934 18.0862674,1.10565635 18.1460326,1.16542156 C18.1310913,1.31483458 18.0265022,1.80789755 17.9966196,1.91248666 L17.4139088,3.660619 C17.3840262,3.76520811 17.1897892,4.16862327 17.130024,4.21344717 C16.9357871,4.25827108 16.7863741,4.25827108 16.7714328,4.25827108 C16.6967263,4.25827108 16.532372,4.24332978 16.4726067,4.22838847 C16.4726067,4.27321238 16.4726067,4.27321238 16.4128415,4.33297759 C16.3979002,4.34791889 16.3680176,4.57203842 16.3680176,4.60192102 C16.3680176,4.69156884 16.6220198,5.10992529 16.6369611,5.1248666 L16.6369611,5.1696905 C16.6369611,5.21451441 16.7116676,5.55816435 17.0104936,5.55816435 C17.0403762,5.58804696 17.1001414,5.63287086 17.1897892,5.63287086 C17.2346131,5.63287086 17.2644958,5.61792956 17.3840262,5.57310566 C17.6828522,5.60298826 18.2356804,5.66275347 18.4299173,5.75240128 C18.2805043,6.15581644 17.2047305,7.3959445 17.1748479,7.41088581 L17.1599066,7.3959445 C16.7116676,7.56029883 16.6369611,7.59018143 16.2186046,7.59018143 C16.1588394,7.59018143 16.1438981,7.59018143 16.0542503,7.56029883 C16.0243677,7.57524013 15.9646025,7.64994664 15.9646025,7.70971185 C15.9646025,7.73959445 16.3082524,8.18783351 16.6220198,8.39701174 C16.6220198,8.41195304 16.7266089,8.48665955 16.7415502,8.50160085 C16.7714328,8.54642476 16.9208458,8.75560299 16.9507284,8.78548559 C16.9507284,8.80042689 17.324261,8.96478122 17.4288501,8.96478122 C17.473674,8.96478122 18.265563,8.59124867 18.4000347,8.45677695 C18.5345064,8.30736393 18.5345064,8.30736393 18.6689781,8.27748132 C18.7287433,8.44183565 18.7885086,8.60618997 18.7885086,8.97972252 C18.7885086,9.06937033 18.7287433,9.47278549 18.713802,9.5624333 L18.6540368,10.6531483 C18.6540368,10.7129136 18.5494477,11.5048026 18.5046238,11.5944504 L18.3850934,11.5795091 C18.4000347,12.0576307 18.7735673,13.3276414 19.3263954,13.3276414 C19.5355737,13.3276414 19.7895758,13.208111 19.8792236,12.9839915 C20.0585192,12.5357524 20.1182844,11.923159 20.1182844,11.47492 C20.1182844,11.4151547 20.0734605,11.0864461 20.0734605,11.0266809 C20.0734605,10.9220918 20.1182844,10.4738527 20.1033431,10.3692636 L20.1332257,10.339381 C20.2228736,10.4290288 20.5814648,10.9519744 20.6262887,10.9967983 C21.0147626,11.3553895 21.2089995,11.5496265 21.582532,11.5496265 C21.5974733,11.5496265 22.0307711,11.3553895 22.0457124,11.3553895 C22.225008,11.13127 22.2548906,11.1013874 22.2399493,10.9071505 L22.1652428,10.8623266 C22.1054776,10.7577375 21.9411233,10.2497332 21.8514755,10.1600854 C21.1044104,9.44290288 20.5665235,9.35325507 20.1033431,9.27854856 C20.1033431,9.26360726 20.0286366,8.71077908 20.0136953,8.68089648 C19.9964554,8.6521632 19.9129078,8.56375313 19.8081079,8.45732101 L19.6062473,8.25527679 C19.4921643,8.14221391 19.383862,8.03612183 19.3263954,7.97865528 L19.3413367,7.94877268 C19.4309845,7.90394877 20.1182844,7.59018143 20.1929909,7.57524013 C20.2228736,7.62006403 20.3872279,7.79935966 20.4320518,7.82924226 C20.491817,7.88900747 20.8952321,7.93383138 20.9101734,7.93383138 C20.940056,7.93383138 21.0147626,7.90394877 21.0446452,7.87406617 L21.2538234,7.53041622 C21.2538234,7.51547492 21.3285299,7.27641409 21.3285299,7.11205977 C21.3285299,7.03735326 21.3135886,6.99252935 21.283706,6.87299893 L21.3285299,6.88794023 C21.3882951,6.97758805 21.433119,7.03735326 21.4928842,7.3810032 C21.5078255,7.47065101 21.5227668,7.90394877 21.5377081,8.00853789 L21.7170038,8.96478122 C21.8664168,9.72678762 21.8813581,9.74172892 21.9560646,9.86125934 C22.1801841,10.1600854 22.374421,10.2646745 22.8824253,10.5485592 C22.9123079,10.5186766 22.9571318,10.4589114 22.9870144,10.4589114 C23.0766622,10.4589114 23.3007818,10.6232657 23.3754883,10.6232657 C23.3904296,10.6232657 23.7789034,10.5485592 23.8237273,10.5485592 C23.9133752,10.5485592 23.9432578,10.6083244 23.9432578,10.6680896 C23.9432578,10.7278549 23.9133752,11.0117396 23.9133752,11.0416222 C23.9133752,11.13127 23.9731404,11.5346852 23.9731404,11.6392743 C23.9731404,11.7139808 23.9581991,11.8484525 23.9581991,11.9082177 C23.9432578,12.2219851 24.301849,13.1782284 25.5569184,13.2977588 L26.6924573,13.4023479 C26.7821051,13.4023479 27.1556377,13.4471718 27.2154029,13.4471718 Z M26.3338661,2.61472785 L25.9902161,2.51013874 L25.736214,2.45037353 C25.7212727,2.42049093 25.6764488,2.2411953 25.6615075,2.1963714 C25.6465662,2.15154749 25.5270358,2.03201708 25.4224467,1.94236926 C25.3776228,1.91248666 25.0638554,1.83778015 25.0638554,1.77801494 C25.0638554,1.70330843 25.2730336,1.70330843 25.3029162,1.70330843 C25.4523293,1.70330843 26.1545705,1.59871932 26.3039835,1.59871932 C26.3338661,1.59871932 26.3637487,1.61366062 26.37869,1.64354322 C26.37869,1.67342583 26.3936313,2.31590181 26.3936313,2.36072572 C26.3936313,2.46531483 26.37869,2.51013874 26.3338661,2.61472785 Z M23.3157231,2.88367129 C23.3007818,2.80896478 23.3007818,2.42049093 23.2708992,2.34578442 C23.2559579,2.2411953 23.2260753,2.15154749 23.2260753,2.13660619 L23.234376,2.09178228 L23.234376,2.09178228 L23.2708992,2.00213447 L23.2708992,2.00213447 C23.3306644,2.00213447 23.5697252,2.03201708 23.6294904,2.03201708 C23.6743143,2.03201708 23.9283165,1.95731057 23.9880817,1.94236926 C24.0478469,2.06189968 24.0627882,2.48025614 24.0627882,2.61472785 C24.0627882,2.74919957 24.0179643,2.77908218 23.9731404,2.79402348 C23.9283165,2.80896478 23.659373,2.88367129 23.3157231,2.88367129 Z M26.2741009,4.27321238 C26.1695118,4.27321238 25.6615075,4.24332978 25.5569184,4.24332978 C25.5270358,4.15368196 25.4971532,4.04909285 25.4971532,3.86979723 C25.4971532,3.6755603 25.5120945,3.63073639 25.6017423,3.49626467 L26.2890422,3.43649947 C26.3039835,3.57097118 26.3189248,3.660619 26.3189248,3.660619 C26.3189248,3.75026681 26.2741009,4.16862327 26.2741009,4.27321238 Z M23.360547,4.57203842 L23.3007818,4.19850587 L23.3007818,3.82497332 C23.360547,3.79509072 23.9432578,3.73532551 24.003023,3.73532551 C24.0478469,3.94450374 24.0627882,4.03415155 24.0329056,4.4375667 C23.8984339,4.51227321 23.8536099,4.52721451 23.360547,4.57203842 Z M19.0873346,6.96264674 L19.0723933,6.94770544 C19.1620411,6.73852721 19.5355737,6.15581644 19.6700454,5.97652081 C19.8194584,6.15581644 20.0286366,6.48452508 20.0286366,6.67876201 C20.0286366,6.76840982 19.9688714,6.78335112 19.8194584,6.79829242 C19.7596932,6.79829242 19.1919237,6.93276414 19.0873346,6.96264674 Z M26.5430443,7.64994664 C26.4235139,7.63500534 26.4085726,7.62006403 26.2741009,7.57524013 C25.9902161,7.48559232 25.9453922,7.48559232 25.5419771,7.45570971 C25.437388,7.44076841 25.437388,7.3810032 25.437388,7.20170758 C25.437388,7.15688367 25.437388,6.96264674 25.4971532,6.85805763 C25.5120945,6.81323372 26.1545705,6.73852721 26.5579856,6.73852721 C26.5729269,6.84311633 26.5878682,6.87299893 26.5878682,6.96264674 C26.5878682,7.14194237 26.5878682,7.47065101 26.5430443,7.64994664 Z M22.9421905,7.99359658 C22.867484,7.99359658 22.7628949,7.45570971 22.7628949,7.3810032 C22.8376014,7.3660619 23.1214861,7.21664888 23.1961927,7.18676628 C23.5249013,7.08217716 23.7789034,7.08217716 23.9432578,7.08217716 C23.9581991,7.21664888 23.9731404,7.26147279 23.9731404,7.3959445 L23.9727051,7.55203588 C23.9703112,7.79785669 23.9547511,7.83383959 23.8536099,7.85912487 C23.7938447,7.87406617 22.9720731,7.99359658 22.9421905,7.99359658 Z M25.4672706,9.26360726 C25.4523293,9.26360726 25.3626814,9.24866596 25.3327988,9.23372465 L25.3327988,8.89007471 C25.3327988,8.8153682 25.3327988,8.65101387 25.437388,8.63607257 C25.586801,8.62113127 26.3189248,8.56136606 26.4982204,8.54642476 C26.4982204,8.74066169 26.4832791,9.05442903 26.4384552,9.17395945 C26.4145491,9.22177161 26.3810806,9.23133404 26.1238511,9.23324653 L25.885627,9.23372465 L25.885627,9.23372465 C25.8557444,9.23372465 25.4822119,9.26360726 25.4672706,9.26360726 Z M23.2410166,9.5773746 C23.1961927,9.547492 23.1065448,9.26360726 23.0766622,9.18890075 L23.0617209,8.90501601 L23.0766622,8.8303095 C23.1065448,8.8601921 23.2858405,8.97972252 23.3456057,8.97972252 L23.8834925,8.80042689 C23.9283165,8.91995731 23.9432578,8.99466382 23.9432578,9.12913554 C23.9432578,9.23372465 23.9283165,9.30843116 23.9133752,9.44290288 L23.8237273,9.45784418 L23.2410166,9.5773746 Z M16.3979002,11.7139808 C16.4726067,11.6990395 16.8013154,11.5645678 16.8909632,11.5496265 C17.324261,11.4002134 17.5633218,11.3255069 18.0713261,10.8175027 C18.11615,10.7726788 18.2506217,10.4738527 18.2954456,10.4140875 C18.4747412,10.1451441 18.5046238,10.1152615 18.5046238,10.0853789 C18.5046238,9.99573106 18.4597999,9.92102455 18.3850934,9.80149413 C18.11615,9.62219851 18.0862674,9.5923159 17.8920304,9.41302028 C17.8770891,9.39807898 17.7874413,9.38313767 17.7575587,9.36819637 C17.1001414,8.97972252 17.0254349,8.93489861 16.6070785,8.8601921 C16.6220198,8.91995731 16.6369611,8.99466382 16.6519024,9.02454642 C16.6967263,9.12913554 17.0403762,9.53255069 17.0403762,9.63713981 C17.0403762,9.75667022 16.8461393,10.1003202 16.7564915,10.2198506 L15.889896,11.2358591 C15.8600134,11.2657417 15.5313047,11.47492 15.4565982,11.5197439 C15.7168259,11.7251868 16.0147181,11.742307 16.1201027,11.7437337 L16.1438981,11.7438634 C16.2186046,11.7438634 16.3082524,11.7438634 16.3979002,11.7139808 Z M39.6994684,12.1622199 C41.5970137,11.4898613 43.6290308,9.84631804 43.6290308,6.93276414 C43.6290308,4.55709712 41.9257224,2.25613661 38.294986,2.25613661 C33.1252955,2.25613661 31.4070458,7.17182497 33.0655303,9.66702241 C33.7827128,10.7278549 34.8883691,11.5048026 35.7848473,10.7726788 C37.0548579,9.72678762 38.6685185,7.00747065 39.086875,5.46851654 C39.2213467,5.00533618 38.9673446,4.54215582 38.6087533,4.24332978 C40.7304182,4.48239061 41.4924246,5.96157951 41.2832464,7.51547492 C41.0740682,8.94983991 39.6845271,10.3094984 38.3995751,10.8922092 C37.1743883,11.4599787 37.5927448,12.9242263 39.6994684,12.1622199 Z M34.8435452,8.51654216 C34.0068323,7.96371398 34.2608344,4.70651014 37.2789775,4.25827108 L37.2341536,4.4076841 C36.7709732,6.54429029 35.2917843,8.8303095 34.8435452,8.51654216 Z M50.2042045,12.4311633 C54.1785909,10.3991462 55.3589537,7.03735326 56.1956667,4.13874066 C56.5841405,2.79402348 55.5531907,1.83778015 54.3578865,1.83778015 C53.7452931,1.83778015 52.5798716,2.56990395 52.9085802,2.74919957 C53.2372889,2.9284952 53.8797648,3.04802561 53.7154105,3.6905016 C52.5649303,8.23265742 50.4283241,10.1003202 48.2319527,11.5048026 C47.0217072,12.266809 48.4560722,13.3276414 50.2042045,12.4311633 Z M51.1753892,5.64781217 C51.5379648,4.89477054 51.1065928,5.18297166 50.6101431,5.60132812 L50.5030306,5.69263607 L50.5030306,5.69263607 C50.1743219,5.97652081 49.2330199,3.95944504 49.188196,3.21237994 C49.1284308,2.42049093 46.5585269,2.03201708 46.7079399,3.24226254 C46.7975877,3.98932764 47.5446528,6.32017076 48.4112483,7.02241195 C49.6065525,7.97865528 50.7869153,6.48452508 51.1753892,5.64781217 Z M65.5420587,2.9434365 C65.5121761,2.30096051 64.9892305,1.29989328 64.5559328,0.851654216 C63.9283981,0.209178228 61.8814397,0.747065101 62.538857,1.62860192 C63.0020374,2.2411953 63.3606286,3.07790822 63.03192,3.13767343 C62.389444,3.24226254 62.8675657,3.49626467 63.7640438,3.76520811 C64.5708741,4.00426894 65.5719413,3.57097118 65.5420587,2.9434365 Z M62.9572135,13.1334045 C66.6626564,11.0117396 68.7096148,7.63500534 69.0233821,6.30522946 C69.217619,5.48345784 68.4107887,4.24332978 67.4545454,4.15368196 C66.4086542,4.06403415 63.8387503,4.15368196 62.6135635,4.3927428 C61.8366158,4.54215582 61.3734355,5.30416222 61.1493159,5.886873 C61.0746094,5.48345784 61.0447268,5.1547492 61.0746094,4.96051227 C61.1941398,4.34791889 59.7747161,3.31696905 59.4609488,4.37780149 C59.1920054,5.27427962 59.1023575,8.20277481 59.6850683,8.99466382 C60.2677791,9.77161153 61.8664984,9.42796158 61.7170854,8.60618997 C61.7320267,8.06830309 62.2997962,6.94770544 62.8974483,6.81323372 C64.0927524,6.54429029 64.2122828,6.57417289 65.0489958,6.42475987 C65.4524109,6.35005336 66.4086542,6.18569904 66.1845347,6.6488794 C65.5121761,8.0832444 63.6146308,10.3543223 61.2389637,11.9082177 C59.6850683,12.9391676 61.7768506,13.8057631 62.9572135,13.1334045 Z M78.9438347,11.1013874 C80.2885519,10.2646745 81.8424473,8.89007471 82.8883384,7.64994664 C84.0089361,6.32017076 83.1423406,4.52721451 81.976919,5.64781217 C81.8559238,5.76470588 81.7104399,5.91059181 81.5494693,6.07187072 L81.3346822,6.28664066 C81.2114024,6.40947999 81.0821896,6.53719928 80.9503241,6.66484254 L80.7910223,6.81766078 L80.7910223,6.81766078 L80.6304338,6.96850293 C79.7727696,7.76434152 78.9139521,8.39466801 78.9139521,7.56029883 C78.9139521,6.32017076 78.8990108,5.34898613 78.9139521,4.06403415 C78.9288934,3.01814301 76.5084025,2.07684098 76.5084025,3.79509072 L76.5084025,9.84631804 C76.5084025,10.7726788 78.0772392,11.6392743 78.9438347,11.1013874 Z M73.1615508,10.7577375 C74.2223833,9.39807898 75.641807,6.21558164 75.5222765,4.94557097 C75.4027461,3.660619 72.9673139,3.98932764 72.9075487,4.4375667 C72.8477835,4.88580576 73.1764921,4.82604055 73.1316682,5.22945571 C73.0270791,6.24546425 71.8765988,9.18890075 71.0847098,10.1451441 C70.2928208,11.1013874 72.1156597,12.1024546 73.1615508,10.7577375 Z M95.8247894,12.6851654 C96.3327936,12.2966916 96.9752696,11.7438634 97.3936261,10.7129136 C102.398962,10.3842049 102.83226,3.15261473 97.7970412,2.9135539 L97.7073934,2.37566702 C97.4683326,1.15048026 96.0638502,0.597652081 94.8087808,1.92742796 C94.3007766,2.48025614 93.7180658,3.37673426 93.434181,4.73639274 C92.7020572,5.58804696 92.2837008,6.57417289 92.0147573,7.32123799 C91.9400508,5.75240128 92.2089943,5.09498399 92.3135834,3.92956243 C92.3882899,2.9284952 90.565451,2.51013874 90.3861554,3.58591249 C89.9080338,6.69370331 90.416038,9.06937033 90.9838075,10.3692636 C91.4469879,11.4002134 93.0905311,10.1152615 92.985942,9.30843116 C92.9411181,9.02454642 93.0307659,8.29242263 93.3744158,7.50053362 C93.628418,9.03948773 94.4053657,10.0256137 95.4363155,10.4589114 C95.1374895,11.3255069 94.7938395,11.6990395 94.2708939,12.2369264 C93.3295919,13.2529349 95.0329004,13.2678762 95.8247894,12.6851654 Z M94.1364222,4.04909285 C94.3456005,3.25720384 94.6444265,2.62966916 94.9133699,2.36072572 C95.2271373,2.04695838 95.4512568,2.1963714 95.6156111,2.76414088 C95.660435,2.88367129 95.6903176,3.03308431 95.7351415,3.18249733 C95.1076069,3.39167556 94.5846613,3.6905016 94.1364222,4.04909285 Z M95.8098481,9.03948773 C94.8984286,8.8751334 94.0019505,8.26254002 93.8824201,6.57417289 C94.3456005,5.886873 95.0329004,5.28922092 96.0190263,5.03521878 C96.1086741,6.20064034 96.0937328,7.60512273 95.8098481,9.03948773 Z M97.8418651,8.8303095 C98.0211608,7.59018143 98.0659847,6.29028815 98.0062195,5.03521878 C99.9187061,5.63287086 99.8290583,8.02347919 97.8418651,8.8303095 Z M112.155847,11.47492 C113.410916,10.6830309 112.783382,8.69583778 111.558195,9.44290288 C110.945601,9.81643543 109.21241,10.5485592 108.136637,10.6232657 C107.419454,10.6680896 107.001098,10.1750267 106.986156,9.50266809 C106.941333,6.93276414 107.210276,4.73639274 107.359689,3.12273212 C107.509102,1.16542156 104.461076,1.04589114 104.759902,2.12166489 C104.864492,2.48025614 104.939198,2.86872999 104.939198,3.30202775 C104.934046,4.17789718 104.893361,4.91874414 104.848389,5.64893143 L104.82114,6.08675955 C104.743895,7.32928604 104.672315,8.61288779 104.759902,10.5485592 C104.834609,11.9679829 105.731087,12.8046958 107.210276,12.9242263 C109.09288,13.0885806 110.751365,12.3863394 112.155847,11.47492 Z M125.451723,3.28708645 C125.317251,3.00320171 125.347134,2.64461046 125.272428,2.34578442 C125.631019,2.70437567 125.840197,2.9733191 126.10914,3.42155816 C126.303377,3.75026681 127.394092,3.33191035 126.990677,2.40554963 C126.602203,1.4791889 125.840197,1.21024546 125.347134,1.07577375 C124.913836,0.971184632 124.390891,1.16542156 124.390891,1.5090715 C124.405832,1.79295624 124.600069,2.2113127 124.420773,2.09178228 C124.032299,1.80789755 123.68865,1.58377801 123.389823,1.56883671 C122.77723,1.55389541 122.358874,1.95731057 122.881819,2.36072572 C123.793239,3.06296692 123.972534,3.6755603 124.256419,4.27321238 C124.49548,4.79615795 125.87008,4.19850587 125.451723,3.28708645 Z M122.448521,13.0138741 C125.003484,12.5357524 123.882886,9.83137673 122.702524,10.5336179 C121.522161,11.2508004 119.026963,11.2508004 118.892492,9.89114194 C118.772961,8.54642476 122.269226,7.26147279 123.539236,6.72358591 C124.988543,6.12593383 123.882886,3.97438634 122.6577,4.00426894 C122.060048,4.01921025 122.582993,4.30309498 121.791104,4.76627535 C121.74628,4.79242263 121.675309,4.83070971 121.58286,4.88020277 L121.428661,4.96273012 C121.146761,5.11389408 120.745213,5.33217716 120.296974,5.60298826 C119.9085,4.52721451 120.192385,3.01814301 120.117678,2.06189968 C120.013089,0.911419424 117.60754,1.12059765 117.816718,2.54002134 C117.95119,3.43649947 117.996013,5.81216649 118.578724,6.79829242 C117.353537,7.82924226 116.322588,9.15901814 116.666238,10.638207 C117.293772,13.4172892 120.491211,13.3874066 122.448521,13.0138741 Z M133.901637,3.54108858 C134.753291,3.51120598 135.410709,2.04695838 134.424583,1.28495197 C133.841872,0.836712914 132.915511,0.522945571 131.944327,0.478121665 C130.689257,0.403415155 130.091605,1.92742796 130.883494,2.226254 C131.824796,2.56990395 132.273035,2.65955176 132.497155,2.9583778 C132.810922,3.39167556 130.898435,3.61579509 131.107614,4.03415155 C131.227144,4.28815368 132.437389,3.61579509 133.901637,3.54108858 Z M133.333868,13.0288154 C134.290111,12.266809 135.844006,10.6232657 136.142832,7.84418356 C136.680719,2.80896478 131.197261,4.94557097 129.957133,5.37886873 C128.209001,6.02134472 129.792779,8.18783351 130.644433,7.63500534 C131.720207,6.94770544 133.961402,6.21558164 133.871754,7.66488794 C133.767165,9.30843116 133.035042,10.638207 131.511029,12.2070438 C130.300783,13.4322305 132.347742,13.8207044 133.333868,13.0288154 Z M146.765526,10.832444 C146.944822,9.99573106 146.840233,9.29348986 146.601172,8.69583778 C147.572357,8.8452508 148.229774,9.53255069 148.603306,10.5037353 C148.678843,10.6979723 148.528369,10.7908942 148.36929,10.854266 L148.29605,10.8816776 C148.043111,10.9721036 147.854996,11.0142298 148.64813,11.3105656 C149.664139,11.6840982 151.038739,11.1760939 150.635323,9.80149413 C150.231908,8.45677695 149.051545,6.40981857 145.301279,6.94770544 C144.643861,6.35005336 144.031268,5.99146211 144.120916,5.79722519 C144.479507,5.02027748 146.645996,5.64781217 147.064352,4.16862327 C147.452826,2.83884739 145.226572,2.09178228 143.986444,1.19530416 C143.269262,0.672358591 142.925612,1.77801494 143.239379,2.52508004 C143.433616,3.00320171 143.986444,3.7054429 144.105974,3.81003202 C144.524331,4.13874066 142.79114,4.24332978 142.596903,5.63287086 C142.522196,6.26040555 142.940553,6.88794023 143.403733,7.57524013 C143.151089,7.69952459 142.894278,7.83658943 142.639323,7.97957719 L142.38521,8.12428527 C140.866922,9.00133184 139.487754,10.0093141 139.548877,9.66702241 C139.772997,8.41195304 138.682282,9.87620064 138.532869,10.4439701 C138.308749,11.2209178 138.756988,12.4909285 139.832762,12.1024546 C140.430414,11.8932764 141.043008,11.47492 141.655601,11.0117396 C143.329027,12.0277481 142.387725,12.4461046 143.553146,12.5805763 C144.62892,12.715048 146.4667,12.1771612 146.765526,10.832444 Z M142.806081,11.13127 C142.701492,11.1013874 142.238312,10.9669157 141.849838,10.8772679 C142.626786,10.2796158 143.433616,9.6072572 144.28527,9.17395945 C144.4048,9.53255069 144.449624,9.90608324 144.389859,10.3094984 C144.315153,10.8025614 143.463498,11.2956243 142.806081,11.13127 Z" id="沖縄のソウルゆしどうふ"></path>
                </g>
            </g>
        </g>
    </g>
</svg>