<?xml version="1.0" encoding="UTF-8"?>
<svg width="115px" height="19px" viewBox="0 0 115 19" version="1.1" xmlns="http://www.w3.org/2000/svg" xmlns:xlink="http://www.w3.org/1999/xlink">
    <title>nav-soymilk</title>
    <defs>
        <polygon id="path-1" points="-8.99827978e-16 0.033187203 8.0510954 0.033187203 8.0510954 10.5215224 -8.99827978e-16 10.5215224"></polygon>
        <polygon id="path-3" points="0 0.0530765755 7.62735354 0.0530765755 7.62735354 10.7814679 0 10.7814679"></polygon>
    </defs>
    <g id="Symbols" stroke="none" stroke-width="1" fill="none" fill-rule="evenodd">
        <g id="contents/header-1440" transform="translate(-1168.000000, -152.000000)">
            <g id="Group-6" transform="translate(1168.000000, 154.000000)">
                <polygon id="Line-8" fill="#C9A063" fill-rule="nonzero" opacity="0.600000024" points="0 17 115 17 115 16 0 16"></polygon>
                <g id="Group-14" transform="translate(2.000000, 0.000000)">
                    <g id="Group-5" transform="translate(0.000000, -0.000000)">
                        <g id="Group-3">
                            <mask id="mask-2" fill="white">
                                <use xlink:href="#path-1"></use>
                            </mask>
                            <g id="Clip-2"></g>
                            <path d="M2.2564453,1.97388603 C2.18072032,1.97388603 2.11870932,2.03388564 2.11870932,2.10715439 L2.11870932,4.21983286 C2.11870932,4.29367853 2.18072032,4.35310122 2.2564453,4.35310122 L4.69335852,4.35310122 C5.0350153,4.35310122 5.32956757,4.23310201 5.57045647,3.99598817 C5.81015286,3.75887434 5.93238609,3.47849156 5.93238609,3.16349363 C5.93238609,2.84791877 5.81015286,2.56811291 5.56986021,2.331576 C5.32956757,2.09388525 5.03441904,1.97388603 4.69335852,1.97388603 L2.2564453,1.97388603 Z M2.2564453,6.29385774 C2.18072032,6.29385774 2.11870932,6.35328043 2.11870932,6.4271261 L2.11870932,8.52134315 C2.11870932,8.59518882 2.18072032,8.65461151 2.2564453,8.65461151 L4.67427821,8.65461151 C5.01593499,8.65461151 5.31406482,8.52711235 5.56032006,8.27615245 C5.80717156,8.02576948 5.93238609,7.73730983 5.93238609,7.41885037 C5.93238609,7.14942906 5.84890973,6.89212305 5.68434207,6.65327846 C5.52037066,6.41501079 5.29617703,6.29385774 5.01772377,6.29385774 L2.2564453,6.29385774 Z M0.228441843,10.5215224 C0.184055474,10.5215224 0.142036379,10.5047917 0.110670012,10.4736381 L0.0491209143,10.4136385 C0.0177545473,10.3836387 0,10.3421005 0,10.2988315 L0,0.25582036 C0,0.212551413 0.0177545473,0.171013223 0.0491209143,0.14101342 L0.110670012,0.0810138129 C0.142036379,0.05043709 0.184055474,0.033129511 0.228441843,0.033129511 L4.83042051,0.033129511 C5.27132511,0.033129511 5.69210788,0.116782809 6.08093247,0.282358648 C6.46916523,0.447357568 6.81360345,0.674086852 7.10418621,0.956200389 C7.39417715,1.23946776 7.62676172,1.57177328 7.79542992,1.94446315 C7.96528176,2.31830685 8.0510954,2.72503496 8.0510954,3.15426292 C8.0510954,3.57079865 7.97179176,3.96887297 7.81436811,4.33637056 C7.67292354,4.6663684 7.48117443,4.96636644 7.2432635,5.2282878 C7.19828531,5.27732594 7.19769349,5.35232545 7.24148804,5.40251743 C7.46815443,5.66213111 7.65457718,5.9517446 7.79602174,6.26443486 C7.95285357,6.61347103 8.03215722,7.00173772 8.03215722,7.41885037 C8.03215722,7.84807833 7.94634357,8.25538336 7.77649174,8.62865014 C7.60723172,9.00191693 7.37464715,9.33422245 7.08524803,9.6169129 C6.79466527,9.89902644 6.45377796,10.1228711 6.07146337,10.2815239 C5.68796515,10.4407537 5.27073329,10.5215224 4.83042051,10.5215224 L0.228441843,10.5215224 Z" id="Fill-1" fill="#512800" mask="url(#mask-2)"></path>
                        </g>
                        <path d="M13.126843,4.98298171 C12.9820836,4.98298171 12.8218757,5.00202005 12.6507964,5.03894288 C12.4808615,5.07586572 12.3206535,5.14048068 12.1753219,5.23221085 C12.0299904,5.32451794 11.9029683,5.44567099 11.8005497,5.59220849 C11.7221622,5.70355392 11.6723833,5.83912995 11.6540738,5.99432124 C11.6489242,6.03239792 11.6609398,6.07047459 11.6861154,6.09932055 C11.7112909,6.1275896 11.7473377,6.14374334 11.785101,6.14374334 L14.4868945,6.14374334 C14.5246578,6.14374334 14.5607046,6.1275896 14.5858802,6.09932055 C14.6110557,6.07047459 14.6230713,6.03239792 14.6179218,5.99432124 C14.5996123,5.83912995 14.5504055,5.70413083 14.472018,5.59220849 C14.3690272,5.44567099 14.2397164,5.32451794 14.0875188,5.23278777 C13.9358934,5.14048068 13.7699637,5.0752888 13.5937349,5.03836596 C13.4169339,5.00202005 13.260159,4.98298171 13.126843,4.98298171 M13.4244213,10.6137141 C12.8935126,10.6137141 12.3864453,10.542753 11.9171755,10.4019847 C11.4473242,10.2606395 11.0309708,10.0339102 10.6785823,9.72756602 C10.3261938,9.42064496 10.0447482,9.02891675 9.84122348,8.5639198 C9.63769878,8.09834592 9.53419192,7.53296501 9.53419192,6.88335388 C9.53419192,6.36701111 9.60280883,5.87316819 9.73887963,5.41509427 C9.87495044,4.95528958 10.0912681,4.54509996 10.3808547,4.19664071 C10.6704413,3.84760453 11.0460898,3.56491407 11.4979146,3.35606929 C11.949158,3.14780142 12.4969302,3.04222519 13.1266938,3.04222519 C13.6325981,3.04222519 14.1117534,3.12299389 14.5502037,3.28222362 C14.9886541,3.44145334 15.3741881,3.68087485 15.6957571,3.99356511 C16.0161631,4.30510153 16.2731858,4.69336822 16.458684,5.14740371 C16.6436007,5.60028536 16.7378036,6.12816652 16.7378036,6.71720112 L16.7378036,6.86489246 C16.7238476,6.96931486 16.7191956,7.00854537 16.7191956,7.05873735 L16.7191956,7.23412081 C16.7191956,7.27796668 16.7017507,7.31892795 16.6709312,7.34950467 L16.6104553,7.40950428 C16.5796358,7.440081 16.5383494,7.45681166 16.4947369,7.45681166 L11.7968052,7.45681166 C11.7601707,7.45681166 11.7241178,7.47238849 11.6985318,7.49950369 C11.6735274,7.5266189 11.6607344,7.56296482 11.6630604,7.59988765 C11.6810868,7.83988608 11.7450518,8.03950016 11.8532106,8.19353761 C11.9823034,8.37699795 12.1422157,8.52295853 12.3271324,8.626804 C12.5126307,8.7312264 12.7068514,8.79930287 12.9039796,8.82930268 C13.0993633,8.86045632 13.2679981,8.87603314 13.4058134,8.87603314 C13.6796995,8.87603314 13.9954535,8.83564879 14.345516,8.75603393 C14.6967415,8.67699598 14.9752796,8.54949682 15.1729893,8.37815178 C15.3166196,8.28353702 15.4026815,8.26680636 15.4526904,8.26680636 C15.5102589,8.26680636 15.5631753,8.29680616 15.5928317,8.34526738 L16.14293,9.24641533 C16.1592119,9.26603059 16.1824719,9.30583802 16.1882869,9.33064555 C16.1923574,9.35141464 16.1981724,9.38545288 16.1981724,9.4310295 C16.1981724,9.51699048 16.1795644,9.5862208 16.14293,9.63468202 C15.8196164,10.0408332 15.406752,10.3073699 14.9130592,10.4290999 C14.4193664,10.5519837 13.9181141,10.6137141 13.4244213,10.6137141" id="Fill-4" fill="#512800"></path>
                        <path d="M21.3130322,7.43829255 C20.8171662,7.43829255 20.4675716,7.49598448 20.2460403,7.61367602 C20.023902,7.73194448 19.9158676,7.88540501 19.9158676,8.08328833 C19.9158676,8.36828646 20.033613,8.57020822 20.2751732,8.70059198 C20.5136987,8.82924498 20.8432644,8.89443687 21.2547664,8.89443687 C21.2936103,8.89443687 21.3585523,8.88809075 21.4489857,8.87597545 C21.5400259,8.86386014 21.6468465,8.84539872 21.7694474,8.82059119 C21.8914414,8.79636058 22.0152561,8.75597623 22.138464,8.70059198 C22.2422499,8.6532846 22.3363248,8.59040039 22.4176541,8.51193937 C22.4437523,8.48713184 22.4583188,8.45367052 22.4583188,8.41847844 L22.4583188,7.95751992 C22.4583188,7.93040472 22.4498217,7.90444335 22.4334344,7.8819435 C22.3466427,7.76309812 22.2373944,7.6609834 22.1093311,7.57675319 C21.9673083,7.48502302 21.6990429,7.43829255 21.3130322,7.43829255 M20.6358461,10.6136564 C20.4286622,10.6136564 20.1755649,10.5888488 19.8828674,10.5398107 C19.5901698,10.4913495 19.299194,10.3851963 19.0191227,10.2259666 C18.7384774,10.0667369 18.4974323,9.82789229 18.3028746,9.51462511 C18.1077429,9.20308869 18.0090292,8.77097614 18.0090292,8.23155659 C18.0090292,7.43483104 18.2529438,6.83771956 18.733886,6.45810667 C19.2159761,6.07791685 19.8432671,5.8852258 20.5991155,5.8852258 C20.9159175,5.8852258 21.2281282,5.91926404 21.5271388,5.9867636 C21.7297314,6.03234022 21.9116631,6.09522443 22.0677684,6.17253161 C22.0861337,6.18176232 22.1062208,6.18637768 22.1263079,6.18637768 C22.153282,6.18637768 22.1796822,6.17772389 22.2026388,6.16272399 C22.2410913,6.13560878 22.2629001,6.08887831 22.2583088,6.04099401 C22.2255955,5.69195784 22.1217166,5.42888264 21.9483937,5.25984528 C21.7320271,5.04869282 21.3624247,4.94600118 20.8194995,4.94600118 L20.5445934,4.94600118 C20.4212013,4.94600118 20.2840352,4.95292422 20.1307994,4.96503952 C19.9781375,4.97715483 19.8185887,4.99850084 19.6538746,5.02965448 C19.4880126,5.06023121 19.3370725,5.10119248 19.2044978,5.1496537 C19.1970369,5.15023062 19.1901499,5.15023062 19.1832629,5.15023062 C19.0661838,5.15023062 18.9628788,5.07292343 18.9416439,5.00888539 L18.5043193,3.9300463 C18.4675887,3.84408532 18.4492233,3.77658577 18.4492233,3.72639379 C18.4492233,3.71947075 18.4520929,3.66985569 18.4526668,3.66293266 C18.4601278,3.60408689 18.4991541,3.55447184 18.5536762,3.53197198 C19.0380619,3.33928094 19.4667777,3.20832026 19.8277714,3.14370529 C20.2059825,3.07620574 20.5767327,3.0421675 20.9302654,3.0421675 C22.1245862,3.0421675 23.0055484,3.34043478 23.5478997,3.92889246 C24.090251,4.51735014 24.3651571,5.34349858 24.3651571,6.38483792 L24.3651571,10.2986584 C24.3651571,10.3425043 24.3485136,10.3834656 24.3175221,10.4140423 L24.2578347,10.4740419 C24.2274171,10.5046186 24.186669,10.5213493 24.1436253,10.5213493 L23.0233398,10.5213493 C22.876991,10.5213493 22.7771295,10.4469267 22.7283466,10.2998123 L22.6853028,10.0251987 C22.677268,9.97673747 22.6416852,9.93635312 22.5929022,9.92193014 C22.5825717,9.9207763 22.5728151,9.92019938 22.5642064,9.92019938 C22.5085365,9.92019938 22.4792667,9.93519928 22.4580318,9.95827605 C22.353005,10.0725061 22.2342043,10.1688516 22.1056469,10.244428 C21.8978891,10.3678888 21.6901312,10.4578882 21.4904082,10.5126955 C21.291833,10.5669259 21.1093274,10.5980796 20.9480568,10.6050026 C20.7890819,10.6107718 20.6846291,10.6136564 20.6358461,10.6136564" id="Fill-6" fill="#512800"></path>
                        <path d="M29.6507458,10.6138871 C29.1455968,10.6138871 28.7004767,10.5238877 28.3272781,10.3461966 C27.955212,10.1690824 27.6443075,9.92389166 27.4024929,9.61639368 C27.161811,9.31004953 26.9817242,8.95582108 26.8678958,8.56409287 C26.7540674,8.17409543 26.6957374,7.75121358 26.6957374,7.30813956 L26.6957374,3.3573962 C26.6957374,3.31412726 26.7127267,3.27258907 26.7427412,3.24258926 L26.8016375,3.18258966 C26.8310856,3.15143601 26.87186,3.13470535 26.9143333,3.13470535 L28.527752,3.13470535 C28.569659,3.13470535 28.6104333,3.15143601 28.6404478,3.18258966 L28.6993441,3.24258926 C28.7293585,3.27258907 28.7457816,3.31412726 28.7457816,3.3573962 L28.7457816,7.10506397 C28.7457816,7.32890866 28.7582404,7.54352263 28.7825917,7.74198287 C28.8063768,7.94448155 28.8675383,8.12448037 28.9638111,8.27678706 C29.0606502,8.43197836 29.1965647,8.54909297 29.379483,8.63620779 C29.561835,8.7233226 29.8104454,8.76543771 30.1400381,8.76543771 C30.6032801,8.76543771 30.9255108,8.60563106 31.1265511,8.27678706 C31.3253261,7.9519815 31.425563,7.55794562 31.425563,7.10506397 L31.425563,3.3573962 C31.425563,3.31412726 31.4425524,3.27258907 31.4725668,3.24201234 L31.5320294,3.18201274 C31.5620439,3.15143601 31.6022519,3.13470535 31.6447252,3.13470535 L33.2570113,3.13470535 C33.2994846,3.13470535 33.340259,3.15143601 33.3697071,3.18258966 L33.4286034,3.24258926 C33.4591842,3.27258907 33.4756072,3.31412726 33.4756072,3.3573962 L33.4756072,10.2988892 C33.4756072,10.3421582 33.4591842,10.3836963 33.4286034,10.4136961 L33.3697071,10.4736958 C33.340259,10.5048494 33.2994846,10.5215801 33.2570113,10.5215801 L32.2421828,10.5215801 C32.1323186,10.5215801 32.0479383,10.4563882 31.9992356,10.3323505 L31.9460024,9.94466076 C31.9403393,9.89619954 31.9086259,9.85523827 31.8633211,9.83735377 C31.8451992,9.83504609 31.8293425,9.83389225 31.815751,9.83389225 C31.7715788,9.83389225 31.750059,9.84485372 31.7313707,9.86043054 C31.377993,10.1685054 31.0404719,10.3692734 30.7295674,10.457542 C30.3608992,10.5613875 29.9978942,10.6138871 29.6507458,10.6138871" id="Fill-8" fill="#512800"></path>
                        <path d="M39.3858157,10.6138871 C38.9920795,10.6138871 38.6336638,10.5642721 38.320412,10.4661958 C38.0065811,10.3681195 37.7379141,10.1973514 37.5230963,9.9579299 C37.3076995,9.71908531 37.1420987,9.3960105 37.0315052,8.99735927 C36.9209116,8.59986187 36.8647463,8.08755753 36.8647463,7.47429232 L36.8647463,5.07950031 C36.8647463,5.00565464 36.8051069,4.94623195 36.7315709,4.94623195 L35.6059487,4.94623195 C35.562522,4.94623195 35.5214113,4.92892437 35.490723,4.89892457 L35.4305046,4.83892496 C35.3998163,4.80834824 35.3824456,4.76681005 35.3824456,4.7235411 L35.3824456,3.26508911 C35.3824456,3.22182017 35.3998163,3.18028198 35.4305046,3.14970526 L35.490723,3.08970565 C35.5214113,3.05912893 35.562522,3.04239827 35.6059487,3.04239827 L36.7315709,3.04239827 C36.8051069,3.04239827 36.8647463,2.98239866 36.8647463,2.90912991 L36.8647463,0.255878052 C36.8647463,0.212609105 36.882117,0.171070915 36.9128053,0.141071112 L36.9730238,0.0810715048 C37.003712,0.0504947819 37.0454017,0.033187203 37.0882495,0.033187203 L38.7373091,0.033187203 C38.7807359,0.033187203 38.8218465,0.0499178626 38.8525348,0.0804945855 L38.9127533,0.140494193 C38.9434415,0.171070915 38.9608122,0.212609105 38.9608122,0.255878052 L38.9608122,2.90912991 C38.9608122,2.98239866 39.0210307,3.04239827 39.0945667,3.04239827 L40.5531275,3.04239827 C40.5965543,3.04239827 40.637665,3.05912893 40.6683532,3.08970565 L40.7285717,3.14970526 C40.759839,3.18028198 40.7766307,3.22182017 40.7766307,3.26508911 L40.7766307,4.7235411 C40.7766307,4.76681005 40.759839,4.80834824 40.7285717,4.83892496 L40.6683532,4.89892457 C40.637665,4.92892437 40.5965543,4.94623195 40.5531275,4.94623195 L39.0945667,4.94623195 C39.0210307,4.94623195 38.9608122,5.00565464 38.9608122,5.07950031 L38.9608122,7.06814113 C38.9608122,7.42525418 38.9671815,7.71082923 38.979341,7.92602013 C38.9920795,8.14409563 39.0221888,8.31313298 39.0719848,8.44293982 C39.1206228,8.57101591 39.1924217,8.6575538 39.2844865,8.70082275 C39.3777093,8.7440917 39.5016204,8.76543771 39.663747,8.76543771 L39.9324141,8.76543771 C40.0123193,8.76543771 40.1148065,8.7533224 40.2381386,8.72793796 C40.2526142,8.72274568 40.2885137,8.71351497 40.3035683,8.71236113 L40.3678399,8.71005346 C40.4043184,8.71005346 40.4396388,8.72159184 40.468011,8.7440917 L40.5189651,8.78332221 C40.5479163,8.80582206 40.5687611,8.83812954 40.5774465,8.87447546 L40.8692745,10.114275 C40.8750647,10.128698 40.883171,10.1586978 40.8849081,10.1742746 C40.8866452,10.1915822 40.8901193,10.2521587 40.8906983,10.2590818 C40.8964886,10.3427351 40.8374282,10.4171577 40.7546278,10.4310037 C40.6324537,10.4811957 40.5195441,10.5163878 40.4240052,10.5406184 C40.3249921,10.564849 40.2259791,10.5827335 40.1275451,10.5954257 C40.027953,10.607541 39.9202546,10.6138871 39.8027127,10.6138871 L39.3858157,10.6138871 Z" id="Fill-10" fill="#512800"></path>
                        <path d="M42.4507491,13.6784825 C42.4063747,13.6784825 42.3637752,13.6611749 42.3324172,13.6305982 L42.2833094,13.5821369 C42.2330183,13.5336757 42.2205935,13.4586762 42.2519514,13.3963689 L44.5600165,8.76889923 C44.5783579,8.73197639 44.5783579,8.68986128 44.5600165,8.65351537 L41.9673631,3.41624197 C41.9360051,3.35393469 41.9490216,3.27893518 41.9999043,3.23047396 L42.0496038,3.18201274 C42.0809617,3.15143601 42.1229696,3.13470535 42.1673441,3.13470535 L43.96599,3.13470535 C44.0417225,3.13470535 44.1032551,3.15547445 44.1547295,3.19816648 C44.2067956,3.24316618 44.2446618,3.29566584 44.2695115,3.3573962 L45.640979,6.18314693 C45.6634621,6.22930047 45.7119782,6.25930028 45.7646359,6.25930028 C45.816702,6.25930028 45.8652181,6.22930047 45.8882928,6.18314693 L47.258577,3.35681928 C47.28461,3.294512 47.321293,3.24258926 47.3721757,3.19932031 C47.4254251,3.15547445 47.4875494,3.13470535 47.5632818,3.13470535 L49.3613361,3.13470535 C49.4051189,3.13470535 49.4471268,3.15143601 49.4784847,3.18143582 L49.5281842,3.22932012 C49.5790669,3.27835826 49.5920834,3.35335777 49.5613171,3.41566505 L44.5919661,13.4563685 C44.5653414,13.5180989 44.5280668,13.5705985 44.4777758,13.6132906 C44.425118,13.6571364 44.3635854,13.6784825 44.2872613,13.6784825 L42.4507491,13.6784825 Z" id="Fill-12" fill="#512800"></path>
                    </g>
                    <g id="Group-2" transform="translate(53.469874, -0.000000)">
                        <g id="Group-16" transform="translate(0.000000, 0.000000)">
                            <mask id="mask-4" fill="white">
                                <use xlink:href="#path-3"></use>
                            </mask>
                            <g id="Clip-15"></g>
                            <path d="M4.07559148,10.7814679 C3.41861478,10.7814679 2.77390164,10.7318528 2.1601394,10.6337765 C1.54520921,10.5357002 0.900496069,10.2749327 0.243519365,9.85839698 L0.163514202,9.77128216 C0.140739009,9.74185928 0.129059424,9.70551336 0.130227382,9.66859053 C0.13197932,9.58378339 0.143074927,9.55551435 0.153002575,9.53532217 L0.763260935,8.36763751 C0.791875921,8.31225326 0.849689871,8.27994578 0.909255758,8.27994578 C0.926191158,8.27994578 0.943126557,8.28225345 0.960061957,8.28744573 C1.00853224,8.28802265 1.03305937,8.29033032 1.05349864,8.29436876 C1.28709036,8.41667565 1.62054254,8.55109785 2.0672867,8.7022507 C2.51870269,8.85513432 3.10618586,8.93301842 3.81396876,8.93301842 C4.03646487,8.93301842 4.25370517,8.9053263 4.45809792,8.84994204 C4.66073873,8.79513471 4.84294027,8.71725061 5.0000307,8.6185974 C5.15361726,8.52109804 5.2820927,8.40282959 5.38253714,8.26783047 C5.48122964,8.13283136 5.53203584,7.98917845 5.53203584,7.84264095 C5.53203584,7.55648898 5.3977206,7.33033661 5.1214984,7.15033779 C4.84761211,6.97149281 4.50189637,6.80707081 4.09369484,6.65995639 C3.68257342,6.51226505 3.24050109,6.35822759 2.76689389,6.19726711 C2.29387066,6.03746046 1.84771048,5.82573108 1.43950896,5.56784815 C1.03013947,5.31054215 0.684423731,4.97996739 0.411705401,4.58766226 C0.138403092,4.19478022 3.46433772e-15,3.68420664 3.46433772e-15,3.06978759 C3.46433772e-15,2.12479378 0.327612383,1.37710637 0.972325522,0.848648289 C1.61762264,0.32076713 2.5549094,0.0530765755 3.75790675,0.0530765755 C4.06624781,0.0530765755 4.38393255,0.0813456211 4.70161728,0.136729874 C5.019886,0.193267965 5.31829942,0.259036765 5.58926581,0.332882435 C5.86723995,0.408458864 6.11893503,0.489804485 6.33734328,0.575188541 C6.54348797,0.655380323 6.71284197,0.719418366 6.84540527,0.767879587 C6.94584971,0.831917629 6.98614428,0.879225011 7.01183937,0.936340022 C7.02059905,0.956532197 7.02527089,0.978455131 7.02527089,1.00037806 C7.02585487,1.01018569 7.02176701,1.07480065 7.02059905,1.08403136 L6.44946731,2.38094595 C6.43603578,2.41267651 6.41209263,2.43863788 6.38230969,2.45594546 L6.32683166,2.48825294 C6.30172055,2.50325284 6.27252158,2.51075279 6.24332262,2.51075279 C6.20477998,2.51075279 6.16098154,2.49863748 6.11192728,2.47382995 L5.64240792,2.3347924 C5.45787047,2.27998507 5.25522965,2.22806233 5.03740538,2.17844727 C4.8195811,2.12940913 4.60467672,2.08614018 4.39269224,2.04921735 C4.18187571,2.01229451 3.98682663,1.9938331 3.81396876,1.9938331 C3.40459928,1.9938331 3.08107475,2.04690967 2.85157089,2.15075515 C2.62323498,2.2540237 2.45096109,2.37171524 2.33825309,2.50094516 C2.22729702,2.63017508 2.16130736,2.76344344 2.14262002,2.89728872 C2.12393269,3.03286475 2.11458902,3.12517184 2.11458902,3.17420998 C2.11458902,3.49728479 2.24890426,3.74997544 2.52512646,3.94843568 C2.79726081,4.14458824 3.13947268,4.32458706 3.54300237,4.48381679 C3.94886798,4.64420036 4.39502816,4.80573776 4.86980332,4.96381365 C5.34808236,5.12304337 5.79424254,5.33131124 6.19718825,5.58227114 C6.59954998,5.83265411 6.94234583,6.15284432 7.21623212,6.53303414 C7.48895045,6.91322396 7.62735354,7.40418228 7.62735354,7.99263997 C7.62735354,8.421291 7.51055768,8.81301921 7.2816378,9.15686311 C7.05154996,9.50013009 6.75897633,9.79551277 6.41209263,10.0337804 C6.06404097,10.272625 5.67744668,10.45897 5.26282138,10.587623 C4.84586017,10.716276 4.44641833,10.7814679 4.07559148,10.7814679" id="Fill-14" fill="#512800" mask="url(#mask-4)"></path>
                        </g>
                        <path d="M12.7675642,5.15056242 C12.2841931,5.15056242 11.8803276,5.30748447 11.5334988,5.63055928 C11.1860938,5.95363409 11.0172884,6.39382351 11.0172884,6.97708892 C11.0172884,7.25862554 11.0639548,7.52227766 11.1555591,7.76112225 C11.2477395,8.00054376 11.3750637,8.20881163 11.5334988,8.37957974 C11.69251,8.55150169 11.8785992,8.68765465 12.0865813,8.78515401 C12.2939872,8.88323029 12.5227099,8.93284535 12.7675642,8.93284535 C12.9876449,8.93284535 13.1985076,8.88323029 13.3938149,8.78515401 C13.5891221,8.68765465 13.7659933,8.55092477 13.9186671,8.37957974 C14.071341,8.20823471 14.1923278,7.99996684 14.2781708,7.76169917 C14.3640138,7.52285458 14.4072234,7.25862554 14.4072234,6.97708892 C14.4072234,6.41459261 14.243027,5.96459555 13.9192433,5.63978999 C13.5943073,5.31556134 13.2071495,5.15056242 12.7675642,5.15056242 M12.7866464,10.7812948 C12.2560328,10.7812948 11.7492473,10.6791801 11.2796571,10.4766814 C10.8112293,10.2747596 10.3951073,9.9955307 10.0429146,9.6459176 C9.69130316,9.29688142 9.40943281,8.88726872 9.20544005,8.42688712 C9.00202845,7.96765936 8.89857913,7.47381644 8.89857913,6.95862751 C8.89857913,6.44343857 9.00202845,5.95305717 9.20544005,5.4995986 C9.40943281,5.04614003 9.69130316,4.64518112 10.0429146,4.30883717 C10.3951073,3.97133938 10.8112293,3.70076423 11.2796571,3.50518858 C11.7492473,3.30903602 12.2560328,3.2098059 12.7866464,3.2098059 C13.2928507,3.2098059 13.7781326,3.30903602 14.228544,3.50518858 C14.6789554,3.70134115 15.0799668,3.9719163 15.4193736,4.30883717 C15.7581992,4.64518112 16.0301896,5.04556311 16.2289517,5.4995986 C16.4259704,5.95421101 16.5259327,6.44516933 16.5259327,6.95862751 C16.5259327,7.47323952 16.4259704,7.96708244 16.2283706,8.42688712 C16.0313519,8.88611488 15.7587804,9.29630451 15.4193736,9.6459176 C15.0799668,9.99437686 14.6795366,10.2741827 14.228544,10.4766814 C13.7775515,10.6791801 13.2922695,10.7812948 12.7866464,10.7812948" id="Fill-17" fill="#512800"></path>
                        <path d="M18.0857988,13.8460632 C18.0414221,13.8460632 17.9994121,13.8293325 17.9680526,13.7981789 L17.9183507,13.7502946 C17.8680571,13.7012564 17.8550399,13.6268338 17.8863994,13.5639496 L20.1945801,8.93647994 C20.2135142,8.8995571 20.2135142,8.85744199 20.1945801,8.82109608 L17.6017968,3.58382268 C17.5710289,3.5215154 17.5840461,3.44709281 17.6343397,3.39805467 L17.6834499,3.35017037 C17.7148095,3.31901673 17.7574111,3.30228607 17.8017878,3.30228607 L19.6005239,3.30228607 C19.6786269,3.30228607 19.741346,3.324209 19.7922313,3.36863179 C19.8407498,3.41016998 19.8792096,3.46324655 19.9046523,3.52497692 L21.2755968,6.35072764 C21.298081,6.39688119 21.3465996,6.42688099 21.3992599,6.42688099 C21.4513286,6.42688099 21.4998472,6.39688119 21.5223314,6.35072764 L22.8938676,3.5244 C22.9187186,3.46382347 22.955995,3.41132381 23.007472,3.36690103 C23.0565822,3.324209 23.119893,3.30228607 23.197996,3.30228607 L24.996732,3.30228607 C25.0405171,3.30228607 25.0831187,3.31901673 25.1144783,3.35017037 L25.1635885,3.39805467 C25.2138821,3.44709281 25.2268993,3.5215154 25.1961314,3.58382268 L20.2265314,13.6239492 C20.200497,13.6856796 20.1626289,13.7381793 20.1117436,13.7814482 C20.0608583,13.8247172 19.9987309,13.8460632 19.922403,13.8460632 L18.0857988,13.8460632 Z" id="Fill-19" fill="#512800"></path>
                        <path d="M37.8888696,10.6890454 C37.8452249,10.6890454 37.8039079,10.6723147 37.7730656,10.641738 L37.7125449,10.5817384 C37.6817026,10.5511617 37.6642448,10.5096235 37.6642448,10.4663545 L37.6642448,5.49446402 C37.6642448,5.4402336 37.6310748,5.39177238 37.5804469,5.37100329 C37.5618251,5.36869561 37.5455311,5.36754177 37.5315648,5.36754177 C37.479773,5.36754177 37.4541681,5.38081092 37.4343825,5.40042617 L34.8092973,8.01963979 C34.778455,8.05021651 34.7365561,8.06752409 34.6934933,8.06752409 L34.6929113,8.06752409 C34.6498485,8.06752409 34.6079496,8.05021651 34.5771073,8.02021671 L31.9374739,5.40042617 C31.9118689,5.37504172 31.8775351,5.36061874 31.8420374,5.36061874 C31.7407816,5.39119546 31.7076116,5.43965668 31.7076116,5.4938871 L31.7076116,10.4663545 C31.7076116,10.5096235 31.6901537,10.5511617 31.6593114,10.5817384 L31.5982088,10.641738 C31.5679484,10.6723147 31.5260495,10.6890454 31.4829867,10.6890454 L29.8256507,10.6890454 C29.782006,10.6890454 29.740689,10.6723147 29.7098467,10.6411611 L29.649326,10.5811615 C29.6184837,10.5511617 29.6010258,10.5096235 29.6010258,10.4663545 L29.6010258,0.32584402 C29.6010258,0.28488275 29.6167379,0.245652237 29.6446705,0.215652434 C29.6755128,0.182191115 29.7610565,0.145268279 29.807029,0.145268279 C29.8512556,0.145268279 29.8943184,0.163152778 29.9251607,0.195460258 L34.3513186,4.76062267 C34.3873982,4.81196849 34.4420996,4.87946805 34.5293891,4.91812164 C34.596311,4.94869836 34.6492666,4.96369826 34.6859282,4.96369826 C34.7231717,4.96369826 34.7761273,4.94812144 34.8436311,4.91754472 C34.911135,4.886968 34.9704918,4.83446834 35.0193739,4.76119959 L39.3978135,0.217383192 C39.4152714,0.199498694 39.4362209,0.18565263 39.46008,0.176998841 C39.493832,0.164883536 39.5316574,0.15334515 39.5741383,0.15334515 C39.6154553,0.15334515 39.6870326,0.180460357 39.717293,0.207575564 C39.7516269,0.238152287 39.7708305,0.281998153 39.7708305,0.328151697 L39.7708305,10.4663545 C39.7708305,10.5096235 39.7533726,10.5511617 39.7225304,10.5811615 L39.6620097,10.6411611 C39.6317493,10.6723147 39.5898504,10.6890454 39.5462056,10.6890454 L37.8888696,10.6890454 Z" id="Fill-21" fill="#512800"></path>
                        <path d="M43.3533936,2.51075279 C43.0028144,2.51075279 42.7129701,2.39594585 42.4670234,2.15940894 C42.2210768,1.92344894 42.1014108,1.64537384 42.1014108,1.30960681 C42.1014108,0.961724471 42.2210768,0.67441866 42.4670234,0.431535636 C42.7135714,0.18922953 43.0034157,0.0715379931 43.3533936,0.0715379931 C43.7166009,0.0715379931 44.0160665,0.18922953 44.2686279,0.431535636 C44.5211893,0.673841741 44.643862,0.961147552 44.643862,1.30960681 C44.643862,1.64133541 44.5181826,1.92691046 44.2686279,2.15940894 C44.0160665,2.39594585 43.7166009,2.51075279 43.3533936,2.51075279 L43.3533936,2.51075279 Z M42.5391993,10.6891608 C42.4958887,10.6891608 42.4537486,10.6718532 42.4233141,10.6418534 L42.3618599,10.5818538 C42.3308401,10.5512771 42.3132817,10.5097389 42.3132817,10.4664699 L42.3132817,3.52497692 C42.3132817,3.48170797 42.3308401,3.44016978 42.3618599,3.40959306 L42.4233141,3.34959345 C42.4537486,3.31901673 42.4958887,3.30228607 42.5391993,3.30228607 L44.2060734,3.30228607 C44.2499693,3.30228607 44.2921094,3.31959365 44.3231292,3.35017037 L44.3839982,3.41016998 C44.4150179,3.44016978 44.431991,3.48170797 44.431991,3.52497692 L44.431991,10.4664699 C44.431991,10.5097389 44.4150179,10.5512771 44.3839982,10.5812769 L44.3231292,10.6412765 C44.2921094,10.6718532 44.2499693,10.6891608 44.2060734,10.6891608 L42.5391993,10.6891608 Z" id="Fill-23" fill="#512800"></path>
                        <path d="M47.20082,10.6890454 C47.1575333,10.6890454 47.1154165,10.6723147 47.0844139,10.641738 L47.0229935,10.5817384 C46.9925758,10.5511617 46.9744422,10.5096235 46.9744422,10.4663545 L46.9744422,0.423343381 C46.9744422,0.380074434 46.9925758,0.338536245 47.0229935,0.307959522 L47.0844139,0.247959915 C47.1154165,0.217960111 47.1575333,0.200652532 47.20082,0.200652532 L48.8673587,0.200652532 C48.9106454,0.200652532 48.9527622,0.217960111 48.9837648,0.247959915 L49.0446002,0.307959522 C49.0756029,0.338536245 49.0931515,0.380074434 49.0931515,0.423343381 L49.0931515,10.4663545 C49.0931515,10.5096235 49.0756029,10.5511617 49.0446002,10.5817384 L48.9837648,10.641738 C48.9527622,10.6723147 48.9106454,10.6890454 48.8673587,10.6890454 L47.20082,10.6890454 Z" id="Fill-25" fill="#512800"></path>
                        <path d="M56.29264,10.6890454 C56.218169,10.6890454 56.1465844,10.6671225 56.0796182,10.6238535 C56.0103428,10.5800076 55.9641593,10.5280849 55.9404902,10.4652007 L53.9678738,7.70637261 C53.9430501,7.67175745 53.9020622,7.65041144 53.8593424,7.65041144 C53.7635114,7.67464205 53.7265645,7.72598787 53.7265645,7.7836798 L53.7265645,10.4663545 C53.7265645,10.5096235 53.7086684,10.5511617 53.6786491,10.5817384 L53.6180331,10.641738 C53.5874365,10.6723147 53.5458713,10.6890454 53.5031514,10.6890454 L51.8584385,10.6890454 C51.8157187,10.6890454 51.7741535,10.6723147 51.7435568,10.641738 L51.6835182,10.5817384 C51.6529216,10.5511617 51.6356027,10.5096235 51.6356027,10.4663545 L51.6356027,0.423343381 C51.6356027,0.380074434 51.6529216,0.338536245 51.6835182,0.307959522 L51.7435568,0.247959915 C51.7741535,0.217960111 51.8157187,0.200652532 51.8584385,0.200652532 L53.5031514,0.200652532 C53.5458713,0.200652532 53.5874365,0.217960111 53.6180331,0.247959915 L53.6786491,0.307959522 C53.7086684,0.338536245 53.7265645,0.380074434 53.7265645,0.423343381 L53.7265645,6.07542175 C53.7265645,6.13311368 53.7629341,6.18330566 53.8171998,6.20176708 C53.8281684,6.20292092 53.8385597,6.20292092 53.8483738,6.20292092 C53.9112989,6.20292092 53.944782,6.18388258 53.9661419,6.15503662 L55.9404902,3.52428461 C55.9803235,3.45909273 56.018425,3.40890075 56.0605675,3.36736256 C56.0911641,3.33678584 56.1460071,3.30217068 56.2366424,3.30217068 L58.2138772,3.30217068 C58.2571743,3.30217068 58.2987395,3.31947826 58.3287588,3.35005498 C58.3870656,3.40774691 58.4286308,3.53524608 58.3789835,3.59986104 L55.9468404,6.77060951 C55.9122027,6.81676305 55.9104708,6.88022417 55.9439539,6.92810848 L58.385911,10.3942396 C58.4315173,10.4588546 58.4234352,10.5465463 58.3680149,10.6025075 C58.3374183,10.6330842 58.2571743,10.6890454 58.2138772,10.6890454 L56.29264,10.6890454 Z" id="Fill-27" fill="#512800"></path>
                    </g>
                </g>
            </g>
        </g>
    </g>
</svg>