<?xml version="1.0" encoding="UTF-8"?>
<svg width="188px" height="19px" viewBox="0 0 188 19" version="1.1" xmlns="http://www.w3.org/2000/svg" xmlns:xlink="http://www.w3.org/1999/xlink">
    <!-- Generator: Sketch 56.2 (81672) - https://sketch.com -->
    <title>nav-tofu-raw-chocolate</title>
    <desc>Created with Sketch.</desc>
    <defs>
        <path d="M6.91668199,0.149417625 C6.77106513,0.149417625 6.69861303,0.222344828 6.69861303,0.367011494 L6.69861303,0.367011494 L6.69861303,5.90235249 C6.69861303,7.79038314 6.09856705,8.73392337 4.40770115,8.73392337 L4.40770115,8.73392337 C2.71612261,8.73392337 2.11560153,7.79038314 2.11560153,5.90235249 L2.11560153,5.90235249 L2.11560153,0.367011494 C2.11560153,0.222344828 2.04338697,0.149417625 1.89777011,0.149417625 L1.89777011,0.149417625 L0.278643678,0.149417625 C0.133501916,0.149417625 0.0612873563,0.222344828 0.0612873563,0.367011494 L0.0612873563,0.367011494 L0.0612873563,5.90235249 C0.0612873563,8.75245211 1.49750192,10.5492644 4.38917241,10.5492644 L4.38917241,10.5492644 C7.298659,10.5492644 8.75316475,8.75245211 8.75316475,5.90235249 L8.75316475,5.90235249 L8.75316475,0.367011494 C8.75316475,0.222344828 8.6804751,0.149417625 8.53462069,0.149417625 L8.53462069,0.149417625 L6.91668199,0.149417625 Z" id="path-1"></path>
        <path d="M0.0829042146,5.49733333 C0.0829042146,8.47903448 2.50921839,10.9013103 5.4956705,10.9013103 L5.4956705,10.9013103 C7.15755556,10.9013103 8.66954789,10.1371188 9.65893487,8.945341 L9.65893487,8.945341 C9.71475862,8.87051341 9.734,8.81468966 9.734,8.75862835 L9.734,8.75862835 C9.734,8.70209195 9.71475862,8.6462682 9.65893487,8.59068199 L9.65893487,8.59068199 L8.66954789,7.62148659 C8.63201533,7.58466667 8.59495785,7.56637548 8.538659,7.56637548 L8.538659,7.56637548 C8.46454406,7.56637548 8.39019157,7.6036705 8.33389272,7.65854406 L8.33389272,7.65854406 C7.66163218,8.47903448 6.67200766,9.03798467 5.47761686,9.03798467 L5.47761686,9.03798467 C3.53613793,9.03798467 2.19114176,7.49154789 2.19114176,5.55363218 L2.19114176,5.55363218 C2.19114176,3.63448276 3.53613793,2.05122605 5.47761686,2.05122605 L5.47761686,2.05122605 C6.4484751,2.05122605 7.25091188,2.38640613 7.92293487,3.00094253 L7.92293487,3.00094253 C7.97899617,3.05652874 8.05358621,3.0945364 8.12865134,3.0945364 L8.12865134,3.0945364 C8.1844751,3.0945364 8.22129502,3.07553257 8.25930268,3.0384751 L8.25930268,3.0384751 L9.32256705,2.01321839 C9.37910345,1.95739464 9.39763218,1.90180843 9.39763218,1.84598467 L9.39763218,1.84598467 C9.39763218,1.79039847 9.37910345,1.73386207 9.32256705,1.65974713 L9.32256705,1.65974713 C8.35218391,0.690551724 6.98984674,0.0940689655 5.4956705,0.0940689655 L5.4956705,0.0940689655 C2.50921839,0.0940689655 0.0829042146,2.51610728 0.0829042146,5.49733333 L0.0829042146,5.49733333 Z" id="path-3"></path>
        <path d="M6.52924138,0.0249578544 C6.3800613,0.0249578544 6.30452107,0.0993103448 6.30452107,0.248727969 L6.30452107,0.248727969 L6.30452107,4.53361686 L2.16073563,4.53361686 L2.16073563,0.248727969 C2.16073563,0.0993103448 2.08543295,0.0249578544 1.93672797,0.0249578544 L1.93672797,0.0249578544 L0.274842912,0.0249578544 C0.125900383,0.0249578544 0.0510727969,0.0993103448 0.0510727969,0.248727969 L0.0510727969,0.248727969 L0.0510727969,10.384659 C0.0510727969,10.5336015 0.125900383,10.6081916 0.274842912,10.6081916 L0.274842912,10.6081916 L1.93672797,10.6081916 C2.08543295,10.6081916 2.16073563,10.5336015 2.16073563,10.384659 L2.16073563,10.384659 L2.16073563,6.39718008 L6.30452107,6.39718008 L6.30452107,10.384659 C6.30452107,10.5336015 6.3800613,10.6081916 6.52924138,10.6081916 L6.52924138,10.6081916 L8.19112644,10.6081916 C8.33983142,10.6081916 8.4151341,10.5336015 8.4151341,10.384659 L8.4151341,10.384659 L8.4151341,0.248727969 C8.4151341,0.0993103448 8.33983142,0.0249578544 8.19112644,0.0249578544 L8.19112644,0.0249578544 L6.52924138,0.0249578544 Z" id="path-5"></path>
        <path d="M0.106896552,5.49733333 C0.106896552,8.47903448 2.53344828,10.9015479 5.51990038,10.9015479 L5.51990038,10.9015479 C8.50682759,10.9015479 10.9348046,8.47903448 10.9348046,5.49733333 L10.9348046,5.49733333 C10.9348046,2.51658238 8.50682759,0.0945440613 5.51990038,0.0945440613 L5.51990038,0.0945440613 C2.53344828,0.0945440613 0.106896552,2.51658238 0.106896552,5.49733333 L0.106896552,5.49733333 Z M2.2156092,5.55363218 C2.2156092,3.63424521 3.56060536,2.05122605 5.50232184,2.05122605 L5.50232184,2.05122605 C7.44332567,2.05122605 8.82442912,3.63424521 8.82442912,5.55363218 L8.82442912,5.55363218 C8.82442912,7.49131034 7.44332567,9.03822222 5.50232184,9.03822222 L5.50232184,9.03822222 C3.56060536,9.03822222 2.2156092,7.49131034 2.2156092,5.55363218 L2.2156092,5.55363218 Z" id="path-7"></path>
        <path d="M0.0216168582,5.49733333 C0.0216168582,8.47903448 2.44816858,10.9013103 5.43533333,10.9013103 L5.43533333,10.9013103 C7.09650575,10.9013103 8.60897318,10.1371188 9.59788506,8.945341 L9.59788506,8.945341 C9.65418391,8.87051341 9.6724751,8.81468966 9.6724751,8.75862835 L9.6724751,8.75862835 C9.6724751,8.70209195 9.65418391,8.6462682 9.59788506,8.59068199 L9.59788506,8.59068199 L8.60897318,7.62148659 C8.57096552,7.58466667 8.53390805,7.56637548 8.47832184,7.56637548 L8.47832184,7.56637548 C8.40349425,7.56637548 8.32866667,7.6036705 8.27260536,7.65854406 L8.27260536,7.65854406 C7.60034483,8.47903448 6.61143295,9.03798467 5.4163295,9.03798467 L5.4163295,9.03798467 C3.47532567,9.03798467 2.1308046,7.49154789 2.1308046,5.55363218 L2.1308046,5.55363218 C2.1308046,3.63448276 3.47532567,2.05122605 5.4163295,2.05122605 L5.4163295,2.05122605 C6.38742529,2.05122605 7.18962452,2.38640613 7.86212261,3.00094253 L7.86212261,3.00094253 C7.91842146,3.05652874 7.99277395,3.0945364 8.06712644,3.0945364 L8.06712644,3.0945364 C8.12366284,3.0945364 8.16024521,3.07553257 8.19777778,3.0384751 L8.19777778,3.0384751 L9.26199234,2.01321839 C9.31829119,1.95739464 9.33658238,1.90180843 9.33658238,1.84598467 L9.33658238,1.84598467 C9.33658238,1.79039847 9.31829119,1.73386207 9.26199234,1.65974713 L9.26199234,1.65974713 C8.29089655,0.690551724 6.92879693,0.0940689655 5.43533333,0.0940689655 L5.43533333,0.0940689655 C2.44816858,0.0940689655 0.0216168582,2.51610728 0.0216168582,5.49733333 L0.0216168582,5.49733333 Z" id="path-9"></path>
        <path d="M0.0363601533,5.49733333 C0.0363601533,8.47903448 2.46291188,10.9015479 5.45007663,10.9015479 L5.45007663,10.9015479 C8.43652874,10.9015479 10.8637931,8.47903448 10.8637931,5.49733333 L10.8637931,5.49733333 C10.8637931,2.51658238 8.43652874,0.0945440613 5.45007663,0.0945440613 L5.45007663,0.0945440613 C2.46291188,0.0945440613 0.0363601533,2.51658238 0.0363601533,5.49733333 L0.0363601533,5.49733333 Z M2.14554789,5.55363218 C2.14554789,3.63424521 3.48983142,2.05122605 5.4310728,2.05122605 L5.4310728,2.05122605 C7.37278927,2.05122605 8.75484291,3.63424521 8.75484291,5.55363218 L8.75484291,5.55363218 C8.75484291,7.49131034 7.37278927,9.03822222 5.4310728,9.03822222 L5.4310728,9.03822222 C3.48983142,9.03822222 2.14554789,7.49131034 2.14554789,5.55363218 L2.14554789,5.55363218 Z" id="path-11"></path>
        <path d="M0.366536398,0.0249578544 C0.217118774,0.0249578544 0.14205364,0.0993103448 0.14205364,0.248727969 L0.14205364,0.248727969 L0.14205364,10.384659 C0.14205364,10.5336015 0.217118774,10.6081916 0.366536398,10.6081916 L0.366536398,10.6081916 L7.29224521,10.6081916 C7.44166284,10.6081916 7.51649042,10.5336015 7.51649042,10.384659 L7.51649042,10.384659 L7.51649042,8.94986973 C7.51649042,8.8009272 7.44166284,8.72609962 7.29224521,8.72609962 L7.29224521,8.72609962 L2.25195402,8.72609962 L2.25195402,0.248727969 C2.25195402,0.0993103448 2.17688889,0.0249578544 2.02842146,0.0249578544 L2.02842146,0.0249578544 L0.366536398,0.0249578544 Z" id="path-13"></path>
        <path d="M5.17878161,0.298835249 L0.157256705,10.5844215 C0.157256705,10.7331264 0.231609195,10.807954 0.381264368,10.807954 L0.381264368,10.807954 L2.19161686,10.807954 C2.34174713,10.807954 2.4348659,10.7148352 2.49045211,10.5844215 L2.49045211,10.5844215 L3.48007663,8.51585441 L7.43714943,8.51585441 L8.42724904,10.5844215 C8.4825977,10.7148352 8.57642912,10.807954 8.72608429,10.807954 L8.72608429,10.807954 L10.5366743,10.807954 C10.686092,10.807954 10.760682,10.7331264 10.760682,10.5844215 L10.760682,10.5844215 L5.73915709,0.298835249 C5.64508812,0.205716475 5.55268199,0.168421456 5.45932567,0.168421456 L5.45932567,0.168421456 C5.3652567,0.168421456 5.27190038,0.205716475 5.17878161,0.298835249 L5.17878161,0.298835249 Z M5.45932567,4.41696552 L6.52330268,6.63423755 L4.39416092,6.63423755 L5.45932567,4.41696552 Z" id="path-15"></path>
        <path d="M0.275793103,0.0247203065 C0.126137931,0.0247203065 0.0513103448,0.098835249 0.0513103448,0.248490421 L0.0513103448,0.248490421 L0.0513103448,1.72081226 C0.0513103448,1.86904215 0.126137931,1.94386973 0.275793103,1.94386973 L0.275793103,1.94386973 L2.83299617,1.94386973 L2.83299617,10.3844215 C2.83299617,10.5338391 2.90734866,10.6086667 3.05724138,10.6086667 L3.05724138,10.6086667 L4.71841379,10.6086667 C4.86759387,10.6086667 4.94242146,10.5338391 4.94242146,10.3844215 L4.94242146,10.3844215 L4.94242146,1.94386973 L7.50033716,1.94386973 C7.64975479,1.94386973 7.72386973,1.86904215 7.72386973,1.72081226 L7.72386973,1.72081226 L7.72386973,0.248490421 C7.72386973,0.098835249 7.64975479,0.0247203065 7.50033716,0.0247203065 L7.50033716,0.0247203065 L0.275793103,0.0247203065 Z" id="path-17"></path>
        <path d="M0.310237548,0.0249578544 C0.161532567,0.0249578544 0.0867049808,0.0993103448 0.0867049808,0.248727969 L0.0867049808,0.248727969 L0.0867049808,10.384659 C0.0867049808,10.5336015 0.161532567,10.6081916 0.310237548,10.6081916 L0.310237548,10.6081916 L7.236659,10.6081916 C7.38655172,10.6081916 7.46114176,10.5336015 7.46114176,10.384659 L7.46114176,10.384659 L7.46114176,8.91281226 C7.46114176,8.76268199 7.38655172,8.68856705 7.236659,8.68856705 L7.236659,8.68856705 L2.19684291,8.68856705 L2.19684291,6.39718008 L6.19097318,6.39718008 C6.3408659,6.39718008 6.41593103,6.32235249 6.41593103,6.17340996 L6.41593103,6.17340996 L6.41593103,4.75738697 C6.41593103,4.6082069 6.3408659,4.53361686 6.19097318,4.53361686 L6.19097318,4.53361686 L2.19684291,4.53361686 L2.19684291,1.94410728 L7.236659,1.94410728 C7.38655172,1.94410728 7.46114176,1.86927969 7.46114176,1.72033716 L7.46114176,1.72033716 L7.46114176,0.248727969 C7.46114176,0.0993103448 7.38655172,0.0249578544 7.236659,0.0249578544 L7.236659,0.0249578544 L0.310237548,0.0249578544 Z" id="path-19"></path>
        <path d="M4.73171648,0.838559387 C2.36621456,2.72350192 3.44943295,5.72895785 3.49741762,5.85652107 L3.49741762,5.85652107 C3.5964751,6.12233716 3.89127203,6.25702682 4.15827586,6.15963218 L4.15827586,6.15963218 C4.4248046,6.06128736 4.56115709,5.76625287 4.46328736,5.49972414 L4.46328736,5.49972414 C4.42765517,5.39995402 3.59742529,3.0582069 5.37475862,1.64218391 L5.37475862,1.64218391 C6.06768582,1.08988506 7.13118774,0.897708812 8.14884291,1.13953257 L8.14884291,1.13953257 C9.02800766,1.34857471 9.69860536,1.83127203 9.99078927,2.4655249 L9.99078927,2.4655249 C10.3036398,3.148 10.4725364,4.19273563 10.0062299,5.07926437 L10.0062299,5.07926437 C9.63161686,5.7916705 8.92087356,6.24396169 7.89395402,6.42402299 L7.89395402,6.42402299 C7.26991571,6.53210728 6.38362452,6.46678161 5.88881226,6.41475862 L5.88881226,6.41475862 C6.08930268,5.79309579 6.25273563,5.21110345 6.37103448,4.72959387 L6.37103448,4.72959387 C6.72901916,3.28102682 7.3323908,3.08742529 7.378,3.0750728 L7.378,3.0750728 C7.6488046,3.03516475 7.84264368,2.78882759 7.81437548,2.51350958 L7.81437548,2.51350958 C7.78491954,2.23082759 7.53098084,2.02796169 7.24901149,2.05527969 L7.24901149,2.05527969 C7.11479693,2.06881992 5.92088123,2.25410728 5.37095785,4.4832567 L5.37095785,4.4832567 C4.57968582,7.68730268 3.14228352,10.6497625 2.23318774,10.9521609 L2.23318774,10.9521609 C1.94551724,11.0471801 1.55261303,11.1170192 1.31078927,10.9037011 L1.31078927,10.9037011 C1.11338697,10.7295785 1.03784674,10.3882222 1.11338697,10.0112337 L1.11338697,10.0112337 C1.16944828,9.73306513 0.987961686,9.46202299 0.708605364,9.40643678 L0.708605364,9.40643678 C0.429724138,9.35227586 0.158206897,9.53114943 0.103095785,9.80955556 L0.103095785,9.80955556 C-0.0467969349,10.555931 0.149655172,11.2524215 0.629264368,11.6747816 L0.629264368,11.6747816 C0.8228659,11.845341 1.18441379,12.071249 1.74265134,12.071249 L1.74265134,12.071249 C1.9785364,12.071249 2.25076628,12.0311034 2.5588659,11.9280077 L2.5588659,11.9280077 C3.72166284,11.5424674 4.77423755,9.48696552 5.51372414,7.49488889 L5.51372414,7.49488889 C5.51990038,7.4939387 5.52560153,7.49536398 5.53130268,7.49536398 L5.53130268,7.49536398 C5.6077931,7.48871264 7.41695785,7.37801533 7.60604598,9.54682759 L7.60604598,9.54682759 C7.69085057,10.5245747 7.96498084,11.1899464 8.44554023,11.5840383 L8.44554023,11.5840383 C8.83131801,11.9009272 9.27006897,11.9674406 9.60097318,11.9674406 L9.60097318,11.9674406 C9.75347893,11.9674406 9.88246743,11.9529502 9.97226054,11.9436858 L9.97226054,11.9436858 C10.8459617,11.8491418 11.4811648,11.3113333 11.933931,10.6989349 L11.933931,10.6989349 C11.9878544,10.8426513 12.0543678,10.9809042 12.1360843,11.111318 L12.1360843,11.111318 C12.4800536,11.6564904 13.0297395,11.9655402 13.7278927,12.0049732 L13.7278927,12.0049732 C13.7856169,12.0080613 13.8414406,12.0094866 13.8965517,12.0094866 L13.8965517,12.0094866 C14.8707356,12.0094866 15.606659,11.5244138 16.1570575,10.9735402 L16.1570575,10.9735402 C16.1960153,11.0801992 16.2406743,11.1842452 16.3024368,11.2811648 L16.3024368,11.2811648 C16.5107663,11.6113563 16.9397778,12.0054483 17.7968506,12.0054483 L17.7968506,12.0054483 C18.5223218,12.0054483 19.321433,11.3956628 20.0236245,10.6281456 L20.0236245,10.6281456 C20.0604444,10.8590421 20.1309962,11.0830498 20.2557088,11.2811648 L20.2557088,11.2811648 C20.4640383,11.6113563 20.8935249,12.0054483 21.7501226,12.0054483 L21.7501226,12.0054483 C22.560636,12.0054483 23.1504674,11.6505517 23.5794789,11.1989732 L23.5794789,11.1989732 C23.5944444,11.2260536 23.6056092,11.2547969 23.6212874,11.2811648 L23.6212874,11.2811648 C23.8303295,11.6113563 24.2591034,12.0054483 25.1161762,12.0054483 L25.1161762,12.0054483 C26.1970192,12.0054483 26.8851954,11.3742835 27.3232337,10.72459 L27.3232337,10.72459 C27.5308506,10.9155785 27.8560536,11.0904138 28.3603678,11.0904138 L28.3603678,11.0904138 C28.3800843,11.0904138 28.4012261,11.0899387 28.4218927,11.0894636 L28.4218927,11.0894636 C29.7975326,11.0512184 30.8750498,8.99904215 30.9935862,8.76505747 L30.9935862,8.76505747 C31.121387,8.51183142 31.019954,8.20278161 30.7657778,8.07498084 L30.7657778,8.07498084 C30.5123142,7.94670498 30.2018391,8.04837548 30.0735632,8.30160153 L30.0735632,8.30160153 C29.7174789,9.00189272 28.9376092,10.0461533 28.393387,10.0618314 L28.393387,10.0618314 C28.1917088,10.0680077 28.0605824,10.0257241 27.9924061,9.9397318 L27.9924061,9.9397318 C27.9054636,9.82903448 27.9009502,9.64208429 27.9254176,9.53233716 L27.9254176,9.53233716 C28.4254559,8.2994636 28.6121686,7.84693487 28.6169195,7.83481992 L28.6169195,7.83481992 C29.3868123,5.8477318 29.8086973,4.93317241 29.8122605,4.92414559 L29.8122605,4.92414559 C29.9319847,4.66640613 29.819387,4.36044444 29.5606973,4.24190805 L29.5606973,4.24190805 C29.3029579,4.12218391 28.9962835,4.23501916 28.8775096,4.49252107 L28.8775096,4.49252107 C28.8594559,4.53005364 28.4394713,5.44009962 27.6596015,7.45403065 L27.6596015,7.45403065 C27.6596015,7.45403065 27.4690881,7.91487356 26.9521839,9.19121839 L26.9521839,9.19121839 C26.439318,10.4594866 25.9062605,10.9763908 25.1161762,10.9763908 L25.1161762,10.9763908 C24.6472567,10.9763908 24.5313333,10.7927663 24.4933257,10.731954 L24.4933257,10.731954 C24.3116015,10.4438084 24.3973563,9.90742529 24.529433,9.63281992 L24.529433,9.63281992 C24.5477241,9.59362452 24.5596015,9.55395402 24.5679157,9.51404598 L24.5679157,9.51404598 C25.0613027,8.29518774 25.24659,7.84669732 25.2508659,7.83481992 L25.2508659,7.83481992 C26.0212337,5.8477318 26.4426437,4.93317241 26.4464444,4.92414559 L26.4464444,4.92414559 C26.5661686,4.66640613 26.4535709,4.36044444 26.1951188,4.24190805 L26.1951188,4.24190805 C25.9378544,4.12218391 25.6304674,4.23501916 25.5107433,4.49252107 L25.5107433,4.49252107 C25.4936398,4.53005364 25.0741303,5.44009962 24.294023,7.45403065 L24.294023,7.45403065 C24.294023,7.45403065 24.103272,7.91487356 23.587318,9.19121839 L23.587318,9.19121839 C23.0725517,10.4594866 22.5411571,10.9763908 21.7501226,10.9763908 L21.7501226,10.9763908 C21.2821533,10.9763908 21.1657548,10.7927663 21.1277471,10.731954 L21.1277471,10.731954 C20.9457854,10.4438084 21.0320153,9.90742529 21.1731188,9.61381609 L21.1731188,9.61381609 C21.1795326,9.60170115 21.1854713,9.58863602 21.1899847,9.57628352 L21.1899847,9.57628352 C21.6750575,8.3788046 21.8693716,7.90679693 21.8940766,7.84693487 L21.8940766,7.84693487 C21.8943142,7.84574713 21.8955019,7.84455939 21.8955019,7.84218391 L21.8955019,7.84218391 C21.8955019,7.84218391 21.8955019,7.84194636 21.8962146,7.84123372 L21.8962146,7.84123372 C21.8969272,7.84028352 21.8990651,7.83529502 21.8990651,7.83481992 L21.8990651,7.83481992 C22.6687203,5.8477318 23.0906054,4.93317241 23.0946437,4.92414559 L23.0946437,4.92414559 C23.2143678,4.66640613 23.101295,4.36044444 22.8435556,4.24190805 L22.8435556,4.24190805 C22.5858161,4.12218391 22.2786667,4.23501916 22.1591801,4.49252107 L22.1591801,4.49252107 C22.1420766,4.53005364 21.7216169,5.44009962 20.9419847,7.45403065 L20.9419847,7.45403065 L20.9415096,7.45569349 C20.9405594,7.45664368 20.9405594,7.45664368 20.9405594,7.45735632 L20.9405594,7.45735632 C20.4417088,8.68809195 18.6313563,10.9763908 17.7968506,10.9763908 L17.7968506,10.9763908 C17.3288812,10.9763908 17.2129579,10.7927663 17.174,10.731954 L17.174,10.731954 C16.9920383,10.4438084 17.0782682,9.90742529 17.2103448,9.63281992 L17.2103448,9.63281992 C17.2226973,9.60597701 17.2314866,9.57747126 17.2398008,9.55015326 L17.2398008,9.55015326 C17.4443295,9.16675096 17.7039693,8.58570881 18.0579157,7.78612261 L18.0579157,7.78612261 L18.3572261,7.11148659 C18.8244828,6.06770115 19.3171571,5.04363218 19.3221456,5.03294253 L19.3221456,5.03294253 C19.4451954,4.777341 19.3371111,4.47019157 19.0807969,4.34714176 L19.0807969,4.34714176 C18.8237701,4.22290421 18.5161456,4.33170115 18.3928582,4.58754023 L18.3928582,4.58754023 C18.3897701,4.59442912 18.1695632,5.05289655 17.883318,5.66814559 L17.883318,5.66814559 C17.8080153,5.47003065 17.7065824,5.27927969 17.5726054,5.10777011 L17.5726054,5.10777011 C17.2226973,4.66141762 16.7003295,4.41650575 16.0615632,4.39868966 L16.0615632,4.39868966 C14.4049042,4.36448276 12.8335249,5.99073563 12.1524751,7.6348046 L12.1524751,7.6348046 C12.0648199,7.84574713 11.985954,8.08210728 11.9206284,8.33153257 L11.9206284,8.33153257 C11.9011494,8.36882759 11.884046,8.40683525 11.8743065,8.44935632 L11.8743065,8.44935632 C11.8686054,8.47239847 11.2687969,10.7690115 9.86275096,10.9210421 L9.86275096,10.9210421 C9.54158621,10.9550115 9.29002299,10.9459847 9.10022222,10.7896782 L9.10022222,10.7896782 C8.85245977,10.5860996 8.6909272,10.1254943 8.63296552,9.45845977 L8.63296552,9.45845977 C8.55433716,8.55981609 8.25668966,7.91748659 7.86283525,7.46115709 L7.86283525,7.46115709 C7.93291188,7.45284291 8.00583908,7.44785441 8.07163985,7.43645211 L8.07163985,7.43645211 C9.76393103,7.14094253 10.5540153,6.25180077 10.9184138,5.55768582 L10.9184138,5.55768582 C11.559318,4.34120307 11.3429119,2.94157088 10.926728,2.03627586 L10.926728,2.03627586 C10.5029425,1.11245211 9.57698084,0.420712644 8.38781609,0.138743295 L8.38781609,0.138743295 C8.01272797,0.0496628352 7.63526437,0.00619142412 7.26563985,0.00619142412 L7.26563985,0.00619142412 C6.31497318,0.00595402299 5.41514176,0.294099617 4.73171648,0.838559387 L4.73171648,0.838559387 Z M13.7863295,10.977341 C13.4207433,10.957387 13.173931,10.826023 13.0090728,10.563295 L13.0090728,10.563295 C12.6750805,10.0338008 12.7152261,8.96673563 13.1043295,8.02747126 L13.1043295,8.02747126 C13.7136398,6.55895019 14.9750192,5.42655939 15.9938621,5.42655939 L15.9938621,5.42655939 L16.0328199,5.42655939 C16.4727586,5.43914943 16.658046,5.61137165 16.759954,5.73964751 L16.759954,5.73964751 C17.1637854,6.25370115 17.0519004,7.29914943 16.9749349,7.65927203 L16.9749349,7.65927203 C16.9708966,7.67542529 16.9685211,7.6903908 16.9666207,7.70583142 L16.9666207,7.70583142 C16.650682,8.4175249 16.3444828,9.08931034 16.1724981,9.32970881 L16.1724981,9.32970881 C15.69859,9.99246743 14.9916475,10.979954 13.8858621,10.979954 L13.8858621,10.979954 C13.8528429,10.979954 13.8198238,10.9792414 13.7863295,10.977341 L13.7863295,10.977341 Z" id="path-21"></path>
    </defs>
    <g id="Symbols" stroke="none" stroke-width="1" fill="none" fill-rule="evenodd">
        <g id="contents/header" transform="translate(-1087.000000, -86.000000)">
            <polygon id="Line-8" fill="#C9A063" fill-rule="nonzero" opacity="0.600000024" points="1087 105 1275 105 1275 104 1087 104"></polygon>
            <g id="Group-76" transform="translate(1088.000000, 87.000000)">
                <path d="M26.3822115,3.3196046 C28.3761885,3.3196046 29.8651387,4.84775019 29.8651387,6.72509119 C29.8651387,8.60029425 28.3761885,10.12939 26.3822115,10.12939 C24.4172153,10.12939 22.8988092,8.60029425 22.8988092,6.72509119 C22.8988092,4.84775019 24.4172153,3.3196046 26.3822115,3.3196046 M26.3822115,11.8580261 C29.3736521,11.8580261 31.7422421,9.56568889 31.7422421,6.72509119 C31.7422421,3.88093027 29.3736521,1.58883065 26.3822115,1.58883065 C23.3888705,1.58883065 21.0048398,3.88093027 21.0048398,6.72509119 C21.0048398,9.56568889 23.3888705,11.8580261 26.3822115,11.8580261" id="Fill-1" fill="#512800"></path>
                <path d="M5.40283678,3.3196046 C7.39681379,3.3196046 8.88576398,4.84775019 8.88576398,6.72509119 C8.88576398,8.60029425 7.39681379,10.12939 5.40283678,10.12939 C3.43784061,10.12939 1.91967203,8.60029425 1.91967203,6.72509119 C1.91967203,4.84775019 3.43784061,3.3196046 5.40283678,3.3196046 M5.40283678,11.8580261 C8.39427739,11.8580261 10.7633425,9.56568889 10.7633425,6.72509119 C10.7633425,3.88093027 8.39427739,1.58883065 5.40283678,1.58883065 C2.40997088,1.58883065 0.0259402299,3.88093027 0.0259402299,6.72509119 C0.0259402299,9.56568889 2.40997088,11.8580261 5.40283678,11.8580261" id="Fill-6" fill="#512800"></path>
                <path d="M14.8446529,3.53836245 L12.3532506,3.53836245 C12.2081088,3.53836245 12.1354192,3.46543525 12.1354192,3.32076858 L12.1354192,1.88669195 C12.1354192,1.74202529 12.2081088,1.66909808 12.3532506,1.66909808 L19.3908444,1.66909808 C19.5357487,1.66909808 19.6089134,1.74202529 19.6089134,1.88669195 L19.6089134,3.32076858 C19.6089134,3.46543525 19.5357487,3.53836245 19.3908444,3.53836245 L16.8994421,3.53836245 L16.8994421,11.7601326 C16.8994421,11.905987 16.8265149,11.977964 16.6811356,11.977964 L15.0624843,11.977964 C14.9175801,11.977964 14.8446529,11.905987 14.8446529,11.7601326 L14.8446529,3.53836245 Z" id="Fill-11" fill="#512800"></path>
                <path d="M35.6693126,7.87641456 L35.6693126,11.7603226 C35.6693126,11.9059395 35.5968605,11.9779165 35.4512437,11.9779165 L33.8323548,11.9779165 C33.6874506,11.9779165 33.6145234,11.9059395 33.6145234,11.7603226 L33.6145234,1.88711954 C33.6145234,1.74197778 33.6874506,1.66952567 33.8323548,1.66952567 L40.5799027,1.66952567 C40.7250444,1.66952567 40.797259,1.74197778 40.797259,1.88711954 L40.797259,3.32119617 C40.797259,3.46586284 40.7250444,3.53855249 40.5799027,3.53855249 L35.6693126,3.53855249 L35.6693126,6.06178621 L39.5612973,6.06178621 C39.7071517,6.06178621 39.7784161,6.13400077 39.7784161,6.27938008 L39.7784161,7.65882069 C39.7784161,7.80348736 39.7071517,7.87641456 39.5612973,7.87641456 L35.6693126,7.87641456 Z" id="Fill-16" fill="#512800"></path>
                <path d="M42.3447648,7.42241303 L42.3447648,1.88707203 C42.3447648,1.74240536 42.4172169,1.66947816 42.5623586,1.66947816 L44.1812475,1.66947816 C44.3268644,1.66947816 44.3990789,1.74240536 44.3990789,1.88707203 L44.3990789,7.42241303 C44.3990789,9.31044368 44.9998375,10.2542215 46.6911785,10.2542215 C48.3820444,10.2542215 48.9818529,9.31044368 48.9818529,7.42241303 L48.9818529,1.88707203 C48.9818529,1.74240536 49.0545425,1.66947816 49.1999218,1.66947816 L50.8180981,1.66947816 C50.9639525,1.66947816 51.0366421,1.74240536 51.0366421,1.88707203 L51.0366421,7.42241303 C51.0366421,10.2725126 49.5821364,12.0693249 46.6726498,12.0693249 C43.7812169,12.0693249 42.3447648,10.2725126 42.3447648,7.42241303" id="Fill-21" fill="#512800"></path>
                <g id="Group-25" transform="translate(42.283525, 1.520132)">
                    <mask id="mask-2" fill="white">
                        <use xlink:href="#path-1"></use>
                    </mask>
                    <g id="Clip-24"></g>
                </g>
                <path d="M95.5262743,12.183823 C92.5398222,12.183823 90.113508,9.76154713 90.113508,6.78008352 C90.113508,3.79861992 92.5398222,1.37681916 95.5262743,1.37681916 C97.0204506,1.37681916 98.3827877,1.97306437 99.3531709,2.94249732 C99.4099448,3.01637471 99.428236,3.07291111 99.428236,3.12873487 C99.428236,3.18432107 99.4099448,3.24014483 99.3531709,3.29573103 L98.2901441,4.32098774 C98.2521364,4.35828276 98.2150789,4.37728659 98.1594927,4.37728659 C98.0844276,4.37728659 98.0096,4.33927893 97.9535387,4.28345517 C97.2815157,3.66891877 96.4793165,3.3337387 95.5084582,3.3337387 C93.5669793,3.3337387 92.2219831,4.9169954 92.2219831,6.83614483 C92.2219831,8.77406054 93.5669793,10.3204973 95.5084582,10.3204973 C96.7026115,10.3204973 97.692236,9.76154713 98.3644966,8.94129425 C98.421033,8.88618314 98.4951479,8.84888812 98.5695004,8.84888812 C98.6257992,8.84888812 98.6626192,8.86717931 98.7001517,8.90399923 L99.6895387,9.87319464 C99.7456,9.92901839 99.7646038,9.9846046 99.7646038,10.041141 C99.7646038,10.0974398 99.7456,10.1532636 99.6895387,10.2280912 C98.7001517,11.4196314 97.1881594,12.183823 95.5262743,12.183823" id="Fill-26" fill="#512800"></path>
                <g id="Group-30" transform="translate(90.030651, 1.282584)">
                    <mask id="mask-4" fill="white">
                        <use xlink:href="#path-3"></use>
                    </mask>
                    <g id="Clip-29"></g>
                </g>
                <path d="M110.085585,1.73124061 L110.085585,11.8671716 C110.085585,12.0161142 110.01052,12.0907042 109.861577,12.0907042 L108.19993,12.0907042 C108.050512,12.0907042 107.974972,12.0161142 107.974972,11.8671716 L107.974972,7.87969272 L103.831424,7.87969272 L103.831424,11.8671716 C103.831424,12.0161142 103.755884,12.0907042 103.607416,12.0907042 L101.945293,12.0907042 C101.796351,12.0907042 101.721523,12.0161142 101.721523,11.8671716 L101.721523,1.73124061 C101.721523,1.58182299 101.796351,1.50770805 101.945293,1.50770805 L103.607416,1.50770805 C103.755884,1.50770805 103.831424,1.58182299 103.831424,1.73124061 L103.831424,6.01636705 L107.974972,6.01636705 L107.974972,1.73124061 C107.974972,1.58182299 108.050512,1.50770805 108.19993,1.50770805 L109.861577,1.50770805 C110.01052,1.50770805 110.085585,1.58182299 110.085585,1.73124061" id="Fill-31" fill="#512800"></path>
                <g id="Group-35" transform="translate(101.670498, 1.482584)">
                    <mask id="mask-6" fill="white">
                        <use xlink:href="#path-5"></use>
                    </mask>
                    <g id="Clip-34"></g>
                </g>
                <path d="M120.946916,6.83621609 C120.946916,4.91682912 119.56605,3.33380996 117.624808,3.33380996 C115.683092,3.33380996 114.338333,4.91682912 114.338333,6.83621609 C114.338333,8.7736567 115.683092,10.3208061 117.624808,10.3208061 C119.56605,10.3208061 120.946916,8.7736567 120.946916,6.83621609 M123.057529,6.78015479 C123.057529,9.76138084 120.629552,12.1843693 117.642625,12.1843693 C114.656172,12.1843693 112.229621,9.76138084 112.229621,6.78015479 C112.229621,3.79916628 114.656172,1.37736552 117.642625,1.37736552 C120.629552,1.37736552 123.057529,3.79916628 123.057529,6.78015479" id="Fill-36" fill="#512800"></path>
                <g id="Group-40" transform="translate(112.122605, 1.282584)">
                    <mask id="mask-8" fill="white">
                        <use xlink:href="#path-7"></use>
                    </mask>
                    <g id="Clip-39"></g>
                </g>
                <path d="M130.147953,12.183823 C127.160789,12.183823 124.734237,9.76154713 124.734237,6.78008352 C124.734237,3.79861992 127.160789,1.37681916 130.147953,1.37681916 C131.641417,1.37681916 133.003516,1.97306437 133.974612,2.94249732 C134.030911,3.01637471 134.049202,3.07291111 134.049202,3.12873487 C134.049202,3.18432107 134.030911,3.24014483 133.974612,3.29573103 L132.910398,4.32098774 C132.873103,4.35828276 132.836045,4.37728659 132.779746,4.37728659 C132.705394,4.37728659 132.631041,4.33927893 132.574743,4.28345517 C131.902482,3.66891877 131.100045,3.3337387 130.128949,3.3337387 C128.187946,3.3337387 126.843425,4.9169954 126.843425,6.83614483 C126.843425,8.77406054 128.187946,10.3204973 130.128949,10.3204973 C131.324053,10.3204973 132.312965,9.76154713 132.985225,8.94129425 C133.041287,8.88618314 133.116114,8.84888812 133.191179,8.84888812 C133.246766,8.84888812 133.283585,8.86717931 133.321593,8.90399923 L134.310505,9.87319464 C134.367041,9.92901839 134.385095,9.9846046 134.385095,10.041141 C134.385095,10.0974398 134.367041,10.1532636 134.310505,10.2280912 C133.321593,11.4196314 131.809126,12.183823 130.147953,12.183823" id="Fill-41" fill="#512800"></path>
                <g id="Group-45" transform="translate(124.712644, 1.282584)">
                    <mask id="mask-10" fill="white">
                        <use xlink:href="#path-9"></use>
                    </mask>
                    <g id="Clip-44"></g>
                </g>
                <path d="M144.594523,6.83621609 C144.594523,4.91682912 143.212707,3.33380996 141.270991,3.33380996 C139.329749,3.33380996 137.985466,4.91682912 137.985466,6.83621609 C137.985466,8.7736567 139.329749,10.3208061 141.270991,10.3208061 C143.212707,10.3208061 144.594523,8.7736567 144.594523,6.83621609 M146.703711,6.78015479 C146.703711,9.76138084 144.276447,12.1843693 141.289995,12.1843693 C138.30283,12.1843693 135.876278,9.76138084 135.876278,6.78015479 C135.876278,3.79916628 138.30283,1.37736552 141.289995,1.37736552 C144.276447,1.37736552 146.703711,3.79916628 146.703711,6.78015479" id="Fill-46" fill="#512800"></path>
                <g id="Group-50" transform="translate(135.839847, 1.282584)">
                    <mask id="mask-12" fill="white">
                        <use xlink:href="#path-11"></use>
                    </mask>
                    <g id="Clip-49"></g>
                </g>
                <path d="M156.221614,11.8671716 C156.221614,12.0161142 156.146786,12.0907042 155.997369,12.0907042 L149.071422,12.0907042 C148.922005,12.0907042 148.846939,12.0161142 148.846939,11.8671716 L148.846939,1.73124061 C148.846939,1.58182299 148.922005,1.50770805 149.071422,1.50770805 L150.733307,1.50770805 C150.881775,1.50770805 150.95684,1.58182299 150.95684,1.73124061 L150.95684,10.2088498 L155.997369,10.2088498 C156.146786,10.2088498 156.221614,10.2834398 156.221614,10.4323824 L156.221614,11.8671716 Z" id="Fill-51" fill="#512800"></path>
                <g id="Group-55" transform="translate(148.704981, 1.482584)">
                    <mask id="mask-14" fill="white">
                        <use xlink:href="#path-13"></use>
                    </mask>
                    <g id="Clip-54"></g>
                </g>
                <path d="M163.779984,7.91677395 L162.716007,5.69950192 L161.650842,7.91677395 L163.779984,7.91677395 Z M164.694068,9.79862835 L160.736758,9.79862835 L159.747133,11.8669579 C159.691547,11.9973716 159.598191,12.0904904 159.448298,12.0904904 L157.637946,12.0904904 C157.48829,12.0904904 157.413938,12.0159004 157.413938,11.8669579 L162.435463,1.58137165 C162.528582,1.48825287 162.621938,1.45095785 162.716007,1.45095785 C162.809363,1.45095785 162.902007,1.48825287 162.995838,1.58137165 L168.017363,11.8669579 C168.017363,12.0159004 167.942536,12.0904904 167.793356,12.0904904 L165.982766,12.0904904 C165.833348,12.0904904 165.739279,11.9973716 165.684168,11.8669579 L164.694068,9.79862835 Z" id="Fill-56" fill="#512800"></path>
                <g id="Group-60" transform="translate(157.256705, 1.282584)">
                    <mask id="mask-16" fill="white">
                        <use xlink:href="#path-15"></use>
                    </mask>
                    <g id="Clip-59"></g>
                </g>
                <path d="M171.729738,3.42633487 L169.172297,3.42633487 C169.022642,3.42633487 168.948052,3.35174483 168.948052,3.20351494 L168.948052,1.73095556 C168.948052,1.58130038 169.022642,1.50742299 169.172297,1.50742299 L176.396841,1.50742299 C176.546021,1.50742299 176.620374,1.58130038 176.620374,1.73095556 L176.620374,3.20351494 C176.620374,3.35174483 176.546021,3.42633487 176.396841,3.42633487 L173.838926,3.42633487 L173.838926,11.8668866 C173.838926,12.0163042 173.764098,12.0913693 173.614918,12.0913693 L171.953746,12.0913693 C171.803853,12.0913693 171.729738,12.0163042 171.729738,11.8668866 L171.729738,3.42633487 Z" id="Fill-61" fill="#512800"></path>
                <g id="Group-65" transform="translate(168.896552, 1.482584)">
                    <mask id="mask-18" fill="white">
                        <use xlink:href="#path-17"></use>
                    </mask>
                    <g id="Clip-64"></g>
                </g>
                <path d="M178.48522,1.73124061 C178.48522,1.58182299 178.560048,1.50770805 178.708515,1.50770805 L185.635174,1.50770805 C185.784829,1.50770805 185.859657,1.58182299 185.859657,1.73124061 L185.859657,3.20284981 C185.859657,3.35179234 185.784829,3.42661992 185.635174,3.42661992 L180.595358,3.42661992 L180.595358,6.01636705 L184.589488,6.01636705 C184.739381,6.01636705 184.814446,6.09071954 184.814446,6.23989962 L184.814446,7.65592261 C184.814446,7.80486513 184.739381,7.87969272 184.589488,7.87969272 L180.595358,7.87969272 L180.595358,10.1710797 L185.635174,10.1710797 C185.784829,10.1710797 185.859657,10.2454322 185.859657,10.3955625 L185.859657,11.8671716 C185.859657,12.0161142 185.784829,12.0907042 185.635174,12.0907042 L178.708515,12.0907042 C178.560048,12.0907042 178.48522,12.0161142 178.48522,11.8671716 L178.48522,1.73124061 Z" id="Fill-66" fill="#512800"></path>
                <g id="Group-70" transform="translate(178.398467, 1.482584)">
                    <mask id="mask-20" fill="white">
                        <use xlink:href="#path-19"></use>
                    </mask>
                    <g id="Clip-69"></g>
                </g>
                <path d="M68.4221548,11.03459 C68.0568061,11.014636 67.8099939,10.883272 67.6451356,10.6205441 C67.3111433,10.0908123 67.3512889,9.02422222 67.7403923,8.08472031 C68.3494651,6.61619923 69.611082,5.48380843 70.6299249,5.48380843 L70.6688828,5.48380843 C71.1088215,5.49639847 71.2941088,5.66862069 71.3960169,5.79689655 C71.7998483,6.31095019 71.6879632,7.35639847 71.6109977,7.71652107 C71.6069594,7.73267433 71.6043464,7.74763985 71.6026835,7.76331801 C71.2867448,8.47477395 70.9805456,9.14679693 70.8085609,9.38695785 C70.3204,10.069433 69.5854268,11.0963525 68.4221548,11.03459 M85.4018406,8.13222989 C85.148377,8.00395402 84.8379019,8.10562452 84.7096261,8.35885057 C84.3533042,9.05937931 83.5734345,10.1034023 83.0294498,10.1190805 C82.8277716,10.1252567 82.6966452,10.0829732 82.628469,9.99721839 C82.5415264,9.88628352 82.537013,9.69933333 82.5612429,9.58958621 C83.0615188,8.35671264 83.2482314,7.90418391 83.2529824,7.89206897 C84.0228751,5.90498084 84.4447602,4.990659 84.4483234,4.98163218 C84.5680475,4.72389272 84.4554498,4.41793103 84.1967602,4.29915709 C83.9387831,4.1796705 83.6323464,4.2922682 83.5133349,4.54977011 C83.4955188,4.58730268 83.0755341,5.49734866 82.2956644,7.51127969 C82.2956644,7.51127969 82.105151,7.97188506 81.5882467,9.24822989 C81.0753808,10.5167356 80.5420858,11.0338774 79.7522391,11.0338774 C79.2835571,11.0338774 79.1671586,10.8502529 79.1293885,10.7892031 C78.9479019,10.5010575 79.0334192,9.96491188 79.1654958,9.69006897 C79.183787,9.65111111 79.1959019,9.61120307 79.2042161,9.57129502 C79.6973655,8.35243678 79.8826529,7.90370881 79.8869287,7.89206897 C80.6572966,5.90498084 81.078469,4.990659 81.0825073,4.98163218 C81.2022314,4.72389272 81.0893962,4.41793103 80.8311816,4.29915709 C80.5736797,4.1796705 80.2665303,4.2922682 80.1468061,4.54977011 C80.1297027,4.58730268 79.7101931,5.49734866 78.9298483,7.51127969 C78.9298483,7.51127969 78.7393349,7.97188506 78.2233808,9.24822989 C77.7086146,10.5167356 77.1772199,11.0338774 76.3861854,11.0338774 C75.9184536,11.0338774 75.8015801,10.8502529 75.7635724,10.7892031 C75.5818483,10.5010575 75.6678406,9.96491188 75.8091816,9.67106513 C75.8155954,9.65895019 75.8212966,9.64588506 75.8260475,9.63377011 C76.3111203,8.43605364 76.5051969,7.96404598 76.5301395,7.90418391 C76.530377,7.90299617 76.5318023,7.90180843 76.5318023,7.8996705 C76.5318023,7.8996705 76.5318023,7.8991954 76.5322774,7.89848276 C76.53299,7.89777011 76.5348904,7.89254406 76.5348904,7.89206897 C77.3047831,5.90498084 77.7266682,4.990659 77.7307065,4.98163218 C77.8501931,4.72389272 77.7373579,4.41793103 77.4796184,4.29915709 C77.2218789,4.1796705 76.9147295,4.2922682 76.7952429,4.54977011 C76.7781395,4.58730268 76.3574421,5.49734866 75.5780475,7.51127969 L75.5775724,7.51318008 C75.5766222,7.51389272 75.5766222,7.51389272 75.5766222,7.51460536 C75.0780092,8.745341 73.2674192,11.0338774 72.4329134,11.0338774 C71.9647065,11.0338774 71.8490207,10.8502529 71.8100628,10.7892031 C71.6281011,10.5010575 71.7140935,9.96491188 71.8464077,9.69006897 C71.8587602,9.66322605 71.8675494,9.63472031 71.8758636,9.6074023 C72.0803923,9.224 72.3400322,8.64295785 72.693741,7.84337165 L72.9930513,7.16897318 C73.4605456,6.12495019 73.9529824,5.10088123 73.9582084,5.09042912 C74.0810207,4.83459004 73.9731739,4.52744061 73.7168598,4.40462835 C73.459833,4.28015326 73.1522084,4.38895019 73.0289211,4.64502682 C73.025833,4.65167816 72.8056261,5.11038314 72.5193808,5.72539464 C72.4443157,5.52727969 72.3426452,5.33676628 72.2084307,5.1652567 C71.8587602,4.71866667 71.3363923,4.47375479 70.6976261,4.45617625 C69.040967,4.4217318 67.4695877,6.04798467 66.7885379,7.69205364 C66.7008828,7.90299617 66.6220169,8.13935632 66.5566912,8.38878161 C66.5372123,8.42631418 66.5201088,8.46408429 66.5103693,8.50636782 C66.5046682,8.52964751 65.9048598,10.8262605 64.4985762,10.9782912 C64.177649,11.0122605 63.9258483,11.0032337 63.7360475,10.8469272 C63.4885226,10.6435862 63.32699,10.1827433 63.2690284,9.51547126 C63.1904,8.61706513 62.8927525,7.97473563 62.4988981,7.51840613 C62.5687372,7.51009195 62.6419019,7.505341 62.7077027,7.4939387 C64.3997563,7.19819157 65.1903157,6.30904981 65.5544766,5.61517241 C66.1953808,4.39845211 65.9789747,2.99881992 65.5627908,2.0935249 C65.1390054,1.1699387 64.2130437,0.478199234 63.0236414,0.195992337 C61.6838713,-0.121846743 60.3170207,0.139931034 59.3677793,0.895808429 C57.0022774,2.78075096 58.0854958,5.7862069 58.1332429,5.91377011 C58.2323004,6.17982375 58.5273349,6.31427586 58.7943387,6.21688123 C59.0608674,6.1185364 59.1972199,5.82350192 59.0993502,5.55697318 C59.063718,5.45720307 58.2334881,3.11545594 60.0108215,1.6996705 C60.7037487,1.1471341 61.7672506,0.954957854 62.7851433,1.19678161 C63.6640705,1.40582375 64.3346682,1.88852107 64.6266146,2.52277395 C64.9397027,3.20524904 65.1085992,4.24998467 64.6422927,5.13651341 C64.2676797,5.84891954 63.5571739,6.30121073 62.5297793,6.48127203 C61.9059785,6.58935632 61.0196874,6.52403065 60.5248751,6.47200766 C60.7253655,5.85034483 60.8887985,5.26859004 61.0070973,4.78684291 C61.3648444,3.33851341 61.9684536,3.14491188 62.0138253,3.13232184 C62.2848674,3.09241379 62.478469,2.84607663 62.4502008,2.57075862 C62.4207448,2.28831418 62.1670437,2.08521073 61.8850743,2.11252874 C61.7508598,2.12606897 60.5569441,2.31135632 60.0067831,4.54050575 C59.2157487,7.74455172 57.7783464,10.7070115 56.8692506,11.0096475 C56.5815801,11.1046667 56.1886759,11.1742682 55.9466146,10.9607126 C55.7494498,10.7868276 55.6739096,10.4454713 55.7494498,10.0687203 C55.8055111,9.79055172 55.6240245,9.51927203 55.3444307,9.46368582 C55.0655494,9.4095249 54.7942697,9.58839847 54.7389211,9.86704215 C54.5892659,10.6134176 54.785718,11.3096705 55.2650897,11.7322682 C55.4589287,11.90259 55.8204766,12.1284981 56.3787142,12.1284981 C56.6145992,12.1284981 56.8868291,12.08859 57.1949287,11.9852567 C58.3577257,11.5997165 59.4100628,9.54445211 60.149787,7.55213793 C60.1559632,7.55142529 60.1619019,7.55261303 60.1673655,7.55261303 C60.2438559,7.54596169 62.0530207,7.43526437 62.2421088,9.60431418 C62.3269134,10.5818238 62.6010437,11.2471954 63.0816031,11.6415249 C63.4673808,11.9584138 63.9061318,12.0246897 64.237036,12.0246897 C64.3893042,12.0246897 64.5182927,12.0101992 64.6083234,12.0009349 C65.4820245,11.9066284 66.1172276,11.3685824 66.5699939,10.7561839 C66.6239172,10.9001379 66.6904307,11.0383908 66.7721471,11.1683295 C67.1158789,11.7137395 67.6658023,12.0227893 68.3639556,12.0622222 C68.4216797,12.0653103 68.4772659,12.0669732 68.5326146,12.0669732 C69.5067985,12.0669732 70.2427218,11.5819004 70.7928828,11.0307893 C70.8320782,11.1376858 70.8764996,11.2414943 70.9384996,11.3384138 C71.1468291,11.6686054 71.5756031,12.0626973 72.4329134,12.0626973 C73.1583847,12.0626973 73.9574958,11.4531494 74.6596874,10.6853946 C74.6965073,10.9162912 74.767059,11.1402989 74.8917716,11.3384138 C75.1001011,11.6686054 75.5295877,12.0626973 76.3861854,12.0626973 C77.1966989,12.0626973 77.7865303,11.7078008 78.2155418,11.2564598 C78.2305073,11.2833027 78.241672,11.3122835 78.2573502,11.3384138 C78.4661548,11.6686054 78.8951663,12.0626973 79.7522391,12.0626973 C80.833082,12.0626973 81.5212582,11.4317701 81.959059,10.7820766 C82.1666759,10.9728276 82.4918789,11.1479004 82.9964307,11.1479004 C83.0163847,11.1479004 83.0370513,11.1474253 83.057718,11.1467126 C84.4335954,11.1084674 85.5111126,9.05629119 85.629649,8.82230651 C85.7574498,8.56908046 85.6560169,8.26003065 85.4018406,8.13222989" id="Fill-71" fill="#512800"></path>
                <g id="Group-75" transform="translate(54.636015, 0.057297)">
                    <mask id="mask-22" fill="white">
                        <use xlink:href="#path-21"></use>
                    </mask>
                    <g id="Clip-74"></g>
                </g>
            </g>
        </g>
    </g>
</svg>