<?xml version="1.0" encoding="UTF-8"?>
<svg width="192px" height="18px" viewBox="0 0 192 18" version="1.1" xmlns="http://www.w3.org/2000/svg" xmlns:xlink="http://www.w3.org/1999/xlink">
    <!-- Generator: Sketch 54.1 (76490) - https://sketchapp.com -->
    <title>nav-soy-milk-raw-caramel</title>
    <desc>Created with Sketch.</desc>
    <g id="Symbols" stroke="none" stroke-width="1" fill="none" fill-rule="evenodd">
        <g id="contents/header" transform="translate(-1087.000000, -54.000000)">
            <g id="Group-4" transform="translate(1087.000000, 54.550000)">
                <g id="logo/caramel2" transform="translate(3.778283, 0.000000)" fill="#512700">
                    <g id="Group-49">
                        <g id="Group-47" transform="translate(92.886844, 6.435000) rotate(-270.000000) translate(-92.886844, -6.435000) translate(86.818859, -88.183333)">
                            <path d="M10.3923108,189.10401 C10.3367654,189.10401 10.28122,189.10401 10.2630161,189.08542 L9.07509135,188.459557 C9.01954595,188.4219 9.00134199,188.365177 9.00134199,188.27032 C9.00134199,188.213597 9.00134199,188.156874 9.01954595,188.138284 C9.24266108,187.740267 9.6501496,186.811244 9.6501496,185.37171 C9.6501496,184.481297 9.16797819,183.62854 8.55604526,183.62854 C6.83040374,183.62854 7.47967811,189.236524 3.7693388,189.236524 C1.85839036,189.236524 0.745148532,187.87278 0.745148532,185.428434 C0.745148532,184.140004 1.26372785,182.832984 1.46817226,182.26432 C1.52371766,182.18853 1.57926306,182.131807 1.6721499,182.11274 C1.72816207,182.11274 1.78370747,182.11274 1.80284496,182.131807 L3.06451903,182.699994 C3.15647233,182.718584 3.19381378,182.79485 3.19381378,182.908297 C3.19381378,182.94643 3.17560983,182.984087 3.15647233,183.04081 C3.00804009,183.533684 2.67430093,184.670534 2.67430093,185.37171 C2.67430093,187.05768 3.63864374,187.095814 3.86222564,187.095814 C5.79137804,187.095814 5.12389971,181.50642 8.70401074,181.50642 C10.4296523,181.50642 11.5064862,183.590884 11.5064862,185.106207 C11.5064862,186.451837 11.4135993,187.644934 10.5780845,188.990564 C10.5598805,189.00963 10.4851977,189.10401 10.3923108,189.10401" id="Fill-17"></path>
                            <path d="M6.18136275,171.008838 C4.26948078,171.008838 2.69320503,172.410715 2.69320503,174.381255 C2.69320503,176.351795 4.26948078,177.716015 6.18136275,177.716015 C8.11051515,177.716015 9.65038298,176.351795 9.65038298,174.381255 C9.65038298,172.410715 8.11051515,171.008838 6.18136275,171.008838 M6.12581735,168.868128 C9.09399545,168.868128 11.5062528,171.331065 11.5062528,174.362188 C11.5062528,177.394265 9.09399545,179.856725 6.12581735,179.856725 C3.15670572,179.856725 0.745381916,177.394265 0.745381916,174.362188 C0.745381916,171.331065 3.15670572,168.868128 6.12581735,168.868128" id="Fill-19"></path>
                            <path d="M11.1909043,161.495525 C11.338403,161.495525 11.4135527,161.571315 11.4135527,161.723371 L11.4135527,163.409341 C11.4135527,163.560921 11.338403,163.636711 11.1909043,163.636711 L7.47963144,163.636711 L1.09704497,167.634515 C0.94861273,167.634515 0.874396608,167.558725 0.874396608,167.407145 L0.874396608,165.436605 C0.874396608,165.285025 0.967750221,165.190168 1.09704497,165.133445 L5.17939843,162.575651 L1.09704497,160.112715 C0.967750221,160.055515 0.874396608,159.960658 0.874396608,159.809555 L0.874396608,157.838538 C0.874396608,157.687435 0.94861273,157.611645 1.09704497,157.611645 L7.46142748,161.495525 L11.1909043,161.495525 Z" id="Fill-21"></path>
                            <path d="M5.8659209,149.992652 L11.1908109,149.992652 C11.3387764,149.992652 11.4134593,150.068442 11.4134593,150.220499 L11.4134593,151.906469 C11.4134593,152.058049 11.3387764,152.133839 11.1908109,152.133839 L0.948519376,152.133839 C0.856566068,152.077116 0.818757856,152.020392 0.818757856,151.925536 C0.818757856,151.792546 0.874770023,151.773479 0.948519376,151.698166 L5.45749884,147.301869 C5.60593109,147.207489 5.66194325,147.037319 5.66194325,146.961529 C5.66194325,146.885262 5.60593109,146.715092 5.45749884,146.620236 L0.948519376,142.224416 C0.874770023,142.148626 0.818757856,142.130036 0.818757856,141.997522 C0.818757856,141.902189 0.856566068,141.845466 0.948519376,141.788742 L11.1908109,141.788742 C11.3387764,141.788742 11.4134593,141.864532 11.4134593,142.016112 L11.4134593,143.702559 C11.4134593,143.854139 11.3387764,143.929452 11.1908109,143.929452 L5.8659209,143.929452 L8.64832531,146.752749 C8.7785536,146.885262 8.79675755,146.885262 8.79675755,146.961529 C8.79675755,147.037319 8.7785536,147.037319 8.64832531,147.169832 L5.8659209,149.992652 Z" id="Fill-23"></path>
                            <path d="M11.1909043,136.993237 C11.338403,136.993237 11.4135527,137.069027 11.4135527,137.221084 L11.4135527,138.907054 C11.4135527,139.058634 11.338403,139.134424 11.1909043,139.134424 L1.09704497,139.134424 C0.94861273,139.134424 0.874396608,139.058634 0.874396608,138.907054 L0.874396608,137.221084 C0.874396608,137.069027 0.94861273,136.993237 1.09704497,136.993237 L11.1909043,136.993237 Z" id="Fill-25"></path>
                            <path d="M11.1909043,126.856206 C11.338403,126.856206 11.4135527,126.931996 11.4135527,127.083576 L11.4135527,134.112979 C11.4135527,134.264559 11.338403,134.340349 11.1909043,134.340349 L1.09704497,134.340349 C0.94861273,134.340349 0.874396608,134.264559 0.874396608,134.112979 L0.874396608,132.427009 C0.874396608,132.274952 0.94861273,132.199162 1.09704497,132.199162 L9.53901212,132.199162 L9.53901212,127.083576 C9.53901212,126.931996 9.61369501,126.856206 9.76119372,126.856206 L11.1909043,126.856206 Z" id="Fill-27"></path>
                            <path d="M4.69624681,119.181586 L11.1908576,115.12706 C11.3383563,115.12706 11.413506,115.20285 11.413506,115.35443 L11.413506,117.32497 C11.413506,117.457483 11.3383563,117.571406 11.246403,117.62813 L6.31079754,120.697386 L8.29642887,122.55448 L11.1908576,122.55448 C11.3383563,122.55448 11.413506,122.629793 11.413506,122.78185 L11.413506,124.46782 C11.413506,124.6194 11.3383563,124.69519 11.1908576,124.69519 L1.0969983,124.69519 C0.948566053,124.69519 0.874349932,124.6194 0.874349932,124.46782 L0.874349932,122.78185 C0.874349932,122.629793 0.948566053,122.55448 1.0969983,122.55448 L5.25310111,122.55448 L1.0414529,118.651056 C0.948566053,118.594333 0.874349932,118.48041 0.874349932,118.347896 L0.874349932,116.03654 C0.874349932,115.88496 0.948566053,115.80917 1.0969983,115.80917 L4.69624681,119.181586 Z" id="Fill-29"></path>
                            <path d="M11.5063461,70.5003347 C11.5063461,73.5319347 9.09408881,75.9948713 6.12591071,75.9948713 C3.1563323,75.9948713 0.745008502,73.5319347 0.745008502,70.5003347 C0.745008502,68.9845347 1.33873748,67.601248 2.30308029,66.6164547 C2.37776318,66.5592547 2.43377535,66.540188 2.48932075,66.540188 C2.54486614,66.540188 2.60041154,66.5592547 2.65595694,66.6164547 L3.67631192,67.6961047 C3.71365337,67.734238 3.73185732,67.7718947 3.73185732,67.8290947 C3.73185732,67.904408 3.69544941,67.980198 3.63897048,68.037398 C3.02703755,68.719508 2.69329839,69.5341313 2.69329839,70.5194013 C2.69329839,72.4899413 4.26957413,73.8541613 6.18145611,73.8541613 C8.1106085,73.8541613 9.65000957,72.4899413 9.65000957,70.5194013 C9.65000957,69.3067613 9.09408881,68.3024247 8.2772447,67.6203147 C8.2216993,67.5635913 8.18529139,67.4878013 8.18529139,67.4120113 C8.18529139,67.3548113 8.20349535,67.3171547 8.24083679,67.279498 L9.2051796,66.2751613 C9.260725,66.218438 9.31673717,66.1993713 9.37228257,66.1993713 C9.42782797,66.1993713 9.48337337,66.218438 9.55805626,66.2751613 C10.7450474,67.279498 11.5063461,68.813888 11.5063461,70.5003347" id="Fill-31"></path>
                            <path d="M7.2571231,58.694922 L5.04931017,59.7750487 L7.2571231,60.8551753 L7.2571231,58.694922 Z M9.13166363,57.7663753 L9.13166363,61.7832453 L11.1910443,62.787582 C11.3203391,62.8443053 11.4132259,62.939162 11.4132259,63.090742 L11.4132259,64.9287687 C11.4132259,65.0803487 11.338543,65.1561387 11.1910443,65.1561387 L0.948285992,60.059142 C0.856332684,59.964762 0.81899124,59.8699053 0.81899124,59.7750487 C0.81899124,59.680192 0.856332684,59.5853353 0.948285992,59.4904787 L11.1910443,54.3939587 C11.338543,54.3939587 11.4132259,54.4697487 11.4132259,54.6213287 L11.4132259,56.4593553 C11.4132259,56.6109353 11.3203391,56.705792 11.1910443,56.7625153 L9.13166363,57.7663753 Z" id="Fill-33"></path>
                            <path d="M5.62432175,47.7613803 C5.62432175,47.0792703 5.1048089,46.5301503 4.23335293,46.5301503 C3.36049665,46.5301503 2.80457589,47.0792703 2.80457589,47.7613803 L2.80457589,50.5465437 L5.62432175,50.5465437 L5.62432175,47.7613803 Z M7.55440768,48.7466503 L7.55440768,50.5465437 L11.1909976,50.5465437 C11.3384963,50.5465437 11.4131792,50.6223337 11.4131792,50.7739137 L11.4131792,52.4603603 C11.4131792,52.6119403 11.3384963,52.6877303 11.1909976,52.6877303 L1.09713833,52.6877303 C0.948239316,52.6877303 0.874489962,52.6119403 0.874489962,52.4603603 L0.874489962,47.6098003 C0.874489962,45.8475637 2.28506304,44.3889637 4.21421544,44.3889637 C5.67986715,44.3889637 6.81224646,45.203587 7.31262183,46.3595037 L11.1909976,44.3317637 C11.3384963,44.3317637 11.4131792,44.4075537 11.4131792,44.5591337 L11.4131792,46.5487403 C11.4131792,46.7003203 11.3202924,46.795177 11.1909976,46.8519003 L7.55440768,48.7466503 Z" id="Fill-35"></path>
                            <path d="M7.2571231,36.7328867 L5.04931017,37.8130133 L7.2571231,38.89314 L7.2571231,36.7328867 Z M9.13166363,35.80434 L9.13166363,39.82121 L11.1910443,40.8255467 C11.3203391,40.88227 11.4132259,40.9771267 11.4132259,41.1287067 L11.4132259,42.9667333 C11.4132259,43.1183133 11.338543,43.1941033 11.1910443,43.1941033 L0.948285992,38.0971067 C0.856332684,38.0027267 0.81899124,37.90787 0.81899124,37.8130133 C0.81899124,37.7181567 0.856332684,37.6233 0.948285992,37.5284433 L11.1910443,32.4319233 C11.338543,32.4319233 11.4132259,32.5077133 11.4132259,32.6592933 L11.4132259,34.49732 C11.4132259,34.6489 11.3203391,34.7437567 11.1910443,34.80048 L9.13166363,35.80434 Z" id="Fill-37"></path>
                            <path d="M5.8659209,28.5846513 L11.1908109,28.5846513 C11.3387764,28.5846513 11.4134593,28.6604413 11.4134593,28.8120213 L11.4134593,30.498468 C11.4134593,30.650048 11.3387764,30.725838 11.1908109,30.725838 L0.948519376,30.725838 C0.856566068,30.668638 0.818757856,30.6119147 0.818757856,30.517058 C0.818757856,30.3845447 0.874770023,30.365478 0.948519376,30.289688 L5.45749884,25.893868 C5.60593109,25.799488 5.66194325,25.6288413 5.66194325,25.5530513 C5.66194325,25.4772613 5.60593109,25.3066147 5.45749884,25.211758 L0.948519376,20.8164147 C0.874770023,20.740148 0.818757856,20.721558 0.818757856,20.5890447 C0.818757856,20.494188 0.856566068,20.4374647 0.948519376,20.3807413 L11.1908109,20.3807413 C11.3387764,20.3807413 11.4134593,20.4560547 11.4134593,20.6081113 L11.4134593,22.2940813 C11.4134593,22.4456613 11.3387764,22.5214513 11.1908109,22.5214513 L5.8659209,22.5214513 L8.64832531,25.344748 C8.7785536,25.4772613 8.79675755,25.4772613 8.79675755,25.5530513 C8.79675755,25.6288413 8.7785536,25.6288413 8.64832531,25.7613547 L5.8659209,28.5846513 Z" id="Fill-39"></path>
                            <path d="M1.09704497,17.7265183 C0.94861273,17.7265183 0.874396608,17.6507283 0.874396608,17.4991483 L0.874396608,10.469745 C0.874396608,10.318165 0.94861273,10.242375 1.09704497,10.242375 L2.56316345,10.242375 C2.7115957,10.242375 2.78534505,10.318165 2.78534505,10.469745 L2.78534505,15.5853317 L5.36470535,15.5853317 L5.36470535,11.530805 C5.36470535,11.379225 5.43938824,11.303435 5.58688695,11.303435 L6.99746003,11.303435 C7.14589227,11.303435 7.21964163,11.379225 7.21964163,11.530805 L7.21964163,15.5853317 L9.50260421,15.5853317 L9.50260421,10.469745 C9.50260421,10.318165 9.57635357,10.242375 9.72478581,10.242375 L11.1909043,10.242375 C11.338403,10.242375 11.4135527,10.318165 11.4135527,10.469745 L11.4135527,17.4991483 C11.4135527,17.6507283 11.338403,17.7265183 11.1909043,17.7265183 L1.09704497,17.7265183 Z" id="Fill-41"></path>
                            <path d="M11.1909043,0.388674 C11.338403,0.388674 11.4135527,0.464464 11.4135527,0.616044 L11.4135527,7.64544733 C11.4135527,7.79702733 11.338403,7.87281733 11.1909043,7.87281733 L1.09704497,7.87281733 C0.94861273,7.87281733 0.874396608,7.79702733 0.874396608,7.64544733 L0.874396608,5.95947733 C0.874396608,5.80742067 0.94861273,5.73163067 1.09704497,5.73163067 L9.53901212,5.73163067 L9.53901212,0.616044 C9.53901212,0.464464 9.61369501,0.388674 9.76119372,0.388674 L11.1909043,0.388674 Z" id="Fill-43"></path>
                            <path d="M10.9205989,97.784401 C10.9005279,98.1557243 10.7702996,98.4059743 10.5089095,98.5728077 C9.9809948,98.911241 8.92096453,98.871201 7.9846278,98.4760443 C6.5217767,97.8582843 5.39406506,96.5779577 5.39406506,95.5445443 C5.39406506,95.5311977 5.39406506,95.517851 5.39453183,95.504981 C5.40713457,95.0583443 5.57890522,94.8705377 5.7077332,94.768531 C6.21837746,94.358121 7.25880347,94.4715677 7.61774811,94.549741 C7.63408499,94.5535543 7.64902157,94.5559377 7.66489168,94.5578443 C8.37251206,94.878641 9.04232423,95.188951 9.28084271,95.363411 C9.95999024,95.8586677 10.9826791,96.6051277 10.9205989,97.784401 M8.03177138,80.5567143 C7.9043437,80.8141143 8.0051656,81.1282377 8.25722035,81.259321 C8.9550386,81.6206343 9.99359754,82.411901 10.0094677,82.9629277 C10.0160024,83.1688477 9.97352651,83.301361 9.88810795,83.3709543 C9.77795069,83.4596143 9.59124347,83.4634277 9.48342005,83.438641 C8.25488651,82.9319443 7.80445533,82.742231 7.79231936,82.737941 C5.81462309,81.955731 4.90442537,81.528161 4.89555678,81.5248243 C4.63883434,81.402321 4.33496833,81.518151 4.21640925,81.779841 C4.09738339,82.0405777 4.20894096,82.3523177 4.46566339,82.4724377 C4.50253807,82.4910277 5.40853487,82.9171677 7.41283693,83.708911 C7.41283693,83.708911 7.87260347,83.9014843 9.14267936,84.4272477 C10.4043534,84.9463377 10.9201321,85.4873543 10.9201321,86.288631 C10.9201321,86.7643443 10.7366923,86.882081 10.6764792,86.9211677 C10.3894169,87.105161 9.85636773,87.0188843 9.58190811,86.8844643 C9.54363313,86.864921 9.50395784,86.8530043 9.46474932,86.846331 C8.2506856,86.3448777 7.80445533,86.157071 7.79231936,86.1523043 C5.81462309,85.3710477 4.90442537,84.943001 4.89555678,84.9391877 C4.63883434,84.8176377 4.33496833,84.9320377 4.21640925,85.1942043 C4.09738339,85.4554177 4.20894096,85.766681 4.46566339,85.888231 C4.50253807,85.9063443 5.40853487,86.3320077 7.41283693,87.1232743 C7.41283693,87.1232743 7.87260347,87.316801 9.14267936,87.8411343 C10.4043534,88.3616543 10.9201321,88.9021943 10.9201321,89.7039477 C10.9201321,90.1791843 10.7366923,90.2973977 10.6764792,90.3364843 C10.3894169,90.5209543 9.85636773,90.4332477 9.56417092,90.289771 C9.55156818,90.2835743 9.53803191,90.276901 9.52682948,90.2721343 C8.33423708,89.7802143 7.86373487,89.583351 7.80445533,89.5585643 C7.80352179,89.5580877 7.80212149,89.556181 7.79978765,89.556181 L7.79932088,89.5557043 C7.79932088,89.5557043 7.7932529,89.553321 7.79231936,89.553321 C5.81462309,88.772541 4.90442537,88.3440177 4.89555678,88.340681 C4.63883434,88.2196077 4.33496833,88.333531 4.21640925,88.5956977 C4.09738339,88.856911 4.20894096,89.168651 4.46566339,89.288771 C4.50253807,89.3064077 5.40853487,89.7330243 7.41283693,90.524291 L7.41563754,90.5247677 C7.4161043,90.525721 7.4161043,90.525721 7.41657107,90.525721 C8.642304,91.0314643 10.9201321,92.868061 10.9201321,93.7150977 C10.9201321,94.1898577 10.7366923,94.3075943 10.6764792,94.3476343 C10.3894169,94.5321043 9.85636773,94.445351 9.58190811,94.310931 C9.55483556,94.2975843 9.52822978,94.2885277 9.50069046,94.2804243 C9.11794065,94.0730743 8.53914826,93.8099543 7.74470902,93.451501 L7.07256301,93.1473877 C6.03353731,92.6726277 5.01411586,92.1735577 5.00384697,92.1683143 C4.7489916,92.042951 4.44279176,92.1525843 4.32096529,92.413321 C4.19680499,92.6726277 4.30649548,92.985321 4.56088408,93.111161 C4.56741883,93.1130677 5.02298446,93.3375777 5.63631769,93.6278677 C5.4388748,93.7036577 5.2489002,93.806141 5.07759632,93.943421 C4.63323313,94.2975843 4.39004697,94.827161 4.37184301,95.4759043 C4.33776894,97.156631 5.95698735,98.7506043 7.5930094,99.4412943 C7.80352179,99.5313843 8.03923967,99.6109877 8.28756027,99.677721 C8.32396818,99.6972643 8.36224316,99.7144243 8.40378552,99.7244343 C8.42665716,99.7301543 10.7133539,100.338381 10.8645867,101.765521 C10.8972605,102.091084 10.8888587,102.346578 10.7343584,102.539151 C10.5308476,102.790354 10.0724813,102.953851 9.40780362,103.013911 C8.51440955,103.093038 7.87540408,103.394291 7.42077198,103.794214 C7.41143662,103.723668 7.40723571,103.649308 7.39650005,103.582098 C7.10103586,101.865621 6.21651039,101.063868 5.52569366,100.693974 C4.31536408,100.044278 2.92112788,100.264021 2.02073229,100.684918 C1.10119921,101.116301 0.412716319,102.055334 0.132188715,103.262254 C-0.18428003,104.620754 0.0757097795,106.007854 0.828139894,106.970721 C2.70361396,109.371214 5.69653077,108.271544 5.82302491,108.224831 C6.0876824,108.123301 6.22257837,107.823954 6.12455708,107.553208 C6.02793609,107.282938 5.73293868,107.144228 5.46828119,107.243374 C5.36885959,107.279124 3.03781989,108.121871 1.62818035,106.319594 C1.07832757,105.615558 0.886952669,104.536861 1.12827176,103.504401 C1.33598354,102.612081 1.81675465,101.931401 2.4473583,101.635391 C3.12650583,101.317931 4.16693183,101.146331 5.04959024,101.619184 C5.75907769,102.000041 6.20857533,102.720761 6.38828103,103.763231 C6.49610446,104.395768 6.43029016,105.295714 6.37941244,105.797644 C5.75954446,105.594108 5.18075206,105.428704 4.70138126,105.307631 C3.25953472,104.944888 3.06769305,104.332371 3.05415678,104.285658 C3.01494826,104.012051 2.76896149,103.814711 2.49543541,103.843788 C2.21444103,103.873341 2.01233046,104.130741 2.03940301,104.417694 C2.05293929,104.553068 2.23731267,105.764278 4.45632803,106.322931 C7.64575419,107.126114 10.594328,108.584238 10.896327,109.506588 C10.9910809,109.798308 11.0601626,110.196324 10.8468496,110.442284 C10.6741454,110.642484 10.3338715,110.719228 9.9590567,110.642484 C9.68319678,110.585761 9.4124713,110.770231 9.3569259,111.053371 C9.30231404,111.336511 9.48155297,111.611548 9.75834643,111.667318 C10.5009744,111.819851 11.1945918,111.619651 11.6151498,111.134404 C11.7850534,110.937064 12.0095688,110.570508 12.0095688,110.003751 C12.0095688,109.763034 11.9694267,109.488474 11.8676713,109.175304 C11.4830544,107.996508 9.43767678,106.927344 7.45391252,106.177548 C7.45297898,106.171828 7.45484605,106.166108 7.45484605,106.159911 C7.44877807,106.082214 7.33768727,104.247048 9.49648955,104.054474 C10.469701,103.969151 11.1329784,103.690778 11.5250635,103.203624 C11.8396652,102.811804 11.9054795,102.366598 11.9054795,102.030548 C11.9054795,101.877061 11.8919432,101.745978 11.8830746,101.653504 C11.7887875,100.767858 11.2534045,100.122928 10.6433387,99.6638977 C10.7866365,99.6086043 10.9238663,99.541871 11.0540946,99.458931 C11.5964791,99.110011 11.904546,98.5518343 11.9432877,97.8435077 C11.9465551,97.7848777 11.9479554,97.7281543 11.9479554,97.6719077 C11.9479554,96.683301 11.465784,95.9373177 10.9168648,95.3781877 C11.0232879,95.340531 11.1269104,95.293341 11.2225978,95.231851 C11.5526029,95.0192577 11.9442213,94.585491 11.9442213,93.7150977 C11.9442213,92.9791243 11.3374228,92.1683143 10.5737902,91.4556977 C10.8034401,91.4185177 11.027022,91.3470177 11.2225978,91.2211777 C11.5526029,91.0085843 11.9442213,90.5733877 11.9442213,89.7039477 C11.9442213,88.8816977 11.5908778,88.283481 11.141847,87.847331 C11.167986,87.833031 11.1964588,87.8220677 11.2225978,87.8063377 C11.5526029,87.594221 11.9442213,87.1585477 11.9442213,86.288631 C11.9442213,85.1922977 11.316885,84.4935043 10.6694777,84.0497277 C10.8594523,83.8399943 11.0326232,83.5091877 11.0326232,82.9972477 C11.0326232,82.9777043 11.0326232,82.9562543 11.0321565,82.9348043 C10.994815,81.5386477 8.95130446,80.445651 8.71885396,80.3260077 C8.46586567,80.1958777 8.15966583,80.2988377 8.03177138,80.5567143" id="Fill-45"></path>
                        </g>
                    </g>
                </g>
                <polygon id="Line-8" fill="#C9A063" fill-rule="nonzero" opacity="0.600000024" points="0 17.45 192 17.45 192 16.45 0 16.45"></polygon>
            </g>
        </g>
    </g>
</svg>