<?xml version="1.0" encoding="UTF-8"?>
<svg width="19px" height="271px" viewBox="0 0 19 271" version="1.1" xmlns="http://www.w3.org/2000/svg" xmlns:xlink="http://www.w3.org/1999/xlink">
    <!-- Generator: Sketch 56.2 (81672) - https://sketch.com -->
    <title>title-reason</title>
    <desc>Created with Sketch.</desc>
    <g id="Page-1" stroke="none" stroke-width="1" fill="none" fill-rule="evenodd">
        <g id="top-fix" transform="translate(-122.000000, -2496.000000)" fill-rule="nonzero">
            <g id="Group-20" transform="translate(122.000000, 2489.000000)">
                <path d="M13.656,11.896 L7.88,11.896 C6.84,11.896 5.928,11.944 5.24,11.976 C5.032,11.992 4.968,11.88 4.936,11.656 C4.888,11.336 4.824,10.504 4.792,10.04 C5.512,10.12 6.36,10.152 7.864,10.152 L13.576,10.152 C14.056,10.152 14.232,10.12 14.456,9.992 C14.552,9.928 14.648,9.896 14.728,9.896 C14.824,9.896 14.92,9.928 15,10.008 C15.416,10.344 15.816,10.728 16.088,11.112 C16.168,11.224 16.216,11.32 16.216,11.432 C16.216,11.528 16.168,11.624 16.056,11.736 C15.912,11.88 15.832,12.04 15.688,12.36 C14.904,14.248 13.928,16.008 12.584,17.56 C11.208,19.128 9.656,20.456 8.04,21.368 C7.896,21.464 7.752,21.512 7.608,21.512 C7.48,21.512 7.336,21.464 7.208,21.336 C6.84,20.984 6.312,20.696 5.72,20.456 C8.056,19.272 9.48,18.168 10.952,16.456 C12.2,15.032 13.016,13.672 13.656,11.896 Z M17.208,7.112 C18.168,7.112 18.936,7.864 18.936,8.824 C18.936,9.784 18.168,10.536 17.208,10.536 C16.248,10.536 15.48,9.784 15.48,8.824 C15.48,7.832 16.248,7.112 17.208,7.112 Z M17.208,7.88 C16.664,7.88 16.264,8.28 16.264,8.824 C16.264,9.368 16.664,9.768 17.208,9.768 C17.752,9.768 18.152,9.368 18.152,8.824 C18.152,8.28 17.752,7.88 17.208,7.88 Z M8.472,33.312 L8.424,39.2 C9.656,38.72 10.856,38.16 12.504,37.184 C14.344,36.096 15.448,35.2 16.744,33.92 C16.76,34.656 16.856,35.296 17,35.776 C17.096,36.08 17.048,36.24 16.84,36.416 C15.528,37.52 14.2,38.4 12.84,39.168 C11.624,39.888 10.376,40.512 8.92,41.152 C8.52,41.328 8.232,41.488 8.024,41.664 C7.928,41.744 7.832,41.792 7.736,41.792 C7.64,41.792 7.56,41.744 7.464,41.664 C7.096,41.36 6.776,41.008 6.488,40.576 C6.424,40.496 6.392,40.416 6.392,40.32 C6.392,40.24 6.424,40.144 6.472,40.048 C6.536,39.888 6.536,39.584 6.536,39.136 L6.568,33.12 C6.568,31.808 6.52,31.024 6.392,30.336 C7.288,30.448 8.104,30.576 8.472,30.688 C8.632,30.736 8.728,30.832 8.728,30.992 C8.728,31.072 8.696,31.184 8.648,31.328 C8.536,31.648 8.472,32.176 8.472,33.312 Z M7.816,52.056 C8.008,51.592 8.36,50.776 8.488,50.52 C8.616,50.264 8.696,50.264 8.92,50.312 C10.616,50.632 13.032,51.288 14.616,51.992 C14.872,52.104 14.904,52.184 14.808,52.392 C14.696,52.776 14.408,53.432 14.248,53.784 C14.168,53.976 14.024,53.976 13.864,53.896 C11.992,53.048 9.864,52.424 7.816,52.056 Z M6.744,56.216 C7,55.576 7.272,54.984 7.432,54.696 C7.512,54.52 7.608,54.472 7.848,54.536 C9.544,54.904 11.384,55.464 12.728,56.088 C12.984,56.2 13.016,56.312 12.936,56.552 C12.84,56.856 12.568,57.48 12.408,57.784 C12.328,57.928 12.264,57.992 12.184,57.992 C12.12,57.992 12.056,57.976 11.976,57.928 C10.264,57.112 8.568,56.616 6.744,56.216 Z M6.488,60.968 C6.696,60.472 7.016,59.832 7.224,59.464 C7.304,59.32 7.4,59.224 7.672,59.272 C10.104,59.64 12.776,60.52 15.336,61.768 C15.512,61.848 15.608,61.976 15.496,62.2 C15.304,62.664 15.08,63.112 14.856,63.512 C14.776,63.64 14.712,63.704 14.616,63.704 C14.552,63.704 14.472,63.672 14.392,63.624 C11.8,62.312 9.256,61.496 6.488,60.968 Z M15.064,74.192 L8.152,74.192 C7.24,74.192 6.264,74.256 5.32,74.32 C5.128,74.336 5.064,74.224 5.032,74.08 C4.904,73.632 4.808,72.832 4.744,72.352 C5.832,72.432 6.712,72.464 7.992,72.464 L14.856,72.464 C15.528,72.464 15.8,72.432 15.96,72.368 C16.04,72.336 16.184,72.256 16.264,72.256 C16.392,72.256 16.52,72.352 16.632,72.48 C16.984,72.784 17.288,73.12 17.592,73.488 C17.672,73.584 17.72,73.68 17.72,73.776 C17.72,73.904 17.64,74.016 17.496,74.112 C17.32,74.24 17.192,74.4 17.064,74.576 C16.312,75.712 15.32,76.816 14.248,77.664 C14.152,77.76 14.04,77.808 13.912,77.808 C13.784,77.808 13.64,77.744 13.528,77.648 C13.128,77.328 12.728,77.152 12.2,76.992 C13.48,76.032 14.264,75.344 15.064,74.192 Z M5.704,83.488 C7.448,82.576 8.36,81.712 9.048,80.432 C9.656,79.296 9.832,78.208 9.832,76.656 C9.832,76.064 9.8,75.696 9.672,75.152 C10.456,75.232 11.288,75.344 11.736,75.456 C11.944,75.504 12.008,75.616 12.008,75.76 C12.008,75.856 11.976,75.952 11.928,76.048 C11.816,76.272 11.8,76.432 11.784,76.704 C11.736,78.256 11.576,79.68 10.84,81.104 C10.216,82.304 9.256,83.44 7.928,84.288 C7.784,84.384 7.64,84.448 7.48,84.448 C7.368,84.448 7.256,84.4 7.16,84.304 C6.776,83.968 6.312,83.712 5.704,83.488 Z M9.736,92.424 C10.712,92.712 11.4,92.936 11.896,93.256 C12.008,93.336 12.088,93.416 12.088,93.512 C12.088,93.592 12.04,93.704 11.928,93.832 C11.64,94.2 11.448,94.696 11.272,95.16 C10.376,97.608 9.528,99.96 8.52,102.36 C10.984,102.152 12.328,102.024 14.12,101.752 C13.624,100.872 13.032,99.992 12.344,99.192 C12.824,98.936 13.288,98.664 13.736,98.424 C13.912,98.328 14.008,98.392 14.12,98.52 C15.368,99.976 16.568,101.976 17.352,103.752 C17.4,103.832 17.416,103.896 17.416,103.96 C17.416,104.056 17.352,104.152 17.208,104.232 C16.824,104.488 16.424,104.696 15.992,104.888 C15.928,104.92 15.864,104.936 15.8,104.936 C15.704,104.936 15.624,104.856 15.576,104.712 C15.384,104.264 15.208,103.848 15.016,103.432 C12.456,103.816 10.024,104.088 7.416,104.36 C6.36,104.472 5.928,104.552 5.544,104.744 C5.336,104.84 5.16,104.808 5.08,104.584 C4.952,104.312 4.744,103.512 4.52,102.52 C5.16,102.568 5.832,102.552 6.472,102.536 C7.608,99.672 8.44,97.304 9.272,94.616 C9.528,93.784 9.688,93.224 9.736,92.424 Z M12.376,122.432 C12.28,121.408 12.248,120.432 12.232,119.68 C12.216,119.248 12.2,118.992 12.104,118.544 C12.888,118.624 13.304,118.688 13.848,118.848 C13.992,118.88 14.072,118.96 14.072,119.104 C14.072,119.136 14.04,119.248 13.976,119.44 C13.912,119.632 13.896,119.824 13.912,120.096 C13.912,121.04 13.96,121.728 14.088,122.816 C15.24,123.28 16.024,123.632 16.968,124.304 C17.128,124.416 17.144,124.48 17.064,124.64 C16.824,125.136 16.6,125.536 16.328,125.936 C16.28,126.016 16.232,126.048 16.184,126.048 C16.136,126.048 16.088,126.016 16.024,125.952 C15.32,125.344 14.728,124.992 14.072,124.608 C14.072,126.208 12.92,126.944 11.096,126.944 C9.336,126.944 8.152,126.048 8.152,124.672 C8.152,123.28 9.304,122.336 11.112,122.336 C11.416,122.336 11.864,122.352 12.376,122.432 Z M12.408,123.952 C12.024,123.824 11.592,123.712 11.096,123.712 C10.296,123.712 9.672,124.032 9.672,124.64 C9.672,125.152 10.12,125.408 11.032,125.408 C11.896,125.408 12.424,124.944 12.424,124.272 C12.424,124.128 12.424,124.048 12.408,123.952 Z M9.8,115.744 C10.424,115.68 11.16,115.536 11.784,115.392 C11.928,115.344 11.992,115.344 12.024,115.52 C12.104,115.92 12.152,116.4 12.168,116.816 C12.168,116.96 12.104,116.992 11.976,117.008 C11.112,117.184 10.328,117.296 9.336,117.44 C8.312,120.144 7.368,122.352 6.216,124.304 C6.152,124.416 6.104,124.464 6.04,124.464 C5.992,124.464 5.928,124.432 5.848,124.384 C5.48,124.16 5.016,123.824 4.744,123.568 C4.664,123.504 4.632,123.456 4.632,123.392 C4.632,123.344 4.648,123.28 4.712,123.2 C5.912,121.216 6.76,119.536 7.48,117.616 C6.872,117.648 6.376,117.648 5.88,117.648 C5.528,117.648 5.4,117.648 5,117.632 C4.84,117.632 4.808,117.584 4.776,117.376 C4.696,117.072 4.648,116.544 4.616,116.016 C5.272,116.064 5.64,116.08 6.104,116.08 C6.728,116.08 7.208,116.064 7.944,116 C8.136,115.328 8.248,114.784 8.36,114.208 C8.456,113.648 8.456,113.408 8.456,112.912 C9.144,113.008 9.832,113.104 10.328,113.248 C10.488,113.28 10.584,113.376 10.584,113.488 C10.584,113.616 10.536,113.696 10.44,113.792 C10.344,113.92 10.28,114.064 10.184,114.384 C10.072,114.768 9.944,115.264 9.8,115.744 Z M13.352,117.264 C13.624,116.784 13.864,116.304 14.072,116.016 C14.168,115.856 14.248,115.84 14.408,115.904 C15.352,116.16 16.616,116.8 17.544,117.408 C17.64,117.472 17.688,117.52 17.688,117.584 C17.688,117.632 17.672,117.696 17.624,117.776 C17.464,118.128 17.176,118.624 16.952,118.96 C16.904,119.04 16.856,119.072 16.808,119.072 C16.76,119.072 16.728,119.056 16.664,119.008 C15.72,118.368 14.568,117.664 13.352,117.264 Z M8.136,141.976 L8.136,139.24 C7.336,139.304 6.52,139.368 5.448,139.368 C5.176,139.368 5.096,139.272 5.064,139.032 C5.016,138.728 4.952,138.2 4.888,137.64 C5.304,137.704 5.72,137.72 6.136,137.72 C6.808,137.72 7.496,137.656 8.168,137.592 C8.168,137.064 8.184,136.456 8.184,135.768 C8.184,135.352 8.168,134.888 8.072,134.472 C8.872,134.52 9.544,134.632 9.976,134.76 C10.168,134.808 10.296,134.92 10.296,135.064 C10.296,135.128 10.264,135.208 10.2,135.32 C10.088,135.528 10.008,135.736 9.976,135.944 C9.928,136.36 9.912,136.76 9.896,137.272 C10.6,137.128 11.256,136.92 11.944,136.68 C12.088,136.632 12.2,136.664 12.216,136.824 C12.28,137.224 12.312,137.656 12.312,138.072 C12.312,138.232 12.264,138.28 12.104,138.328 C11.048,138.664 10.776,138.744 9.816,138.936 C9.8,139.704 9.8,140.488 9.784,141.256 C11.288,140.616 12.696,140.36 13.72,140.376 C15.704,140.392 17.128,141.656 17.128,143.576 C17.128,145.624 15.816,146.824 13.656,146.824 C13.192,146.824 12.68,146.76 12.344,146.68 C12.088,146.616 11.992,146.456 11.992,146.2 C11.96,145.848 11.848,145.304 11.512,144.84 C12.28,145.096 12.92,145.128 13.512,145.128 C14.408,145.128 15.24,144.616 15.24,143.48 C15.24,142.44 14.6,141.864 13.48,141.864 C12.568,141.864 11.464,142.104 9.816,142.952 C9.832,143.624 9.848,144.168 9.88,144.872 C9.928,145.576 10.008,146.584 10.008,146.952 C10.008,147.176 10.04,147.416 9.768,147.48 C9.416,147.576 8.904,147.656 8.584,147.672 C8.408,147.688 8.344,147.56 8.2,147.352 C7.768,146.76 6.936,145.992 5.928,145.304 C5.752,145.4 5.56,145.528 5.416,145.656 C5.336,145.736 5.224,145.768 5.144,145.768 C5.016,145.768 4.888,145.672 4.792,145.512 C4.616,145.224 4.296,144.552 4.056,144.024 C4.472,143.928 5,143.752 5.528,143.464 C6.216,143.08 6.968,142.648 8.136,141.976 Z M8.216,143.656 C7.768,143.96 7.224,144.328 6.648,144.744 C7.096,144.984 7.64,145.256 8.152,145.464 C8.28,145.496 8.328,145.48 8.312,145.336 C8.28,144.92 8.248,144.184 8.216,143.656 Z M13.56,137.592 C13.768,137.16 14.024,136.744 14.296,136.344 C14.408,136.168 14.456,136.12 14.568,136.152 C16.04,136.584 17.128,137.256 17.96,138.104 C18.024,138.168 18.056,138.216 18.056,138.264 C18.056,138.312 18.024,138.36 17.992,138.424 C17.784,138.744 17.368,139.24 17.128,139.56 C17.08,139.624 16.856,139.64 16.808,139.56 C15.96,138.616 14.84,138.024 13.56,137.592 Z M4.872,156.88 C5.64,156.976 6.424,157.168 6.904,157.408 C7.048,157.472 7.16,157.584 7.16,157.696 C7.16,157.792 7.112,157.952 7.032,158.144 C6.968,158.336 6.888,159.024 6.888,159.712 C6.888,160.736 6.92,161.888 7.176,163.36 C7.4,164.624 7.816,165.712 8.488,165.712 C9,165.712 9.4,165.152 10.024,163.488 C10.376,164.048 10.728,164.416 11.048,164.72 C11.24,164.896 11.24,165.088 11.16,165.312 C10.552,166.944 9.56,167.808 8.44,167.808 C7.192,167.808 5.88,166.336 5.448,163.632 C5.192,162.112 5.064,160.448 5.064,158.976 C5.064,158.096 5.032,157.616 4.872,156.88 Z M13.064,159.152 C13.672,158.768 14.072,158.544 14.328,158.416 C14.392,158.384 14.456,158.352 14.504,158.352 C14.568,158.352 14.616,158.384 14.68,158.448 C16.136,159.712 17.416,161.92 17.816,163.92 C17.864,164.128 17.768,164.192 17.64,164.272 C17.224,164.544 16.824,164.768 16.392,164.912 C16.2,164.976 16.088,164.928 16.056,164.736 C15.512,162.448 14.696,160.784 13.064,159.152 Z M7.272,176.376 C8.008,176.456 8.776,176.536 9.272,176.664 C9.544,176.728 9.656,176.808 9.656,176.968 C9.656,177.144 9.56,177.336 9.496,177.496 C9.416,177.72 9.352,178.216 9.272,179.448 C9.112,181.912 9.032,183.544 9.032,185.64 C9.032,187.256 9.224,187.624 10.504,187.624 C11.928,187.624 14.152,186.76 16.104,184.68 C16.168,185.288 16.312,185.816 16.472,186.2 C16.552,186.376 16.6,186.488 16.6,186.584 C16.6,186.728 16.536,186.856 16.28,187.08 C14.552,188.664 12.296,189.48 10.216,189.48 C8.168,189.48 7.208,188.664 7.208,186.216 C7.208,183.528 7.352,181.224 7.432,179.304 C7.464,178.36 7.512,177.336 7.272,176.376 Z M10.28,200.256 C10.008,199.68 9.784,199.216 9.528,198.608 C9.304,198.144 9.144,197.808 8.728,197.312 C9.512,197.168 10.2,197.056 10.632,197.056 C11.048,197.056 11.176,197.168 11.176,197.392 C11.176,197.536 11.16,197.696 11.192,197.84 C11.24,198.032 11.304,198.256 11.448,198.64 C11.64,199.12 11.784,199.504 11.992,199.936 C13.448,199.6 14.504,199.264 15.336,198.944 C15.496,198.864 15.544,198.88 15.64,199.056 C15.8,199.36 15.944,199.92 16.04,200.288 C16.088,200.448 16.024,200.528 15.912,200.56 C15.144,200.848 14.216,201.136 12.728,201.488 C13.384,202.672 14.184,203.76 15.176,204.864 C15.304,204.992 15.448,205.104 15.592,205.216 C15.688,205.296 15.752,205.344 15.752,205.424 C15.752,205.536 15.704,205.616 15.656,205.696 C15.544,205.968 15.224,206.48 15.032,206.736 C14.904,206.912 14.824,206.976 14.712,206.976 C14.632,206.976 14.584,206.944 14.456,206.848 C14.248,206.704 14.104,206.592 13.8,206.432 C12.76,205.888 11.592,205.616 10.408,205.616 C8.744,205.616 7.736,206.112 7.736,207.12 C7.736,208.32 9.192,208.816 11.704,208.816 C12.488,208.816 13.432,208.736 14.264,208.592 C14.2,209.232 14.04,209.952 13.928,210.304 C13.88,210.464 13.816,210.496 13.624,210.528 C13.336,210.576 12.52,210.64 11.848,210.64 C8.072,210.64 6.04,209.44 6.04,207.328 C6.04,205.504 7.608,204.224 10.248,204.224 C11.544,204.224 12.44,204.416 13.096,204.656 C12.312,203.92 11.672,203.04 11.032,201.824 C10.024,202 9.096,202.128 7.944,202.224 C7.512,202.256 6.776,202.304 6.376,202.304 C6.232,202.304 6.168,202.208 6.12,202.016 C5.96,201.52 5.88,201.184 5.752,200.576 C6.568,200.608 7.224,200.592 7.752,200.56 C8.424,200.528 9.224,200.432 10.28,200.256 Z M12.088,221.192 L12.024,221.192 C11.656,223.912 10.984,226.408 10.024,228.088 C9.336,229.288 8.504,229.928 7.304,229.928 C5.896,229.928 4.472,228.424 4.472,225.816 C4.472,224.28 5.128,222.808 6.28,221.656 C7.624,220.312 9.32,219.608 11.48,219.608 C15.32,219.608 17.576,221.976 17.576,225.16 C17.576,228.136 15.896,230.008 12.648,230.984 C12.312,231.08 12.168,231.016 11.96,230.696 C11.784,230.424 11.448,230.056 10.84,229.688 C13.544,229.048 15.672,227.928 15.672,224.904 C15.672,223 14.232,221.192 12.088,221.192 Z M10.168,221.288 C9.048,221.512 8.152,221.96 7.432,222.744 C6.664,223.608 6.184,224.68 6.184,225.704 C6.184,227.176 6.776,227.992 7.272,227.992 C7.688,227.992 8.04,227.784 8.472,227.016 C9.176,225.72 9.896,223.416 10.168,221.288 Z M16.024,252.528 L10.152,252.528 C8.568,252.528 8.024,252.56 7.928,252.56 C7.768,252.56 7.752,252.544 7.752,252.384 L7.752,251.248 C7.752,251.088 7.768,251.072 7.928,251.072 C8.024,251.072 8.568,251.104 10.152,251.104 L12.584,251.104 L12.584,249.536 L11.592,249.536 C10.12,249.536 9.624,249.568 9.528,249.568 C9.368,249.568 9.352,249.552 9.352,249.392 L9.352,248.288 C9.352,248.128 9.368,248.112 9.528,248.112 C9.624,248.112 10.12,248.144 11.592,248.144 L12.584,248.144 L12.584,246.768 L11.544,246.768 C10.088,246.768 9.56,246.8 9.464,246.8 C9.288,246.8 9.272,246.784 9.272,246.64 C9.272,246.544 9.304,246.032 9.304,244.864 L9.304,241.312 C9.304,240.176 9.272,239.68 9.272,239.568 C9.272,239.408 9.288,239.392 9.464,239.392 C9.56,239.392 10.088,239.424 11.544,239.424 L15.352,239.424 C16.824,239.424 17.336,239.392 17.448,239.392 C17.608,239.392 17.624,239.408 17.624,239.568 C17.624,239.664 17.592,240.176 17.592,241.312 L17.592,244.864 C17.592,246.032 17.624,246.544 17.624,246.64 C17.624,246.784 17.608,246.8 17.448,246.8 C17.336,246.8 16.824,246.768 15.352,246.768 L14.184,246.768 L14.184,248.144 L15.4,248.144 C16.856,248.144 17.368,248.112 17.464,248.112 C17.624,248.112 17.64,248.128 17.64,248.288 L17.64,249.392 C17.64,249.552 17.624,249.568 17.464,249.568 C17.368,249.568 16.856,249.536 15.4,249.536 L14.184,249.536 L14.184,251.104 L16.024,251.104 C17.592,251.104 18.152,251.072 18.232,251.072 C18.392,251.072 18.408,251.088 18.408,251.248 L18.408,252.384 C18.408,252.544 18.392,252.56 18.232,252.56 C18.152,252.56 17.592,252.528 16.024,252.528 Z M16.072,245.424 L16.072,243.712 L14.184,243.712 L14.184,245.424 L16.072,245.424 Z M16.072,240.784 L14.184,240.784 L14.184,242.4 L16.072,242.4 L16.072,240.784 Z M10.808,245.424 L12.584,245.424 L12.584,243.712 L10.808,243.712 L10.808,245.424 Z M10.808,242.4 L12.584,242.4 L12.584,240.784 L10.808,240.784 L10.808,242.4 Z M7.224,245.392 L7.224,248.24 C7.784,247.984 8.328,247.728 8.888,247.424 C8.872,247.696 8.872,248.112 8.888,248.464 C8.904,248.992 8.904,248.992 8.488,249.232 C7.432,249.792 6.248,250.304 5.032,250.768 C4.776,250.88 4.616,250.944 4.536,251.008 C4.44,251.088 4.376,251.12 4.28,251.12 C4.2,251.12 4.136,251.072 4.072,250.912 C3.928,250.496 3.8,249.984 3.672,249.408 C4.152,249.328 4.616,249.2 5.176,249.024 L5.64,248.864 L5.64,245.392 C4.632,245.392 4.328,245.424 4.232,245.424 C4.072,245.424 4.056,245.408 4.056,245.248 L4.056,244.096 C4.056,243.92 4.072,243.904 4.232,243.904 C4.328,243.904 4.632,243.936 5.64,243.936 L5.64,241.12 L5.544,241.12 C4.472,241.12 4.136,241.152 4.04,241.152 C3.896,241.152 3.88,241.136 3.88,240.976 L3.88,239.808 C3.88,239.632 3.896,239.616 4.04,239.616 C4.136,239.616 4.472,239.648 5.544,239.648 L7.208,239.648 C8.296,239.648 8.632,239.616 8.712,239.616 C8.872,239.616 8.888,239.632 8.888,239.808 L8.888,240.976 C8.888,241.136 8.872,241.152 8.712,241.152 C8.632,241.152 8.296,241.12 7.224,241.12 L7.224,243.936 C8.104,243.936 8.408,243.904 8.504,243.904 C8.664,243.904 8.664,243.92 8.664,244.096 L8.664,245.248 C8.664,245.408 8.664,245.424 8.504,245.424 C8.408,245.424 8.104,245.392 7.224,245.392 Z M6.28,274.168 L4.904,274.168 C4.744,274.168 4.728,274.152 4.728,274.008 C4.728,273.896 4.76,273.16 4.76,269.336 L4.76,266.552 C4.76,263.832 4.728,263.064 4.728,262.968 C4.728,262.808 4.744,262.792 4.904,262.792 C5.016,262.792 5.544,262.824 7.08,262.824 L10.056,262.824 L10.056,261.976 C10.056,261 10.04,260.456 9.928,259.672 C10.536,259.688 11.16,259.72 11.72,259.784 C11.864,259.784 11.96,259.88 11.96,259.976 C11.96,260.088 11.912,260.2 11.864,260.36 C11.816,260.568 11.784,260.872 11.784,261.96 L11.784,262.824 L14.968,262.824 C16.504,262.824 17.032,262.792 17.144,262.792 C17.304,262.792 17.32,262.808 17.32,262.968 C17.32,263.064 17.288,263.832 17.288,266.184 L17.288,269.304 C17.288,273.112 17.32,273.848 17.32,273.944 C17.32,274.088 17.304,274.104 17.144,274.104 L15.752,274.104 C15.592,274.104 15.576,274.088 15.576,273.944 L15.576,273.272 L6.456,273.272 L6.456,274.008 C6.456,274.152 6.44,274.168 6.28,274.168 Z M11.784,271.72 L15.576,271.72 L15.576,268.712 L11.784,268.712 L11.784,271.72 Z M6.456,271.72 L10.056,271.72 L10.056,268.712 L6.456,268.712 L6.456,271.72 Z M15.576,264.376 L11.784,264.376 L11.784,267.192 L15.576,267.192 L15.576,264.376 Z M6.456,264.376 L6.456,267.192 L10.056,267.192 L10.056,264.376 L6.456,264.376 Z" id="プレミアムなおいしさの理由" fill="#512700"></path>
                <polygon id="Line-2" fill="#542B04" transform="translate(0.500000, 142.500000) rotate(-270.000000) translate(-0.500000, -142.500000) " points="-135 143 136 143 136 142 -135 142"></polygon>
            </g>
        </g>
    </g>
</svg>