<?xml version="1.0" encoding="UTF-8"?>
<svg width="155px" height="19px" viewBox="0 0 155 19" version="1.1" xmlns="http://www.w3.org/2000/svg" xmlns:xlink="http://www.w3.org/1999/xlink">
    <!-- Generator: Sketch 56.2 (81672) - https://sketch.com -->
    <title>title-blog</title>
    <desc>Created with Sketch.</desc>
    <g id="Page-1" stroke="none" stroke-width="1" fill="none" fill-rule="evenodd">
        <g id="top-fix" transform="translate(-123.000000, -4513.000000)" fill-rule="nonzero">
            <g id="Group-19" transform="translate(123.000000, 4513.000000)">
                <g id="NEWS-BLOG" transform="translate(0.250000, 0.550000)">
                    <path d="M14.275,17.825 C12.3583237,15.6083222 10.3166775,13.3375116 8.15,11.0125 C5.9833225,8.68748837 3.8166775,6.3750115 1.65,4.075 C1.63333325,4.541669 1.61666675,5.16666275 1.6,5.95 C1.58333325,6.73333725 1.575,7.79999325 1.575,9.15 C1.575,9.5 1.57916662,9.93333075 1.5875,10.45 C1.59583337,10.9666692 1.60416662,11.5083305 1.6125,12.075 C1.62083337,12.6416695 1.63333325,13.2166637 1.65,13.8 C1.66666675,14.3833362 1.68333325,14.9249975 1.7,15.425 C1.71666675,15.9250025 1.73333325,16.3624981 1.75,16.7375 C1.76666675,17.1125019 1.78333325,17.366666 1.8,17.5 C1.533332,17.4666665 1.24166825,17.45 0.925,17.45 C0.591665,17.45 0.28333475,17.4666665 -3.62376795e-13,17.5 C0.0333335,17.3333325 0.070833125,17.0250022 0.1125,16.575 C0.154166875,16.1249977 0.1916665,15.5875031 0.225,14.9625 C0.2583335,14.3374969 0.295833125,13.658337 0.3375,12.925 C0.379166875,12.191663 0.412499875,11.458337 0.4375,10.725 C0.462500125,9.991663 0.48333325,9.2750035 0.5,8.575 C0.51666675,7.8749965 0.525,7.25000275 0.525,6.7 C0.525,5.099992 0.520833375,3.72500575 0.5125,2.575 C0.504166625,1.42499425 0.4833335,0.5666695 0.45,-5.4534155e-13 L0.85,-5.4534155e-13 C1.86667175,1.1000055 2.95416087,2.27916037 4.1125,3.5375 C5.27083912,4.79583962 6.42082762,6.03749387 7.5625,7.2625 C8.70417237,8.48750612 9.78749487,9.64582787 10.8125,10.7375 C11.8375051,11.8291721 12.7333295,12.7583295 13.5,13.525 L13.5,10.125 C13.5,8.37499125 13.4875001,6.67084162 13.4625,5.0125 C13.4374999,3.35415837 13.3833337,1.791674 13.3,0.325 C13.633335,0.40833375 13.9166655,0.45 14.15,0.45 C14.350001,0.45 14.616665,0.40833375 14.95,0.325 C14.9166665,0.6916685 14.8791669,1.241663 14.8375,1.975 C14.7958331,2.708337 14.7541669,3.4916625 14.7125,4.325 C14.6708331,5.1583375 14.6333335,5.974996 14.6,6.775 C14.5666665,7.575004 14.55,8.21666425 14.55,8.7 L14.55,10.2 C14.55,10.7666695 14.5541666,11.3583302 14.5625,11.975 C14.5708334,12.5916697 14.5791666,13.2124969 14.5875,13.8375 C14.5958334,14.4625031 14.6041666,15.0458306 14.6125,15.5875 C14.6208334,16.1291694 14.625,16.599998 14.625,17 L14.625,17.825 L14.275,17.825 Z M21.35,6.775 C21.35,5.6749945 21.3291669,4.591672 21.2875,3.525 C21.2458331,2.458328 21.2000002,1.391672 21.15,0.325 C21.9000037,0.3583335 22.6458296,0.387499875 23.3875,0.4125 C24.1291704,0.437500125 24.8749962,0.45 25.625,0.45 C26.3750037,0.45 27.116663,0.437500125 27.85,0.4125 C28.583337,0.387499875 29.3249962,0.3583335 30.075,0.325 C30.0249997,0.57500125 30,0.825 30,1.075 C30,1.325 30.0249997,1.57499875 30.075,1.825 C29.541664,1.7916665 29.0541689,1.7583335 28.6125,1.725 C28.1708311,1.6916665 27.7041691,1.6583335 27.2125,1.625 C26.7208309,1.5916665 26.1833362,1.56250012 25.6,1.5375 C25.0166637,1.51249987 24.3166707,1.5 23.5,1.5 C23.4833332,2.033336 23.4625001,2.54166425 23.4375,3.025 C23.4124999,3.50833575 23.4,4.05833025 23.4,4.675 C23.4,5.325 23.4041666,5.95833025 23.4125,6.575 C23.4208334,7.19166975 23.425,7.65833175 23.425,7.975 C24.158337,7.975 24.8166637,7.96666675 25.4,7.95 C25.9833362,7.93333325 26.5166642,7.91250012 27,7.8875 C27.4833357,7.86249987 27.9291646,7.83750012 28.3375,7.8125 C28.7458354,7.78749987 29.1333315,7.7583335 29.5,7.725 C29.4499997,7.97500125 29.425,8.233332 29.425,8.5 C29.425,8.75000125 29.4499997,8.99999875 29.5,9.25 C29.0666645,9.19999975 28.5625029,9.1583335 27.9875,9.125 C27.4124971,9.0916665 26.8375029,9.07083337 26.2625,9.0625 C25.6874971,9.05416662 25.1458359,9.04583337 24.6375,9.0375 C24.1291641,9.02916662 23.7250015,9.025 23.425,9.025 C23.425,9.17500075 23.4208334,9.33749912 23.4125,9.5125 C23.4041666,9.68750087 23.4,9.908332 23.4,10.175 L23.4,12.65 C23.4,13.6000047 23.4041666,14.3833302 23.4125,15 C23.4208334,15.6166697 23.4333332,16.0833317 23.45,16.4 L25.2,16.4 C25.8333365,16.4 26.4541636,16.3875001 27.0625,16.3625 C27.6708364,16.3374999 28.2458306,16.3041669 28.7875,16.2625 C29.3291694,16.2208331 29.799998,16.1583337 30.2,16.075 C30.1666665,16.1916672 30.1458334,16.3208326 30.1375,16.4625 C30.1291666,16.6041674 30.125,16.7333327 30.125,16.85 C30.125,17.116668 30.15,17.3333325 30.2,17.5 C29.4499962,17.4666665 28.7041704,17.45 27.9625,17.45 L23.425,17.45 C22.6749962,17.45 21.9166705,17.4666665 21.15,17.5 C21.2000002,16.433328 21.2458331,15.3708386 21.2875,14.3125 C21.3291669,13.2541614 21.35,12.1750055 21.35,11.075 L21.35,6.775 Z M38.825,17.5 C38.691666,17.0833312 38.4875014,16.4250045 38.2125,15.525 C37.9374986,14.6249955 37.6250017,13.608339 37.275,12.475 C36.925,11.341661 36.5583352,10.1541729 36.175,8.9125 C35.7916647,7.67082712 35.425,6.48750562 35.075,5.3625 C34.7249982,4.23749437 34.4041681,3.2250045 34.1125,2.325 C33.8208319,1.4249955 33.5916675,0.7583355 33.425,0.325 C33.6416677,0.3583335 33.849999,0.387499875 34.05,0.4125 C34.250001,0.437500125 34.4583322,0.45 34.675,0.45 C34.8916677,0.45 35.099999,0.437500125 35.3,0.4125 C35.500001,0.387499875 35.7083322,0.3583335 35.925,0.325 C36.2416682,1.591673 36.5499985,2.77916112 36.85,3.8875 C37.1500015,4.99583887 37.4708316,6.12082762 37.8125,7.2625 C38.1541684,8.40417237 38.5208314,9.60416037 38.9125,10.8625 C39.3041686,12.1208396 39.7499975,13.5416587 40.25,15.125 L40.3,15.125 C40.4500007,14.6749977 40.658332,14.0541706 40.925,13.2625 C41.191668,12.4708294 41.4833317,11.5958381 41.8,10.6375 C42.1166682,9.67916187 42.4499982,8.6833385 42.8,7.65 C43.1500017,6.6166615 43.4749985,5.62917137 43.775,4.6875 C44.0750015,3.74582862 44.3416655,2.88750387 44.575,2.1125 C44.8083345,1.33749612 44.9749995,0.74166875 45.075,0.325 C45.408335,0.40833375 45.6833322,0.45 45.9,0.45 C46.1166677,0.45 46.391665,0.40833375 46.725,0.325 C46.8416672,0.77500225 47.0208321,1.39166275 47.2625,2.175 C47.5041679,2.95833725 47.7749985,3.82916187 48.075,4.7875 C48.3750015,5.74583812 48.6958316,6.7416615 49.0375,7.775 C49.3791684,8.8083385 49.7083317,9.79999525 50.025,10.75 C50.3416682,11.7000047 50.6291654,12.5583295 50.8875,13.325 C51.1458346,14.0916705 51.3499992,14.6916645 51.5,15.125 L51.55,15.125 C51.6666672,14.7583315 51.8458321,14.1875039 52.0875,13.4125 C52.3291679,12.6374961 52.6041651,11.7625049 52.9125,10.7875 C53.2208349,9.81249512 53.5374984,8.78750537 53.8625,7.7125 C54.1875016,6.63749462 54.4958319,5.61250487 54.7875,4.6375 C55.0791681,3.66249512 55.3374989,2.7916705 55.5625,2.025 C55.7875011,1.2583295 55.9416662,0.6916685 56.025,0.325 C56.1750007,0.3583335 56.3208326,0.387499875 56.4625,0.4125 C56.6041674,0.437500125 56.7499992,0.45 56.9,0.45 C57.0500007,0.45 57.1958326,0.437500125 57.3375,0.4125 C57.4791674,0.387499875 57.6249992,0.3583335 57.775,0.325 C57.6083325,0.70833525 57.3666682,1.34166225 57.05,2.225 C56.7333317,3.10833775 56.3791686,4.116661 55.9875,5.25 C55.5958314,6.383339 55.1875021,7.583327 54.7625,8.85 C54.3374979,10.116673 53.9291686,11.3208276 53.5375,12.4625 C53.1458314,13.6041724 52.7958349,14.6291621 52.4875,15.5375 C52.1791651,16.4458379 51.9500007,17.099998 51.8,17.5 C51.533332,17.4666665 51.2500015,17.45 50.95,17.45 C50.6499985,17.45 50.366668,17.4666665 50.1,17.5 C49.3499962,15.1833217 48.608337,12.8541784 47.875,10.5125 C47.141663,8.17082162 46.3500042,5.7500125 45.5,3.25 L45.45,3.25 C45.316666,3.63333525 45.1375011,4.14583012 44.9125,4.7875 C44.6874989,5.42916987 44.4375014,6.149996 44.1625,6.95 C43.8874986,7.750004 43.5916682,8.60832875 43.275,9.525 C42.9583317,10.4416712 42.6416682,11.366662 42.325,12.3 C42.0083317,13.233338 41.7000015,14.1499955 41.4,15.05 C41.0999985,15.9500045 40.8250012,16.766663 40.575,17.5 C40.308332,17.4666665 40.0166682,17.45 39.7,17.45 C39.3833317,17.45 39.091668,17.4666665 38.825,17.5 Z M61.7,14.25 C61.833334,14.5500015 62.0124989,14.8541651 62.2375,15.1625 C62.4625011,15.4708349 62.7374984,15.7499987 63.0625,16 C63.3875016,16.2500012 63.7666645,16.4541659 64.2,16.6125 C64.6333355,16.7708341 65.116664,16.85 65.65,16.85 C66.2000027,16.85 66.6958311,16.7541676 67.1375,16.5625 C67.5791689,16.3708324 67.9541651,16.1125016 68.2625,15.7875 C68.5708349,15.4624984 68.8083325,15.0791689 68.975,14.6375 C69.1416675,14.1958311 69.225,13.7250025 69.225,13.225 C69.225,12.4583295 69.0291686,11.8500022 68.6375,11.4 C68.2458314,10.9499977 67.7583362,10.5750015 67.175,10.275 C66.5916637,9.9749985 65.9625034,9.70000125 65.2875,9.45 C64.6124966,9.19999875 63.9833362,8.88750187 63.4,8.5125 C62.8166637,8.13749812 62.3291686,7.65833625 61.9375,7.075 C61.5458314,6.49166375 61.35,5.70833825 61.35,4.725 C61.35,4.0249965 61.4749987,3.38750287 61.725,2.8125 C61.9750012,2.23749712 62.3374976,1.74166875 62.8125,1.325 C63.2875024,0.90833125 63.85833,0.5833345 64.525,0.35 C65.19167,0.1166655 65.9416625,-5.4534155e-13 66.775,-5.4534155e-13 C67.575004,-5.4534155e-13 68.2666637,0.095832375 68.85,0.2875 C69.4333362,0.479167625 69.9749975,0.774998 70.475,1.175 C70.3249992,1.45833475 70.2000005,1.75833175 70.1,2.075 C69.9999995,2.39166825 69.9000005,2.79166425 69.8,3.275 L69.5,3.275 C69.4166662,3.0416655 69.3041674,2.78750137 69.1625,2.5125 C69.0208326,2.23749862 68.8291679,1.9833345 68.5875,1.75 C68.3458321,1.5166655 68.058335,1.32083412 67.725,1.1625 C67.391665,1.00416587 66.991669,0.925 66.525,0.925 C66.058331,0.925 65.6291686,1 65.2375,1.15 C64.8458314,1.30000075 64.5041681,1.51249862 64.2125,1.7875 C63.9208319,2.06250137 63.6958341,2.39166475 63.5375,2.775 C63.3791659,3.15833525 63.3,3.57499775 63.3,4.025 C63.3,4.80833725 63.4958314,5.42499775 63.8875,5.875 C64.2791686,6.32500225 64.7666637,6.70416512 65.35,7.0125 C65.9333362,7.32083487 66.5624966,7.59583212 67.2375,7.8375 C67.9125034,8.07916787 68.5416637,8.37499825 69.125,8.725 C69.7083362,9.07500175 70.1958314,9.52499725 70.5875,10.075 C70.9791686,10.6250027 71.175,11.3583287 71.175,12.275 C71.175,13.0416705 71.0375014,13.7666632 70.7625,14.45 C70.4874986,15.1333367 70.0875026,15.7291641 69.5625,16.2375 C69.0374974,16.7458359 68.3958371,17.1374986 67.6375,17.4125 C66.8791629,17.6875014 66.0166715,17.825 65.05,17.825 C64.0166615,17.825 63.1791699,17.6875014 62.5375,17.4125 C61.8958301,17.1374986 61.3583355,16.8250017 60.925,16.475 C61.0750007,16.0916647 61.1791664,15.7458349 61.2375,15.4375 C61.2958336,15.1291651 61.3499997,14.7333357 61.4,14.25 L61.7,14.25 Z" id="NEWS" fill="#4E2700"></path>
                    <path d="M87.15,11.475 C87.15,12.3250042 87.1666665,13.1666625 87.2,14 C87.2333335,14.8333375 87.2666665,15.6749957 87.3,16.525 C87.6166683,16.5583335 87.9916645,16.5874999 88.425,16.6125 C88.8583355,16.6375001 89.2999978,16.65 89.75,16.65 C90.283336,16.65 90.7958309,16.5583342 91.2875,16.375 C91.7791691,16.1916657 92.2083315,15.9208351 92.575,15.5625 C92.9416685,15.2041649 93.2333323,14.7625026 93.45,14.2375 C93.6666678,13.7124974 93.775,13.11667 93.775,12.45 C93.775,11.7333297 93.6458346,11.1458356 93.3875,10.6875 C93.1291654,10.2291644 92.7583358,9.87083462 92.275,9.6125 C91.7916643,9.35416537 91.2125034,9.1750005 90.5375,9.075 C89.8624966,8.9749995 89.1083375,8.925 88.275,8.925 L87.15,8.925 L87.15,11.475 Z M88.5,8 C89.0833363,8 89.6624971,7.94166725 90.2375,7.825 C90.8125029,7.70833275 91.3249978,7.51250137 91.775,7.2375 C92.2250023,6.96249862 92.5874986,6.59583562 92.8625,6.1375 C93.1375014,5.67916437 93.275,5.1000035 93.275,4.4 C93.275,3.71666325 93.15,3.17083537 92.9,2.7625 C92.65,2.35416462 92.3333353,2.03750112 91.95,1.8125 C91.5666648,1.58749887 91.1333358,1.43750037 90.65,1.3625 C90.1666643,1.28749962 89.6833358,1.25 89.2,1.25 C88.7666645,1.25 88.4000015,1.26249987 88.1,1.2875 C87.7999985,1.31250012 87.5333345,1.3416665 87.3,1.375 C87.2666665,2.175004 87.2333335,2.96666275 87.2,3.75 C87.1666665,4.53333725 87.15,5.324996 87.15,6.125 L87.15,8 L88.5,8 Z M85.1,6.775 C85.1,5.6749945 85.0791669,4.591672 85.0375,3.525 C84.9958331,2.458328 84.9500003,1.391672 84.9,0.325 C85.3333355,0.3583335 85.7749978,0.387499875 86.225,0.4125 C86.6750023,0.437500125 87.1166645,0.45 87.55,0.45 C87.9833355,0.45 88.4249978,0.429166875 88.875,0.3875 C89.3250023,0.345833125 89.7666645,0.325 90.2,0.325 C90.9166703,0.325 91.5916635,0.379166125 92.225,0.4875 C92.8583365,0.595833875 93.4166643,0.787498625 93.9,1.0625 C94.3833358,1.33750137 94.7666653,1.708331 95.05,2.175 C95.3333348,2.641669 95.475,3.2249965 95.475,3.925 C95.475,5.1583395 95.0875039,6.1249965 94.3125,6.825 C93.5374961,7.5250035 92.5250063,8.01666525 91.275,8.3 L91.275,8.35 C92.7583408,8.416667 93.9291624,8.77499675 94.7875,9.425 C95.6458376,10.0750032 96.075,11.1166595 96.075,12.55 C96.075,13.483338 95.8833353,14.2666635 95.5,14.9 C95.1166648,15.5333365 94.6166698,16.0458314 94,16.4375 C93.3833303,16.8291686 92.7041704,17.1041659 91.9625,17.2625 C91.2208296,17.4208341 90.483337,17.5 89.75,17.5 C89.349998,17.5 88.9458354,17.4916667 88.5375,17.475 C88.1291646,17.4583332 87.725002,17.45 87.325,17.45 L86.1125,17.45 C85.7041646,17.45 85.300002,17.4666665 84.9,17.5 C84.9500003,16.433328 84.9958331,15.3708386 85.0375,14.3125 C85.0791669,13.2541614 85.1,12.1750055 85.1,11.075 L85.1,6.775 Z M102.075,6.8 C102.075,5.6999945 102.054167,4.62083862 102.0125,3.5625 C101.970833,2.50416137 101.925,1.4250055 101.875,0.325 C102.091668,0.3583335 102.299999,0.387499875 102.5,0.4125 C102.700001,0.437500125 102.899999,0.45 103.1,0.45 C103.300001,0.45 103.499999,0.437500125 103.7,0.4125 C103.900001,0.387499875 104.108332,0.3583335 104.325,0.325 C104.275,1.4250055 104.229167,2.50416137 104.1875,3.5625 C104.145833,4.62083862 104.125,5.6999945 104.125,6.8 C104.125,8.9000105 104.133333,10.7208256 104.15,12.2625 C104.166667,13.8041744 104.183333,15.1833272 104.2,16.4 C105.383339,16.4 106.516661,16.3875001 107.6,16.3625 C108.683339,16.3374999 109.849994,16.2416675 111.1,16.075 C111.016666,16.3750015 110.975,16.624999 110.975,16.825 C110.975,17.0083342 111.016666,17.233332 111.1,17.5 C110.33333,17.4666665 109.566671,17.45 108.8,17.45 L104.1875,17.45 C103.44583,17.45 102.675004,17.4666665 101.875,17.5 C101.925,16.4666615 101.970833,15.416672 102.0125,14.35 C102.054167,13.283328 102.075,12.2000055 102.075,11.1 L102.075,6.8 Z M114.875,8.95 C114.875,7.53332625 115.104164,6.27083887 115.5625,5.1625 C116.020836,4.05416112 116.662496,3.1166705 117.4875,2.35 C118.312504,1.5833295 119.299994,1 120.45,0.6 C121.600006,0.199998 122.858327,-5.4534155e-13 124.225,-5.4534155e-13 C125.60834,-5.4534155e-13 126.875,0.199998 128.025,0.6 C129.175006,1 130.162496,1.5833295 130.9875,2.35 C131.812504,3.1166705 132.454164,4.05416112 132.9125,5.1625 C133.370836,6.27083887 133.6,7.53332625 133.6,8.95 C133.6,10.3666737 133.370836,11.6291611 132.9125,12.7375 C132.454164,13.8458389 131.812504,14.7833295 130.9875,15.55 C130.162496,16.3166705 129.175006,16.8874981 128.025,17.2625 C126.875,17.6375019 125.60834,17.825 124.225,17.825 C122.858327,17.825 121.600006,17.6375019 120.45,17.2625 C119.299994,16.8874981 118.312504,16.3166705 117.4875,15.55 C116.662496,14.7833295 116.020836,13.8458389 115.5625,12.7375 C115.104164,11.6291611 114.875,10.3666737 114.875,8.95 Z M131.15,8.95 C131.15,7.56665975 130.975002,6.37083837 130.625,5.3625 C130.274998,4.35416162 129.787503,3.52083662 129.1625,2.8625 C128.537497,2.20416337 127.804171,1.71666825 126.9625,1.4 C126.120829,1.08333175 125.208338,0.925 124.225,0.925 C123.258329,0.925 122.354171,1.08333175 121.5125,1.4 C120.670829,1.71666825 119.937503,2.20416337 119.3125,2.8625 C118.687497,3.52083662 118.200002,4.35416162 117.85,5.3625 C117.499998,6.37083837 117.325,7.56665975 117.325,8.95 C117.325,10.3333402 117.499998,11.5291616 117.85,12.5375 C118.200002,13.5458384 118.687497,14.3791634 119.3125,15.0375 C119.937503,15.6958366 120.670829,16.1833317 121.5125,16.5 C122.354171,16.8166682 123.258329,16.975 124.225,16.975 C125.208338,16.975 126.120829,16.8166682 126.9625,16.5 C127.804171,16.1833317 128.537497,15.6958366 129.1625,15.0375 C129.787503,14.3791634 130.274998,13.5458384 130.625,12.5375 C130.975002,11.5291616 131.15,10.3333402 131.15,8.95 Z M153.125,3.375 C152.874999,3.0749985 152.562502,2.7750015 152.1875,2.475 C151.812498,2.1749985 151.395836,1.91250112 150.9375,1.6875 C150.479164,1.46249887 149.970836,1.27916737 149.4125,1.1375 C148.854164,0.995832625 148.258337,0.925 147.625,0.925 C146.591662,0.925 145.629171,1.08333175 144.7375,1.4 C143.845829,1.71666825 143.070837,2.20416337 142.4125,2.8625 C141.754163,3.52083662 141.237502,4.35416162 140.8625,5.3625 C140.487498,6.37083837 140.3,7.56665975 140.3,8.95 C140.3,10.1666727 140.466665,11.2666617 140.8,12.25 C141.133335,13.2333382 141.62083,14.0624966 142.2625,14.7375 C142.90417,15.4125034 143.687495,15.9333315 144.6125,16.3 C145.537505,16.6666685 146.583328,16.85 147.75,16.85 C148.100002,16.85 148.466665,16.8333335 148.85,16.8 C149.233335,16.7666665 149.604165,16.716667 149.9625,16.65 C150.320835,16.583333 150.654165,16.5 150.9625,16.4 C151.270835,16.2999995 151.533332,16.183334 151.75,16.05 C151.766667,15.5499975 151.779167,15.0500025 151.7875,14.55 C151.795833,14.0499975 151.8,13.5416692 151.8,13.025 C151.8,12.4416637 151.7875,11.8583362 151.7625,11.275 C151.7375,10.6916637 151.708334,10.133336 151.675,9.6 C152.091669,9.68333375 152.491665,9.725 152.875,9.725 C153.058334,9.725 153.241666,9.71666675 153.425,9.7 C153.608334,9.68333325 153.783333,9.65000025 153.95,9.6 C153.916667,9.98333525 153.891667,10.5874959 153.875,11.4125 C153.858333,12.2375041 153.85,13.3249932 153.85,14.675 C153.85,15.008335 153.854167,15.3458316 153.8625,15.6875 C153.870833,16.0291684 153.875,16.366665 153.875,16.7 C153.524998,16.833334 153.087503,16.9708326 152.5625,17.1125 C152.037497,17.2541674 151.47917,17.3708329 150.8875,17.4625 C150.29583,17.5541671 149.70417,17.6374996 149.1125,17.7125 C148.52083,17.7875004 147.983336,17.825 147.5,17.825 C146.016659,17.825 144.679173,17.6458351 143.4875,17.2875 C142.295827,16.9291649 141.283338,16.3750037 140.45,15.625 C139.616663,14.8749962 138.975002,13.9416722 138.525,12.825 C138.074998,11.7083277 137.85,10.416674 137.85,8.95 C137.85,7.53332625 138.083331,6.27083887 138.55,5.1625 C139.016669,4.05416112 139.674996,3.1166705 140.525,2.35 C141.375004,1.5833295 142.404161,1 143.6125,0.6 C144.820839,0.199998 146.158326,-5.4534155e-13 147.625,-5.4534155e-13 C148.475004,-5.4534155e-13 149.229163,0.045832875 149.8875,0.1375 C150.545837,0.229167125 151.129164,0.34999925 151.6375,0.5 C152.145836,0.65000075 152.591665,0.8083325 152.975,0.975 C153.358335,1.1416675 153.699999,1.29999925 154,1.45 C153.866666,1.6833345 153.745834,1.9833315 153.6375,2.35 C153.529166,2.7166685 153.458334,3.05833175 153.425,3.375 L153.125,3.375 Z" id="BLOG" fill="#C9A063"></path>
                </g>
            </g>
        </g>
    </g>
</svg>