<?xml version="1.0" encoding="UTF-8"?>
<svg width="130px" height="304px" viewBox="0 0 130 304" version="1.1" xmlns="http://www.w3.org/2000/svg" xmlns:xlink="http://www.w3.org/1999/xlink">
    <!-- Generator: Sketch 56.2 (81672) - https://sketch.com -->
    <title>txt-copy</title>
    <desc>Created with Sketch.</desc>
    <g id="Page-1" stroke="none" stroke-width="1" fill="none" fill-rule="evenodd">
        <g id="top-fix" transform="translate(-190.000000, -998.000000)">
            <g id="Group-14" transform="translate(190.000000, 998.000000)">
                <g id="Group-36" transform="translate(124.421949, 206.130719) rotate(-270.000000) translate(-124.421949, -206.130719) translate(50.421949, 200.630719)" fill="#C9A063">
                    <path d="M4.84148705,7.68814547 L1.77320578,4.64271191 L1.77320578,10.4465894 C1.77320578,10.573645 1.71859416,10.6288139 1.58819499,10.6288139 L0.185010785,10.6288139 C0.0523825717,10.6288139 8.06466005e-13,10.573645 8.06466005e-13,10.4465894 L8.06466005e-13,0.147284188 C0.0367792525,0.095458878 0.0702149365,0.0770692518 0.105322405,0.0770692518 C0.185010785,0.0770692518 0.185010785,0.095458878 0.235721573,0.147284188 L4.85987668,5.10133804 C4.93009162,5.17656833 4.94848124,5.21279032 5.02816962,5.21279032 C5.09894182,5.21279032 5.11733145,5.17656833 5.19033269,5.10133804 L9.81170149,0.147284188 C9.86909941,0.095458878 9.86909941,0.0770692518 9.93987161,0.0770692518 C9.98055169,0.0770692518 10.0190027,0.095458878 10.0507666,0.147284188 L10.0507666,10.4465894 C10.0507666,10.573645 9.99949858,10.6288139 9.86909941,10.6288139 L8.46424342,10.6288139 C8.33440151,10.6288139 8.27700359,10.573645 8.27700359,10.4465894 L8.27700359,4.64271191 L5.21206588,7.68814547 C5.13572107,7.78399443 5.08278124,7.81798737 5.02816962,7.81798737 C4.97021444,7.81798737 4.91170199,7.78399443 4.84148705,7.68814547" id="Fill-1"></path>
                    <path d="M17.5371835,8.63398524 L17.5371835,8.04050185 C17.3042482,7.61921223 16.4131872,7.37680352 15.9322706,7.37680352 C15.0289499,7.37680352 14.7859839,7.72732094 14.7859839,8.2650782 C14.7859839,8.99954872 15.1972428,9.18678855 16.1373428,9.18678855 C16.2844598,9.18678855 17.1025196,9.13161967 17.5371835,8.63398524 L17.5371835,8.63398524 Z M17.8369901,9.72287402 C17.3042482,10.7042113 15.7857109,10.722601 15.6018146,10.722601 C14.8077171,10.722601 13.0138927,10.4467566 13.0138927,8.35869811 C13.0138927,6.80561059 14.0671167,5.9752911 15.5650354,5.9752911 C16.2460088,5.9752911 17.1320544,6.17033259 17.5371835,6.58047698 C17.5371835,5.15834589 16.8222171,4.77104921 15.5505466,4.77104921 C15.3426881,4.77104921 14.8823902,4.82287452 14.2348524,4.97054879 C14.1596221,4.98893842 14.1429043,5.01178614 14.0866209,5.01178614 C14.0147342,5.01178614 13.9539927,4.95494547 13.922786,4.8607683 L13.5321458,4.04828117 C13.4914657,3.9786235 13.4741906,3.90227869 13.4741906,3.82927744 C13.4741906,3.75404715 13.5131989,3.6999928 13.5700396,3.65931272 C14.545247,3.16390733 15.1972428,3.14496044 15.8041005,3.14496044 C18.0799561,3.14496044 19.3154046,4.38263801 19.3154046,6.47013922 L19.3154046,10.4467566 C19.3154046,10.5732549 19.2646938,10.6289811 19.1326229,10.6289811 L18.1713469,10.6289811 C18.0442913,10.6289811 17.9679465,10.5732549 17.9138922,10.4467566 L17.8369901,9.72287402 Z" id="Fill-3"></path>
                    <path d="M27.8530393,6.91154598 C27.8530393,5.64043272 26.9129394,4.75271531 25.8424402,4.75271531 C24.7357191,4.75271531 23.9031705,5.64043272 23.9031705,6.91154598 C23.9031705,8.17151401 24.7541087,9.18684428 25.8424402,9.18684428 C26.9530622,9.18684428 27.8530393,8.2467443 27.8530393,6.91154598 L27.8530393,6.91154598 Z M28.0402792,9.65160029 C27.393856,10.5933721 26.2665161,10.7226567 25.4713041,10.7226567 C23.5504241,10.7226567 22.0903992,8.98121482 22.0903992,6.89371361 C22.0903992,4.84299166 23.5704855,3.14501617 25.5805274,3.14501617 C25.9338311,3.14501617 27.1180116,3.1634058 27.8530393,4.14195682 L27.8530393,0.31747182 C27.8530393,0.189301698 27.9109945,0.131903774 28.0402792,0.131903774 L29.4451352,0.131903774 C29.5772061,0.131903774 29.6295887,0.189301698 29.6295887,0.31747182 L29.6295887,10.4468123 C29.6295887,10.5733106 29.5772061,10.6290368 29.4451352,10.6290368 L28.4119725,10.6290368 C28.2849169,10.6290368 28.2057858,10.5733106 28.1517315,10.4468123 L28.0402792,9.65160029 Z" id="Fill-5"></path>
                    <path d="M34.325742,6.19212151 L37.8922149,6.19212151 C37.8922149,5.15840161 36.9721764,4.78949456 36.1022913,4.78949456 C35.2496814,4.78949456 34.325742,5.23028833 34.325742,6.19212151 M36.3803648,10.7226567 C34.2343511,10.7226567 32.4951383,9.5936451 32.4951383,6.98789079 C32.4951383,4.93661157 33.5511486,3.14501617 36.061054,3.14501617 C38.0605079,3.14501617 39.6314278,4.38269374 39.6314278,6.76442897 L39.6314278,7.48719701 C39.6314278,7.61926796 39.5818315,7.67053601 39.4475315,7.67053601 L34.325742,7.67053601 C34.325742,8.91099989 35.7317125,9.18684428 36.3642042,9.18684428 C36.8919307,9.18684428 37.6910436,9.07483474 38.1914643,8.72431732 C38.227129,8.68753806 38.2666946,8.67193474 38.3196344,8.67193474 C38.3948647,8.67193474 38.4667514,8.70927126 38.5213631,8.75998205 L39.0635784,9.61259199 C39.0981286,9.68726502 39.1142892,9.74020485 39.1142892,9.76249531 C39.1142892,9.81766419 39.0981286,9.87116128 39.0418452,9.90905506 C38.3948647,10.5933721 37.2630668,10.7226567 36.3803648,10.7226567" id="Fill-7"></path>
                    <path d="M47.1014054,3.42375832 C47.1014054,3.29503094 47.1621469,3.23707575 47.288088,3.23707575 L48.6935012,3.23707575 C48.8222286,3.23707575 48.8779547,3.29503094 48.8779547,3.42375832 L48.8779547,10.4469238 C48.8779547,10.5734221 48.8222286,10.6291482 48.6935012,10.6291482 L47.288088,10.6291482 C47.1621469,10.6291482 47.1014054,10.5734221 47.1014054,10.4469238 L47.1014054,3.42375832 Z M48.0058407,0.26074261 C48.6205,0.26074261 49.1192489,0.776766667 49.1192489,1.37025006 C49.1192489,1.96317619 48.6205,2.44242099 48.0058407,2.44242099 C47.4379913,2.44242099 46.9358988,1.96317619 46.9358988,1.37025006 C46.9358988,0.776766667 47.4379913,0.26074261 48.0058407,0.26074261 L48.0058407,0.26074261 Z" id="Fill-9"></path>
                    <path d="M53.942012,4.14212399 C54.5850917,3.34691197 55.4761526,3.14518335 56.1927908,3.14518335 C58.4346534,3.14518335 59.2805762,4.68099577 59.2805762,6.43414014 L59.2805762,10.4464222 C59.2805762,10.5734778 59.2287509,10.629204 59.09668,10.629204 L57.6912667,10.629204 C57.5642111,10.629204 57.5062559,10.5734778 57.5062559,10.4464222 L57.5062559,6.71221358 C57.5062559,5.65898953 57.337963,4.75288249 55.773173,4.75288249 C54.6636655,4.75288249 54.1626875,5.65898953 54.1626875,6.71221358 L54.1626875,10.4464222 C54.1626875,10.5734778 54.112534,10.629204 53.9787913,10.629204 L52.5739353,10.629204 C52.4474369,10.629204 52.3866954,10.5734778 52.3866954,10.4464222 L52.3866954,3.42381405 C52.3866954,3.2945294 52.4474369,3.23713148 52.5739353,3.23713148 L53.5898228,3.23713148 C53.6817709,3.23713148 53.7581157,3.2945294 53.7731618,3.42381405 L53.942012,4.14212399 Z" id="Fill-11"></path>
                    <path d="M70.6522196,1.61048545 C68.7497291,1.61048545 68.7135071,2.75287132 68.7135071,3.03484559 C68.7135071,5.19534804 74.3691531,4.45864847 74.3691531,8.02289239 C74.3691531,9.70582182 72.3513096,10.7228239 70.8728951,10.7228239 C69.6028963,10.7228239 68.4538233,10.629204 67.1944126,9.8707712 C67.144259,9.83399194 67.1063653,9.78105211 67.1063653,9.70582182 C67.1063653,9.66904257 67.1063653,9.62780523 67.1241976,9.61220191 L67.6051142,8.6537123 C67.6424507,8.59854342 67.6937188,8.55953512 67.7488877,8.55953512 C67.7851096,8.55953512 67.8224462,8.55953512 67.8452939,8.58015379 C68.3418138,8.81810441 69.3198075,9.18701146 70.7040449,9.18701146 C71.6630917,9.18701146 72.5948328,8.61526126 72.5948328,7.87633264 C72.5948328,5.86406172 66.9375151,6.67599158 66.9375151,2.92450783 C66.9375151,1.07161367 68.2130864,-8.8817842e-15 70.5953789,-8.8817842e-15 C71.8007353,-8.8817842e-15 73.0400847,0.448038166 73.6123921,0.689889615 C73.6831643,0.741157663 73.7205008,0.795212019 73.7205008,0.848709114 C73.7205008,0.888274673 73.7205008,0.925611187 73.7026685,0.944000813 L73.2195228,2.00001117 C73.1989042,2.05518005 73.166583,2.09530287 73.0963681,2.10700536 C73.0584743,2.10700536 73.0161224,2.10700536 72.993832,2.09530287 C72.518488,1.94205598 71.4106523,1.61048545 70.6522196,1.61048545" id="Fill-13"></path>
                    <path d="M79.137416,3.91682321 C79.7843965,3.32835517 80.5272259,3.14501617 81.1697483,3.14501617 C83.4104964,3.14501617 84.2547475,4.68082859 84.2547475,6.43453022 L84.2547475,10.4468123 C84.2547475,10.5733106 84.2051512,10.6290368 84.0741948,10.6290368 L82.6671097,10.6290368 C82.5389396,10.6290368 82.4793126,10.5733106 82.4793126,10.4468123 L82.4793126,6.71260366 C82.4793126,5.65882235 82.3154778,4.75271531 80.7451151,4.75271531 C79.6367222,4.75271531 79.137416,5.65882235 79.137416,6.71260366 L79.137416,10.4468123 C79.137416,10.5733106 79.0833616,10.6290368 78.9501762,10.6290368 L77.546992,10.6290368 C77.4177073,10.6290368 77.363653,10.5733106 77.363653,10.4468123 L77.363653,0.31747182 C77.363653,0.189301698 77.4177073,0.131903774 77.546992,0.131903774 L78.9501762,0.131903774 C79.0833616,0.131903774 79.137416,0.189301698 79.137416,0.31747182 L79.137416,3.91682321 Z" id="Fill-15"></path>
                    <path d="M87.5882852,3.42375832 C87.5882852,3.29503094 87.6445686,3.23707575 87.7710669,3.23707575 L89.1731366,3.23707575 C89.3029785,3.23707575 89.3626055,3.29503094 89.3626055,3.42375832 L89.3626055,10.4469238 C89.3626055,10.5734221 89.3029785,10.6291482 89.1731366,10.6291482 L87.7710669,10.6291482 C87.6445686,10.6291482 87.5882852,10.5734221 87.5882852,10.4469238 L87.5882852,3.42375832 Z M88.4916059,0.26074261 C89.1006926,0.26074261 89.5999988,0.776766667 89.5999988,1.37025006 C89.5999988,1.96317619 89.1006926,2.44242099 88.4916059,2.44242099 C87.9192984,2.44242099 87.4199922,1.96317619 87.4199922,1.37025006 C87.4199922,0.776766667 87.9192984,0.26074261 88.4916059,0.26074261 L88.4916059,0.26074261 Z" id="Fill-17"></path>
                    <path d="M103.05775,10.4467009 C103.05775,10.5743137 102.999795,10.6289253 102.869953,10.6289253 L101.466769,10.6289253 C101.334141,10.6289253 101.281758,10.5743137 101.281758,10.4467009 L101.281758,6.43441877 C101.281758,5.32546858 100.969692,4.77099349 100.176151,4.77099349 C99.5308428,4.77099349 98.9362449,5.25191007 98.8593428,5.91616566 C98.8827478,6.11789429 98.8827478,6.24717894 98.8827478,6.45280839 L98.8827478,10.4467009 C98.8827478,10.5743137 98.8231208,10.6289253 98.6949507,10.6289253 L97.2884229,10.6289253 C97.1591383,10.6289253 97.1050839,10.5743137 97.1050839,10.4467009 L97.1050839,6.73088183 C97.1050839,5.67710052 96.8108499,4.77099349 95.9783014,4.77099349 C95.069408,4.77099349 94.6458893,5.67710052 94.6458893,6.73088183 L94.6458893,10.4467009 C94.6458893,10.5743137 94.5884914,10.6289253 94.4619931,10.6289253 L93.0576944,10.6289253 C92.9306388,10.6289253 92.8760271,10.5743137 92.8760271,10.4467009 L92.8760271,3.42353542 C92.8760271,3.29480803 92.9306388,3.23685285 93.0576944,3.23685285 L94.1476977,3.23685285 C94.2446611,3.23685285 94.3159906,3.29480803 94.3310367,3.42353542 L94.4803827,4.10506611 C95.1284777,3.34719061 95.8300698,3.14490472 96.4770503,3.14490472 C97.194803,3.14490472 97.9599229,3.58904205 98.4191063,4.30679474 C99.0465826,3.29480803 99.9515751,3.14490472 100.676572,3.14490472 C102.149414,3.14490472 103.05775,4.5296993 103.05775,6.24717894 L103.05775,10.4467009 Z" id="Fill-19"></path>
                    <path d="M110.354921,8.63398524 L110.354921,8.04050185 C110.120314,7.61921223 109.230368,7.37680352 108.755024,7.37680352 C107.847245,7.37680352 107.60818,7.72732094 107.60818,8.2650782 C107.60818,8.99954872 108.013866,9.18678855 108.953966,9.18678855 C109.109442,9.18678855 109.922486,9.13161967 110.354921,8.63398524 L110.354921,8.63398524 Z M110.658071,9.72287402 C110.120314,10.7042113 108.602334,10.722601 108.419552,10.722601 C107.626569,10.722601 105.835531,10.4467566 105.835531,8.35869811 C105.835531,6.80561059 106.88374,5.9752911 108.386117,5.9752911 C109.059846,5.9752911 109.953136,6.17033259 110.354921,6.58047698 C110.354921,5.15834589 109.638283,4.77104921 108.36717,4.77104921 C108.159868,4.77104921 107.696784,4.82287452 107.047017,4.97054879 C106.980703,4.98893842 106.960085,5.01178614 106.904358,5.01178614 C106.834701,5.01178614 106.772288,4.95494547 106.738295,4.8607683 L106.35267,4.04828117 C106.312547,3.9786235 106.296386,3.90227869 106.296386,3.82927744 C106.296386,3.75404715 106.333166,3.6999928 106.383319,3.65931272 C107.366328,3.16390733 108.013866,3.14496044 108.619052,3.14496044 C110.893793,3.14496044 112.134257,4.38263801 112.134257,6.47013922 L112.134257,10.4467566 C112.134257,10.5732549 112.079088,10.6289811 111.949246,10.6289811 L110.991314,10.6289811 C110.861472,10.6289811 110.78457,10.5732549 110.730515,10.4467566 L110.658071,9.72287402 Z" id="Fill-21"></path>
                    <path d="M121.281926,6.91154598 C121.281926,5.64043272 120.453835,4.75271531 119.344885,4.75271531 C118.276058,4.75271531 117.330385,5.64043272 117.330385,6.91154598 C117.330385,8.2467443 118.235935,9.18684428 119.344885,9.18684428 C120.434331,9.18684428 121.281926,8.17151401 121.281926,6.91154598 L121.281926,6.91154598 Z M117.030021,10.4468123 C116.983211,10.5733106 116.905194,10.6290368 116.777582,10.6290368 L115.734946,10.6290368 C115.612348,10.6290368 115.560523,10.5733106 115.560523,10.4468123 L115.560523,0.31747182 C115.560523,0.189301698 115.612348,0.131903774 115.734946,0.131903774 L117.149832,0.131903774 C117.271872,0.131903774 117.330385,0.189301698 117.330385,0.31747182 L117.330385,4.14195682 C118.070428,3.1634058 119.253494,3.14501617 119.605126,3.14501617 C121.619626,3.14501617 123.099155,4.84299166 123.099155,6.89371361 C123.099155,8.98121482 121.635787,10.7226567 119.717136,10.7226567 C118.882915,10.7226567 117.786782,10.5933721 117.149832,9.65160029 L117.030021,10.4468123 Z" id="Fill-23"></path>
                    <path d="M129.93692,8.63398524 L129.93692,8.04050185 C129.697854,7.61921223 128.80958,7.37680352 128.326434,7.37680352 C127.423113,7.37680352 127.184605,7.72732094 127.184605,8.2650782 C127.184605,8.99954872 127.591406,9.18678855 128.532621,9.18678855 C128.678066,9.18678855 129.489996,9.13161967 129.93692,8.63398524 L129.93692,8.63398524 Z M130.233383,9.72287402 C129.697854,10.7042113 128.181546,10.722601 127.993192,10.722601 C127.202438,10.722601 125.410842,10.4467566 125.410842,8.35869811 C125.410842,6.80561059 126.464066,5.9752911 127.955855,5.9752911 C128.645188,5.9752911 129.530119,6.17033259 129.93692,6.58047698 C129.93692,5.15834589 129.21861,4.77104921 127.943595,4.77104921 C127.739638,4.77104921 127.277111,4.82287452 126.629573,4.97054879 C126.550442,4.98893842 126.534281,5.01178614 126.47967,5.01178614 C126.406111,5.01178614 126.354286,4.95494547 126.314163,4.8607683 L125.925752,4.04828117 C125.895103,3.9786235 125.874484,3.90227869 125.874484,3.82927744 C125.874484,3.75404715 125.910149,3.6999928 125.962531,3.65931272 C126.943311,3.16390733 127.591406,3.14496044 128.197707,3.14496044 C130.470776,3.14496044 131.713469,4.38263801 131.713469,6.47013922 L131.713469,10.4467566 C131.713469,10.5732549 131.6583,10.6289811 131.529573,10.6289811 L130.564396,10.6289811 C130.433439,10.6289811 130.364896,10.5732549 130.307498,10.4467566 L130.233383,9.72287402 Z" id="Fill-25"></path>
                    <path d="M138.770906,4.75271531 C137.241781,4.75271531 136.906309,5.72903729 136.906309,6.71260366 L136.906309,10.4468123 C136.906309,10.5733106 136.856713,10.6290368 136.722413,10.6290368 L135.319229,10.6290368 C135.189944,10.6290368 135.135332,10.5733106 135.135332,10.4468123 L135.135332,3.42364687 C135.135332,3.29491949 135.189944,3.2369643 135.319229,3.2369643 L136.407003,3.2369643 C136.501737,3.2369643 136.576968,3.29491949 136.594243,3.42364687 L136.740803,4.0483369 C137.42512,3.29491949 138.220889,3.14501617 138.810471,3.14501617 L139.236776,3.14501617 C139.364947,3.14501617 139.424574,3.20185683 139.424574,3.32835517 L139.424574,4.57104809 C139.424574,4.69866096 139.364947,4.75271531 139.236776,4.75271531 L138.770906,4.75271531 Z" id="Fill-27"></path>
                    <path d="M145.800313,8.63398524 L145.800313,8.04050185 C145.555675,7.61921223 144.670744,7.37680352 144.187598,7.37680352 C143.28372,7.37680352 143.046884,7.72732094 143.046884,8.2650782 C143.046884,8.99954872 143.452013,9.18678855 144.395457,9.18678855 C144.543131,9.18678855 145.354504,9.13161967 145.800313,8.63398524 L145.800313,8.63398524 Z M146.092318,9.72287402 C145.555675,10.7042113 144.04271,10.722601 143.853799,10.722601 C143.064716,10.722601 141.269777,10.4467566 141.269777,8.35869811 C141.269777,6.80561059 142.326345,5.9752911 143.815348,5.9752911 C144.505794,5.9752911 145.386825,6.17033259 145.800313,6.58047698 C145.800313,5.15834589 145.074758,4.77104921 143.799187,4.77104921 C143.601916,4.77104921 143.138275,4.82287452 142.491852,4.97054879 C142.41885,4.98893842 142.399346,5.01178614 142.338048,5.01178614 C142.267833,5.01178614 142.212106,4.95494547 142.173098,4.8607683 L141.786916,4.04828117 C141.748465,3.9786235 141.728961,3.90227869 141.728961,3.82927744 C141.728961,3.75404715 141.771313,3.6999928 141.823695,3.65931272 C142.806704,3.16390733 143.452013,3.14496044 144.062214,3.14496044 C146.336398,3.14496044 147.57519,4.38263801 147.57519,6.47013922 L147.57519,10.4467566 C147.57519,10.5732549 147.515563,10.6289811 147.387393,10.6289811 L146.424445,10.6289811 C146.297947,10.6289811 146.221045,10.5732549 146.168662,10.4467566 L146.092318,9.72287402 Z" id="Fill-29"></path>
                </g>
                <g id="Group-25">
                    <g id="Group-24">
                        <path d="M87.7063486,292.916111 C90.5546341,295.225032 94.3634309,299.03506 96.4026703,301.42033 L94.0937489,303.537149 C92.1702634,301.0743 88.2838868,297.033995 85.6671092,294.763248 L87.7063486,292.916111 Z" id="Fill-1" fill="#FFFEEE"></path>
                        <path d="M90.823331,264.044988 C89.0537736,261.967574 87.6671893,260.658569 84.5898588,258.503576 L86.9369544,255.117158 C89.5919062,256.887947 91.5547973,258.61933 93.5940367,260.966426 L90.823331,264.044988 Z M70.5048223,269.086441 C69.4654997,269.086441 68.2734806,270.356039 68.2734806,271.971669 C68.2734806,273.51095 69.3891514,273.818806 69.8509357,273.818806 C71.0047807,273.818806 71.9665235,272.241351 71.9665235,270.70207 C71.9665235,269.624573 71.196883,269.086441 70.5048223,269.086441 L70.5048223,269.086441 Z M86.8593746,282.478185 C83.9741464,283.555682 79.1247956,283.785958 76.3922641,283.785958 C74.2754449,283.785958 69.1576436,283.785958 69.1576436,280.169263 C69.1576436,279.745653 69.3509772,278.514229 69.4273256,277.976096 C68.3498289,277.744588 64.8476569,277.013122 64.8476569,272.049249 C64.8476569,265.930299 69.6970076,265.814545 71.3126369,265.776371 C71.5047392,264.737048 71.5047392,263.660783 71.466565,263.045071 C69.8891099,263.237173 67.9656244,263.506855 65.6172973,263.583203 L65.0409905,259.465319 C68.0801469,259.503493 69.5812537,259.38897 71.6586673,259.195637 C71.6980729,255.73287 71.5823189,253.962082 71.466565,252.616134 L75.7765517,253.077919 C76.6237719,253.154267 76.8158742,253.231847 76.8158742,253.577877 C76.8158742,253.808153 76.6237719,253.847559 76.3922641,254.001487 C76.1619876,254.155415 76.0462337,254.309343 75.968654,254.463271 L75.7383775,258.581156 C78.8551136,257.887864 80.3180462,257.387905 82.0876036,256.694613 L82.0876036,260.888846 C79.6247541,261.620312 77.3934124,262.043922 75.5844494,262.389953 C75.5462753,263.583203 75.4686955,265.930299 75.3923472,267.855016 C75.7383775,268.3168 76.0844079,268.778584 76.0844079,269.702153 C76.0844079,270.933578 75.5462753,272.433453 74.968737,273.93456 C74.2754449,275.859277 73.8136606,277.206455 73.8136606,278.322126 C73.8136606,279.437797 74.3911988,279.861407 77.0079765,279.861407 C84.512279,279.861407 85.7818779,278.552403 85.7818779,276.513163 C85.7818779,275.897451 85.6279499,274.050314 84.0886689,271.279608 L87.8211174,269.970604 C90.0918646,273.973965 90.1312702,277.282804 90.1312702,277.514312 C90.1312702,281.24676 87.5908409,282.208503 86.8593746,282.478185 L86.8593746,282.478185 Z" id="Fill-3" fill="#512700"></path>
                        <path d="M90.900295,223.401936 C88.3598657,221.862655 86.2824521,220.861507 82.4724239,219.899764 L84.2050385,216.590926 C87.0520926,217.090884 89.9385523,217.976279 92.7856063,220.131272 L90.900295,223.401936 Z M77.7782327,234.946543 C75.7771674,234.946543 74.8535988,236.02404 74.8535988,236.793681 C74.8535988,237.640901 75.9310955,238.525064 78.0466833,238.525064 C81.1646508,238.525064 81.1264877,236.909434 81.1264877,235.524082 C80.4331845,235.331979 79.0860058,234.946543 77.7782327,234.946543 L77.7782327,234.946543 Z M89.1689118,239.834068 C87.8599072,238.756572 86.8599903,238.102685 85.3588835,237.293639 C85.0128532,240.372201 83.8577767,241.989062 78.8163237,241.989062 C76.3534742,241.989062 74.1603067,241.603626 72.5446774,240.180099 C71.928965,239.641966 71.1211504,238.525064 71.1211504,236.909434 C71.1211504,234.830789 72.6210257,231.444371 77.9321608,231.444371 C79.2017597,231.444371 80.1635024,231.560125 80.9331429,231.675879 C80.8567946,230.790485 80.3950103,226.865934 80.3950103,226.056888 C80.3950103,224.209751 81.2804047,223.055906 82.0500452,222.132337 L86.0509443,224.287331 C84.8207509,225.287247 84.5892431,226.250222 84.5892431,227.365892 C84.5892431,228.173707 84.6668228,229.866916 85.0892015,232.71397 C87.6296308,233.715119 89.2846657,234.676861 91.7081097,236.216142 L89.1689118,239.834068 Z M75.5456595,219.361631 C72.4289235,228.365809 70.4278582,232.214012 68.426793,235.870112 L64.3089085,234.100555 C67.3874704,229.405132 69.3121874,224.441259 70.8896425,220.091866 C69.1200851,220.323374 68.0425884,220.439128 66.2336254,220.553651 L65.6560872,216.552752 C68.1965165,216.513346 69.8121458,216.359418 72.1974156,216.051562 C72.8525336,213.74264 73.3143179,212.049431 73.5827685,209.702336 L77.7782327,210.625904 C77.9703349,210.664078 78.7018012,210.856181 78.7018012,211.279791 C78.7018012,211.665227 78.0466833,211.895503 77.8164068,212.127011 C77.7782327,212.165185 77.0467663,214.628035 76.8928382,215.127993 C79.1635855,214.551686 80.3174305,214.16625 81.3185789,213.82022 L81.3185789,218.130207 C80.0095743,218.476237 78.8163237,218.784093 75.5456595,219.361631 L75.5456595,219.361631 Z" id="Fill-5" fill="#512700"></path>
                        <path d="M84.6662071,197.763303 C81.4337171,199.880122 78.6248372,200.226153 77.0079765,200.226153 C74.5833011,200.226153 72.6216414,199.340758 71.3902167,198.263261 C69.5812537,196.685806 68.9655413,194.722915 68.9655413,185.487229 C68.9655413,183.140134 69.2733975,171.711281 69.1576436,169.132677 L74.2754449,169.864143 C75.2002449,169.979897 75.5462753,170.248348 75.5462753,170.479856 C75.5462753,170.787712 75.084491,171.095568 74.4687786,171.595527 C74.1609224,172.596675 73.3912819,182.754698 73.3912819,186.988336 C73.3912819,188.759125 73.3912819,192.491574 74.1215168,193.799347 C74.1990966,193.915101 75.0463168,195.416207 77.5091663,195.416207 C79.6641597,195.416207 84.8201352,194.069029 88.5919893,186.68048 L92.3626119,189.797216 C90.7851568,191.991615 88.4762353,195.300453 84.6662071,197.763303" id="Fill-7" fill="#512700"></path>
                        <path d="M87.0906362,143.8019 C84.6277867,143.8019 82.2412855,144.109756 81.3189483,144.22551 L81.3189483,140.183974 C83.3187821,140.030046 85.243499,139.915524 87.2827385,139.915524 C89.9770959,139.915524 91.2085206,140.030046 92.3623656,140.1458 L92.3623656,144.22551 C89.475906,143.840074 87.6681744,143.8019 87.0906362,143.8019 M86.2446474,159.078956 C79.317883,159.078956 76.3538436,157.15547 76.3538436,153.229688 C76.3538436,153.037586 76.3538436,151.806161 76.8156279,150.458982 L80.6256562,151.266797 C80.4717281,151.998263 80.4717281,152.613976 80.4717281,152.691556 C80.4717281,153.191514 80.5493078,153.49937 80.9335123,153.845401 C82.011009,154.846549 84.9356428,154.884723 85.8210373,154.884723 C89.3995576,154.884723 91.4782026,154.307185 92.5938735,154.038734 L92.978078,158.502649 C91.0164184,158.848679 88.9377733,159.078956 86.2446474,159.078956 M76.5077717,138.338068 C74.6224604,144.725469 72.6213951,150.920767 68.5810905,158.810505 L63.8856678,157.385747 C66.1945893,153.653298 68.6574388,149.49724 71.6978266,139.068303 C68.6192646,139.453739 67.3114915,139.491913 65.9643128,139.530088 L65.6564566,135.527957 C66.0800668,135.605537 66.8878814,135.759465 68.7731927,135.759465 C69.3113254,135.759465 71.7360007,135.721291 72.583221,135.527957 C73.1595278,132.91118 73.8146457,129.948372 73.8909941,127.369768 L78.6245909,128.485439 C78.7021707,128.485439 79.5863336,128.678773 79.5863336,129.101151 C79.5863336,129.370833 79.4718111,129.486587 79.1245494,129.640515 C78.6245909,129.870792 78.5482426,129.910197 78.4706628,130.294402 C78.1246324,132.025785 77.8167763,133.411138 77.5470942,134.489866 C79.8178415,133.988676 82.1267629,132.949354 83.6660439,132.219119 L83.6660439,136.490931 C82.3570394,136.91331 80.7414101,137.529022 76.5077717,138.338068" id="Fill-9" fill="#512700"></path>
                        <path d="M84.2044228,103.615831 C84.2044228,105.116937 84.2807712,109.888708 84.2807712,111.196481 L79.8168564,111.196481 C79.9326103,109.003314 79.9707845,107.118003 80.0101901,105.424794 C78.5472574,106.15626 74.5451269,108.157325 74.5451269,110.850451 C74.5451269,113.351475 77.5091663,113.852665 80.3180462,113.852665 C83.6268846,113.852665 86.8987802,113.351475 90.1300388,112.620008 L90.1300388,116.969401 C86.4751701,117.546939 82.2033576,117.546939 80.9719328,117.546939 C78.8169395,117.546939 74.3530247,117.546939 71.9283493,114.968335 C70.4666481,113.429055 70.4666481,111.735845 70.4666481,111.196481 C70.4666481,106.42471 74.0069943,104.615747 79.7786822,101.652939 C79.5484058,100.499094 79.0866215,99.1137416 76.8540484,99.1137416 C73.0834257,99.1137416 70.7745043,102.615914 68.6576851,106.07868 L64.885831,103.731584 C67.9262188,100.459689 69.8509357,97.7283887 72.4677133,93.14872 C70.2733144,93.2644739 69.0812952,93.3026481 67.4644345,93.3026481 L67.0026502,89.3005176 C69.3115717,89.4926198 71.0047807,89.5701996 74.3530247,89.4544457 C75.3147674,87.3758006 75.8159573,86.0298534 76.2777416,84.3366443 L81.0876867,85.1826331 C81.2022092,85.2208073 81.8573272,85.2983871 81.8573272,85.5680691 C81.8573272,85.7983455 81.7033991,85.9140994 81.4718913,85.9904478 C81.3955429,86.0298534 80.6259024,86.3758837 80.5864968,86.3758837 C80.5483227,86.4140579 79.5865799,88.5690513 79.3944777,88.9926614 C82.9348239,88.4151232 84.6662071,87.9151647 86.9369544,87.0297703 L86.6672724,91.339757 C83.2045059,92.1475716 80.0483642,92.4948334 77.4697608,92.8026896 C76.238336,95.0734369 75.9304798,95.6115695 75.2765932,96.6127178 C75.7765517,96.38121 76.9316281,95.8036718 78.586663,95.8036718 C81.2416148,95.8036718 82.9348239,97.1508505 83.8202183,99.6900483 C88.3223072,97.5744606 88.8222657,97.3429527 90.6312287,96.5351381 L91.9390018,100.921473 C88.8998455,101.884447 87.0527083,102.538334 84.2044228,103.615831" id="Fill-11" fill="#512700"></path>
                        <path d="M70.7355913,59.1984622 L86.552011,59.1984622 L86.552011,54.118835 L70.7355913,54.118835 L70.7355913,59.1984622 Z M63.0773606,47.653855 L93.9787338,47.653855 L93.9787338,43.8820009 L63.0773606,43.8820009 L63.0773606,47.653855 Z M62.3077201,74.9754764 L62.3077201,70.8969975 L72.6984823,70.8969975 C71.7749138,68.7420042 70.6198373,67.0487951 69.4278181,65.7397906 L73.1984408,63.276941 C74.1995891,64.5083658 76.0073207,66.9712154 77.008469,69.4340649 L74.6613734,70.8969975 L79.8555231,70.8969975 C81.510558,68.4723221 82.7038086,66.2791546 83.8970592,63.1230129 L66.3098506,63.1230129 L66.3098506,50.1548787 L90.6698954,50.1548787 L90.6698954,63.1230129 L85.0509042,63.1230129 L88.1294661,64.8543962 C88.3215684,64.9701501 88.8227583,65.2398321 88.8227583,65.6634422 C88.8227583,66.0476468 88.2833942,66.2015749 87.6676818,66.355503 C87.1295492,67.5869277 85.9744728,69.7037469 85.1666581,70.8969975 L94.7102001,70.8969975 L94.7102001,74.9754764 L62.3077201,74.9754764 Z" id="Fill-13" fill="#512700"></path>
                        <path d="M91.7084791,34.0980848 C83.9739001,29.364488 81.2413685,25.8635474 78.5470111,19.8209461 C74.9684908,27.3252486 71.3517962,31.0958712 64.6553083,34.3677669 L60.8846857,30.9813487 C69.7743411,27.4028284 73.3134559,22.2837956 75.276347,14.2031863 L61.9240082,14.2031863 L61.9240082,10.0471277 L75.7381312,10.0471277 C75.8920593,8.3539186 75.8920593,6.39102751 75.8920593,5.8134893 C75.8920593,3.58214761 75.815711,1.92711272 75.7381312,0.695687952 L80.8559326,0.965369977 C81.1256146,0.965369977 81.5110506,1.00354414 81.5110506,1.42715427 C81.5110506,1.73501046 81.1256146,2.08104082 80.7795842,2.38889701 C80.7020045,3.19671166 80.7020045,2.6967532 80.7020045,4.62147012 C80.7020045,4.96750048 80.6256562,8.23816467 80.5480764,10.0471277 L95.0185489,10.0471277 L95.0185489,14.2031863 L80.9335123,14.2031863 C83.280608,21.5917349 86.2828215,25.8635474 95.6724354,30.4038105 L91.7084791,34.0980848 Z" id="Fill-15" fill="#512700"></path>
                        <path d="M34.7411684,297.687882 C34.7411684,295.494714 32.971611,293.723925 30.777212,293.723925 C28.5458704,293.723925 26.7750815,295.494714 26.7750815,297.687882 C26.7750815,299.919223 28.5458704,301.690012 30.777212,301.690012 C33.0479593,301.690012 34.7411684,299.842875 34.7411684,297.687882 M36.1646954,297.687882 C36.1646954,300.65069 33.7412515,303.075365 30.777212,303.075365 C27.814404,303.075365 25.3897287,300.65069 25.3897287,297.687882 C25.3897287,294.725074 27.814404,292.300398 30.777212,292.300398 C33.8175998,292.300398 36.1646954,294.801422 36.1646954,297.687882" id="Fill-16" fill="#FFFEEE"></path>
                        <path d="M30.5851098,261.888763 C28.8155524,259.811349 27.4289681,258.502345 24.3516376,256.347351 L26.6987332,252.960933 C29.353685,254.731722 31.3165761,256.463105 33.3558155,258.810201 L30.5851098,261.888763 Z M10.2666011,266.930216 C9.22727856,266.930216 8.03525939,268.199815 8.03525939,269.815444 C8.03525939,271.354725 9.15093023,271.662581 9.61271452,271.662581 C10.7665595,271.662581 11.7283023,270.085126 11.7283023,268.545845 C11.7283023,267.468348 10.9586618,266.930216 10.2666011,266.930216 L10.2666011,266.930216 Z M26.6211534,280.32196 C23.7359252,281.399457 18.8865745,281.629733 16.1540429,281.629733 C14.0372237,281.629733 8.91942237,281.629733 8.91942237,278.013039 C8.91942237,277.589429 9.11275606,276.358004 9.1891044,275.819871 C8.11160772,275.588363 4.60943568,274.856897 4.60943568,269.893024 C4.60943568,263.774074 9.45878642,263.65832 11.0744157,263.620146 C11.266518,262.580823 11.266518,261.504558 11.2283438,260.888846 C9.65088869,261.080948 7.72740319,261.35063 5.37907616,261.426978 L4.80276937,257.309094 C7.8419257,257.347268 9.34303249,257.232746 11.4204461,257.039412 C11.4598517,253.576646 11.3440977,251.805857 11.2283438,250.459909 L15.5383305,250.921694 C16.3855508,250.998042 16.577653,251.075622 16.577653,251.421652 C16.577653,251.651929 16.3855508,251.691334 16.1540429,251.845262 C15.9237665,251.99919 15.8080125,252.153119 15.7304328,252.307047 L15.5001563,256.424931 C18.6168924,255.731639 20.0798251,255.23168 21.8493825,254.538388 L21.8493825,258.732621 C19.3865329,259.464087 17.1551912,259.887698 15.3462282,260.233728 C15.3080541,261.426978 15.2304743,263.774074 15.154126,265.698791 C15.5001563,266.160575 15.8461867,266.62236 15.8461867,267.545928 C15.8461867,268.777353 15.3080541,270.277228 14.7305159,271.778335 C14.0372237,273.703052 13.5754394,275.050231 13.5754394,276.165902 C13.5754394,277.281572 14.1529776,277.705183 16.7697553,277.705183 C24.2740578,277.705183 25.5436568,276.396178 25.5436568,274.356939 C25.5436568,273.741226 25.3897287,271.894089 23.8504477,269.123383 L27.5828962,267.814379 C29.8536435,271.817741 29.8930491,275.126579 29.8930491,275.358087 C29.8930491,279.090535 27.3526198,280.052278 26.6211534,280.32196 L26.6211534,280.32196 Z" id="Fill-17" fill="#512700"></path>
                        <path d="M24.4279859,237.948141 C21.1954959,240.06496 18.386616,240.410991 16.7697553,240.410991 C14.3450799,240.410991 12.3834202,239.525596 11.1519955,238.4481 C9.34303249,236.870645 8.72732011,234.907753 8.72732011,225.672068 C8.72732011,223.324972 9.0351763,211.896119 8.91942237,209.317515 L14.0372237,210.048982 C14.9620237,210.164736 15.3080541,210.433186 15.3080541,210.664694 C15.3080541,210.97255 14.8462698,211.280406 14.2305574,211.780365 C13.9227012,212.781513 13.1530607,222.939536 13.1530607,227.173175 C13.1530607,228.943963 13.1530607,232.676412 13.8832956,233.984185 C13.9608754,234.099939 14.8080956,235.601046 17.2709452,235.601046 C19.4259385,235.601046 24.581914,234.253867 28.3537681,226.865318 L32.1243907,229.982054 C30.5469356,232.176453 28.2380142,235.485292 24.4279859,237.948141" id="Fill-18" fill="#512700"></path>
                        <path d="M10.766929,178.17232 C8.03439739,180.789098 6.91872655,184.367618 6.91872655,186.714714 C6.91872655,189.832681 8.68951537,191.448311 9.38157609,191.448311 C11.3826413,191.448311 14.6927111,181.40481 15.4623516,175.401614 C14.3454493,175.78705 12.6140661,176.363357 10.766929,178.17232 M31.4696422,192.987591 C28.584414,197.259404 24.5822834,198.914439 22.5036384,199.760428 L19.6565844,195.797703 C21.3879676,195.296513 24.2362531,194.488698 26.5833487,191.679818 C28.9304443,188.909113 29.3540544,185.714797 29.3540544,184.021588 C29.3540544,181.904769 28.738342,179.326165 26.5833487,177.286926 C24.1586733,174.978004 21.4655474,174.824076 20.0407889,174.708322 C18.8093641,183.86766 16.5386169,189.255143 15.2690179,191.833746 C14.1151729,194.219016 12.3443841,197.451506 10.3433188,197.451506 C8.95796597,197.451506 2.64691402,193.98874 2.64691402,187.10015 C2.64691402,178.556525 9.68943228,170.783771 19.6171788,170.783771 C27.6226712,170.783771 33.9324917,176.209429 33.9324917,184.791228 C33.9324917,188.177646 32.8944006,190.872004 31.4696422,192.987591" id="Fill-19" fill="#512700"></path>
                        <path d="M26.852415,143.8019 C24.3895655,143.8019 22.0030643,144.109756 21.0807271,144.22551 L21.0807271,140.183974 C23.0805609,140.030046 25.0052779,139.915524 27.0445173,139.915524 C29.7388747,139.915524 30.9702994,140.030046 32.1241445,140.1458 L32.1241445,144.22551 C29.2376848,143.840074 27.4299532,143.8019 26.852415,143.8019 M26.0064262,159.078956 C19.0796619,159.078956 16.1156224,157.15547 16.1156224,153.229688 C16.1156224,153.037586 16.1156224,151.806161 16.5774067,150.458982 L20.387435,151.266797 C20.2335069,151.998263 20.2335069,152.613976 20.2335069,152.691556 C20.2335069,153.191514 20.3110866,153.49937 20.6952912,153.845401 C21.7727878,154.846549 24.6974217,154.884723 25.5828161,154.884723 C29.1613365,154.884723 31.2399815,154.307185 32.3556523,154.038734 L32.7398568,158.502649 C30.7781972,158.848679 28.6995522,159.078956 26.0064262,159.078956 M16.2695505,138.338068 C14.3842392,144.725469 12.383174,150.920767 8.34286929,158.810505 L3.64744665,157.385747 C5.95636809,153.653298 8.41921763,149.49724 11.4596054,139.068303 C8.38104346,139.453739 7.07327036,139.491913 5.72609166,139.530088 L5.41823547,135.527957 C5.84184559,135.605537 6.64966024,135.759465 8.53497156,135.759465 C9.07310418,135.759465 11.4977796,135.721291 12.3449998,135.527957 C12.9213066,132.91118 13.5764246,129.948372 13.6527729,127.369768 L18.3863697,128.485439 C18.4639495,128.485439 19.3481125,128.678773 19.3481125,129.101151 C19.3481125,129.370833 19.23359,129.486587 18.8863282,129.640515 C18.3863697,129.870792 18.3100214,129.910197 18.2324416,130.294402 C17.8864113,132.025785 17.5785551,133.411138 17.308873,134.489866 C19.5796203,133.988676 21.8885418,132.949354 23.4278227,132.219119 L23.4278227,136.490931 C22.1188182,136.91331 20.5031889,137.529022 16.2695505,138.338068" id="Fill-20" fill="#512700"></path>
                        <path d="M23.9662016,103.615831 C23.9662016,105.116937 24.04255,109.888708 24.04255,111.196481 L19.5786352,111.196481 C19.6943891,109.003314 19.7325633,107.118003 19.7719689,105.424794 C18.3090362,106.15626 14.3069057,108.157325 14.3069057,110.850451 C14.3069057,113.351475 17.2709452,113.852665 20.0798251,113.852665 C23.3886634,113.852665 26.660559,113.351475 29.8918176,112.620008 L29.8918176,116.969401 C26.2369489,117.546939 21.9651364,117.546939 20.7337116,117.546939 C18.5787183,117.546939 14.1148035,117.546939 11.6901281,114.968335 C10.2284269,113.429055 10.2284269,111.735845 10.2284269,111.196481 C10.2284269,106.42471 13.7687731,104.615747 19.540461,101.652939 C19.3101846,100.499094 18.8484003,99.1137416 16.6158272,99.1137416 C12.8452045,99.1137416 10.5362831,102.615914 8.41946392,106.07868 L4.64760985,103.731584 C7.6879976,100.459689 9.61271452,97.7283887 12.2294922,93.14872 C10.0350932,93.2644739 8.84307404,93.3026481 7.22621331,93.3026481 L6.76442902,89.3005176 C9.07335047,89.4926198 10.7665595,89.5701996 14.1148035,89.4544457 C15.0765462,87.3758006 15.5777361,86.0298534 16.0395204,84.3366443 L20.8494655,85.1826331 C20.963988,85.2208073 21.619106,85.2983871 21.619106,85.5680691 C21.619106,85.7983455 21.4651779,85.9140994 21.2336701,85.9904478 C21.1573217,86.0298534 20.3876813,86.3758837 20.3482757,86.3758837 C20.3101015,86.4140579 19.3483587,88.5690513 19.1562565,88.9926614 C22.6966027,88.4151232 24.4279859,87.9151647 26.6987332,87.0297703 L26.4290512,91.339757 C22.9662847,92.1475716 19.810143,92.4948334 17.2315396,92.8026896 C16.0001148,95.0734369 15.6922586,95.6115695 15.0383721,96.6127178 C15.5383305,96.38121 16.6934069,95.8036718 18.3484418,95.8036718 C21.0033936,95.8036718 22.6966027,97.1508505 23.5819971,99.6900483 C28.0840861,97.5744606 28.5840445,97.3429527 30.3930075,96.5351381 L31.7007806,100.921473 C28.6616243,101.884447 26.8144871,102.538334 23.9662016,103.615831" id="Fill-21" fill="#512700"></path>
                        <path d="M7.30354679,47.4241735 C7.41930072,49.0016287 7.41930072,50.5409096 7.45747489,52.7734827 C9.26643787,51.6184063 10.9214728,50.5803152 13.2685684,47.4241735 L7.30354679,47.4241735 Z M14.0382089,47.4241735 L16.2313764,49.0016287 C16.5774067,49.2713107 17.0773652,49.6555152 16.9628427,50.002777 L25.9288464,50.002777 L25.9288464,47.8859578 L29.3916129,48.0780601 C30.0073253,48.1162343 30.5848635,48.1556399 30.5848635,48.5398444 C30.5848635,48.6555983 30.5085152,48.7713522 30.3545871,48.8858747 C30.0467309,49.1173826 30.0467309,49.1937309 30.0467309,50.002777 L34.7409221,50.002777 L34.7409221,53.0037592 L30.0467309,53.0037592 L30.0467309,56.1204953 C30.0467309,57.467674 28.5837982,58.7766785 24.9671037,58.8530268 L23.3896486,55.3508548 C23.7738531,55.3902604 24.5053194,55.4666087 24.8131756,55.4666087 C25.5446419,55.4666087 25.9288464,55.2745064 25.9288464,54.4272862 L25.9288464,53.0037592 L19.6177945,53.0037592 C20.5031889,53.3891951 22.0042957,54.2351839 22.9278643,55.0824042 L21.4649316,57.7755302 C21.810962,57.7755302 22.8121103,57.8531099 22.8121103,58.3530684 C22.8121103,58.5451706 22.6963564,58.6227504 22.5424283,58.8148527 C22.3121519,59.0845347 22.2727463,59.2002886 22.196398,59.3542167 L32.5859287,59.3542167 L32.5859287,70.8975925 C32.5859287,74.2076623 29.2770904,74.5536926 26.9299948,74.5536926 L25.7749183,71.3212026 L24.5434936,72.7447297 C23.0817924,72.0526689 21.8885418,71.3593768 20.1953327,69.9740239 C18.9639079,71.2448543 17.694309,72.3986993 15.7314179,73.6301241 L12.652856,71.2448543 C15.0762999,70.2055318 17.6549034,68.6662508 19.4638664,65.471935 L22.1582238,66.5112575 C22.2727463,66.5494316 22.6963564,66.7427653 22.6963564,67.0887957 C22.6963564,67.3190721 22.5424283,67.3966519 22.080644,67.6651025 C23.6580992,69.0504553 25.7367442,69.6279936 27.0063431,69.8595014 L26.4682105,70.4752138 C26.8905892,70.6673161 27.2760251,70.7054902 27.3905476,70.7054902 C28.1220139,70.7054902 28.5837982,70.3594599 28.5837982,68.974107 L28.5837982,62.6248809 L23.4278227,62.6248809 C23.9277812,63.2024191 25.1973801,64.587772 28.0838398,65.3574125 L25.8130925,67.8966103 C23.619925,66.9730418 21.6964395,65.5113406 20.0414046,63.7787259 C19.0796619,65.1640788 17.7706573,66.6651856 15.4999101,67.8584362 L13.0370605,65.3180069 C14.4224134,64.7417001 15.8459404,63.932654 16.6931607,62.6248809 L12.4595223,62.6248809 L12.4595223,74.6312724 L8.49679739,74.6312724 L8.49679739,59.3542167 L18.0785135,59.3542167 C18.1560933,59.0463605 18.3100214,58.4688223 18.4245439,57.5452537 L21.2346552,57.7755302 C20.5031889,57.1598178 19.23359,56.1599009 17.7324832,55.5047829 L19.0796619,53.0037592 L16.4616528,53.0037592 L16.4616528,50.2330534 C16.1537966,50.2330534 15.9235202,50.272459 15.7695921,50.5027355 C15.615664,50.6566636 14.9999516,51.426304 14.8460235,51.5802321 C15.1157055,51.6578119 15.4617359,51.7341602 15.4617359,52.0420164 C15.4617359,52.3880468 14.9223718,52.5419749 14.7302696,52.6195546 L14.7302696,58.5069965 L10.9596469,58.5069965 L10.9596469,55.0824042 C10.0742525,55.8126391 9.92032442,55.928393 9.57429406,56.1599009 L7.45747489,54.2351839 C7.45747489,57.6991818 7.49564905,60.3541336 7.11144452,63.8944798 C6.49573214,69.8595014 5.34065571,72.5144532 4.53284106,74.4379387 L0.107100433,73.0144117 C1.76213532,69.6661677 3.60927248,65.8573709 3.60927248,56.2744234 C3.60927248,54.8127222 3.53169272,49.3094849 2.99356009,43.8838273 L15.9998685,43.8838273 L15.9998685,41.3828036 L20.5795372,41.5749059 C21.0031474,41.5749059 21.7727878,41.6524856 21.7727878,42.1142699 C21.7727878,42.268198 21.6570339,42.4221261 21.3885833,42.6524026 C21.0413215,42.9602587 21.0031474,43.0366071 21.0031474,43.152361 L21.0031474,43.8838273 L34.8948502,43.8838273 L34.8948502,47.4241735 L14.0382089,47.4241735 Z" id="Fill-22" fill="#512700"></path>
                        <path d="M10.4967544,16.7921894 L26.3131741,16.7921894 L26.3131741,11.7125623 L10.4967544,11.7125623 L10.4967544,16.7921894 Z M2.83975514,5.24758223 L33.7411283,5.24758223 L33.7411283,1.47572816 L2.83975514,1.47572816 L2.83975514,5.24758223 Z M2.07011466,32.5692036 L2.07011466,28.4907248 L12.4596454,28.4907248 C11.5360769,26.3357314 10.3822319,24.6425224 9.18898125,23.3335178 L12.9608353,20.8706683 C13.9607522,22.1020931 15.7697152,24.5649426 16.7696321,27.0277921 L14.4225365,28.4907248 L19.6179176,28.4907248 C21.2729525,26.0660494 22.4649717,23.8728819 23.6582223,20.7167402 L6.07224516,20.7167402 L6.07224516,7.74860593 L30.4310585,7.74860593 L30.4310585,20.7167402 L24.8132987,20.7167402 L27.8918607,22.4493548 C28.0839629,22.5638773 28.5839214,22.8335594 28.5839214,23.2571695 C28.5839214,23.641374 28.0457888,23.7953021 27.4300764,23.9492302 C26.8907123,25.180655 25.7368673,27.2974742 24.9278212,28.4907248 L34.4713632,28.4907248 L34.4713632,32.5692036 L2.07011466,32.5692036 Z" id="Fill-23" fill="#512700"></path>
                    </g>
                </g>
            </g>
        </g>
    </g>
</svg>