<?xml version="1.0" encoding="UTF-8"?>
<svg width="204px" height="32px" viewBox="0 0 204 32" version="1.1" xmlns="http://www.w3.org/2000/svg" xmlns:xlink="http://www.w3.org/1999/xlink">
    <!-- Generator: Sketch 56.2 (81672) - https://sketch.com -->
    <title>txt-reason1-en</title>
    <desc>Created with Sketch.</desc>
    <g id="Page-1" stroke="none" stroke-width="1" fill="none" fill-rule="evenodd">
        <g id="top-fix" transform="translate(-796.000000, -2510.000000)" fill="#4E2700" fill-rule="nonzero">
            <path d="M796.26,2522.8 C796.26,2521.09999 796.534997,2519.58501 797.085,2518.255 C797.635003,2516.92499 798.404995,2515.8 799.395,2514.88 C800.385005,2513.96 801.569993,2513.26 802.95,2512.78 C804.330007,2512.3 805.839992,2512.06 807.48,2512.06 C809.140008,2512.06 810.659993,2512.3 812.04,2512.78 C813.420007,2513.26 814.604995,2513.96 815.595,2514.88 C816.585005,2515.8 817.354997,2516.92499 817.905,2518.255 C818.455003,2519.58501 818.73,2521.09999 818.73,2522.8 C818.73,2524.50001 818.455003,2526.01499 817.905,2527.345 C817.354997,2528.67501 816.585005,2529.8 815.595,2530.72 C814.604995,2531.64 813.420007,2532.325 812.04,2532.775 C810.659993,2533.225 809.140008,2533.45 807.48,2533.45 C805.839992,2533.45 804.330007,2533.225 802.95,2532.775 C801.569993,2532.325 800.385005,2531.64 799.395,2530.72 C798.404995,2529.8 797.635003,2528.67501 797.085,2527.345 C796.534997,2526.01499 796.26,2524.50001 796.26,2522.8 Z M815.79,2522.8 C815.79,2521.13999 815.580002,2519.70501 815.16,2518.495 C814.739998,2517.28499 814.155004,2516.285 813.405,2515.495 C812.654996,2514.705 811.775005,2514.12 810.765,2513.74 C809.754995,2513.36 808.660006,2513.17 807.48,2513.17 C806.319994,2513.17 805.235005,2513.36 804.225,2513.74 C803.214995,2514.12 802.335004,2514.705 801.585,2515.495 C800.834996,2516.285 800.250002,2517.28499 799.83,2518.495 C799.409998,2519.70501 799.2,2521.13999 799.2,2522.8 C799.2,2524.46001 799.409998,2525.89499 799.83,2527.105 C800.250002,2528.31501 800.834996,2529.315 801.585,2530.105 C802.335004,2530.895 803.214995,2531.48 804.225,2531.86 C805.235005,2532.24 806.319994,2532.43 807.48,2532.43 C808.660006,2532.43 809.754995,2532.24 810.765,2531.86 C811.775005,2531.48 812.654996,2530.895 813.405,2530.105 C814.155004,2529.315 814.739998,2528.31501 815.16,2527.105 C815.580002,2525.89499 815.79,2524.46001 815.79,2522.8 Z M830.415,2521.27 C830.314999,2521.15 830.120001,2521.04 829.83,2520.94 C829.539999,2520.84 829.245001,2520.79 828.945,2520.79 C828.464998,2520.79 828.035002,2520.9 827.655,2521.12 C827.274998,2521.34 826.955001,2521.635 826.695,2522.005 C826.434999,2522.375 826.235001,2522.815 826.095,2523.325 C825.954999,2523.835 825.885,2524.38 825.885,2524.96 L825.885,2528.26 C825.885,2529.60001 825.89,2530.625 825.9,2531.335 C825.91,2532.045 825.945,2532.62 826.005,2533.06 C825.604998,2533.02 825.205002,2533 824.805,2533 C824.364998,2533 823.945002,2533.02 823.545,2533.06 C823.605,2532.38 823.64,2531.45501 823.65,2530.285 C823.66,2529.11499 823.665,2527.68001 823.665,2525.98 L823.665,2525.02 C823.665,2524.24 823.66,2523.34001 823.65,2522.32 C823.64,2521.29999 823.605,2520.13001 823.545,2518.81 C823.765001,2518.85 823.974999,2518.885 824.175,2518.915 C824.375001,2518.945 824.584999,2518.96 824.805,2518.96 C824.985001,2518.96 825.174999,2518.945 825.375,2518.915 C825.575001,2518.885 825.784999,2518.85 826.005,2518.81 C825.925,2519.53 825.88,2520.1 825.87,2520.52 C825.86,2520.94 825.855,2521.34 825.855,2521.72 L825.915,2521.75 C827.095006,2519.58999 828.414993,2518.51 829.875,2518.51 C830.055001,2518.51 830.209999,2518.52 830.34,2518.54 C830.470001,2518.56 830.634999,2518.61 830.835,2518.69 C830.734999,2518.93 830.675,2519.295 830.655,2519.785 C830.635,2520.275 830.625,2520.72 830.625,2521.12 L830.415,2521.27 Z M835.17,2513.59 C835.17,2513.17 835.319998,2512.81 835.62,2512.51 C835.920002,2512.21 836.279998,2512.06 836.7,2512.06 C837.120002,2512.06 837.479998,2512.21 837.78,2512.51 C838.080001,2512.81 838.23,2513.17 838.23,2513.59 C838.23,2514.01 838.080001,2514.37 837.78,2514.67 C837.479998,2514.97 837.120002,2515.12 836.7,2515.12 C836.279998,2515.12 835.920002,2514.97 835.62,2514.67 C835.319998,2514.37 835.17,2514.01 835.17,2513.59 Z M835.59,2524.42 C835.59,2523.52 835.575,2522.575 835.545,2521.585 C835.515,2520.595 835.45,2519.67 835.35,2518.81 C835.910003,2518.91 836.359998,2518.96 836.7,2518.96 C837.040002,2518.96 837.489997,2518.91 838.05,2518.81 C837.949999,2519.67 837.885,2520.595 837.855,2521.585 C837.825,2522.575 837.81,2523.52 837.81,2524.42 L837.81,2527.54 C837.81,2528.44 837.825,2529.385 837.855,2530.375 C837.885,2531.365 837.949999,2532.26 838.05,2533.06 C837.589998,2533.02 837.140002,2533 836.7,2533 C836.259998,2533 835.810002,2533.02 835.35,2533.06 C835.45,2532.26 835.515,2531.365 835.545,2530.375 C835.575,2529.385 835.59,2528.44 835.59,2527.54 L835.59,2524.42 Z M854.295,2536.24 C854.295,2535.03999 853.945003,2534.2 853.245,2533.72 C852.544997,2533.24 851.385008,2533 849.765,2533 C848.264993,2533 847.105004,2533.245 846.285,2533.735 C845.464996,2534.225 845.055,2535.10999 845.055,2536.39 C845.055,2537.07 845.169999,2537.65 845.4,2538.13 C845.630001,2538.61 845.939998,2539 846.33,2539.3 C846.720002,2539.6 847.184997,2539.82 847.725,2539.96 C848.265003,2540.1 848.844997,2540.17 849.465,2540.17 C850.065003,2540.17 850.654997,2540.09 851.235,2539.93 C851.815003,2539.77 852.329998,2539.53 852.78,2539.21 C853.230002,2538.89 853.594999,2538.485 853.875,2537.995 C854.155001,2537.505 854.295,2536.92 854.295,2536.24 Z M852.675,2523.25 C852.675,2521.98999 852.375003,2521.03 851.775,2520.37 C851.174997,2519.71 850.385005,2519.38 849.405,2519.38 C848.324995,2519.38 847.485,2519.745 846.885,2520.475 C846.284997,2521.205 845.985,2522.17999 845.985,2523.4 C845.985,2524.66001 846.259997,2525.655 846.81,2526.385 C847.360003,2527.115 848.214994,2527.48 849.375,2527.48 C849.955003,2527.48 850.449998,2527.365 850.86,2527.135 C851.270002,2526.905 851.609999,2526.595 851.88,2526.205 C852.150001,2525.815 852.349999,2525.365 852.48,2524.855 C852.610001,2524.345 852.675,2523.81 852.675,2523.25 Z M843.645,2523.4 C843.645,2522.56 843.794999,2521.835 844.095,2521.225 C844.395002,2520.615 844.809997,2520.11 845.34,2519.71 C845.870003,2519.31 846.479997,2519.01 847.17,2518.81 C847.860003,2518.61 848.594996,2518.51 849.375,2518.51 C849.755002,2518.51 850.119998,2518.52 850.47,2518.54 C850.820002,2518.56 851.264997,2518.59 851.805,2518.63 C852.265002,2518.67 852.674998,2518.7 853.035,2518.72 C853.395002,2518.74 853.684999,2518.75 853.905,2518.75 C855.025006,2518.75 855.834997,2518.7 856.335,2518.6 C856.315,2518.7 856.3,2518.805 856.29,2518.915 C856.28,2519.025 856.275,2519.13 856.275,2519.23 C856.275,2519.33 856.28,2519.435 856.29,2519.545 C856.3,2519.655 856.315,2519.76 856.335,2519.86 C855.754997,2519.82 855.190003,2519.775 854.64,2519.725 C854.089997,2519.675 853.545003,2519.64 853.005,2519.62 L852.945,2519.68 C853.565003,2520.02 854.064998,2520.545 854.445,2521.255 C854.825002,2521.965 855.015,2522.7 855.015,2523.46 C855.015,2524.96001 854.510005,2526.135 853.5,2526.985 C852.489995,2527.835 851.135,2528.26 849.435,2528.26 C849.154999,2528.26 848.880001,2528.25 848.61,2528.23 C848.339999,2528.21 848.065001,2528.2 847.785,2528.2 C847.424998,2528.2 847.090002,2528.33 846.78,2528.59 C846.469998,2528.85 846.315,2529.18 846.315,2529.58 C846.315,2530.1 846.439999,2530.48 846.69,2530.72 C846.940001,2530.96 847.404997,2531.09 848.085,2531.11 C848.645003,2531.13 849.194997,2531.145 849.735,2531.155 C850.275003,2531.165 850.824997,2531.18 851.385,2531.2 C852.305005,2531.22 853.089997,2531.33 853.74,2531.53 C854.390003,2531.73 854.919998,2532 855.33,2532.34 C855.740002,2532.68 856.039999,2533.07 856.23,2533.51 C856.420001,2533.95 856.515,2534.43 856.515,2534.95 C856.515,2535.65 856.380001,2536.36 856.11,2537.08 C855.839999,2537.8 855.420003,2538.45 854.85,2539.03 C854.279997,2539.61 853.545005,2540.09 852.645,2540.47 C851.744995,2540.85 850.665006,2541.04 849.405,2541.04 C847.46499,2541.04 845.935006,2540.655 844.815,2539.885 C843.694994,2539.115 843.135,2538.06001 843.135,2536.72 C843.135,2536.2 843.229999,2535.72 843.42,2535.28 C843.610001,2534.84 843.854998,2534.45 844.155,2534.11 C844.455001,2533.77 844.794998,2533.5 845.175,2533.3 C845.555002,2533.1 845.944998,2532.95 846.345,2532.85 L846.345,2532.79 C845.724997,2532.61 845.255002,2532.31 844.935,2531.89 C844.614998,2531.47 844.455,2530.97 844.455,2530.39 C844.455,2530.05 844.519999,2529.74 844.65,2529.46 C844.780001,2529.18 844.944999,2528.93 845.145,2528.71 C845.345001,2528.49 845.574999,2528.31 845.835,2528.17 C846.095001,2528.03 846.344999,2527.94 846.585,2527.9 L846.585,2527.84 C845.664995,2527.44 844.945003,2526.875 844.425,2526.145 C843.904997,2525.415 843.645,2524.50001 843.645,2523.4 Z M861.06,2513.59 C861.06,2513.17 861.209998,2512.81 861.51,2512.51 C861.810001,2512.21 862.169998,2512.06 862.59,2512.06 C863.010002,2512.06 863.369998,2512.21 863.67,2512.51 C863.970001,2512.81 864.12,2513.17 864.12,2513.59 C864.12,2514.01 863.970001,2514.37 863.67,2514.67 C863.369998,2514.97 863.010002,2515.12 862.59,2515.12 C862.169998,2515.12 861.810001,2514.97 861.51,2514.67 C861.209998,2514.37 861.06,2514.01 861.06,2513.59 Z M861.48,2524.42 C861.48,2523.52 861.465,2522.575 861.435,2521.585 C861.405,2520.595 861.34,2519.67 861.24,2518.81 C861.800003,2518.91 862.249998,2518.96 862.59,2518.96 C862.930002,2518.96 863.379997,2518.91 863.94,2518.81 C863.839999,2519.67 863.775,2520.595 863.745,2521.585 C863.715,2522.575 863.7,2523.52 863.7,2524.42 L863.7,2527.54 C863.7,2528.44 863.715,2529.385 863.745,2530.375 C863.775,2531.365 863.839999,2532.26 863.94,2533.06 C863.479998,2533.02 863.030002,2533 862.59,2533 C862.149998,2533 861.700002,2533.02 861.24,2533.06 C861.34,2532.26 861.405,2531.365 861.435,2530.375 C861.465,2529.385 861.48,2528.44 861.48,2527.54 L861.48,2524.42 Z M880.095,2524.63 C880.095,2523.12999 879.805003,2521.995 879.225,2521.225 C878.644997,2520.455 877.845005,2520.07 876.825,2520.07 C875.424993,2520.07 874.400003,2520.5 873.75,2521.36 C873.099997,2522.22 872.775,2523.42999 872.775,2524.99 L872.775,2527.54 C872.775,2528.44 872.79,2529.385 872.82,2530.375 C872.85,2531.365 872.915,2532.26 873.015,2533.06 C872.554998,2533.02 872.105002,2533 871.665,2533 C871.224998,2533 870.775002,2533.02 870.315,2533.06 C870.415001,2532.26 870.48,2531.365 870.51,2530.375 C870.54,2529.385 870.555,2528.44 870.555,2527.54 L870.555,2524.42 C870.555,2523.52 870.54,2522.575 870.51,2521.585 C870.48,2520.595 870.415001,2519.67 870.315,2518.81 C870.875003,2518.91 871.324998,2518.96 871.665,2518.96 C871.825001,2518.96 871.999999,2518.945 872.19,2518.915 C872.380001,2518.885 872.604999,2518.85 872.865,2518.81 C872.805,2519.61 872.775,2520.41 872.775,2521.21 L872.835,2521.21 C873.395003,2520.35 874.064996,2519.685 874.845,2519.215 C875.625004,2518.745 876.554995,2518.51 877.635,2518.51 C878.195003,2518.51 878.759997,2518.59 879.33,2518.75 C879.900003,2518.91 880.414998,2519.185 880.875,2519.575 C881.335002,2519.965 881.709999,2520.495 882,2521.165 C882.290001,2521.835 882.435,2522.68999 882.435,2523.73 C882.435,2524.59 882.415,2525.475 882.375,2526.385 C882.335,2527.295 882.315,2528.25999 882.315,2529.28 L882.315,2531.23 C882.315,2531.55 882.32,2531.865 882.33,2532.175 C882.34,2532.485 882.355,2532.78 882.375,2533.06 C881.974998,2533.02 881.555002,2533 881.115,2533 C880.694998,2533 880.285002,2533.02 879.885,2533.06 C879.925,2532.01999 879.97,2530.95001 880.02,2529.85 C880.07,2528.74999 880.095,2527.62001 880.095,2526.46 L880.095,2524.63 Z M895.98,2525.59 C895.639998,2525.71 895.245002,2525.81 894.795,2525.89 C894.344998,2525.97 893.890002,2526.055 893.43,2526.145 C892.969998,2526.235 892.515002,2526.35 892.065,2526.49 C891.614998,2526.63 891.215002,2526.82 890.865,2527.06 C890.514998,2527.3 890.235001,2527.6 890.025,2527.96 C889.814999,2528.32 889.71,2528.78 889.71,2529.34 C889.71,2530.28 889.979997,2530.99 890.52,2531.47 C891.060003,2531.95 891.659997,2532.19 892.32,2532.19 C893.080004,2532.19 893.774997,2531.98 894.405,2531.56 C895.035003,2531.14 895.519998,2530.65 895.86,2530.09 L895.98,2525.59 Z M888.57,2520.25 C889.470004,2519.57 890.299996,2519.11 891.06,2518.87 C891.820004,2518.63 892.599996,2518.51 893.4,2518.51 C894.120004,2518.51 894.779997,2518.615 895.38,2518.825 C895.980003,2519.035 896.489998,2519.335 896.91,2519.725 C897.330002,2520.115 897.659999,2520.585 897.9,2521.135 C898.140001,2521.685 898.26,2522.29 898.26,2522.95 C898.26,2524.09001 898.24,2525.22499 898.2,2526.355 C898.16,2527.48501 898.14,2528.67999 898.14,2529.94 C898.14,2530.18 898.145,2530.435 898.155,2530.705 C898.165,2530.975 898.21,2531.215 898.29,2531.425 C898.37,2531.635 898.484999,2531.81 898.635,2531.95 C898.785001,2532.09 899.009999,2532.16 899.31,2532.16 C899.410001,2532.16 899.514999,2532.155 899.625,2532.145 C899.735001,2532.135 899.839999,2532.1 899.94,2532.04 L899.94,2532.7 C899.719999,2532.8 899.445002,2532.88 899.115,2532.94 C898.784998,2533 898.420002,2533.03 898.02,2533.03 C897.379997,2533.03 896.890002,2532.865 896.55,2532.535 C896.209998,2532.205 896.01,2531.78 895.95,2531.26 C895.229996,2531.98 894.520004,2532.51 893.82,2532.85 C893.119996,2533.19 892.260005,2533.36 891.24,2533.36 C890.739997,2533.36 890.25,2533.29 889.77,2533.15 C889.289998,2533.01 888.865002,2532.78 888.495,2532.46 C888.124998,2532.14 887.825001,2531.755 887.595,2531.305 C887.364999,2530.855 887.25,2530.34 887.25,2529.76 C887.25,2528.55999 887.624996,2527.63 888.375,2526.97 C889.125004,2526.31 890.159993,2525.87 891.48,2525.65 C892.560005,2525.47 893.404997,2525.315 894.015,2525.185 C894.625003,2525.055 895.074999,2524.92 895.365,2524.78 C895.655001,2524.64 895.83,2524.475 895.89,2524.285 C895.95,2524.095 895.98,2523.85 895.98,2523.55 C895.98,2523.05 895.920001,2522.57 895.8,2522.11 C895.679999,2521.65 895.490001,2521.25 895.23,2520.91 C894.969999,2520.57 894.630002,2520.295 894.21,2520.085 C893.789998,2519.875 893.280003,2519.77 892.68,2519.77 C891.879996,2519.77 891.135003,2519.95 890.445,2520.31 C889.754997,2520.67 889.240002,2521.17 888.9,2521.81 L888.57,2521.81 L888.57,2520.25 Z M905.325,2519.08 C905.325,2518.4 905.32,2517.66 905.31,2516.86 C905.3,2516.06 905.285,2515.27 905.265,2514.49 C905.245,2513.71 905.22,2512.965 905.19,2512.255 C905.16,2511.545 905.125,2510.94 905.085,2510.44 C905.645003,2510.54 906.094998,2510.59 906.435,2510.59 C906.775002,2510.59 907.224997,2510.54 907.785,2510.44 C907.745,2510.94 907.71,2511.545 907.68,2512.255 C907.65,2512.965 907.625,2513.71 907.605,2514.49 C907.585,2515.27 907.57,2516.06 907.56,2516.86 C907.55,2517.66 907.545,2518.4 907.545,2519.08 L907.545,2524.51 C907.545,2525.19 907.55,2525.93 907.56,2526.73 C907.57,2527.53 907.585,2528.32 907.605,2529.1 C907.625,2529.88 907.65,2530.62 907.68,2531.32 C907.71,2532.02 907.745,2532.6 907.785,2533.06 C907.324998,2533.02 906.875002,2533 906.435,2533 C905.994998,2533 905.545002,2533.02 905.085,2533.06 C905.125,2532.6 905.16,2532.02 905.19,2531.32 C905.22,2530.62 905.245,2529.88 905.265,2529.1 C905.285,2528.32 905.3,2527.53 905.31,2526.73 C905.32,2525.93 905.325,2525.19 905.325,2524.51 L905.325,2519.08 Z M926.895,2525.83 C926.895,2526.85001 926.915,2527.85999 926.955,2528.86 C926.995,2529.86001 927.035,2530.86999 927.075,2531.89 C927.455002,2531.93 927.904997,2531.965 928.425,2531.995 C928.945003,2532.025 929.474997,2532.04 930.015,2532.04 C930.655003,2532.04 931.269997,2531.93 931.86,2531.71 C932.450003,2531.49 932.964998,2531.165 933.405,2530.735 C933.845002,2530.305 934.194999,2529.775 934.455,2529.145 C934.715001,2528.515 934.845,2527.8 934.845,2527 C934.845,2526.14 934.690002,2525.435 934.38,2524.885 C934.069998,2524.335 933.625003,2523.905 933.045,2523.595 C932.464997,2523.285 931.770004,2523.07 930.96,2522.95 C930.149996,2522.83 929.245005,2522.77 928.245,2522.77 L926.895,2522.77 L926.895,2525.83 Z M928.515,2521.66 C929.215003,2521.66 929.909997,2521.59 930.6,2521.45 C931.290003,2521.31 931.904997,2521.075 932.445,2520.745 C932.985003,2520.415 933.419998,2519.975 933.75,2519.425 C934.080002,2518.875 934.245,2518.18 934.245,2517.34 C934.245,2516.52 934.095001,2515.865 933.795,2515.375 C933.494998,2514.885 933.115002,2514.505 932.655,2514.235 C932.194998,2513.965 931.675003,2513.785 931.095,2513.695 C930.514997,2513.605 929.935003,2513.56 929.355,2513.56 C928.834997,2513.56 928.395,2513.575 928.035,2513.605 C927.674998,2513.635 927.355001,2513.67 927.075,2513.71 C927.035,2514.67 926.995,2515.62 926.955,2516.56 C926.915,2517.5 926.895,2518.45 926.895,2519.41 L926.895,2521.66 L928.515,2521.66 Z M924.435,2520.19 C924.435,2518.86999 924.41,2517.57001 924.36,2516.29 C924.31,2515.00999 924.255,2513.73001 924.195,2512.45 C924.715003,2512.49 925.244997,2512.525 925.785,2512.555 C926.325003,2512.585 926.854997,2512.6 927.375,2512.6 C927.895003,2512.6 928.424997,2512.575 928.965,2512.525 C929.505003,2512.475 930.034997,2512.45 930.555,2512.45 C931.415004,2512.45 932.224996,2512.515 932.985,2512.645 C933.745004,2512.775 934.414997,2513.005 934.995,2513.335 C935.575003,2513.665 936.034998,2514.11 936.375,2514.67 C936.715002,2515.23 936.885,2515.93 936.885,2516.77 C936.885,2518.25001 936.420005,2519.41 935.49,2520.25 C934.559995,2521.09 933.345007,2521.68 931.845,2522.02 L931.845,2522.08 C933.625009,2522.16 935.029995,2522.59 936.06,2523.37 C937.090005,2524.15 937.605,2525.39999 937.605,2527.12 C937.605,2528.24001 937.375002,2529.18 936.915,2529.94 C936.454998,2530.7 935.855004,2531.315 935.115,2531.785 C934.374996,2532.255 933.560004,2532.585 932.67,2532.775 C931.779996,2532.965 930.895004,2533.06 930.015,2533.06 C929.534998,2533.06 929.050002,2533.05 928.56,2533.03 C928.069998,2533.01 927.585002,2533 927.105,2533 L925.65,2533 C925.159998,2533 924.675002,2533.02 924.195,2533.06 C924.255,2531.77999 924.31,2530.50501 924.36,2529.235 C924.41,2527.96499 924.435,2526.67001 924.435,2525.35 L924.435,2520.19 Z M944.16,2519.08 C944.16,2518.4 944.155,2517.66 944.145,2516.86 C944.135,2516.06 944.12,2515.27 944.1,2514.49 C944.08,2513.71 944.055,2512.965 944.025,2512.255 C943.995,2511.545 943.96,2510.94 943.92,2510.44 C944.480003,2510.54 944.929998,2510.59 945.27,2510.59 C945.610002,2510.59 946.059997,2510.54 946.62,2510.44 C946.58,2510.94 946.545,2511.545 946.515,2512.255 C946.485,2512.965 946.46,2513.71 946.44,2514.49 C946.42,2515.27 946.405,2516.06 946.395,2516.86 C946.385,2517.66 946.38,2518.4 946.38,2519.08 L946.38,2524.51 C946.38,2525.19 946.385,2525.93 946.395,2526.73 C946.405,2527.53 946.42,2528.32 946.44,2529.1 C946.46,2529.88 946.485,2530.62 946.515,2531.32 C946.545,2532.02 946.58,2532.6 946.62,2533.06 C946.159998,2533.02 945.710002,2533 945.27,2533 C944.829998,2533 944.380002,2533.02 943.92,2533.06 C943.96,2532.6 943.995,2532.02 944.025,2531.32 C944.055,2530.62 944.08,2529.88 944.1,2529.1 C944.12,2528.32 944.135,2527.53 944.145,2526.73 C944.155,2525.93 944.16,2525.19 944.16,2524.51 L944.16,2519.08 Z M958.695,2519.47 C957.954996,2519.47 957.330003,2519.64 956.82,2519.98 C956.309997,2520.32 955.890002,2520.745 955.56,2521.255 C955.229998,2521.765 954.980001,2522.325 954.81,2522.935 C954.639999,2523.545 954.535,2524.12 954.495,2524.66 C955.115003,2524.68 955.759997,2524.7 956.43,2524.72 C957.100003,2524.74 957.754997,2524.75 958.395,2524.75 C959.055003,2524.75 959.724997,2524.74 960.405,2524.72 C961.085003,2524.7 961.744997,2524.68 962.385,2524.66 C962.385,2524.12 962.34,2523.55 962.25,2522.95 C962.16,2522.35 961.980001,2521.79 961.71,2521.27 C961.439999,2520.75 961.065002,2520.32 960.585,2519.98 C960.104998,2519.64 959.475004,2519.47 958.695,2519.47 Z M951.765,2526.4 C951.765,2523.93999 952.349994,2522.01 953.52,2520.61 C954.690006,2519.20999 956.394989,2518.51 958.635,2518.51 C959.695005,2518.51 960.609996,2518.675 961.38,2519.005 C962.150004,2519.335 962.794997,2519.775 963.315,2520.325 C963.835003,2520.875 964.219999,2521.52 964.47,2522.26 C964.720001,2523 964.845,2523.79 964.845,2524.63 C964.845,2524.83 964.84,2525.025 964.83,2525.215 C964.82,2525.405 964.805,2525.6 964.785,2525.8 C963.704995,2525.78 962.635005,2525.76 961.575,2525.74 C960.514995,2525.72 959.445005,2525.71 958.365,2525.71 C957.704997,2525.71 957.050003,2525.72 956.4,2525.74 C955.749997,2525.76 955.095003,2525.78 954.435,2525.8 C954.415,2525.9 954.405,2526.05 954.405,2526.25 L954.405,2526.64 C954.405,2527.42 954.519999,2528.15 954.75,2528.83 C954.980001,2529.51 955.314998,2530.095 955.755,2530.585 C956.195002,2531.075 956.734997,2531.465 957.375,2531.755 C958.015003,2532.045 958.754996,2532.19 959.595,2532.19 C959.995002,2532.19 960.404998,2532.135 960.825,2532.025 C961.245002,2531.915 961.654998,2531.765 962.055,2531.575 C962.455002,2531.385 962.829998,2531.16 963.18,2530.9 C963.530002,2530.64 963.834999,2530.36 964.095,2530.06 L964.245,2530.15 L964.065,2531.62 C963.464997,2532.1 962.720004,2532.51 961.83,2532.85 C960.939996,2533.19 960.015005,2533.36 959.055,2533.36 C957.974995,2533.36 956.990004,2533.195 956.1,2532.865 C955.209996,2532.535 954.440003,2532.055 953.79,2531.425 C953.139997,2530.795 952.640002,2530.05 952.29,2529.19 C951.939998,2528.33 951.765,2527.4 951.765,2526.4 Z M979.05,2524.63 C979.05,2523.12999 978.760003,2521.995 978.18,2521.225 C977.599997,2520.455 976.800005,2520.07 975.78,2520.07 C974.379993,2520.07 973.355003,2520.5 972.705,2521.36 C972.054997,2522.22 971.73,2523.42999 971.73,2524.99 L971.73,2527.54 C971.73,2528.44 971.745,2529.385 971.775,2530.375 C971.805,2531.365 971.869999,2532.26 971.97,2533.06 C971.509998,2533.02 971.060002,2533 970.62,2533 C970.179998,2533 969.730002,2533.02 969.27,2533.06 C969.37,2532.26 969.435,2531.365 969.465,2530.375 C969.495,2529.385 969.51,2528.44 969.51,2527.54 L969.51,2524.42 C969.51,2523.52 969.495,2522.575 969.465,2521.585 C969.435,2520.595 969.37,2519.67 969.27,2518.81 C969.830003,2518.91 970.279998,2518.96 970.62,2518.96 C970.780001,2518.96 970.954999,2518.945 971.145,2518.915 C971.335001,2518.885 971.559999,2518.85 971.82,2518.81 C971.76,2519.61 971.73,2520.41 971.73,2521.21 L971.79,2521.21 C972.350003,2520.35 973.019996,2519.685 973.8,2519.215 C974.580004,2518.745 975.509995,2518.51 976.59,2518.51 C977.150003,2518.51 977.714997,2518.59 978.285,2518.75 C978.855003,2518.91 979.369998,2519.185 979.83,2519.575 C980.290002,2519.965 980.664999,2520.495 980.955,2521.165 C981.245001,2521.835 981.39,2522.68999 981.39,2523.73 C981.39,2524.59 981.37,2525.475 981.33,2526.385 C981.29,2527.295 981.27,2528.25999 981.27,2529.28 L981.27,2531.23 C981.27,2531.55 981.275,2531.865 981.285,2532.175 C981.295,2532.485 981.31,2532.78 981.33,2533.06 C980.929998,2533.02 980.510002,2533 980.07,2533 C979.649998,2533 979.240002,2533.02 978.84,2533.06 C978.88,2532.01999 978.925,2530.95001 978.975,2529.85 C979.025,2528.74999 979.05,2527.62001 979.05,2526.46 L979.05,2524.63 Z M988.845,2526.25 C988.845,2527.45001 988.969999,2528.44 989.22,2529.22 C989.470001,2530 989.789998,2530.625 990.18,2531.095 C990.570002,2531.565 991.014997,2531.89 991.515,2532.07 C992.015003,2532.25 992.504998,2532.34 992.985,2532.34 C993.765004,2532.34 994.434997,2532.145 994.995,2531.755 C995.555003,2531.365 996.019998,2530.855 996.39,2530.225 C996.760002,2529.595 997.029999,2528.88 997.2,2528.08 C997.370001,2527.28 997.455,2526.48 997.455,2525.68 C997.455,2523.75999 997.085004,2522.29501 996.345,2521.285 C995.604996,2520.27499 994.515007,2519.77 993.075,2519.77 C992.354996,2519.77 991.730003,2519.935 991.2,2520.265 C990.669997,2520.595 990.230002,2521.055 989.88,2521.645 C989.529998,2522.235 989.270001,2522.925 989.1,2523.715 C988.929999,2524.505 988.845,2525.35 988.845,2526.25 Z M997.365,2530.21 C997.205,2530.53 996.990001,2530.875 996.72,2531.245 C996.449999,2531.615 996.110002,2531.96 995.7,2532.28 C995.289998,2532.6 994.805003,2532.86 994.245,2533.06 C993.684997,2533.26 993.035004,2533.36 992.295,2533.36 C991.534996,2533.36 990.790004,2533.23 990.06,2532.97 C989.329996,2532.71 988.680003,2532.285 988.11,2531.695 C987.539997,2531.105 987.080002,2530.345 986.73,2529.415 C986.379998,2528.485 986.205,2527.37001 986.205,2526.07 C986.205,2524.78999 986.394998,2523.68 986.775,2522.74 C987.155002,2521.8 987.649997,2521.015 988.26,2520.385 C988.870003,2519.755 989.559996,2519.285 990.33,2518.975 C991.100004,2518.665 991.874996,2518.51 992.655,2518.51 C994.875011,2518.51 996.414996,2519.50999 997.275,2521.51 L997.335,2521.51 L997.335,2518.57 C997.335,2517.81 997.33,2517.045 997.32,2516.275 C997.31,2515.505 997.3,2514.77 997.29,2514.07 C997.28,2513.37 997.27,2512.71 997.26,2512.09 C997.25,2511.47 997.235,2510.92 997.215,2510.44 C997.455001,2510.48 997.684999,2510.515 997.905,2510.545 C998.125001,2510.575 998.344999,2510.59 998.565,2510.59 C998.785001,2510.59 998.999999,2510.575 999.21,2510.545 C999.420001,2510.515 999.654999,2510.48 999.915,2510.44 C999.855,2511.08 999.805,2512.00499 999.765,2513.215 C999.725,2514.42501 999.69,2515.75999 999.66,2517.22 C999.63,2518.68001 999.605,2520.17999 999.585,2521.72 C999.565,2523.26001 999.555,2524.66999 999.555,2525.95 C999.555,2527.33001 999.565,2528.56999 999.585,2529.67 C999.605,2530.77001 999.625,2531.89999 999.645,2533.06 C999.244998,2533.02 998.855002,2533 998.475,2533 C998.114998,2533 997.735002,2533.02 997.335,2533.06 L997.425,2530.21 L997.365,2530.21 Z" id="OriginalBlend"></path>
        </g>
    </g>
</svg>