<?xml version="1.0" encoding="UTF-8"?>
<svg width="38px" height="22px" viewBox="0 0 38 22" version="1.1" xmlns="http://www.w3.org/2000/svg" xmlns:xlink="http://www.w3.org/1999/xlink">
    <!-- Generator: Sketch 56.2 (81672) - https://sketch.com -->
    <title>txt-keyword2-en</title>
    <desc>Created with Sketch.</desc>
    <g id="Page-1" stroke="none" stroke-width="1" fill="none" fill-rule="evenodd">
        <g id="top-fix" transform="translate(-35.000000, -1819.000000)" fill="#FFFFFF" fill-rule="nonzero">
            <g id="Group-11" transform="translate(35.000000, 1818.000000)">
                <path d="M8.1,10.18 C8.033333,10.0999996 7.9033343,10.026667 7.71,9.96 C7.5166657,9.893333 7.320001,9.86 7.12,9.86 C6.7999984,9.86 6.5133346,9.9333326 6.26,10.08 C6.0066654,10.2266674 5.7933342,10.4233321 5.62,10.67 C5.4466658,10.9166679 5.3133338,11.2099983 5.22,11.55 C5.1266662,11.8900017 5.08,12.2533314 5.08,12.64 L5.08,14.84 C5.08,15.7333378 5.0833333,16.4166643 5.09,16.89 C5.0966667,17.3633357 5.1199998,17.7466652 5.16,18.04 C4.893332,18.0133332 4.626668,18 4.36,18 C4.0666652,18 3.786668,18.0133332 3.52,18.04 C3.5600002,17.5866644 3.5833333,16.9700039 3.59,16.19 C3.5966667,15.4099961 3.6,14.453339 3.6,13.32 L3.6,12.68 C3.6,12.1599974 3.5966667,11.5600034 3.59,10.88 C3.5833333,10.1999966 3.5600002,9.4200044 3.52,8.54 C3.6666674,8.5666668 3.806666,8.5899999 3.94,8.61 C4.073334,8.6300001 4.2133326,8.64 4.36,8.64 C4.4800006,8.64 4.606666,8.6300001 4.74,8.61 C4.873334,8.5899999 5.0133326,8.5666668 5.16,8.54 C5.1066664,9.0200024 5.0766667,9.3999986 5.07,9.68 C5.0633333,9.9600014 5.06,10.2266654 5.06,10.48 L5.1,10.5 C5.8866706,9.0599928 6.7666618,8.34 7.74,8.34 C7.8600006,8.34 7.9633329,8.3466666 8.05,8.36 C8.1366671,8.3733334 8.246666,8.4066664 8.38,8.46 C8.313333,8.6200008 8.2733334,8.8633317 8.26,9.19 C8.2466666,9.5166683 8.24,9.813332 8.24,10.08 L8.1,10.18 Z M15.7022222,13.06 C15.4755544,13.1400004 15.2122237,13.2066664 14.9122222,13.26 C14.6122207,13.3133336 14.3088904,13.3699997 14.0022222,13.43 C13.695554,13.4900003 13.3922237,13.5666662 13.0922222,13.66 C12.7922207,13.7533338 12.5255567,13.8799992 12.2922222,14.04 C12.0588877,14.2000008 11.8722229,14.3999988 11.7322222,14.64 C11.5922215,14.8800012 11.5222222,15.1866648 11.5222222,15.56 C11.5222222,16.1866698 11.7022204,16.6599984 12.0622222,16.98 C12.422224,17.3000016 12.82222,17.46 13.2622222,17.46 C13.7688914,17.46 14.2322201,17.3200014 14.6522222,17.04 C15.0722243,16.7599986 15.3955544,16.4333352 15.6222222,16.06 L15.7022222,13.06 Z M10.7622222,9.5 C11.3622252,9.0466644 11.915553,8.7400008 12.4222222,8.58 C12.9288914,8.4199992 13.4488862,8.34 13.9822222,8.34 C14.4622246,8.34 14.9022202,8.4099993 15.3022222,8.55 C15.7022242,8.6900007 16.0422208,8.8899987 16.3222222,9.15 C16.6022236,9.4100013 16.8222214,9.7233315 16.9822222,10.09 C17.142223,10.4566685 17.2222222,10.8599978 17.2222222,11.3 C17.2222222,12.0600038 17.208889,12.8166629 17.1822222,13.57 C17.1555554,14.3233371 17.1422222,15.1199958 17.1422222,15.96 C17.1422222,16.1200008 17.1455555,16.2899991 17.1522222,16.47 C17.1588889,16.6500009 17.1888886,16.8099993 17.2422222,16.95 C17.2955558,17.0900007 17.3722217,17.2066662 17.4722222,17.3 C17.5722227,17.3933338 17.7222212,17.44 17.9222222,17.44 C17.9888892,17.44 18.0588885,17.4366667 18.1322222,17.43 C18.2055559,17.4233333 18.2755552,17.4000002 18.3422222,17.36 L18.3422222,17.8 C18.1955548,17.866667 18.0122233,17.9199998 17.7922222,17.96 C17.5722211,18.0000002 17.3288902,18.02 17.0622222,18.02 C16.6355534,18.02 16.30889,17.9100011 16.0822222,17.69 C15.8555544,17.4699989 15.7222224,17.1866684 15.6822222,16.84 C15.2022198,17.3200024 14.7288912,17.6733322 14.2622222,17.9 C13.7955532,18.1266678 13.2222256,18.24 12.5422222,18.24 C12.2088872,18.24 11.8822222,18.1933338 11.5622222,18.1 C11.2422206,18.0066662 10.9588901,17.8533344 10.7122222,17.64 C10.4655543,17.4266656 10.2655563,17.1700015 10.1122222,16.87 C9.95888812,16.5699985 9.88222222,16.2266686 9.88222222,15.84 C9.88222222,15.039996 10.1322197,14.4200022 10.6322222,13.98 C11.1322247,13.5399978 11.8222178,13.2466674 12.7022222,13.1 C13.4222258,12.9799994 13.9855535,12.8766671 14.3922222,12.79 C14.7988909,12.7033329 15.0988879,12.6133338 15.2922222,12.52 C15.4855565,12.4266662 15.602222,12.3166673 15.6422222,12.19 C15.6822224,12.0633327 15.7022222,11.900001 15.7022222,11.7 C15.7022222,11.366665 15.6622226,11.0466682 15.5822222,10.74 C15.5022218,10.4333318 15.3755564,10.1666678 15.2022222,9.94 C15.028888,9.7133322 14.8022236,9.5300007 14.5222222,9.39 C14.2422208,9.2499993 13.9022242,9.18 13.5022222,9.18 C12.9688862,9.18 12.4722245,9.2999988 12.0122222,9.54 C11.5522199,9.7800012 11.20889,10.1133312 10.9822222,10.54 L10.7622222,10.54 L10.7622222,9.5 Z M25.7644444,10.18 C25.6977774,10.0999996 25.5677787,10.026667 25.3744444,9.96 C25.1811101,9.893333 24.9844454,9.86 24.7844444,9.86 C24.4644428,9.86 24.177779,9.9333326 23.9244444,10.08 C23.6711098,10.2266674 23.4577786,10.4233321 23.2844444,10.67 C23.1111102,10.9166679 22.9777782,11.2099983 22.8844444,11.55 C22.7911106,11.8900017 22.7444444,12.2533314 22.7444444,12.64 L22.7444444,14.84 C22.7444444,15.7333378 22.7477777,16.4166643 22.7544444,16.89 C22.7611111,17.3633357 22.7844442,17.7466652 22.8244444,18.04 C22.5577764,18.0133332 22.2911124,18 22.0244444,18 C21.7311096,18 21.4511124,18.0133332 21.1844444,18.04 C21.2244446,17.5866644 21.2477777,16.9700039 21.2544444,16.19 C21.2611111,15.4099961 21.2644444,14.453339 21.2644444,13.32 L21.2644444,12.68 C21.2644444,12.1599974 21.2611111,11.5600034 21.2544444,10.88 C21.2477777,10.1999966 21.2244446,9.4200044 21.1844444,8.54 C21.3311118,8.5666668 21.4711104,8.5899999 21.6044444,8.61 C21.7377784,8.6300001 21.877777,8.64 22.0244444,8.64 C22.144445,8.64 22.2711104,8.6300001 22.4044444,8.61 C22.5377784,8.5899999 22.677777,8.5666668 22.8244444,8.54 C22.7711108,9.0200024 22.7411111,9.3999986 22.7344444,9.68 C22.7277777,9.9600014 22.7244444,10.2266654 22.7244444,10.48 L22.7644444,10.5 C23.551115,9.0599928 24.4311062,8.34 25.4044444,8.34 C25.524445,8.34 25.6277773,8.3466666 25.7144444,8.36 C25.8011115,8.3733334 25.9111104,8.4066664 26.0444444,8.46 C25.9777774,8.6200008 25.9377778,8.8633317 25.9244444,9.19 C25.911111,9.5166683 25.9044444,9.813332 25.9044444,10.08 L25.7644444,10.18 Z M32.2666667,8.98 C31.7733309,8.98 31.3566684,9.0933322 31.0166667,9.32 C30.676665,9.5466678 30.3966678,9.8299983 30.1766667,10.17 C29.9566656,10.5100017 29.7900006,10.8833313 29.6766667,11.29 C29.5633328,11.6966687 29.4933335,12.0799982 29.4666667,12.44 C29.8800021,12.4533334 30.3099978,12.4666666 30.7566667,12.48 C31.2033356,12.4933334 31.6399979,12.5 32.0666667,12.5 C32.5066689,12.5 32.9533311,12.4933334 33.4066667,12.48 C33.8600023,12.4666666 34.2999979,12.4533334 34.7266667,12.44 C34.7266667,12.0799982 34.696667,11.700002 34.6366667,11.3 C34.5766664,10.899998 34.4566676,10.5266684 34.2766667,10.18 C34.0966658,9.8333316 33.8466683,9.5466678 33.5266667,9.32 C33.2066651,9.0933322 32.7866693,8.98 32.2666667,8.98 Z M27.6466667,13.6 C27.6466667,11.9599918 28.0366628,10.673338 28.8166667,9.74 C29.5966706,8.806662 30.7333259,8.34 32.2266667,8.34 C32.9333369,8.34 33.5433308,8.4499989 34.0566667,8.67 C34.5700026,8.8900011 34.9999983,9.1833315 35.3466667,9.55 C35.6933351,9.9166685 35.9499992,10.3466642 36.1166667,10.84 C36.2833342,11.3333358 36.3666667,11.8599972 36.3666667,12.42 C36.3666667,12.553334 36.3633334,12.6833327 36.3566667,12.81 C36.35,12.9366673 36.3400001,13.066666 36.3266667,13.2 C35.6066631,13.1866666 34.8933369,13.1733334 34.1866667,13.16 C33.4799965,13.1466666 32.7666703,13.14 32.0466667,13.14 C31.6066645,13.14 31.1700022,13.1466666 30.7366667,13.16 C30.3033312,13.1733334 29.8666689,13.1866666 29.4266667,13.2 C29.4133333,13.266667 29.4066667,13.366666 29.4066667,13.5 L29.4066667,13.76 C29.4066667,14.2800026 29.4833326,14.7666644 29.6366667,15.22 C29.7900008,15.6733356 30.0133319,16.0633317 30.3066667,16.39 C30.6000015,16.7166683 30.9599979,16.9766657 31.3866667,17.17 C31.8133355,17.3633343 32.3066639,17.46 32.8666667,17.46 C33.1333347,17.46 33.4066653,17.4233337 33.6866667,17.35 C33.9666681,17.2766663 34.2399987,17.1766673 34.5066667,17.05 C34.7733347,16.9233327 35.0233322,16.7733342 35.2566667,16.6 C35.4900012,16.4266658 35.6933325,16.240001 35.8666667,16.04 L35.9666667,16.1 L35.8466667,17.08 C35.4466647,17.4000016 34.950003,17.6733322 34.3566667,17.9 C33.7633304,18.1266678 33.1466667,18.24 32.5066667,18.24 C31.7866631,18.24 31.130003,18.1300011 30.5366667,17.91 C29.9433304,17.6899989 29.4300022,17.3700021 28.9966667,16.95 C28.5633312,16.5299979 28.2300012,16.0333362 27.9966667,15.46 C27.7633322,14.8866638 27.6466667,14.26667 27.6466667,13.6 Z" id="rare"></path>
                <polygon id="Line" points="-5.43565193e-13 23 38 23 38 22 -5.43565193e-13 22"></polygon>
            </g>
        </g>
    </g>
</svg>