<?xml version="1.0" encoding="UTF-8"?>
<svg width="14px" height="21px" viewBox="0 0 14 21" version="1.1" xmlns="http://www.w3.org/2000/svg" xmlns:xlink="http://www.w3.org/1999/xlink">
    <!-- Generator: Sketch 56.2 (81672) - https://sketch.com -->
    <title>txt-1</title>
    <desc>Created with Sketch.</desc>
    <g id="Page-1" stroke="none" stroke-width="1" fill="none" fill-rule="evenodd">
        <g id="top-fix" transform="translate(-729.000000, -2512.000000)" fill="#4E2700" fill-rule="nonzero">
            <path d="M732.472,2516.824 C732.266666,2516.45066 731.986668,2516.152 731.632,2515.928 L731.632,2515.732 C732.696005,2515.30266 733.783328,2514.83134 734.894,2514.318 C736.004672,2513.80466 737.045328,2513.30534 738.016,2512.82 L738.212,2512.96 C738.137333,2514.19201 738.081334,2515.40999 738.044,2516.614 C738.006666,2517.81801 737.988,2519.03599 737.988,2520.268 L737.988,2524.944 C737.988,2526.17601 738.006666,2527.38466 738.044,2528.57 C738.081334,2529.75534 738.137333,2530.91733 738.212,2532.056 C737.987999,2532.01867 737.768668,2532 737.554,2532 L736.238,2532 C736.023332,2532 735.804001,2532.01867 735.58,2532.056 C735.673334,2530.89866 735.734,2529.73201 735.762,2528.556 C735.79,2527.37999 735.804,2526.17601 735.804,2524.944 L735.804,2514.976 L732.472,2516.824 Z" id="1"></path>
        </g>
    </g>
</svg>