<?xml version="1.0" encoding="UTF-8"?>
<svg width="255px" height="46px" viewBox="0 0 255 46" version="1.1" xmlns="http://www.w3.org/2000/svg" xmlns:xlink="http://www.w3.org/1999/xlink">
    <!-- Generator: Sketch 56.2 (81672) - https://sketch.com -->
    <title>txt-keyword3</title>
    <desc>Created with Sketch.</desc>
    <g id="Page-1" stroke="none" stroke-width="1" fill="none" fill-rule="evenodd">
        <g id="top-fix" transform="translate(-920.000000, -1901.000000)" fill="#FFFFFF" fill-rule="nonzero">
            <path d="M953.824,1910.616 C953.344,1910.616 952.768,1910.28 952.24,1909.56 C950.704,1907.496 948.928,1906.296 947.152,1905.48 C946.576,1905.24 946.336,1905 946.336,1904.808 C946.336,1904.52 946.816,1904.376 947.44,1904.376 C949.312,1904.376 955.312,1905.096 955.312,1908.552 C955.312,1909.656 954.64,1910.616 953.824,1910.616 Z M949.216,1913.976 C948.688,1913.976 948.112,1913.64 947.584,1912.872 C946.096,1910.712 944.176,1909.272 942.688,1908.648 C942.112,1908.408 941.872,1908.216 941.872,1907.976 C941.872,1907.736 942.304,1907.544 943.12,1907.544 C944.368,1907.544 950.8,1908.216 950.8,1911.864 C950.8,1912.968 950.08,1913.976 949.216,1913.976 Z M946.192,1938.936 C943.36,1939.608 939.952,1939.944 936.64,1939.944 C923.488,1939.944 922.768,1934.904 922.768,1926.696 C922.768,1922.04 923.152,1917.096 923.152,1913.448 C923.152,1911.816 923.152,1910.04 921.376,1909.752 C920.512,1909.608 920.128,1909.464 920.128,1909.176 C920.128,1908.84 920.752,1907.64 922.576,1907.64 C924.256,1907.64 928.96,1909.272 928.96,1911.288 C928.96,1912.344 928.144,1913.592 927.856,1915.32 C927.376,1918.008 926.992,1921.08 926.8,1924.104 C930.976,1922.136 935.728,1919.112 939.328,1916.472 C939.904,1916.04 940.096,1915.608 940.096,1915.224 C940.096,1914.504 939.424,1913.88 938.512,1913.592 C938.176,1913.496 938.032,1913.352 938.032,1913.16 C938.032,1913.016 938.464,1912.248 940,1912.248 C943.504,1912.248 946.72,1916.52 946.72,1918.152 C946.72,1919.88 943.984,1919.784 942.736,1920.312 C939.088,1921.896 931.936,1924.584 926.704,1926.12 C926.704,1926.696 926.656,1927.32 926.656,1927.848 C926.656,1932.408 926.8,1935.672 933.856,1935.672 C935.44,1935.672 937.408,1935.48 938.992,1935.048 C940.144,1934.712 941.632,1933.608 942.688,1933.608 C947.584,1933.608 948.928,1934.856 948.928,1936.248 C948.928,1937.256 948.256,1938.504 946.192,1938.936 Z M981.013524,1923.624 L981.013524,1923.576 C981.013524,1923.48 980.869524,1923.384 980.773524,1923.384 C979.429524,1923.576 978.277524,1923.864 977.221524,1924.2 C976.117524,1924.536 975.205524,1924.872 974.533524,1925.064 C973.429524,1925.4 972.757524,1925.736 971.845524,1925.736 C969.685524,1925.736 967.093524,1923.432 967.093524,1921.992 C967.093524,1921.272 967.621524,1920.648 967.957524,1920.648 C968.149524,1920.648 968.341524,1920.792 968.581524,1921.08 C969.157524,1921.704 970.069524,1921.944 971.173524,1921.944 C971.653524,1921.944 972.133524,1921.896 972.613524,1921.848 C974.773524,1921.608 977.125524,1921.176 979.861524,1920.84 C980.677524,1920.744 981.109524,1919.784 982.213524,1919.784 C982.789524,1919.784 987.061524,1921.08 987.061524,1922.856 C987.061524,1923.24 986.917524,1923.528 986.725524,1923.816 C986.341524,1924.344 985.813524,1924.776 985.525524,1925.4 C984.613524,1927.56 983.893524,1930.152 983.125524,1932.744 C983.653524,1932.696 984.181524,1932.648 984.709524,1932.648 C985.669524,1932.6 986.293524,1932.12 987.301524,1932.12 C987.829524,1932.12 991.045524,1932.84 992.005524,1933.56 C992.533524,1933.944 992.821524,1934.568 992.821524,1935.144 C992.821524,1935.864 992.341524,1936.728 990.949524,1936.728 C989.653524,1936.728 987.397524,1936.2 986.197524,1936.104 C984.901524,1936.008 983.605524,1935.96 982.309524,1935.96 C978.325524,1935.96 974.389524,1936.44 970.549524,1937.64 C969.637524,1937.976 968.773524,1937.976 968.581524,1937.976 C967.045524,1937.976 962.629524,1936.296 962.629524,1934.04 C962.629524,1933.176 963.301524,1932.552 963.637524,1932.552 C963.877524,1932.552 964.117524,1932.792 964.405524,1933.08 C965.221524,1933.896 966.661524,1934.136 968.149524,1934.136 C969.109524,1934.136 970.069524,1934.04 970.933524,1933.944 C973.093524,1933.752 975.973524,1933.272 979.333524,1932.984 C980.005524,1929.384 980.773524,1924.776 981.013524,1923.624 Z M1034.00476,1924.728 C1015.18876,1924.968 1013.89276,1925.112 1012.50076,1925.4 C1011.68476,1925.544 1011.06076,1925.736 1010.43676,1925.736 C1007.94076,1925.736 1004.67676,1921.704 1004.67676,1919.4 C1004.67676,1918.92 1004.82076,1918.104 1005.34876,1918.104 C1005.49276,1918.104 1005.68476,1918.2 1005.92476,1918.488 C1006.40476,1919.16 1007.12476,1919.64 1007.74876,1920.12 C1008.70876,1920.84 1010.29276,1920.936 1013.55676,1920.936 C1019.22076,1920.936 1030.50076,1920.552 1034.29276,1920.408 C1034.67676,1920.408 1035.20476,1920.36 1035.73276,1920.36 C1040.10076,1920.36 1042.26076,1921.176 1042.26076,1922.28 C1042.26076,1922.952 1041.87676,1924.728 1034.00476,1924.728 Z M1083.696,1907.496 C1083.696,1908.264 1083.072,1909.08 1081.296,1909.512 C1075.536,1911 1070.064,1911.576 1067.328,1911.576 C1060.944,1911.576 1060.32,1907.256 1060.32,1907.064 C1060.32,1906.2 1061.04,1905.816 1061.04,1905.816 C1061.136,1905.816 1061.28,1906.008 1061.568,1906.296 C1062.912,1907.592 1064.4,1907.88 1066.272,1907.88 C1068.384,1907.88 1072.656,1907.496 1075.248,1906.728 C1075.824,1906.584 1076.064,1906.296 1076.544,1906.008 C1077.12,1905.624 1077.552,1905.384 1078.896,1905.384 C1081.968,1905.384 1083.696,1906.104 1083.696,1907.496 Z M1073.952,1919.256 C1074.96,1919.544 1077.36,1920.36 1077.36,1921.704 C1077.36,1922.52 1076.592,1923.336 1076.304,1924.392 C1072.176,1939.8 1057.392,1943.352 1056.336,1943.352 C1056.144,1943.352 1056.048,1943.304 1056.048,1943.208 C1056.048,1943.016 1056.528,1942.632 1057.536,1942.104 C1067.472,1936.92 1071.6,1926.024 1071.6,1921.56 C1071.6,1920.696 1071.264,1920.168 1070.736,1919.736 C1069.008,1920.072 1067.28,1920.456 1065.552,1920.984 C1063.728,1921.512 1062.432,1921.896 1061.232,1921.896 C1058.88,1921.896 1054.368,1919.544 1054.368,1917.336 C1054.368,1916.52 1054.992,1915.992 1055.088,1915.992 C1055.232,1915.992 1055.424,1916.136 1055.712,1916.424 C1056.672,1917.528 1058.64,1918.008 1060.896,1918.008 C1061.76,1918.008 1062.672,1917.96 1063.584,1917.816 C1070.112,1916.808 1075.728,1915.992 1081.2,1915.464 C1082.256,1915.368 1082.784,1914.456 1084.08,1914.456 C1085.232,1914.456 1090.8,1915.32 1090.8,1917.672 C1090.8,1919.4 1088.928,1919.448 1088.256,1919.448 C1086.672,1919.448 1084.464,1919.112 1083.312,1919.016 C1082.208,1918.92 1081.056,1918.872 1079.952,1918.872 C1077.984,1918.872 1075.968,1919.016 1073.952,1919.256 Z M1114.78724,1924.248 C1115.55524,1924.92 1116.17924,1925.544 1116.17924,1926.456 C1116.17924,1926.696 1116.13124,1926.984 1116.03524,1927.272 C1115.69924,1928.136 1115.41124,1928.856 1115.41124,1932.888 C1115.41124,1935.288 1115.50724,1937.976 1115.65124,1939.704 L1115.65124,1939.992 C1115.65124,1941.672 1114.83524,1943.304 1113.49124,1943.304 C1111.81124,1943.304 1111.04324,1939.56 1111.04324,1938.264 C1111.04324,1937.448 1111.42724,1936.776 1111.52324,1936.008 C1111.76324,1934.136 1111.90724,1932.12 1111.90724,1930.44 C1111.90724,1930.248 1111.90724,1927.272 1111.66724,1927.272 C1111.57124,1927.272 1111.47524,1927.368 1111.28324,1927.512 C1105.42724,1932.12 1098.51524,1934.52 1097.41124,1934.52 C1097.12324,1934.52 1096.93124,1934.424 1096.93124,1934.28 C1096.93124,1933.992 1097.45924,1933.56 1098.51524,1932.936 C1107.05924,1928.088 1116.32324,1917.72 1116.32324,1915.848 C1116.32324,1915.224 1115.79524,1914.888 1115.45924,1914.84 C1114.69124,1914.792 1114.30724,1914.552 1114.30724,1914.264 C1114.30724,1913.4 1116.27524,1913.208 1116.46724,1913.208 C1118.91524,1913.208 1121.74724,1915.464 1121.74724,1916.904 C1121.74724,1917.336 1121.55524,1917.72 1121.07524,1918.104 C1120.59524,1918.488 1120.11524,1918.776 1119.73124,1919.256 C1118.14724,1921.176 1116.61124,1922.616 1114.78724,1924.248 Z M1166.23048,1924.728 C1147.41448,1924.968 1146.11848,1925.112 1144.72648,1925.4 C1143.91048,1925.544 1143.28648,1925.736 1142.66248,1925.736 C1140.16648,1925.736 1136.90248,1921.704 1136.90248,1919.4 C1136.90248,1918.92 1137.04648,1918.104 1137.57448,1918.104 C1137.71848,1918.104 1137.91048,1918.2 1138.15048,1918.488 C1138.63048,1919.16 1139.35048,1919.64 1139.97448,1920.12 C1140.93448,1920.84 1142.51848,1920.936 1145.78248,1920.936 C1151.44648,1920.936 1162.72648,1920.552 1166.51848,1920.408 C1166.90248,1920.408 1167.43048,1920.36 1167.95848,1920.36 C1172.32648,1920.36 1174.48648,1921.176 1174.48648,1922.28 C1174.48648,1922.952 1174.10248,1924.728 1166.23048,1924.728 Z" id="ビューティー"></path>
        </g>
    </g>
</svg>