<?xml version="1.0" encoding="UTF-8"?>
<svg width="422px" height="345px" viewBox="0 0 422 345" version="1.1" xmlns="http://www.w3.org/2000/svg" xmlns:xlink="http://www.w3.org/1999/xlink">
    <!-- Generator: Sketch 56.2 (81672) - https://sketch.com -->
    <title>txt-loading2</title>
    <desc>Created with Sketch.</desc>
    <defs>
        <polygon id="path-1" points="0.151194337 149.910842 398.134297 149.910842 398.134297 0.0926888814 0.151194337 0.0926888814"></polygon>
        <polygon id="path-3" points="0 150.181729 440.469738 150.181729 440.469738 0.442369789 0 0.442369789"></polygon>
    </defs>
    <g id="Page-1" stroke="none" stroke-width="1" fill="none" fill-rule="evenodd">
        <g id="1" transform="translate(-471.000000, -294.000000)">
            <g id="Group-86" transform="translate(469.000000, 290.000000)">
                <g id="Group-66" transform="translate(6.004983, 199.027959)">
                    <path d="M10.6865742,143.781038 L4.48889464,137.629509 L4.48889464,149.352871 C4.48889464,149.609513 4.3785836,149.72095 4.11518785,149.72095 L1.28086945,149.72095 C1.01297121,149.72095 0.907162659,149.609513 0.907162659,149.352871 L0.907162659,128.549109 C0.981453768,128.444426 1.04899114,128.40728 1.11990538,128.40728 C1.28086945,128.40728 1.28086945,128.444426 1.38330113,128.549109 L10.7237197,138.555896 C10.8655482,138.707855 10.9026938,138.781021 11.0636578,138.781021 C11.206612,138.781021 11.2437575,138.707855 11.3912141,138.555896 L20.7260046,128.549109 C20.8419438,128.444426 20.8419438,128.40728 20.9848979,128.40728 C21.0670683,128.40728 21.1447363,128.444426 21.2088968,128.549109 L21.2088968,149.352871 C21.2088968,149.609513 21.1053395,149.72095 20.8419438,149.72095 L18.0042485,149.72095 C17.7419784,149.72095 17.6260392,149.609513 17.6260392,149.352871 L17.6260392,137.629509 L11.4351134,143.781038 C11.2809031,143.974645 11.1739689,144.043308 11.0636578,144.043308 C10.9465931,144.043308 10.8284027,143.974645 10.6865742,143.781038" id="Fill-1" fill="#FFFFFF"></path>
                    <path d="M36.3308522,145.691557 L36.3308522,144.492769 C35.8603418,143.641798 34.0604708,143.152152 33.0890583,143.152152 C31.2644236,143.152152 30.7736521,143.860169 30.7736521,144.946395 C30.7736521,146.429966 31.6043617,146.808175 33.5032875,146.808175 C33.800452,146.808175 35.4528663,146.696739 36.3308522,145.691557 L36.3308522,145.691557 Z M36.9364373,147.891024 C35.8603418,149.873246 32.7930195,149.910392 32.4215639,149.910392 C30.8175513,149.910392 27.1941713,149.353209 27.1941713,145.1355 C27.1941713,141.998389 29.3215986,140.321211 32.3472728,140.321211 C33.722784,140.321211 35.5125244,140.715179 36.3308522,141.543637 C36.3308522,138.671048 34.886678,137.88874 32.3180066,137.88874 C31.8981493,137.88874 30.9683848,137.993423 29.660411,138.291713 C29.5084519,138.328858 29.4746833,138.375009 29.3609954,138.375009 C29.21579,138.375009 29.0930971,138.260195 29.0300622,138.069965 L28.2410006,136.428807 C28.1588301,136.288104 28.1239358,136.133894 28.1239358,135.986437 C28.1239358,135.834478 28.2027294,135.725292 28.3175429,135.643122 C30.287383,134.642443 31.6043617,134.604172 32.830165,134.604172 C37.4272089,134.604172 39.9227148,137.104172 39.9227148,141.320764 L39.9227148,149.353209 C39.9227148,149.608725 39.8202831,149.721287 39.5535105,149.721287 L37.611811,149.721287 C37.355169,149.721287 37.2009587,149.608725 37.0917732,149.353209 L36.9364373,147.891024 Z" id="Fill-3" fill="#FFFFFF"></path>
                    <path d="M57.1680451,142.21237 C57.1680451,139.644824 55.2691194,137.851707 53.1067978,137.851707 C50.8713108,137.851707 49.1896302,139.644824 49.1896302,142.21237 C49.1896302,144.757403 50.9084563,146.808288 53.1067978,146.808288 C55.3501642,146.808288 57.1680451,144.909362 57.1680451,142.21237 L57.1680451,142.21237 Z M57.5462544,147.747057 C56.2405319,149.64936 53.9633968,149.910504 52.357133,149.910504 C48.4771109,149.910504 45.527979,146.392933 45.527979,142.17635 C45.527979,138.034058 48.5176334,134.604285 52.5777551,134.604285 C53.2914,134.604285 55.6833486,134.64143 57.1680451,136.618024 L57.1680451,128.892874 C57.1680451,128.633981 57.2851099,128.518042 57.5462544,128.518042 L60.3839497,128.518042 C60.6507223,128.518042 60.7565309,128.633981 60.7565309,128.892874 L60.7565309,149.353321 C60.7565309,149.608838 60.6507223,149.7214 60.3839497,149.7214 L58.2970449,149.7214 C58.0404029,149.7214 57.8805644,149.608838 57.771379,149.353321 L57.5462544,147.747057 Z" id="Fill-5" fill="#FFFFFF"></path>
                    <path d="M70.2423799,140.75919 L77.4463663,140.75919 C77.4463663,138.67116 75.587963,137.925998 73.8308657,137.925998 C72.1086627,137.925998 70.2423799,138.816365 70.2423799,140.75919 M74.3925515,149.910504 C70.0577778,149.910504 66.5447088,147.629993 66.5447088,142.36658 C66.5447088,138.223162 68.6777642,134.604285 73.7475696,134.604285 C77.7863044,134.604285 80.9594353,137.104285 80.9594353,141.915205 L80.9594353,143.375138 C80.9594353,143.641911 80.8592549,143.745468 80.5879798,143.745468 L70.2423799,143.745468 C70.2423799,146.251104 73.0823265,146.808288 74.3599084,146.808288 C75.4258733,146.808288 77.0400165,146.582038 78.0508258,145.874021 C78.1228657,145.79973 78.2027849,145.768212 78.3097191,145.768212 C78.4616782,145.768212 78.6068835,145.843629 78.7171946,145.946061 L79.8124256,147.668264 C79.8822142,147.819097 79.9148573,147.926031 79.9148573,147.971056 C79.9148573,148.082493 79.8822142,148.190553 79.7685263,148.267095 C78.4616782,149.64936 76.1755381,149.910504 74.3925515,149.910504" id="Fill-7" fill="#FFFFFF"></path>
                    <path d="M96.0481848,135.167321 C96.0481848,134.907302 96.1708777,134.790238 96.4252685,134.790238 L99.2640894,134.790238 C99.5241083,134.790238 99.6366705,134.907302 99.6366705,135.167321 L99.6366705,149.353546 C99.6366705,149.609063 99.5241083,149.721625 99.2640894,149.721625 L96.4252685,149.721625 C96.1708777,149.721625 96.0481848,149.609063 96.0481848,149.353546 L96.0481848,135.167321 Z M97.8750708,128.778286 C99.1166328,128.778286 100.124065,129.820613 100.124065,131.019401 C100.124065,132.217064 99.1166328,133.185099 97.8750708,133.185099 C96.728061,133.185099 95.7138748,132.217064 95.7138748,131.019401 C95.7138748,129.820613 96.728061,128.778286 97.8750708,128.778286 L97.8750708,128.778286 Z" id="Fill-9" fill="#FFFFFF"></path>
                    <path d="M109.865656,136.618362 C111.164625,135.012098 112.964496,134.604622 114.412047,134.604622 C118.940427,134.604622 120.649123,137.706839 120.649123,141.248049 L120.649123,149.352533 C120.649123,149.609175 120.54444,149.721738 120.277667,149.721738 L117.438847,149.721738 C117.182205,149.721738 117.06514,149.609175 117.06514,149.352533 L117.06514,141.809734 C117.06514,139.682307 116.725202,137.852044 113.564453,137.852044 C111.323337,137.852044 110.311403,139.682307 110.311403,141.809734 L110.311403,149.352533 C110.311403,149.609175 110.210096,149.721738 109.939947,149.721738 L107.102252,149.721738 C106.846735,149.721738 106.724042,149.609175 106.724042,149.352533 L106.724042,135.167434 C106.724042,134.906289 106.846735,134.79035 107.102252,134.79035 L109.154262,134.79035 C109.33999,134.79035 109.4942,134.906289 109.524592,135.167434 L109.865656,136.618362 Z" id="Fill-11" fill="#FFFFFF"></path>
                    <path d="M143.618921,131.504657 C139.776045,131.504657 139.702879,133.812184 139.702879,134.381749 C139.702879,138.745789 151.126826,137.257715 151.126826,144.457199 C151.126826,147.85658 147.050945,149.910842 144.064668,149.910842 C141.499373,149.910842 139.178339,149.721738 136.634431,148.189765 C136.533125,148.115474 136.456583,148.008539 136.456583,147.85658 C136.456583,147.782289 136.456583,147.698993 136.492603,147.667476 L137.464015,145.731404 C137.539432,145.619968 137.642989,145.541174 137.754426,145.541174 C137.827591,145.541174 137.903008,145.541174 137.949159,145.582822 C138.952089,146.063463 140.927557,146.808626 143.723604,146.808626 C145.660801,146.808626 147.542842,145.653736 147.542842,144.161161 C147.542842,140.096536 136.115519,141.736569 136.115519,134.158876 C136.115519,130.41618 138.69207,128.251607 143.504108,128.251607 C145.93883,128.251607 148.442215,129.156608 149.59823,129.645128 C149.741184,129.748685 149.816601,129.857871 149.816601,129.96593 C149.816601,130.04585 149.816601,130.121266 149.780581,130.158412 L148.804666,132.291467 C148.763018,132.402904 148.697731,132.483949 148.555903,132.507587 C148.479361,132.507587 148.393813,132.507587 148.348788,132.483949 C147.388632,132.174403 145.150894,131.504657 143.618921,131.504657" id="Fill-13" fill="#FFFFFF"></path>
                    <path d="M160.75833,136.163272 C162.065178,134.974615 163.565634,134.604285 164.863477,134.604285 C169.389606,134.604285 171.094925,137.706501 171.094925,141.248836 L171.094925,149.353321 C171.094925,149.608838 170.994745,149.7214 170.730223,149.7214 L167.888026,149.7214 C167.629132,149.7214 167.508691,149.608838 167.508691,149.353321 L167.508691,141.810522 C167.508691,139.681969 167.177758,137.851707 164.005752,137.851707 C161.766888,137.851707 160.75833,139.681969 160.75833,141.810522 L160.75833,149.353321 C160.75833,149.608838 160.649145,149.7214 160.380121,149.7214 L157.545803,149.7214 C157.284658,149.7214 157.175473,149.608838 157.175473,149.353321 L157.175473,128.892874 C157.175473,128.633981 157.284658,128.518042 157.545803,128.518042 L160.380121,128.518042 C160.649145,128.518042 160.75833,128.633981 160.75833,128.892874 L160.75833,136.163272 Z" id="Fill-15" fill="#FFFFFF"></path>
                    <path d="M177.828401,135.167321 C177.828401,134.907302 177.942089,134.790238 178.197605,134.790238 L181.029673,134.790238 C181.291943,134.790238 181.412384,134.907302 181.412384,135.167321 L181.412384,149.353546 C181.412384,149.609063 181.291943,149.721625 181.029673,149.721625 L178.197605,149.721625 C177.942089,149.721625 177.828401,149.609063 177.828401,149.353546 L177.828401,135.167321 Z M179.653036,128.778286 C180.883342,128.778286 181.8919,129.820613 181.8919,131.019401 C181.8919,132.217064 180.883342,133.185099 179.653036,133.185099 C178.497021,133.185099 177.488463,132.217064 177.488463,131.019401 C177.488463,129.820613 178.497021,128.778286 179.653036,128.778286 L179.653036,128.778286 Z" id="Fill-17" fill="#FFFFFF"></path>
                    <path d="M209.075467,149.353096 C209.075467,149.610864 208.958402,149.721175 208.696132,149.721175 L205.861814,149.721175 C205.593915,149.721175 205.488107,149.610864 205.488107,149.353096 L205.488107,141.248611 C205.488107,139.008622 204.857758,137.888627 203.254871,137.888627 C201.9514,137.888627 200.75036,138.86004 200.595024,140.201782 C200.6423,140.609258 200.6423,140.870402 200.6423,141.285757 L200.6423,149.353096 C200.6423,149.610864 200.521859,149.721175 200.262966,149.721175 L197.421893,149.721175 C197.160749,149.721175 197.051563,149.610864 197.051563,149.353096 L197.051563,141.847443 C197.051563,139.71889 196.457235,137.888627 194.775554,137.888627 C192.939663,137.888627 192.08419,139.71889 192.08419,141.847443 L192.08419,149.353096 C192.08419,149.610864 191.968251,149.721175 191.712734,149.721175 L188.876165,149.721175 C188.619523,149.721175 188.509211,149.610864 188.509211,149.353096 L188.509211,135.166871 C188.509211,134.906852 188.619523,134.789787 188.876165,134.789787 L191.077883,134.789787 C191.273741,134.789787 191.417821,134.906852 191.448213,135.166871 L191.74988,136.543508 C193.058979,135.012661 194.476138,134.604059 195.782987,134.604059 C197.232789,134.604059 198.778269,135.501181 199.705782,136.950983 C200.973234,134.906852 202.801245,134.604059 204.26568,134.604059 C207.240702,134.604059 209.075467,137.401232 209.075467,140.870402 L209.075467,149.353096 Z" id="Fill-19" fill="#FFFFFF"></path>
                    <path d="M223.815161,145.691557 L223.815161,144.492769 C223.341274,143.641798 221.543654,143.152152 220.583498,143.152152 C218.749858,143.152152 218.266966,143.860169 218.266966,144.946395 C218.266966,146.429966 219.086419,146.808175 220.985345,146.808175 C221.299394,146.808175 222.941678,146.696739 223.815161,145.691557 L223.815161,145.691557 Z M224.4275,147.891024 C223.341274,149.873246 220.275077,149.910392 219.905873,149.910392 C218.304111,149.910392 214.686359,149.353209 214.686359,145.1355 C214.686359,141.998389 216.803656,140.321211 219.838335,140.321211 C221.199213,140.321211 223.003587,140.715179 223.815161,141.543637 C223.815161,138.671048 222.36761,137.88874 219.800064,137.88874 C219.381332,137.88874 218.44594,137.993423 217.133463,138.291713 C216.999514,138.328858 216.957866,138.375009 216.845304,138.375009 C216.704601,138.375009 216.578531,138.260195 216.509868,138.069965 L215.730937,136.428807 C215.649893,136.288104 215.617249,136.133894 215.617249,135.986437 C215.617249,135.834478 215.691541,135.725292 215.792847,135.643122 C217.778445,134.642443 219.086419,134.604172 220.308846,134.604172 C224.903638,134.604172 227.409275,137.104172 227.409275,141.320764 L227.409275,149.353209 C227.409275,149.608725 227.297838,149.721287 227.035568,149.721287 L225.100622,149.721287 C224.838352,149.721287 224.683016,149.608725 224.573831,149.353209 L224.4275,147.891024 Z" id="Fill-21" fill="#FFFFFF"></path>
                    <path d="M245.886824,142.21237 C245.886824,139.644824 244.214149,137.851707 241.974159,137.851707 C239.815215,137.851707 237.905033,139.644824 237.905033,142.21237 C237.905033,144.909362 239.73417,146.808288 241.974159,146.808288 C244.174752,146.808288 245.886824,144.757403 245.886824,142.21237 L245.886824,142.21237 Z M237.298322,149.353321 C237.20377,149.608838 237.046182,149.7214 236.788415,149.7214 L234.682374,149.7214 C234.434737,149.7214 234.330054,149.608838 234.330054,149.353321 L234.330054,128.892874 C234.330054,128.633981 234.434737,128.518042 234.682374,128.518042 L237.540331,128.518042 C237.786842,128.518042 237.905033,128.633981 237.905033,128.892874 L237.905033,136.618024 C239.39986,134.64143 241.789557,134.604285 242.499825,134.604285 C246.568952,134.604285 249.557481,138.034058 249.557481,142.17635 C249.557481,146.392933 246.601595,149.910504 242.726075,149.910504 C241.041018,149.910504 238.826918,149.64936 237.540331,147.747057 L237.298322,149.353321 Z" id="Fill-23" fill="#FFFFFF"></path>
                    <path d="M263.369211,145.691557 L263.369211,144.492769 C262.886319,143.641798 261.092076,143.152152 260.116161,143.152152 C258.291526,143.152152 257.80976,143.860169 257.80976,144.946395 C257.80976,146.429966 258.631464,146.808175 260.532641,146.808175 C260.826429,146.808175 262.466461,146.696739 263.369211,145.691557 L263.369211,145.691557 Z M263.968042,147.891024 C262.886319,149.873246 259.823499,149.910392 259.443038,149.910392 C257.84578,149.910392 254.226902,149.353209 254.226902,145.1355 C254.226902,141.998389 256.354329,140.321211 259.367622,140.321211 C260.760017,140.321211 262.547506,140.715179 263.369211,141.543637 C263.369211,138.671048 261.918283,137.88874 259.342858,137.88874 C258.93088,137.88874 257.996613,137.993423 256.688639,138.291713 C256.528801,138.328858 256.496158,138.375009 256.385847,138.375009 C256.237264,138.375009 256.132582,138.260195 256.051537,138.069965 L255.266978,136.428807 C255.205068,136.288104 255.16342,136.133894 255.16342,135.986437 C255.16342,135.834478 255.23546,135.725292 255.341269,135.643122 C257.322365,134.642443 258.631464,134.604172 259.856142,134.604172 C264.447558,134.604172 266.957697,137.104172 266.957697,141.320764 L266.957697,149.353209 C266.957697,149.608725 266.84626,149.721287 266.586241,149.721287 L264.636662,149.721287 C264.372141,149.721287 264.233689,149.608725 264.11775,149.353209 L263.968042,147.891024 Z" id="Fill-25" fill="#FFFFFF"></path>
                    <path d="M281.213148,137.851707 C278.124438,137.851707 277.446813,139.823798 277.446813,141.810522 L277.446813,149.353321 C277.446813,149.608838 277.346633,149.7214 277.075358,149.7214 L274.241039,149.7214 C273.979895,149.7214 273.869584,149.608838 273.869584,149.353321 L273.869584,135.167096 C273.869584,134.907077 273.979895,134.790012 274.241039,134.790012 L276.438255,134.790012 C276.629611,134.790012 276.78157,134.907077 276.816465,135.167096 L277.112503,136.428919 C278.494768,134.907077 280.102158,134.604285 281.293067,134.604285 L282.154168,134.604285 C282.413062,134.604285 282.533503,134.719098 282.533503,134.974615 L282.533503,137.484754 C282.533503,137.742521 282.413062,137.851707 282.154168,137.851707 L281.213148,137.851707 Z" id="Fill-27" fill="#FFFFFF"></path>
                    <path d="M295.41198,145.691557 L295.41198,144.492769 C294.917831,143.641798 293.130342,143.152152 292.154427,143.152152 C290.328667,143.152152 289.850277,143.860169 289.850277,144.946395 C289.850277,146.429966 290.668605,146.808175 292.574284,146.808175 C292.872574,146.808175 294.511481,146.696739 295.41198,145.691557 L295.41198,145.691557 Z M296.001806,147.891024 C294.917831,149.873246 291.861765,149.910392 291.480179,149.910392 C289.886297,149.910392 286.260666,149.353209 286.260666,145.1355 C286.260666,141.998389 288.394847,140.321211 291.402511,140.321211 C292.797158,140.321211 294.576767,140.715179 295.41198,141.543637 C295.41198,138.671048 293.946419,137.88874 291.369868,137.88874 C290.971397,137.88874 290.034879,137.993423 288.729157,138.291713 C288.5817,138.328858 288.542303,138.375009 288.418485,138.375009 C288.276656,138.375009 288.164094,138.260195 288.0853,138.069965 L287.305244,136.428807 C287.227576,136.288104 287.188179,136.133894 287.188179,135.986437 C287.188179,135.834478 287.273726,135.725292 287.379535,135.643122 C289.365134,134.642443 290.668605,134.604172 291.901162,134.604172 C296.494829,134.604172 298.997088,137.104172 298.997088,141.320764 L298.997088,149.353209 C298.997088,149.608725 298.876647,149.721287 298.617754,149.721287 L296.672677,149.721287 C296.417161,149.721287 296.261825,149.608725 296.156016,149.353209 L296.001806,147.891024 Z" id="Fill-29" fill="#FFFFFF"></path>
                    <path d="M12.912606,19.5503184 C17.1809679,19.5503184 20.0445525,16.7036182 20.0445525,13.3965382 C20.0445525,10.0736995 17.1809679,7.22474797 12.912606,7.22474797 L9.83402742,7.22474797 L9.83402742,19.5503184 L12.912606,19.5503184 Z M12.912606,24.7900929 L9.83402742,24.7900929 L9.83402742,34.2802194 L4.12486821,34.2802194 L4.12486821,2.00073221 L12.912606,2.00073221 C20.7345593,2.00073221 25.9709569,7.22474797 25.9709569,13.3965382 C25.9709569,19.5503184 20.7345593,24.7900929 12.912606,24.7900929 L12.912606,24.7900929 Z" id="Fill-31" fill="#FFFFFF"></path>
                    <path d="M44.7169677,17.1825707 C48.3167097,17.1825707 50.646749,14.8108833 50.646749,12.224202 C50.646749,9.59587256 48.273936,7.22418516 44.7169677,7.22418516 L39.5030826,7.22418516 L39.5030826,17.1825707 L44.7169677,17.1825707 Z M51.1307669,21.2314362 L58.4822098,34.2796566 L52.3126709,34.2796566 L45.6624909,22.3998327 L39.5030826,22.3998327 L39.5030826,34.2796566 L33.8119333,34.2796566 L33.8119333,2.00129503 L44.7169677,2.00129503 C51.8297787,2.00129503 56.5742791,6.73679046 56.5742791,12.224202 C56.5742791,18.1438527 51.1307669,20.7969458 51.1307669,20.7507952 L51.1307669,21.2314362 Z" id="Fill-33" fill="#FFFFFF"></path>
                    <polygon id="Fill-35" fill="#FFFFFF" points="65.3771002 2.00095734 84.1299773 2.00095734 84.1299773 7.2249731 71.063747 7.2249731 71.063747 15.2866841 80.3006083 15.2866841 80.3006083 20.5197049 71.063747 20.5197049 71.063747 29.0541775 84.6027389 29.0541775 84.6027389 34.2804445 65.3771002 34.2804445"></polygon>
                    <polygon id="Fill-37" fill="#FFFFFF" points="98.5874775 15.7568568 98.1214696 15.7568568 98.1214696 34.2801068 92.431446 34.2801068 92.431446 1.06072455 93.3814717 1.06072455 107.852479 18.8489428 122.343748 1.06072455 123.283643 1.06072455 123.283643 34.2801068 117.591368 34.2801068 117.591368 15.7568568 117.114104 15.7568568 107.852479 27.1492859"></polygon>
                    <mask id="mask-2" fill="white">
                        <use xlink:href="#path-1"></use>
                    </mask>
                    <g id="Clip-40"></g>
                    <polygon id="Fill-39" fill="#FFFFFF" mask="url(#mask-2)" points="133.249345 34.2801068 138.942746 34.2801068 138.942746 2.00061965 133.249345 2.00061965"></polygon>
                    <path d="M154.380551,23.1107762 C154.380551,27.149511 157.218246,29.9950857 160.547839,29.9950857 C163.870678,29.9950857 166.707247,27.149511 166.707247,23.1107762 L166.707247,2.00084478 L172.40515,2.00084478 L172.40515,23.1107762 C172.40515,29.9950857 167.186763,35.2348601 160.547839,35.2348601 C153.896533,35.2348601 148.690527,29.9950857 148.690527,23.1107762 L148.690527,2.00084478 L154.380551,2.00084478 L154.380551,23.1107762 Z" id="Fill-41" fill="#FFFFFF" mask="url(#mask-2)"></path>
                    <polygon id="Fill-42" fill="#FFFFFF" mask="url(#mask-2)" points="188.318418 15.7568568 187.845657 15.7568568 187.845657 34.2801068 182.126367 34.2801068 182.126367 1.06072455 183.094403 1.06072455 197.590174 18.8489428 212.042046 1.06072455 213.004454 1.06072455 213.004454 34.2801068 207.312179 34.2801068 207.312179 15.7568568 206.829287 15.7568568 197.590174 27.1492859"></polygon>
                    <path d="M253.336422,29.0542901 C256.89339,29.0542901 259.038827,27.0146614 259.038827,24.3210459 C259.038827,21.5992898 256.89339,19.5506561 253.336422,19.5506561 L248.370174,19.5506561 L248.370174,29.0542901 L253.336422,29.0542901 Z M252.870414,14.3345197 C255.721617,14.3345197 257.375157,12.6663466 257.375157,10.7843052 C257.375157,8.88200253 255.721617,7.22396004 252.870414,7.22396004 L248.370174,7.22396004 L248.370174,14.3345197 L252.870414,14.3345197 Z M242.676773,2.0010699 L252.870414,2.0010699 C259.516091,2.0010699 263.310566,5.79216774 263.310566,10.0740372 C263.310566,15.2867967 258.080922,16.4799569 258.080922,16.4799569 L258.080922,16.9684773 C258.080922,16.9684773 265.210617,18.1447532 265.210617,25.0121783 C265.210617,29.7724374 260.69687,34.2805571 253.336422,34.2805571 L242.676773,34.2805571 L242.676773,2.0010699 Z" id="Fill-43" fill="#FFFFFF" mask="url(#mask-2)"></path>
                    <path d="M283.967884,17.1825707 C287.565375,17.1825707 289.892038,14.8108833 289.892038,12.224202 C289.892038,9.59587256 287.531606,7.22418516 283.967884,7.22418516 L278.738241,7.22418516 L278.738241,17.1825707 L283.967884,17.1825707 Z M290.362548,21.2314362 L297.733127,34.2796566 L291.559085,34.2796566 L284.919036,22.3998327 L278.738241,22.3998327 L278.738241,34.2796566 L273.06285,34.2796566 L273.06285,2.00129503 L283.967884,2.00129503 C291.072816,2.00129503 295.828573,6.73679046 295.828573,12.224202 C295.828573,18.1438527 290.362548,20.7969458 290.362548,20.7507952 L290.362548,21.2314362 Z" id="Fill-44" fill="#FFFFFF" mask="url(#mask-2)"></path>
                    <path d="M311.736888,24.3210459 L319.789594,24.3210459 L316.008627,14.3345197 L315.522358,14.3345197 L311.736888,24.3210459 Z M329.996742,34.2805571 L323.841837,34.2805571 L321.941785,29.5371823 L309.56331,29.5371823 L307.713912,34.2805571 L301.535368,34.2805571 L315.522358,0.0931391306 L316.008627,0.0931391306 L329.996742,34.2805571 Z" id="Fill-45" fill="#FFFFFF" mask="url(#mask-2)"></path>
                    <polygon id="Fill-46" fill="#FFFFFF" mask="url(#mask-2)" points="355.404189 20.9836866 355.404189 2.00118246 361.099841 2.00118246 361.099841 35.2329466 360.147564 35.2329466 343.056106 15.2857836 342.576591 15.2857836 342.576591 34.2806696 336.893321 34.2806696 336.893321 1.06128736 337.838844 1.06128736 354.934805 20.9836866"></polygon>
                    <path d="M376.759169,7.22452285 L376.759169,29.0548529 L380.569402,29.0548529 C386.033176,29.0548529 391.009554,24.0672179 391.009554,18.1441903 C391.009554,12.223414 386.033176,7.22452285 380.569402,7.22452285 L376.759169,7.22452285 Z M380.569402,2.00050709 C389.593521,2.00050709 396.93821,9.36095506 396.93821,18.1441903 C396.93821,26.9274256 389.593521,34.2799942 380.569402,34.2799942 L371.071396,34.2799942 L371.071396,2.00050709 L380.569402,2.00050709 Z" id="Fill-47" fill="#FFFFFF" mask="url(#mask-2)"></path>
                    <path d="M17.0149385,63.6397282 C11.3170356,63.6397282 6.0682561,68.8569902 6.0682561,75.4891602 C6.0682561,82.1483451 11.3170356,87.3644815 17.0149385,87.3644815 C22.708339,87.3644815 27.9143448,82.1483451 27.9143448,75.4891602 C27.9143448,68.8569902 22.708339,63.6397282 17.0149385,63.6397282 M17.0149385,58.4123356 C26.2675586,58.4123356 33.8576336,65.9979081 33.8576336,75.4891602 C33.8576336,84.9995479 26.2675586,92.5896229 17.0149385,92.5896229 C7.74205731,92.5896229 0.151982273,84.9995479 0.151982273,75.4891602 C0.151982273,65.9979081 7.74205731,58.4123356 17.0149385,58.4123356" id="Fill-48" fill="#FFFFFF" mask="url(#mask-2)"></path>
                    <path d="M61.1450959,63.8705935 L56.8846133,66.9536745 C56.8846133,66.9536745 54.5140515,63.6398408 51.6662257,63.6398408 C48.8048923,63.6398408 46.9251021,65.5320128 46.9251021,67.8946953 C46.9251021,73.5948495 61.6246112,72.6515775 61.6246112,82.842967 C61.6246112,87.8328532 56.8846133,92.5897355 50.4708142,92.5897355 C42.4057263,92.5897355 38.8408786,85.9451837 38.8408786,85.9451837 L43.1148687,82.842967 C43.1148687,82.842967 45.7263138,87.3645941 49.9924244,87.3645941 C53.3141375,87.3645941 55.6892018,84.9996604 55.6892018,82.389341 C55.6892018,76.6689256 41.0054514,77.6335844 41.0054514,67.4219336 C41.0054514,62.9183165 45.4854305,58.4124482 51.1867103,58.4124482 C57.834639,58.4124482 61.1450959,63.8705935 61.1450959,63.8705935" id="Fill-49" fill="#FFFFFF" mask="url(#mask-2)"></path>
                    <path d="M76.5806498,81.6662409 L84.6558683,81.6662409 L80.8580167,71.6965991 L80.3683708,71.6965991 L76.5806498,81.6662409 Z M94.858514,91.6482645 L88.6810957,91.6482645 L86.7889236,86.880126 L74.4059464,86.880126 L72.5509199,91.6482645 L66.3768784,91.6482645 L80.3683708,57.4574697 L80.8580167,57.4574697 L94.858514,91.6482645 Z" id="Fill-50" fill="#FFFFFF" mask="url(#mask-2)"></path>
                    <path d="M114.561642,74.550841 L125.234798,91.6479268 L119.068636,91.6479268 L108.627358,74.550841 L118.123113,59.3470528 L124.288149,59.3470528 L114.561642,74.550841 Z M101.747551,91.6479268 L107.4387,91.6479268 L107.4387,59.3470528 L101.747551,59.3470528 L101.747551,91.6479268 Z" id="Fill-51" fill="#FFFFFF" mask="url(#mask-2)"></path>
                    <polygon id="Fill-52" fill="#FFFFFF" mask="url(#mask-2)" points="131.896347 91.6486022 137.587496 91.6486022 137.587496 59.3477282 131.896347 59.3477282"></polygon>
                    <polygon id="Fill-53" fill="#FFFFFF" mask="url(#mask-2)" points="170.084228 64.576359 170.084228 91.6487148 164.407712 91.6487148 164.407712 64.576359 156.097239 64.576359 156.097239 59.3467151 178.409335 59.3467151 178.409335 64.576359"></polygon>
                    <path d="M200.230998,63.6397282 C194.537597,63.6397282 189.32934,68.8569902 189.32934,75.4891602 C189.32934,82.1483451 194.537597,87.3644815 200.230998,87.3644815 C205.917645,87.3644815 211.163047,82.1483451 211.163047,75.4891602 C211.163047,68.8569902 205.917645,63.6397282 200.230998,63.6397282 M200.230998,58.4123356 C209.502753,58.4123356 217.080447,65.9979081 217.080447,75.4891602 C217.080447,84.9995479 209.502753,92.5896229 200.230998,92.5896229 C190.978378,92.5896229 183.396182,84.9995479 183.396182,75.4891602 C183.396182,65.9979081 190.978378,58.4123356 200.230998,58.4123356" id="Fill-54" fill="#FFFFFF" mask="url(#mask-2)"></path>
                    <polygon id="Fill-55" fill="#FFFFFF" mask="url(#mask-2)" points="224.943035 59.3471654 244.154041 59.3471654 244.154041 64.5768093 230.610546 64.5768093 230.610546 74.7940881 240.362943 74.7940881 240.362943 80.014727 230.610546 80.014727 230.610546 91.6480394 224.943035 91.6480394"></polygon>
                    <path d="M256.732989,80.4900775 C256.732989,84.5164305 259.572935,87.3642564 262.917161,87.3642564 C266.220864,87.3642564 269.088951,84.5164305 269.088951,80.4900775 L269.088951,59.3475031 L274.774472,59.3475031 L274.774472,80.4900775 C274.774472,87.3642564 269.556085,92.5893978 262.917161,92.5893978 C256.255725,92.5893978 251.040714,87.3642564 251.040714,80.4900775 L251.040714,59.3475031 L256.732989,59.3475031 L256.732989,80.4900775 Z" id="Fill-56" fill="#FFFFFF" mask="url(#mask-2)"></path>
                    <path d="M297.399492,71.0211128 L302.133862,71.0211128 C302.133862,69.6242148 300.627778,69.19085 299.750918,69.19085 C298.853797,69.19085 297.399492,69.6242148 297.399492,71.0211128 M304.952421,73.070872 L297.399492,73.070872 C297.399492,75.0294558 299.295041,75.3187409 300.131379,75.3187409 C300.978973,75.3187409 302.280193,75.0834857 302.885778,74.5341818 C303.055747,74.4182426 303.211083,74.3619615 303.333776,74.3619615 C303.411444,74.3619615 303.473353,74.3912277 303.529634,74.4407551 L304.404243,75.8950598 C304.469529,75.951341 304.488665,76.0368883 304.488665,76.1865962 C304.488665,76.3284246 304.469529,76.4173488 304.404243,76.5073987 C303.381052,77.7872319 301.698246,78.0483764 300.16177,78.0483764 C296.813042,78.0483764 294.096914,76.2721435 294.096914,72.1838812 C294.096914,68.9555948 295.742575,66.1347839 299.698014,66.1347839 C302.863265,66.1347839 305.329505,68.1980506 305.329505,71.9216111 C305.329505,72.3257097 305.306993,72.2401624 305.306993,72.7320596 C305.306993,72.9661891 305.187677,73.070872 304.952421,73.070872" id="Fill-57" fill="#FFFFFF" mask="url(#mask-2)"></path>
                    <path d="M309.105294,76.652604 C309.105294,76.6244634 309.105294,76.5636798 309.128933,76.5321624 L309.749151,74.5623223 C309.781794,74.4970362 309.830196,74.4722725 309.949512,74.4722725 C310.004667,74.4722725 310.066576,74.4722725 310.089089,74.4970362 C310.534836,74.7322914 311.893462,75.3446302 313.489596,75.3446302 C313.95898,75.3446302 315.024945,75.1994249 315.024945,74.6152266 C315.024945,73.0573646 309.191967,74.064797 309.191967,69.593823 C309.191967,67.2457737 311.224842,66.1347839 313.866679,66.1347839 C315.287215,66.1347839 316.779791,66.5681487 317.381999,66.8394238 C317.44616,66.8653131 317.501315,66.9542373 317.558722,67.0352822 C317.558722,67.1230808 317.558722,67.1557238 317.523828,67.1793619 L316.91374,69.3349297 C316.883349,69.4159746 316.800052,69.4767582 316.68749,69.4767582 C316.657098,69.4767582 316.625581,69.4531201 316.542285,69.4531201 C315.852278,69.2156137 314.625349,69.035514 313.716971,69.035514 C312.558705,69.035514 312.478786,69.3349297 312.478786,69.713139 C312.478786,71.0706402 318.311764,70.6935565 318.311764,74.3619615 C318.311764,77.1760187 315.750972,78.0483764 313.512108,78.0483764 C312.101703,78.0483764 310.728443,77.8412618 309.2505,76.9103717 C309.215605,76.885608 309.105294,76.7978094 309.105294,76.652604" id="Fill-58" fill="#FFFFFF" mask="url(#mask-2)"></path>
                    <path d="M327.286693,69.1271397 L327.286693,72.4679884 C327.286693,74.6764605 327.37224,75.1469709 328.39318,75.1469709 C328.710606,75.1469709 328.913218,75.1751114 329.300432,75.083936 C329.317316,75.0535442 329.401738,75.0535442 329.494039,75.0535442 C329.608853,75.0535442 329.779947,75.1751114 329.810339,75.289925 L330.279724,77.2631419 C330.299985,77.2935337 330.299985,77.3858348 330.299985,77.465754 C330.299985,77.6165875 330.155906,77.764044 330.125514,77.764044 C329.300432,78.0780928 328.968373,78.0488266 327.956438,78.0488266 C325.45643,78.0488266 323.995372,76.9412137 323.995372,73.1129703 L323.995372,69.1271397 L322.025531,69.1271397 C321.799281,69.1271397 321.677714,69.010075 321.677714,68.7826991 L321.677714,66.4875541 C321.677714,66.2511733 321.799281,66.1352341 322.025531,66.1352341 L323.995372,66.1352341 L323.995372,61.7554355 C323.995372,61.5201804 324.122567,61.4031156 324.349943,61.4031156 L326.935498,61.4031156 C327.165126,61.4031156 327.286693,61.5201804 327.286693,61.7554355 L327.286693,66.1352341 L329.779947,66.1352341 C330.020831,66.1352341 330.125514,66.2511733 330.125514,66.4875541 L330.125514,68.7826991 C330.125514,69.010075 330.020831,69.1271397 329.779947,69.1271397 L327.286693,69.1271397 Z" id="Fill-59" fill="#FFFFFF" mask="url(#mask-2)"></path>
                    <path d="M336.570943,74.5618721 C337.603139,74.5618721 338.329166,75.2890245 338.329166,76.2964569 C338.329166,77.3173969 337.603139,78.0490518 336.570943,78.0490518 C335.561259,78.0490518 334.838609,77.3173969 334.838609,76.2964569 C334.838609,75.2890245 335.561259,74.5618721 336.570943,74.5618721" id="Fill-60" fill="#FFFFFF" mask="url(#mask-2)"></path>
                    <path d="M350.988596,77.5528772 C350.988596,77.7870068 350.871531,77.9051972 350.638527,77.9051972 L348.055223,77.9051972 C347.822219,77.9051972 347.704028,77.7870068 347.704028,77.5528772 L347.704028,66.163825 C346.244096,67.2984528 343.893795,67.6496472 342.975287,67.6496472 C342.761418,67.6496472 342.674745,67.5010649 342.674745,67.2984528 L342.674745,64.996554 C342.674745,64.8029469 342.797438,64.6870077 343.014684,64.6554903 C346.539009,63.9542273 349.768421,61.4024402 350.638527,61.4024402 C350.840014,61.4024402 350.958204,61.4868619 350.988596,61.6939765 L350.988596,77.5528772 Z" id="Fill-61" fill="#FFFFFF" mask="url(#mask-2)"></path>
                    <path d="M365.188554,66.9540122 C365.188554,65.1732768 363.712862,64.2525173 362.197774,64.2525173 C360.687188,64.2525173 359.209245,65.1732768 359.209245,66.9540122 C359.209245,68.7201145 360.687188,69.6847733 362.197774,69.6847733 C363.712862,69.6847733 365.188554,68.7201145 365.188554,66.9540122 M368.464116,67.1003432 C368.464116,67.9907109 368.263755,68.8124156 367.832642,69.5677085 L363.47423,77.5528772 C363.388683,77.7644943 363.246854,77.9051972 363.009348,77.9051972 L360.088356,77.9051972 C359.846347,77.9051972 359.727031,77.7870068 359.727031,77.5528772 L362.433029,72.5855035 L362.197774,72.5855035 C358.849046,72.5855035 355.925803,70.3500164 355.925803,67.1003432 C355.925803,63.1404019 358.909829,61.1953256 362.220286,61.1953256 C365.473336,61.1953256 368.464116,63.1404019 368.464116,67.1003432" id="Fill-62" fill="#FFFFFF" mask="url(#mask-2)"></path>
                    <path d="M385.049606,72.7316093 C385.049606,75.9812825 382.118484,78.0490518 378.988127,78.0490518 C376.044623,78.0490518 373.669559,76.6240132 373.107873,74.126256 C373.107873,73.8943777 373.223813,73.7795642 373.461319,73.7795642 L376.044623,73.7795642 C376.286632,73.7795642 376.386813,73.8943777 376.386813,74.126256 C376.835936,74.9423326 377.812977,75.147196 378.950982,75.147196 C380.349005,75.147196 381.771793,74.5348571 381.771793,72.7574986 C381.771793,70.983517 380.570753,70.3711781 379.179483,70.3711781 C378.222704,70.3711781 377.47529,70.4094493 376.886589,70.786533 C376.80667,70.983517 376.627696,71.0206625 376.479114,71.0206625 C376.455476,71.0206625 376.365426,71.0206625 373.752855,70.8101711 C373.544615,70.7493874 373.461319,70.640202 373.461319,70.4882429 L373.461319,61.7804244 C373.461319,61.5766866 373.432053,61.4033407 373.752855,61.4033407 L383.651583,61.4033407 C383.886838,61.4033407 384.00728,61.5204055 384.00728,61.7556607 L384.00728,64.044052 C384.00728,64.2793071 383.886838,64.3974975 383.651583,64.3974975 L376.743635,64.3974975 L376.743635,67.7552306 C377.530446,67.4783273 378.335266,67.3342476 379.211001,67.3342476 C382.385257,67.3342476 385.049606,69.476308 385.049606,72.7316093" id="Fill-63" fill="#FFFFFF" mask="url(#mask-2)"></path>
                    <path d="M396.526795,77.5528772 C396.526795,77.7870068 396.41761,77.9051972 396.182354,77.9051972 L393.593422,77.9051972 C393.361543,77.9051972 393.245604,77.7870068 393.245604,77.5528772 L393.245604,66.163825 C391.781169,67.2984528 389.428617,67.6496472 388.497727,67.6496472 C388.301869,67.6496472 388.217447,67.5010649 388.217447,67.2984528 L388.217447,64.996554 C388.217447,64.8029469 388.327758,64.6870077 388.557385,64.6554903 C392.076082,63.9542273 395.312248,61.4024402 396.182354,61.4024402 C396.380464,61.4024402 396.486273,61.4868619 396.526795,61.6939765 L396.526795,77.5528772 Z" id="Fill-64" fill="#FFFFFF" mask="url(#mask-2)"></path>
                    <polygon id="Fill-65" fill="#FFFFFF" mask="url(#mask-2)" points="293.775549 90.0806095 398.135423 90.0806095 398.135423 85.9439455 293.775549 85.9439455"></polygon>
                </g>
                <g id="Group-85" transform="translate(0.000000, 0.683253)">
                    <path d="M48.6499834,54.5192062 C37.0493141,47.4210284 32.9531724,42.168872 28.9121863,33.1087335 C23.5452165,44.362711 18.1208398,50.0178403 8.07915818,54.9233048 L2.42402886,49.8444944 C15.7536549,44.4775246 21.063218,36.8019022 24.0067218,24.6834463 L3.98076529,24.6834463 L3.98076529,18.4508725 L24.7001055,18.4508725 C24.9308582,15.9114673 24.9308582,12.9679634 24.9308582,12.1023595 C24.9308582,8.75475703 24.8149191,6.27388421 24.7001055,4.42673708 L32.3746023,4.83083569 C32.7787009,4.83083569 33.3561454,4.88824245 33.3561454,5.52309376 C33.3561454,5.98459913 32.7787009,6.5046369 32.2597888,6.96614228 C32.1438496,8.17843811 32.1438496,7.42764766 32.1438496,10.3137447 C32.1438496,10.8326569 32.0290361,15.7381213 31.9130969,18.4508725 L53.611729,18.4508725 L53.611729,24.6834463 L32.4916671,24.6834463 C36.0103642,35.7629523 40.5128557,42.168872 54.5932722,48.9788904 L48.6499834,54.5192062 Z" id="Fill-67" fill="#FFFFFF"></path>
                    <mask id="mask-4" fill="white">
                        <use xlink:href="#path-3"></use>
                    </mask>
                    <g id="Clip-70"></g>
                    <path d="M80.6823964,29.1851499 L104.401522,29.1851499 L104.401522,21.5669343 L80.6823964,21.5669343 L80.6823964,29.1851499 Z M69.1965405,11.8708188 L115.538434,11.8708188 L115.538434,6.21568951 L69.1965405,6.21568951 L69.1965405,11.8708188 Z M68.0427771,52.8457427 L68.0427771,46.7279824 L83.6259002,46.7279824 C82.2402584,43.4963191 80.5079248,40.9569139 78.7193101,38.9949532 L84.375565,35.3017846 C85.8760203,37.1489317 88.5876458,40.8421004 90.0892267,44.535269 L86.5682784,46.7279824 L94.3587143,46.7279824 C96.8407127,43.0922205 98.6304531,39.8031504 100.419068,35.0710319 L74.0445983,35.0710319 L74.0445983,15.6225199 L110.575563,15.6225199 L110.575563,35.0710319 L102.150276,35.0710319 L106.766455,37.6678439 C107.054615,37.8411898 107.805405,38.2452884 107.805405,38.8801397 C107.805405,39.4564586 106.997208,39.6872113 106.074197,39.917964 C105.266,41.7651111 103.534792,44.9393676 102.323622,46.7279824 L116.635917,46.7279824 L116.635917,52.8457427 L68.0427771,52.8457427 Z" id="Fill-69" fill="#FFFFFF" mask="url(#mask-4)"></path>
                    <path d="M158.99727,32.8201238 C158.99727,35.0713696 159.113209,42.2269542 159.113209,44.1889148 L152.418004,44.1889148 C152.592476,40.8998448 152.648757,38.0722801 152.706164,35.5328749 C150.514576,36.6292316 144.512755,39.6301422 144.512755,43.6700027 C144.512755,47.4205781 148.955588,48.1713686 153.167669,48.1713686 C158.131666,48.1713686 163.037131,47.4205781 167.885188,46.3242214 L167.885188,52.8460804 C162.401154,53.7116844 155.99636,53.7116844 154.149212,53.7116844 C150.917549,53.7116844 144.22347,53.7116844 140.588834,49.8451698 C138.393869,47.5365173 138.393869,44.9971121 138.393869,44.1889148 C138.393869,37.0333302 143.703432,34.3205791 152.360598,29.87662 C152.013906,28.145412 151.321648,26.0675122 147.975171,26.0675122 C142.318916,26.0675122 138.855374,31.3196685 135.682244,36.5132925 L130.027114,32.9934697 C134.585887,28.0880053 137.470858,23.990738 141.39478,17.1233128 C138.10571,17.2955331 136.317095,17.3540655 133.893629,17.3540655 L133.201371,11.3522444 C136.663787,11.6404038 139.203192,11.756343 144.22347,11.5829971 C145.666518,8.46614732 146.416183,6.44677989 147.108441,3.90737468 L154.322558,5.17707728 C154.495904,5.23448405 155.476322,5.35042321 155.476322,5.75452182 C155.476322,6.10008804 155.245569,6.27343396 154.900003,6.38937312 C154.784064,6.44677989 153.629175,6.96569203 153.572893,6.96569203 C153.515487,7.02422442 152.072438,10.2558877 151.783153,10.890739 C157.092716,10.025135 159.689528,9.27434454 163.094537,7.94723518 L162.690439,14.4105617 C157.496815,15.6228576 152.764696,16.1417697 148.898182,16.6032751 C147.05216,20.0082843 146.590655,20.8164815 145.607986,22.3169368 C146.358776,21.9702449 148.089984,21.1046409 150.571983,21.1046409 C154.553311,21.1046409 157.092716,23.125134 158.419826,26.9342418 C165.171312,23.7599853 165.922102,23.4132935 168.634853,22.2009976 L170.597939,28.7802633 C166.038041,30.2233119 163.267883,31.2037294 158.99727,32.8201238" id="Fill-71" fill="#FFFFFF" mask="url(#mask-4)"></path>
                    <path d="M217.748368,29.588348 C214.055199,29.588348 210.47797,30.0498534 209.093454,30.2231993 L209.093454,24.1639714 C212.094364,23.9332187 214.97821,23.7598727 218.037653,23.7598727 C222.077514,23.7598727 223.923535,23.9332187 225.654743,24.105439 L225.654743,30.2231993 C221.327849,29.6457548 218.615098,29.588348 217.748368,29.588348 M216.479791,52.499276 C206.092543,52.499276 201.647458,49.6143045 201.647458,43.7272969 C201.647458,43.4391374 201.647458,41.5919903 202.340842,39.5726229 L208.053378,40.7837931 C207.822626,41.8801498 207.822626,42.8042861 207.822626,42.9190997 C207.822626,43.6698901 207.938565,44.1313955 208.514884,44.6503077 C210.130152,46.150763 214.516705,46.2092953 215.84494,46.2092953 C221.210784,46.2092953 224.328759,45.3436914 226.001435,44.9395927 L226.57888,51.633672 C223.635376,52.1525841 220.518526,52.499276 216.479791,52.499276 M201.878211,21.3938135 C199.050647,30.9728641 196.049736,40.2648809 189.990508,52.0951773 L182.949737,49.9598708 C186.412153,44.3621482 190.105322,38.1295744 194.664094,22.4901701 C190.047915,23.0676147 188.085954,23.1250214 186.066587,23.1824282 L185.603956,17.180607 C186.239933,17.2965462 187.451103,17.5272989 190.278667,17.5272989 C191.086865,17.5272989 194.722627,17.4687665 195.992329,17.180607 C196.857933,13.2566857 197.839476,8.8127266 197.95429,4.94621203 L205.052468,6.62001325 C205.168407,6.62001325 206.495516,6.9081727 206.495516,7.543024 C206.495516,7.94712261 206.323296,8.12046854 205.803258,8.35122123 C205.052468,8.69678745 204.937654,8.75531984 204.821715,9.33163875 C204.302803,11.9295763 203.841297,14.0063505 203.436073,15.622745 C206.842208,14.8719545 210.304624,13.3140925 212.613277,12.2177358 L212.613277,18.6236556 C210.65019,19.2585069 208.226724,20.1815176 201.878211,21.3938135" id="Fill-72" fill="#FFFFFF" mask="url(#mask-4)"></path>
                    <path d="M265.823721,49.0943793 C260.975663,52.2686358 256.762457,52.787548 254.340116,52.787548 C250.703229,52.787548 247.759725,51.4604386 245.913704,49.8451698 C243.200953,47.4779849 242.277942,44.5356067 242.277942,30.6848172 C242.277942,27.1649945 242.739447,10.025135 242.567227,6.15749481 L250.241724,7.25497711 C251.627365,7.42719741 252.146277,7.83129602 252.146277,8.17798787 C252.146277,8.63949324 251.452894,9.10099862 250.529883,9.85178908 C250.068378,11.3522444 248.914614,26.58755 248.914614,32.936063 C248.914614,35.5902817 248.914614,41.1880043 250.010971,43.1499649 C250.12691,43.3233109 251.396613,45.5745566 255.089781,45.5745566 C258.321445,45.5745566 266.054474,43.5540635 271.709603,32.473432 L277.365858,37.1481438 C274.998673,40.4383394 271.536257,45.4012107 265.823721,49.0943793" id="Fill-73" fill="#FFFFFF" mask="url(#mask-4)"></path>
                    <path d="M327.51866,25.2023585 C323.709553,22.8937059 320.593829,21.3932507 314.879041,19.9502021 L317.476979,14.9873309 C321.747592,15.7381213 326.076738,17.0652307 330.346225,20.296894 L327.51866,25.2023585 Z M307.840521,42.5155639 C304.839611,42.5155639 303.453969,44.1308327 303.453969,45.2857218 C303.453969,46.5554244 305.070364,47.8825337 308.243494,47.8825337 C312.918206,47.8825337 312.860816,45.4590677 312.860816,43.3811679 C311.82185,43.0930084 309.801356,42.5155639 307.840521,42.5155639 L307.840521,42.5155639 Z M324.921849,49.8444944 C322.958762,48.2292256 321.459433,47.2476824 319.208187,46.0353866 C318.689275,50.6526916 316.956941,53.0761577 309.397258,53.0761577 C305.704089,53.0761577 302.413894,52.4987132 299.991553,50.3645322 C299.068542,49.556335 297.855121,47.8825337 297.855121,45.4590677 C297.855121,42.342218 300.105241,37.2634076 308.071274,37.2634076 C309.974702,37.2634076 311.416625,37.4367535 312.571514,37.6100994 C312.456701,36.28299 311.764443,30.3959824 311.764443,29.1848122 C311.764443,26.4146543 313.091552,24.6834463 314.245316,23.2978046 L320.247137,26.5294678 C318.39999,28.0299231 318.054423,29.4729716 318.054423,31.1467729 C318.054423,32.3579431 318.169237,34.8973483 318.804088,39.1679615 C322.614322,40.6684167 325.095194,42.1114653 328.729831,44.4201178 L324.921849,49.8444944 Z M304.491793,19.1431305 C299.818207,32.6472281 296.817297,38.4182966 293.816386,43.90008 L287.640093,41.2458613 C292.257398,34.2050902 295.143495,26.7602205 297.509555,20.2394872 C294.85421,20.5850534 293.238941,20.7583994 290.527316,20.9317453 L289.660586,14.9299241 C293.469694,14.8725173 295.89316,14.6417647 299.471515,14.1802593 C300.453058,10.7167177 301.145317,8.17731249 301.549415,4.65748977 L307.840521,6.04313152 C308.127555,6.10053829 309.225038,6.38869775 309.225038,7.02354905 C309.225038,7.60099358 308.243494,7.9465598 307.896803,8.29325165 C307.840521,8.35065841 306.743039,12.0449527 306.512286,12.7946175 C309.917296,11.9290135 311.647378,11.351569 313.148959,10.8326569 L313.148959,17.2959834 C311.185873,17.8160212 309.397258,18.2775265 304.491793,19.1431305 L304.491793,19.1431305 Z" id="Fill-74" fill="#FFFFFF" mask="url(#mask-4)"></path>
                    <path d="M381.826587,22.6631784 C379.172369,19.5463286 377.094469,17.584368 372.477164,14.3527047 L375.996986,9.2738943 C379.97944,11.9292387 382.922944,14.5260506 385.981261,18.0458734 L381.826587,22.6631784 Z M351.355976,30.2228616 C349.798114,30.2228616 348.008374,32.1274155 348.008374,34.5520072 C348.008374,36.8595341 349.681049,37.3210394 350.374433,37.3210394 C352.106767,37.3210394 353.548689,34.9549802 353.548689,32.6474533 C353.548689,31.0310588 352.394926,30.2228616 351.355976,30.2228616 L351.355976,30.2228616 Z M375.883299,50.3062249 C371.554153,51.9226194 364.282629,52.2681856 360.185362,52.2681856 C357.011105,52.2681856 349.336609,52.2681856 349.336609,46.843809 C349.336609,46.2089577 349.624768,44.3618105 349.739582,43.5547389 C348.124313,43.2080471 342.873282,42.1116904 342.873282,34.6668207 C342.873282,25.490743 350.14368,25.3173971 352.568272,25.2599904 C352.856431,23.7021283 352.856431,22.0857338 352.799025,21.1627231 C350.43184,21.4508825 347.546868,21.8549812 344.027046,21.9709203 L343.160316,15.7957532 C347.720214,15.85316 349.970334,15.6798141 353.087184,15.3916546 C353.144591,10.1980307 352.971245,7.54268632 352.799025,5.52331888 L359.262351,6.21557695 C360.530928,6.3315161 360.820213,6.44632964 360.820213,6.9663674 C360.820213,7.31193363 360.530928,7.37046602 360.185362,7.6012187 C359.83867,7.83197139 359.66645,8.06272408 359.550511,8.29347677 L359.203819,14.4686439 C363.879656,13.4296939 366.071244,12.6789035 368.726588,11.6410792 L368.726588,17.9310598 C365.03342,19.0274165 361.684692,19.6622678 358.973066,20.1811799 C358.915659,21.9709203 358.800846,25.490743 358.683781,28.3768401 C359.203819,29.0690982 359.723857,29.7613562 359.723857,31.146998 C359.723857,32.9930195 358.915659,35.2442652 358.050055,37.4943854 C357.011105,40.3804824 356.318847,42.3998499 356.318847,44.0736511 C356.318847,45.7474523 357.184451,46.3823036 361.109498,46.3823036 C372.36235,46.3823036 374.266904,44.4203429 374.266904,41.3608999 C374.266904,40.4378892 374.036151,37.6677313 371.727499,33.5130573 L377.325221,31.5510966 C380.730231,37.5529178 380.787637,42.515789 380.787637,42.8613552 C380.787637,48.4590778 376.97853,49.9021263 375.883299,50.3062249 L375.883299,50.3062249 Z" id="Fill-75" fill="#FFFFFF" mask="url(#mask-4)"></path>
                    <path d="M402.143855,37.2638578 C406.991913,40.0914225 411.377339,43.7271843 414.954569,49.7864123 L408.952748,54.5770632 C405.951837,49.5556596 402.316075,45.4009856 397.814709,41.7652237 L402.143855,37.2638578 Z" id="Fill-76" fill="#FFFFFF" mask="url(#mask-4)"></path>
                    <path d="M17.1972663,111.310595 L40.9152658,111.310595 L40.9152658,103.692379 L17.1972663,103.692379 L17.1972663,111.310595 Z M5.71366171,93.9962637 L52.0544298,93.9962637 L52.0544298,88.3411344 L5.71366171,88.3411344 L5.71366171,93.9962637 Z M4.55989826,134.971188 L4.55989826,128.853427 L20.1396445,128.853427 C18.7551283,125.621764 17.025046,123.082359 15.2353056,121.120398 L20.8904349,117.427229 C22.3908902,119.273251 25.1036413,122.967545 26.6040966,126.660714 L23.0842739,128.853427 L30.8747098,128.853427 C33.3567082,125.217665 35.1441974,121.928595 36.9339377,117.196477 L10.5617194,117.196477 L10.5617194,97.7468391 L47.0915586,97.7468391 L47.0915586,117.196477 L38.6651457,117.196477 L43.2824507,119.793289 C43.5717358,119.966635 44.3214007,120.369608 44.3214007,121.005585 C44.3214007,121.581903 43.5132034,121.812656 42.5901927,122.043409 C41.7819955,123.890556 40.0507875,127.063687 38.8384916,128.853427 L53.1507865,128.853427 L53.1507865,134.971188 L4.55989826,134.971188 Z" id="Fill-77" fill="#FFFFFF" mask="url(#mask-4)"></path>
                    <path d="M75.8912952,95.4971692 C76.0646411,97.8643541 76.0646411,100.171881 76.1220478,103.518358 C78.834799,101.788275 81.3167974,100.229288 84.8366201,95.4971692 L75.8912952,95.4971692 Z M85.9915092,95.4971692 L89.2805792,97.8643541 C89.7994914,98.2673271 90.5502818,98.8447717 90.3769359,99.3636838 L103.822501,99.3636838 L103.822501,96.1894273 L109.018376,96.4787124 C109.941387,96.5361192 110.806991,96.5935259 110.806991,97.1709705 C110.806991,97.3443164 110.691052,97.5165367 110.460299,97.6898826 C109.998794,98.0365744 109.998794,98.151388 109.998794,99.3636838 L117.039565,99.3636838 L117.039565,103.866175 L109.998794,103.866175 L109.998794,108.539761 C109.998794,110.560255 107.80608,112.52109 102.380578,112.638154 L100.015645,107.385998 C100.590838,107.442279 101.68832,107.559344 102.149826,107.559344 C103.247308,107.559344 103.822501,107.270059 103.822501,106.000356 L103.822501,103.866175 L94.358264,103.866175 C95.686499,104.441369 97.9377448,105.712197 99.3222609,106.980774 L97.1284219,111.02176 C97.6484597,111.02176 99.148915,111.136573 99.148915,111.887364 C99.148915,112.175523 98.975569,112.290337 98.7448164,112.579622 C98.3992501,112.982595 98.3407177,113.155941 98.2259042,113.387819 L113.807902,113.387819 L113.807902,130.699899 C113.807902,135.663896 108.843905,136.183934 105.324082,136.183934 L103.591748,131.335876 L101.745727,133.470057 C99.5530136,132.432233 97.7643988,131.393283 95.2249936,129.315383 C93.3778465,131.218811 91.4744182,132.951145 88.5309144,134.798292 L83.9136094,131.218811 C87.5493713,129.662075 91.4158858,127.353422 94.1275113,122.563897 L98.1684974,124.121759 C98.3407177,124.179166 98.975569,124.467325 98.975569,124.986237 C98.975569,125.334055 98.7448164,125.447743 98.0514327,125.852967 C100.418618,127.929741 103.535467,128.796471 105.438896,129.142037 L104.631824,130.065048 C105.266675,130.354333 105.842994,130.412865 106.017466,130.412865 C107.112697,130.412865 107.80608,129.892827 107.80608,127.814928 L107.80608,118.292158 L100.071926,118.292158 C100.821591,119.158888 102.72727,121.235662 107.05529,122.390551 L103.650281,126.198533 C100.360085,124.814017 97.4762394,122.621304 94.9942409,120.024492 C93.5511924,122.102391 91.5881061,124.352512 88.1842226,126.141126 L84.4910539,122.333144 C86.5678281,121.466415 88.7042603,120.255244 89.9728373,118.292158 L83.6254499,118.292158 L83.6254499,136.297622 L77.6810355,136.297622 L77.6810355,113.387819 L92.0496115,113.387819 C92.1666763,112.925188 92.397429,112.059584 92.5696493,110.673942 L96.7839813,111.02176 C95.686499,110.098749 93.7830707,108.597168 91.531825,107.616751 L93.5511924,103.866175 L89.6272711,103.866175 L89.6272711,99.7103757 C89.1657657,99.7103757 88.8179482,99.7677824 88.5871955,100.114474 C88.3564429,100.345227 87.4334321,101.49899 87.2026794,101.729743 C87.606778,101.845682 88.1256902,101.960496 88.1256902,102.422001 C88.1256902,102.942039 87.3186186,103.172792 87.0304591,103.287605 L87.0304591,112.118117 L81.3742042,112.118117 L81.3742042,106.980774 C80.0459692,108.078256 79.8152165,108.251602 79.2963043,108.597168 L76.1220478,105.712197 C76.1220478,110.904695 76.1805802,114.888274 75.6031357,120.196712 C74.6801249,129.142037 72.948917,133.124491 71.7366211,136.009462 L65.0999487,133.875281 C67.5808215,128.853877 70.3509794,123.140216 70.3509794,108.770514 C70.3509794,106.577801 70.2372915,98.3258595 69.4279686,90.1876061 L88.935013,90.1876061 L88.935013,86.4359051 L95.8013125,86.7251902 C96.4361638,86.7251902 97.5899273,86.8411293 97.5899273,87.5333874 C97.5899273,87.7641401 97.417707,87.9948928 97.014734,88.3415846 C96.4946962,88.80309 96.4361638,88.9179035 96.4361638,89.0923751 L96.4361638,90.1876061 L117.270318,90.1876061 L117.270318,95.4971692 L85.9915092,95.4971692 Z" id="Fill-78" fill="#FFFFFF" mask="url(#mask-4)"></path>
                    <path d="M158.99727,114.946132 C158.99727,117.196252 159.113209,124.351836 159.113209,126.314923 L152.418004,126.314923 C152.592476,123.025852 152.648757,120.197162 152.706164,117.657757 C150.514576,118.754114 144.512755,121.755024 144.512755,125.79601 C144.512755,129.546586 148.955588,130.296251 153.167669,130.296251 C158.131666,130.296251 163.037131,129.546586 167.885188,128.449104 L167.885188,134.970962 C162.401154,135.836566 155.99636,135.836566 154.149212,135.836566 C150.917549,135.836566 144.22347,135.836566 140.588834,131.970052 C138.393869,129.661399 138.393869,127.121994 138.393869,126.314923 C138.393869,119.158212 143.703432,116.445461 152.360598,112.002628 C152.013906,110.27142 151.321648,108.19352 147.975171,108.19352 C142.318916,108.19352 138.855374,113.444551 135.682244,118.6393 L130.027114,115.118352 C134.585887,110.212887 137.470858,106.11562 141.39478,99.2493205 C138.10571,99.4215408 136.317095,99.4800732 133.893629,99.4800732 L133.201371,93.4782521 C136.663787,93.7664115 139.203192,93.881225 144.22347,93.7090047 C145.666518,90.5910294 146.416183,88.571662 147.108441,86.0322567 L154.322558,87.3019593 C154.495904,87.3593661 155.476322,87.4764309 155.476322,87.8794039 C155.476322,88.2260957 155.245569,88.3994417 154.900003,88.5142552 C154.784064,88.571662 153.629175,89.0916997 153.572893,89.0916997 C153.515487,89.1491065 152.072438,92.3807698 151.783153,93.0167467 C157.092716,92.1500171 159.689528,91.4003522 163.094537,90.0721172 L162.690439,96.5365694 C157.496815,97.7477396 152.764696,98.2677774 148.898182,98.7292828 C147.05216,102.133166 146.590655,102.942489 145.607986,104.441819 C146.358776,104.096253 148.089984,103.230649 150.571983,103.230649 C154.553311,103.230649 157.092716,105.251142 158.419826,109.059124 C165.171312,105.884867 165.922102,105.539301 168.634853,104.327005 L170.597939,110.905145 C166.038041,112.348194 163.267883,113.329737 158.99727,114.946132" id="Fill-79" fill="#FFFFFF" mask="url(#mask-4)"></path>
                    <path d="M217.748368,111.714356 C214.055199,111.714356 210.47797,112.175861 209.093454,112.348081 L209.093454,106.288853 C212.094364,106.058101 214.97821,105.884755 218.037653,105.884755 C222.077514,105.884755 223.923535,106.058101 225.654743,106.231447 L225.654743,112.348081 C221.327849,111.771762 218.615098,111.714356 217.748368,111.714356 M216.479791,134.625284 C206.092543,134.625284 201.647458,131.739187 201.647458,125.853305 C201.647458,125.565145 201.647458,123.717998 202.340842,121.697505 L208.053378,122.908675 C207.822626,124.006157 207.822626,124.929168 207.822626,125.045107 C207.822626,125.795898 207.938565,126.257403 208.514884,126.776315 C210.130152,128.276771 214.516705,128.335303 215.84494,128.335303 C221.210784,128.335303 224.328759,127.468573 226.001435,127.064475 L226.57888,133.758554 C223.635376,134.278592 220.518526,134.625284 216.479791,134.625284 M201.878211,103.518696 C199.050647,113.098872 196.049736,122.389763 189.990508,134.220059 L182.949737,132.085878 C186.412153,126.488156 190.105322,120.255582 194.664094,104.615052 C190.047915,105.192497 188.085954,105.251029 186.066587,105.308436 L185.603956,99.3066147 C186.239933,99.4214283 187.451103,99.652181 190.278667,99.652181 C191.086865,99.652181 194.722627,99.5936486 195.992329,99.3066147 C196.857933,95.3815678 197.839476,90.9387343 197.95429,87.0710941 L205.052468,88.7448953 C205.168407,88.7448953 206.495516,89.0341804 206.495516,89.6679061 C206.495516,90.0720047 206.323296,90.2464762 205.803258,90.4772289 C205.052468,90.8216695 204.937654,90.8802019 204.821715,91.4576464 C204.302803,94.0544584 203.841297,96.1312326 203.436073,97.7476271 C206.842208,96.9979622 210.304624,95.4389745 212.613277,94.3426179 L212.613277,100.748538 C210.65019,101.383389 208.226724,102.307525 201.878211,103.518696" id="Fill-80" fill="#FFFFFF" mask="url(#mask-4)"></path>
                    <path d="M251.74353,101.383614 C247.645137,105.307535 245.972461,110.674505 245.972461,114.195454 C245.972461,118.870165 248.625554,121.292506 249.66563,121.292506 C252.66654,121.292506 257.629412,106.231672 258.783175,97.22894 C257.110499,97.8052589 254.513688,98.6708629 251.74353,101.383614 M282.79046,123.601158 C278.46244,130.008204 272.460619,132.490202 269.344894,133.758779 L265.074281,127.814365 C267.671093,127.063574 271.940581,125.852404 275.461529,121.640323 C278.982478,117.485649 279.617329,112.694998 279.617329,110.155593 C279.617329,106.981337 278.693192,103.114822 275.461529,100.055379 C271.826893,96.5929631 267.785907,96.3622104 265.6506,96.1899901 C263.804579,109.92484 260.398444,118.004561 258.495016,121.871076 C256.763808,125.448305 254.109589,130.296363 251.108678,130.296363 C249.030778,130.296363 239.566541,125.102739 239.566541,114.772898 C239.566541,101.961059 250.127135,90.3029825 265.015749,90.3029825 C277.019391,90.3029825 286.483628,98.4401102 286.483628,111.309357 C286.483628,116.388167 284.925766,120.428027 282.79046,123.601158" id="Fill-81" fill="#FFFFFF" mask="url(#mask-4)"></path>
                    <path d="M326.0764,131.219261 C321.228342,134.393518 317.016261,134.91243 314.59167,134.91243 C310.955908,134.91243 308.01353,133.586446 306.167508,131.970052 C303.453631,129.602867 302.530621,126.660489 302.530621,112.810825 C302.530621,109.289877 302.992126,92.1500171 302.81878,88.2823769 L310.494402,89.3798592 C311.880044,89.5532051 312.400082,89.9573037 312.400082,90.3028699 C312.400082,90.7655009 311.706698,91.2270063 310.783688,91.9766711 C310.322182,93.4782521 309.168419,108.713558 309.168419,115.060945 C309.168419,117.716289 309.168419,123.314012 310.26365,125.275973 C310.379589,125.448193 311.649292,127.699439 315.34246,127.699439 C318.574123,127.699439 326.307153,125.678946 331.962282,114.598314 L337.618537,119.274151 C335.252478,122.564347 331.790062,127.526093 326.0764,131.219261" id="Fill-82" fill="#FFFFFF" mask="url(#mask-4)"></path>
                    <path d="M389.271795,104.789074 C386.617576,101.671098 384.539676,99.7102631 379.922371,96.4785998 L383.443319,91.3997894 C387.424648,94.0540082 390.369277,96.6519458 393.426469,100.171768 L389.271795,104.789074 Z M358.801183,112.348757 C357.242196,112.348757 355.453581,114.253311 355.453581,116.676777 C355.453581,118.984304 357.127382,119.445809 357.820766,119.445809 C359.550848,119.445809 360.993897,117.080875 360.993897,114.772223 C360.993897,113.156954 359.840133,112.348757 358.801183,112.348757 L358.801183,112.348757 Z M383.32738,132.43212 C378.99936,134.047389 371.727837,134.394081 367.629444,134.394081 C364.456313,134.394081 356.78069,134.394081 356.78069,128.968578 C356.78069,128.334853 357.069975,126.487706 357.184789,125.679508 C355.56952,125.333942 350.317364,124.23646 350.317364,116.792716 C350.317364,107.616638 357.590013,107.442167 360.012354,107.385885 C360.301639,105.826898 360.301639,104.210503 360.243106,103.287493 C357.877047,103.576778 354.992076,103.979751 351.471127,104.096815 L350.605523,97.9205227 C355.164296,97.9779295 357.415542,97.8057092 360.532391,97.5164241 C360.590924,92.3239258 360.416452,89.6674558 360.243106,87.6480884 L366.706433,88.3414721 C367.977261,88.4562856 368.265421,88.5722248 368.265421,89.0922625 C368.265421,89.4367031 367.977261,89.4952355 367.629444,89.7259882 C367.285003,89.9567409 367.111657,90.1874936 366.995718,90.4182463 L366.649026,96.5934134 C371.323738,95.5555891 373.517577,94.8047986 376.17067,93.7658487 L376.17067,100.055829 C372.477501,101.153312 369.131025,101.788163 366.418273,102.307075 C366.360867,104.096815 366.244928,107.616638 366.130114,110.50161 C366.649026,111.193868 367.167938,111.887251 367.167938,113.271767 C367.167938,115.118915 366.360867,117.369035 365.495263,119.62028 C364.456313,122.505252 363.764055,124.524619 363.764055,126.199546 C363.764055,127.873347 364.628533,128.507073 368.55358,128.507073 C379.807558,128.507073 381.710986,126.545112 381.710986,123.486795 C381.710986,122.563784 381.480233,119.793626 379.171581,115.638952 L384.770429,113.675866 C388.174312,119.677687 388.232845,124.641684 388.232845,124.986125 C388.232845,130.584973 384.423737,132.028021 383.32738,132.43212 L383.32738,132.43212 Z" id="Fill-83" fill="#FFFFFF" mask="url(#mask-4)"></path>
                    <path d="M408.0303,127.75662 C408.0303,131.16163 410.800458,133.931787 414.204341,133.875506 C417.610476,133.875506 420.323227,131.16163 420.323227,127.75662 C420.323227,124.352737 417.553069,121.639986 414.204341,121.639986 C410.85899,121.639986 408.0303,124.352737 408.0303,127.75662 M423.093385,127.75662 C423.093385,132.662085 419.110931,136.644539 414.204341,136.701945 C409.300002,136.701945 405.260142,132.662085 405.260142,127.75662 C405.260142,122.794875 409.300002,118.869828 414.204341,118.869828 C419.052399,118.869828 423.093385,122.794875 423.093385,127.75662" id="Fill-84" fill="#FFFFFF" mask="url(#mask-4)"></path>
                </g>
            </g>
        </g>
    </g>
</svg>