<?xml version="1.0" encoding="UTF-8"?>
<svg width="422px" height="345px" viewBox="0 0 422 345" version="1.1" xmlns="http://www.w3.org/2000/svg" xmlns:xlink="http://www.w3.org/1999/xlink">
    <!-- Generator: Sketch 56.2 (81672) - https://sketch.com -->
    <title>txt-loading1</title>
    <desc>Created with Sketch.</desc>
    <defs>
        <polygon id="path-1" points="-2.84880566 126.910842 395.134297 126.910842 395.134297 -22.9073111 -2.84880566 -22.9073111"></polygon>
        <polygon id="path-3" points="0 150.181729 440.469738 150.181729 440.469738 0.442369789 0 0.442369789"></polygon>
    </defs>
    <g id="Page-1" stroke="none" stroke-width="1" fill="none" fill-rule="evenodd">
        <g id="0" transform="translate(-468.000000, -294.000000)">
            <g id="Group-86" transform="translate(466.000000, 290.000000)">
                <g id="Group-66" transform="translate(9.004983, 222.027959)">
                    <path d="M7.68657419,120.781038 L1.48889464,114.629509 L1.48889464,126.352871 C1.48889464,126.609513 1.3785836,126.72095 1.11518785,126.72095 L-1.71913055,126.72095 C-1.98702879,126.72095 -2.09283734,126.609513 -2.09283734,126.352871 L-2.09283734,105.549109 C-2.01854623,105.444426 -1.95100886,105.40728 -1.88009462,105.40728 C-1.71913055,105.40728 -1.71913055,105.444426 -1.61669887,105.549109 L7.72371974,115.555896 C7.86554822,115.707855 7.90269378,115.781021 8.06365785,115.781021 C8.20661195,115.781021 8.24375751,115.707855 8.39121411,115.555896 L17.7260046,105.549109 C17.8419438,105.444426 17.8419438,105.40728 17.9848979,105.40728 C18.0670683,105.40728 18.1447363,105.444426 18.2088968,105.549109 L18.2088968,126.352871 C18.2088968,126.609513 18.1053395,126.72095 17.8419438,126.72095 L15.0042485,126.72095 C14.7419784,126.72095 14.6260392,126.609513 14.6260392,126.352871 L14.6260392,114.629509 L8.4351134,120.781038 C8.28090306,120.974645 8.17396889,121.043308 8.06365785,121.043308 C7.94659307,121.043308 7.82840267,120.974645 7.68657419,120.781038" id="Fill-1" fill="#512800"></path>
                    <path d="M33.3308522,122.691557 L33.3308522,121.492769 C32.8603418,120.641798 31.0604708,120.152152 30.0890583,120.152152 C28.2644236,120.152152 27.7736521,120.860169 27.7736521,121.946395 C27.7736521,123.429966 28.6043617,123.808175 30.5032875,123.808175 C30.800452,123.808175 32.4528663,123.696739 33.3308522,122.691557 L33.3308522,122.691557 Z M33.9364373,124.891024 C32.8603418,126.873246 29.7930195,126.910392 29.4215639,126.910392 C27.8175513,126.910392 24.1941713,126.353209 24.1941713,122.1355 C24.1941713,118.998389 26.3215986,117.321211 29.3472728,117.321211 C30.722784,117.321211 32.5125244,117.715179 33.3308522,118.543637 C33.3308522,115.671048 31.886678,114.88874 29.3180066,114.88874 C28.8981493,114.88874 27.9683848,114.993423 26.660411,115.291713 C26.5084519,115.328858 26.4746833,115.375009 26.3609954,115.375009 C26.21579,115.375009 26.0930971,115.260195 26.0300622,115.069965 L25.2410006,113.428807 C25.1588301,113.288104 25.1239358,113.133894 25.1239358,112.986437 C25.1239358,112.834478 25.2027294,112.725292 25.3175429,112.643122 C27.287383,111.642443 28.6043617,111.604172 29.830165,111.604172 C34.4272089,111.604172 36.9227148,114.104172 36.9227148,118.320764 L36.9227148,126.353209 C36.9227148,126.608725 36.8202831,126.721287 36.5535105,126.721287 L34.611811,126.721287 C34.355169,126.721287 34.2009587,126.608725 34.0917732,126.353209 L33.9364373,124.891024 Z" id="Fill-3" fill="#512800"></path>
                    <path d="M54.1680451,119.21237 C54.1680451,116.644824 52.2691194,114.851707 50.1067978,114.851707 C47.8713108,114.851707 46.1896302,116.644824 46.1896302,119.21237 C46.1896302,121.757403 47.9084563,123.808288 50.1067978,123.808288 C52.3501642,123.808288 54.1680451,121.909362 54.1680451,119.21237 L54.1680451,119.21237 Z M54.5462544,124.747057 C53.2405319,126.64936 50.9633968,126.910504 49.357133,126.910504 C45.4771109,126.910504 42.527979,123.392933 42.527979,119.17635 C42.527979,115.034058 45.5176334,111.604285 49.5777551,111.604285 C50.2914,111.604285 52.6833486,111.64143 54.1680451,113.618024 L54.1680451,105.892874 C54.1680451,105.633981 54.2851099,105.518042 54.5462544,105.518042 L57.3839497,105.518042 C57.6507223,105.518042 57.7565309,105.633981 57.7565309,105.892874 L57.7565309,126.353321 C57.7565309,126.608838 57.6507223,126.7214 57.3839497,126.7214 L55.2970449,126.7214 C55.0404029,126.7214 54.8805644,126.608838 54.771379,126.353321 L54.5462544,124.747057 Z" id="Fill-5" fill="#512800"></path>
                    <path d="M67.2423799,117.75919 L74.4463663,117.75919 C74.4463663,115.67116 72.587963,114.925998 70.8308657,114.925998 C69.1086627,114.925998 67.2423799,115.816365 67.2423799,117.75919 M71.3925515,126.910504 C67.0577778,126.910504 63.5447088,124.629993 63.5447088,119.36658 C63.5447088,115.223162 65.6777642,111.604285 70.7475696,111.604285 C74.7863044,111.604285 77.9594353,114.104285 77.9594353,118.915205 L77.9594353,120.375138 C77.9594353,120.641911 77.8592549,120.745468 77.5879798,120.745468 L67.2423799,120.745468 C67.2423799,123.251104 70.0823265,123.808288 71.3599084,123.808288 C72.4258733,123.808288 74.0400165,123.582038 75.0508258,122.874021 C75.1228657,122.79973 75.2027849,122.768212 75.3097191,122.768212 C75.4616782,122.768212 75.6068835,122.843629 75.7171946,122.946061 L76.8124256,124.668264 C76.8822142,124.819097 76.9148573,124.926031 76.9148573,124.971056 C76.9148573,125.082493 76.8822142,125.190553 76.7685263,125.267095 C75.4616782,126.64936 73.1755381,126.910504 71.3925515,126.910504" id="Fill-7" fill="#512800"></path>
                    <path d="M93.0481848,112.167321 C93.0481848,111.907302 93.1708777,111.790238 93.4252685,111.790238 L96.2640894,111.790238 C96.5241083,111.790238 96.6366705,111.907302 96.6366705,112.167321 L96.6366705,126.353546 C96.6366705,126.609063 96.5241083,126.721625 96.2640894,126.721625 L93.4252685,126.721625 C93.1708777,126.721625 93.0481848,126.609063 93.0481848,126.353546 L93.0481848,112.167321 Z M94.8750708,105.778286 C96.1166328,105.778286 97.1240653,106.820613 97.1240653,108.019401 C97.1240653,109.217064 96.1166328,110.185099 94.8750708,110.185099 C93.728061,110.185099 92.7138748,109.217064 92.7138748,108.019401 C92.7138748,106.820613 93.728061,105.778286 94.8750708,105.778286 L94.8750708,105.778286 Z" id="Fill-9" fill="#512800"></path>
                    <path d="M106.865656,113.618362 C108.164625,112.012098 109.964496,111.604622 111.412047,111.604622 C115.940427,111.604622 117.649123,114.706839 117.649123,118.248049 L117.649123,126.352533 C117.649123,126.609175 117.54444,126.721738 117.277667,126.721738 L114.438847,126.721738 C114.182205,126.721738 114.06514,126.609175 114.06514,126.352533 L114.06514,118.809734 C114.06514,116.682307 113.725202,114.852044 110.564453,114.852044 C108.323337,114.852044 107.311403,116.682307 107.311403,118.809734 L107.311403,126.352533 C107.311403,126.609175 107.210096,126.721738 106.939947,126.721738 L104.102252,126.721738 C103.846735,126.721738 103.724042,126.609175 103.724042,126.352533 L103.724042,112.167434 C103.724042,111.906289 103.846735,111.79035 104.102252,111.79035 L106.154262,111.79035 C106.33999,111.79035 106.4942,111.906289 106.524592,112.167434 L106.865656,113.618362 Z" id="Fill-11" fill="#512800"></path>
                    <path d="M140.618921,108.504657 C136.776045,108.504657 136.702879,110.812184 136.702879,111.381749 C136.702879,115.745789 148.126826,114.257715 148.126826,121.457199 C148.126826,124.85658 144.050945,126.910842 141.064668,126.910842 C138.499373,126.910842 136.178339,126.721738 133.634431,125.189765 C133.533125,125.115474 133.456583,125.008539 133.456583,124.85658 C133.456583,124.782289 133.456583,124.698993 133.492603,124.667476 L134.464015,122.731404 C134.539432,122.619968 134.642989,122.541174 134.754426,122.541174 C134.827591,122.541174 134.903008,122.541174 134.949159,122.582822 C135.952089,123.063463 137.927557,123.808626 140.723604,123.808626 C142.660801,123.808626 144.542842,122.653736 144.542842,121.161161 C144.542842,117.096536 133.115519,118.736569 133.115519,111.158876 C133.115519,107.41618 135.69207,105.251607 140.504108,105.251607 C142.93883,105.251607 145.442215,106.156608 146.59823,106.645128 C146.741184,106.748685 146.816601,106.857871 146.816601,106.96593 C146.816601,107.04585 146.816601,107.121266 146.780581,107.158412 L145.804666,109.291467 C145.763018,109.402904 145.697731,109.483949 145.555903,109.507587 C145.479361,109.507587 145.393813,109.507587 145.348788,109.483949 C144.388632,109.174403 142.150894,108.504657 140.618921,108.504657" id="Fill-13" fill="#512800"></path>
                    <path d="M157.75833,113.163272 C159.065178,111.974615 160.565634,111.604285 161.863477,111.604285 C166.389606,111.604285 168.094925,114.706501 168.094925,118.248836 L168.094925,126.353321 C168.094925,126.608838 167.994745,126.7214 167.730223,126.7214 L164.888026,126.7214 C164.629132,126.7214 164.508691,126.608838 164.508691,126.353321 L164.508691,118.810522 C164.508691,116.681969 164.177758,114.851707 161.005752,114.851707 C158.766888,114.851707 157.75833,116.681969 157.75833,118.810522 L157.75833,126.353321 C157.75833,126.608838 157.649145,126.7214 157.380121,126.7214 L154.545803,126.7214 C154.284658,126.7214 154.175473,126.608838 154.175473,126.353321 L154.175473,105.892874 C154.175473,105.633981 154.284658,105.518042 154.545803,105.518042 L157.380121,105.518042 C157.649145,105.518042 157.75833,105.633981 157.75833,105.892874 L157.75833,113.163272 Z" id="Fill-15" fill="#512800"></path>
                    <path d="M174.828401,112.167321 C174.828401,111.907302 174.942089,111.790238 175.197605,111.790238 L178.029673,111.790238 C178.291943,111.790238 178.412384,111.907302 178.412384,112.167321 L178.412384,126.353546 C178.412384,126.609063 178.291943,126.721625 178.029673,126.721625 L175.197605,126.721625 C174.942089,126.721625 174.828401,126.609063 174.828401,126.353546 L174.828401,112.167321 Z M176.653036,105.778286 C177.883342,105.778286 178.8919,106.820613 178.8919,108.019401 C178.8919,109.217064 177.883342,110.185099 176.653036,110.185099 C175.497021,110.185099 174.488463,109.217064 174.488463,108.019401 C174.488463,106.820613 175.497021,105.778286 176.653036,105.778286 L176.653036,105.778286 Z" id="Fill-17" fill="#512800"></path>
                    <path d="M206.075467,126.353096 C206.075467,126.610864 205.958402,126.721175 205.696132,126.721175 L202.861814,126.721175 C202.593915,126.721175 202.488107,126.610864 202.488107,126.353096 L202.488107,118.248611 C202.488107,116.008622 201.857758,114.888627 200.254871,114.888627 C198.9514,114.888627 197.75036,115.86004 197.595024,117.201782 C197.6423,117.609258 197.6423,117.870402 197.6423,118.285757 L197.6423,126.353096 C197.6423,126.610864 197.521859,126.721175 197.262966,126.721175 L194.421893,126.721175 C194.160749,126.721175 194.051563,126.610864 194.051563,126.353096 L194.051563,118.847443 C194.051563,116.71889 193.457235,114.888627 191.775554,114.888627 C189.939663,114.888627 189.08419,116.71889 189.08419,118.847443 L189.08419,126.353096 C189.08419,126.610864 188.968251,126.721175 188.712734,126.721175 L185.876165,126.721175 C185.619523,126.721175 185.509211,126.610864 185.509211,126.353096 L185.509211,112.166871 C185.509211,111.906852 185.619523,111.789787 185.876165,111.789787 L188.077883,111.789787 C188.273741,111.789787 188.417821,111.906852 188.448213,112.166871 L188.74988,113.543508 C190.058979,112.012661 191.476138,111.604059 192.782987,111.604059 C194.232789,111.604059 195.778269,112.501181 196.705782,113.950983 C197.973234,111.906852 199.801245,111.604059 201.26568,111.604059 C204.240702,111.604059 206.075467,114.401232 206.075467,117.870402 L206.075467,126.353096 Z" id="Fill-19" fill="#512800"></path>
                    <path d="M220.815161,122.691557 L220.815161,121.492769 C220.341274,120.641798 218.543654,120.152152 217.583498,120.152152 C215.749858,120.152152 215.266966,120.860169 215.266966,121.946395 C215.266966,123.429966 216.086419,123.808175 217.985345,123.808175 C218.299394,123.808175 219.941678,123.696739 220.815161,122.691557 L220.815161,122.691557 Z M221.4275,124.891024 C220.341274,126.873246 217.275077,126.910392 216.905873,126.910392 C215.304111,126.910392 211.686359,126.353209 211.686359,122.1355 C211.686359,118.998389 213.803656,117.321211 216.838335,117.321211 C218.199213,117.321211 220.003587,117.715179 220.815161,118.543637 C220.815161,115.671048 219.36761,114.88874 216.800064,114.88874 C216.381332,114.88874 215.44594,114.993423 214.133463,115.291713 C213.999514,115.328858 213.957866,115.375009 213.845304,115.375009 C213.704601,115.375009 213.578531,115.260195 213.509868,115.069965 L212.730937,113.428807 C212.649893,113.288104 212.617249,113.133894 212.617249,112.986437 C212.617249,112.834478 212.691541,112.725292 212.792847,112.643122 C214.778445,111.642443 216.086419,111.604172 217.308846,111.604172 C221.903638,111.604172 224.409275,114.104172 224.409275,118.320764 L224.409275,126.353209 C224.409275,126.608725 224.297838,126.721287 224.035568,126.721287 L222.100622,126.721287 C221.838352,126.721287 221.683016,126.608725 221.573831,126.353209 L221.4275,124.891024 Z" id="Fill-21" fill="#512800"></path>
                    <path d="M242.886824,119.21237 C242.886824,116.644824 241.214149,114.851707 238.974159,114.851707 C236.815215,114.851707 234.905033,116.644824 234.905033,119.21237 C234.905033,121.909362 236.73417,123.808288 238.974159,123.808288 C241.174752,123.808288 242.886824,121.757403 242.886824,119.21237 L242.886824,119.21237 Z M234.298322,126.353321 C234.20377,126.608838 234.046182,126.7214 233.788415,126.7214 L231.682374,126.7214 C231.434737,126.7214 231.330054,126.608838 231.330054,126.353321 L231.330054,105.892874 C231.330054,105.633981 231.434737,105.518042 231.682374,105.518042 L234.540331,105.518042 C234.786842,105.518042 234.905033,105.633981 234.905033,105.892874 L234.905033,113.618024 C236.39986,111.64143 238.789557,111.604285 239.499825,111.604285 C243.568952,111.604285 246.557481,115.034058 246.557481,119.17635 C246.557481,123.392933 243.601595,126.910504 239.726075,126.910504 C238.041018,126.910504 235.826918,126.64936 234.540331,124.747057 L234.298322,126.353321 Z" id="Fill-23" fill="#512800"></path>
                    <path d="M260.369211,122.691557 L260.369211,121.492769 C259.886319,120.641798 258.092076,120.152152 257.116161,120.152152 C255.291526,120.152152 254.80976,120.860169 254.80976,121.946395 C254.80976,123.429966 255.631464,123.808175 257.532641,123.808175 C257.826429,123.808175 259.466461,123.696739 260.369211,122.691557 L260.369211,122.691557 Z M260.968042,124.891024 C259.886319,126.873246 256.823499,126.910392 256.443038,126.910392 C254.84578,126.910392 251.226902,126.353209 251.226902,122.1355 C251.226902,118.998389 253.354329,117.321211 256.367622,117.321211 C257.760017,117.321211 259.547506,117.715179 260.369211,118.543637 C260.369211,115.671048 258.918283,114.88874 256.342858,114.88874 C255.93088,114.88874 254.996613,114.993423 253.688639,115.291713 C253.528801,115.328858 253.496158,115.375009 253.385847,115.375009 C253.237264,115.375009 253.132582,115.260195 253.051537,115.069965 L252.266978,113.428807 C252.205068,113.288104 252.16342,113.133894 252.16342,112.986437 C252.16342,112.834478 252.23546,112.725292 252.341269,112.643122 C254.322365,111.642443 255.631464,111.604172 256.856142,111.604172 C261.447558,111.604172 263.957697,114.104172 263.957697,118.320764 L263.957697,126.353209 C263.957697,126.608725 263.84626,126.721287 263.586241,126.721287 L261.636662,126.721287 C261.372141,126.721287 261.233689,126.608725 261.11775,126.353209 L260.968042,124.891024 Z" id="Fill-25" fill="#512800"></path>
                    <path d="M278.213148,114.851707 C275.124438,114.851707 274.446813,116.823798 274.446813,118.810522 L274.446813,126.353321 C274.446813,126.608838 274.346633,126.7214 274.075358,126.7214 L271.241039,126.7214 C270.979895,126.7214 270.869584,126.608838 270.869584,126.353321 L270.869584,112.167096 C270.869584,111.907077 270.979895,111.790012 271.241039,111.790012 L273.438255,111.790012 C273.629611,111.790012 273.78157,111.907077 273.816465,112.167096 L274.112503,113.428919 C275.494768,111.907077 277.102158,111.604285 278.293067,111.604285 L279.154168,111.604285 C279.413062,111.604285 279.533503,111.719098 279.533503,111.974615 L279.533503,114.484754 C279.533503,114.742521 279.413062,114.851707 279.154168,114.851707 L278.213148,114.851707 Z" id="Fill-27" fill="#512800"></path>
                    <path d="M292.41198,122.691557 L292.41198,121.492769 C291.917831,120.641798 290.130342,120.152152 289.154427,120.152152 C287.328667,120.152152 286.850277,120.860169 286.850277,121.946395 C286.850277,123.429966 287.668605,123.808175 289.574284,123.808175 C289.872574,123.808175 291.511481,123.696739 292.41198,122.691557 L292.41198,122.691557 Z M293.001806,124.891024 C291.917831,126.873246 288.861765,126.910392 288.480179,126.910392 C286.886297,126.910392 283.260666,126.353209 283.260666,122.1355 C283.260666,118.998389 285.394847,117.321211 288.402511,117.321211 C289.797158,117.321211 291.576767,117.715179 292.41198,118.543637 C292.41198,115.671048 290.946419,114.88874 288.369868,114.88874 C287.971397,114.88874 287.034879,114.993423 285.729157,115.291713 C285.5817,115.328858 285.542303,115.375009 285.418485,115.375009 C285.276656,115.375009 285.164094,115.260195 285.0853,115.069965 L284.305244,113.428807 C284.227576,113.288104 284.188179,113.133894 284.188179,112.986437 C284.188179,112.834478 284.273726,112.725292 284.379535,112.643122 C286.365134,111.642443 287.668605,111.604172 288.901162,111.604172 C293.494829,111.604172 295.997088,114.104172 295.997088,118.320764 L295.997088,126.353209 C295.997088,126.608725 295.876647,126.721287 295.617754,126.721287 L293.672677,126.721287 C293.417161,126.721287 293.261825,126.608725 293.156016,126.353209 L293.001806,124.891024 Z" id="Fill-29" fill="#512800"></path>
                    <path d="M9.91260598,-3.44968156 C14.1809679,-3.44968156 17.0445525,-6.29638181 17.0445525,-9.60346181 C17.0445525,-12.9263005 14.1809679,-15.775252 9.91260598,-15.775252 L6.83402742,-15.775252 L6.83402742,-3.44968156 L9.91260598,-3.44968156 Z M9.91260598,1.79009292 L6.83402742,1.79009292 L6.83402742,11.2802194 L1.12486821,11.2802194 L1.12486821,-20.9992678 L9.91260598,-20.9992678 C17.7345593,-20.9992678 22.9709569,-15.775252 22.9709569,-9.60346181 C22.9709569,-3.44968156 17.7345593,1.79009292 9.91260598,1.79009292 L9.91260598,1.79009292 Z" id="Fill-31" fill="#512800"></path>
                    <path d="M41.7169677,-5.81742927 C45.3167097,-5.81742927 47.646749,-8.18911667 47.646749,-10.775798 C47.646749,-13.4041274 45.273936,-15.7758148 41.7169677,-15.7758148 L36.5030826,-15.7758148 L36.5030826,-5.81742927 L41.7169677,-5.81742927 Z M48.1307669,-1.7685638 L55.4822098,11.2796566 L49.3126709,11.2796566 L42.6624909,-0.600167253 L36.5030826,-0.600167253 L36.5030826,11.2796566 L30.8119333,11.2796566 L30.8119333,-20.998705 L41.7169677,-20.998705 C48.8297787,-20.998705 53.5742791,-16.2632095 53.5742791,-10.775798 C53.5742791,-4.85614734 48.1307669,-2.20305423 48.1307669,-2.24920476 L48.1307669,-1.7685638 Z" id="Fill-33" fill="#512800"></path>
                    <polygon id="Fill-35" fill="#512800" points="62.3771002 -20.9990427 81.1299773 -20.9990427 81.1299773 -15.7750269 68.063747 -15.7750269 68.063747 -7.71331588 77.3006083 -7.71331588 77.3006083 -2.48029514 68.063747 -2.48029514 68.063747 6.05417749 81.6027389 6.05417749 81.6027389 11.2804445 62.3771002 11.2804445"></polygon>
                    <polygon id="Fill-37" fill="#512800" points="95.5874775 -7.24314321 95.1214696 -7.24314321 95.1214696 11.2801068 89.431446 11.2801068 89.431446 -21.9392754 90.3814717 -21.9392754 104.852479 -4.15105717 119.343748 -21.9392754 120.283643 -21.9392754 120.283643 11.2801068 114.591368 11.2801068 114.591368 -7.24314321 114.114104 -7.24314321 104.852479 4.1492859"></polygon>
                    <mask id="mask-2" fill="white">
                        <use xlink:href="#path-1"></use>
                    </mask>
                    <g id="Clip-40"></g>
                    <polygon id="Fill-39" fill="#512800" mask="url(#mask-2)" points="130.249345 11.2801068 135.942746 11.2801068 135.942746 -20.9993803 130.249345 -20.9993803"></polygon>
                    <path d="M151.380551,0.110776154 C151.380551,4.14951103 154.218246,6.99508565 157.547839,6.99508565 C160.870678,6.99508565 163.707247,4.14951103 163.707247,0.110776154 L163.707247,-20.9991552 L169.40515,-20.9991552 L169.40515,0.110776154 C169.40515,6.99508565 164.186763,12.2348601 157.547839,12.2348601 C150.896533,12.2348601 145.690527,6.99508565 145.690527,0.110776154 L145.690527,-20.9991552 L151.380551,-20.9991552 L151.380551,0.110776154 Z" id="Fill-41" fill="#512800" mask="url(#mask-2)"></path>
                    <polygon id="Fill-42" fill="#512800" mask="url(#mask-2)" points="185.318418 -7.24314321 184.845657 -7.24314321 184.845657 11.2801068 179.126367 11.2801068 179.126367 -21.9392754 180.094403 -21.9392754 194.590174 -4.15105717 209.042046 -21.9392754 210.004454 -21.9392754 210.004454 11.2801068 204.312179 11.2801068 204.312179 -7.24314321 203.829287 -7.24314321 194.590174 4.1492859"></polygon>
                    <path d="M250.336422,6.05429005 C253.89339,6.05429005 256.038827,4.0146614 256.038827,1.32104587 C256.038827,-1.40071024 253.89339,-3.44934387 250.336422,-3.44934387 L245.370174,-3.44934387 L245.370174,6.05429005 L250.336422,6.05429005 Z M249.870414,-8.66548027 C252.721617,-8.66548027 254.375157,-10.3336534 254.375157,-12.2156948 C254.375157,-14.1179975 252.721617,-15.77604 249.870414,-15.77604 L245.370174,-15.77604 L245.370174,-8.66548027 L249.870414,-8.66548027 Z M239.676773,-20.9989301 L249.870414,-20.9989301 C256.516091,-20.9989301 260.310566,-17.2078323 260.310566,-12.9259628 C260.310566,-7.71320332 255.080922,-6.52004307 255.080922,-6.52004307 L255.080922,-6.03152274 C255.080922,-6.03152274 262.210617,-4.85524684 262.210617,2.01217831 C262.210617,6.77243745 257.69687,11.2805571 250.336422,11.2805571 L239.676773,11.2805571 L239.676773,-20.9989301 Z" id="Fill-43" fill="#512800" mask="url(#mask-2)"></path>
                    <path d="M280.967884,-5.81742927 C284.565375,-5.81742927 286.892038,-8.18911667 286.892038,-10.775798 C286.892038,-13.4041274 284.531606,-15.7758148 280.967884,-15.7758148 L275.738241,-15.7758148 L275.738241,-5.81742927 L280.967884,-5.81742927 Z M287.362548,-1.7685638 L294.733127,11.2796566 L288.559085,11.2796566 L281.919036,-0.600167253 L275.738241,-0.600167253 L275.738241,11.2796566 L270.06285,11.2796566 L270.06285,-20.998705 L280.967884,-20.998705 C288.072816,-20.998705 292.828573,-16.2632095 292.828573,-10.775798 C292.828573,-4.85614734 287.362548,-2.20305423 287.362548,-2.24920476 L287.362548,-1.7685638 Z" id="Fill-44" fill="#512800" mask="url(#mask-2)"></path>
                    <path d="M308.736888,1.32104587 L316.789594,1.32104587 L313.008627,-8.66548027 L312.522358,-8.66548027 L308.736888,1.32104587 Z M326.996742,11.2805571 L320.841837,11.2805571 L318.941785,6.53718227 L306.56331,6.53718227 L304.713912,11.2805571 L298.535368,11.2805571 L312.522358,-22.9068609 L313.008627,-22.9068609 L326.996742,11.2805571 Z" id="Fill-45" fill="#512800" mask="url(#mask-2)"></path>
                    <polygon id="Fill-46" fill="#512800" mask="url(#mask-2)" points="352.404189 -2.01631339 352.404189 -20.9988175 358.099841 -20.9988175 358.099841 12.2329466 357.147564 12.2329466 340.056106 -7.71421638 339.576591 -7.71421638 339.576591 11.2806696 333.893321 11.2806696 333.893321 -21.9387126 334.838844 -21.9387126 351.934805 -2.01631339"></polygon>
                    <path d="M373.759169,-15.7754772 L373.759169,6.05485286 L377.569402,6.05485286 C383.033176,6.05485286 388.009554,1.06721791 388.009554,-4.85580965 C388.009554,-10.776586 383.033176,-15.7754772 377.569402,-15.7754772 L373.759169,-15.7754772 Z M377.569402,-20.9994929 C386.593521,-20.9994929 393.93821,-13.6390449 393.93821,-4.85580965 C393.93821,3.92742563 386.593521,11.2799942 377.569402,11.2799942 L368.071396,11.2799942 L368.071396,-20.9994929 L377.569402,-20.9994929 Z" id="Fill-47" fill="#512800" mask="url(#mask-2)"></path>
                    <path d="M14.0149385,40.6397282 C8.31703556,40.6397282 3.0682561,45.8569902 3.0682561,52.4891602 C3.0682561,59.1483451 8.31703556,64.3644815 14.0149385,64.3644815 C19.708339,64.3644815 24.9143448,59.1483451 24.9143448,52.4891602 C24.9143448,45.8569902 19.708339,40.6397282 14.0149385,40.6397282 M14.0149385,35.4123356 C23.2675586,35.4123356 30.8576336,42.9979081 30.8576336,52.4891602 C30.8576336,61.9995479 23.2675586,69.5896229 14.0149385,69.5896229 C4.74205731,69.5896229 -2.84801773,61.9995479 -2.84801773,52.4891602 C-2.84801773,42.9979081 4.74205731,35.4123356 14.0149385,35.4123356" id="Fill-48" fill="#512800" mask="url(#mask-2)"></path>
                    <path d="M58.1450959,40.8705935 L53.8846133,43.9536745 C53.8846133,43.9536745 51.5140515,40.6398408 48.6662257,40.6398408 C45.8048923,40.6398408 43.9251021,42.5320128 43.9251021,44.8946953 C43.9251021,50.5948495 58.6246112,49.6515775 58.6246112,59.842967 C58.6246112,64.8328532 53.8846133,69.5897355 47.4708142,69.5897355 C39.4057263,69.5897355 35.8408786,62.9451837 35.8408786,62.9451837 L40.1148687,59.842967 C40.1148687,59.842967 42.7263138,64.3645941 46.9924244,64.3645941 C50.3141375,64.3645941 52.6892018,61.9996604 52.6892018,59.389341 C52.6892018,53.6689256 38.0054514,54.6335844 38.0054514,44.4219336 C38.0054514,39.9183165 42.4854305,35.4124482 48.1867103,35.4124482 C54.834639,35.4124482 58.1450959,40.8705935 58.1450959,40.8705935" id="Fill-49" fill="#512800" mask="url(#mask-2)"></path>
                    <path d="M73.5806498,58.6662409 L81.6558683,58.6662409 L77.8580167,48.6965991 L77.3683708,48.6965991 L73.5806498,58.6662409 Z M91.858514,68.6482645 L85.6810957,68.6482645 L83.7889236,63.880126 L71.4059464,63.880126 L69.5509199,68.6482645 L63.3768784,68.6482645 L77.3683708,34.4574697 L77.8580167,34.4574697 L91.858514,68.6482645 Z" id="Fill-50" fill="#512800" mask="url(#mask-2)"></path>
                    <path d="M111.561642,51.550841 L122.234798,68.6479268 L116.068636,68.6479268 L105.627358,51.550841 L115.123113,36.3470528 L121.288149,36.3470528 L111.561642,51.550841 Z M98.7475511,68.6479268 L104.4387,68.6479268 L104.4387,36.3470528 L98.7475511,36.3470528 L98.7475511,68.6479268 Z" id="Fill-51" fill="#512800" mask="url(#mask-2)"></path>
                    <polygon id="Fill-52" fill="#512800" mask="url(#mask-2)" points="128.896347 68.6486022 134.587496 68.6486022 134.587496 36.3477282 128.896347 36.3477282"></polygon>
                    <polygon id="Fill-53" fill="#512800" mask="url(#mask-2)" points="167.084228 41.576359 167.084228 68.6487148 161.407712 68.6487148 161.407712 41.576359 153.097239 41.576359 153.097239 36.3467151 175.409335 36.3467151 175.409335 41.576359"></polygon>
                    <path d="M197.230998,40.6397282 C191.537597,40.6397282 186.32934,45.8569902 186.32934,52.4891602 C186.32934,59.1483451 191.537597,64.3644815 197.230998,64.3644815 C202.917645,64.3644815 208.163047,59.1483451 208.163047,52.4891602 C208.163047,45.8569902 202.917645,40.6397282 197.230998,40.6397282 M197.230998,35.4123356 C206.502753,35.4123356 214.080447,42.9979081 214.080447,52.4891602 C214.080447,61.9995479 206.502753,69.5896229 197.230998,69.5896229 C187.978378,69.5896229 180.396182,61.9995479 180.396182,52.4891602 C180.396182,42.9979081 187.978378,35.4123356 197.230998,35.4123356" id="Fill-54" fill="#512800" mask="url(#mask-2)"></path>
                    <polygon id="Fill-55" fill="#512800" mask="url(#mask-2)" points="221.943035 36.3471654 241.154041 36.3471654 241.154041 41.5768093 227.610546 41.5768093 227.610546 51.7940881 237.362943 51.7940881 237.362943 57.014727 227.610546 57.014727 227.610546 68.6480394 221.943035 68.6480394"></polygon>
                    <path d="M253.732989,57.4900775 C253.732989,61.5164305 256.572935,64.3642564 259.917161,64.3642564 C263.220864,64.3642564 266.088951,61.5164305 266.088951,57.4900775 L266.088951,36.3475031 L271.774472,36.3475031 L271.774472,57.4900775 C271.774472,64.3642564 266.556085,69.5893978 259.917161,69.5893978 C253.255725,69.5893978 248.040714,64.3642564 248.040714,57.4900775 L248.040714,36.3475031 L253.732989,36.3475031 L253.732989,57.4900775 Z" id="Fill-56" fill="#512800" mask="url(#mask-2)"></path>
                    <path d="M294.399492,48.0211128 L299.133862,48.0211128 C299.133862,46.6242148 297.627778,46.19085 296.750918,46.19085 C295.853797,46.19085 294.399492,46.6242148 294.399492,48.0211128 M301.952421,50.070872 L294.399492,50.070872 C294.399492,52.0294558 296.295041,52.3187409 297.131379,52.3187409 C297.978973,52.3187409 299.280193,52.0834857 299.885778,51.5341818 C300.055747,51.4182426 300.211083,51.3619615 300.333776,51.3619615 C300.411444,51.3619615 300.473353,51.3912277 300.529634,51.4407551 L301.404243,52.8950598 C301.469529,52.951341 301.488665,53.0368883 301.488665,53.1865962 C301.488665,53.3284246 301.469529,53.4173488 301.404243,53.5073987 C300.381052,54.7872319 298.698246,55.0483764 297.16177,55.0483764 C293.813042,55.0483764 291.096914,53.2721435 291.096914,49.1838812 C291.096914,45.9555948 292.742575,43.1347839 296.698014,43.1347839 C299.863265,43.1347839 302.329505,45.1980506 302.329505,48.9216111 C302.329505,49.3257097 302.306993,49.2401624 302.306993,49.7320596 C302.306993,49.9661891 302.187677,50.070872 301.952421,50.070872" id="Fill-57" fill="#512800" mask="url(#mask-2)"></path>
                    <path d="M306.105294,53.652604 C306.105294,53.6244634 306.105294,53.5636798 306.128933,53.5321624 L306.749151,51.5623223 C306.781794,51.4970362 306.830196,51.4722725 306.949512,51.4722725 C307.004667,51.4722725 307.066576,51.4722725 307.089089,51.4970362 C307.534836,51.7322914 308.893462,52.3446302 310.489596,52.3446302 C310.95898,52.3446302 312.024945,52.1994249 312.024945,51.6152266 C312.024945,50.0573646 306.191967,51.064797 306.191967,46.593823 C306.191967,44.2457737 308.224842,43.1347839 310.866679,43.1347839 C312.287215,43.1347839 313.779791,43.5681487 314.381999,43.8394238 C314.44616,43.8653131 314.501315,43.9542373 314.558722,44.0352822 C314.558722,44.1230808 314.558722,44.1557238 314.523828,44.1793619 L313.91374,46.3349297 C313.883349,46.4159746 313.800052,46.4767582 313.68749,46.4767582 C313.657098,46.4767582 313.625581,46.4531201 313.542285,46.4531201 C312.852278,46.2156137 311.625349,46.035514 310.716971,46.035514 C309.558705,46.035514 309.478786,46.3349297 309.478786,46.713139 C309.478786,48.0706402 315.311764,47.6935565 315.311764,51.3619615 C315.311764,54.1760187 312.750972,55.0483764 310.512108,55.0483764 C309.101703,55.0483764 307.728443,54.8412618 306.2505,53.9103717 C306.215605,53.885608 306.105294,53.7978094 306.105294,53.652604" id="Fill-58" fill="#512800" mask="url(#mask-2)"></path>
                    <path d="M324.286693,46.1271397 L324.286693,49.4679884 C324.286693,51.6764605 324.37224,52.1469709 325.39318,52.1469709 C325.710606,52.1469709 325.913218,52.1751114 326.300432,52.083936 C326.317316,52.0535442 326.401738,52.0535442 326.494039,52.0535442 C326.608853,52.0535442 326.779947,52.1751114 326.810339,52.289925 L327.279724,54.2631419 C327.299985,54.2935337 327.299985,54.3858348 327.299985,54.465754 C327.299985,54.6165875 327.155906,54.764044 327.125514,54.764044 C326.300432,55.0780928 325.968373,55.0488266 324.956438,55.0488266 C322.45643,55.0488266 320.995372,53.9412137 320.995372,50.1129703 L320.995372,46.1271397 L319.025531,46.1271397 C318.799281,46.1271397 318.677714,46.010075 318.677714,45.7826991 L318.677714,43.4875541 C318.677714,43.2511733 318.799281,43.1352341 319.025531,43.1352341 L320.995372,43.1352341 L320.995372,38.7554355 C320.995372,38.5201804 321.122567,38.4031156 321.349943,38.4031156 L323.935498,38.4031156 C324.165126,38.4031156 324.286693,38.5201804 324.286693,38.7554355 L324.286693,43.1352341 L326.779947,43.1352341 C327.020831,43.1352341 327.125514,43.2511733 327.125514,43.4875541 L327.125514,45.7826991 C327.125514,46.010075 327.020831,46.1271397 326.779947,46.1271397 L324.286693,46.1271397 Z" id="Fill-59" fill="#512800" mask="url(#mask-2)"></path>
                    <path d="M333.570943,51.5618721 C334.603139,51.5618721 335.329166,52.2890245 335.329166,53.2964569 C335.329166,54.3173969 334.603139,55.0490518 333.570943,55.0490518 C332.561259,55.0490518 331.838609,54.3173969 331.838609,53.2964569 C331.838609,52.2890245 332.561259,51.5618721 333.570943,51.5618721" id="Fill-60" fill="#512800" mask="url(#mask-2)"></path>
                    <path d="M347.988596,54.5528772 C347.988596,54.7870068 347.871531,54.9051972 347.638527,54.9051972 L345.055223,54.9051972 C344.822219,54.9051972 344.704028,54.7870068 344.704028,54.5528772 L344.704028,43.163825 C343.244096,44.2984528 340.893795,44.6496472 339.975287,44.6496472 C339.761418,44.6496472 339.674745,44.5010649 339.674745,44.2984528 L339.674745,41.996554 C339.674745,41.8029469 339.797438,41.6870077 340.014684,41.6554903 C343.539009,40.9542273 346.768421,38.4024402 347.638527,38.4024402 C347.840014,38.4024402 347.958204,38.4868619 347.988596,38.6939765 L347.988596,54.5528772 Z" id="Fill-61" fill="#512800" mask="url(#mask-2)"></path>
                    <path d="M362.188554,43.9540122 C362.188554,42.1732768 360.712862,41.2525173 359.197774,41.2525173 C357.687188,41.2525173 356.209245,42.1732768 356.209245,43.9540122 C356.209245,45.7201145 357.687188,46.6847733 359.197774,46.6847733 C360.712862,46.6847733 362.188554,45.7201145 362.188554,43.9540122 M365.464116,44.1003432 C365.464116,44.9907109 365.263755,45.8124156 364.832642,46.5677085 L360.47423,54.5528772 C360.388683,54.7644943 360.246854,54.9051972 360.009348,54.9051972 L357.088356,54.9051972 C356.846347,54.9051972 356.727031,54.7870068 356.727031,54.5528772 L359.433029,49.5855035 L359.197774,49.5855035 C355.849046,49.5855035 352.925803,47.3500164 352.925803,44.1003432 C352.925803,40.1404019 355.909829,38.1953256 359.220286,38.1953256 C362.473336,38.1953256 365.464116,40.1404019 365.464116,44.1003432" id="Fill-62" fill="#512800" mask="url(#mask-2)"></path>
                    <path d="M382.049606,49.7316093 C382.049606,52.9812825 379.118484,55.0490518 375.988127,55.0490518 C373.044623,55.0490518 370.669559,53.6240132 370.107873,51.126256 C370.107873,50.8943777 370.223813,50.7795642 370.461319,50.7795642 L373.044623,50.7795642 C373.286632,50.7795642 373.386813,50.8943777 373.386813,51.126256 C373.835936,51.9423326 374.812977,52.147196 375.950982,52.147196 C377.349005,52.147196 378.771793,51.5348571 378.771793,49.7574986 C378.771793,47.983517 377.570753,47.3711781 376.179483,47.3711781 C375.222704,47.3711781 374.47529,47.4094493 373.886589,47.786533 C373.80667,47.983517 373.627696,48.0206625 373.479114,48.0206625 C373.455476,48.0206625 373.365426,48.0206625 370.752855,47.8101711 C370.544615,47.7493874 370.461319,47.640202 370.461319,47.4882429 L370.461319,38.7804244 C370.461319,38.5766866 370.432053,38.4033407 370.752855,38.4033407 L380.651583,38.4033407 C380.886838,38.4033407 381.00728,38.5204055 381.00728,38.7556607 L381.00728,41.044052 C381.00728,41.2793071 380.886838,41.3974975 380.651583,41.3974975 L373.743635,41.3974975 L373.743635,44.7552306 C374.530446,44.4783273 375.335266,44.3342476 376.211001,44.3342476 C379.385257,44.3342476 382.049606,46.476308 382.049606,49.7316093" id="Fill-63" fill="#512800" mask="url(#mask-2)"></path>
                    <path d="M393.526795,54.5528772 C393.526795,54.7870068 393.41761,54.9051972 393.182354,54.9051972 L390.593422,54.9051972 C390.361543,54.9051972 390.245604,54.7870068 390.245604,54.5528772 L390.245604,43.163825 C388.781169,44.2984528 386.428617,44.6496472 385.497727,44.6496472 C385.301869,44.6496472 385.217447,44.5010649 385.217447,44.2984528 L385.217447,41.996554 C385.217447,41.8029469 385.327758,41.6870077 385.557385,41.6554903 C389.076082,40.9542273 392.312248,38.4024402 393.182354,38.4024402 C393.380464,38.4024402 393.486273,38.4868619 393.526795,38.6939765 L393.526795,54.5528772 Z" id="Fill-64" fill="#512800" mask="url(#mask-2)"></path>
                    <polygon id="Fill-65" fill="#512800" mask="url(#mask-2)" points="290.775549 67.0806095 395.135423 67.0806095 395.135423 62.9439455 290.775549 62.9439455"></polygon>
                </g>
                <g id="Group-85" transform="translate(0.000000, 0.683253)">
                    <path d="M48.6499834,54.5192062 C37.0493141,47.4210284 32.9531724,42.168872 28.9121863,33.1087335 C23.5452165,44.362711 18.1208398,50.0178403 8.07915818,54.9233048 L2.42402886,49.8444944 C15.7536549,44.4775246 21.063218,36.8019022 24.0067218,24.6834463 L3.98076529,24.6834463 L3.98076529,18.4508725 L24.7001055,18.4508725 C24.9308582,15.9114673 24.9308582,12.9679634 24.9308582,12.1023595 C24.9308582,8.75475703 24.8149191,6.27388421 24.7001055,4.42673708 L32.3746023,4.83083569 C32.7787009,4.83083569 33.3561454,4.88824245 33.3561454,5.52309376 C33.3561454,5.98459913 32.7787009,6.5046369 32.2597888,6.96614228 C32.1438496,8.17843811 32.1438496,7.42764766 32.1438496,10.3137447 C32.1438496,10.8326569 32.0290361,15.7381213 31.9130969,18.4508725 L53.611729,18.4508725 L53.611729,24.6834463 L32.4916671,24.6834463 C36.0103642,35.7629523 40.5128557,42.168872 54.5932722,48.9788904 L48.6499834,54.5192062 Z" id="Fill-67" fill="#512800"></path>
                    <mask id="mask-4" fill="white">
                        <use xlink:href="#path-3"></use>
                    </mask>
                    <g id="Clip-70"></g>
                    <path d="M80.6823964,29.1851499 L104.401522,29.1851499 L104.401522,21.5669343 L80.6823964,21.5669343 L80.6823964,29.1851499 Z M69.1965405,11.8708188 L115.538434,11.8708188 L115.538434,6.21568951 L69.1965405,6.21568951 L69.1965405,11.8708188 Z M68.0427771,52.8457427 L68.0427771,46.7279824 L83.6259002,46.7279824 C82.2402584,43.4963191 80.5079248,40.9569139 78.7193101,38.9949532 L84.375565,35.3017846 C85.8760203,37.1489317 88.5876458,40.8421004 90.0892267,44.535269 L86.5682784,46.7279824 L94.3587143,46.7279824 C96.8407127,43.0922205 98.6304531,39.8031504 100.419068,35.0710319 L74.0445983,35.0710319 L74.0445983,15.6225199 L110.575563,15.6225199 L110.575563,35.0710319 L102.150276,35.0710319 L106.766455,37.6678439 C107.054615,37.8411898 107.805405,38.2452884 107.805405,38.8801397 C107.805405,39.4564586 106.997208,39.6872113 106.074197,39.917964 C105.266,41.7651111 103.534792,44.9393676 102.323622,46.7279824 L116.635917,46.7279824 L116.635917,52.8457427 L68.0427771,52.8457427 Z" id="Fill-69" fill="#512800" mask="url(#mask-4)"></path>
                    <path d="M158.99727,32.8201238 C158.99727,35.0713696 159.113209,42.2269542 159.113209,44.1889148 L152.418004,44.1889148 C152.592476,40.8998448 152.648757,38.0722801 152.706164,35.5328749 C150.514576,36.6292316 144.512755,39.6301422 144.512755,43.6700027 C144.512755,47.4205781 148.955588,48.1713686 153.167669,48.1713686 C158.131666,48.1713686 163.037131,47.4205781 167.885188,46.3242214 L167.885188,52.8460804 C162.401154,53.7116844 155.99636,53.7116844 154.149212,53.7116844 C150.917549,53.7116844 144.22347,53.7116844 140.588834,49.8451698 C138.393869,47.5365173 138.393869,44.9971121 138.393869,44.1889148 C138.393869,37.0333302 143.703432,34.3205791 152.360598,29.87662 C152.013906,28.145412 151.321648,26.0675122 147.975171,26.0675122 C142.318916,26.0675122 138.855374,31.3196685 135.682244,36.5132925 L130.027114,32.9934697 C134.585887,28.0880053 137.470858,23.990738 141.39478,17.1233128 C138.10571,17.2955331 136.317095,17.3540655 133.893629,17.3540655 L133.201371,11.3522444 C136.663787,11.6404038 139.203192,11.756343 144.22347,11.5829971 C145.666518,8.46614732 146.416183,6.44677989 147.108441,3.90737468 L154.322558,5.17707728 C154.495904,5.23448405 155.476322,5.35042321 155.476322,5.75452182 C155.476322,6.10008804 155.245569,6.27343396 154.900003,6.38937312 C154.784064,6.44677989 153.629175,6.96569203 153.572893,6.96569203 C153.515487,7.02422442 152.072438,10.2558877 151.783153,10.890739 C157.092716,10.025135 159.689528,9.27434454 163.094537,7.94723518 L162.690439,14.4105617 C157.496815,15.6228576 152.764696,16.1417697 148.898182,16.6032751 C147.05216,20.0082843 146.590655,20.8164815 145.607986,22.3169368 C146.358776,21.9702449 148.089984,21.1046409 150.571983,21.1046409 C154.553311,21.1046409 157.092716,23.125134 158.419826,26.9342418 C165.171312,23.7599853 165.922102,23.4132935 168.634853,22.2009976 L170.597939,28.7802633 C166.038041,30.2233119 163.267883,31.2037294 158.99727,32.8201238" id="Fill-71" fill="#512800" mask="url(#mask-4)"></path>
                    <path d="M217.748368,29.588348 C214.055199,29.588348 210.47797,30.0498534 209.093454,30.2231993 L209.093454,24.1639714 C212.094364,23.9332187 214.97821,23.7598727 218.037653,23.7598727 C222.077514,23.7598727 223.923535,23.9332187 225.654743,24.105439 L225.654743,30.2231993 C221.327849,29.6457548 218.615098,29.588348 217.748368,29.588348 M216.479791,52.499276 C206.092543,52.499276 201.647458,49.6143045 201.647458,43.7272969 C201.647458,43.4391374 201.647458,41.5919903 202.340842,39.5726229 L208.053378,40.7837931 C207.822626,41.8801498 207.822626,42.8042861 207.822626,42.9190997 C207.822626,43.6698901 207.938565,44.1313955 208.514884,44.6503077 C210.130152,46.150763 214.516705,46.2092953 215.84494,46.2092953 C221.210784,46.2092953 224.328759,45.3436914 226.001435,44.9395927 L226.57888,51.633672 C223.635376,52.1525841 220.518526,52.499276 216.479791,52.499276 M201.878211,21.3938135 C199.050647,30.9728641 196.049736,40.2648809 189.990508,52.0951773 L182.949737,49.9598708 C186.412153,44.3621482 190.105322,38.1295744 194.664094,22.4901701 C190.047915,23.0676147 188.085954,23.1250214 186.066587,23.1824282 L185.603956,17.180607 C186.239933,17.2965462 187.451103,17.5272989 190.278667,17.5272989 C191.086865,17.5272989 194.722627,17.4687665 195.992329,17.180607 C196.857933,13.2566857 197.839476,8.8127266 197.95429,4.94621203 L205.052468,6.62001325 C205.168407,6.62001325 206.495516,6.9081727 206.495516,7.543024 C206.495516,7.94712261 206.323296,8.12046854 205.803258,8.35122123 C205.052468,8.69678745 204.937654,8.75531984 204.821715,9.33163875 C204.302803,11.9295763 203.841297,14.0063505 203.436073,15.622745 C206.842208,14.8719545 210.304624,13.3140925 212.613277,12.2177358 L212.613277,18.6236556 C210.65019,19.2585069 208.226724,20.1815176 201.878211,21.3938135" id="Fill-72" fill="#512800" mask="url(#mask-4)"></path>
                    <path d="M265.823721,49.0943793 C260.975663,52.2686358 256.762457,52.787548 254.340116,52.787548 C250.703229,52.787548 247.759725,51.4604386 245.913704,49.8451698 C243.200953,47.4779849 242.277942,44.5356067 242.277942,30.6848172 C242.277942,27.1649945 242.739447,10.025135 242.567227,6.15749481 L250.241724,7.25497711 C251.627365,7.42719741 252.146277,7.83129602 252.146277,8.17798787 C252.146277,8.63949324 251.452894,9.10099862 250.529883,9.85178908 C250.068378,11.3522444 248.914614,26.58755 248.914614,32.936063 C248.914614,35.5902817 248.914614,41.1880043 250.010971,43.1499649 C250.12691,43.3233109 251.396613,45.5745566 255.089781,45.5745566 C258.321445,45.5745566 266.054474,43.5540635 271.709603,32.473432 L277.365858,37.1481438 C274.998673,40.4383394 271.536257,45.4012107 265.823721,49.0943793" id="Fill-73" fill="#512800" mask="url(#mask-4)"></path>
                    <path d="M327.51866,25.2023585 C323.709553,22.8937059 320.593829,21.3932507 314.879041,19.9502021 L317.476979,14.9873309 C321.747592,15.7381213 326.076738,17.0652307 330.346225,20.296894 L327.51866,25.2023585 Z M307.840521,42.5155639 C304.839611,42.5155639 303.453969,44.1308327 303.453969,45.2857218 C303.453969,46.5554244 305.070364,47.8825337 308.243494,47.8825337 C312.918206,47.8825337 312.860816,45.4590677 312.860816,43.3811679 C311.82185,43.0930084 309.801356,42.5155639 307.840521,42.5155639 L307.840521,42.5155639 Z M324.921849,49.8444944 C322.958762,48.2292256 321.459433,47.2476824 319.208187,46.0353866 C318.689275,50.6526916 316.956941,53.0761577 309.397258,53.0761577 C305.704089,53.0761577 302.413894,52.4987132 299.991553,50.3645322 C299.068542,49.556335 297.855121,47.8825337 297.855121,45.4590677 C297.855121,42.342218 300.105241,37.2634076 308.071274,37.2634076 C309.974702,37.2634076 311.416625,37.4367535 312.571514,37.6100994 C312.456701,36.28299 311.764443,30.3959824 311.764443,29.1848122 C311.764443,26.4146543 313.091552,24.6834463 314.245316,23.2978046 L320.247137,26.5294678 C318.39999,28.0299231 318.054423,29.4729716 318.054423,31.1467729 C318.054423,32.3579431 318.169237,34.8973483 318.804088,39.1679615 C322.614322,40.6684167 325.095194,42.1114653 328.729831,44.4201178 L324.921849,49.8444944 Z M304.491793,19.1431305 C299.818207,32.6472281 296.817297,38.4182966 293.816386,43.90008 L287.640093,41.2458613 C292.257398,34.2050902 295.143495,26.7602205 297.509555,20.2394872 C294.85421,20.5850534 293.238941,20.7583994 290.527316,20.9317453 L289.660586,14.9299241 C293.469694,14.8725173 295.89316,14.6417647 299.471515,14.1802593 C300.453058,10.7167177 301.145317,8.17731249 301.549415,4.65748977 L307.840521,6.04313152 C308.127555,6.10053829 309.225038,6.38869775 309.225038,7.02354905 C309.225038,7.60099358 308.243494,7.9465598 307.896803,8.29325165 C307.840521,8.35065841 306.743039,12.0449527 306.512286,12.7946175 C309.917296,11.9290135 311.647378,11.351569 313.148959,10.8326569 L313.148959,17.2959834 C311.185873,17.8160212 309.397258,18.2775265 304.491793,19.1431305 L304.491793,19.1431305 Z" id="Fill-74" fill="#512800" mask="url(#mask-4)"></path>
                    <path d="M381.826587,22.6631784 C379.172369,19.5463286 377.094469,17.584368 372.477164,14.3527047 L375.996986,9.2738943 C379.97944,11.9292387 382.922944,14.5260506 385.981261,18.0458734 L381.826587,22.6631784 Z M351.355976,30.2228616 C349.798114,30.2228616 348.008374,32.1274155 348.008374,34.5520072 C348.008374,36.8595341 349.681049,37.3210394 350.374433,37.3210394 C352.106767,37.3210394 353.548689,34.9549802 353.548689,32.6474533 C353.548689,31.0310588 352.394926,30.2228616 351.355976,30.2228616 L351.355976,30.2228616 Z M375.883299,50.3062249 C371.554153,51.9226194 364.282629,52.2681856 360.185362,52.2681856 C357.011105,52.2681856 349.336609,52.2681856 349.336609,46.843809 C349.336609,46.2089577 349.624768,44.3618105 349.739582,43.5547389 C348.124313,43.2080471 342.873282,42.1116904 342.873282,34.6668207 C342.873282,25.490743 350.14368,25.3173971 352.568272,25.2599904 C352.856431,23.7021283 352.856431,22.0857338 352.799025,21.1627231 C350.43184,21.4508825 347.546868,21.8549812 344.027046,21.9709203 L343.160316,15.7957532 C347.720214,15.85316 349.970334,15.6798141 353.087184,15.3916546 C353.144591,10.1980307 352.971245,7.54268632 352.799025,5.52331888 L359.262351,6.21557695 C360.530928,6.3315161 360.820213,6.44632964 360.820213,6.9663674 C360.820213,7.31193363 360.530928,7.37046602 360.185362,7.6012187 C359.83867,7.83197139 359.66645,8.06272408 359.550511,8.29347677 L359.203819,14.4686439 C363.879656,13.4296939 366.071244,12.6789035 368.726588,11.6410792 L368.726588,17.9310598 C365.03342,19.0274165 361.684692,19.6622678 358.973066,20.1811799 C358.915659,21.9709203 358.800846,25.490743 358.683781,28.3768401 C359.203819,29.0690982 359.723857,29.7613562 359.723857,31.146998 C359.723857,32.9930195 358.915659,35.2442652 358.050055,37.4943854 C357.011105,40.3804824 356.318847,42.3998499 356.318847,44.0736511 C356.318847,45.7474523 357.184451,46.3823036 361.109498,46.3823036 C372.36235,46.3823036 374.266904,44.4203429 374.266904,41.3608999 C374.266904,40.4378892 374.036151,37.6677313 371.727499,33.5130573 L377.325221,31.5510966 C380.730231,37.5529178 380.787637,42.515789 380.787637,42.8613552 C380.787637,48.4590778 376.97853,49.9021263 375.883299,50.3062249 L375.883299,50.3062249 Z" id="Fill-75" fill="#512800" mask="url(#mask-4)"></path>
                    <path d="M402.143855,37.2638578 C406.991913,40.0914225 411.377339,43.7271843 414.954569,49.7864123 L408.952748,54.5770632 C405.951837,49.5556596 402.316075,45.4009856 397.814709,41.7652237 L402.143855,37.2638578 Z" id="Fill-76" fill="#512800" mask="url(#mask-4)"></path>
                    <path d="M17.1972663,111.310595 L40.9152658,111.310595 L40.9152658,103.692379 L17.1972663,103.692379 L17.1972663,111.310595 Z M5.71366171,93.9962637 L52.0544298,93.9962637 L52.0544298,88.3411344 L5.71366171,88.3411344 L5.71366171,93.9962637 Z M4.55989826,134.971188 L4.55989826,128.853427 L20.1396445,128.853427 C18.7551283,125.621764 17.025046,123.082359 15.2353056,121.120398 L20.8904349,117.427229 C22.3908902,119.273251 25.1036413,122.967545 26.6040966,126.660714 L23.0842739,128.853427 L30.8747098,128.853427 C33.3567082,125.217665 35.1441974,121.928595 36.9339377,117.196477 L10.5617194,117.196477 L10.5617194,97.7468391 L47.0915586,97.7468391 L47.0915586,117.196477 L38.6651457,117.196477 L43.2824507,119.793289 C43.5717358,119.966635 44.3214007,120.369608 44.3214007,121.005585 C44.3214007,121.581903 43.5132034,121.812656 42.5901927,122.043409 C41.7819955,123.890556 40.0507875,127.063687 38.8384916,128.853427 L53.1507865,128.853427 L53.1507865,134.971188 L4.55989826,134.971188 Z" id="Fill-77" fill="#512800" mask="url(#mask-4)"></path>
                    <path d="M75.8912952,95.4971692 C76.0646411,97.8643541 76.0646411,100.171881 76.1220478,103.518358 C78.834799,101.788275 81.3167974,100.229288 84.8366201,95.4971692 L75.8912952,95.4971692 Z M85.9915092,95.4971692 L89.2805792,97.8643541 C89.7994914,98.2673271 90.5502818,98.8447717 90.3769359,99.3636838 L103.822501,99.3636838 L103.822501,96.1894273 L109.018376,96.4787124 C109.941387,96.5361192 110.806991,96.5935259 110.806991,97.1709705 C110.806991,97.3443164 110.691052,97.5165367 110.460299,97.6898826 C109.998794,98.0365744 109.998794,98.151388 109.998794,99.3636838 L117.039565,99.3636838 L117.039565,103.866175 L109.998794,103.866175 L109.998794,108.539761 C109.998794,110.560255 107.80608,112.52109 102.380578,112.638154 L100.015645,107.385998 C100.590838,107.442279 101.68832,107.559344 102.149826,107.559344 C103.247308,107.559344 103.822501,107.270059 103.822501,106.000356 L103.822501,103.866175 L94.358264,103.866175 C95.686499,104.441369 97.9377448,105.712197 99.3222609,106.980774 L97.1284219,111.02176 C97.6484597,111.02176 99.148915,111.136573 99.148915,111.887364 C99.148915,112.175523 98.975569,112.290337 98.7448164,112.579622 C98.3992501,112.982595 98.3407177,113.155941 98.2259042,113.387819 L113.807902,113.387819 L113.807902,130.699899 C113.807902,135.663896 108.843905,136.183934 105.324082,136.183934 L103.591748,131.335876 L101.745727,133.470057 C99.5530136,132.432233 97.7643988,131.393283 95.2249936,129.315383 C93.3778465,131.218811 91.4744182,132.951145 88.5309144,134.798292 L83.9136094,131.218811 C87.5493713,129.662075 91.4158858,127.353422 94.1275113,122.563897 L98.1684974,124.121759 C98.3407177,124.179166 98.975569,124.467325 98.975569,124.986237 C98.975569,125.334055 98.7448164,125.447743 98.0514327,125.852967 C100.418618,127.929741 103.535467,128.796471 105.438896,129.142037 L104.631824,130.065048 C105.266675,130.354333 105.842994,130.412865 106.017466,130.412865 C107.112697,130.412865 107.80608,129.892827 107.80608,127.814928 L107.80608,118.292158 L100.071926,118.292158 C100.821591,119.158888 102.72727,121.235662 107.05529,122.390551 L103.650281,126.198533 C100.360085,124.814017 97.4762394,122.621304 94.9942409,120.024492 C93.5511924,122.102391 91.5881061,124.352512 88.1842226,126.141126 L84.4910539,122.333144 C86.5678281,121.466415 88.7042603,120.255244 89.9728373,118.292158 L83.6254499,118.292158 L83.6254499,136.297622 L77.6810355,136.297622 L77.6810355,113.387819 L92.0496115,113.387819 C92.1666763,112.925188 92.397429,112.059584 92.5696493,110.673942 L96.7839813,111.02176 C95.686499,110.098749 93.7830707,108.597168 91.531825,107.616751 L93.5511924,103.866175 L89.6272711,103.866175 L89.6272711,99.7103757 C89.1657657,99.7103757 88.8179482,99.7677824 88.5871955,100.114474 C88.3564429,100.345227 87.4334321,101.49899 87.2026794,101.729743 C87.606778,101.845682 88.1256902,101.960496 88.1256902,102.422001 C88.1256902,102.942039 87.3186186,103.172792 87.0304591,103.287605 L87.0304591,112.118117 L81.3742042,112.118117 L81.3742042,106.980774 C80.0459692,108.078256 79.8152165,108.251602 79.2963043,108.597168 L76.1220478,105.712197 C76.1220478,110.904695 76.1805802,114.888274 75.6031357,120.196712 C74.6801249,129.142037 72.948917,133.124491 71.7366211,136.009462 L65.0999487,133.875281 C67.5808215,128.853877 70.3509794,123.140216 70.3509794,108.770514 C70.3509794,106.577801 70.2372915,98.3258595 69.4279686,90.1876061 L88.935013,90.1876061 L88.935013,86.4359051 L95.8013125,86.7251902 C96.4361638,86.7251902 97.5899273,86.8411293 97.5899273,87.5333874 C97.5899273,87.7641401 97.417707,87.9948928 97.014734,88.3415846 C96.4946962,88.80309 96.4361638,88.9179035 96.4361638,89.0923751 L96.4361638,90.1876061 L117.270318,90.1876061 L117.270318,95.4971692 L85.9915092,95.4971692 Z" id="Fill-78" fill="#512800" mask="url(#mask-4)"></path>
                    <path d="M158.99727,114.946132 C158.99727,117.196252 159.113209,124.351836 159.113209,126.314923 L152.418004,126.314923 C152.592476,123.025852 152.648757,120.197162 152.706164,117.657757 C150.514576,118.754114 144.512755,121.755024 144.512755,125.79601 C144.512755,129.546586 148.955588,130.296251 153.167669,130.296251 C158.131666,130.296251 163.037131,129.546586 167.885188,128.449104 L167.885188,134.970962 C162.401154,135.836566 155.99636,135.836566 154.149212,135.836566 C150.917549,135.836566 144.22347,135.836566 140.588834,131.970052 C138.393869,129.661399 138.393869,127.121994 138.393869,126.314923 C138.393869,119.158212 143.703432,116.445461 152.360598,112.002628 C152.013906,110.27142 151.321648,108.19352 147.975171,108.19352 C142.318916,108.19352 138.855374,113.444551 135.682244,118.6393 L130.027114,115.118352 C134.585887,110.212887 137.470858,106.11562 141.39478,99.2493205 C138.10571,99.4215408 136.317095,99.4800732 133.893629,99.4800732 L133.201371,93.4782521 C136.663787,93.7664115 139.203192,93.881225 144.22347,93.7090047 C145.666518,90.5910294 146.416183,88.571662 147.108441,86.0322567 L154.322558,87.3019593 C154.495904,87.3593661 155.476322,87.4764309 155.476322,87.8794039 C155.476322,88.2260957 155.245569,88.3994417 154.900003,88.5142552 C154.784064,88.571662 153.629175,89.0916997 153.572893,89.0916997 C153.515487,89.1491065 152.072438,92.3807698 151.783153,93.0167467 C157.092716,92.1500171 159.689528,91.4003522 163.094537,90.0721172 L162.690439,96.5365694 C157.496815,97.7477396 152.764696,98.2677774 148.898182,98.7292828 C147.05216,102.133166 146.590655,102.942489 145.607986,104.441819 C146.358776,104.096253 148.089984,103.230649 150.571983,103.230649 C154.553311,103.230649 157.092716,105.251142 158.419826,109.059124 C165.171312,105.884867 165.922102,105.539301 168.634853,104.327005 L170.597939,110.905145 C166.038041,112.348194 163.267883,113.329737 158.99727,114.946132" id="Fill-79" fill="#512800" mask="url(#mask-4)"></path>
                    <path d="M217.748368,111.714356 C214.055199,111.714356 210.47797,112.175861 209.093454,112.348081 L209.093454,106.288853 C212.094364,106.058101 214.97821,105.884755 218.037653,105.884755 C222.077514,105.884755 223.923535,106.058101 225.654743,106.231447 L225.654743,112.348081 C221.327849,111.771762 218.615098,111.714356 217.748368,111.714356 M216.479791,134.625284 C206.092543,134.625284 201.647458,131.739187 201.647458,125.853305 C201.647458,125.565145 201.647458,123.717998 202.340842,121.697505 L208.053378,122.908675 C207.822626,124.006157 207.822626,124.929168 207.822626,125.045107 C207.822626,125.795898 207.938565,126.257403 208.514884,126.776315 C210.130152,128.276771 214.516705,128.335303 215.84494,128.335303 C221.210784,128.335303 224.328759,127.468573 226.001435,127.064475 L226.57888,133.758554 C223.635376,134.278592 220.518526,134.625284 216.479791,134.625284 M201.878211,103.518696 C199.050647,113.098872 196.049736,122.389763 189.990508,134.220059 L182.949737,132.085878 C186.412153,126.488156 190.105322,120.255582 194.664094,104.615052 C190.047915,105.192497 188.085954,105.251029 186.066587,105.308436 L185.603956,99.3066147 C186.239933,99.4214283 187.451103,99.652181 190.278667,99.652181 C191.086865,99.652181 194.722627,99.5936486 195.992329,99.3066147 C196.857933,95.3815678 197.839476,90.9387343 197.95429,87.0710941 L205.052468,88.7448953 C205.168407,88.7448953 206.495516,89.0341804 206.495516,89.6679061 C206.495516,90.0720047 206.323296,90.2464762 205.803258,90.4772289 C205.052468,90.8216695 204.937654,90.8802019 204.821715,91.4576464 C204.302803,94.0544584 203.841297,96.1312326 203.436073,97.7476271 C206.842208,96.9979622 210.304624,95.4389745 212.613277,94.3426179 L212.613277,100.748538 C210.65019,101.383389 208.226724,102.307525 201.878211,103.518696" id="Fill-80" fill="#512800" mask="url(#mask-4)"></path>
                    <path d="M251.74353,101.383614 C247.645137,105.307535 245.972461,110.674505 245.972461,114.195454 C245.972461,118.870165 248.625554,121.292506 249.66563,121.292506 C252.66654,121.292506 257.629412,106.231672 258.783175,97.22894 C257.110499,97.8052589 254.513688,98.6708629 251.74353,101.383614 M282.79046,123.601158 C278.46244,130.008204 272.460619,132.490202 269.344894,133.758779 L265.074281,127.814365 C267.671093,127.063574 271.940581,125.852404 275.461529,121.640323 C278.982478,117.485649 279.617329,112.694998 279.617329,110.155593 C279.617329,106.981337 278.693192,103.114822 275.461529,100.055379 C271.826893,96.5929631 267.785907,96.3622104 265.6506,96.1899901 C263.804579,109.92484 260.398444,118.004561 258.495016,121.871076 C256.763808,125.448305 254.109589,130.296363 251.108678,130.296363 C249.030778,130.296363 239.566541,125.102739 239.566541,114.772898 C239.566541,101.961059 250.127135,90.3029825 265.015749,90.3029825 C277.019391,90.3029825 286.483628,98.4401102 286.483628,111.309357 C286.483628,116.388167 284.925766,120.428027 282.79046,123.601158" id="Fill-81" fill="#512800" mask="url(#mask-4)"></path>
                    <path d="M326.0764,131.219261 C321.228342,134.393518 317.016261,134.91243 314.59167,134.91243 C310.955908,134.91243 308.01353,133.586446 306.167508,131.970052 C303.453631,129.602867 302.530621,126.660489 302.530621,112.810825 C302.530621,109.289877 302.992126,92.1500171 302.81878,88.2823769 L310.494402,89.3798592 C311.880044,89.5532051 312.400082,89.9573037 312.400082,90.3028699 C312.400082,90.7655009 311.706698,91.2270063 310.783688,91.9766711 C310.322182,93.4782521 309.168419,108.713558 309.168419,115.060945 C309.168419,117.716289 309.168419,123.314012 310.26365,125.275973 C310.379589,125.448193 311.649292,127.699439 315.34246,127.699439 C318.574123,127.699439 326.307153,125.678946 331.962282,114.598314 L337.618537,119.274151 C335.252478,122.564347 331.790062,127.526093 326.0764,131.219261" id="Fill-82" fill="#512800" mask="url(#mask-4)"></path>
                    <path d="M389.271795,104.789074 C386.617576,101.671098 384.539676,99.7102631 379.922371,96.4785998 L383.443319,91.3997894 C387.424648,94.0540082 390.369277,96.6519458 393.426469,100.171768 L389.271795,104.789074 Z M358.801183,112.348757 C357.242196,112.348757 355.453581,114.253311 355.453581,116.676777 C355.453581,118.984304 357.127382,119.445809 357.820766,119.445809 C359.550848,119.445809 360.993897,117.080875 360.993897,114.772223 C360.993897,113.156954 359.840133,112.348757 358.801183,112.348757 L358.801183,112.348757 Z M383.32738,132.43212 C378.99936,134.047389 371.727837,134.394081 367.629444,134.394081 C364.456313,134.394081 356.78069,134.394081 356.78069,128.968578 C356.78069,128.334853 357.069975,126.487706 357.184789,125.679508 C355.56952,125.333942 350.317364,124.23646 350.317364,116.792716 C350.317364,107.616638 357.590013,107.442167 360.012354,107.385885 C360.301639,105.826898 360.301639,104.210503 360.243106,103.287493 C357.877047,103.576778 354.992076,103.979751 351.471127,104.096815 L350.605523,97.9205227 C355.164296,97.9779295 357.415542,97.8057092 360.532391,97.5164241 C360.590924,92.3239258 360.416452,89.6674558 360.243106,87.6480884 L366.706433,88.3414721 C367.977261,88.4562856 368.265421,88.5722248 368.265421,89.0922625 C368.265421,89.4367031 367.977261,89.4952355 367.629444,89.7259882 C367.285003,89.9567409 367.111657,90.1874936 366.995718,90.4182463 L366.649026,96.5934134 C371.323738,95.5555891 373.517577,94.8047986 376.17067,93.7658487 L376.17067,100.055829 C372.477501,101.153312 369.131025,101.788163 366.418273,102.307075 C366.360867,104.096815 366.244928,107.616638 366.130114,110.50161 C366.649026,111.193868 367.167938,111.887251 367.167938,113.271767 C367.167938,115.118915 366.360867,117.369035 365.495263,119.62028 C364.456313,122.505252 363.764055,124.524619 363.764055,126.199546 C363.764055,127.873347 364.628533,128.507073 368.55358,128.507073 C379.807558,128.507073 381.710986,126.545112 381.710986,123.486795 C381.710986,122.563784 381.480233,119.793626 379.171581,115.638952 L384.770429,113.675866 C388.174312,119.677687 388.232845,124.641684 388.232845,124.986125 C388.232845,130.584973 384.423737,132.028021 383.32738,132.43212 L383.32738,132.43212 Z" id="Fill-83" fill="#512800" mask="url(#mask-4)"></path>
                    <path d="M408.0303,127.75662 C408.0303,131.16163 410.800458,133.931787 414.204341,133.875506 C417.610476,133.875506 420.323227,131.16163 420.323227,127.75662 C420.323227,124.352737 417.553069,121.639986 414.204341,121.639986 C410.85899,121.639986 408.0303,124.352737 408.0303,127.75662 M423.093385,127.75662 C423.093385,132.662085 419.110931,136.644539 414.204341,136.701945 C409.300002,136.701945 405.260142,132.662085 405.260142,127.75662 C405.260142,122.794875 409.300002,118.869828 414.204341,118.869828 C419.052399,118.869828 423.093385,122.794875 423.093385,127.75662" id="Fill-84" fill="#512800" mask="url(#mask-4)"></path>
                </g>
            </g>
        </g>
    </g>
</svg>