<?xml version="1.0" encoding="UTF-8"?>
<svg width="185px" height="46px" viewBox="0 0 185 46" version="1.1" xmlns="http://www.w3.org/2000/svg" xmlns:xlink="http://www.w3.org/1999/xlink">
    <!-- Generator: Sketch 56.2 (81672) - https://sketch.com -->
    <title>txt-keyword1</title>
    <desc>Created with Sketch.</desc>
    <g id="Page-1" stroke="none" stroke-width="1" fill="none" fill-rule="evenodd">
        <g id="top-fix" transform="translate(-946.000000, -1534.000000)" fill="#FFFFFF" fill-rule="nonzero">
            <path d="M986.688,1548.752 C986.688,1550.048 985.776,1550.624 984.288,1550.624 L983.472,1550.624 C981.6,1550.624 978.672,1552.016 977.424,1552.688 C976.896,1552.976 976.56,1553.12 976.368,1553.12 C976.224,1553.12 976.128,1553.072 976.128,1552.928 C976.128,1552.736 976.368,1552.4 976.848,1551.92 C977.616,1551.2 979.872,1548.8 979.872,1547.936 C979.872,1547.168 978.864,1546.736 976.992,1546.736 C976.032,1546.736 975.024,1546.928 974.064,1547.312 C973.68,1547.504 973.344,1547.552 973.104,1547.552 C972.864,1547.552 972.72,1547.504 972.72,1547.36 C972.72,1546.64 975.648,1544.288 979.776,1544.288 C982.512,1544.288 986.688,1545.728 986.688,1548.752 Z M963.456,1549.664 L963.216,1549.76 C963.072,1552.016 963.024,1554.272 963.024,1556.432 L963.024,1558.496 C964.992,1557.536 969.648,1555.472 974.544,1555.472 C980.112,1555.472 984.672,1558.976 984.672,1563.056 C984.672,1567.664 979.68,1572.704 973.488,1572.704 C970.128,1572.704 965.904,1571.168 965.904,1565.504 C965.904,1563.968 966.24,1562.048 966.672,1562.048 C966.864,1562.048 967.008,1562.48 967.008,1563.488 C967.056,1566.848 968.832,1568.624 972.288,1568.624 C975.696,1568.624 980.208,1565.744 980.208,1562.048 C980.208,1559.36 978.144,1557.056 974.064,1557.056 C969.84,1557.056 966.192,1559.168 963.072,1561.232 C963.12,1562.864 963.168,1564.496 963.264,1566.176 C963.312,1567.088 963.504,1568.288 963.504,1569.296 C963.504,1572.176 961.824,1574.192 960.192,1574.192 C958.848,1574.192 958.416,1572.368 957.456,1571.6 C956.736,1571.024 954.96,1569.824 953.568,1569.104 C952.176,1571.12 951.84,1571.648 950.448,1571.648 C949.152,1571.648 946.08,1570.88 946.08,1569.008 C946.08,1568.528 946.32,1568.192 946.896,1567.808 C947.904,1567.184 948.912,1567.04 950.016,1566.464 C951.504,1565.648 952.848,1564.544 954.24,1563.536 C955.92,1562.384 957.888,1561.04 960.096,1559.744 C960.144,1557.632 960.192,1555.52 960.192,1553.312 L960.192,1550.864 C957.168,1551.872 956.256,1552.16 955.008,1552.16 C952.032,1552.16 949.584,1549.808 949.584,1548.224 C949.584,1547.936 949.824,1546.88 950.064,1546.88 C950.208,1546.88 950.352,1547.072 950.832,1547.408 C951.936,1548.224 953.376,1548.56 954.816,1548.56 C955.968,1548.56 957.264,1548.368 960.144,1547.264 C960.096,1546.208 960.096,1545.104 960.048,1544 C959.952,1541.84 960.048,1539.008 957.888,1538.864 C957.072,1538.816 956.688,1538.672 956.688,1538.432 C956.688,1538.24 957.552,1536.992 959.28,1536.992 C961.296,1536.992 964.32,1539.008 964.32,1540.448 C964.32,1541.168 963.936,1541.888 963.792,1542.992 C963.696,1543.856 963.6,1544.768 963.504,1545.632 C963.744,1545.488 963.936,1545.344 964.128,1545.248 C965.712,1544.24 966.144,1544.144 966.96,1544.144 C968.208,1544.144 969.36,1544.672 969.36,1545.536 C969.36,1547.312 968.304,1547.792 963.456,1549.664 Z M960,1562.48 C956.352,1565.456 955.632,1566.224 954.288,1568.048 C955.824,1568.432 956.976,1568.72 957.84,1568.72 C959.088,1568.72 959.616,1568.144 959.712,1566.608 C959.808,1565.216 959.904,1563.872 960,1562.48 Z M1035.71648,1563.152 C1035.38048,1563.44 1034.85248,1563.776 1034.22848,1563.776 C1033.70048,1563.776 1033.17248,1563.536 1032.69248,1562.816 C1031.87648,1561.52 1031.63648,1558.736 1031.10848,1557.104 C1029.95648,1553.648 1026.83648,1549.472 1022.94848,1547.696 C1022.32448,1547.408 1021.98848,1547.072 1021.98848,1546.832 C1021.98848,1546.64 1022.27648,1546.448 1022.80448,1546.448 C1022.99648,1546.448 1023.28448,1546.496 1023.57248,1546.544 C1030.91648,1547.696 1037.10848,1554.704 1037.10848,1559.312 C1037.10848,1561.952 1036.14848,1562.816 1035.71648,1563.152 Z M1015.46048,1568.672 C1015.46048,1570.592 1013.68448,1571.696 1011.86048,1571.696 C1010.61248,1571.696 1006.29248,1570.736 1003.70048,1567.088 C1001.10848,1563.392 1000.29248,1559.36 1000.29248,1553.168 L1000.29248,1550.864 C1000.29248,1547.84 999.956476,1545.44 998.996476,1545.056 C998.564476,1544.864 998.372476,1544.72 998.372476,1544.528 C998.372476,1544.192 999.236476,1543.808 999.860476,1543.808 C1001.78048,1543.808 1004.99648,1546.976 1004.99648,1549.376 C1004.99648,1550.192 1004.80448,1551.104 1004.56448,1552.352 C1004.32448,1553.792 1004.08448,1555.472 1004.08448,1557.152 C1004.08448,1565.312 1008.78848,1565.744 1009.22048,1565.744 C1009.94048,1565.744 1010.56448,1565.36 1011.04448,1564.4 C1012.19648,1562.048 1013.39648,1558.688 1014.54848,1556.48 C1014.98048,1555.616 1015.31648,1555.184 1015.50848,1555.184 C1015.60448,1555.184 1015.65248,1555.328 1015.65248,1555.616 C1015.65248,1555.904 1015.60448,1556.288 1015.50848,1556.816 C1015.17248,1558.784 1014.69248,1560.896 1014.69248,1563.248 C1014.69248,1565.216 1015.02848,1566.608 1015.31648,1567.664 C1015.41248,1568 1015.46048,1568.336 1015.46048,1568.672 Z M1082.66657,1561.28 C1082.66657,1562.48 1075.17857,1575.488 1063.46657,1575.488 C1053.57857,1575.488 1052.90657,1566.8 1052.90657,1561.76 C1052.90657,1556.672 1053.62657,1550.624 1053.72257,1545.968 L1053.72257,1545.008 C1053.72257,1542.56 1053.48257,1539.584 1051.22657,1539.44 C1050.60257,1539.392 1050.31457,1539.2 1050.31457,1538.96 C1050.31457,1538.24 1051.80257,1537.568 1052.66657,1537.568 C1054.58657,1537.568 1059.05057,1540.304 1059.05057,1543.616 C1059.05057,1544.672 1058.71457,1545.92 1058.33057,1547.648 C1057.22657,1552.208 1056.55457,1558.544 1056.55457,1562.768 C1056.55457,1567.856 1057.56257,1570.88 1063.17857,1570.88 C1071.72257,1570.88 1079.54657,1563.68 1080.79457,1562.48 C1081.75457,1561.616 1082.33057,1561.136 1082.57057,1561.136 C1082.61857,1561.136 1082.66657,1561.184 1082.66657,1561.28 Z M1129.71267,1563.152 C1129.37667,1563.44 1128.84867,1563.776 1128.22467,1563.776 C1127.69667,1563.776 1127.16867,1563.536 1126.68867,1562.816 C1125.87267,1561.52 1125.63267,1558.736 1125.10467,1557.104 C1123.95267,1553.648 1120.83267,1549.472 1116.94467,1547.696 C1116.32067,1547.408 1115.98467,1547.072 1115.98467,1546.832 C1115.98467,1546.64 1116.27267,1546.448 1116.80067,1546.448 C1116.99267,1546.448 1117.28067,1546.496 1117.56867,1546.544 C1124.91267,1547.696 1131.10467,1554.704 1131.10467,1559.312 C1131.10467,1561.952 1130.14467,1562.816 1129.71267,1563.152 Z M1109.45667,1568.672 C1109.45667,1570.592 1107.68067,1571.696 1105.85667,1571.696 C1104.60867,1571.696 1100.28867,1570.736 1097.69667,1567.088 C1095.10467,1563.392 1094.28867,1559.36 1094.28867,1553.168 C1094.28867,1552.64 1094.28867,1552.112 1094.28867,1551.536 C1094.28867,1551.296 1094.28867,1551.056 1094.28867,1550.864 C1094.28867,1547.84 1093.95267,1545.44 1092.99267,1545.056 C1092.56067,1544.864 1092.36867,1544.72 1092.36867,1544.528 C1092.36867,1544.192 1093.23267,1543.808 1093.85667,1543.808 C1095.77667,1543.808 1098.99267,1546.976 1098.99267,1549.376 C1098.99267,1550.192 1098.80067,1551.104 1098.56067,1552.352 C1098.32067,1553.792 1098.08067,1555.472 1098.08067,1557.152 C1098.08067,1565.312 1102.78467,1565.744 1103.21667,1565.744 C1103.93667,1565.744 1104.56067,1565.36 1105.04067,1564.4 C1106.19267,1562.048 1107.39267,1558.688 1108.54467,1556.48 C1108.97667,1555.616 1109.31267,1555.184 1109.50467,1555.184 C1109.60067,1555.184 1109.64867,1555.328 1109.64867,1555.616 C1109.64867,1555.904 1109.60067,1556.288 1109.50467,1556.816 C1109.16867,1558.784 1108.68867,1560.896 1108.68867,1563.248 C1108.68867,1565.216 1109.02467,1566.608 1109.31267,1567.664 C1109.40867,1568 1109.45667,1568.336 1109.45667,1568.672 Z" id="おいしい"></path>
        </g>
    </g>
</svg>