<?xml version="1.0" encoding="UTF-8"?>
<svg width="291px" height="32px" viewBox="0 0 291 32" version="1.1" xmlns="http://www.w3.org/2000/svg" xmlns:xlink="http://www.w3.org/1999/xlink">
    <!-- Generator: Sketch 56.2 (81672) - https://sketch.com -->
    <title>txt-reason2-en</title>
    <desc>Created with Sketch.</desc>
    <g id="Page-1" stroke="none" stroke-width="1" fill="none" fill-rule="evenodd">
        <g id="top-fix" transform="translate(-796.000000, -2867.000000)" fill="#4E2700" fill-rule="nonzero">
            <path d="M797.28,2886.16 C797.440001,2886.52 797.654999,2886.885 797.925,2887.255 C798.195001,2887.625 798.524998,2887.96 798.915,2888.26 C799.305002,2888.56 799.759997,2888.805 800.28,2888.995 C800.800003,2889.185 801.379997,2889.28 802.02,2889.28 C802.680003,2889.28 803.274997,2889.165 803.805,2888.935 C804.335003,2888.705 804.784998,2888.395 805.155,2888.005 C805.525002,2887.615 805.809999,2887.155 806.01,2886.625 C806.210001,2886.095 806.31,2885.53 806.31,2884.93 C806.31,2884.01 806.075002,2883.28 805.605,2882.74 C805.134998,2882.2 804.550004,2881.75 803.85,2881.39 C803.149997,2881.03 802.395004,2880.7 801.585,2880.4 C800.774996,2880.1 800.020004,2879.725 799.32,2879.275 C798.619996,2878.825 798.035002,2878.25 797.565,2877.55 C797.094998,2876.85 796.86,2875.91001 796.86,2874.73 C796.86,2873.89 797.009999,2873.125 797.31,2872.435 C797.610001,2871.745 798.044997,2871.15 798.615,2870.65 C799.185003,2870.15 799.869996,2869.76 800.67,2869.48 C801.470004,2869.2 802.369995,2869.06 803.37,2869.06 C804.330005,2869.06 805.159997,2869.175 805.86,2869.405 C806.560003,2869.635 807.209997,2869.99 807.81,2870.47 C807.629999,2870.81 807.480001,2871.17 807.36,2871.55 C807.239999,2871.93 807.120001,2872.41 807,2872.99 L806.64,2872.99 C806.54,2872.71 806.405001,2872.405 806.235,2872.075 C806.064999,2871.745 805.835001,2871.44 805.545,2871.16 C805.254999,2870.88 804.910002,2870.645 804.51,2870.455 C804.109998,2870.265 803.630003,2870.17 803.07,2870.17 C802.509997,2870.17 801.995002,2870.26 801.525,2870.44 C801.054998,2870.62 800.645002,2870.875 800.295,2871.205 C799.944998,2871.535 799.675001,2871.93 799.485,2872.39 C799.294999,2872.85 799.2,2873.35 799.2,2873.89 C799.2,2874.83 799.434998,2875.57 799.905,2876.11 C800.375002,2876.65 800.959996,2877.105 801.66,2877.475 C802.360003,2877.845 803.114996,2878.175 803.925,2878.465 C804.735004,2878.755 805.489996,2879.11 806.19,2879.53 C806.890004,2879.95 807.474998,2880.49 807.945,2881.15 C808.415002,2881.81 808.65,2882.68999 808.65,2883.79 C808.65,2884.71 808.485002,2885.58 808.155,2886.4 C807.824998,2887.22 807.345003,2887.935 806.715,2888.545 C806.084997,2889.155 805.315005,2889.625 804.405,2889.955 C803.494995,2890.285 802.460006,2890.45 801.3,2890.45 C800.059994,2890.45 799.055004,2890.285 798.285,2889.955 C797.514996,2889.625 796.870003,2889.25 796.35,2888.83 C796.530001,2888.37 796.655,2887.955 796.725,2887.585 C796.795,2887.215 796.86,2886.74 796.92,2886.16 L797.28,2886.16 Z M813.915,2870.59 C813.915,2870.17 814.064999,2869.81 814.365,2869.51 C814.665002,2869.21 815.024998,2869.06 815.445,2869.06 C815.865002,2869.06 816.224998,2869.21 816.525,2869.51 C816.825001,2869.81 816.975,2870.17 816.975,2870.59 C816.975,2871.01 816.825001,2871.37 816.525,2871.67 C816.224998,2871.97 815.865002,2872.12 815.445,2872.12 C815.024998,2872.12 814.665002,2871.97 814.365,2871.67 C814.064999,2871.37 813.915,2871.01 813.915,2870.59 Z M814.335,2881.42 C814.335,2880.52 814.32,2879.575 814.29,2878.585 C814.26,2877.595 814.195,2876.67 814.095,2875.81 C814.655003,2875.91 815.104998,2875.96 815.445,2875.96 C815.785002,2875.96 816.234997,2875.91 816.795,2875.81 C816.694999,2876.67 816.63,2877.595 816.6,2878.585 C816.57,2879.575 816.555,2880.52 816.555,2881.42 L816.555,2884.54 C816.555,2885.44 816.57,2886.385 816.6,2887.375 C816.63,2888.365 816.694999,2889.26 816.795,2890.06 C816.334998,2890.02 815.885002,2890 815.445,2890 C815.004998,2890 814.555002,2890.02 814.095,2890.06 C814.195,2889.26 814.26,2888.365 814.29,2887.375 C814.32,2886.385 814.335,2885.44 814.335,2884.54 L814.335,2881.42 Z M823.23,2881.42 C823.23,2880.52 823.215,2879.575 823.185,2878.585 C823.155,2877.595 823.09,2876.67 822.99,2875.81 C823.550003,2875.91 823.999998,2875.96 824.34,2875.96 C824.500001,2875.96 824.674999,2875.945 824.865,2875.915 C825.055001,2875.885 825.279999,2875.85 825.54,2875.81 C825.48,2876.61 825.45,2877.41 825.45,2878.21 L825.51,2878.21 C826.570005,2876.40999 828.05999,2875.51 829.98,2875.51 C830.480002,2875.51 830.969998,2875.585 831.45,2875.735 C831.930002,2875.885 832.364998,2876.09 832.755,2876.35 C833.145002,2876.61 833.479999,2876.925 833.76,2877.295 C834.040001,2877.665 834.229999,2878.06 834.33,2878.48 L834.39,2878.48 C834.870002,2877.52 835.524996,2876.785 836.355,2876.275 C837.185004,2875.765 838.139995,2875.51 839.22,2875.51 C839.880003,2875.51 840.49,2875.6 841.05,2875.78 C841.610003,2875.96 842.094998,2876.24 842.505,2876.62 C842.915002,2877 843.234999,2877.49 843.465,2878.09 C843.695001,2878.69 843.81,2879.41 843.81,2880.25 C843.81,2880.59 843.8,2880.96 843.78,2881.36 C843.76,2881.76 843.74,2882.225 843.72,2882.755 C843.7,2883.285 843.68,2883.885 843.66,2884.555 C843.64,2885.225 843.63,2886 843.63,2886.88 C843.63,2887.42 843.635,2887.94 843.645,2888.44 C843.655,2888.94 843.68,2889.48 843.72,2890.06 C843.499999,2890.02 843.280001,2890 843.06,2890 L841.77,2890 C841.549999,2890 841.330001,2890.02 841.11,2890.06 C841.17,2889.56 841.235,2888.55001 841.305,2887.03 C841.375,2885.51 841.41,2883.39001 841.41,2880.67 C841.41,2880.17 841.355001,2879.7 841.245,2879.26 C841.134999,2878.82 840.960001,2878.44 840.72,2878.12 C840.479999,2877.8 840.160002,2877.545 839.76,2877.355 C839.359998,2877.165 838.860003,2877.07 838.26,2877.07 C837.539996,2877.07 836.930003,2877.21 836.43,2877.49 C835.929998,2877.77 835.540001,2878.1 835.26,2878.48 C835.099999,2878.7 834.975,2878.92 834.885,2879.14 C834.795,2879.36 834.725,2879.695 834.675,2880.145 C834.625,2880.595 834.59,2881.225 834.57,2882.035 C834.55,2882.845 834.54,2883.95999 834.54,2885.38 C834.54,2886.24 834.555,2887.025 834.585,2887.735 C834.615,2888.445 834.65,2889.22 834.69,2890.06 C834.229998,2890.02 833.790002,2890 833.37,2890 C832.949998,2890 832.510002,2890.02 832.05,2890.06 C832.150001,2888.95999 832.22,2887.84001 832.26,2886.7 C832.3,2885.55999 832.32,2884.44001 832.32,2883.34 C832.32,2882.4 832.315,2881.665 832.305,2881.135 C832.295,2880.605 832.27,2880.185 832.23,2879.875 C832.19,2879.565 832.135,2879.31 832.065,2879.11 C831.995,2878.91 831.900001,2878.69 831.78,2878.45 C831.559999,2878.07 831.215002,2877.745 830.745,2877.475 C830.274998,2877.205 829.790003,2877.07 829.29,2877.07 C827.969993,2877.07 827.000003,2877.5 826.38,2878.36 C825.759997,2879.22 825.45,2880.42999 825.45,2881.99 L825.45,2884.54 C825.45,2885.44 825.465,2886.385 825.495,2887.375 C825.525,2888.365 825.589999,2889.26 825.69,2890.06 C825.229998,2890.02 824.780002,2890 824.34,2890 C823.899998,2890 823.450002,2890.02 822.99,2890.06 C823.09,2889.26 823.155,2888.365 823.185,2887.375 C823.215,2886.385 823.23,2885.44 823.23,2884.54 L823.23,2881.42 Z M849.105,2884.54 C849.105,2883.86 849.1,2883.12 849.09,2882.32 C849.08,2881.52 849.065,2880.725 849.045,2879.935 C849.025,2879.145 849,2878.39 848.97,2877.67 C848.94,2876.95 848.905,2876.33 848.865,2875.81 C849.425003,2875.91 849.874998,2875.96 850.215,2875.96 C850.555002,2875.96 851.004997,2875.91 851.565,2875.81 C851.485,2876.33 851.425,2876.83 851.385,2877.31 C851.345,2877.79 851.325,2878.27 851.325,2878.75 L851.385,2878.75 C851.525001,2878.43 851.724999,2878.085 851.985,2877.715 C852.245001,2877.345 852.579998,2876.995 852.99,2876.665 C853.400002,2876.335 853.894997,2876.06 854.475,2875.84 C855.055003,2875.62 855.714996,2875.51 856.455,2875.51 C857.215004,2875.51 857.964996,2875.655 858.705,2875.945 C859.445004,2876.235 860.099997,2876.68 860.67,2877.28 C861.240003,2877.88 861.699998,2878.645 862.05,2879.575 C862.400002,2880.505 862.575,2881.60999 862.575,2882.89 C862.575,2884.17001 862.385002,2885.28 862.005,2886.22 C861.624998,2887.16 861.130003,2887.94 860.52,2888.56 C859.909997,2889.18 859.215004,2889.635 858.435,2889.925 C857.654996,2890.215 856.875004,2890.36 856.095,2890.36 C853.894989,2890.36 852.325005,2889.41001 851.385,2887.51 L851.325,2887.51 L851.325,2889.4 C851.325,2890.04 851.33,2890.755 851.34,2891.545 C851.35,2892.335 851.365,2893.12 851.385,2893.9 C851.405,2894.68 851.43,2895.425 851.46,2896.135 C851.49,2896.845 851.525,2897.45 851.565,2897.95 C851.004997,2897.85 850.555002,2897.8 850.215,2897.8 C849.874998,2897.8 849.425003,2897.85 848.865,2897.95 C848.905,2897.45 848.94,2896.845 848.97,2896.135 C849,2895.425 849.025,2894.68 849.045,2893.9 C849.065,2893.12 849.08,2892.335 849.09,2891.545 C849.1,2890.755 849.105,2890.04 849.105,2889.4 L849.105,2884.54 Z M859.935,2882.86 C859.935,2881.65999 859.810001,2880.67 859.56,2879.89 C859.309999,2879.11 858.990002,2878.485 858.6,2878.015 C858.209998,2877.545 857.765003,2877.22 857.265,2877.04 C856.764997,2876.86 856.275002,2876.77 855.795,2876.77 C854.994996,2876.77 854.310003,2876.94 853.74,2877.28 C853.169997,2877.62 852.705002,2878.075 852.345,2878.645 C851.984998,2879.215 851.725001,2879.885 851.565,2880.655 C851.404999,2881.425 851.325,2882.24 851.325,2883.1 C851.325,2887.26002 852.784985,2889.34 855.705,2889.34 C856.425004,2889.34 857.049997,2889.175 857.58,2888.845 C858.110003,2888.515 858.549998,2888.055 858.9,2887.465 C859.250002,2886.875 859.509999,2886.185 859.68,2885.395 C859.850001,2884.605 859.935,2883.76 859.935,2882.86 Z M868.17,2876.08 C868.17,2875.4 868.165,2874.66 868.155,2873.86 C868.145,2873.06 868.13,2872.27 868.11,2871.49 C868.09,2870.71 868.065,2869.965 868.035,2869.255 C868.005,2868.545 867.97,2867.94 867.93,2867.44 C868.490003,2867.54 868.939998,2867.59 869.28,2867.59 C869.620002,2867.59 870.069997,2867.54 870.63,2867.44 C870.59,2867.94 870.555,2868.545 870.525,2869.255 C870.495,2869.965 870.47,2870.71 870.45,2871.49 C870.43,2872.27 870.415,2873.06 870.405,2873.86 C870.395,2874.66 870.39,2875.4 870.39,2876.08 L870.39,2881.51 C870.39,2882.19 870.395,2882.93 870.405,2883.73 C870.415,2884.53 870.43,2885.32 870.45,2886.1 C870.47,2886.88 870.495,2887.62 870.525,2888.32 C870.555,2889.02 870.59,2889.6 870.63,2890.06 C870.169998,2890.02 869.720002,2890 869.28,2890 C868.839998,2890 868.390002,2890.02 867.93,2890.06 C867.97,2889.6 868.005,2889.02 868.035,2888.32 C868.065,2887.62 868.09,2886.88 868.11,2886.1 C868.13,2885.32 868.145,2884.53 868.155,2883.73 C868.165,2882.93 868.17,2882.19 868.17,2881.51 L868.17,2876.08 Z M882.705,2876.47 C881.964996,2876.47 881.340003,2876.64 880.83,2876.98 C880.319997,2877.32 879.900002,2877.745 879.57,2878.255 C879.239998,2878.765 878.990001,2879.325 878.82,2879.935 C878.649999,2880.545 878.545,2881.12 878.505,2881.66 C879.125003,2881.68 879.769997,2881.7 880.44,2881.72 C881.110003,2881.74 881.764997,2881.75 882.405,2881.75 C883.065003,2881.75 883.734997,2881.74 884.415,2881.72 C885.095003,2881.7 885.754997,2881.68 886.395,2881.66 C886.395,2881.12 886.35,2880.55 886.26,2879.95 C886.17,2879.35 885.990001,2878.79 885.72,2878.27 C885.449999,2877.75 885.075002,2877.32 884.595,2876.98 C884.114998,2876.64 883.485004,2876.47 882.705,2876.47 Z M875.775,2883.4 C875.775,2880.93999 876.359994,2879.01 877.53,2877.61 C878.700006,2876.20999 880.404989,2875.51 882.645,2875.51 C883.705005,2875.51 884.619996,2875.675 885.39,2876.005 C886.160004,2876.335 886.804997,2876.775 887.325,2877.325 C887.845003,2877.875 888.229999,2878.52 888.48,2879.26 C888.730001,2880 888.855,2880.79 888.855,2881.63 C888.855,2881.83 888.85,2882.025 888.84,2882.215 C888.83,2882.405 888.815,2882.6 888.795,2882.8 C887.714995,2882.78 886.645005,2882.76 885.585,2882.74 C884.524995,2882.72 883.455005,2882.71 882.375,2882.71 C881.714997,2882.71 881.060003,2882.72 880.41,2882.74 C879.759997,2882.76 879.105003,2882.78 878.445,2882.8 C878.425,2882.9 878.415,2883.05 878.415,2883.25 L878.415,2883.64 C878.415,2884.42 878.529999,2885.15 878.76,2885.83 C878.990001,2886.51 879.324998,2887.095 879.765,2887.585 C880.205002,2888.075 880.744997,2888.465 881.385,2888.755 C882.025003,2889.045 882.764996,2889.19 883.605,2889.19 C884.005002,2889.19 884.414998,2889.135 884.835,2889.025 C885.255002,2888.915 885.664998,2888.765 886.065,2888.575 C886.465002,2888.385 886.839998,2888.16 887.19,2887.9 C887.540002,2887.64 887.844999,2887.36 888.105,2887.06 L888.255,2887.15 L888.075,2888.62 C887.474997,2889.1 886.730004,2889.51 885.84,2889.85 C884.949996,2890.19 884.025005,2890.36 883.065,2890.36 C881.984995,2890.36 881.000004,2890.195 880.11,2889.865 C879.219996,2889.535 878.450003,2889.055 877.8,2888.425 C877.149997,2887.795 876.650002,2887.05 876.3,2886.19 C875.949998,2885.33 875.775,2884.4 875.775,2883.4 Z M909.765,2878.27 C909.665,2878.15 909.470001,2878.04 909.18,2877.94 C908.889999,2877.84 908.595001,2877.79 908.295,2877.79 C907.814998,2877.79 907.385002,2877.9 907.005,2878.12 C906.624998,2878.34 906.305001,2878.635 906.045,2879.005 C905.784999,2879.375 905.585001,2879.815 905.445,2880.325 C905.304999,2880.835 905.235,2881.38 905.235,2881.96 L905.235,2885.26 C905.235,2886.60001 905.24,2887.625 905.25,2888.335 C905.26,2889.045 905.295,2889.62 905.355,2890.06 C904.954998,2890.02 904.555002,2890 904.155,2890 C903.714998,2890 903.295002,2890.02 902.895,2890.06 C902.955,2889.38 902.99,2888.45501 903,2887.285 C903.01,2886.11499 903.015,2884.68001 903.015,2882.98 L903.015,2882.02 C903.015,2881.24 903.01,2880.34001 903,2879.32 C902.99,2878.29999 902.955,2877.13001 902.895,2875.81 C903.115001,2875.85 903.324999,2875.885 903.525,2875.915 C903.725001,2875.945 903.934999,2875.96 904.155,2875.96 C904.335001,2875.96 904.524999,2875.945 904.725,2875.915 C904.925001,2875.885 905.134999,2875.85 905.355,2875.81 C905.275,2876.53 905.23,2877.1 905.22,2877.52 C905.21,2877.94 905.205,2878.34 905.205,2878.72 L905.265,2878.75 C906.445006,2876.58999 907.764993,2875.51 909.225,2875.51 C909.405001,2875.51 909.559999,2875.52 909.69,2875.54 C909.820001,2875.56 909.984999,2875.61 910.185,2875.69 C910.084999,2875.93 910.025,2876.295 910.005,2876.785 C909.985,2877.275 909.975,2877.72 909.975,2878.12 L909.765,2878.27 Z M921.51,2882.59 C921.169998,2882.71 920.775002,2882.81 920.325,2882.89 C919.874998,2882.97 919.420002,2883.055 918.96,2883.145 C918.499998,2883.235 918.045002,2883.35 917.595,2883.49 C917.144998,2883.63 916.745002,2883.82 916.395,2884.06 C916.044998,2884.3 915.765001,2884.6 915.555,2884.96 C915.344999,2885.32 915.24,2885.78 915.24,2886.34 C915.24,2887.28 915.509997,2887.99 916.05,2888.47 C916.590003,2888.95 917.189997,2889.19 917.85,2889.19 C918.610004,2889.19 919.304997,2888.98 919.935,2888.56 C920.565003,2888.14 921.049998,2887.65 921.39,2887.09 L921.51,2882.59 Z M914.1,2877.25 C915.000004,2876.57 915.829996,2876.11 916.59,2875.87 C917.350004,2875.63 918.129996,2875.51 918.93,2875.51 C919.650004,2875.51 920.309997,2875.615 920.91,2875.825 C921.510003,2876.035 922.019998,2876.335 922.44,2876.725 C922.860002,2877.115 923.189999,2877.585 923.43,2878.135 C923.670001,2878.685 923.79,2879.29 923.79,2879.95 C923.79,2881.09001 923.77,2882.22499 923.73,2883.355 C923.69,2884.48501 923.67,2885.67999 923.67,2886.94 C923.67,2887.18 923.675,2887.435 923.685,2887.705 C923.695,2887.975 923.74,2888.215 923.82,2888.425 C923.9,2888.635 924.014999,2888.81 924.165,2888.95 C924.315001,2889.09 924.539999,2889.16 924.84,2889.16 C924.94,2889.16 925.044999,2889.155 925.155,2889.145 C925.265001,2889.135 925.369999,2889.1 925.47,2889.04 L925.47,2889.7 C925.249999,2889.8 924.975002,2889.88 924.645,2889.94 C924.314998,2890 923.950002,2890.03 923.55,2890.03 C922.909997,2890.03 922.420002,2889.865 922.08,2889.535 C921.739998,2889.205 921.54,2888.78 921.48,2888.26 C920.759996,2888.98 920.050004,2889.51 919.35,2889.85 C918.649997,2890.19 917.790005,2890.36 916.77,2890.36 C916.269998,2890.36 915.78,2890.29 915.3,2890.15 C914.819998,2890.01 914.395002,2889.78 914.025,2889.46 C913.654998,2889.14 913.355001,2888.755 913.125,2888.305 C912.894999,2887.855 912.78,2887.34 912.78,2886.76 C912.78,2885.55999 913.154996,2884.63 913.905,2883.97 C914.655004,2883.31 915.689993,2882.87 917.01,2882.65 C918.090005,2882.47 918.934997,2882.315 919.545,2882.185 C920.155003,2882.055 920.604999,2881.92 920.895,2881.78 C921.185001,2881.64 921.36,2881.475 921.42,2881.285 C921.48,2881.095 921.51,2880.85 921.51,2880.55 C921.51,2880.05 921.450001,2879.57 921.33,2879.11 C921.209999,2878.65 921.020001,2878.25 920.76,2877.91 C920.499999,2877.57 920.160002,2877.295 919.74,2877.085 C919.319998,2876.875 918.810003,2876.77 918.21,2876.77 C917.409996,2876.77 916.665003,2876.95 915.975,2877.31 C915.284997,2877.67 914.770002,2878.17 914.43,2878.81 L914.1,2878.81 L914.1,2877.25 Z M933.045,2890.06 C932.804999,2889.32 932.485002,2888.38001 932.085,2887.24 C931.684998,2886.09999 931.250002,2884.88501 930.78,2883.595 C930.309998,2882.30499 929.820003,2880.98501 929.31,2879.635 C928.799997,2878.28499 928.295,2877.01001 927.795,2875.81 C928.035001,2875.85 928.269999,2875.885 928.5,2875.915 C928.730001,2875.945 928.964999,2875.96 929.205,2875.96 C929.425001,2875.96 929.644999,2875.945 929.865,2875.915 C930.085001,2875.885 930.324999,2875.85 930.585,2875.81 C931.105003,2877.69001 931.679997,2879.57499 932.31,2881.465 C932.940003,2883.35501 933.644996,2885.29999 934.425,2887.3 C934.665001,2886.74 934.954998,2886 935.295,2885.08 C935.635002,2884.16 935.984998,2883.17001 936.345,2882.11 C936.705002,2881.04999 937.064998,2879.97001 937.425,2878.87 C937.785002,2877.76999 938.104999,2876.75 938.385,2875.81 C938.745002,2875.91 939.044999,2875.96 939.285,2875.96 C939.445001,2875.96 939.584999,2875.945 939.705,2875.915 L940.125,2875.81 C940.625002,2877.73001 941.204997,2879.62499 941.865,2881.495 C942.525003,2883.36501 943.214996,2885.29999 943.935,2887.3 C944.195001,2886.66 944.499998,2885.875 944.85,2884.945 C945.200002,2884.015 945.564998,2883.03501 945.945,2882.005 C946.325002,2880.97499 946.709998,2879.92001 947.1,2878.84 C947.490002,2877.75999 947.854998,2876.75 948.195,2875.81 C948.595002,2875.91 948.914999,2875.96 949.155,2875.96 C949.415001,2875.96 949.714998,2875.91 950.055,2875.81 C948.914994,2878.23001 947.850005,2880.61999 946.86,2882.98 C945.869995,2885.34001 944.945004,2887.69999 944.085,2890.06 C943.864999,2890.02 943.605002,2890 943.305,2890 L942.885,2890 C942.744999,2890 942.625,2890.02 942.525,2890.06 C942.004997,2888.27999 941.435003,2886.49001 940.815,2884.69 C940.194997,2882.88999 939.485004,2881.00001 938.685,2879.02 C938.444999,2879.62 938.155002,2880.365 937.815,2881.255 C937.474998,2882.145 937.125002,2883.09999 936.765,2884.12 C936.404998,2885.14001 936.045002,2886.17499 935.685,2887.225 C935.324998,2888.27501 935.005001,2889.22 934.725,2890.06 C934.484999,2890.02 934.205002,2890 933.885,2890 C933.564998,2890 933.285001,2890.02 933.045,2890.06 Z M963.825,2881.42 C963.825,2880.52 963.81,2879.575 963.78,2878.585 C963.75,2877.595 963.685001,2876.67 963.585,2875.81 C964.145003,2875.91 964.594998,2875.96 964.935,2875.96 C965.095001,2875.96 965.269999,2875.945 965.46,2875.915 C965.650001,2875.885 965.874999,2875.85 966.135,2875.81 C966.075,2876.61 966.045,2877.41 966.045,2878.21 L966.105,2878.21 C967.165005,2876.40999 968.65499,2875.51 970.575,2875.51 C971.075002,2875.51 971.564998,2875.585 972.045,2875.735 C972.525002,2875.885 972.959998,2876.09 973.35,2876.35 C973.740002,2876.61 974.074999,2876.925 974.355,2877.295 C974.635001,2877.665 974.824999,2878.06 974.925,2878.48 L974.985,2878.48 C975.465002,2877.52 976.119996,2876.785 976.95,2876.275 C977.780004,2875.765 978.734995,2875.51 979.815,2875.51 C980.475003,2875.51 981.085,2875.6 981.645,2875.78 C982.205003,2875.96 982.689998,2876.24 983.1,2876.62 C983.510002,2877 983.829999,2877.49 984.06,2878.09 C984.290001,2878.69 984.405,2879.41 984.405,2880.25 C984.405,2880.59 984.395,2880.96 984.375,2881.36 C984.355,2881.76 984.335,2882.225 984.315,2882.755 C984.295,2883.285 984.275,2883.885 984.255,2884.555 C984.235,2885.225 984.225,2886 984.225,2886.88 C984.225,2887.42 984.23,2887.94 984.24,2888.44 C984.25,2888.94 984.275,2889.48 984.315,2890.06 C984.094999,2890.02 983.875001,2890 983.655,2890 L982.365,2890 C982.144999,2890 981.925001,2890.02 981.705,2890.06 C981.765,2889.56 981.83,2888.55001 981.9,2887.03 C981.97,2885.51 982.005,2883.39001 982.005,2880.67 C982.005,2880.17 981.950001,2879.7 981.84,2879.26 C981.729999,2878.82 981.555001,2878.44 981.315,2878.12 C981.074999,2877.8 980.755002,2877.545 980.355,2877.355 C979.954998,2877.165 979.455003,2877.07 978.855,2877.07 C978.134996,2877.07 977.525003,2877.21 977.025,2877.49 C976.524998,2877.77 976.135001,2878.1 975.855,2878.48 C975.694999,2878.7 975.57,2878.92 975.48,2879.14 C975.39,2879.36 975.32,2879.695 975.27,2880.145 C975.22,2880.595 975.185,2881.225 975.165,2882.035 C975.145,2882.845 975.135,2883.95999 975.135,2885.38 C975.135,2886.24 975.15,2887.025 975.18,2887.735 C975.21,2888.445 975.245,2889.22 975.285,2890.06 C974.824998,2890.02 974.385002,2890 973.965,2890 C973.544998,2890 973.105002,2890.02 972.645,2890.06 C972.745001,2888.95999 972.815,2887.84001 972.855,2886.7 C972.895,2885.55999 972.915,2884.44001 972.915,2883.34 C972.915,2882.4 972.91,2881.665 972.9,2881.135 C972.89,2880.605 972.865,2880.185 972.825,2879.875 C972.785,2879.565 972.73,2879.31 972.66,2879.11 C972.59,2878.91 972.495001,2878.69 972.375,2878.45 C972.154999,2878.07 971.810002,2877.745 971.34,2877.475 C970.869998,2877.205 970.385003,2877.07 969.885,2877.07 C968.564993,2877.07 967.595003,2877.5 966.975,2878.36 C966.354997,2879.22 966.045,2880.42999 966.045,2881.99 L966.045,2884.54 C966.045,2885.44 966.06,2886.385 966.09,2887.375 C966.12,2888.365 966.185,2889.26 966.285,2890.06 C965.824998,2890.02 965.375002,2890 964.935,2890 C964.494998,2890 964.045002,2890.02 963.585,2890.06 C963.685001,2889.26 963.75,2888.365 963.78,2887.375 C963.81,2886.385 963.825,2885.44 963.825,2884.54 L963.825,2881.42 Z M997.74,2882.59 C997.399998,2882.71 997.005002,2882.81 996.555,2882.89 C996.104998,2882.97 995.650002,2883.055 995.19,2883.145 C994.729998,2883.235 994.275002,2883.35 993.825,2883.49 C993.374998,2883.63 992.975002,2883.82 992.625,2884.06 C992.274998,2884.3 991.995001,2884.6 991.785,2884.96 C991.574999,2885.32 991.47,2885.78 991.47,2886.34 C991.47,2887.28 991.739997,2887.99 992.28,2888.47 C992.820003,2888.95 993.419997,2889.19 994.08,2889.19 C994.840004,2889.19 995.534997,2888.98 996.165,2888.56 C996.795003,2888.14 997.279998,2887.65 997.62,2887.09 L997.74,2882.59 Z M990.33,2877.25 C991.230004,2876.57 992.059996,2876.11 992.82,2875.87 C993.580004,2875.63 994.359996,2875.51 995.16,2875.51 C995.880004,2875.51 996.539997,2875.615 997.14,2875.825 C997.740003,2876.035 998.249998,2876.335 998.67,2876.725 C999.090002,2877.115 999.419999,2877.585 999.66,2878.135 C999.900001,2878.685 1000.02,2879.29 1000.02,2879.95 C1000.02,2881.09001 1000,2882.22499 999.96,2883.355 C999.92,2884.48501 999.9,2885.67999 999.9,2886.94 C999.9,2887.18 999.905,2887.435 999.915,2887.705 C999.925,2887.975 999.97,2888.215 1000.05,2888.425 C1000.13,2888.635 1000.245,2888.81 1000.395,2888.95 C1000.545,2889.09 1000.77,2889.16 1001.07,2889.16 C1001.17,2889.16 1001.275,2889.155 1001.385,2889.145 C1001.495,2889.135 1001.6,2889.1 1001.7,2889.04 L1001.7,2889.7 C1001.48,2889.8 1001.205,2889.88 1000.875,2889.94 C1000.545,2890 1000.18,2890.03 999.78,2890.03 C999.139997,2890.03 998.650002,2889.865 998.31,2889.535 C997.969998,2889.205 997.77,2888.78 997.71,2888.26 C996.989996,2888.98 996.280004,2889.51 995.58,2889.85 C994.879997,2890.19 994.020005,2890.36 993,2890.36 C992.499998,2890.36 992.01,2890.29 991.53,2890.15 C991.049998,2890.01 990.625002,2889.78 990.255,2889.46 C989.884998,2889.14 989.585001,2888.755 989.355,2888.305 C989.124999,2887.855 989.01,2887.34 989.01,2886.76 C989.01,2885.55999 989.384996,2884.63 990.135,2883.97 C990.885004,2883.31 991.919993,2882.87 993.24,2882.65 C994.320005,2882.47 995.164997,2882.315 995.775,2882.185 C996.385003,2882.055 996.834999,2881.92 997.125,2881.78 C997.415001,2881.64 997.59,2881.475 997.65,2881.285 C997.71,2881.095 997.74,2880.85 997.74,2880.55 C997.74,2880.05 997.680001,2879.57 997.56,2879.11 C997.439999,2878.65 997.250001,2878.25 996.99,2877.91 C996.729999,2877.57 996.390002,2877.295 995.97,2877.085 C995.549998,2876.875 995.040003,2876.77 994.44,2876.77 C993.639996,2876.77 992.895003,2876.95 992.205,2877.31 C991.514997,2877.67 991.000002,2878.17 990.66,2878.81 L990.33,2878.81 L990.33,2877.25 Z M1009.035,2871.79 C1008.975,2872.55 1008.93,2873.295 1008.9,2874.025 C1008.87,2874.755 1008.835,2875.49 1008.795,2876.23 C1009.015,2876.23 1009.425,2876.225 1010.025,2876.215 C1010.625,2876.205 1011.275,2876.18 1011.975,2876.14 C1011.955,2876.2 1011.945,2876.31 1011.945,2876.47 L1011.945,2877.1 C1011.945,2877.24 1011.955,2877.34 1011.975,2877.4 C1011.715,2877.38 1011.445,2877.365 1011.165,2877.355 C1010.885,2877.345 1010.585,2877.34 1010.265,2877.34 L1008.795,2877.34 C1008.775,2877.42 1008.75,2877.74 1008.72,2878.3 C1008.69,2878.86 1008.665,2879.525 1008.645,2880.295 C1008.625,2881.065 1008.61,2881.87 1008.6,2882.71 C1008.59,2883.55 1008.585,2884.3 1008.585,2884.96 C1008.585,2885.52 1008.6,2886.07 1008.63,2886.61 C1008.66,2887.15 1008.755,2887.635 1008.915,2888.065 C1009.075,2888.495 1009.315,2888.84 1009.635,2889.1 C1009.955,2889.36 1010.415,2889.49 1011.015,2889.49 C1011.175,2889.49 1011.39,2889.47 1011.66,2889.43 C1011.93,2889.39 1012.165,2889.34 1012.365,2889.28 L1012.365,2890 C1012.025,2890.06 1011.65,2890.135 1011.24,2890.225 C1010.83,2890.315 1010.435,2890.36 1010.055,2890.36 C1008.79499,2890.36 1007.865,2890.05 1007.265,2889.43 C1006.665,2888.81 1006.365,2887.90001 1006.365,2886.7 C1006.365,2886.16 1006.375,2885.575 1006.395,2884.945 C1006.415,2884.315 1006.44,2883.625 1006.47,2882.875 C1006.5,2882.125 1006.525,2881.295 1006.545,2880.385 C1006.565,2879.475 1006.575,2878.46001 1006.575,2877.34 L1005.615,2877.34 C1005.455,2877.34 1005.285,2877.345 1005.105,2877.355 C1004.925,2877.365 1004.735,2877.38 1004.535,2877.4 C1004.555,2877.28 1004.57,2877.165 1004.58,2877.055 C1004.59,2876.945 1004.595,2876.83 1004.595,2876.71 C1004.595,2876.61 1004.59,2876.51 1004.58,2876.41 C1004.57,2876.31 1004.555,2876.21 1004.535,2876.11 C1005.435,2876.17 1006.095,2876.2 1006.515,2876.2 C1006.495,2875.8 1006.48,2875.3 1006.47,2874.7 C1006.46,2874.1 1006.435,2873.48 1006.395,2872.84 L1008.885,2871.79 L1009.035,2871.79 Z M1021.62,2876.47 C1020.88,2876.47 1020.255,2876.64 1019.745,2876.98 C1019.235,2877.32 1018.815,2877.745 1018.485,2878.255 C1018.155,2878.765 1017.905,2879.325 1017.735,2879.935 C1017.565,2880.545 1017.46,2881.12 1017.42,2881.66 C1018.04,2881.68 1018.685,2881.7 1019.355,2881.72 C1020.025,2881.74 1020.68,2881.75 1021.32,2881.75 C1021.98,2881.75 1022.65,2881.74 1023.33,2881.72 C1024.01,2881.7 1024.67,2881.68 1025.31,2881.66 C1025.31,2881.12 1025.265,2880.55 1025.175,2879.95 C1025.085,2879.35 1024.905,2878.79 1024.635,2878.27 C1024.365,2877.75 1023.99,2877.32 1023.51,2876.98 C1023.03,2876.64 1022.4,2876.47 1021.62,2876.47 Z M1014.69,2883.4 C1014.69,2880.93999 1015.27499,2879.01 1016.445,2877.61 C1017.61501,2876.20999 1019.31999,2875.51 1021.56,2875.51 C1022.62001,2875.51 1023.535,2875.675 1024.305,2876.005 C1025.075,2876.335 1025.72,2876.775 1026.24,2877.325 C1026.76,2877.875 1027.145,2878.52 1027.395,2879.26 C1027.645,2880 1027.77,2880.79 1027.77,2881.63 C1027.77,2881.83 1027.765,2882.025 1027.755,2882.215 C1027.745,2882.405 1027.73,2882.6 1027.71,2882.8 C1026.62999,2882.78 1025.56001,2882.76 1024.5,2882.74 C1023.43999,2882.72 1022.37001,2882.71 1021.29,2882.71 C1020.63,2882.71 1019.975,2882.72 1019.325,2882.74 C1018.675,2882.76 1018.02,2882.78 1017.36,2882.8 C1017.34,2882.9 1017.33,2883.05 1017.33,2883.25 L1017.33,2883.64 C1017.33,2884.42 1017.445,2885.15 1017.675,2885.83 C1017.905,2886.51 1018.24,2887.095 1018.68,2887.585 C1019.12,2888.075 1019.66,2888.465 1020.3,2888.755 C1020.94,2889.045 1021.68,2889.19 1022.52,2889.19 C1022.92,2889.19 1023.33,2889.135 1023.75,2889.025 C1024.17,2888.915 1024.58,2888.765 1024.98,2888.575 C1025.38,2888.385 1025.755,2888.16 1026.105,2887.9 C1026.455,2887.64 1026.76,2887.36 1027.02,2887.06 L1027.17,2887.15 L1026.99,2888.62 C1026.39,2889.1 1025.645,2889.51 1024.755,2889.85 C1023.865,2890.19 1022.94,2890.36 1021.98,2890.36 C1020.89999,2890.36 1019.915,2890.195 1019.025,2889.865 C1018.135,2889.535 1017.365,2889.055 1016.715,2888.425 C1016.065,2887.795 1015.565,2887.05 1015.215,2886.19 C1014.865,2885.33 1014.69,2884.4 1014.69,2883.4 Z M1039.065,2878.27 C1038.965,2878.15 1038.77,2878.04 1038.48,2877.94 C1038.19,2877.84 1037.895,2877.79 1037.595,2877.79 C1037.115,2877.79 1036.685,2877.9 1036.305,2878.12 C1035.925,2878.34 1035.605,2878.635 1035.345,2879.005 C1035.085,2879.375 1034.885,2879.815 1034.745,2880.325 C1034.605,2880.835 1034.535,2881.38 1034.535,2881.96 L1034.535,2885.26 C1034.535,2886.60001 1034.54,2887.625 1034.55,2888.335 C1034.56,2889.045 1034.595,2889.62 1034.655,2890.06 C1034.255,2890.02 1033.855,2890 1033.455,2890 C1033.015,2890 1032.595,2890.02 1032.195,2890.06 C1032.255,2889.38 1032.29,2888.45501 1032.3,2887.285 C1032.31,2886.11499 1032.315,2884.68001 1032.315,2882.98 L1032.315,2882.02 C1032.315,2881.24 1032.31,2880.34001 1032.3,2879.32 C1032.29,2878.29999 1032.255,2877.13001 1032.195,2875.81 C1032.415,2875.85 1032.625,2875.885 1032.825,2875.915 C1033.025,2875.945 1033.235,2875.96 1033.455,2875.96 C1033.635,2875.96 1033.825,2875.945 1034.025,2875.915 C1034.225,2875.885 1034.435,2875.85 1034.655,2875.81 C1034.575,2876.53 1034.53,2877.1 1034.52,2877.52 C1034.51,2877.94 1034.505,2878.34 1034.505,2878.72 L1034.565,2878.75 C1035.74501,2876.58999 1037.06499,2875.51 1038.525,2875.51 C1038.705,2875.51 1038.86,2875.52 1038.99,2875.54 C1039.12,2875.56 1039.285,2875.61 1039.485,2875.69 C1039.385,2875.93 1039.325,2876.295 1039.305,2876.785 C1039.285,2877.275 1039.275,2877.72 1039.275,2878.12 L1039.065,2878.27 Z M1043.82,2870.59 C1043.82,2870.17 1043.97,2869.81 1044.27,2869.51 C1044.57,2869.21 1044.93,2869.06 1045.35,2869.06 C1045.77,2869.06 1046.13,2869.21 1046.43,2869.51 C1046.73,2869.81 1046.88,2870.17 1046.88,2870.59 C1046.88,2871.01 1046.73,2871.37 1046.43,2871.67 C1046.13,2871.97 1045.77,2872.12 1045.35,2872.12 C1044.93,2872.12 1044.57,2871.97 1044.27,2871.67 C1043.97,2871.37 1043.82,2871.01 1043.82,2870.59 Z M1044.24,2881.42 C1044.24,2880.52 1044.225,2879.575 1044.195,2878.585 C1044.165,2877.595 1044.1,2876.67 1044,2875.81 C1044.56,2875.91 1045.01,2875.96 1045.35,2875.96 C1045.69,2875.96 1046.14,2875.91 1046.7,2875.81 C1046.6,2876.67 1046.535,2877.595 1046.505,2878.585 C1046.475,2879.575 1046.46,2880.52 1046.46,2881.42 L1046.46,2884.54 C1046.46,2885.44 1046.475,2886.385 1046.505,2887.375 C1046.535,2888.365 1046.6,2889.26 1046.7,2890.06 C1046.24,2890.02 1045.79,2890 1045.35,2890 C1044.91,2890 1044.46,2890.02 1044,2890.06 C1044.1,2889.26 1044.165,2888.365 1044.195,2887.375 C1044.225,2886.385 1044.24,2885.44 1044.24,2884.54 L1044.24,2881.42 Z M1060.785,2882.59 C1060.445,2882.71 1060.05,2882.81 1059.6,2882.89 C1059.15,2882.97 1058.695,2883.055 1058.235,2883.145 C1057.775,2883.235 1057.32,2883.35 1056.87,2883.49 C1056.42,2883.63 1056.02,2883.82 1055.67,2884.06 C1055.32,2884.3 1055.04,2884.6 1054.83,2884.96 C1054.62,2885.32 1054.515,2885.78 1054.515,2886.34 C1054.515,2887.28 1054.785,2887.99 1055.325,2888.47 C1055.865,2888.95 1056.465,2889.19 1057.125,2889.19 C1057.885,2889.19 1058.58,2888.98 1059.21,2888.56 C1059.84,2888.14 1060.325,2887.65 1060.665,2887.09 L1060.785,2882.59 Z M1053.375,2877.25 C1054.275,2876.57 1055.105,2876.11 1055.865,2875.87 C1056.625,2875.63 1057.405,2875.51 1058.205,2875.51 C1058.925,2875.51 1059.585,2875.615 1060.185,2875.825 C1060.785,2876.035 1061.295,2876.335 1061.715,2876.725 C1062.135,2877.115 1062.465,2877.585 1062.705,2878.135 C1062.945,2878.685 1063.065,2879.29 1063.065,2879.95 C1063.065,2881.09001 1063.045,2882.22499 1063.005,2883.355 C1062.965,2884.48501 1062.945,2885.67999 1062.945,2886.94 C1062.945,2887.18 1062.95,2887.435 1062.96,2887.705 C1062.97,2887.975 1063.015,2888.215 1063.095,2888.425 C1063.175,2888.635 1063.29,2888.81 1063.44,2888.95 C1063.59,2889.09 1063.815,2889.16 1064.115,2889.16 C1064.215,2889.16 1064.32,2889.155 1064.43,2889.145 C1064.54,2889.135 1064.645,2889.1 1064.745,2889.04 L1064.745,2889.7 C1064.525,2889.8 1064.25,2889.88 1063.92,2889.94 C1063.59,2890 1063.225,2890.03 1062.825,2890.03 C1062.185,2890.03 1061.695,2889.865 1061.355,2889.535 C1061.015,2889.205 1060.815,2888.78 1060.755,2888.26 C1060.035,2888.98 1059.325,2889.51 1058.625,2889.85 C1057.925,2890.19 1057.06501,2890.36 1056.045,2890.36 C1055.545,2890.36 1055.055,2890.29 1054.575,2890.15 C1054.095,2890.01 1053.67,2889.78 1053.3,2889.46 C1052.93,2889.14 1052.63,2888.755 1052.4,2888.305 C1052.17,2887.855 1052.055,2887.34 1052.055,2886.76 C1052.055,2885.55999 1052.43,2884.63 1053.18,2883.97 C1053.93,2883.31 1054.96499,2882.87 1056.285,2882.65 C1057.36501,2882.47 1058.21,2882.315 1058.82,2882.185 C1059.43,2882.055 1059.88,2881.92 1060.17,2881.78 C1060.46,2881.64 1060.635,2881.475 1060.695,2881.285 C1060.755,2881.095 1060.785,2880.85 1060.785,2880.55 C1060.785,2880.05 1060.725,2879.57 1060.605,2879.11 C1060.485,2878.65 1060.295,2878.25 1060.035,2877.91 C1059.775,2877.57 1059.435,2877.295 1059.015,2877.085 C1058.595,2876.875 1058.085,2876.77 1057.485,2876.77 C1056.685,2876.77 1055.94,2876.95 1055.25,2877.31 C1054.56,2877.67 1054.045,2878.17 1053.705,2878.81 L1053.375,2878.81 L1053.375,2877.25 Z M1070.13,2876.08 C1070.13,2875.4 1070.125,2874.66 1070.115,2873.86 C1070.105,2873.06 1070.09,2872.27 1070.07,2871.49 C1070.05,2870.71 1070.025,2869.965 1069.995,2869.255 C1069.965,2868.545 1069.93,2867.94 1069.89,2867.44 C1070.45,2867.54 1070.9,2867.59 1071.24,2867.59 C1071.58,2867.59 1072.03,2867.54 1072.59,2867.44 C1072.55,2867.94 1072.515,2868.545 1072.485,2869.255 C1072.455,2869.965 1072.43,2870.71 1072.41,2871.49 C1072.39,2872.27 1072.375,2873.06 1072.365,2873.86 C1072.355,2874.66 1072.35,2875.4 1072.35,2876.08 L1072.35,2881.51 C1072.35,2882.19 1072.355,2882.93 1072.365,2883.73 C1072.375,2884.53 1072.39,2885.32 1072.41,2886.1 C1072.43,2886.88 1072.455,2887.62 1072.485,2888.32 C1072.515,2889.02 1072.55,2889.6 1072.59,2890.06 C1072.13,2890.02 1071.68,2890 1071.24,2890 C1070.8,2890 1070.35,2890.02 1069.89,2890.06 C1069.93,2889.6 1069.965,2889.02 1069.995,2888.32 C1070.025,2887.62 1070.05,2886.88 1070.07,2886.1 C1070.09,2885.32 1070.105,2884.53 1070.115,2883.73 C1070.125,2882.93 1070.13,2882.19 1070.13,2881.51 L1070.13,2876.08 Z M1078.815,2887.27 C1078.915,2887.47 1079.07,2887.69 1079.28,2887.93 C1079.49,2888.17 1079.74,2888.395 1080.03,2888.605 C1080.32,2888.815 1080.65,2888.99 1081.02,2889.13 C1081.39,2889.27 1081.785,2889.34 1082.205,2889.34 C1082.585,2889.34 1082.95,2889.28 1083.3,2889.16 C1083.65,2889.04 1083.96,2888.87 1084.23,2888.65 C1084.5,2888.43 1084.715,2888.15 1084.875,2887.81 C1085.035,2887.47 1085.115,2887.08 1085.115,2886.64 C1085.115,2886.02 1084.94,2885.545 1084.59,2885.215 C1084.24,2884.885 1083.805,2884.615 1083.285,2884.405 C1082.765,2884.195 1082.195,2884.01 1081.575,2883.85 C1080.955,2883.69 1080.385,2883.465 1079.865,2883.175 C1079.345,2882.885 1078.91,2882.5 1078.56,2882.02 C1078.21,2881.54 1078.035,2880.88 1078.035,2880.04 C1078.035,2879.38 1078.145,2878.775 1078.365,2878.225 C1078.585,2877.675 1078.905,2877.2 1079.325,2876.8 C1079.745,2876.4 1080.265,2876.085 1080.885,2875.855 C1081.505,2875.625 1082.215,2875.51 1083.015,2875.51 C1083.755,2875.51 1084.38,2875.61 1084.89,2875.81 C1085.4,2876.01 1085.885,2876.19 1086.345,2876.35 C1086.185,2876.65 1086.035,2877.02 1085.895,2877.46 C1085.755,2877.9 1085.665,2878.24 1085.625,2878.48 L1085.265,2878.48 C1085.105,2878 1084.795,2877.57 1084.335,2877.19 C1083.875,2876.81 1083.305,2876.62 1082.625,2876.62 C1082.325,2876.62 1082.025,2876.67 1081.725,2876.77 C1081.425,2876.87 1081.155,2877.02 1080.915,2877.22 C1080.675,2877.42 1080.475,2877.68 1080.315,2878 C1080.155,2878.32 1080.075,2878.7 1080.075,2879.14 C1080.075,2879.78 1080.25,2880.275 1080.6,2880.625 C1080.95,2880.975 1081.385,2881.25 1081.905,2881.45 C1082.425,2881.65 1082.995,2881.825 1083.615,2881.975 C1084.235,2882.125 1084.805,2882.335 1085.325,2882.605 C1085.845,2882.875 1086.28,2883.25 1086.63,2883.73 C1086.98,2884.21 1087.155,2884.87 1087.155,2885.71 C1087.155,2886.29 1087.03,2886.86 1086.78,2887.42 C1086.53,2887.98 1086.17,2888.485 1085.7,2888.935 C1085.23,2889.385 1084.665,2889.735 1084.005,2889.985 C1083.345,2890.235 1082.595,2890.36 1081.755,2890.36 C1080.835,2890.36 1080.065,2890.27 1079.445,2890.09 C1078.825,2889.91 1078.305,2889.7 1077.885,2889.46 C1078.005,2889.2 1078.13,2888.845 1078.26,2888.395 C1078.39,2887.945 1078.455,2887.57 1078.455,2887.27 L1078.815,2887.27 Z" id="Simplerawmaterials"></path>
        </g>
    </g>
</svg>