<?xml version="1.0" encoding="UTF-8"?>
<svg width="84px" height="22px" viewBox="0 0 84 22" version="1.1" xmlns="http://www.w3.org/2000/svg" xmlns:xlink="http://www.w3.org/1999/xlink">
    <!-- Generator: Sketch 56.2 (81672) - https://sketch.com -->
    <title>txt-keyword1-en</title>
    <desc>Created with Sketch.</desc>
    <g id="Page-1" stroke="none" stroke-width="1" fill="none" fill-rule="evenodd">
        <g id="top-fix" transform="translate(-727.000000, -1452.000000)" fill="#FFFFFF" fill-rule="nonzero">
            <g id="Group-7" transform="translate(727.000000, 1451.000000)">
                <path d="M2.6,13.5 C2.6,14.300004 2.6833325,14.9599974 2.85,15.48 C3.0166675,16.0000026 3.2299987,16.4166651 3.49,16.73 C3.7500013,17.0433349 4.046665,17.2599994 4.38,17.38 C4.713335,17.5000006 5.0399984,17.56 5.36,17.56 C5.8800026,17.56 6.3266648,17.4300013 6.7,17.17 C7.0733352,16.9099987 7.3833321,16.5700021 7.63,16.15 C7.8766679,15.7299979 8.0566661,15.253336 8.17,14.72 C8.2833339,14.186664 8.34,13.653336 8.34,13.12 C8.34,11.8399936 8.0933358,10.8633367 7.6,10.19 C7.1066642,9.5166633 6.3800048,9.18 5.42,9.18 C4.9399976,9.18 4.5233351,9.2899989 4.17,9.51 C3.8166649,9.7300011 3.5233345,10.0366647 3.29,10.43 C3.0566655,10.8233353 2.8833339,11.2833307 2.77,11.81 C2.6566661,12.3366693 2.6,12.899997 2.6,13.5 Z M8.28,16.14 C8.1733328,16.3533344 8.0300009,16.5833321 7.85,16.83 C7.6699991,17.0766679 7.4433347,17.3066656 7.17,17.52 C6.8966653,17.7333344 6.5733352,17.906666 6.2,18.04 C5.8266648,18.173334 5.3933358,18.24 4.9,18.24 C4.3933308,18.24 3.8966691,18.1533342 3.41,17.98 C2.9233309,17.8066658 2.4900019,17.5233353 2.11,17.13 C1.7299981,16.7366647 1.4233345,16.2300031 1.19,15.61 C0.9566655,14.9899969 0.84,14.246671 0.84,13.38 C0.84,12.5266624 0.9666654,11.7866698 1.22,11.16 C1.4733346,10.5333302 1.8033313,10.0100021 2.21,9.59 C2.6166687,9.1699979 3.0766641,8.8566677 3.59,8.65 C4.1033359,8.4433323 4.6199974,8.34 5.14,8.34 C6.6200074,8.34 7.6466638,9.00666 8.22,10.34 L8.26,10.34 L8.26,8.38 C8.26,7.8733308 8.2566667,7.3633359 8.25,6.85 C8.2433333,6.3366641 8.2366667,5.846669 8.23,5.38 C8.2233333,4.913331 8.2166667,4.4733354 8.21,4.06 C8.2033333,3.6466646 8.1933334,3.2800016 8.18,2.96 C8.34,2.9866668 8.4933326,3.0099999 8.64,3.03 C8.7866674,3.0500001 8.9333326,3.06 9.08,3.06 C9.2266674,3.06 9.3699993,3.0500001 9.51,3.03 C9.6500007,3.0099999 9.8066658,2.9866668 9.98,2.96 C9.9399998,3.3866688 9.9066668,4.0033293 9.88,4.81 C9.8533332,5.6166707 9.8300001,6.5066618 9.81,7.48 C9.7899999,8.4533382 9.7733334,9.4533282 9.76,10.48 C9.7466666,11.5066718 9.74,12.4466624 9.74,13.3 C9.74,14.2200046 9.7466666,15.046663 9.76,15.78 C9.7733334,16.513337 9.7866666,17.2666628 9.8,18.04 C9.533332,18.0133332 9.2733346,18 9.02,18 C8.7799988,18 8.526668,18.0133332 8.26,18.04 L8.32,16.14 L8.28,16.14 Z M17.0622222,8.98 C16.5688864,8.98 16.1522239,9.0933322 15.8122222,9.32 C15.4722205,9.5466678 15.1922233,9.8299983 14.9722222,10.17 C14.7522211,10.5100017 14.5855561,10.8833313 14.4722222,11.29 C14.3588883,11.6966687 14.288889,12.0799982 14.2622222,12.44 C14.6755576,12.4533334 15.1055533,12.4666666 15.5522222,12.48 C15.9988911,12.4933334 16.4355534,12.5 16.8622222,12.5 C17.3022244,12.5 17.7488866,12.4933334 18.2022222,12.48 C18.6555578,12.4666666 19.0955534,12.4533334 19.5222222,12.44 C19.5222222,12.0799982 19.4922225,11.700002 19.4322222,11.3 C19.3722219,10.899998 19.2522231,10.5266684 19.0722222,10.18 C18.8922213,9.8333316 18.6422238,9.5466678 18.3222222,9.32 C18.0022206,9.0933322 17.5822248,8.98 17.0622222,8.98 Z M12.4422222,13.6 C12.4422222,11.9599918 12.8322183,10.673338 13.6122222,9.74 C14.3922261,8.806662 15.5288814,8.34 17.0222222,8.34 C17.7288924,8.34 18.3388863,8.4499989 18.8522222,8.67 C19.3655581,8.8900011 19.7955538,9.1833315 20.1422222,9.55 C20.4888906,9.9166685 20.7455547,10.3466642 20.9122222,10.84 C21.0788897,11.3333358 21.1622222,11.8599972 21.1622222,12.42 C21.1622222,12.553334 21.1588889,12.6833327 21.1522222,12.81 C21.1455555,12.9366673 21.1355556,13.066666 21.1222222,13.2 C20.4022186,13.1866666 19.6888924,13.1733334 18.9822222,13.16 C18.275552,13.1466666 17.5622258,13.14 16.8422222,13.14 C16.40222,13.14 15.9655577,13.1466666 15.5322222,13.16 C15.0988867,13.1733334 14.6622244,13.1866666 14.2222222,13.2 C14.2088888,13.266667 14.2022222,13.366666 14.2022222,13.5 L14.2022222,13.76 C14.2022222,14.2800026 14.2788881,14.7666644 14.4322222,15.22 C14.5855563,15.6733356 14.8088874,16.0633317 15.1022222,16.39 C15.395557,16.7166683 15.7555534,16.9766657 16.1822222,17.17 C16.608891,17.3633343 17.1022194,17.46 17.6622222,17.46 C17.9288902,17.46 18.2022208,17.4233337 18.4822222,17.35 C18.7622236,17.2766663 19.0355542,17.1766673 19.3022222,17.05 C19.5688902,16.9233327 19.8188877,16.7733342 20.0522222,16.6 C20.2855567,16.4266658 20.488888,16.240001 20.6622222,16.04 L20.7622222,16.1 L20.6422222,17.08 C20.2422202,17.4000016 19.7455585,17.6733322 19.1522222,17.9 C18.5588859,18.1266678 17.9422222,18.24 17.3022222,18.24 C16.5822186,18.24 15.9255585,18.1300011 15.3322222,17.91 C14.7388859,17.6899989 14.2255577,17.3700021 13.7922222,16.95 C13.3588867,16.5299979 13.0255567,16.0333362 12.7922222,15.46 C12.5588877,14.8866638 12.4422222,14.26667 12.4422222,13.6 Z M24.4044444,8.72 C24.4044444,8.2666644 24.4011111,7.773336 24.3944444,7.24 C24.3877777,6.706664 24.3777778,6.1800026 24.3644444,5.66 C24.351111,5.1399974 24.3344445,4.6433357 24.3144444,4.17 C24.2944443,3.6966643 24.2711112,3.293335 24.2444444,2.96 C24.6177796,3.026667 24.9177766,3.06 25.1444444,3.06 C25.3711122,3.06 25.6711092,3.026667 26.0444444,2.96 C26.0177776,3.293335 25.9944445,3.6966643 25.9744444,4.17 C25.9544443,4.6433357 25.9377778,5.1399974 25.9244444,5.66 C25.911111,6.1800026 25.9011111,6.706664 25.8944444,7.24 C25.8877777,7.773336 25.8844444,8.2666644 25.8844444,8.72 L25.8844444,12.34 C25.8844444,12.7933356 25.8877777,13.286664 25.8944444,13.82 C25.9011111,14.353336 25.911111,14.8799974 25.9244444,15.4 C25.9377778,15.9200026 25.9544443,16.413331 25.9744444,16.88 C25.9944445,17.346669 26.0177776,17.7333318 26.0444444,18.04 C25.7377762,18.0133332 25.4377792,18 25.1444444,18 C24.8511096,18 24.5511126,18.0133332 24.2444444,18.04 C24.2711112,17.7333318 24.2944443,17.346669 24.3144444,16.88 C24.3344445,16.413331 24.351111,15.9200026 24.3644444,15.4 C24.3777778,14.8799974 24.3877777,14.353336 24.3944444,13.82 C24.4011111,13.286664 24.4044444,12.7933356 24.4044444,12.34 L24.4044444,8.72 Z M30.3066667,5.06 C30.3066667,4.7799986 30.4066657,4.54 30.6066667,4.34 C30.8066667,4.139999 31.0466653,4.04 31.3266667,4.04 C31.6066681,4.04 31.8466657,4.139999 32.0466667,4.34 C32.2466677,4.54 32.3466667,4.7799986 32.3466667,5.06 C32.3466667,5.3400014 32.2466677,5.579999 32.0466667,5.78 C31.8466657,5.980001 31.6066681,6.08 31.3266667,6.08 C31.0466653,6.08 30.8066667,5.980001 30.6066667,5.78 C30.4066657,5.579999 30.3066667,5.3400014 30.3066667,5.06 Z M30.5866667,12.28 C30.5866667,11.679997 30.5766668,11.0500033 30.5566667,10.39 C30.5366666,9.7299967 30.4933337,9.1133362 30.4266667,8.54 C30.8000019,8.606667 31.0999989,8.64 31.3266667,8.64 C31.5533345,8.64 31.8533315,8.606667 32.2266667,8.54 C32.1599997,9.1133362 32.1166668,9.7299967 32.0966667,10.39 C32.0766666,11.0500033 32.0666667,11.679997 32.0666667,12.28 L32.0666667,14.36 C32.0666667,14.960003 32.0766666,15.5899967 32.0966667,16.25 C32.1166668,16.9100033 32.1599997,17.506664 32.2266667,18.04 C31.9199985,18.0133332 31.6200015,18 31.3266667,18 C31.0333319,18 30.7333349,18.0133332 30.4266667,18.04 C30.4933337,17.506664 30.5366666,16.9100033 30.5566667,16.25 C30.5766668,15.5899967 30.5866667,14.960003 30.5866667,14.36 L30.5866667,12.28 Z M35.5688889,13.32 C35.5688889,12.453329 35.7155541,11.7066698 36.0088889,11.08 C36.3022237,10.4533302 36.6855532,9.9366687 37.1588889,9.53 C37.6322246,9.1233313 38.1755525,8.8233343 38.7888889,8.63 C39.4022253,8.4366657 40.0288857,8.34 40.6688889,8.34 C41.4022259,8.34 42.058886,8.4299991 42.6388889,8.61 C43.2188918,8.7900009 43.6355543,8.9933322 43.8888889,9.22 C43.7955551,9.420001 43.7122226,9.6299989 43.6388889,9.85 C43.5655552,10.0700011 43.5022225,10.2999988 43.4488889,10.54 L43.2888889,10.54 C43.1955551,10.3666658 43.0688889,10.1900009 42.9088889,10.01 C42.7488881,9.8299991 42.55889,9.6633341 42.3388889,9.51 C42.1188878,9.3566659 41.8755569,9.2300005 41.6088889,9.13 C41.3422209,9.0299995 41.0488905,8.98 40.7288889,8.98 C40.1288859,8.98 39.6122244,9.0899989 39.1788889,9.31 C38.7455534,9.5300011 38.3922236,9.8333314 38.1188889,10.22 C37.8455542,10.6066686 37.6455562,11.0633307 37.5188889,11.59 C37.3922216,12.1166693 37.3288889,12.6866636 37.3288889,13.3 C37.3288889,14.6733402 37.6222193,15.7099965 38.2088889,16.41 C38.7955585,17.1100035 39.6555499,17.46 40.7888889,17.46 C41.0555569,17.46 41.3288875,17.4233337 41.6088889,17.35 C41.8888903,17.2766663 42.1622209,17.1766673 42.4288889,17.05 C42.6955569,16.9233327 42.9455544,16.7733342 43.1788889,16.6 C43.4122234,16.4266658 43.6155547,16.240001 43.7888889,16.04 L43.8888889,16.1 C43.8222219,16.4200016 43.7822223,16.746665 43.7688889,17.08 C43.3688869,17.4000016 42.8722252,17.6733322 42.2788889,17.9 C41.6855526,18.1266678 41.0688889,18.24 40.4288889,18.24 C39.8555527,18.24 39.2788918,18.1566675 38.6988889,17.99 C38.118886,17.8233325 37.5955579,17.5433353 37.1288889,17.15 C36.6622199,16.7566647 36.285557,16.2466698 35.9988889,15.62 C35.7122208,14.9933302 35.5688889,14.2266712 35.5688889,13.32 Z M47.1111111,5.06 C47.1111111,4.7799986 47.2111101,4.54 47.4111111,4.34 C47.6111111,4.139999 47.8511097,4.04 48.1311111,4.04 C48.4111125,4.04 48.6511101,4.139999 48.8511111,4.34 C49.0511121,4.54 49.1511111,4.7799986 49.1511111,5.06 C49.1511111,5.3400014 49.0511121,5.579999 48.8511111,5.78 C48.6511101,5.980001 48.4111125,6.08 48.1311111,6.08 C47.8511097,6.08 47.6111111,5.980001 47.4111111,5.78 C47.2111101,5.579999 47.1111111,5.3400014 47.1111111,5.06 Z M47.3911111,12.28 C47.3911111,11.679997 47.3811112,11.0500033 47.3611111,10.39 C47.341111,9.7299967 47.2977781,9.1133362 47.2311111,8.54 C47.6044463,8.606667 47.9044433,8.64 48.1311111,8.64 C48.3577789,8.64 48.6577759,8.606667 49.0311111,8.54 C48.9644441,9.1133362 48.9211112,9.7299967 48.9011111,10.39 C48.881111,11.0500033 48.8711111,11.679997 48.8711111,12.28 L48.8711111,14.36 C48.8711111,14.960003 48.881111,15.5899967 48.9011111,16.25 C48.9211112,16.9100033 48.9644441,17.506664 49.0311111,18.04 C48.7244429,18.0133332 48.4244459,18 48.1311111,18 C47.8377763,18 47.5377793,18.0133332 47.2311111,18.04 C47.2977781,17.506664 47.341111,16.9100033 47.3611111,16.25 C47.3811112,15.5899967 47.3911111,14.960003 47.3911111,14.36 L47.3911111,12.28 Z M53.9933333,13.32 C53.9933333,13.8800028 54.0433328,14.4199974 54.1433333,14.94 C54.2433338,15.4600026 54.4133321,15.9233313 54.6533333,16.33 C54.8933345,16.7366687 55.2133313,17.0599988 55.6133333,17.3 C56.0133353,17.5400012 56.5066637,17.66 57.0933333,17.66 C57.6800029,17.66 58.1733313,17.5400012 58.5733333,17.3 C58.9733353,17.0599988 59.2933321,16.7366687 59.5333333,16.33 C59.7733345,15.9233313 59.9433328,15.4600026 60.0433333,14.94 C60.1433338,14.4199974 60.1933333,13.8800028 60.1933333,13.32 C60.1933333,12.7599972 60.1433338,12.2200026 60.0433333,11.7 C59.9433328,11.1799974 59.7733345,10.7166687 59.5333333,10.31 C59.2933321,9.9033313 58.9733353,9.5800012 58.5733333,9.34 C58.1733313,9.0999988 57.6800029,8.98 57.0933333,8.98 C56.5066637,8.98 56.0133353,9.0999988 55.6133333,9.34 C55.2133313,9.5800012 54.8933345,9.9033313 54.6533333,10.31 C54.4133321,10.7166687 54.2433338,11.1799974 54.1433333,11.7 C54.0433328,12.2200026 53.9933333,12.7599972 53.9933333,13.32 Z M52.2333333,13.32 C52.2333333,12.4133288 52.3766652,11.6433365 52.6633333,11.01 C52.9500014,10.3766635 53.3266643,9.8633353 53.7933333,9.47 C54.2600023,9.0766647 54.7833304,8.7900009 55.3633333,8.61 C55.9433362,8.4299991 56.5199971,8.34 57.0933333,8.34 C57.6800029,8.34 58.2599971,8.4299991 58.8333333,8.61 C59.4066695,8.7900009 59.9266643,9.0766647 60.3933333,9.47 C60.8600023,9.8633353 61.2366652,10.3766635 61.5233333,11.01 C61.8100014,11.6433365 61.9533333,12.4133288 61.9533333,13.32 C61.9533333,14.2266712 61.8100014,14.9966635 61.5233333,15.63 C61.2366652,16.2633365 60.8600023,16.7766647 60.3933333,17.17 C59.9266643,17.5633353 59.4066695,17.84 58.8333333,18 C58.2599971,18.1600008 57.6800029,18.24 57.0933333,18.24 C56.5199971,18.24 55.9433362,18.1600008 55.3633333,18 C54.7833304,17.84 54.2600023,17.5633353 53.7933333,17.17 C53.3266643,16.7766647 52.9500014,16.2633365 52.6633333,15.63 C52.3766652,14.9966635 52.2333333,14.2266712 52.2333333,13.32 Z M64.7955556,15.02 C64.7955556,14.3133298 64.8055555,13.7100025 64.8255556,13.21 C64.8455557,12.7099975 64.8555556,12.2133358 64.8555556,11.72 C64.8555556,11.253331 64.8522223,10.7466694 64.8455556,10.2 C64.8388889,9.6533306 64.828889,9.1000028 64.8155556,8.54 C65.1488906,8.606667 65.4288878,8.64 65.6555556,8.64 C65.86889,8.64 66.1422206,8.606667 66.4755556,8.54 C66.4088886,9.340004 66.3588891,10.2166619 66.3255556,11.17 C66.2922221,12.1233381 66.2755556,13.099995 66.2755556,14.1 C66.2755556,14.7933368 66.335555,15.3233315 66.4555556,15.69 C66.5755562,16.0566685 66.7222214,16.3333324 66.8955556,16.52 C67.0822232,16.7333344 67.3188875,16.9099993 67.6055556,17.05 C67.8922237,17.1900007 68.228887,17.26 68.6155556,17.26 C69.1755584,17.26 69.6422204,17.1366679 70.0155556,16.89 C70.3888908,16.6433321 70.6622214,16.3400018 70.8355556,15.98 C70.9288894,15.7533322 71.002222,15.5600008 71.0555556,15.4 C71.1088892,15.2399992 71.1522221,15.026668 71.1855556,14.76 C71.2188891,14.493332 71.2388889,14.1333356 71.2455556,13.68 C71.2522223,13.2266644 71.2555556,12.6066706 71.2555556,11.82 L71.2555556,10.14 C71.2555556,9.8466652 71.2522223,9.566668 71.2455556,9.3 C71.2388889,9.033332 71.228889,8.7800012 71.2155556,8.54 C71.362223,8.5666668 71.5022216,8.5899999 71.6355556,8.61 C71.7688896,8.6300001 71.9088882,8.64 72.0555556,8.64 C72.202223,8.64 72.3422216,8.6300001 72.4755556,8.61 C72.6088896,8.5899999 72.7422216,8.5666668 72.8755556,8.54 C72.8088886,9.5800052 72.768889,10.5833285 72.7555556,11.55 C72.7422222,12.5166715 72.7355556,13.54 72.7355556,14.62 C72.7355556,15.220003 72.7422222,15.8066638 72.7555556,16.38 C72.768889,16.9533362 72.7888888,17.506664 72.8155556,18.04 C72.5488876,18.0133332 72.2888902,18 72.0355556,18 C71.782221,18 71.5222236,18.0133332 71.2555556,18.04 C71.268889,17.9199994 71.2788889,17.793334 71.2855556,17.66 C71.2922223,17.526666 71.2955556,17.3866674 71.2955556,17.24 L71.2955556,16.38 L71.2555556,16.38 C70.9088872,17.0200032 70.462225,17.4899985 69.9155556,17.79 C69.3688862,18.0900015 68.7755588,18.24 68.1355556,18.24 C67.0955504,18.24 66.2788919,17.9633361 65.6855556,17.41 C65.0922193,16.8566639 64.7955556,16.0600052 64.7955556,15.02 Z M76.4377778,16.18 C76.5044448,16.313334 76.6077771,16.4599992 76.7477778,16.62 C76.8877785,16.7800008 77.0544435,16.9299993 77.2477778,17.07 C77.4411121,17.2100007 77.6611099,17.3266662 77.9077778,17.42 C78.1544457,17.5133338 78.4177764,17.56 78.6977778,17.56 C78.9511124,17.56 79.1944433,17.5200004 79.4277778,17.44 C79.6611123,17.3599996 79.8677769,17.2466674 80.0477778,17.1 C80.2277787,16.9533326 80.3711106,16.7666678 80.4777778,16.54 C80.584445,16.3133322 80.6377778,16.0533348 80.6377778,15.76 C80.6377778,15.3466646 80.5211123,15.0300011 80.2877778,14.81 C80.0544433,14.5899989 79.7644462,14.4100007 79.4177778,14.27 C79.0711094,14.1299993 78.6911132,14.0066672 78.2777778,13.9 C77.8644424,13.7933328 77.4844462,13.6433343 77.1377778,13.45 C76.7911094,13.2566657 76.5011123,13.0000016 76.2677778,12.68 C76.0344433,12.3599984 75.9177778,11.9200028 75.9177778,11.36 C75.9177778,10.9199978 75.9911104,10.5166685 76.1377778,10.15 C76.2844452,9.7833315 76.4977764,9.466668 76.7777778,9.2 C77.0577792,8.933332 77.4044424,8.7233341 77.8177778,8.57 C78.2311132,8.4166659 78.7044418,8.34 79.2377778,8.34 C79.7311136,8.34 80.1477761,8.406666 80.4877778,8.54 C80.8277795,8.673334 81.1511096,8.7933328 81.4577778,8.9 C81.3511106,9.100001 81.2511116,9.3466652 81.1577778,9.64 C81.064444,9.9333348 81.0044446,10.1599992 80.9777778,10.32 L80.7377778,10.32 C80.6311106,9.9999984 80.424446,9.7133346 80.1177778,9.46 C79.8111096,9.2066654 79.4311134,9.08 78.9777778,9.08 C78.7777768,9.08 78.5777788,9.113333 78.3777778,9.18 C78.1777768,9.246667 77.9977786,9.346666 77.8377778,9.48 C77.677777,9.613334 77.544445,9.7866656 77.4377778,10 C77.3311106,10.2133344 77.2777778,10.4666652 77.2777778,10.76 C77.2777778,11.1866688 77.3944433,11.5166655 77.6277778,11.75 C77.8611123,11.9833345 78.1511094,12.166666 78.4977778,12.3 C78.8444462,12.433334 79.2244424,12.5499995 79.6377778,12.65 C80.0511132,12.7500005 80.4311094,12.8899991 80.7777778,13.07 C81.1244462,13.2500009 81.4144433,13.4999984 81.6477778,13.82 C81.8811123,14.1400016 81.9977778,14.5799972 81.9977778,15.14 C81.9977778,15.5266686 81.9144453,15.9066648 81.7477778,16.28 C81.5811103,16.6533352 81.3411127,16.9899985 81.0277778,17.29 C80.7144429,17.5900015 80.33778,17.8233325 79.8977778,17.99 C79.4577756,18.1566675 78.9577806,18.24 78.3977778,18.24 C77.7844414,18.24 77.2711132,18.1800006 76.8577778,18.06 C76.4444424,17.9399994 76.0977792,17.8000008 75.8177778,17.64 C75.8977782,17.4666658 75.9811107,17.2300015 76.0677778,16.93 C76.1544449,16.6299985 76.1977778,16.380001 76.1977778,16.18 L76.4377778,16.18 Z" id="delicious"></path>
                <polygon id="Line" points="-5.68434189e-13 23 84 23 84 22 -5.68434189e-13 22"></polygon>
            </g>
        </g>
    </g>
</svg>