<?xml version="1.0" encoding="UTF-8"?>
<svg width="14px" height="21px" viewBox="0 0 14 21" version="1.1" xmlns="http://www.w3.org/2000/svg" xmlns:xlink="http://www.w3.org/1999/xlink">
    <!-- Generator: Sketch 56.2 (81672) - https://sketch.com -->
    <title>txt-3</title>
    <desc>Created with Sketch.</desc>
    <g id="Page-1" stroke="none" stroke-width="1" fill="none" fill-rule="evenodd">
        <g id="top-fix" transform="translate(-729.000000, -3192.000000)" fill="#4E2700" fill-rule="nonzero">
            <path d="M731.212,3193.864 C731.585335,3193.49066 732.10333,3193.11734 732.766,3192.744 C733.42867,3192.37066 734.273328,3192.184 735.3,3192.184 C736.028004,3192.184 736.718663,3192.268 737.372,3192.436 C738.025337,3192.604 738.594664,3192.856 739.08,3193.192 C739.565336,3193.528 739.947999,3193.95733 740.228,3194.48 C740.508001,3195.00267 740.648,3195.628 740.648,3196.356 C740.648,3197.028 740.526668,3197.63 740.284,3198.162 C740.041332,3198.694 739.738002,3199.15133 739.374,3199.534 C739.009998,3199.91667 738.604002,3200.22933 738.156,3200.472 C737.707998,3200.71467 737.278669,3200.892 736.868,3201.004 L736.868,3201.172 C737.353336,3201.20933 737.866664,3201.298 738.408,3201.438 C738.949336,3201.578 739.453331,3201.81133 739.92,3202.138 C740.386669,3202.46467 740.773998,3202.89866 741.082,3203.44 C741.390002,3203.98134 741.544,3204.672 741.544,3205.512 C741.544,3206.37067 741.371335,3207.15933 741.026,3207.878 C740.680665,3208.59667 740.195336,3209.21733 739.57,3209.74 C738.944664,3210.26267 738.193338,3210.664 737.316,3210.944 C736.438662,3211.224 735.468005,3211.364 734.404,3211.364 C733.433328,3211.364 732.612003,3211.27533 731.94,3211.098 C731.267997,3210.92067 730.680003,3210.71067 730.176,3210.468 C730.250667,3210.31867 730.320666,3210.07134 730.386,3209.726 C730.451334,3209.38066 730.493333,3209.068 730.512,3208.788 L730.68,3208.676 C730.848001,3208.86267 731.053332,3209.068 731.296,3209.292 C731.538668,3209.516 731.823332,3209.72133 732.15,3209.908 C732.476668,3210.09467 732.831331,3210.24867 733.214,3210.37 C733.596669,3210.49133 734.011998,3210.552 734.46,3210.552 C735.169337,3210.552 735.799331,3210.44 736.35,3210.216 C736.900669,3209.992 737.371998,3209.67467 737.764,3209.264 C738.156002,3208.85333 738.454666,3208.35867 738.66,3207.78 C738.865334,3207.20133 738.968,3206.56667 738.968,3205.876 C738.968,3205.11066 738.870001,3204.462 738.674,3203.93 C738.477999,3203.398 738.207335,3202.96867 737.862,3202.642 C737.516665,3202.31533 737.101336,3202.07733 736.616,3201.928 C736.130664,3201.77867 735.59867,3201.704 735.02,3201.704 C734.814666,3201.704 734.595335,3201.72267 734.362,3201.76 C734.128666,3201.79733 733.928001,3201.83467 733.76,3201.872 C733.778667,3201.77867 733.792667,3201.68067 733.802,3201.578 C733.811333,3201.47533 733.816,3201.37733 733.816,3201.284 C733.816,3201.19067 733.811333,3201.09267 733.802,3200.99 C733.792667,3200.88733 733.778667,3200.78933 733.76,3200.696 C734.133335,3200.77067 734.553331,3200.808 735.02,3200.808 C735.673337,3200.808 736.205331,3200.67267 736.616,3200.402 C737.026669,3200.13133 737.348666,3199.786 737.582,3199.366 C737.815334,3198.946 737.974,3198.484 738.058,3197.98 C738.142,3197.476 738.184,3196.99067 738.184,3196.524 C738.184,3195.92666 738.095334,3195.40867 737.918,3194.97 C737.740666,3194.53133 737.512001,3194.172 737.232,3193.892 C736.951999,3193.612 736.634668,3193.40667 736.28,3193.276 C735.925332,3193.14533 735.561335,3193.08 735.188,3193.08 C734.403996,3193.08 733.736669,3193.30866 733.186,3193.766 C732.635331,3194.22334 732.257334,3194.74133 732.052,3195.32 L731.856,3195.376 L731.212,3193.864 Z" id="3"></path>
        </g>
    </g>
</svg>