<?xml version="1.0" encoding="UTF-8"?>
<svg width="229px" height="46px" viewBox="0 0 229 46" version="1.1" xmlns="http://www.w3.org/2000/svg" xmlns:xlink="http://www.w3.org/1999/xlink">
    <!-- Generator: Sketch 56.2 (81672) - https://sketch.com -->
    <title>txt-keyword2</title>
    <desc>Created with Sketch.</desc>
    <g id="Page-1" stroke="none" stroke-width="1" fill="none" fill-rule="evenodd">
        <g id="top-fix" transform="translate(-230.000000, -1906.000000)" fill="#FFFFFF" fill-rule="nonzero">
            <path d="M253.184,1921.024 L252.896,1921.888 C251.552,1925.968 249.2,1931.104 246.08,1935.568 C246.272,1935.712 246.464,1935.808 246.656,1935.856 C247.856,1936.192 248.384,1937.872 248.384,1938.88 C248.384,1940.704 246.896,1940.896 246.56,1940.896 C245.888,1940.896 244.736,1940.56 243.344,1939.072 C240.56,1942.336 237.44,1944.64 234.8,1944.64 C231.872,1944.64 230.192,1941.616 230.192,1938.16 C230.192,1933.648 233.984,1929.04 236.72,1926.4 C236.096,1924.288 235.664,1922.08 235.664,1919.968 C235.664,1915.312 237.824,1913.056 238.448,1913.056 C238.64,1913.056 238.736,1913.248 238.736,1913.584 C238.736,1913.68 238.736,1913.824 238.688,1914.016 C238.448,1915.072 238.352,1916.176 238.352,1917.328 C238.352,1919.536 238.736,1921.888 239.456,1924.144 C242.144,1922.128 245.36,1920.4 249.104,1919.488 C249.2,1918.96 249.344,1917.856 249.344,1916.704 C249.344,1914.976 249.008,1913.296 247.76,1912.864 C247.28,1912.72 246.896,1912.528 246.896,1912.288 C246.896,1912.144 247.664,1911.376 248.768,1911.376 C250.736,1911.376 253.904,1914.832 253.904,1917.568 C253.904,1918.048 253.856,1918.576 253.76,1919.056 C261.392,1919.248 267.824,1924.816 267.824,1931.776 C267.824,1943.008 253.712,1948.624 244.16,1948.624 C243.44,1948.624 243.056,1948.528 243.056,1948.384 C243.056,1948.192 243.776,1947.904 245.36,1947.472 C254.384,1945.024 262.784,1939.072 262.784,1931.152 C262.784,1925.728 258.704,1921.408 253.184,1921.024 Z M248.576,1921.744 L248.672,1921.504 C245.648,1922.272 242.576,1923.808 239.984,1925.776 C241.28,1929.328 242.864,1931.968 243.536,1932.928 C245.984,1929.04 247.904,1924.672 248.576,1921.744 Z M241.232,1936.288 C239.216,1932.976 238.112,1930.624 237.248,1928.128 C233.456,1932.064 233.264,1935.472 233.264,1936.432 C233.264,1938.976 234.512,1940.512 235.952,1940.512 C236.72,1940.512 238.304,1939.984 241.232,1936.288 Z M318.763143,1913.776 C318.235143,1913.776 317.707143,1913.392 317.227143,1912.528 C316.027143,1910.272 314.683143,1908.928 313.051143,1907.872 C312.571143,1907.536 312.331143,1907.296 312.331143,1907.104 C312.331143,1906.912 312.667143,1906.768 313.099143,1906.768 C313.819143,1906.768 320.395143,1908.016 320.395143,1911.52 C320.395143,1912.72 319.627143,1913.776 318.763143,1913.776 Z M313.483143,1915.984 C312.955143,1915.984 312.379143,1915.6 311.899143,1914.64 C310.747143,1912.288 309.307143,1910.704 307.915143,1909.888 C307.435143,1909.6 307.243143,1909.36 307.243143,1909.168 C307.243143,1908.928 307.483143,1908.784 307.963143,1908.784 C310.027143,1908.784 315.163143,1910.848 315.163143,1913.728 C315.163143,1914.928 314.347143,1915.984 313.483143,1915.984 Z M299.371143,1939.408 C299.179143,1939.552 298.075143,1940.224 296.395143,1940.224 C293.131143,1940.224 290.395143,1937.728 290.395143,1934.128 C290.395143,1930.576 293.419143,1927.504 296.587143,1927.456 C297.691143,1927.456 298.747143,1927.6 299.563143,1928.08 C299.515143,1926.256 299.467143,1923.904 299.419143,1921.648 C295.003143,1922.176 290.587143,1923.376 287.371143,1924.912 C286.315143,1925.44 285.595143,1925.776 284.587143,1925.776 C281.947143,1925.776 277.291143,1923.328 277.291143,1921.36 C277.291143,1921.024 277.723143,1920.16 278.107143,1920.16 C278.299143,1920.16 278.491143,1920.352 278.779143,1920.544 C279.883143,1921.312 281.275143,1921.648 282.763143,1921.648 C283.627143,1921.648 284.491143,1921.552 285.403143,1921.36 C289.147143,1920.688 293.995143,1919.68 299.323143,1919.056 C299.275143,1917.52 299.227143,1916.032 299.179143,1914.832 C299.083143,1913.2 298.603143,1911.184 296.827143,1911.184 L296.443143,1911.184 C295.867143,1911.184 295.435143,1911.088 295.435143,1910.752 C295.435143,1910.224 296.875143,1909.072 298.267143,1909.072 C300.139143,1909.072 304.075143,1911.088 304.075143,1912.768 C304.075143,1913.296 303.835143,1913.824 303.643143,1914.304 C303.259143,1915.264 302.971143,1916.896 302.779143,1918.72 C304.219143,1918.576 305.707143,1918.48 307.195143,1918.432 C308.731143,1918.384 310.267143,1917.712 311.755143,1917.712 C313.099143,1917.712 318.523143,1919.104 318.523143,1921.36 C318.523143,1922.224 317.755143,1922.896 316.363143,1922.896 C315.931143,1922.896 315.499143,1922.848 314.971143,1922.704 C310.651143,1921.6 307.483143,1921.264 304.843143,1921.264 C304.123143,1921.264 303.355143,1921.312 302.587143,1921.36 C302.491143,1922.992 302.443143,1924.672 302.443143,1926.112 C302.443143,1927.552 302.491143,1928.752 302.587143,1929.424 C303.883143,1931.296 304.459143,1933.072 304.459143,1935.184 C304.459143,1946.608 290.251143,1951.216 286.507143,1951.216 C286.123143,1951.216 285.979143,1951.168 285.979143,1951.024 C285.979143,1950.832 286.651143,1950.4 288.043143,1949.872 C292.891143,1948 297.595143,1943.632 299.371143,1939.408 Z M296.779143,1936.672 C299.323143,1936.672 299.803143,1934.8 299.803143,1933.024 C299.803143,1930.336 298.123143,1928.992 296.587143,1928.992 C294.955143,1928.992 293.563143,1930.72 293.563143,1932.88 C293.563143,1934.704 294.475143,1936.672 296.779143,1936.672 Z M349.638381,1916.56 L349.638381,1916.704 C349.638381,1917.376 349.110381,1918.432 347.334381,1918.432 C347.094381,1918.432 346.806381,1918.432 346.518381,1918.384 C345.462381,1918.24 343.686381,1917.856 342.534381,1917.856 C342.006381,1917.856 338.118381,1917.952 338.118381,1921.024 C338.118381,1921.36 338.118381,1921.744 338.214381,1922.128 C338.358381,1922.8 338.550381,1923.952 338.550381,1924.96 C338.550381,1925.344 338.502381,1925.68 338.454381,1925.968 C338.070381,1927.696 337.446381,1931.248 337.446381,1933.36 C337.446381,1933.6 337.494381,1933.84 337.494381,1934.08 C337.494381,1934.224 337.542381,1934.272 337.638381,1934.272 C337.686381,1934.272 337.734381,1934.272 337.830381,1934.224 C339.990381,1933.168 342.438381,1931.776 345.030381,1930.672 C347.430381,1929.616 349.926381,1928.944 352.422381,1928.944 C357.990381,1928.944 362.838381,1932.208 362.838381,1936.672 C362.838381,1941.616 357.174381,1949.248 339.654381,1949.248 C337.302381,1949.248 336.006381,1949.104 336.006381,1948.72 C336.006381,1948.528 336.678381,1948.288 338.118381,1948.192 C345.846381,1947.568 357.414381,1943.056 357.414381,1935.856 C357.414381,1932.208 354.102381,1930.96 351.318381,1930.96 C349.974381,1930.96 348.582381,1931.248 347.430381,1931.92 C344.502381,1933.6 341.574381,1936.24 339.558381,1939.024 C338.838381,1940.032 338.214381,1940.896 336.726381,1940.896 C334.662381,1940.896 332.934381,1939.168 332.934381,1938.112 C332.934381,1937.824 333.030381,1937.536 333.126381,1937.248 C333.462381,1936.336 333.510381,1935.28 333.606381,1934.32 C334.038381,1929.76 335.238381,1924.096 335.718381,1921.84 C336.246381,1919.344 338.550381,1917.376 340.374381,1915.888 C340.470381,1915.792 340.566381,1915.696 340.566381,1915.6 C340.566381,1915.504 340.518381,1915.408 340.422381,1915.36 C337.398381,1913.152 337.206381,1911.088 337.206381,1910.704 C337.206381,1910.464 337.302381,1910.368 337.446381,1910.368 C337.638381,1910.368 338.070381,1910.656 338.598381,1911.088 C340.614381,1912.72 344.454381,1913.296 344.886381,1913.296 C345.174381,1913.296 345.462381,1913.248 345.750381,1913.248 C347.094381,1913.248 349.686381,1914.4 349.686381,1915.84 C349.686381,1916.128 349.638381,1916.368 349.638381,1916.56 Z M409.505619,1935.28 C409.505619,1936.48 402.017619,1949.488 390.305619,1949.488 C380.417619,1949.488 379.745619,1940.8 379.745619,1935.76 C379.745619,1930.672 380.465619,1924.624 380.561619,1919.968 L380.561619,1919.008 C380.561619,1916.56 380.321619,1913.584 378.065619,1913.44 C377.441619,1913.392 377.153619,1913.2 377.153619,1912.96 C377.153619,1912.24 378.641619,1911.568 379.505619,1911.568 C381.425619,1911.568 385.889619,1914.304 385.889619,1917.616 C385.889619,1918.672 385.553619,1919.92 385.169619,1921.648 C384.065619,1926.208 383.393619,1932.544 383.393619,1936.768 C383.393619,1941.856 384.401619,1944.88 390.017619,1944.88 C398.561619,1944.88 406.385619,1937.68 407.633619,1936.48 C408.593619,1935.616 409.169619,1935.136 409.409619,1935.136 C409.457619,1935.136 409.505619,1935.184 409.505619,1935.28 Z M457.708857,1937.152 C457.372857,1937.44 456.844857,1937.776 456.220857,1937.776 C455.692857,1937.776 455.164857,1937.536 454.684857,1936.816 C453.868857,1935.52 453.628857,1932.736 453.100857,1931.104 C451.948857,1927.648 448.828857,1923.472 444.940857,1921.696 C444.316857,1921.408 443.980857,1921.072 443.980857,1920.832 C443.980857,1920.64 444.268857,1920.448 444.796857,1920.448 C444.988857,1920.448 445.276857,1920.496 445.564857,1920.544 C452.908857,1921.696 459.100857,1928.704 459.100857,1933.312 C459.100857,1935.952 458.140857,1936.816 457.708857,1937.152 Z M437.452857,1942.672 C437.452857,1944.592 435.676857,1945.696 433.852857,1945.696 C432.604857,1945.696 428.284857,1944.736 425.692857,1941.088 C423.100857,1937.392 422.284857,1933.36 422.284857,1927.168 C422.284857,1926.64 422.284857,1926.112 422.284857,1925.536 C422.284857,1925.296 422.284857,1925.056 422.284857,1924.864 C422.284857,1921.84 421.948857,1919.44 420.988857,1919.056 C420.556857,1918.864 420.364857,1918.72 420.364857,1918.528 C420.364857,1918.192 421.228857,1917.808 421.852857,1917.808 C423.772857,1917.808 426.988857,1920.976 426.988857,1923.376 C426.988857,1924.192 426.796857,1925.104 426.556857,1926.352 C426.316857,1927.792 426.076857,1929.472 426.076857,1931.152 C426.076857,1939.312 430.780857,1939.744 431.212857,1939.744 C431.932857,1939.744 432.556857,1939.36 433.036857,1938.4 C434.188857,1936.048 435.388857,1932.688 436.540857,1930.48 C436.972857,1929.616 437.308857,1929.184 437.500857,1929.184 C437.596857,1929.184 437.644857,1929.328 437.644857,1929.616 C437.644857,1929.904 437.596857,1930.288 437.500857,1930.816 C437.164857,1932.784 436.684857,1934.896 436.684857,1937.248 C436.684857,1939.216 437.020857,1940.608 437.308857,1941.664 C437.404857,1942 437.452857,1942.336 437.452857,1942.672 Z" id="めずらしい"></path>
        </g>
    </g>
</svg>