<?xml version="1.0" encoding="UTF-8"?>
<svg width="485px" height="96px" viewBox="0 0 485 96" version="1.1" xmlns="http://www.w3.org/2000/svg" xmlns:xlink="http://www.w3.org/1999/xlink">
    <!-- Generator: Sketch 56.2 (81672) - https://sketch.com -->
    <title>txt-keyword</title>
    <desc>Created with Sketch.</desc>
    <defs>
        <polygon id="path-1" points="0.8390628 0.2869608 44.58141 0.2869608 44.58141 42.316271 0.8390628 42.316271"></polygon>
        <polygon id="path-3" points="0.71515392 0.01918408 24.2766192 0.01918408 24.2766192 35.3841273 0.71515392 35.3841273"></polygon>
    </defs>
    <g id="Page-1" stroke="none" stroke-width="1" fill="none" fill-rule="evenodd">
        <g id="top-fix" transform="translate(-103.000000, -1549.000000)">
            <g id="Group-16" transform="translate(103.000000, 1545.000000)">
                <path d="M78.175987,15.85 C78.175987,15.0999963 78.1634871,14.3125041 78.138487,13.4875 C78.1134868,12.6624959 78.0593207,11.8916702 77.975987,11.175 C78.442656,11.2583337 78.8176522,11.3 79.100987,11.3 C79.234321,11.3 79.3801528,11.2875001 79.538487,11.2625 C79.6968211,11.2374999 79.8843192,11.2083335 80.100987,11.175 C80.0509867,11.84167 80.025987,12.50833 80.025987,13.175 L80.075987,13.175 C80.9593247,11.6749925 82.200979,10.925 83.800987,10.925 C84.2176557,10.925 84.625985,10.9874994 85.025987,11.1125 C85.425989,11.2375006 85.7884853,11.4083323 86.113487,11.625 C86.4384886,11.8416677 86.7176525,12.1041651 86.950987,12.4125 C87.1843215,12.7208349 87.3426532,13.0499983 87.425987,13.4 L87.475987,13.4 C87.875989,12.599996 88.4218168,11.9875021 89.113487,11.5625 C89.8051571,11.1374979 90.6009825,10.925 91.500987,10.925 C92.0509897,10.925 92.559318,10.9999992 93.025987,11.15 C93.492656,11.3000008 93.8968186,11.5333318 94.238487,11.85 C94.5801553,12.1666683 94.8468193,12.5749975 95.038487,13.075 C95.2301546,13.5750025 95.325987,14.1749965 95.325987,14.875 C95.325987,15.1583347 95.3176537,15.466665 95.300987,15.8 C95.2843202,16.133335 95.2676537,16.5208311 95.250987,16.9625 C95.2343202,17.4041689 95.2176537,17.9041639 95.200987,18.4625 C95.1843202,19.0208361 95.175987,19.666663 95.175987,20.4 C95.175987,20.8500022 95.1801536,21.2833312 95.188487,21.7 C95.1968203,22.1166687 95.2176535,22.5666643 95.250987,23.05 C95.0676527,23.0166665 94.8843212,23 94.700987,23 L93.625987,23 C93.4426527,23 93.2593212,23.0166665 93.075987,23.05 C93.1259872,22.6333312 93.1801533,21.791673 93.238487,20.525 C93.2968206,19.258327 93.325987,17.491678 93.325987,15.225 C93.325987,14.8083313 93.2801541,14.4166685 93.188487,14.05 C93.0968198,13.6833315 92.950988,13.366668 92.750987,13.1 C92.550986,12.833332 92.284322,12.6208341 91.950987,12.4625 C91.617652,12.3041659 91.2009895,12.225 90.700987,12.225 C90.100984,12.225 89.5926557,12.3416655 89.175987,12.575 C88.7593182,12.8083345 88.4343215,13.0833317 88.200987,13.4 C88.067653,13.5833342 87.9634873,13.7666657 87.888487,13.95 C87.8134866,14.1333343 87.7551538,14.4124981 87.713487,14.7875 C87.6718201,15.1625019 87.6426537,15.6874966 87.625987,16.3625 C87.6093202,17.0375034 87.600987,17.9666608 87.600987,19.15 C87.600987,19.8666702 87.6134868,20.5208304 87.638487,21.1125 C87.6634871,21.7041696 87.6926535,22.3499965 87.725987,23.05 C87.3426517,23.0166665 86.975987,23 86.625987,23 C86.2759852,23 85.9093222,23.0166665 85.525987,23.05 C85.6093207,22.1333288 85.6676535,21.2000048 85.700987,20.25 C85.7343205,19.2999952 85.750987,18.3666712 85.750987,17.45 C85.750987,16.6666628 85.7468203,16.0541689 85.738487,15.6125 C85.7301536,15.1708311 85.7093205,14.8208346 85.675987,14.5625 C85.6426535,14.3041654 85.5968206,14.0916675 85.538487,13.925 C85.4801533,13.7583325 85.4009875,13.575001 85.300987,13.375 C85.1176527,13.0583318 84.8301556,12.7875011 84.438487,12.5625 C84.0468183,12.3374989 83.6426557,12.225 83.225987,12.225 C82.1259815,12.225 81.3176562,12.5833298 80.800987,13.3 C80.2843177,14.0166703 80.025987,15.0249935 80.025987,16.325 L80.025987,18.45 C80.025987,19.2000038 80.0384868,19.9874959 80.063487,20.8125 C80.0884871,21.6375041 80.1426532,22.38333 80.225987,23.05 C79.8426517,23.0166665 79.4676555,23 79.100987,23 C78.7343185,23 78.3593222,23.0166665 77.975987,23.05 C78.0593207,22.38333 78.1134868,21.6375041 78.138487,20.8125 C78.1634871,19.9874959 78.175987,19.2000038 78.175987,18.45 L78.175987,15.85 Z M106.046738,16.825 C105.763403,16.9250005 105.43424,17.008333 105.059238,17.075 C104.684236,17.141667 104.305073,17.2124996 103.921738,17.2875 C103.538403,17.3625004 103.15924,17.4583327 102.784238,17.575 C102.409236,17.6916673 102.075906,17.849999 101.784238,18.05 C101.49257,18.250001 101.259239,18.4999985 101.084238,18.8 C100.909237,19.1000015 100.821738,19.483331 100.821738,19.95 C100.821738,20.7333372 101.046736,21.325 101.496738,21.725 C101.94674,22.125002 102.446735,22.325 102.996738,22.325 C103.630075,22.325 104.209235,22.1500018 104.734238,21.8 C105.259241,21.4499983 105.663403,21.041669 105.946738,20.575 L106.046738,16.825 Z M99.871738,12.375 C100.621742,11.8083305 101.313402,11.425 101.946738,11.225 C102.580075,11.024999 103.230068,10.925 103.896738,10.925 C104.496741,10.925 105.046736,11.0124991 105.546738,11.1875 C106.046741,11.3625009 106.471736,11.6124984 106.821738,11.9375 C107.17174,12.2625016 107.446737,12.6541644 107.646738,13.1125 C107.846739,13.5708356 107.946738,14.0749972 107.946738,14.625 C107.946738,15.5750048 107.930072,16.5208286 107.896738,17.4625 C107.863405,18.4041714 107.846738,19.3999947 107.846738,20.45 C107.846738,20.650001 107.850905,20.8624989 107.859238,21.0875 C107.867571,21.3125011 107.905071,21.5124991 107.971738,21.6875 C108.038405,21.8625009 108.134237,22.0083328 108.259238,22.125 C108.384239,22.2416672 108.571737,22.3 108.821738,22.3 C108.905072,22.3 108.992571,22.2958334 109.084238,22.2875 C109.175905,22.2791666 109.263404,22.2500002 109.346738,22.2 L109.346738,22.75 C109.163404,22.8333338 108.934239,22.8999997 108.659238,22.95 C108.384237,23.0000002 108.080073,23.025 107.746738,23.025 C107.213402,23.025 106.805073,22.8875014 106.521738,22.6125 C106.238403,22.3374986 106.071738,21.9833355 106.021738,21.55 C105.421735,22.150003 104.830074,22.5916652 104.246738,22.875 C103.663402,23.1583348 102.946742,23.3 102.096738,23.3 C101.680069,23.3 101.271738,23.2416672 100.871738,23.125 C100.471736,23.0083328 100.117573,22.816668 99.809238,22.55 C99.5009032,22.283332 99.2509057,21.9625019 99.059238,21.5875 C98.8675704,21.2124981 98.771738,20.7833357 98.771738,20.3 C98.771738,19.299995 99.0842349,18.5250027 99.709238,17.975 C100.334241,17.425 101.196733,17.0583343 102.296738,16.875 C103.196743,16.7249992 103.900902,16.5958339 104.409238,16.4875 C104.917574,16.3791661 105.29257,16.2666672 105.534238,16.15 C105.775906,16.0333327 105.921738,15.8958341 105.971738,15.7375 C106.021738,15.5791659 106.046738,15.3750013 106.046738,15.125 C106.046738,14.7083313 105.996739,14.3083352 105.896738,13.925 C105.796738,13.5416648 105.638406,13.2083347 105.421738,12.925 C105.20507,12.6416652 104.92174,12.4125009 104.571738,12.2375 C104.221736,12.0624991 103.796741,11.975 103.296738,11.975 C102.630068,11.975 102.009241,12.1249985 101.434238,12.425 C100.859235,12.7250015 100.430073,13.141664 100.146738,13.675 L99.871738,13.675 L99.871738,12.375 Z M112.842489,15.85 C112.842489,15.0999963 112.829989,14.3125041 112.804989,13.4875 C112.779989,12.6624959 112.725823,11.8916702 112.642489,11.175 C113.109158,11.2583337 113.484154,11.3 113.767489,11.3 C113.900823,11.3 114.046655,11.2875001 114.204989,11.2625 C114.363323,11.2374999 114.550821,11.2083335 114.767489,11.175 C114.717489,11.84167 114.692489,12.50833 114.692489,13.175 L114.742489,13.175 C115.625827,11.6749925 116.867481,10.925 118.467489,10.925 C118.884158,10.925 119.292487,10.9874994 119.692489,11.1125 C120.092491,11.2375006 120.454988,11.4083323 120.779989,11.625 C121.104991,11.8416677 121.384155,12.1041651 121.617489,12.4125 C121.850824,12.7208349 122.009155,13.0499983 122.092489,13.4 L122.142489,13.4 C122.542491,12.599996 123.088319,11.9875021 123.779989,11.5625 C124.471659,11.1374979 125.267485,10.925 126.167489,10.925 C126.717492,10.925 127.22582,10.9999992 127.692489,11.15 C128.159158,11.3000008 128.563321,11.5333318 128.904989,11.85 C129.246658,12.1666683 129.513322,12.5749975 129.704989,13.075 C129.896657,13.5750025 129.992489,14.1749965 129.992489,14.875 C129.992489,15.1583347 129.984156,15.466665 129.967489,15.8 C129.950822,16.133335 129.934156,16.5208311 129.917489,16.9625 C129.900822,17.4041689 129.884156,17.9041639 129.867489,18.4625 C129.850822,19.0208361 129.842489,19.666663 129.842489,20.4 C129.842489,20.8500022 129.846656,21.2833312 129.854989,21.7 C129.863323,22.1166687 129.884156,22.5666643 129.917489,23.05 C129.734155,23.0166665 129.550823,23 129.367489,23 L128.292489,23 C128.109155,23 127.925823,23.0166665 127.742489,23.05 C127.792489,22.6333312 127.846656,21.791673 127.904989,20.525 C127.963323,19.258327 127.992489,17.491678 127.992489,15.225 C127.992489,14.8083313 127.946656,14.4166685 127.854989,14.05 C127.763322,13.6833315 127.61749,13.366668 127.417489,13.1 C127.217488,12.833332 126.950824,12.6208341 126.617489,12.4625 C126.284154,12.3041659 125.867492,12.225 125.367489,12.225 C124.767486,12.225 124.259158,12.3416655 123.842489,12.575 C123.42582,12.8083345 123.100824,13.0833317 122.867489,13.4 C122.734155,13.5833342 122.62999,13.7666657 122.554989,13.95 C122.479989,14.1333343 122.421656,14.4124981 122.379989,14.7875 C122.338322,15.1625019 122.309156,15.6874966 122.292489,16.3625 C122.275822,17.0375034 122.267489,17.9666608 122.267489,19.15 C122.267489,19.8666702 122.279989,20.5208304 122.304989,21.1125 C122.329989,21.7041696 122.359156,22.3499965 122.392489,23.05 C122.009154,23.0166665 121.642489,23 121.292489,23 C120.942487,23 120.575824,23.0166665 120.192489,23.05 C120.275823,22.1333288 120.334156,21.2000048 120.367489,20.25 C120.400823,19.2999952 120.417489,18.3666712 120.417489,17.45 C120.417489,16.6666628 120.413323,16.0541689 120.404989,15.6125 C120.396656,15.1708311 120.375823,14.8208346 120.342489,14.5625 C120.309156,14.3041654 120.263323,14.0916675 120.204989,13.925 C120.146656,13.7583325 120.06749,13.575001 119.967489,13.375 C119.784155,13.0583318 119.496658,12.7875011 119.104989,12.5625 C118.713321,12.3374989 118.309158,12.225 117.892489,12.225 C116.792484,12.225 115.984158,12.5833298 115.467489,13.3 C114.95082,14.0166703 114.692489,15.0249935 114.692489,16.325 L114.692489,18.45 C114.692489,19.2000038 114.704989,19.9874959 114.729989,20.8125 C114.754989,21.6375041 114.809155,22.38333 114.892489,23.05 C114.509154,23.0166665 114.134158,23 113.767489,23 C113.400821,23 113.025824,23.0166665 112.642489,23.05 C112.725823,22.38333 112.779989,21.6375041 112.804989,20.8125 C112.829989,19.9874959 112.842489,19.2000038 112.842489,18.45 L112.842489,15.85 Z M139.03824,11.725 C138.42157,11.725 137.900742,11.8666653 137.47574,12.15 C137.050738,12.4333348 136.700742,12.7874979 136.42574,13.2125 C136.150739,13.6375021 135.942408,14.1041641 135.80074,14.6125 C135.659073,15.1208359 135.571574,15.5999977 135.53824,16.05 C136.054909,16.0666667 136.592404,16.0833332 137.15074,16.1 C137.709076,16.1166668 138.254904,16.125 138.78824,16.125 C139.338243,16.125 139.896571,16.1166668 140.46324,16.1 C141.02991,16.0833332 141.579904,16.0666667 142.11324,16.05 C142.11324,15.5999977 142.075741,15.1250025 142.00074,14.625 C141.92574,14.1249975 141.775741,13.6583355 141.55074,13.225 C141.325739,12.7916645 141.013242,12.4333348 140.61324,12.15 C140.213238,11.8666653 139.688243,11.725 139.03824,11.725 Z M133.26324,17.5 C133.26324,15.4499898 133.750735,13.8416725 134.72574,12.675 C135.700745,11.5083275 137.121564,10.925 138.98824,10.925 C139.871578,10.925 140.63407,11.0624986 141.27574,11.3375 C141.91741,11.6125014 142.454905,11.9791644 142.88824,12.4375 C143.321576,12.8958356 143.642406,13.4333302 143.85074,14.05 C144.059075,14.6666697 144.16324,15.3249965 144.16324,16.025 C144.16324,16.1916675 144.159074,16.3541659 144.15074,16.5125 C144.142407,16.6708341 144.129907,16.8333325 144.11324,17 C143.213236,16.9833333 142.321578,16.9666667 141.43824,16.95 C140.554902,16.9333333 139.663245,16.925 138.76324,16.925 C138.213237,16.925 137.66741,16.9333333 137.12574,16.95 C136.584071,16.9666667 136.038243,16.9833333 135.48824,17 C135.471573,17.0833338 135.46324,17.2083325 135.46324,17.375 L135.46324,17.7 C135.46324,18.3500033 135.559073,18.9583305 135.75074,19.525 C135.942408,20.0916695 136.221572,20.5791646 136.58824,20.9875 C136.954909,21.3958354 137.404904,21.7208321 137.93824,21.9625 C138.471576,22.2041679 139.088237,22.325 139.78824,22.325 C140.121575,22.325 140.463238,22.2791671 140.81324,22.1875 C141.163242,22.0958329 141.504905,21.9708341 141.83824,21.8125 C142.171575,21.6541659 142.484072,21.4666677 142.77574,21.25 C143.067408,21.0333323 143.321572,20.8000013 143.53824,20.55 L143.66324,20.625 L143.51324,21.85 C143.013238,22.250002 142.392411,22.5916652 141.65074,22.875 C140.90907,23.1583348 140.138244,23.3 139.33824,23.3 C138.438236,23.3 137.617411,23.1625014 136.87574,22.8875 C136.13407,22.6124986 135.49241,22.2125026 134.95074,21.6875 C134.409071,21.1624974 133.992408,20.5416702 133.70074,19.825 C133.409072,19.1083297 133.26324,18.3333375 133.26324,17.5 Z M147.333991,20.725 C147.417325,20.8916675 147.54649,21.074999 147.721491,21.275 C147.896492,21.475001 148.104823,21.6624991 148.346491,21.8375 C148.588159,22.0125009 148.863156,22.1583327 149.171491,22.275 C149.479826,22.3916673 149.80899,22.45 150.158991,22.45 C150.47566,22.45 150.779823,22.4000005 151.071491,22.3 C151.363159,22.1999995 151.62149,22.0583343 151.846491,21.875 C152.071492,21.6916657 152.250657,21.4583347 152.383991,21.175 C152.517325,20.8916653 152.583991,20.5666685 152.583991,20.2 C152.583991,19.6833307 152.438159,19.2875014 152.146491,19.0125 C151.854823,18.7374986 151.492327,18.5125009 151.058991,18.3375 C150.625656,18.1624991 150.150661,18.008334 149.633991,17.875 C149.117322,17.741666 148.642327,17.5541679 148.208991,17.3125 C147.775656,17.0708321 147.413159,16.750002 147.121491,16.35 C146.829823,15.949998 146.683991,15.4000035 146.683991,14.7 C146.683991,14.1499973 146.775657,13.6458356 146.958991,13.1875 C147.142326,12.7291644 147.40899,12.333335 147.758991,12 C148.108993,11.666665 148.542322,11.4041676 149.058991,11.2125 C149.575661,11.0208324 150.167321,10.925 150.833991,10.925 C151.450661,10.925 151.971489,11.0083325 152.396491,11.175 C152.821493,11.3416675 153.225656,11.491666 153.608991,11.625 C153.475657,11.8750013 153.350659,12.1833315 153.233991,12.55 C153.117324,12.9166685 153.042325,13.199999 153.008991,13.4 L152.708991,13.4 C152.575657,12.999998 152.317327,12.6416682 151.933991,12.325 C151.550656,12.0083317 151.075661,11.85 150.508991,11.85 C150.25899,11.85 150.008993,11.8916663 149.758991,11.975 C149.50899,12.0583338 149.283992,12.1833325 149.083991,12.35 C148.88399,12.5166675 148.717325,12.733332 148.583991,13 C148.450657,13.266668 148.383991,13.5833315 148.383991,13.95 C148.383991,14.483336 148.529823,14.8958319 148.821491,15.1875 C149.113159,15.4791681 149.475656,15.7083325 149.908991,15.875 C150.342327,16.0416675 150.817322,16.1874994 151.333991,16.3125 C151.850661,16.4375006 152.325656,16.6124989 152.758991,16.8375 C153.192327,17.0625011 153.554823,17.374998 153.846491,17.775 C154.138159,18.175002 154.283991,18.7249965 154.283991,19.425 C154.283991,19.9083357 154.179826,20.383331 153.971491,20.85 C153.763157,21.316669 153.46316,21.7374981 153.071491,22.1125 C152.679823,22.4875019 152.208994,22.7791656 151.658991,22.9875 C151.108989,23.1958344 150.483995,23.3 149.783991,23.3 C149.017321,23.3 148.375661,23.2250007 147.858991,23.075 C147.342322,22.925 146.908993,22.750001 146.558991,22.55 C146.658992,22.3333322 146.763157,22.0375019 146.871491,21.6625 C146.979825,21.2874981 147.033991,20.9750012 147.033991,20.725 L147.333991,20.725 Z M160.129742,7.825 C160.079742,8.4583365 160.042243,9.07916362 160.017242,9.6875 C159.992242,10.2958364 159.963076,10.9083302 159.929742,11.525 C160.113077,11.525 160.45474,11.5208334 160.954742,11.5125 C161.454745,11.5041666 161.996406,11.4833335 162.579742,11.45 C162.563076,11.5000002 162.554742,11.591666 162.554742,11.725 L162.554742,12.25 C162.554742,12.3666672 162.563076,12.4499997 162.579742,12.5 C162.363075,12.4833333 162.138077,12.4708334 161.904742,12.4625 C161.671408,12.4541666 161.42141,12.45 161.154742,12.45 L159.929742,12.45 C159.913076,12.516667 159.892243,12.783331 159.867242,13.25 C159.842242,13.716669 159.821409,14.2708301 159.804742,14.9125 C159.788076,15.5541699 159.775576,16.2249965 159.767242,16.925 C159.758909,17.6250035 159.754742,18.2499972 159.754742,18.8 C159.754742,19.266669 159.767242,19.7249977 159.792242,20.175 C159.817243,20.6250023 159.896408,21.0291649 160.029742,21.3875 C160.163076,21.7458351 160.363074,22.0333323 160.629742,22.25 C160.89641,22.4666677 161.27974,22.575 161.779742,22.575 C161.913076,22.575 162.092241,22.5583335 162.317242,22.525 C162.542244,22.4916665 162.738075,22.4500002 162.904742,22.4 L162.904742,23 C162.621408,23.0500003 162.308911,23.1124996 161.967242,23.1875 C161.625574,23.2625004 161.296411,23.3 160.979742,23.3 C159.929737,23.3 159.154745,23.0416692 158.654742,22.525 C158.15474,22.0083307 157.904742,21.250005 157.904742,20.25 C157.904742,19.7999977 157.913076,19.3125026 157.929742,18.7875 C157.946409,18.2624974 157.967242,17.6875031 157.992242,17.0625 C158.017243,16.4374969 158.038076,15.7458371 158.054742,14.9875 C158.071409,14.2291629 158.079742,13.383338 158.079742,12.45 L157.279742,12.45 C157.146408,12.45 157.004743,12.4541666 156.854742,12.4625 C156.704742,12.4708334 156.54641,12.4833333 156.379742,12.5 C156.396409,12.3999995 156.408909,12.3041671 156.417242,12.2125 C156.425576,12.1208329 156.429742,12.0250005 156.429742,11.925 C156.429742,11.8416662 156.425576,11.7583337 156.417242,11.675 C156.408909,11.5916662 156.396409,11.5083337 156.379742,11.425 C157.129746,11.4750003 157.679741,11.5 158.029742,11.5 C158.013076,11.166665 158.000576,10.7500025 157.992242,10.25 C157.983909,9.7499975 157.963076,9.233336 157.929742,8.7 L160.004742,7.825 L160.129742,7.825 Z M171.200493,13.225 C171.11716,13.1249995 170.954661,13.0333338 170.712993,12.95 C170.471326,12.8666662 170.225495,12.825 169.975493,12.825 C169.575491,12.825 169.217162,12.9166657 168.900493,13.1 C168.583825,13.2833343 168.317161,13.5291651 168.100493,13.8375 C167.883826,14.1458349 167.717161,14.5124979 167.600493,14.9375 C167.483826,15.3625021 167.425493,15.8166643 167.425493,16.3 L167.425493,19.05 C167.425493,20.1666722 167.42966,21.0208304 167.437993,21.6125 C167.446327,22.2041696 167.475493,22.6833315 167.525493,23.05 C167.192158,23.0166665 166.858828,23 166.525493,23 C166.158825,23 165.808828,23.0166665 165.475493,23.05 C165.525494,22.4833305 165.55466,21.7125049 165.562993,20.7375 C165.571327,19.7624951 165.575493,18.5666737 165.575493,17.15 L165.575493,16.35 C165.575493,15.6999968 165.571327,14.9500042 165.562993,14.1 C165.55466,13.2499958 165.525494,12.2750055 165.475493,11.175 C165.658828,11.2083335 165.833826,11.2374999 166.000493,11.2625 C166.167161,11.2875001 166.342159,11.3 166.525493,11.3 C166.675494,11.3 166.833826,11.2875001 167.000493,11.2625 C167.167161,11.2374999 167.342159,11.2083335 167.525493,11.175 C167.458826,11.775003 167.421327,12.2499983 167.412993,12.6 C167.40466,12.9500017 167.400493,13.2833318 167.400493,13.6 L167.450493,13.625 C168.433832,11.824991 169.533821,10.925 170.750493,10.925 C170.900494,10.925 171.02966,10.9333332 171.137993,10.95 C171.246327,10.9666668 171.383826,11.008333 171.550493,11.075 C171.46716,11.275001 171.41716,11.5791646 171.400493,11.9875 C171.383827,12.3958354 171.375493,12.766665 171.375493,13.1 L171.200493,13.225 Z M175.646245,17.15 C175.646245,17.8500035 175.708744,18.5249967 175.833745,19.175 C175.958745,19.8250033 176.171243,20.4041641 176.471245,20.9125 C176.771246,21.4208359 177.171242,21.8249985 177.671245,22.125 C178.171247,22.4250015 178.787908,22.575 179.521245,22.575 C180.254582,22.575 180.871242,22.4250015 181.371245,22.125 C181.871247,21.8249985 182.271243,21.4208359 182.571245,20.9125 C182.871246,20.4041641 183.083744,19.8250033 183.208745,19.175 C183.333745,18.5249967 183.396245,17.8500035 183.396245,17.15 C183.396245,16.4499965 183.333745,15.7750033 183.208745,15.125 C183.083744,14.4749967 182.871246,13.8958359 182.571245,13.3875 C182.271243,12.8791641 181.871247,12.4750015 181.371245,12.175 C180.871242,11.8749985 180.254582,11.725 179.521245,11.725 C178.787908,11.725 178.171247,11.8749985 177.671245,12.175 C177.171242,12.4750015 176.771246,12.8791641 176.471245,13.3875 C176.171243,13.8958359 175.958745,14.4749967 175.833745,15.125 C175.708744,15.7750033 175.646245,16.4499965 175.646245,17.15 Z M173.446245,17.15 C173.446245,16.016661 173.625409,15.0541706 173.983745,14.2625 C174.34208,13.4708294 174.812908,12.8291691 175.396245,12.3375 C175.979581,11.8458309 176.633741,11.4875011 177.358745,11.2625 C178.083748,11.0374989 178.804574,10.925 179.521245,10.925 C180.254582,10.925 180.979574,11.0374989 181.696245,11.2625 C182.412915,11.4875011 183.062908,11.8458309 183.646245,12.3375 C184.229581,12.8291691 184.700409,13.4708294 185.058745,14.2625 C185.41708,15.0541706 185.596245,16.016661 185.596245,17.15 C185.596245,18.283339 185.41708,19.2458294 185.058745,20.0375 C184.700409,20.8291706 184.229581,21.4708309 183.646245,21.9625 C183.062908,22.4541691 182.412915,22.799999 181.696245,23 C180.979574,23.200001 180.254582,23.3 179.521245,23.3 C178.804574,23.3 178.083748,23.200001 177.358745,23 C176.633741,22.799999 175.979581,22.4541691 175.396245,21.9625 C174.812908,21.4708309 174.34208,20.8291706 173.983745,20.0375 C173.625409,19.2458294 173.446245,18.283339 173.446245,17.15 Z M196.387747,18.45 C196.387747,17.8833305 196.38358,17.26667 196.375247,16.6 C196.366913,15.93333 196.354413,15.2708366 196.337747,14.6125 C196.32108,13.9541634 196.300247,13.325003 196.275247,12.725 C196.250247,12.124997 196.22108,11.6083355 196.187747,11.175 C196.654416,11.2583337 197.029412,11.3 197.312747,11.3 C197.596081,11.3 197.971078,11.2583337 198.437747,11.175 C198.37108,11.6083355 198.32108,12.024998 198.287747,12.425 C198.254413,12.825002 198.237747,13.224998 198.237747,13.625 L198.287747,13.625 C198.404414,13.358332 198.571079,13.0708349 198.787747,12.7625 C199.004414,12.4541651 199.283578,12.1625014 199.625247,11.8875 C199.966915,11.6124986 200.379411,11.3833343 200.862747,11.2 C201.346082,11.0166657 201.896077,10.925 202.512747,10.925 C203.146083,10.925 203.771077,11.0458321 204.387747,11.2875 C205.004416,11.5291679 205.550244,11.8999975 206.025247,12.4 C206.500249,12.9000025 206.883579,13.5374961 207.175247,14.3125 C207.466915,15.0875039 207.612747,16.008328 207.612747,17.075 C207.612747,18.141672 207.454415,19.0666627 207.137747,19.85 C206.821078,20.6333373 206.408583,21.2833308 205.900247,21.8 C205.391911,22.3166693 204.81275,22.6958321 204.162747,22.9375 C203.512743,23.1791679 202.86275,23.3 202.212747,23.3 C200.379404,23.3 199.071084,22.5083413 198.287747,20.925 L198.237747,20.925 L198.237747,22.5 C198.237747,23.033336 198.241913,23.6291634 198.250247,24.2875 C198.25858,24.9458366 198.27108,25.5999968 198.287747,26.25 C198.304413,26.9000033 198.325247,27.5208304 198.350247,28.1125 C198.375247,28.7041696 198.404413,29.2083313 198.437747,29.625 C197.971078,29.5416662 197.596081,29.5 197.312747,29.5 C197.029412,29.5 196.654416,29.5416662 196.187747,29.625 C196.22108,29.2083313 196.250247,28.7041696 196.275247,28.1125 C196.300247,27.5208304 196.32108,26.9000033 196.337747,26.25 C196.354413,25.5999968 196.366913,24.9458366 196.375247,24.2875 C196.38358,23.6291634 196.387747,23.033336 196.387747,22.5 L196.387747,18.45 Z M205.412747,17.05 C205.412747,16.049995 205.308581,15.2250033 205.100247,14.575 C204.891912,13.9249968 204.625248,13.4041686 204.300247,13.0125 C203.975245,12.6208314 203.604415,12.3500007 203.187747,12.2 C202.771078,12.0499992 202.362749,11.975 201.962747,11.975 C201.296077,11.975 200.725249,12.1166653 200.250247,12.4 C199.775244,12.6833348 199.387748,13.0624976 199.087747,13.5375 C198.787745,14.0125024 198.571081,14.5708301 198.437747,15.2125 C198.304413,15.8541699 198.237747,16.5333298 198.237747,17.25 C198.237747,20.716684 199.454401,22.45 201.887747,22.45 C202.48775,22.45 203.008578,22.3125014 203.450247,22.0375 C203.891916,21.7624986 204.258579,21.3791691 204.550247,20.8875 C204.841915,20.3958309 205.058579,19.8208366 205.200247,19.1625 C205.341914,18.5041634 205.412747,17.8000038 205.412747,17.05 Z M216.958498,13.225 C216.875164,13.1249995 216.712666,13.0333338 216.470998,12.95 C216.22933,12.8666662 215.983499,12.825 215.733498,12.825 C215.333496,12.825 214.975166,12.9166657 214.658498,13.1 C214.34183,13.2833343 214.075166,13.5291651 213.858498,13.8375 C213.64183,14.1458349 213.475165,14.5124979 213.358498,14.9375 C213.241831,15.3625021 213.183498,15.8166643 213.183498,16.3 L213.183498,19.05 C213.183498,20.1666722 213.187664,21.0208304 213.195998,21.6125 C213.204331,22.2041696 213.233498,22.6833315 213.283498,23.05 C212.950163,23.0166665 212.616833,23 212.283498,23 C211.916829,23 211.566833,23.0166665 211.233498,23.05 C211.283498,22.4833305 211.312664,21.7125049 211.320998,20.7375 C211.329331,19.7624951 211.333498,18.5666737 211.333498,17.15 L211.333498,16.35 C211.333498,15.6999968 211.329331,14.9500042 211.320998,14.1 C211.312664,13.2499958 211.283498,12.2750055 211.233498,11.175 C211.416832,11.2083335 211.59183,11.2374999 211.758498,11.2625 C211.925165,11.2875001 212.100164,11.3 212.283498,11.3 C212.433499,11.3 212.59183,11.2875001 212.758498,11.2625 C212.925165,11.2374999 213.100164,11.2083335 213.283498,11.175 C213.216831,11.775003 213.179331,12.2499983 213.170998,12.6 C213.162664,12.9500017 213.158498,13.2833318 213.158498,13.6 L213.208498,13.625 C214.191836,11.824991 215.291825,10.925 216.508498,10.925 C216.658499,10.925 216.787664,10.9333332 216.895998,10.95 C217.004332,10.9666668 217.14183,11.008333 217.308498,11.075 C217.225164,11.275001 217.175165,11.5791646 217.158498,11.9875 C217.141831,12.3958354 217.133498,12.766665 217.133498,13.1 L216.958498,13.225 Z M224.979249,11.725 C224.362579,11.725 223.841751,11.8666653 223.416749,12.15 C222.991747,12.4333348 222.64175,12.7874979 222.366749,13.2125 C222.091748,13.6375021 221.883416,14.1041641 221.741749,14.6125 C221.600082,15.1208359 221.512582,15.5999977 221.479249,16.05 C221.995918,16.0666667 222.533413,16.0833332 223.091749,16.1 C223.650085,16.1166668 224.195913,16.125 224.729249,16.125 C225.279252,16.125 225.837579,16.1166668 226.404249,16.1 C226.970918,16.0833332 227.520913,16.0666667 228.054249,16.05 C228.054249,15.5999977 228.016749,15.1250025 227.941749,14.625 C227.866749,14.1249975 227.71675,13.6583355 227.491749,13.225 C227.266748,12.7916645 226.954251,12.4333348 226.554249,12.15 C226.154247,11.8666653 225.629252,11.725 224.979249,11.725 Z M219.204249,17.5 C219.204249,15.4499898 219.691744,13.8416725 220.666749,12.675 C221.641754,11.5083275 223.062573,10.925 224.929249,10.925 C225.812587,10.925 226.575079,11.0624986 227.216749,11.3375 C227.858419,11.6125014 228.395913,11.9791644 228.829249,12.4375 C229.262584,12.8958356 229.583415,13.4333302 229.791749,14.05 C230.000083,14.6666697 230.104249,15.3249965 230.104249,16.025 C230.104249,16.1916675 230.100082,16.3541659 230.091749,16.5125 C230.083416,16.6708341 230.070916,16.8333325 230.054249,17 C229.154244,16.9833333 228.262587,16.9666667 227.379249,16.95 C226.495911,16.9333333 225.604253,16.925 224.704249,16.925 C224.154246,16.925 223.608418,16.9333333 223.066749,16.95 C222.52508,16.9666667 221.979252,16.9833333 221.429249,17 C221.412582,17.0833338 221.404249,17.2083325 221.404249,17.375 L221.404249,17.7 C221.404249,18.3500033 221.500081,18.9583305 221.691749,19.525 C221.883417,20.0916695 222.16258,20.5791646 222.529249,20.9875 C222.895917,21.3958354 223.345913,21.7208321 223.879249,21.9625 C224.412585,22.2041679 225.029245,22.325 225.729249,22.325 C226.062584,22.325 226.404247,22.2791671 226.754249,22.1875 C227.104251,22.0958329 227.445914,21.9708341 227.779249,21.8125 C228.112584,21.6541659 228.425081,21.4666677 228.716749,21.25 C229.008417,21.0333323 229.262581,20.8000013 229.479249,20.55 L229.604249,20.625 L229.454249,21.85 C228.954246,22.250002 228.333419,22.5916652 227.591749,22.875 C226.850079,23.1583348 226.079253,23.3 225.279249,23.3 C224.379244,23.3 223.558419,23.1625014 222.816749,22.8875 C222.075079,22.6124986 221.433418,22.2125026 220.891749,21.6875 C220.35008,21.1624974 219.933417,20.5416702 219.641749,19.825 C219.350081,19.1083297 219.204249,18.3333375 219.204249,17.5 Z M233.45,15.85 C233.45,15.0999963 233.4375,14.3125041 233.4125,13.4875 C233.3875,12.6624959 233.333334,11.8916702 233.25,11.175 C233.716669,11.2583337 234.091665,11.3 234.375,11.3 C234.508334,11.3 234.654166,11.2875001 234.8125,11.2625 C234.970834,11.2374999 235.158332,11.2083335 235.375,11.175 C235.325,11.84167 235.3,12.50833 235.3,13.175 L235.35,13.175 C236.233338,11.6749925 237.474992,10.925 239.075,10.925 C239.491669,10.925 239.899998,10.9874994 240.3,11.1125 C240.700002,11.2375006 241.062498,11.4083323 241.3875,11.625 C241.712502,11.8416677 241.991666,12.1041651 242.225,12.4125 C242.458335,12.7208349 242.616666,13.0499983 242.7,13.4 L242.75,13.4 C243.150002,12.599996 243.69583,11.9875021 244.3875,11.5625 C245.07917,11.1374979 245.874996,10.925 246.775,10.925 C247.325003,10.925 247.833331,10.9999992 248.3,11.15 C248.766669,11.3000008 249.170832,11.5333318 249.5125,11.85 C249.854168,12.1666683 250.120832,12.5749975 250.3125,13.075 C250.504168,13.5750025 250.6,14.1749965 250.6,14.875 C250.6,15.1583347 250.591667,15.466665 250.575,15.8 C250.558333,16.133335 250.541667,16.5208311 250.525,16.9625 C250.508333,17.4041689 250.491667,17.9041639 250.475,18.4625 C250.458333,19.0208361 250.45,19.666663 250.45,20.4 C250.45,20.8500022 250.454167,21.2833312 250.4625,21.7 C250.470833,22.1166687 250.491667,22.5666643 250.525,23.05 C250.341666,23.0166665 250.158334,23 249.975,23 L248.9,23 C248.716666,23 248.533334,23.0166665 248.35,23.05 C248.4,22.6333312 248.454166,21.791673 248.5125,20.525 C248.570834,19.258327 248.6,17.491678 248.6,15.225 C248.6,14.8083313 248.554167,14.4166685 248.4625,14.05 C248.370833,13.6833315 248.225001,13.366668 248.025,13.1 C247.824999,12.833332 247.558335,12.6208341 247.225,12.4625 C246.891665,12.3041659 246.475003,12.225 245.975,12.225 C245.374997,12.225 244.866669,12.3416655 244.45,12.575 C244.033331,12.8083345 243.708335,13.0833317 243.475,13.4 C243.341666,13.5833342 243.2375,13.7666657 243.1625,13.95 C243.0875,14.1333343 243.029167,14.4124981 242.9875,14.7875 C242.945833,15.1625019 242.916667,15.6874966 242.9,16.3625 C242.883333,17.0375034 242.875,17.9666608 242.875,19.15 C242.875,19.8666702 242.8875,20.5208304 242.9125,21.1125 C242.9375,21.7041696 242.966667,22.3499965 243,23.05 C242.616665,23.0166665 242.25,23 241.9,23 C241.549998,23 241.183335,23.0166665 240.8,23.05 C240.883334,22.1333288 240.941667,21.2000048 240.975,20.25 C241.008334,19.2999952 241.025,18.3666712 241.025,17.45 C241.025,16.6666628 241.020833,16.0541689 241.0125,15.6125 C241.004167,15.1708311 240.983334,14.8208346 240.95,14.5625 C240.916667,14.3041654 240.870834,14.0916675 240.8125,13.925 C240.754166,13.7583325 240.675001,13.575001 240.575,13.375 C240.391666,13.0583318 240.104169,12.7875011 239.7125,12.5625 C239.320831,12.3374989 238.916669,12.225 238.5,12.225 C237.399995,12.225 236.591669,12.5833298 236.075,13.3 C235.558331,14.0166703 235.3,15.0249935 235.3,16.325 L235.3,18.45 C235.3,19.2000038 235.3125,19.9874959 235.3375,20.8125 C235.3625,21.6375041 235.416666,22.38333 235.5,23.05 C235.116665,23.0166665 234.741669,23 234.375,23 C234.008332,23 233.633335,23.0166665 233.25,23.05 C233.333334,22.38333 233.3875,21.6375041 233.4125,20.8125 C233.4375,19.9874959 233.45,19.2000038 233.45,18.45 L233.45,15.85 Z M255.195751,6.825 C255.195751,6.47499825 255.32075,6.17500125 255.570751,5.925 C255.820752,5.67499875 256.120749,5.55 256.470751,5.55 C256.820753,5.55 257.12075,5.67499875 257.370751,5.925 C257.620752,6.17500125 257.745751,6.47499825 257.745751,6.825 C257.745751,7.17500175 257.620752,7.47499875 257.370751,7.725 C257.12075,7.97500125 256.820753,8.1 256.470751,8.1 C256.120749,8.1 255.820752,7.97500125 255.570751,7.725 C255.32075,7.47499875 255.195751,7.17500175 255.195751,6.825 Z M255.545751,15.85 C255.545751,15.0999963 255.533251,14.3125041 255.508251,13.4875 C255.483251,12.6624959 255.429085,11.8916702 255.345751,11.175 C255.81242,11.2583337 256.187416,11.3 256.470751,11.3 C256.754086,11.3 257.129082,11.2583337 257.595751,11.175 C257.512417,11.8916702 257.458251,12.6624959 257.433251,13.4875 C257.408251,14.3125041 257.395751,15.0999963 257.395751,15.85 L257.395751,18.45 C257.395751,19.2000038 257.408251,19.9874959 257.433251,20.8125 C257.458251,21.6375041 257.512417,22.38333 257.595751,23.05 C257.212416,23.0166665 256.83742,23 256.470751,23 C256.104083,23 255.729086,23.0166665 255.345751,23.05 C255.429085,22.38333 255.483251,21.6375041 255.508251,20.8125 C255.533251,19.9874959 255.545751,19.2000038 255.545751,18.45 L255.545751,15.85 Z M262.516502,19.275 C262.516502,18.3916622 262.529002,17.6375031 262.554002,17.0125 C262.579002,16.3874969 262.591502,15.7666697 262.591502,15.15 C262.591502,14.5666638 262.587336,13.9333367 262.579002,13.25 C262.570669,12.5666633 262.558169,11.8750035 262.541502,11.175 C262.958171,11.2583337 263.308167,11.3 263.591502,11.3 C263.85817,11.3 264.199833,11.2583337 264.616502,11.175 C264.533168,12.175 264.470669,13.2708274 264.429002,14.4625 C264.387335,15.6541726 264.366502,16.8749938 264.366502,18.125 C264.366502,18.991671 264.441501,19.6541644 264.591502,20.1125 C264.741503,20.5708356 264.924834,20.9166655 265.141502,21.15 C265.374837,21.416668 265.670667,21.6374991 266.029002,21.8125 C266.387337,21.9875009 266.808166,22.075 267.291502,22.075 C267.991506,22.075 268.574833,21.9208349 269.041502,21.6125 C269.508171,21.3041651 269.849834,20.9250022 270.066502,20.475 C270.183169,20.1916652 270.274835,19.950001 270.341502,19.75 C270.408169,19.549999 270.462335,19.283335 270.504002,18.95 C270.545669,18.616665 270.570669,18.1666695 270.579002,17.6 C270.587336,17.0333305 270.591502,16.2583383 270.591502,15.275 L270.591502,13.175 C270.591502,12.8083315 270.587336,12.458335 270.579002,12.125 C270.570669,11.791665 270.558169,11.4750015 270.541502,11.175 C270.724836,11.2083335 270.899835,11.2374999 271.066502,11.2625 C271.23317,11.2875001 271.408168,11.3 271.591502,11.3 C271.774836,11.3 271.949835,11.2875001 272.116502,11.2625 C272.28317,11.2374999 272.449835,11.2083335 272.616502,11.175 C272.533168,12.4750065 272.483169,13.7291606 272.466502,14.9375 C272.449835,16.1458394 272.441502,17.4249932 272.441502,18.775 C272.441502,19.5250037 272.449835,20.2583298 272.466502,20.975 C272.483169,21.6916703 272.508169,22.38333 272.541502,23.05 C272.208167,23.0166665 271.88317,23 271.566502,23 C271.249834,23 270.924837,23.0166665 270.591502,23.05 C270.608169,22.8999993 270.620669,22.7416675 270.629002,22.575 C270.637336,22.4083325 270.641502,22.2333342 270.641502,22.05 L270.641502,20.975 L270.591502,20.975 C270.158167,21.775004 269.599839,22.3624981 268.916502,22.7375 C268.233165,23.1125019 267.491506,23.3 266.691502,23.3 C265.391496,23.3 264.370673,22.9541701 263.629002,22.2625 C262.887332,21.5708299 262.516502,20.5750065 262.516502,19.275 Z M277.137253,15.85 C277.137253,15.0999963 277.124753,14.3125041 277.099753,13.4875 C277.074753,12.6624959 277.020587,11.8916702 276.937253,11.175 C277.403922,11.2583337 277.778919,11.3 278.062253,11.3 C278.195587,11.3 278.341419,11.2875001 278.499753,11.2625 C278.658087,11.2374999 278.845586,11.2083335 279.062253,11.175 C279.012253,11.84167 278.987253,12.50833 278.987253,13.175 L279.037253,13.175 C279.920591,11.6749925 281.162245,10.925 282.762253,10.925 C283.178922,10.925 283.587251,10.9874994 283.987253,11.1125 C284.387255,11.2375006 284.749752,11.4083323 285.074753,11.625 C285.399755,11.8416677 285.678919,12.1041651 285.912253,12.4125 C286.145588,12.7208349 286.30392,13.0499983 286.387253,13.4 L286.437253,13.4 C286.837255,12.599996 287.383083,11.9875021 288.074753,11.5625 C288.766423,11.1374979 289.562249,10.925 290.462253,10.925 C291.012256,10.925 291.520584,10.9999992 291.987253,11.15 C292.453922,11.3000008 292.858085,11.5333318 293.199753,11.85 C293.541422,12.1666683 293.808086,12.5749975 293.999753,13.075 C294.191421,13.5750025 294.287253,14.1749965 294.287253,14.875 C294.287253,15.1583347 294.27892,15.466665 294.262253,15.8 C294.245587,16.133335 294.22892,16.5208311 294.212253,16.9625 C294.195587,17.4041689 294.17892,17.9041639 294.162253,18.4625 C294.145587,19.0208361 294.137253,19.666663 294.137253,20.4 C294.137253,20.8500022 294.14142,21.2833312 294.149753,21.7 C294.158087,22.1166687 294.17892,22.5666643 294.212253,23.05 C294.028919,23.0166665 293.845588,23 293.662253,23 L292.587253,23 C292.403919,23 292.220588,23.0166665 292.037253,23.05 C292.087254,22.6333312 292.14142,21.791673 292.199753,20.525 C292.258087,19.258327 292.287253,17.491678 292.287253,15.225 C292.287253,14.8083313 292.24142,14.4166685 292.149753,14.05 C292.058086,13.6833315 291.912254,13.366668 291.712253,13.1 C291.512252,12.833332 291.245588,12.6208341 290.912253,12.4625 C290.578918,12.3041659 290.162256,12.225 289.662253,12.225 C289.06225,12.225 288.553922,12.3416655 288.137253,12.575 C287.720585,12.8083345 287.395588,13.0833317 287.162253,13.4 C287.028919,13.5833342 286.924754,13.7666657 286.849753,13.95 C286.774753,14.1333343 286.71642,14.4124981 286.674753,14.7875 C286.633086,15.1625019 286.60392,15.6874966 286.587253,16.3625 C286.570587,17.0375034 286.562253,17.9666608 286.562253,19.15 C286.562253,19.8666702 286.574753,20.5208304 286.599753,21.1125 C286.624753,21.7041696 286.65392,22.3499965 286.687253,23.05 C286.303918,23.0166665 285.937253,23 285.587253,23 C285.237252,23 284.870589,23.0166665 284.487253,23.05 C284.570587,22.1333288 284.62892,21.2000048 284.662253,20.25 C284.695587,19.2999952 284.712253,18.3666712 284.712253,17.45 C284.712253,16.6666628 284.708087,16.0541689 284.699753,15.6125 C284.69142,15.1708311 284.670587,14.8208346 284.637253,14.5625 C284.60392,14.3041654 284.558087,14.0916675 284.499753,13.925 C284.44142,13.7583325 284.362254,13.575001 284.262253,13.375 C284.078919,13.0583318 283.791422,12.7875011 283.399753,12.5625 C283.008085,12.3374989 282.603922,12.225 282.187253,12.225 C281.087248,12.225 280.278923,12.5833298 279.762253,13.3 C279.245584,14.0166703 278.987253,15.0249935 278.987253,16.325 L278.987253,18.45 C278.987253,19.2000038 278.999753,19.9874959 279.024753,20.8125 C279.049753,21.6375041 279.10392,22.38333 279.187253,23.05 C278.803918,23.0166665 278.428922,23 278.062253,23 C277.695585,23 277.320589,23.0166665 276.937253,23.05 C277.020587,22.38333 277.074753,21.6375041 277.099753,20.8125 C277.124753,19.9874959 277.137253,19.2000038 277.137253,18.45 L277.137253,15.85 Z M306.403755,11.4 C306.403755,10.8333305 306.399589,10.21667 306.391255,9.55 C306.382922,8.88333 306.370422,8.22500325 306.353755,7.575 C306.337089,6.92499675 306.316256,6.30416963 306.291255,5.7125 C306.266255,5.12083038 306.237089,4.61666875 306.203755,4.2 C306.670424,4.28333375 307.045421,4.325 307.328755,4.325 C307.61209,4.325 307.987086,4.28333375 308.453755,4.2 C308.420422,4.61666875 308.391256,5.12083038 308.366255,5.7125 C308.341255,6.30416963 308.320422,6.92499675 308.303755,7.575 C308.287089,8.22500325 308.274589,8.88333 308.266255,9.55 C308.257922,10.21667 308.253755,10.8333305 308.253755,11.4 L308.253755,15.95 C308.253755,16.2666682 308.353754,16.425 308.553755,16.425 C308.687089,16.425 308.832921,16.3666672 308.991255,16.25 C309.14959,16.1333328 309.328754,16.0000007 309.528755,15.85 C309.678756,15.7333328 309.93292,15.508335 310.291255,15.175 C310.649591,14.841665 311.049587,14.4541689 311.491255,14.0125 C311.932924,13.5708311 312.387086,13.1000025 312.853755,12.6 C313.320424,12.0999975 313.74542,11.6250022 314.128755,11.175 C314.46209,11.2583337 314.778754,11.3 315.078755,11.3 C315.26209,11.3 315.445421,11.2875001 315.628755,11.2625 C315.81209,11.2374999 316.045421,11.2083335 316.328755,11.175 C315.27875,12.0250042 314.274594,12.8624959 313.316255,13.6875 C312.357917,14.5125041 311.445426,15.3499957 310.578755,16.2 C311.52876,17.3500058 312.507917,18.4999943 313.516255,19.65 C314.524594,20.8000058 315.55375,21.9333278 316.603755,23.05 C316.320421,23.0166665 316.066257,23 315.841255,23 L314.578755,23 C314.362088,23 314.13709,23.0166665 313.903755,23.05 C313.537087,22.6333312 313.120424,22.1458361 312.653755,21.5875 C312.187086,21.0291639 311.724591,20.4750028 311.266255,19.925 C310.80792,19.3749972 310.370424,18.8583358 309.953755,18.375 C309.537087,17.8916642 309.178757,17.4916683 308.878755,17.175 C308.828755,17.108333 308.770422,17.0500003 308.703755,17 C308.637088,16.9499998 308.570422,16.925 308.503755,16.925 C308.337088,16.925 308.253755,17.024999 308.253755,17.225 L308.253755,18.725 C308.253755,19.4750037 308.266255,20.2041631 308.291255,20.9125 C308.316256,21.6208369 308.370422,22.3333297 308.453755,23.05 C308.07042,23.0166665 307.695424,23 307.328755,23 C306.962087,23 306.587091,23.0166665 306.203755,23.05 C306.237089,22.6666647 306.266255,22.1833362 306.291255,21.6 C306.316256,21.0166637 306.337089,20.4000032 306.353755,19.75 C306.370422,19.0999967 306.382922,18.44167 306.391255,17.775 C306.399589,17.10833 306.403755,16.4916695 306.403755,15.925 L306.403755,11.4 Z M324.124507,11.725 C323.507837,11.725 322.987009,11.8666653 322.562007,12.15 C322.137004,12.4333348 321.787008,12.7874979 321.512007,13.2125 C321.237005,13.6375021 321.028674,14.1041641 320.887007,14.6125 C320.745339,15.1208359 320.65784,15.5999977 320.624507,16.05 C321.141176,16.0666667 321.67867,16.0833332 322.237007,16.1 C322.795343,16.1166668 323.341171,16.125 323.874507,16.125 C324.424509,16.125 324.982837,16.1166668 325.549507,16.1 C326.116176,16.0833332 326.666171,16.0666667 327.199507,16.05 C327.199507,15.5999977 327.162007,15.1250025 327.087007,14.625 C327.012006,14.1249975 326.862008,13.6583355 326.637007,13.225 C326.412005,12.7916645 326.099509,12.4333348 325.699507,12.15 C325.299505,11.8666653 324.77451,11.725 324.124507,11.725 Z M318.349507,17.5 C318.349507,15.4499898 318.837002,13.8416725 319.812007,12.675 C320.787011,11.5083275 322.207831,10.925 324.074507,10.925 C324.957844,10.925 325.720337,11.0624986 326.362007,11.3375 C327.003676,11.6125014 327.541171,11.9791644 327.974507,12.4375 C328.407842,12.8958356 328.728672,13.4333302 328.937007,14.05 C329.145341,14.6666697 329.249507,15.3249965 329.249507,16.025 C329.249507,16.1916675 329.24534,16.3541659 329.237007,16.5125 C329.228673,16.6708341 329.216173,16.8333325 329.199507,17 C328.299502,16.9833333 327.407844,16.9666667 326.524507,16.95 C325.641169,16.9333333 324.749511,16.925 323.849507,16.925 C323.299504,16.925 322.753676,16.9333333 322.212007,16.95 C321.670337,16.9666667 321.124509,16.9833333 320.574507,17 C320.55784,17.0833338 320.549507,17.2083325 320.549507,17.375 L320.549507,17.7 C320.549507,18.3500033 320.645339,18.9583305 320.837007,19.525 C321.028674,20.0916695 321.307838,20.5791646 321.674507,20.9875 C322.041175,21.3958354 322.491171,21.7208321 323.024507,21.9625 C323.557843,22.2041679 324.174503,22.325 324.874507,22.325 C325.207842,22.325 325.549505,22.2791671 325.899507,22.1875 C326.249508,22.0958329 326.591172,21.9708341 326.924507,21.8125 C327.257842,21.6541659 327.570338,21.4666677 327.862007,21.25 C328.153675,21.0333323 328.407839,20.8000013 328.624507,20.55 L328.749507,20.625 L328.599507,21.85 C328.099504,22.250002 327.478677,22.5916652 326.737007,22.875 C325.995336,23.1583348 325.224511,23.3 324.424507,23.3 C323.524502,23.3 322.703677,23.1625014 321.962007,22.8875 C321.220336,22.6124986 320.578676,22.2125026 320.037007,21.6875 C319.495337,21.1624974 319.078675,20.5416702 318.787007,19.825 C318.495338,19.1083297 318.349507,18.3333375 318.349507,17.5 Z M336.195258,23.075 C336.011923,22.6249977 335.774426,22.0416702 335.482758,21.325 C335.191089,20.6083297 334.878593,19.8541706 334.545258,19.0625 C334.211923,18.2708294 333.870259,17.4625041 333.520258,16.6375 C333.170256,15.8124959 332.841092,15.0375036 332.532758,14.3125 C332.224423,13.5874964 331.953592,12.9500027 331.720258,12.4 C331.486923,11.8499973 331.311925,11.441668 331.195258,11.175 C331.411925,11.2083335 331.611923,11.2374999 331.795258,11.2625 C331.978592,11.2875001 332.161923,11.3 332.345258,11.3 C332.528592,11.3 332.711923,11.2875001 332.895258,11.2625 C333.078592,11.2374999 333.27859,11.2083335 333.495258,11.175 C334.011927,12.775008 334.586921,14.3583255 335.220258,15.925 C335.853594,17.4916745 336.520254,19.108325 337.220258,20.775 C337.920261,19.308326 338.591088,17.741675 339.232758,16.075 C339.874427,14.408325 340.445255,12.775008 340.945258,11.175 C341.278593,11.2583337 341.55359,11.3 341.770258,11.3 C341.986925,11.3 342.261923,11.2583337 342.595258,11.175 C342.47859,11.4083345 342.291092,11.8041639 342.032758,12.3625 C341.774423,12.9208361 341.466093,13.5874961 341.107758,14.3625 C340.749422,15.1375039 340.35776,15.9958286 339.932758,16.9375 C339.507755,17.8791714 339.074426,18.8458284 338.632758,19.8375 C338.191089,20.8291716 337.753593,21.8124951 337.320258,22.7875 C336.886922,23.7625049 336.486926,24.6874956 336.120258,25.5625 C335.753589,26.4375044 335.432759,27.2291631 335.157758,27.9375 C334.882756,28.6458369 334.678592,29.2083313 334.545258,29.625 C334.211923,29.5416662 333.928592,29.5 333.695258,29.5 C333.461923,29.5 333.178593,29.5416662 332.845258,29.625 C334.161931,27.4416557 335.278586,25.2583443 336.195258,23.075 Z M348.641009,23.05 C348.441008,22.4333303 348.174344,21.6500048 347.841009,20.7 C347.507674,19.7499952 347.145177,18.7375054 346.753509,17.6625 C346.36184,16.5874946 345.953511,15.4875056 345.528509,14.3625 C345.103507,13.2374944 344.682677,12.175 344.266009,11.175 C344.46601,11.2083335 344.661841,11.2374999 344.853509,11.2625 C345.045176,11.2875001 345.241008,11.3 345.441009,11.3 C345.624343,11.3 345.807674,11.2875001 345.991009,11.2625 C346.174343,11.2374999 346.374341,11.2083335 346.591009,11.175 C347.024344,12.7416745 347.503506,14.3124921 348.028509,15.8875 C348.553511,17.4625079 349.141005,19.083325 349.791009,20.75 C349.99101,20.283331 350.232674,19.6666705 350.516009,18.9 C350.799343,18.1333295 351.091007,17.3083377 351.391009,16.425 C351.69101,15.5416623 351.991007,14.6416713 352.291009,13.725 C352.59101,12.8083288 352.857674,11.9583372 353.091009,11.175 C353.39101,11.2583337 353.641008,11.3 353.841009,11.3 C353.974343,11.3 354.091008,11.2875001 354.191009,11.2625 L354.541009,11.175 C354.957677,12.775008 355.441006,14.3541589 355.991009,15.9125 C356.541011,17.4708411 357.116006,19.083325 357.716009,20.75 C357.932676,20.216664 358.186841,19.5625039 358.478509,18.7875 C358.770177,18.0124961 359.07434,17.1958376 359.391009,16.3375 C359.707677,15.4791624 360.028507,14.6000045 360.353509,13.7 C360.67851,12.7999955 360.982674,11.9583372 361.266009,11.175 C361.599344,11.2583337 361.866008,11.3 362.066009,11.3 C362.282676,11.3 362.532674,11.2583337 362.816009,11.175 C361.866004,13.1916767 360.978513,15.1833235 360.153509,17.15 C359.328505,19.1166765 358.557679,21.0833235 357.841009,23.05 C357.657674,23.0166665 357.44101,23 357.191009,23 L356.841009,23 C356.724341,23 356.624342,23.0166665 356.541009,23.05 C356.107673,21.5666593 355.632678,20.0750075 355.116009,18.575 C354.599339,17.0749925 354.007679,15.5000083 353.341009,13.85 C353.141008,14.3500025 352.899343,14.9708296 352.616009,15.7125 C352.332674,16.4541704 352.04101,17.2499957 351.741009,18.1 C351.441007,18.9500042 351.14101,19.8124956 350.841009,20.6875 C350.541007,21.5625044 350.274343,22.3499965 350.041009,23.05 C349.841008,23.0166665 349.607677,23 349.341009,23 C349.074341,23 348.84101,23.0166665 348.641009,23.05 Z M366.71176,17.15 C366.71176,17.8500035 366.774259,18.5249967 366.89926,19.175 C367.02426,19.8250033 367.236758,20.4041641 367.53676,20.9125 C367.836761,21.4208359 368.236757,21.8249985 368.73676,22.125 C369.236762,22.4250015 369.853423,22.575 370.58676,22.575 C371.320097,22.575 371.936757,22.4250015 372.43676,22.125 C372.936762,21.8249985 373.336758,21.4208359 373.63676,20.9125 C373.936761,20.4041641 374.149259,19.8250033 374.27426,19.175 C374.39926,18.5249967 374.46176,17.8500035 374.46176,17.15 C374.46176,16.4499965 374.39926,15.7750033 374.27426,15.125 C374.149259,14.4749967 373.936761,13.8958359 373.63676,13.3875 C373.336758,12.8791641 372.936762,12.4750015 372.43676,12.175 C371.936757,11.8749985 371.320097,11.725 370.58676,11.725 C369.853423,11.725 369.236762,11.8749985 368.73676,12.175 C368.236757,12.4750015 367.836761,12.8791641 367.53676,13.3875 C367.236758,13.8958359 367.02426,14.4749967 366.89926,15.125 C366.774259,15.7750033 366.71176,16.4499965 366.71176,17.15 Z M364.51176,17.15 C364.51176,16.016661 364.690925,15.0541706 365.04926,14.2625 C365.407595,13.4708294 365.878424,12.8291691 366.46176,12.3375 C367.045096,11.8458309 367.699256,11.4875011 368.42426,11.2625 C369.149263,11.0374989 369.87009,10.925 370.58676,10.925 C371.320097,10.925 372.04509,11.0374989 372.76176,11.2625 C373.47843,11.4875011 374.128424,11.8458309 374.71176,12.3375 C375.295096,12.8291691 375.765925,13.4708294 376.12426,14.2625 C376.482595,15.0541706 376.66176,16.016661 376.66176,17.15 C376.66176,18.283339 376.482595,19.2458294 376.12426,20.0375 C375.765925,20.8291706 375.295096,21.4708309 374.71176,21.9625 C374.128424,22.4541691 373.47843,22.799999 372.76176,23 C372.04509,23.200001 371.320097,23.3 370.58676,23.3 C369.87009,23.3 369.149263,23.200001 368.42426,23 C367.699256,22.799999 367.045096,22.4541691 366.46176,21.9625 C365.878424,21.4708309 365.407595,20.8291706 365.04926,20.0375 C364.690925,19.2458294 364.51176,18.283339 364.51176,17.15 Z M385.832511,13.225 C385.749177,13.1249995 385.586679,13.0333338 385.345011,12.95 C385.103343,12.8666662 384.857512,12.825 384.607511,12.825 C384.207509,12.825 383.849179,12.9166657 383.532511,13.1 C383.215843,13.2833343 382.949179,13.5291651 382.732511,13.8375 C382.515843,14.1458349 382.349178,14.5124979 382.232511,14.9375 C382.115844,15.3625021 382.057511,15.8166643 382.057511,16.3 L382.057511,19.05 C382.057511,20.1666722 382.061677,21.0208304 382.070011,21.6125 C382.078344,22.2041696 382.107511,22.6833315 382.157511,23.05 C381.824176,23.0166665 381.490846,23 381.157511,23 C380.790842,23 380.440846,23.0166665 380.107511,23.05 C380.157511,22.4833305 380.186677,21.7125049 380.195011,20.7375 C380.203344,19.7624951 380.207511,18.5666737 380.207511,17.15 L380.207511,16.35 C380.207511,15.6999968 380.203344,14.9500042 380.195011,14.1 C380.186677,13.2499958 380.157511,12.2750055 380.107511,11.175 C380.290845,11.2083335 380.465843,11.2374999 380.632511,11.2625 C380.799178,11.2875001 380.974177,11.3 381.157511,11.3 C381.307512,11.3 381.465843,11.2875001 381.632511,11.2625 C381.799178,11.2374999 381.974177,11.2083335 382.157511,11.175 C382.090844,11.775003 382.053344,12.2499983 382.045011,12.6 C382.036677,12.9500017 382.032511,13.2833318 382.032511,13.6 L382.082511,13.625 C383.065849,11.824991 384.165838,10.925 385.382511,10.925 C385.532512,10.925 385.661677,10.9333332 385.770011,10.95 C385.878345,10.9666668 386.015843,11.008333 386.182511,11.075 C386.099177,11.275001 386.049178,11.5791646 386.032511,11.9875 C386.015844,12.3958354 386.007511,12.766665 386.007511,13.1 L385.832511,13.225 Z M390.453262,17.375 C390.453262,18.375005 390.557428,19.1999968 390.765762,19.85 C390.974096,20.5000032 391.24076,21.0208314 391.565762,21.4125 C391.890764,21.8041686 392.261593,22.0749992 392.678262,22.225 C393.094931,22.3750007 393.50326,22.45 393.903262,22.45 C394.553265,22.45 395.111593,22.2875016 395.578262,21.9625 C396.044931,21.6374984 396.432427,21.2125026 396.740762,20.6875 C397.049097,20.1624974 397.274095,19.56667 397.415762,18.9 C397.557429,18.23333 397.628262,17.56667 397.628262,16.9 C397.628262,15.299992 397.319932,14.0791709 396.703262,13.2375 C396.086592,12.3958291 395.178268,11.975 393.978262,11.975 C393.378259,11.975 392.857431,12.1124986 392.415762,12.3875 C391.974093,12.6625014 391.60743,13.0458309 391.315762,13.5375 C391.024094,14.0291691 390.807429,14.6041634 390.665762,15.2625 C390.524095,15.9208366 390.453262,16.6249963 390.453262,17.375 Z M397.553262,20.675 C397.419928,20.941668 397.240763,21.2291651 397.015762,21.5375 C396.790761,21.8458349 396.50743,22.133332 396.165762,22.4 C395.824094,22.666668 395.419931,22.8833325 394.953262,23.05 C394.486593,23.2166675 393.944932,23.3 393.328262,23.3 C392.694925,23.3 392.074098,23.1916678 391.465762,22.975 C390.857426,22.7583323 390.315764,22.4041691 389.840762,21.9125 C389.36576,21.4208309 388.98243,20.7875039 388.690762,20.0125 C388.399094,19.2374961 388.253262,18.3083388 388.253262,17.225 C388.253262,16.158328 388.411594,15.2333372 388.728262,14.45 C389.04493,13.6666628 389.457426,13.0125026 389.965762,12.4875 C390.474098,11.9624974 391.049092,11.5708346 391.690762,11.3125 C392.332432,11.0541654 392.978259,10.925 393.628262,10.925 C395.478271,10.925 396.761592,11.758325 397.478262,13.425 L397.528262,13.425 L397.528262,10.975 C397.528262,10.3416635 397.524095,9.70416987 397.515762,9.0625 C397.507429,8.42083013 397.499095,7.80833625 397.490762,7.225 C397.482429,6.64166375 397.474095,6.09166925 397.465762,5.575 C397.457429,5.05833075 397.444929,4.600002 397.428262,4.2 C397.628263,4.2333335 397.819928,4.26249987 398.003262,4.2875 C398.186596,4.31250012 398.369928,4.325 398.553262,4.325 C398.736596,4.325 398.915761,4.31250012 399.090762,4.2875 C399.265763,4.26249987 399.461594,4.2333335 399.678262,4.2 C399.628262,4.733336 399.586595,5.50416162 399.553262,6.5125 C399.519928,7.52083838 399.490762,8.63332725 399.465762,9.85 C399.440762,11.0666727 399.419929,12.3166602 399.403262,13.6 C399.386595,14.8833397 399.378262,16.058328 399.378262,17.125 C399.378262,18.2750057 399.386595,19.3083288 399.403262,20.225 C399.419929,21.1416713 399.436595,22.0833285 399.453262,23.05 C399.119927,23.0166665 398.79493,23 398.478262,23 C398.17826,23 397.861597,23.0166665 397.528262,23.05 L397.603262,20.675 L397.553262,20.675 Z" id="mamestropremiumkeyword" fill="#FFFFFF" fill-rule="nonzero"></path>
                <g id="Group-25" transform="translate(0.000000, 57.000000)">
                    <path d="M43.7890279,38.0475627 C43.7890279,38.5104027 39.2981575,39.0658107 37.5869719,40.5931827 C37.3092679,40.8708867 37.0315639,40.9647771 36.7075759,40.9647771 C34.9474615,40.9647771 24.4859551,32.3083467 22.5420271,17.5424283 C18.7467391,38.7881067 0.73961832,42.0279867 0.23181672,42.0279867 C0.04535832,42.0279867 0.000396719999,42.0279867 0.000396719999,41.9354187 C0.000396719999,41.7502827 0.60076632,41.3813331 1.29502632,41.0560227 C11.1085567,36.5664747 16.8953791,25.6421283 18.3751447,16.0613403 L18.0061951,16.0613403 C15.4592527,16.0613403 8.19266472,16.1525859 4.07338872,16.5691419 L4.02710472,16.5691419 C3.19399272,16.5691419 1.89671832,14.7640659 1.89671832,14.1623739 C6.61900872,14.7177819 15.5518207,14.9042403 18.1913311,14.9042403 L18.5616031,14.9042403 C18.7467391,13.3292619 18.8393071,11.1539139 18.8393071,9.30255392 C18.8393071,8.28430592 18.7930231,3.93360992 18.3751447,1.43295152 C18.3301831,1.34038352 18.3301831,1.24781552 18.3301831,1.20153152 C18.3301831,1.10896352 18.3751447,1.06267952 18.4690351,1.06267952 C18.7467391,1.06267952 25.6893391,1.84950752 25.6893391,3.33191792 C25.6893391,3.79475792 25.0876471,4.16370752 24.3933871,4.44141152 C23.4214231,4.81300592 23.3751391,4.62786992 23.3288551,7.26605792 C23.2825711,9.02484992 23.0987575,13.0978419 22.9122991,14.9042403 L32.9572495,14.9042403 C33.2812375,14.9042403 33.6052255,14.7177819 33.7440775,14.4863619 C35.8731415,11.1076299 36.1971295,10.9224939 36.7075759,10.9224939 C36.7988215,10.9224939 36.8913895,10.9224939 36.9839575,10.9687779 C38.9741695,11.6630379 41.6123575,14.9492019 41.6123575,15.5059323 C41.6123575,15.7836363 41.3822599,16.0613403 40.5954319,16.0613403 L23.0987575,16.0613403 C25.4592415,24.8090163 34.3920535,35.4093747 43.3724719,37.8161427 C43.6501759,37.9087107 43.7890279,37.9549947 43.7890279,38.0475627" id="Fill-1" fill="#FFFFFF"></path>
                    <path d="M81.1842518,17.5877866 C81.1842518,16.3381186 81.1842518,15.2273026 81.1379678,14.3479066 C81.1379678,13.7924986 80.8602638,13.6999306 80.4899918,13.6999306 L66.0017774,13.6999306 C65.907887,13.7924986 65.7240734,13.8387826 65.583899,13.9313506 C65.074775,14.2553386 65.074775,14.4404746 65.074775,17.8192066 C65.074775,19.347901 65.074775,21.1516546 65.1223814,22.7715946 L81.1379678,22.7715946 C81.1842518,21.106693 81.1842518,19.2540106 81.1842518,17.5877866 M71.3707214,33.3732754 C71.3707214,34.806757 70.3524734,35.8726114 69.147767,35.8726114 C68.3159774,35.8726114 67.388975,35.3172034 66.7423214,33.881077 C65.8629254,31.9384714 64.519367,29.808085 63.1784534,28.465849 C62.9007494,28.188145 62.714291,28.003009 62.714291,27.864157 C62.714291,27.817873 62.8081814,27.771589 62.991995,27.771589 C65.028491,27.771589 71.3707214,29.576665 71.3707214,33.3732754 M87.0623198,13.6536466 C87.0623198,13.9776346 86.7846158,14.3016226 86.1366398,14.6718946 C85.1646758,15.2735866 85.1646758,15.2735866 85.1646758,17.3563666 C85.1646758,19.3928626 85.3498118,22.4938906 85.5349478,24.901981 L85.5349478,24.994549 C85.5349478,26.336785 83.8687238,26.892193 82.9893278,26.892193 C82.0173638,26.892193 81.0916838,26.383069 81.0916838,25.318537 L81.0916838,25.272253 C81.0916838,24.855697 81.1379678,24.439141 81.1379678,23.976301 L65.1223814,23.976301 C65.1223814,24.346573 65.1686654,24.716845 65.1686654,25.040833 L65.1686654,25.087117 C65.1686654,26.151649 64.1041334,26.984761 62.5767614,26.984761 C61.603475,26.984761 60.677795,26.475637 60.677795,25.364821 L60.677795,25.133401 C61.048067,21.430681 61.048067,17.4489346 61.048067,15.6438586 C61.048067,14.9033146 60.862931,11.9411386 60.5402654,10.3674826 C60.5402654,10.2749146 60.4939814,10.1810242 60.4939814,10.1360626 C60.4939814,9.99721064 60.5402654,9.95092664 60.631511,9.95092664 C61.3733774,9.95092664 64.750787,11.6171506 65.954171,12.4039786 L66.0943454,12.4965466 L80.0734358,12.4965466 C80.2585718,12.4965466 80.4899918,12.4502626 80.7200894,12.1725586 C81.3217814,11.3857306 82.0636478,10.4600506 82.5264878,10.4600506 C83.0818958,10.4600506 87.0623198,12.6353986 87.0623198,13.6536466 M92.7102902,5.32120424 C92.7102902,5.59890824 92.4788702,5.87661224 91.6457582,5.87661224 L69.9359174,5.87661224 C67.388975,5.87661224 60.400091,5.96918024 56.280815,6.38573624 L56.234531,6.38573624 C55.401419,6.38573624 54.0578606,4.53437624 54.0578606,3.93268424 C58.780151,4.48809224 67.5291494,4.67322824 70.1673374,4.67322824 L83.5910198,4.67322824 C83.9150078,4.67322824 84.1927118,4.48809224 84.3315638,4.25667224 C84.3778478,4.16410424 86.7383318,0.69280424 87.6177278,0.69280424 C87.7579022,0.69280424 87.8491478,0.69280424 87.9417158,0.73908824 C89.7005078,1.34078024 92.7102902,4.58066024 92.7102902,5.32120424 M93.9599582,37.5388354 C93.9599582,37.8165394 93.7285382,38.0942434 92.9417102,38.0942434 L69.1953734,38.0942434 C66.6497534,38.0942434 58.687583,38.1868114 54.614591,38.6033674 L54.568307,38.6033674 C53.7338726,38.6033674 52.439243,36.8445754 52.439243,36.2428834 C57.113927,36.7982914 66.787283,36.9834274 69.4267934,36.9834274 L74.2866134,36.9834274 C75.3061838,34.806757 76.3693934,31.890865 76.9248014,29.854369 C77.2025054,28.836121 77.2025054,27.864157 77.2963958,27.077329 C77.3426798,26.707057 77.3426798,26.568205 77.4802094,26.568205 C78.2220758,26.568205 83.8224398,28.789837 83.8224398,30.039505 C83.8224398,30.456061 83.4058838,30.780049 82.4788814,30.780049 L82.3413518,30.780049 C81.5994854,30.780049 81.5545238,30.918901 81.1379678,31.381741 C80.0271518,32.585125 77.6666678,35.223313 75.6301718,36.9834274 L84.9795398,36.9834274 C85.2572438,36.9834274 85.5812318,36.7982914 85.7214062,36.5668714 C85.8126518,36.4280194 88.0356062,33.001681 88.8211118,33.001681 C89.7943982,33.001681 93.9599582,36.3817354 93.9599582,37.5388354" id="Fill-3" fill="#FFFFFF"></path>
                    <path d="M130.106572,14.5330426 C126.680234,14.5330426 122.7937,19.7168506 121.034908,24.531709 C130.847116,19.486753 132.652192,18.5134666 132.652192,16.7083906 C132.652192,16.1066986 132.0505,14.5330426 130.106572,14.5330426 M136.726506,17.1249466 C136.726506,18.9300226 134.82754,20.828989 131.58766,21.986089 C128.301496,23.143189 124.31975,24.670561 121.218722,26.197933 C121.403858,27.355033 121.496426,28.558417 121.496426,29.808085 C121.496426,30.270925 121.496426,30.780049 121.450142,31.242889 C121.312612,33.2344234 119.92277,34.5303754 118.811954,34.5303754 C117.978842,34.5303754 117.238298,33.8361154 117.238298,32.122285 C117.238298,31.9384714 117.284582,31.752013 117.284582,31.520593 C117.37715,30.409777 118.07141,29.761801 118.07141,28.419565 L118.07141,27.956725 C114.692678,30.178357 113.304158,32.307421 113.304158,34.019929 C113.304158,36.2891674 115.664642,37.8628234 118.950806,37.8628234 C120.61703,37.8628234 122.422106,37.4925514 124.08833,36.6131554 C124.690022,36.2891674 125.24543,36.1965994 125.755876,36.1965994 C127.050506,36.1965994 127.977508,37.0759954 127.977508,38.0942434 C127.977508,40.2695914 123.810626,41.6581114 120.246758,41.6581114 C114.646394,41.6581114 111.034919,38.2793794 111.034919,34.9932154 C111.034919,32.2161754 113.257874,29.021257 118.117694,26.105365 C118.117694,24.022585 118.117694,19.3002946 115.340654,19.3002946 C114.414974,19.3002946 113.21159,20.042161 111.776786,21.847237 C109.138598,26.845909 108.119027,28.697269 106.545371,28.697269 C106.175099,28.697269 104.971715,28.512133 104.971715,26.845909 C104.971715,25.827661 105.388271,24.439141 106.961927,23.050621 C111.175094,19.347901 112.562291,16.8009586 114.507542,12.4965466 C113.673107,12.6816826 112.933886,12.7742506 112.147058,12.7742506 C107.378483,12.7742506 106.360235,9.02392424 106.360235,8.00567624 C106.360235,7.82054024 106.406519,7.72797224 106.545371,7.72797224 C106.730507,7.72797224 107.147063,8.00567624 107.748755,8.42223224 C109.044707,9.34923464 110.341982,9.58065464 111.545366,9.58065464 C112.424762,9.58065464 113.628146,9.44048024 115.618358,8.88507224 C115.710926,8.42223224 115.710926,8.00567624 115.710926,7.68168824 C115.710926,6.70972424 115.52579,5.59890824 113.997095,5.22863624 C113.441687,5.08978424 112.98017,4.99721624 112.98017,4.76579624 C112.98017,4.39552424 114.229838,3.37727624 115.618358,3.37727624 C117.747422,3.37727624 118.441682,4.99721624 118.441682,6.52458824 C118.441682,6.84857624 118.395398,7.17388664 118.349114,7.49787464 C119.367362,7.12628024 119.969054,6.10803224 120.570746,5.87661224 C120.941018,5.73776024 121.312612,5.64519224 121.6366,5.64519224 C122.93123,5.64519224 122.93123,6.89618264 122.93123,7.03503464 C122.93123,8.56108424 121.218722,10.2749146 116.868026,11.8022866 C116.868026,11.8022866 114.461258,16.8009586 113.535578,18.5597506 C114.36869,18.1894786 115.154195,18.0043426 115.896062,18.0043426 C118.30283,18.0043426 120.107906,19.903309 120.71092,22.819201 C123.486638,15.7827106 127.32821,12.9593866 130.8934,12.9593866 C133.392736,12.9593866 136.726506,14.7181786 136.726506,17.1249466" id="Fill-5" fill="#FFFFFF"></path>
                    <g id="Group-9" transform="translate(145.464000, 0.035704)">
                        <mask id="mask-2" fill="white">
                            <use xlink:href="#path-1"></use>
                        </mask>
                        <g id="Clip-8"></g>
                        <path d="M41.295246,19.9134926 C41.295246,21.1168766 40.41585,22.1351246 39.212466,22.1351246 C38.471922,22.1351246 37.5912036,21.7648526 36.7580916,20.7928886 C34.86177,18.6175406 32.825274,17.1827366 30.742494,15.8867846 C30.5097516,15.7479326 30.2320476,15.6090806 30.2320476,15.5151902 C30.2320476,15.4702286 30.3708996,15.4226222 30.6948876,15.4226222 C31.2040116,15.4226222 41.295246,15.5614742 41.295246,19.9134926 L41.295246,19.9134926 Z M41.295246,8.61887424 C41.295246,8.94286224 41.017542,9.12799824 40.41585,9.12799824 C40.2756756,9.12799824 40.045578,9.12799824 39.814158,9.08171424 C39.582738,9.03543024 39.443886,9.03543024 39.25875,9.03543024 C39.1185756,9.03543024 38.981046,9.03543024 38.7945876,9.12799824 C37.17597,9.86854224 30.5560356,12.3215942 30.1394796,12.3215942 C30.0469116,12.3215942 29.9543436,12.2753102 29.9543436,12.1827422 C29.9543436,12.1364582 30.0469116,12.0438902 30.1857636,11.9050382 C31.62189,10.7016542 35.972586,6.62866224 36.574278,4.45331424 C36.620562,4.26685584 36.666846,4.17561024 36.7580916,4.17561024 C37.17597,4.17561024 41.295246,7.36920624 41.295246,8.61887424 L41.295246,8.61887424 Z M18.9837132,14.3118062 C18.9837132,15.9317462 19.0299972,17.5516862 19.0762812,19.0803806 L25.8350676,19.0803806 C25.8350676,17.4604406 25.9276356,15.8391782 25.9276356,14.3118062 L18.9837132,14.3118062 Z M25.1394852,8.75772624 L19.7718636,8.75772624 L19.4478756,9.03543024 C18.9837132,9.31313424 18.9837132,9.68340624 18.9837132,13.1084222 L25.9276356,13.1084222 C25.9276356,9.17428224 25.8813516,8.75772624 25.1394852,8.75772624 L25.1394852,8.75772624 Z M12.7816572,9.54455424 C12.7816572,10.7479382 11.8546548,11.7199022 10.6975548,11.7199022 C9.9583332,11.7199022 9.0789372,11.2570622 8.3833548,10.1462462 C7.6890948,9.03543024 6.0691548,7.09150224 4.4954988,5.79555024 C4.2177948,5.56280784 3.9863748,5.42395584 3.9863748,5.33271024 C3.9863748,5.24014224 4.0789428,5.24014224 4.4029308,5.24014224 C9.0789372,5.24014224 12.7816572,6.99893424 12.7816572,9.54455424 L12.7816572,9.54455424 Z M31.0188756,8.57259024 C31.0188756,8.89657824 30.742494,9.22056624 30.1857636,9.59083824 C29.3989356,10.0999622 29.3526516,10.1462462 29.3526516,11.6736182 C29.3526516,13.8026822 29.4915036,18.0621326 29.6766396,20.8391726 L29.6766396,20.9780246 C29.6766396,22.0888406 28.3806876,22.6442486 27.4550076,22.6442486 C26.6218956,22.6442486 25.8350676,22.2276926 25.8350676,21.2557286 L25.8350676,20.2837646 L19.0762812,20.2837646 L19.0762812,21.4408646 C19.0762812,22.4591126 17.9191812,23.0608046 16.9009332,23.0608046 C16.0215372,23.0608046 15.2347092,22.6442486 15.2347092,21.6260006 L15.2347092,21.4871486 C15.4661292,18.9415286 15.5586972,16.4421926 15.5586972,14.3580902 C13.7999052,16.2094502 10.0046172,19.4043686 7.1336868,21.7648526 C6.7647372,22.0425566 6.7184532,22.5979646 6.3005748,22.5979646 C5.6063148,22.5979646 2.4590028,19.3580846 2.4590028,18.6638246 C2.4590028,18.5712566 2.5978548,18.5249726 2.8292748,18.4786886 C6.0228708,18.2472686 14.0776092,14.4043742 15.2809932,13.7563982 L15.5586972,13.6175462 L15.5586972,10.9330742 C15.5586972,10.3776662 15.3722388,7.41549024 15.0495732,5.79555024 C15.0495732,5.70165984 15.0032892,5.61041424 15.0032892,5.56280784 C15.0032892,5.47156224 15.0495732,5.42395584 15.1421412,5.42395584 C15.6512652,5.42395584 18.7060092,6.86008224 19.6779732,7.55434224 L20.0019612,7.55434224 C20.3735556,5.19385824 20.5573692,3.06347184 20.5573692,2.27796624 C20.5573692,1.67495184 20.5110852,1.07325984 20.4648012,0.56413584 L20.4648012,0.47156784 C20.4648012,0.33271584 20.5110852,0.28643184 20.5573692,0.28643184 C20.6512596,0.28643184 20.6975436,0.33271584 20.7887892,0.33271584 C21.9458892,0.51785184 26.5756116,1.81380384 26.5756116,2.97090384 C26.5756116,3.34117584 26.1590556,3.66516384 25.1394852,3.75905424 C24.5840772,3.80401584 24.4002636,4.08171984 24.1688436,4.40570784 C23.4269772,5.37899424 22.5012972,6.58237824 21.6219012,7.55434224 L24.9080652,7.55434224 C25.0945236,7.55434224 25.3722276,7.50805824 25.5573636,7.23035424 C26.3904756,6.11953824 26.6668572,5.74926624 27.0384516,5.74926624 C28.1016612,5.74926624 31.0188756,7.73947824 31.0188756,8.57259024 L31.0188756,8.57259024 Z M44.58141,36.577055 C44.58141,36.947327 40.5533796,38.243279 38.610774,39.955787 C38.33307,40.233491 38.055366,40.3273814 37.777662,40.3273814 C35.972586,40.3273814 27.4087236,35.558807 24.2151276,28.755059 L24.2151276,30.421283 C24.2151276,34.124003 24.3063732,38.289563 24.4465476,40.279775 L24.4465476,40.418627 C24.4465476,41.760863 22.9191756,42.316271 21.8996052,42.316271 C20.9289636,42.316271 20.0958516,41.8084694 20.0958516,40.696331 L20.0958516,40.418627 C20.2796652,38.567267 20.4185172,34.725695 20.4648012,31.532099 C14.3553132,37.271315 8.6610588,39.724367 1.9498788,41.159171 C1.6258908,41.251739 1.3944708,41.251739 1.2093348,41.251739 C0.9316308,41.251739 0.8390628,41.2067774 0.8390628,41.112887 C0.8390628,40.974035 1.1617284,40.742615 1.7634204,40.511195 C7.5502428,38.335847 13.9387572,33.568595 18.8924676,27.7817726 L14.2151388,27.7817726 C11.8096932,27.7817726 8.1056508,27.875663 4.2640788,28.2908966 L4.2177948,28.2908966 C3.4309668,28.2908966 2.1350148,26.4858206 2.1350148,25.9304126 C6.5319948,26.4858206 11.9009388,26.6709566 14.4015972,26.6709566 L20.4648012,26.6709566 C20.4648012,25.0510166 20.3735556,23.8013486 20.0019612,22.1351246 C19.9556772,21.9499886 19.9556772,21.8574206 19.9556772,21.7648526 C19.9556772,21.6722846 20.0019612,21.6722846 20.1408132,21.6722846 C20.5110852,21.6722846 26.1590556,22.0425566 26.1590556,23.1533726 C26.1590556,23.4773606 25.7874612,23.8476326 25.1394852,24.1716206 C24.4928316,24.4956086 24.2600892,24.5881766 24.2600892,26.6709566 L34.0736196,26.6709566 C34.3513236,26.6709566 34.6753116,26.4858206 34.815486,26.2544006 C36.25029,23.9864846 37.222254,23.0608046 37.6374876,23.0608046 C38.7945876,23.0608046 42.3148164,26.3932526 42.3148164,27.2263646 C42.3148164,27.5040686 42.128358,27.7817726 41.34153,27.7817726 L24.5391156,27.7817726 C27.9641316,31.994939 35.417178,35.743943 44.257422,36.438203 C44.442558,36.438203 44.58141,36.484487 44.58141,36.577055 L44.58141,36.577055 Z" id="Fill-7" fill="#FFFFFF" mask="url(#mask-2)"></path>
                    </g>
                    <path d="M213.555963,40.5012759 C209.898204,40.5012759 203.233308,38.8813359 203.233308,26.9850255 C203.233308,21.8475015 204.390408,16.6623711 204.436692,11.5711311 C204.436692,9.58091912 204.29784,7.40424872 203.14074,5.83059272 C202.725507,5.27518472 202.492764,4.90491272 202.492764,4.62720872 C202.492764,4.39578872 202.725507,4.25693672 203.279592,4.25693672 C205.22352,4.25693672 208.927563,5.18261672 208.927563,9.67348712 C208.927563,10.1363271 208.927563,10.5991671 208.834995,11.1069687 C208.093128,15.7829751 206.243091,21.7998951 206.243091,27.3552975 C206.243091,30.6877455 206.891067,36.6134199 214.203939,36.6134199 C218.276931,36.6134199 223.276925,34.6218855 227.720189,31.2894375 C228.460733,30.7340295 229.154993,30.2711895 229.432697,30.2711895 C229.478981,30.2711895 229.525265,30.2711895 229.525265,30.3637575 C229.525265,30.9654495 222.905331,40.5012759 213.555963,40.5012759" id="Fill-10" fill="#FFFFFF"></path>
                    <path d="M250.397233,8.60802944 C250.350949,9.11715344 250.258381,9.71884544 250.119529,10.3205374 L250.026961,10.7833774 C250.119529,10.7370934 252.018496,10.1816854 252.018496,9.76512944 C252.018496,9.53370944 250.906357,8.83944944 250.397233,8.60802944 L250.397233,8.60802944 Z M246.972217,25.0401718 C246.972217,22.8648238 245.582375,20.4580558 244.241461,20.4580558 C243.315781,20.4580558 242.666483,21.6151558 242.666483,23.0962438 C242.666483,25.6418638 244.010041,27.7259662 245.304671,27.7259662 C246.555661,27.7259662 246.879649,25.9658518 246.972217,25.2253078 L246.972217,25.0401718 Z M274.189854,18.8381158 C274.189854,20.4580558 273.21789,21.7077238 271.596628,21.7077238 C271.365208,21.7077238 271.13511,21.7077238 270.90369,21.6614398 C270.348282,21.5688718 269.51517,21.4763038 268.634452,21.4763038 C267.941514,21.4763038 267.245932,21.5225878 266.64424,21.6614398 C266.182722,21.8002918 265.811128,21.8465758 265.627314,21.8465758 C265.394572,21.8465758 265.302004,21.8002918 265.302004,21.7077238 C265.302004,21.5225878 265.672276,21.1985998 266.229006,20.8746118 C268.543206,19.3935238 269.930404,18.3752758 269.930404,17.2644598 C269.930404,16.2448894 268.680736,14.6249494 267.062118,14.6249494 C264.700312,14.6249494 264.09862,17.2644598 264.09862,20.0877838 C264.09862,22.4945518 264.515176,25.1790238 264.978016,26.9378158 C265.440856,28.7904982 266.41282,30.4104382 266.41282,32.1692302 C266.41282,35.4553942 262.062124,40.8706222 254.37898,40.8706222 C252.480013,40.8706222 244.843153,40.4553886 244.843153,33.6503182 C244.843153,32.7709222 244.934399,31.8452422 245.167141,30.9658462 C245.026967,30.9658462 244.889437,30.9658462 244.749263,30.9195622 C242.388779,30.3641542 241.325569,26.5212598 241.325569,23.4665158 C241.325569,21.3374518 241.833371,18.3289918 244.796869,18.3289918 C245.629981,18.3289918 246.509377,18.6066958 247.249921,19.1621038 L247.249921,14.5323814 C246.694513,14.6249494 246.184067,14.6712334 245.676265,14.6712334 C241.092827,14.6712334 240.120863,9.85769744 240.120863,9.85769744 C240.120863,9.71884544 240.213431,9.62627744 240.352283,9.62627744 C240.583703,9.62627744 241.092827,9.85769744 241.833371,10.3668214 C242.990471,11.1536494 244.378991,11.4313534 245.768833,11.4313534 C246.277957,11.4313534 246.787081,11.3850694 247.294883,11.3387854 C247.294883,10.6908094 247.294883,9.99654944 247.341167,9.39485744 L247.341167,9.07086944 C247.341167,8.00633744 246.879649,7.35836144 246.461771,6.94180544 C246.137783,6.61781744 245.815117,6.52524944 245.815117,6.15497744 C245.815117,5.55328544 246.461771,4.53503744 247.527625,4.53503744 C248.823577,4.53503744 250.443517,5.69213744 250.443517,7.72863344 L250.443517,8.14518944 C251.461765,8.42289344 252.109741,8.51546144 252.665149,8.51546144 C253.127989,8.51546144 253.544545,8.46917744 254.101276,8.42289344 L254.332696,8.42289344 C255.442189,8.42289344 255.951313,8.97830144 255.951313,9.71884544 C255.951313,12.3570334 250.860073,13.7005918 249.517837,14.0245798 C249.240133,16.3387798 249.147565,18.9306838 249.054997,21.4300198 C249.377663,22.2168478 249.610405,23.0962438 249.610405,24.0682078 C249.610405,25.4567278 249.193849,26.9378158 248.268169,28.5127942 C247.341167,30.0401662 246.787081,31.5212542 246.787081,32.7709222 C246.787081,35.5942462 249.934393,37.1679022 253.499584,37.1679022 C258.913489,37.1679022 262.848952,34.1594422 262.848952,30.1327342 L262.848952,29.6698942 C262.663816,26.9840998 262.524964,24.6236158 262.524964,22.5871198 C262.524964,19.0695358 262.94152,12.9600478 267.755056,12.9600478 C271.13511,12.9600478 274.189854,15.8759398 274.189854,18.8381158 L274.189854,18.8381158 Z" id="Fill-12" fill="#FFFFFF"></path>
                    <path d="M315.427311,18.6068281 C317.556375,18.6068281 320.890146,18.6068281 320.890146,20.5970401 C320.890146,21.5227201 319.918182,22.4021161 318.344526,22.4484001 C314.409063,22.4946841 311.493171,22.9112401 306.355647,24.6237481 C307.373895,27.8173441 308.530995,31.0122625 309.919515,34.1595745 C310.798911,36.2423545 310.937763,37.3068865 310.937763,37.9548625 C310.937763,39.4835569 310.243503,40.7319025 309.317823,40.7319025 C307.836735,40.7319025 306.448215,37.4457385 305.984053,35.3166745 C305.800239,34.6224145 305.846523,33.7893025 305.615103,32.8173385 C305.104657,30.8271265 304.411719,28.2352225 303.623569,25.5494281 C301.633357,26.2436881 299.643145,27.0318385 297.328945,27.9561961 C295.940425,28.5129265 295.477585,28.9757665 294.366769,29.2071865 C294.042781,29.2534705 293.672509,29.2984321 293.254631,29.2984321 C292.930643,29.2984321 287.006291,29.2984321 287.006291,25.6882801 C287.006291,25.4568601 287.098859,25.3180081 287.376563,25.3180081 C287.654267,25.3180081 288.024539,25.4118985 288.579947,25.5957121 C289.459343,25.8747385 290.338739,25.9659841 291.171851,25.9659841 C292.283989,25.9659841 294.411731,25.8271321 302.884347,22.9112401 C302.375223,21.1987321 301.773531,19.4399401 301.263085,17.7737161 C295.986709,19.5325081 295.431301,19.7176441 294.087743,19.7176441 C290.292455,19.7176441 289.923505,16.9868881 289.923505,16.5240481 C289.923505,16.2926281 290.014751,16.2000601 290.201209,16.2000601 C290.385023,16.2000601 290.616443,16.2926281 290.988037,16.4301577 C291.358309,16.5690097 291.867433,16.6629001 292.515409,16.6629001 C295.431301,16.6629001 299.874565,15.1355281 300.337405,14.9490697 L299.874565,13.6068337 C298.578613,9.90411368 298.208341,8.14532168 296.680969,8.14532168 C296.542117,8.14532168 296.449549,8.19160568 296.310697,8.19160568 C295.940425,8.23788968 295.523869,8.37674168 295.199881,8.37674168 C294.968461,8.37674168 294.783325,8.28417368 294.783325,8.05275368 C294.783325,8.05275368 295.107313,5.78483768 297.976921,5.78483768 C299.735713,5.78483768 302.884347,6.66423368 302.884347,8.60816168 C302.884347,8.93214968 302.836741,9.25613768 302.790457,9.58012568 C302.744173,9.85782968 302.744173,10.1818177 302.744173,10.4595217 C302.744173,10.5983737 302.744173,11.3389177 303.162051,13.0051417 L303.392149,13.8395761 C304.365435,13.4679817 305.198547,13.1439937 305.615103,12.9125737 C306.725919,12.3108817 307.327611,11.7554737 308.253291,11.5703377 C308.669847,11.4777697 309.132687,11.4777697 309.641811,11.4777697 C311.122899,11.4777697 313.159395,11.6166217 313.159395,13.0514257 C313.159395,13.8395761 312.372567,14.6713657 310.845195,14.9490697 C309.086403,15.2730577 306.633351,15.9673177 304.134015,16.8017521 C304.596855,18.5142601 305.058373,20.2730521 305.568819,21.9855601 L310.984047,20.1342001 C313.29957,19.3473721 312.603987,18.6068281 315.195891,18.6068281 L315.427311,18.6068281 Z" id="Fill-14" fill="#FFFFFF"></path>
                    <path d="M360.208007,22.8186721 C358.171511,22.8649561 354.144803,22.8186721 349.792785,22.9575241 C346.136349,23.0963761 342.479913,23.3277961 340.071822,23.8369201 C338.962329,24.0683401 338.082933,24.2534761 337.249821,24.2534761 C334.333929,24.2534761 330.953874,21.6152881 330.953874,19.4399401 C330.953874,18.9771001 331.046442,18.8382481 331.324146,18.8382481 C331.509282,18.8382481 331.786986,18.9308161 332.157258,19.1622361 C333.082938,19.7176441 334.240038,20.1804841 337.341066,20.1804841 C337.805229,20.1804841 352.663715,19.4862241 357.986375,19.0696681 C358.402931,19.0233841 358.913377,19.0233841 359.467463,19.0233841 C359.976587,19.0233841 364.421173,19.0233841 364.421173,20.7821761 C364.421173,21.9392761 361.597849,22.7723881 360.208007,22.8186721" id="Fill-16" fill="#FFFFFF"></path>
                    <path d="M383.579972,15.7831074 C384.737072,20.9669154 384.922208,22.8645594 384.922208,23.8365234 C384.922208,25.5953154 384.320516,26.8463058 383.023242,26.8463058 C382.006316,26.8463058 380.477622,25.5953154 380.477622,22.4942874 C380.477622,21.5686074 380.662758,21.2446194 380.662758,20.4115074 C380.662758,19.3932594 380.061066,11.9415354 376.126926,11.9415354 L375.94179,11.9415354 C375.664086,11.9415354 375.432666,11.986497 375.201246,11.986497 C374.32185,11.986497 373.905294,11.801361 373.905294,11.4786954 C373.905294,10.690545 375.432666,9.16317296 377.422878,9.16317296 C378.117138,9.16317296 381.403302,9.62601296 382.654292,12.403053 C383.069526,12.403053 395.752664,11.4786954 397.188791,10.968249 C398.207039,10.5992994 398.669879,9.67229696 399.734411,9.67229696 C400.798943,9.67229696 405.752653,11.384805 405.752653,13.282449 C405.752653,13.8391794 405.334775,14.3945874 404.501663,14.8111434 C403.483415,15.3665514 402.974291,15.9682434 402.604019,16.8476394 C394.410428,37.0287858 378.996534,39.8534322 378.070854,39.8534322 C377.932002,39.8534322 377.839434,39.8534322 377.839434,39.7608642 C377.839434,39.6220122 378.48741,39.2054562 379.87593,38.5111962 C392.281364,32.4466698 398.669879,15.2276994 398.669879,14.1168834 C398.669879,13.6540434 398.392175,13.4689074 397.881728,13.4689074 C397.142507,13.4689074 389.041484,14.1168834 384.737072,15.2276994 C384.27291,15.3665514 383.857676,15.4128354 383.487404,15.4128354 L383.579972,15.7831074 Z" id="Fill-18" fill="#FFFFFF"></path>
                    <path d="M443.787919,22.8186721 C441.751423,22.8649561 437.724715,22.8186721 433.372696,22.9575241 C429.71626,23.0963761 426.059824,23.3277961 423.651734,23.8369201 C422.54224,24.0683401 421.662844,24.2534761 420.829732,24.2534761 C417.91384,24.2534761 414.533786,21.6152881 414.533786,19.4399401 C414.533786,18.9771001 414.626354,18.8382481 414.904058,18.8382481 C415.089194,18.8382481 415.366898,18.9308161 415.73717,19.1622361 C416.66285,19.7176441 417.81995,20.1804841 420.920978,20.1804841 C421.38514,20.1804841 436.243627,19.4862241 441.566287,19.0696681 C441.982843,19.0233841 442.493289,19.0233841 443.047375,19.0233841 C443.556499,19.0233841 448.001085,19.0233841 448.001085,20.7821761 C448.001085,21.9392761 445.177761,22.7723881 443.787919,22.8186721" id="Fill-20" fill="#FFFFFF"></path>
                    <g id="Group-24" transform="translate(460.195200, 5.162904)">
                        <mask id="mask-4" fill="white">
                            <use xlink:href="#path-3"></use>
                        </mask>
                        <g id="Clip-23"></g>
                        <path d="M21.4993147,7.14824248 C20.2496467,5.80600648 18.7209523,4.78775848 17.5175683,4.18606648 C17.0560507,3.95464648 16.6844563,3.76951048 16.6844563,3.63065848 C16.6844563,3.16781848 18.8148427,3.16781848 18.9536947,3.16781848 C24.1375027,3.16781848 24.2776771,6.12999448 24.2776771,6.22256248 C24.2776771,7.10195848 23.6283787,7.79621848 22.7952667,7.79621848 C22.3787107,7.79621848 21.9158707,7.61108248 21.4993147,7.14824248 L21.4993147,7.14824248 Z M16.5932107,9.41615848 C15.3898267,8.07392248 13.9537003,6.96310648 12.7503163,6.31513048 C12.2874763,6.03742648 11.9634883,5.85229048 11.9634883,5.71343848 C11.9634883,5.38945048 13.3520083,5.34316648 13.9537003,5.34316648 C16.1766547,5.34316648 19.4165347,6.22256248 19.4165347,8.49047848 C19.4165347,9.36987448 18.7209523,10.1104185 17.9354467,10.1104185 C17.4726067,10.1104185 17.0084443,9.92528248 16.5932107,9.41615848 L16.5932107,9.41615848 Z M7.01110032,14.5550049 L7.01110032,17.2394769 C7.01110032,22.8398409 7.19623632,28.7192313 7.33508832,30.2466033 C7.33508832,30.5243073 7.38137232,30.8020113 7.38137232,31.0797153 C7.38137232,32.8385073 6.77968032,35.3841273 5.20602432,35.3841273 C3.63104592,35.3841273 2.56783632,32.6533713 2.56783632,30.3854553 C2.56783632,29.8763313 2.61412032,29.3209233 2.70536592,28.8580833 C2.98306992,27.2368209 3.26077392,26.7290193 3.44723232,25.0151889 C3.72493632,22.1918649 3.81750432,17.1469089 3.81750432,13.0725945 C3.81750432,3.81579448 3.26077392,2.14957048 2.05871232,1.96443448 C1.08542592,1.82558248 0.71515392,1.63912408 0.71515392,1.36274248 C0.71515392,0.99247048 1.41073632,0.01918408 2.75164992,0.01918408 C4.69690032,0.01918408 8.21448432,2.14957048 8.21448432,4.37120248 C8.21448432,5.38945048 7.56650832,6.36141448 7.38137232,8.02763848 C7.19623632,9.55501048 7.05738432,11.5915065 7.01110032,13.9057065 C7.14862992,13.9057065 7.28880432,13.8607449 7.42633392,13.8607449 C8.12191632,13.7668545 9.09388032,13.7218929 10.2509803,13.7218929 C18.4908547,13.7218929 18.9074107,17.4246129 18.9074107,18.1188729 C18.9074107,19.4148249 17.9354467,20.4330729 16.6381723,20.4330729 C15.9452347,20.4330729 15.1570843,20.1090849 14.3239723,19.3685409 C12.6577483,17.8411689 9.88070832,15.7121049 7.33508832,14.6462505 L7.01110032,14.5550049 Z" id="Fill-22" fill="#FFFFFF" mask="url(#mask-4)"></path>
                    </g>
                </g>
            </g>
        </g>
    </g>
</svg>