<?xml version="1.0" encoding="UTF-8"?>
<svg width="234px" height="19px" viewBox="0 0 234 19" version="1.1" xmlns="http://www.w3.org/2000/svg" xmlns:xlink="http://www.w3.org/1999/xlink">
    <!-- Generator: Sketch 56.2 (81672) - https://sketch.com -->
    <title>nav-premium-tofu</title>
    <desc>Created with Sketch.</desc>
    <g id="Symbols" stroke="none" stroke-width="1" fill="none" fill-rule="evenodd">
        <g id="contents/header" transform="translate(-1087.000000, -120.000000)">
            <polygon id="Line-8" fill="#C9A063" fill-rule="nonzero" opacity="0.600000024" points="1087 139 1321 139 1321 138 1087 138"></polygon>
            <g id="Group-4" transform="translate(1089.778283, 121.927343)" fill="#512700">
                <path d="M2.99105779,6.62823311 C4.44594608,6.62823311 5.41541752,5.65830758 5.41541752,4.52718189 C5.41541752,3.3956021 4.44594608,2.42522249 2.99105779,2.42522249 L1.94030514,2.42522249 L1.94030514,6.62823311 L2.99105779,6.62823311 Z M2.99105779,8.40642991 L1.94030514,8.40642991 L1.94030514,11.639515 L-9.16600129e-13,11.639515 L-9.16600129e-13,0.647479779 L2.99105779,0.647479779 C5.65835299,0.647479779 7.4360957,2.42522249 7.4360957,4.52718189 C7.4360957,6.62823311 5.65835299,8.40642991 2.99105779,8.40642991 L2.99105779,8.40642991 Z" id="Fill-1"></path>
                <path d="M13.8223469,5.81959857 C15.0511009,5.81959857 15.8434792,5.01178138 15.8434792,4.12268298 C15.8434792,3.2331305 15.0347538,2.42531331 13.8223469,2.42531331 L12.043696,2.42531331 L12.043696,5.81959857 L13.8223469,5.81959857 Z M16.0046794,7.19411382 L18.5103203,11.6391517 L16.408815,11.6391517 L14.1456554,7.59779537 L12.043696,7.59779537 L12.043696,11.6391517 L10.1042991,11.6391517 L10.1042991,0.647570596 L13.8223469,0.647570596 C16.2471607,0.647570596 17.8641574,2.26365906 17.8641574,4.12268298 C17.8641574,6.14336116 16.0046794,7.04835254 16.0046794,7.03200548 L16.0046794,7.19411382 Z" id="Fill-3"></path>
                <polygon id="Fill-5" points="20.8553514 0.647525188 27.2402404 0.647525188 27.2402404 2.4252679 22.7947484 2.4252679 22.7947484 5.17339023 25.9465522 5.17339023 25.9465522 6.95113294 22.7947484 6.95113294 22.7947484 9.86045544 27.4018946 9.86045544 27.4018946 11.6395604 20.8553514 11.6395604"></polygon>
                <polygon id="Fill-7" points="32.1717395 5.33449958 32.0096312 5.33449958 32.0096312 11.6394696 30.0702342 11.6394696 30.0702342 0.324125862 30.3930886 0.324125862 35.3235434 6.38525223 40.2539981 0.324125862 40.5777607 0.324125862 40.5777607 11.6394696 38.6374556 11.6394696 38.6374556 5.33449958 38.4762554 5.33449958 35.3235434 9.21420169"></polygon>
                <polygon id="Fill-9" points="43.9729542 11.6396966 45.9123511 11.6396966 45.9123511 0.647661413 43.9729542 0.647661413"></polygon>
                <path d="M51.167068,7.84059461 C51.167068,9.21420169 52.1365394,10.1841272 53.2685733,10.1841272 C54.399699,10.1841272 55.3696245,9.21420169 55.3696245,7.84059461 L55.3696245,0.647434371 L57.3094756,0.647434371 L57.3094756,7.84059461 C57.3094756,10.1841272 55.5312788,11.9618699 53.2685733,11.9618699 C51.0054137,11.9618699 49.227671,10.1841272 49.227671,7.84059461 L49.227671,0.647434371 L51.167068,0.647434371 L51.167068,7.84059461 Z" id="Fill-11"></path>
                <polygon id="Fill-12" points="62.7262554 5.33449958 62.564147 5.33449958 62.564147 11.6394696 60.62475 11.6394696 60.62475 0.324125862 60.9476045 0.324125862 65.8780592 6.38525223 70.8080599 0.324125862 71.1318225 0.324125862 71.1318225 11.6394696 69.1924255 11.6394696 69.1924255 5.33449958 69.0303172 5.33449958 65.8780592 9.21420169"></polygon>
                <path d="M82.0448469,9.86050084 C83.2577079,9.86050084 83.984698,9.16575082 83.984698,8.24486647 C83.984698,7.32307395 83.2577079,6.62832393 82.0448469,6.62832393 L80.3474773,6.62832393 L80.3474773,9.86050084 L82.0448469,9.86050084 Z M81.8831927,4.84967304 C82.8526641,4.84967304 83.418454,4.28388315 83.418454,3.63772022 C83.418454,2.99155729 82.8526641,2.42531331 81.8831927,2.42531331 L80.3474773,2.42531331 L80.3474773,4.84967304 L81.8831927,4.84967304 Z M78.4076262,0.647570596 L81.8831927,0.647570596 C84.1463522,0.647570596 85.4395863,1.94035055 85.4395863,3.39569292 C85.4395863,5.17343564 83.6613895,5.57757127 83.6613895,5.57757127 L83.6613895,5.73922553 C83.6613895,5.73922553 86.0852951,6.14336116 86.0852951,8.48689377 C86.0852951,10.1034363 84.5504879,11.6391517 82.0448469,11.6391517 L78.4076262,11.6391517 L78.4076262,0.647570596 Z" id="Fill-13"></path>
                <path d="M92.471955,5.81959857 C93.7002549,5.81959857 94.4921791,5.01178138 94.4921791,4.12268298 C94.4921791,3.2331305 93.6843619,2.42531331 92.471955,2.42531331 L90.6937582,2.42531331 L90.6937582,5.81959857 L92.471955,5.81959857 Z M94.6547415,7.19411382 L97.1594743,11.6391517 L95.057969,11.6391517 L92.7957176,7.59779537 L90.6937582,7.59779537 L90.6937582,11.6391517 L88.7539072,11.6391517 L88.7539072,0.647570596 L92.471955,0.647570596 C94.8972229,0.647570596 96.5128573,2.26365906 96.5128573,4.12268298 C96.5128573,6.14336116 94.6547415,7.04835254 94.6547415,7.03200548 L94.6547415,7.19411382 Z" id="Fill-14"></path>
                <path d="M101.929228,8.24482106 L104.677805,8.24482106 L103.384117,4.84962763 L103.222917,4.84962763 L101.929228,8.24482106 Z M108.152917,11.6395604 L106.051412,11.6395604 L105.405249,10.0230179 L101.185891,10.0230179 L100.555621,11.6395604 L98.4536619,11.6395604 L103.222917,5.59552404e-14 L103.384117,5.59552404e-14 L108.152917,11.6395604 Z" id="Fill-15"></path>
                <polygon id="Fill-16" points="116.802056 7.11246934 116.802056 0.647661413 118.741452 0.647661413 118.741452 11.962097 118.418598 11.962097 112.599499 5.17352645 112.437845 5.17352645 112.437845 11.6392425 110.497994 11.6392425 110.497994 0.323898819 110.820848 0.323898819 116.640401 7.11246934"></polygon>
                <path d="M124.077632,2.4252679 L124.077632,9.86045544 L125.370866,9.86045544 C127.22989,9.86045544 128.926806,8.16353985 128.926806,6.14331575 C128.926806,4.12263757 127.22989,2.4252679 125.370866,2.4252679 L124.077632,2.4252679 Z M125.370866,0.647525188 C128.441389,0.647525188 130.947484,3.15271205 130.947484,6.14331575 C130.947484,9.13301129 128.441389,11.6395604 125.370866,11.6395604 L122.137781,11.6395604 L122.137781,0.647525188 L125.370866,0.647525188 Z" id="Fill-17"></path>
                <g id="Group-32" transform="translate(136.342420, 0.000000)">
                    <path d="M5.73781786,2.10177776 C3.79842089,2.10177776 2.02067818,3.88042864 2.02067818,6.14358821 C2.02067818,8.40629368 3.79842089,10.1840364 5.73781786,10.1840364 C7.678123,10.1840364 9.45586572,8.40629368 9.45586572,6.14358821 C9.45586572,3.88042864 7.678123,2.10177776 5.73781786,2.10177776 M5.73781786,0.324035045 C8.89052991,0.324035045 11.4774521,2.91050312 11.4774521,6.14358821 C11.4774521,9.37667329 8.89052991,11.9617791 5.73781786,11.9617791 C2.58692216,11.9617791 3.63797881e-12,9.37667329 3.63797881e-12,6.14358821 C3.63797881e-12,2.91050312 2.58692216,0.324035045 5.73781786,0.324035045" id="Fill-18"></path>
                    <path d="M20.773162,2.18228703 L19.3182737,3.23303968 C19.3182737,3.23303968 18.5100024,2.10191398 17.540531,2.10191398 C16.5701514,2.10191398 15.9239885,2.74807692 15.9239885,3.55680227 C15.9239885,5.49619924 20.9343622,5.17334482 20.9343622,8.6484572 C20.9343622,10.3458269 19.3182737,11.9619153 17.1359413,11.9619153 C14.387819,11.9619153 13.175412,9.69920986 13.175412,9.69920986 L14.6307544,8.6484572 C14.6307544,8.6484572 15.5193987,10.1841726 16.974287,10.1841726 C18.1058668,10.1841726 18.9141381,9.37635543 18.9141381,8.48680295 C18.9141381,6.5469519 13.9033103,6.87026041 13.9033103,3.3956021 C13.9033103,1.85988669 15.4390257,0.32417127 17.3784227,0.32417127 C19.6420363,0.32417127 20.773162,2.18228703 20.773162,2.18228703" id="Fill-19"></path>
                    <path d="M26.0270615,8.24482106 L28.7756379,8.24482106 L27.4824039,4.84962763 L27.3207496,4.84962763 L26.0270615,8.24482106 Z M32.2512044,11.6395604 L30.1496991,11.6395604 L29.5035361,10.0230179 L25.2837244,10.0230179 L24.6539085,11.6395604 L22.5519491,11.6395604 L27.3207496,1.13686838e-13 L27.4824039,1.13686838e-13 L32.2512044,11.6395604 Z" id="Fill-20"></path>
                    <path d="M38.9609457,5.81959857 L42.5977124,11.6391517 L40.4966612,11.6391517 L36.9407217,5.81959857 L40.1733527,0.647570596 L42.2744039,0.647570596 L38.9609457,5.81959857 Z M34.5962809,11.6391517 L36.5356778,11.6391517 L36.5356778,0.647116511 L34.5962809,0.647116511 L34.5962809,11.6391517 Z" id="Fill-21"></path>
                    <polygon id="Fill-22" points="44.8624612 11.6396966 46.8018582 11.6396966 46.8018582 0.647661413 44.8624612 0.647661413"></polygon>
                    <polygon id="Fill-23" points="57.8755379 2.4252679 57.8755379 11.6395604 55.9356869 11.6395604 55.9356869 2.4252679 53.1067374 2.4252679 53.1067374 0.647525188 60.7040333 0.647525188 60.7040333 2.4252679"></polygon>
                    <path d="M68.1408101,2.10177776 C66.2009591,2.10177776 64.4227623,3.88042864 64.4227623,6.14358821 C64.4227623,8.40629368 66.2009591,10.1840364 68.1408101,10.1840364 C70.0802071,10.1840364 71.858858,8.40629368 71.858858,6.14358821 C71.858858,3.88042864 70.0802071,2.10177776 68.1408101,2.10177776 M68.1408101,0.324035045 C71.292614,0.324035045 73.8790821,2.91050312 73.8790821,6.14358821 C73.8790821,9.37667329 71.292614,11.9617791 68.1408101,11.9617791 C64.9885522,11.9617791 62.40163,9.37667329 62.40163,6.14358821 C62.40163,2.91050312 64.9885522,0.324035045 68.1408101,0.324035045" id="Fill-24"></path>
                    <polygon id="Fill-25" points="76.5475579 0.647525188 83.0945552 0.647525188 83.0945552 2.4252679 78.4874089 2.4252679 78.4874089 5.90038029 81.8008671 5.90038029 81.8008671 7.678123 78.4874089 7.678123 78.4874089 11.6395604 76.5475579 11.6395604"></polygon>
                    <path d="M87.3795281,7.84059461 C87.3795281,9.21420169 88.3489996,10.1841272 89.4810334,10.1841272 C90.6121591,10.1841272 91.5816306,9.21420169 91.5816306,7.84059461 L91.5816306,0.647434371 L93.5214816,0.647434371 L93.5214816,7.84059461 C93.5214816,10.1841272 91.7437389,11.9618699 89.4810334,11.9618699 C87.2174198,11.9618699 85.439223,10.1841272 85.439223,7.84059461 L85.439223,0.647434371 L87.3795281,0.647434371 L87.3795281,7.84059461 Z" id="Fill-26"></path>
                </g>
            </g>
        </g>
    </g>
</svg>