<?xml version="1.0" encoding="UTF-8"?>
<svg width="368px" height="37px" viewBox="0 0 368 37" version="1.1" xmlns="http://www.w3.org/2000/svg" xmlns:xlink="http://www.w3.org/1999/xlink">
    <title>title-lineup</title>
    <g id="Page-1" stroke="none" stroke-width="1" fill="none" fill-rule="evenodd">
        <g id="top-fix" transform="translate(-912.000000, -3587.000000)" fill-rule="nonzero">
            <g id="mamestro-Online-Shop" transform="translate(912.450000, 3587.680000)">
                <path d="M24.185,26.39 C24.1383333,25.7133333 24.1091667,25.0833333 24.0975,24.5 C24.0858333,23.9166667 24.08,23.31 24.08,22.68 C24.08,21.6533333 24.0916667,20.7491667 24.115,19.9675 C24.1383333,19.1858333 24.1616667,18.4858333 24.185,17.8675 C24.2083333,17.2491667 24.2316667,16.7066667 24.255,16.24 C24.2783333,15.7733333 24.29,15.3416667 24.29,14.945 C24.29,13.965 24.1558333,13.125 23.8875,12.425 C23.6191667,11.725 23.2458333,11.1533333 22.7675,10.71 C22.2891667,10.2666667 21.7233333,9.94 21.07,9.73 C20.4166667,9.52 19.705,9.415 18.935,9.415 C17.675,9.415 16.5608333,9.7125 15.5925,10.3075 C14.6241667,10.9025 13.86,11.76 13.3,12.88 L13.3,12.88 L13.23,12.88 C13.1133333,12.39 12.8916667,11.9291667 12.565,11.4975 C12.2383333,11.0658333 11.8475,10.6983333 11.3925,10.395 C10.9375,10.0916667 10.43,9.8525 9.87,9.6775 C9.31,9.5025 8.73833333,9.415 8.155,9.415 C5.915,9.415 4.17666667,10.465 2.94,12.565 L2.94,12.565 L2.87,12.565 C2.87,11.6316667 2.905,10.6983333 2.975,9.765 C2.67166667,9.81166667 2.40916667,9.8525 2.1875,9.8875 C1.96583333,9.9225 1.76166667,9.94 1.575,9.94 C1.17833333,9.94 0.653333333,9.88166667 -4.54747351e-13,9.765 C0.116666667,10.7683333 0.1925,11.8475 0.2275,13.0025 C0.2625,14.1575 0.28,15.26 0.28,16.31 L0.28,16.31 L0.28,19.95 C0.28,21 0.2625,22.1025 0.2275,23.2575 C0.1925,24.4125 0.116666667,25.4566667 -4.54747351e-13,26.39 C0.536666667,26.3433333 1.06166667,26.32 1.575,26.32 C2.08833333,26.32 2.61333333,26.3433333 3.15,26.39 C3.03333333,25.4566667 2.9575,24.4125 2.9225,23.2575 C2.8875,22.1025 2.87,21 2.87,19.95 L2.87,19.95 L2.87,16.975 C2.87,15.155 3.23166667,13.7433333 3.955,12.74 C4.67833333,11.7366667 5.81,11.235 7.35,11.235 C7.93333333,11.235 8.49916667,11.3925 9.0475,11.7075 C9.59583333,12.0225 9.99833333,12.4016667 10.255,12.845 C10.395,13.125 10.5058333,13.3816667 10.5875,13.615 C10.6691667,13.8483333 10.7333333,14.1458333 10.78,14.5075 C10.8266667,14.8691667 10.8558333,15.3591667 10.8675,15.9775 C10.8791667,16.5958333 10.885,17.4533333 10.885,18.55 C10.885,19.8333333 10.8616667,21.14 10.815,22.47 C10.7683333,23.8 10.6866667,25.1066667 10.57,26.39 C11.1066667,26.3433333 11.62,26.32 12.11,26.32 C12.6,26.32 13.1133333,26.3433333 13.65,26.39 C13.6033333,25.41 13.5625,24.5058333 13.5275,23.6775 C13.4925,22.8491667 13.475,21.9333333 13.475,20.93 L13.475,20.93 L13.4759722,20.1313194 C13.479213,18.8496065 13.4905556,17.815 13.51,17.0275 C13.5333333,16.0825 13.5741667,15.3475 13.6325,14.8225 C13.6908333,14.2975 13.7725,13.9066667 13.8775,13.65 C13.9825,13.3933333 14.1283333,13.1366667 14.315,12.88 C14.6416667,12.4366667 15.0966667,12.0516667 15.68,11.725 C16.2633333,11.3983333 16.975,11.235 17.815,11.235 C18.515,11.235 19.0983333,11.3458333 19.565,11.5675 C20.0316667,11.7891667 20.405,12.0866667 20.685,12.46 C20.965,12.8333333 21.1691667,13.2766667 21.2975,13.79 C21.4258333,14.3033333 21.49,14.8516667 21.49,15.435 C21.49,18.6083333 21.4491667,21.0816667 21.3675,22.855 C21.2858333,24.6283333 21.21,25.8066667 21.14,26.39 C21.3966667,26.3433333 21.6533333,26.32 21.91,26.32 L21.91,26.32 L23.415,26.32 C23.6716667,26.32 23.9283333,26.3433333 24.185,26.39 Z M34.53,26.74 C35.72,26.74 36.7233333,26.5416667 37.54,26.145 C38.3566667,25.7483333 39.185,25.13 40.025,24.29 C40.095,24.8966667 40.3283333,25.3925 40.725,25.7775 C41.1216667,26.1625 41.6933333,26.355 42.44,26.355 C42.9066667,26.355 43.3325,26.32 43.7175,26.25 C44.1025,26.18 44.4233333,26.0866667 44.68,25.97 L44.68,25.97 L44.68,25.2 C44.5633333,25.27 44.4408333,25.3108333 44.3125,25.3225 C44.1841667,25.3341667 44.0616667,25.34 43.945,25.34 C43.595,25.34 43.3325,25.2583333 43.1575,25.095 C42.9825,24.9316667 42.8483333,24.7275 42.755,24.4825 C42.6616667,24.2375 42.6091667,23.9575 42.5975,23.6425 C42.5858333,23.3275 42.58,23.03 42.58,22.75 C42.58,21.28 42.6033333,19.8858333 42.65,18.5675 C42.6966667,17.2491667 42.72,15.925 42.72,14.595 C42.72,13.825 42.58,13.1191667 42.3,12.4775 C42.02,11.8358333 41.635,11.2875 41.145,10.8325 C40.655,10.3775 40.06,10.0275 39.36,9.7825 C38.66,9.5375 37.89,9.415 37.05,9.415 C36.1166667,9.415 35.2066667,9.555 34.32,9.835 C33.4333333,10.115 32.465,10.6516667 31.415,11.445 L31.415,11.445 L31.415,13.265 L31.8,13.265 C32.1966667,12.5183333 32.7975,11.935 33.6025,11.515 C34.4075,11.095 35.2766667,10.885 36.21,10.885 C36.91,10.885 37.505,11.0075 37.995,11.2525 C38.485,11.4975 38.8816667,11.8183333 39.185,12.215 C39.4883333,12.6116667 39.71,13.0783333 39.85,13.615 C39.99,14.1516667 40.06,14.7116667 40.06,15.295 C40.06,15.645 40.025,15.9308333 39.955,16.1525 C39.885,16.3741667 39.6808333,16.5666667 39.3425,16.73 C39.0041667,16.8933333 38.4791667,17.0508333 37.7675,17.2025 C37.0558333,17.3541667 36.07,17.535 34.81,17.745 C33.27,18.0016667 32.0625,18.515 31.1875,19.285 C30.3125,20.055 29.875,21.14 29.875,22.54 C29.875,23.2166667 30.0091667,23.8175 30.2775,24.3425 C30.5458333,24.8675 30.8958333,25.3166667 31.3275,25.69 C31.7591667,26.0633333 32.255,26.3316667 32.815,26.495 C33.375,26.6583333 33.9466667,26.74 34.53,26.74 Z M35.79,25.375 C35.02,25.375 34.32,25.095 33.69,24.535 C33.06,23.975 32.745,23.1466667 32.745,22.05 C32.745,21.3966667 32.8675,20.86 33.1125,20.44 C33.3575,20.02 33.6841667,19.67 34.0925,19.39 C34.5008333,19.11 34.9675,18.8883333 35.4925,18.725 C36.0175,18.5616667 36.5483333,18.4275 37.085,18.3225 C37.6216667,18.2175 38.1525,18.1183333 38.6775,18.025 C39.2025,17.9316667 39.6633333,17.815 40.06,17.675 L40.06,17.675 L39.92,22.925 C39.5233333,23.5783333 38.9575,24.15 38.2225,24.64 C37.4875,25.13 36.6766667,25.375 35.79,25.375 Z M74.24,26.39 C74.1933333,25.7133333 74.1641667,25.0833333 74.1525,24.5 C74.1408333,23.9166667 74.135,23.31 74.135,22.68 C74.135,21.6533333 74.1466667,20.7491667 74.17,19.9675 C74.1933333,19.1858333 74.2166667,18.4858333 74.24,17.8675 C74.2633333,17.2491667 74.2866667,16.7066667 74.31,16.24 C74.3333333,15.7733333 74.345,15.3416667 74.345,14.945 C74.345,13.965 74.2108333,13.125 73.9425,12.425 C73.6741667,11.725 73.3008333,11.1533333 72.8225,10.71 C72.3441667,10.2666667 71.7783333,9.94 71.125,9.73 C70.4716667,9.52 69.76,9.415 68.99,9.415 C67.73,9.415 66.6158333,9.7125 65.6475,10.3075 C64.6791667,10.9025 63.915,11.76 63.355,12.88 L63.355,12.88 L63.285,12.88 C63.1683333,12.39 62.9466667,11.9291667 62.62,11.4975 C62.2933333,11.0658333 61.9025,10.6983333 61.4475,10.395 C60.9925,10.0916667 60.485,9.8525 59.925,9.6775 C59.365,9.5025 58.7933333,9.415 58.21,9.415 C55.97,9.415 54.2316667,10.465 52.995,12.565 L52.995,12.565 L52.925,12.565 C52.925,11.6316667 52.96,10.6983333 53.03,9.765 C52.7266667,9.81166667 52.4641667,9.8525 52.2425,9.8875 C52.0208333,9.9225 51.8166667,9.94 51.63,9.94 C51.2333333,9.94 50.7083333,9.88166667 50.055,9.765 C50.1716667,10.7683333 50.2475,11.8475 50.2825,13.0025 C50.3175,14.1575 50.335,15.26 50.335,16.31 L50.335,16.31 L50.335,19.95 C50.335,21 50.3175,22.1025 50.2825,23.2575 C50.2475,24.4125 50.1716667,25.4566667 50.055,26.39 C50.5916667,26.3433333 51.1166667,26.32 51.63,26.32 C52.1433333,26.32 52.6683333,26.3433333 53.205,26.39 C53.0883333,25.4566667 53.0125,24.4125 52.9775,23.2575 C52.9425,22.1025 52.925,21 52.925,19.95 L52.925,19.95 L52.925,16.975 C52.925,15.155 53.2866667,13.7433333 54.01,12.74 C54.7333333,11.7366667 55.865,11.235 57.405,11.235 C57.9883333,11.235 58.5541667,11.3925 59.1025,11.7075 C59.6508333,12.0225 60.0533333,12.4016667 60.31,12.845 C60.45,13.125 60.5608333,13.3816667 60.6425,13.615 C60.7241667,13.8483333 60.7883333,14.1458333 60.835,14.5075 C60.8816667,14.8691667 60.9108333,15.3591667 60.9225,15.9775 C60.9341667,16.5958333 60.94,17.4533333 60.94,18.55 C60.94,19.8333333 60.9166667,21.14 60.87,22.47 C60.8233333,23.8 60.7416667,25.1066667 60.625,26.39 C61.1616667,26.3433333 61.675,26.32 62.165,26.32 C62.655,26.32 63.1683333,26.3433333 63.705,26.39 C63.6583333,25.41 63.6175,24.5058333 63.5825,23.6775 C63.5475,22.8491667 63.53,21.9333333 63.53,20.93 L63.53,20.93 L63.5309722,20.1313194 C63.534213,18.8496065 63.5455556,17.815 63.565,17.0275 C63.5883333,16.0825 63.6291667,15.3475 63.6875,14.8225 C63.7458333,14.2975 63.8275,13.9066667 63.9325,13.65 C64.0375,13.3933333 64.1833333,13.1366667 64.37,12.88 C64.6966667,12.4366667 65.1516667,12.0516667 65.735,11.725 C66.3183333,11.3983333 67.03,11.235 67.87,11.235 C68.57,11.235 69.1533333,11.3458333 69.62,11.5675 C70.0866667,11.7891667 70.46,12.0866667 70.74,12.46 C71.02,12.8333333 71.2241667,13.2766667 71.3525,13.79 C71.4808333,14.3033333 71.545,14.8516667 71.545,15.435 C71.545,18.6083333 71.5041667,21.0816667 71.4225,22.855 C71.3408333,24.6283333 71.265,25.8066667 71.195,26.39 C71.4516667,26.3433333 71.7083333,26.32 71.965,26.32 L71.965,26.32 L73.47,26.32 C73.7266667,26.32 73.9833333,26.3433333 74.24,26.39 Z M88.19,26.74 C89.31,26.74 90.3891667,26.5416667 91.4275,26.145 C92.4658333,25.7483333 93.335,25.27 94.035,24.71 L94.035,24.71 L94.245,22.995 L94.07,22.89 C93.7666667,23.24 93.4108333,23.5666667 93.0025,23.87 C92.5941667,24.1733333 92.1566667,24.4358333 91.69,24.6575 C91.2233333,24.8791667 90.745,25.0541667 90.255,25.1825 C89.765,25.3108333 89.2866667,25.375 88.82,25.375 C87.84,25.375 86.9766667,25.2058333 86.23,24.8675 C85.4833333,24.5291667 84.8533333,24.0741667 84.34,23.5025 C83.8266667,22.9308333 83.4358333,22.2483333 83.1675,21.455 C82.8991667,20.6616667 82.765,19.81 82.765,18.9 L82.765,18.9 L82.765,18.445 C82.765,18.2116667 82.7766667,18.0366667 82.8,17.92 C83.57,17.8966667 84.3341667,17.8733333 85.0925,17.85 C85.8508333,17.8266667 86.615,17.815 87.385,17.815 C88.645,17.815 89.8933333,17.8266667 91.13,17.85 C92.3666667,17.8733333 93.615,17.8966667 94.875,17.92 C94.8983333,17.6866667 94.9158333,17.4591667 94.9275,17.2375 C94.9391667,17.0158333 94.945,16.7883333 94.945,16.555 C94.945,15.575 94.7991667,14.6533333 94.5075,13.79 C94.2158333,12.9266667 93.7666667,12.1741667 93.16,11.5325 C92.5533333,10.8908333 91.8008333,10.3775 90.9025,9.9925 C90.0041667,9.6075 88.9366667,9.415 87.7,9.415 C85.0866667,9.415 83.0975,10.2316667 81.7325,11.865 C80.3675,13.4983333 79.685,15.75 79.685,18.62 C79.685,19.7866667 79.8891667,20.8716667 80.2975,21.875 C80.7058333,22.8783333 81.2891667,23.7475 82.0475,24.4825 C82.8058333,25.2175 83.7041667,25.7775 84.7425,26.1625 C85.7808333,26.5475 86.93,26.74 88.19,26.74 Z M87.42,16.695 C86.6733333,16.695 85.9091667,16.6833333 85.1275,16.66 C84.3458333,16.6366667 83.5933333,16.6133333 82.87,16.59 C82.9166667,15.96 83.0391667,15.2891667 83.2375,14.5775 C83.4358333,13.8658333 83.7275,13.2125 84.1125,12.6175 C84.4975,12.0225 84.9875,11.5266667 85.5825,11.13 C86.1775,10.7333333 86.9066667,10.535 87.77,10.535 C88.68,10.535 89.415,10.7333333 89.975,11.13 C90.535,11.5266667 90.9725,12.0283333 91.2875,12.635 C91.6025,13.2416667 91.8125,13.895 91.9175,14.595 C92.0225,15.295 92.075,15.96 92.075,16.59 C91.3283333,16.6133333 90.5583333,16.6366667 89.765,16.66 C88.9716667,16.6833333 88.19,16.695 87.42,16.695 Z M103.575,26.74 C104.555,26.74 105.43,26.5941667 106.2,26.3025 C106.97,26.0108333 107.629167,25.6025 108.1775,25.0775 C108.725833,24.5525 109.145833,23.9633333 109.4375,23.31 C109.729167,22.6566667 109.875,21.9916667 109.875,21.315 C109.875,20.335 109.670833,19.565 109.2625,19.005 C108.854167,18.445 108.346667,18.0075 107.74,17.6925 C107.133333,17.3775 106.468333,17.1325 105.745,16.9575 C105.021667,16.7825 104.356667,16.5783333 103.75,16.345 C103.143333,16.1116667 102.635833,15.7908333 102.2275,15.3825 C101.819167,14.9741667 101.615,14.3966667 101.615,13.65 C101.615,13.1366667 101.708333,12.6933333 101.895,12.32 C102.081667,11.9466667 102.315,11.6433333 102.595,11.41 C102.875,11.1766667 103.19,11.0016667 103.54,10.885 C103.89,10.7683333 104.24,10.71 104.59,10.71 C105.383333,10.71 106.048333,10.9316667 106.585,11.375 C107.121667,11.8183333 107.483333,12.32 107.67,12.88 L107.67,12.88 L108.09,12.88 C108.136667,12.6 108.241667,12.2033333 108.405,11.69 C108.568333,11.1766667 108.743333,10.745 108.93,10.395 C108.393333,10.2083333 107.8275,9.99833333 107.2325,9.765 C106.6375,9.53166667 105.908333,9.415 105.045,9.415 C104.111667,9.415 103.283333,9.54916667 102.56,9.8175 C101.836667,10.0858333 101.23,10.4533333 100.74,10.92 C100.25,11.3866667 99.8766667,11.9408333 99.62,12.5825 C99.3633333,13.2241667 99.235,13.93 99.235,14.7 C99.235,15.68 99.4391667,16.45 99.8475,17.01 C100.255833,17.57 100.763333,18.0191667 101.37,18.3575 C101.976667,18.6958333 102.641667,18.9583333 103.365,19.145 C104.088333,19.3316667 104.753333,19.5475 105.36,19.7925 C105.966667,20.0375 106.474167,20.3525 106.8825,20.7375 C107.290833,21.1225 107.495,21.6766667 107.495,22.4 C107.495,22.9133333 107.401667,23.3683333 107.215,23.765 C107.028333,24.1616667 106.7775,24.4883333 106.4625,24.745 C106.1475,25.0016667 105.785833,25.2 105.3775,25.34 C104.969167,25.48 104.543333,25.55 104.1,25.55 C103.61,25.55 103.149167,25.4683333 102.7175,25.305 C102.285833,25.1416667 101.900833,24.9375 101.5625,24.6925 C101.224167,24.4475 100.9325,24.185 100.6875,23.905 C100.4425,23.625 100.261667,23.3683333 100.145,23.135 L100.145,23.135 L99.725,23.135 C99.725,23.485 99.6491667,23.9225 99.4975,24.4475 C99.3458333,24.9725 99.2,25.3866667 99.06,25.69 C99.55,25.97 100.156667,26.215 100.88,26.425 C101.603333,26.635 102.501667,26.74 103.575,26.74 Z M120.01,26.74 C120.453333,26.74 120.914167,26.6875 121.3925,26.5825 C121.870833,26.4775 122.308333,26.39 122.705,26.32 L122.705,26.32 L122.705,25.48 C122.471667,25.55 122.1975,25.6083333 121.8825,25.655 C121.5675,25.7016667 121.316667,25.725 121.13,25.725 C120.43,25.725 119.893333,25.5733333 119.52,25.27 C119.146667,24.9666667 118.866667,24.5641667 118.68,24.0625 C118.493333,23.5608333 118.3825,22.995 118.3475,22.365 C118.3125,21.735 118.295,21.0933333 118.295,20.44 C118.295,19.67 118.300833,18.795 118.3125,17.815 C118.324167,16.835 118.341667,15.8958333 118.365,14.9975 C118.388333,14.0991667 118.4175,13.3233333 118.4525,12.67 C118.4875,12.0166667 118.516667,11.6433333 118.54,11.55 L118.54,11.55 L120.255,11.55 C120.628333,11.55 120.978333,11.5558333 121.305,11.5675 C121.631667,11.5791667 121.946667,11.5966667 122.25,11.62 C122.226667,11.55 122.215,11.4333333 122.215,11.27 L122.215,11.27 L122.215,10.535 C122.215,10.3483333 122.226667,10.22 122.25,10.15 C121.433333,10.1966667 120.675,10.2258333 119.975,10.2375 C119.430556,10.2465741 119.020206,10.2521193 118.743951,10.2541358 L118.54,10.255 C118.586667,9.39166667 118.6275,8.53416667 118.6625,7.6825 C118.6975,6.83083333 118.75,5.96166667 118.82,5.075 L118.82,5.075 L118.645,5.075 L115.74,6.3 C115.786667,7.04666667 115.815833,7.77 115.8275,8.47 C115.839167,9.17 115.856667,9.75333333 115.88,10.22 C115.39,10.22 114.62,10.185 113.57,10.115 C113.593333,10.2316667 113.610833,10.3483333 113.6225,10.465 C113.634167,10.5816667 113.64,10.6983333 113.64,10.815 C113.64,10.955 113.634167,11.0891667 113.6225,11.2175 C113.610833,11.3458333 113.593333,11.48 113.57,11.62 C113.803333,11.5966667 114.025,11.5791667 114.235,11.5675 C114.445,11.5558333 114.643333,11.55 114.83,11.55 L114.83,11.55 L115.95,11.55 C115.95,12.8566667 115.938333,14.0408333 115.915,15.1025 C115.891667,16.1641667 115.8625,17.1325 115.8275,18.0075 C115.7925,18.8825 115.763333,19.6875 115.74,20.4225 C115.716667,21.1575 115.705,21.84 115.705,22.47 C115.705,23.87 116.055,24.9316667 116.755,25.655 C117.455,26.3783333 118.54,26.74 120.01,26.74 Z M129.935,26.39 C129.865,25.8766667 129.824167,25.2058333 129.8125,24.3775 C129.802778,23.6872222 129.797106,22.7417361 129.795486,21.5410417 L129.795,16.94 C129.795,16.2633333 129.876667,15.6275 130.04,15.0325 C130.203333,14.4375 130.436667,13.9241667 130.74,13.4925 C131.043333,13.0608333 131.416667,12.7166667 131.86,12.46 C132.303333,12.2033333 132.805,12.075 133.365,12.075 C133.715,12.075 134.059167,12.1333333 134.3975,12.25 C134.735833,12.3666667 134.963333,12.495 135.08,12.635 L135.08,12.635 L135.325,12.46 C135.325,11.9933333 135.336667,11.4741667 135.36,10.9025 C135.383333,10.3308333 135.453333,9.905 135.57,9.625 C135.336667,9.53166667 135.144167,9.47333333 134.9925,9.45 C134.840833,9.42666667 134.66,9.415 134.45,9.415 C132.746667,9.415 131.206667,10.675 129.83,13.195 L129.83,13.195 L129.76,13.16 C129.76,12.7166667 129.765833,12.25 129.7775,11.76 C129.789167,11.27 129.841667,10.605 129.935,9.765 C129.678333,9.81166667 129.433333,9.8525 129.2,9.8875 C128.966667,9.9225 128.745,9.94 128.535,9.94 C128.278333,9.94 128.033333,9.9225 127.8,9.8875 C127.566667,9.8525 127.321667,9.81166667 127.065,9.765 C127.135,11.305 127.175833,12.67 127.1875,13.86 C127.199167,15.05 127.205,16.1 127.205,17.01 L127.205,17.01 L127.205,18.13 C127.205,20.1133333 127.199167,21.7875 127.1875,23.1525 C127.175833,24.5175 127.135,25.5966667 127.065,26.39 C127.531667,26.3433333 128.021667,26.32 128.535,26.32 C129.001667,26.32 129.468333,26.3433333 129.935,26.39 Z M147.49,26.74 C148.516667,26.74 149.531667,26.6 150.535,26.32 C151.538333,26.04 152.448333,25.5558333 153.265,24.8675 C154.081667,24.1791667 154.740833,23.2808333 155.2425,22.1725 C155.744167,21.0641667 155.995,19.7166667 155.995,18.13 C155.995,16.5433333 155.744167,15.1958333 155.2425,14.0875 C154.740833,12.9791667 154.081667,12.0808333 153.265,11.3925 C152.448333,10.7041667 151.538333,10.2025 150.535,9.8875 C149.531667,9.5725 148.516667,9.415 147.49,9.415 C146.486667,9.415 145.4775,9.5725 144.4625,9.8875 C143.4475,10.2025 142.531667,10.7041667 141.715,11.3925 C140.898333,12.0808333 140.239167,12.9791667 139.7375,14.0875 C139.235833,15.1958333 138.985,16.5433333 138.985,18.13 C138.985,19.7166667 139.235833,21.0641667 139.7375,22.1725 C140.239167,23.2808333 140.898333,24.1791667 141.715,24.8675 C142.531667,25.5558333 143.4475,26.04 144.4625,26.32 C145.4775,26.6 146.486667,26.74 147.49,26.74 Z M147.49,25.725 C146.463333,25.725 145.6,25.515 144.9,25.095 C144.2,24.675 143.64,24.1091667 143.22,23.3975 C142.8,22.6858333 142.5025,21.875 142.3275,20.965 C142.1525,20.055 142.065,19.11 142.065,18.13 C142.065,17.15 142.1525,16.205 142.3275,15.295 C142.5025,14.385 142.8,13.5741667 143.22,12.8625 C143.64,12.1508333 144.2,11.585 144.9,11.165 C145.6,10.745 146.463333,10.535 147.49,10.535 C148.516667,10.535 149.38,10.745 150.08,11.165 C150.78,11.585 151.34,12.1508333 151.76,12.8625 C152.18,13.5741667 152.4775,14.385 152.6525,15.295 C152.8275,16.205 152.915,17.15 152.915,18.13 C152.915,19.11 152.8275,20.055 152.6525,20.965 C152.4775,21.875 152.18,22.6858333 151.76,23.3975 C151.34,24.1091667 150.78,24.675 150.08,25.095 C149.38,25.515 148.516667,25.725 147.49,25.725 Z" id="mamestro" fill="#4E2700"></path>
                <path d="M184.91,26.845 C186.846667,26.845 188.62,26.5825 190.23,26.0575 C191.84,25.5325 193.2225,24.7333333 194.3775,23.66 C195.5325,22.5866667 196.430833,21.2741667 197.0725,19.7225 C197.714167,18.1708333 198.035,16.4033333 198.035,14.42 C198.035,12.4366667 197.714167,10.6691667 197.0725,9.1175 C196.430833,7.56583333 195.5325,6.25333333 194.3775,5.18 C193.2225,4.10666667 191.84,3.29 190.23,2.73 C188.62,2.17 186.846667,1.89 184.91,1.89 C182.996667,1.89 181.235,2.17 179.625,2.73 C178.015,3.29 176.6325,4.10666667 175.4775,5.18 C174.3225,6.25333333 173.424167,7.56583333 172.7825,9.1175 C172.140833,10.6691667 171.82,12.4366667 171.82,14.42 C171.82,16.4033333 172.140833,18.1708333 172.7825,19.7225 C173.424167,21.2741667 174.3225,22.5866667 175.4775,23.66 C176.6325,24.7333333 178.015,25.5325 179.625,26.0575 C181.235,26.5825 182.996667,26.845 184.91,26.845 Z M184.91,25.655 C183.556667,25.655 182.290833,25.4333333 181.1125,24.99 C179.934167,24.5466667 178.9075,23.8641667 178.0325,22.9425 C177.1575,22.0208333 176.475,20.8541667 175.985,19.4425 C175.495,18.0308333 175.25,16.3566667 175.25,14.42 C175.25,12.4833333 175.495,10.8091667 175.985,9.3975 C176.475,7.98583333 177.1575,6.81916667 178.0325,5.8975 C178.9075,4.97583333 179.934167,4.29333333 181.1125,3.85 C182.290833,3.40666667 183.556667,3.185 184.91,3.185 C186.286667,3.185 187.564167,3.40666667 188.7425,3.85 C189.920833,4.29333333 190.9475,4.97583333 191.8225,5.8975 C192.6975,6.81916667 193.38,7.98583333 193.87,9.3975 C194.36,10.8091667 194.605,12.4833333 194.605,14.42 C194.605,16.3566667 194.36,18.0308333 193.87,19.4425 C193.38,20.8541667 192.6975,22.0208333 191.8225,22.9425 C190.9475,23.8641667 189.920833,24.5466667 188.7425,24.99 C187.564167,25.4333333 186.286667,25.655 184.91,25.655 Z M217.935,26.39 C217.911667,26.0633333 217.894167,25.7191667 217.8825,25.3575 C217.870833,24.9958333 217.865,24.6283333 217.865,24.255 L217.865,24.255 L217.865,21.98 C217.865,20.79 217.888333,19.6641667 217.935,18.6025 C217.981667,17.5408333 218.005,16.5083333 218.005,15.505 C218.005,14.2916667 217.835833,13.2941667 217.4975,12.5125 C217.159167,11.7308333 216.721667,11.1125 216.185,10.6575 C215.648333,10.2025 215.0475,9.88166667 214.3825,9.695 C213.7175,9.50833333 213.058333,9.415 212.405,9.415 C211.145,9.415 210.06,9.68916667 209.15,10.2375 C208.24,10.7858333 207.458333,11.5616667 206.805,12.565 L206.805,12.565 L206.735,12.565 C206.735,11.6316667 206.77,10.6983333 206.84,9.765 C206.536667,9.81166667 206.274167,9.8525 206.0525,9.8875 C205.830833,9.9225 205.626667,9.94 205.44,9.94 C205.043333,9.94 204.518333,9.88166667 203.865,9.765 C203.981667,10.7683333 204.0575,11.8475 204.0925,13.0025 C204.1275,14.1575 204.145,15.26 204.145,16.31 L204.145,16.31 L204.145,19.95 C204.145,21 204.1275,22.1025 204.0925,23.2575 C204.0575,24.4125 203.981667,25.4566667 203.865,26.39 C204.401667,26.3433333 204.926667,26.32 205.44,26.32 C205.953333,26.32 206.478333,26.3433333 207.015,26.39 C206.898333,25.4566667 206.8225,24.4125 206.7875,23.2575 C206.7525,22.1025 206.735,21 206.735,19.95 L206.735,19.95 L206.735,16.975 C206.735,15.155 207.114167,13.7433333 207.8725,12.74 C208.630833,11.7366667 209.826667,11.235 211.46,11.235 C212.65,11.235 213.583333,11.6841667 214.26,12.5825 C214.936667,13.4808333 215.275,14.805 215.275,16.555 L215.275,16.555 L215.275,18.69 C215.275,20.0433333 215.245833,21.3616667 215.1875,22.645 C215.129167,23.9283333 215.076667,25.1766667 215.03,26.39 C215.496667,26.3433333 215.975,26.32 216.465,26.32 C216.978333,26.32 217.468333,26.3433333 217.935,26.39 Z M227.845,26.39 C227.798333,25.8533333 227.7575,25.1766667 227.7225,24.36 C227.6875,23.5433333 227.658333,22.68 227.635,21.77 C227.611667,20.86 227.594167,19.9383333 227.5825,19.005 C227.570833,18.0716667 227.565,17.2083333 227.565,16.415 L227.565,16.415 L227.565,10.08 C227.565,9.28666667 227.570833,8.42333333 227.5825,7.49 C227.594167,6.55666667 227.611667,5.635 227.635,4.725 C227.658333,3.815 227.6875,2.94583333 227.7225,2.1175 C227.7575,1.28916667 227.798333,0.583333333 227.845,-4.54747351e-13 C227.191667,0.116666667 226.666667,0.175 226.27,0.175 C225.873333,0.175 225.348333,0.116666667 224.695,-4.54747351e-13 C224.741667,0.583333333 224.7825,1.28916667 224.8175,2.1175 C224.8525,2.94583333 224.881667,3.815 224.905,4.725 C224.928333,5.635 224.945833,6.55666667 224.9575,7.49 C224.969167,8.42333333 224.975,9.28666667 224.975,10.08 L224.9743,16.8994 C224.972433,17.5564667 224.966833,18.2583333 224.9575,19.005 C224.945833,19.9383333 224.928333,20.86 224.905,21.77 C224.881667,22.68 224.8525,23.5433333 224.8175,24.36 C224.7825,25.1766667 224.741667,25.8533333 224.695,26.39 C225.231667,26.3433333 225.756667,26.32 226.27,26.32 C226.783333,26.32 227.308333,26.3433333 227.845,26.39 Z M236.26,5.46 C236.75,5.46 237.17,5.285 237.52,4.935 C237.87,4.585 238.045,4.165 238.045,3.675 C238.045,3.185 237.87,2.765 237.52,2.415 C237.17,2.065 236.75,1.89 236.26,1.89 C235.77,1.89 235.35,2.065 235,2.415 C234.65,2.765 234.475,3.185 234.475,3.675 C234.475,4.165 234.65,4.585 235,4.935 C235.35,5.285 235.77,5.46 236.26,5.46 Z M237.835,26.39 C237.718333,25.4566667 237.6425,24.4125 237.6075,23.2575 C237.5725,22.1025 237.555,21 237.555,19.95 L237.555,19.95 L237.555,16.31 C237.555,15.26 237.5725,14.1575 237.6075,13.0025 C237.6425,11.8475 237.718333,10.7683333 237.835,9.765 C237.181667,9.88166667 236.656667,9.94 236.26,9.94 C235.863333,9.94 235.338333,9.88166667 234.685,9.765 C234.801667,10.7683333 234.8775,11.8475 234.9125,13.0025 C234.9475,14.1575 234.965,15.26 234.965,16.31 L234.965,16.31 L234.965,19.95 C234.965,21 234.9475,22.1025 234.9125,23.2575 C234.8775,24.4125 234.801667,25.4566667 234.685,26.39 C235.221667,26.3433333 235.746667,26.32 236.26,26.32 C236.773333,26.32 237.298333,26.3433333 237.835,26.39 Z M258.595,26.39 C258.571667,26.0633333 258.554167,25.7191667 258.5425,25.3575 C258.530833,24.9958333 258.525,24.6283333 258.525,24.255 L258.525,24.255 L258.525,21.98 C258.525,20.79 258.548333,19.6641667 258.595,18.6025 C258.641667,17.5408333 258.665,16.5083333 258.665,15.505 C258.665,14.2916667 258.495833,13.2941667 258.1575,12.5125 C257.819167,11.7308333 257.381667,11.1125 256.845,10.6575 C256.308333,10.2025 255.7075,9.88166667 255.0425,9.695 C254.3775,9.50833333 253.718333,9.415 253.065,9.415 C251.805,9.415 250.72,9.68916667 249.81,10.2375 C248.9,10.7858333 248.118333,11.5616667 247.465,12.565 L247.465,12.565 L247.395,12.565 C247.395,11.6316667 247.43,10.6983333 247.5,9.765 C247.196667,9.81166667 246.934167,9.8525 246.7125,9.8875 C246.490833,9.9225 246.286667,9.94 246.1,9.94 C245.703333,9.94 245.178333,9.88166667 244.525,9.765 C244.641667,10.7683333 244.7175,11.8475 244.7525,13.0025 C244.7875,14.1575 244.805,15.26 244.805,16.31 L244.805,16.31 L244.805,19.95 C244.805,21 244.7875,22.1025 244.7525,23.2575 C244.7175,24.4125 244.641667,25.4566667 244.525,26.39 C245.061667,26.3433333 245.586667,26.32 246.1,26.32 C246.613333,26.32 247.138333,26.3433333 247.675,26.39 C247.558333,25.4566667 247.4825,24.4125 247.4475,23.2575 C247.4125,22.1025 247.395,21 247.395,19.95 L247.395,19.95 L247.395,16.975 C247.395,15.155 247.774167,13.7433333 248.5325,12.74 C249.290833,11.7366667 250.486667,11.235 252.12,11.235 C253.31,11.235 254.243333,11.6841667 254.92,12.5825 C255.596667,13.4808333 255.935,14.805 255.935,16.555 L255.935,16.555 L255.935,18.69 C255.935,20.0433333 255.905833,21.3616667 255.8475,22.645 C255.789167,23.9283333 255.736667,25.1766667 255.69,26.39 C256.156667,26.3433333 256.635,26.32 257.125,26.32 C257.638333,26.32 258.128333,26.3433333 258.595,26.39 Z M272.755,26.74 C273.875,26.74 274.954167,26.5416667 275.9925,26.145 C277.030833,25.7483333 277.9,25.27 278.6,24.71 L278.6,24.71 L278.81,22.995 L278.635,22.89 C278.331667,23.24 277.975833,23.5666667 277.5675,23.87 C277.159167,24.1733333 276.721667,24.4358333 276.255,24.6575 C275.788333,24.8791667 275.31,25.0541667 274.82,25.1825 C274.33,25.3108333 273.851667,25.375 273.385,25.375 C272.405,25.375 271.541667,25.2058333 270.795,24.8675 C270.048333,24.5291667 269.418333,24.0741667 268.905,23.5025 C268.391667,22.9308333 268.000833,22.2483333 267.7325,21.455 C267.464167,20.6616667 267.33,19.81 267.33,18.9 L267.33,18.9 L267.33,18.445 C267.33,18.2116667 267.341667,18.0366667 267.365,17.92 C268.135,17.8966667 268.899167,17.8733333 269.6575,17.85 C270.415833,17.8266667 271.18,17.815 271.95,17.815 C273.21,17.815 274.458333,17.8266667 275.695,17.85 C276.931667,17.8733333 278.18,17.8966667 279.44,17.92 C279.463333,17.6866667 279.480833,17.4591667 279.4925,17.2375 C279.504167,17.0158333 279.51,16.7883333 279.51,16.555 C279.51,15.575 279.364167,14.6533333 279.0725,13.79 C278.780833,12.9266667 278.331667,12.1741667 277.725,11.5325 C277.118333,10.8908333 276.365833,10.3775 275.4675,9.9925 C274.569167,9.6075 273.501667,9.415 272.265,9.415 C269.651667,9.415 267.6625,10.2316667 266.2975,11.865 C264.9325,13.4983333 264.25,15.75 264.25,18.62 C264.25,19.7866667 264.454167,20.8716667 264.8625,21.875 C265.270833,22.8783333 265.854167,23.7475 266.6125,24.4825 C267.370833,25.2175 268.269167,25.7775 269.3075,26.1625 C270.345833,26.5475 271.495,26.74 272.755,26.74 Z M271.985,16.695 C271.238333,16.695 270.474167,16.6833333 269.6925,16.66 C268.910833,16.6366667 268.158333,16.6133333 267.435,16.59 C267.481667,15.96 267.604167,15.2891667 267.8025,14.5775 C268.000833,13.8658333 268.2925,13.2125 268.6775,12.6175 C269.0625,12.0225 269.5525,11.5266667 270.1475,11.13 C270.7425,10.7333333 271.471667,10.535 272.335,10.535 C273.245,10.535 273.98,10.7333333 274.54,11.13 C275.1,11.5266667 275.5375,12.0283333 275.8525,12.635 C276.1675,13.2416667 276.3775,13.895 276.4825,14.595 C276.5875,15.295 276.64,15.96 276.64,16.59 C275.893333,16.6133333 275.123333,16.6366667 274.33,16.66 C273.536667,16.6833333 272.755,16.695 271.985,16.695 Z M298.125,26.845 C299.478333,26.845 300.685833,26.6525 301.7475,26.2675 C302.809167,25.8825 303.7075,25.3341667 304.4425,24.6225 C305.1775,23.9108333 305.7375,23.0766667 306.1225,22.12 C306.5075,21.1633333 306.7,20.1483333 306.7,19.075 C306.7,17.7916667 306.425833,16.765 305.8775,15.995 C305.329167,15.225 304.646667,14.595 303.83,14.105 C303.013333,13.615 302.1325,13.2008333 301.1875,12.8625 C300.2425,12.5241667 299.361667,12.1391667 298.545,11.7075 C297.728333,11.2758333 297.045833,10.745 296.4975,10.115 C295.949167,9.485 295.675,8.62166667 295.675,7.525 C295.675,6.895 295.785833,6.31166667 296.0075,5.775 C296.229167,5.23833333 296.544167,4.7775 296.9525,4.3925 C297.360833,4.0075 297.839167,3.71 298.3875,3.5 C298.935833,3.29 299.536667,3.185 300.19,3.185 C300.843333,3.185 301.403333,3.29583333 301.87,3.5175 C302.336667,3.73916667 302.739167,4.01333333 303.0775,4.34 C303.415833,4.66666667 303.684167,5.0225 303.8825,5.4075 C304.080833,5.7925 304.238333,6.14833333 304.355,6.475 L304.355,6.475 L304.775,6.475 C304.915,5.79833333 305.055,5.23833333 305.195,4.795 C305.335,4.35166667 305.51,3.93166667 305.72,3.535 C305.02,2.975 304.261667,2.56083333 303.445,2.2925 C302.628333,2.02416667 301.66,1.89 300.54,1.89 C299.373333,1.89 298.323333,2.05333333 297.39,2.38 C296.456667,2.70666667 295.6575,3.16166667 294.9925,3.745 C294.3275,4.32833333 293.82,5.0225 293.47,5.8275 C293.12,6.6325 292.945,7.525 292.945,8.505 C292.945,9.88166667 293.219167,10.9783333 293.7675,11.795 C294.315833,12.6116667 294.998333,13.2825 295.815,13.8075 C296.631667,14.3325 297.5125,14.77 298.4575,15.12 C299.4025,15.47 300.283333,15.855 301.1,16.275 C301.916667,16.695 302.599167,17.22 303.1475,17.85 C303.695833,18.48 303.97,19.3316667 303.97,20.405 C303.97,21.105 303.853333,21.7641667 303.62,22.3825 C303.386667,23.0008333 303.054167,23.5375 302.6225,23.9925 C302.190833,24.4475 301.665833,24.8091667 301.0475,25.0775 C300.429167,25.3458333 299.735,25.48 298.965,25.48 C298.218333,25.48 297.541667,25.3691667 296.935,25.1475 C296.328333,24.9258333 295.7975,24.64 295.3425,24.29 C294.8875,23.94 294.5025,23.5491667 294.1875,23.1175 C293.8725,22.6858333 293.621667,22.26 293.435,21.84 L293.435,21.84 L293.015,21.84 C292.945,22.5166667 292.869167,23.0708333 292.7875,23.5025 C292.705833,23.9341667 292.56,24.4183333 292.35,24.955 C292.956667,25.445 293.709167,25.8825 294.6075,26.2675 C295.505833,26.6525 296.678333,26.845 298.125,26.845 Z M326.225,26.39 C326.201667,26.0633333 326.184167,25.7191667 326.1725,25.3575 C326.160833,24.9958333 326.155,24.6283333 326.155,24.255 L326.155,24.255 L326.155,21.98 C326.155,20.79 326.178333,19.6641667 326.225,18.6025 C326.271667,17.5408333 326.295,16.5083333 326.295,15.505 C326.295,14.2916667 326.125833,13.2941667 325.7875,12.5125 C325.449167,11.7308333 325.011667,11.1125 324.475,10.6575 C323.938333,10.2025 323.3375,9.88166667 322.6725,9.695 C322.0075,9.50833333 321.348333,9.415 320.695,9.415 C319.435,9.415 318.35,9.68916667 317.44,10.2375 C316.53,10.7858333 315.748333,11.5616667 315.095,12.565 L315.095,12.565 L315.025,12.565 L315.025,9.905 C315.025,9.135 315.030833,8.295 315.0425,7.385 C315.054167,6.475 315.071667,5.57083333 315.095,4.6725 C315.118333,3.77416667 315.1475,2.91666667 315.1825,2.1 C315.2175,1.28333333 315.258333,0.583333333 315.305,-4.54747351e-13 C314.651667,0.116666667 314.126667,0.175 313.73,0.175 C313.333333,0.175 312.808333,0.116666667 312.155,-4.54747351e-13 C312.201667,0.583333333 312.2425,1.28916667 312.2775,2.1175 C312.3125,2.94583333 312.341667,3.815 312.365,4.725 C312.388333,5.635 312.405833,6.55666667 312.4175,7.49 C312.429167,8.42333333 312.435,9.28666667 312.435,10.08 L312.4343,16.8994 C312.432433,17.5564667 312.426833,18.2583333 312.4175,19.005 C312.405833,19.9383333 312.388333,20.86 312.365,21.77 C312.341667,22.68 312.3125,23.5433333 312.2775,24.36 C312.2425,25.1766667 312.201667,25.8533333 312.155,26.39 C312.691667,26.3433333 313.216667,26.32 313.73,26.32 C314.243333,26.32 314.768333,26.3433333 315.305,26.39 C315.258333,25.8766667 315.2175,25.2116667 315.1825,24.395 C315.1475,23.5783333 315.118333,22.7325 315.095,21.8575 C315.071667,20.9825 315.054167,20.1133333 315.0425,19.25 C315.030833,18.3866667 315.025,17.6283333 315.025,16.975 C315.025,15.155 315.404167,13.7433333 316.1625,12.74 C316.920833,11.7366667 318.116667,11.235 319.75,11.235 C320.94,11.235 321.873333,11.6841667 322.55,12.5825 C323.226667,13.4808333 323.565,14.805 323.565,16.555 L323.565,16.555 L323.565,18.69 C323.565,20.0433333 323.535833,21.3616667 323.4775,22.645 C323.419167,23.9283333 323.366667,25.1766667 323.32,26.39 C323.786667,26.3433333 324.265,26.32 324.755,26.32 C325.268333,26.32 325.758333,26.3433333 326.225,26.39 Z M338.945,26.74 C339.971667,26.74 340.986667,26.6 341.99,26.32 C342.993333,26.04 343.903333,25.5558333 344.72,24.8675 C345.536667,24.1791667 346.195833,23.2808333 346.6975,22.1725 C347.199167,21.0641667 347.45,19.7166667 347.45,18.13 C347.45,16.5433333 347.199167,15.1958333 346.6975,14.0875 C346.195833,12.9791667 345.536667,12.0808333 344.72,11.3925 C343.903333,10.7041667 342.993333,10.2025 341.99,9.8875 C340.986667,9.5725 339.971667,9.415 338.945,9.415 C337.941667,9.415 336.9325,9.5725 335.9175,9.8875 C334.9025,10.2025 333.986667,10.7041667 333.17,11.3925 C332.353333,12.0808333 331.694167,12.9791667 331.1925,14.0875 C330.690833,15.1958333 330.44,16.5433333 330.44,18.13 C330.44,19.7166667 330.690833,21.0641667 331.1925,22.1725 C331.694167,23.2808333 332.353333,24.1791667 333.17,24.8675 C333.986667,25.5558333 334.9025,26.04 335.9175,26.32 C336.9325,26.6 337.941667,26.74 338.945,26.74 Z M338.945,25.725 C337.918333,25.725 337.055,25.515 336.355,25.095 C335.655,24.675 335.095,24.1091667 334.675,23.3975 C334.255,22.6858333 333.9575,21.875 333.7825,20.965 C333.6075,20.055 333.52,19.11 333.52,18.13 C333.52,17.15 333.6075,16.205 333.7825,15.295 C333.9575,14.385 334.255,13.5741667 334.675,12.8625 C335.095,12.1508333 335.655,11.585 336.355,11.165 C337.055,10.745 337.918333,10.535 338.945,10.535 C339.971667,10.535 340.835,10.745 341.535,11.165 C342.235,11.585 342.795,12.1508333 343.215,12.8625 C343.635,13.5741667 343.9325,14.385 344.1075,15.295 C344.2825,16.205 344.37,17.15 344.37,18.13 C344.37,19.11 344.2825,20.055 344.1075,20.965 C343.9325,21.875 343.635,22.6858333 343.215,23.3975 C342.795,24.1091667 342.235,24.675 341.535,25.095 C340.835,25.515 339.971667,25.725 338.945,25.725 Z M355.04,35.595 C354.993333,35.0116667 354.9525,34.3058333 354.9175,33.4775 C354.8825,32.6491667 354.853333,31.78 354.83,30.87 C354.806667,29.96 354.789167,29.0441667 354.7775,28.1225 C354.765833,27.2008333 354.76,26.3666667 354.76,25.62 L354.76,23.415 L354.83,23.415 C355.926667,25.6316667 357.758333,26.74 360.325,26.74 C361.235,26.74 362.145,26.5708333 363.055,26.2325 C363.965,25.8941667 364.775833,25.3633333 365.4875,24.64 C366.199167,23.9166667 366.776667,23.0066667 367.22,21.91 C367.663333,20.8133333 367.885,19.5183333 367.885,18.025 C367.885,16.5316667 367.680833,15.2425 367.2725,14.1575 C366.864167,13.0725 366.3275,12.18 365.6625,11.48 C364.9975,10.78 364.233333,10.2608333 363.37,9.9225 C362.506667,9.58416667 361.631667,9.415 360.745,9.415 C359.881667,9.415 359.111667,9.54333333 358.435,9.8 C357.758333,10.0566667 357.180833,10.3775 356.7025,10.7625 C356.224167,11.1475 355.833333,11.5558333 355.53,11.9875 C355.226667,12.4191667 354.993333,12.8216667 354.83,13.195 L354.83,13.195 L354.76,13.195 C354.76,12.635 354.783333,12.075 354.83,11.515 C354.876667,10.955 354.946667,10.3716667 355.04,9.765 C354.386667,9.88166667 353.861667,9.94 353.465,9.94 C353.068333,9.94 352.543333,9.88166667 351.89,9.765 C351.936667,10.3716667 351.9775,11.095 352.0125,11.935 C352.0475,12.775 352.076667,13.6558333 352.1,14.5775 C352.123333,15.4991667 352.140833,16.4266667 352.1525,17.36 C352.164167,18.2933333 352.17,19.1566667 352.17,19.95 L352.1693,26.0785 C352.167433,26.7038333 352.161833,27.3851667 352.1525,28.1225 C352.140833,29.0441667 352.123333,29.96 352.1,30.87 C352.076667,31.78 352.0475,32.6491667 352.0125,33.4775 C351.9775,34.3058333 351.936667,35.0116667 351.89,35.595 C352.543333,35.4783333 353.068333,35.42 353.465,35.42 C353.861667,35.42 354.386667,35.4783333 355.04,35.595 Z M359.87,25.55 C356.463333,25.55 354.76,23.1233333 354.76,18.27 C354.76,17.2666667 354.853333,16.3158333 355.04,15.4175 C355.226667,14.5191667 355.53,13.7375 355.95,13.0725 C356.37,12.4075 356.9125,11.8766667 357.5775,11.48 C358.2425,11.0833333 359.041667,10.885 359.975,10.885 C360.535,10.885 361.106667,10.99 361.69,11.2 C362.273333,11.41 362.7925,11.7891667 363.2475,12.3375 C363.7025,12.8858333 364.075833,13.615 364.3675,14.525 C364.659167,15.435 364.805,16.59 364.805,17.99 C364.805,19.04 364.705833,20.0258333 364.5075,20.9475 C364.309167,21.8691667 364.005833,22.6741667 363.5975,23.3625 C363.189167,24.0508333 362.675833,24.5875 362.0575,24.9725 C361.439167,25.3575 360.71,25.55 359.87,25.55 Z" id="OnlineShop" fill="#C9A063"></path>
            </g>
        </g>
    </g>
</svg>