<?xml version="1.0" encoding="UTF-8"?>
<svg width="313px" height="32px" viewBox="0 0 313 32" version="1.1" xmlns="http://www.w3.org/2000/svg" xmlns:xlink="http://www.w3.org/1999/xlink">
    <!-- Generator: Sketch 56.2 (81672) - https://sketch.com -->
    <title>txt-reason3-en</title>
    <desc>Created with Sketch.</desc>
    <g id="Page-1" stroke="none" stroke-width="1" fill="none" fill-rule="evenodd">
        <g id="top-fix" transform="translate(-797.000000, -3189.000000)" fill="#4E2700" fill-rule="nonzero">
            <path d="M797.94,3199.22 C797.94,3197.89999 797.915,3196.60501 797.865,3195.335 C797.815,3194.06499 797.76,3192.77001 797.7,3191.45 C798.460004,3191.49 799.214996,3191.525 799.965,3191.555 C800.715004,3191.585 801.469996,3191.6 802.23,3191.6 C802.990004,3191.6 803.744996,3191.575 804.495,3191.525 C805.245004,3191.475 805.999996,3191.45 806.76,3191.45 C808.520009,3191.45 810.024994,3191.68 811.275,3192.14 C812.525006,3192.6 813.549996,3193.255 814.35,3194.105 C815.150004,3194.955 815.734998,3195.99499 816.105,3197.225 C816.475002,3198.45501 816.66,3199.83999 816.66,3201.38 C816.66,3203.38001 816.315003,3205.06499 815.625,3206.435 C814.934997,3207.80501 814.055005,3208.91 812.985,3209.75 C811.914995,3210.59 810.735006,3211.185 809.445,3211.535 C808.154994,3211.885 806.920006,3212.06 805.74,3212.06 C805.059997,3212.06 804.390003,3212.05 803.73,3212.03 C803.069997,3212.01 802.400003,3212 801.72,3212 L799.71,3212 C799.049997,3212 798.380003,3212.02 797.7,3212.06 C797.76,3210.81999 797.815,3209.56001 797.865,3208.28 C797.915,3206.99999 797.94,3205.70001 797.94,3204.38 L797.94,3199.22 Z M800.4,3204.38 C800.4,3206.54001 800.459999,3208.65999 800.58,3210.74 C801.000002,3210.84 801.569996,3210.915 802.29,3210.965 C803.010004,3211.015 803.749996,3211.04 804.51,3211.04 C805.610005,3211.04 806.709994,3210.91 807.81,3210.65 C808.910006,3210.39 809.894996,3209.9 810.765,3209.18 C811.635004,3208.46 812.344997,3207.47501 812.895,3206.225 C813.445003,3204.97499 813.72,3203.36001 813.72,3201.38 C813.72,3199.63999 813.505002,3198.21 813.075,3197.09 C812.644998,3195.96999 812.055004,3195.085 811.305,3194.435 C810.554996,3193.785 809.660005,3193.335 808.62,3193.085 C807.579995,3192.835 806.440006,3192.71 805.2,3192.71 C804.299996,3192.71 803.460004,3192.74 802.68,3192.8 C801.9,3192.86 801.200003,3192.93 800.58,3193.01 C800.52,3193.97 800.475,3194.97499 800.445,3196.025 C800.415,3197.07501 800.4,3198.13999 800.4,3199.22 L800.4,3204.38 Z M823.305,3204.98 C823.305,3205.82 823.379999,3206.63 823.53,3207.41 C823.680001,3208.19 823.934998,3208.885 824.295,3209.495 C824.655002,3210.105 825.134997,3210.59 825.735,3210.95 C826.335003,3211.31 827.074996,3211.49 827.955,3211.49 C828.835004,3211.49 829.574997,3211.31 830.175,3210.95 C830.775003,3210.59 831.254998,3210.105 831.615,3209.495 C831.975002,3208.885 832.229999,3208.19 832.38,3207.41 C832.530001,3206.63 832.605,3205.82 832.605,3204.98 C832.605,3204.14 832.530001,3203.33 832.38,3202.55 C832.229999,3201.77 831.975002,3201.075 831.615,3200.465 C831.254998,3199.855 830.775003,3199.37 830.175,3199.01 C829.574997,3198.65 828.835004,3198.47 827.955,3198.47 C827.074996,3198.47 826.335003,3198.65 825.735,3199.01 C825.134997,3199.37 824.655002,3199.855 824.295,3200.465 C823.934998,3201.075 823.680001,3201.77 823.53,3202.55 C823.379999,3203.33 823.305,3204.14 823.305,3204.98 Z M820.665,3204.98 C820.665,3203.61999 820.879998,3202.465 821.31,3201.515 C821.740002,3200.565 822.304997,3199.795 823.005,3199.205 C823.705003,3198.615 824.489996,3198.185 825.36,3197.915 C826.230004,3197.645 827.094996,3197.51 827.955,3197.51 C828.835004,3197.51 829.704996,3197.645 830.565,3197.915 C831.425004,3198.185 832.204996,3198.615 832.905,3199.205 C833.605003,3199.795 834.169998,3200.565 834.6,3201.515 C835.030002,3202.465 835.245,3203.61999 835.245,3204.98 C835.245,3206.34001 835.030002,3207.495 834.6,3208.445 C834.169998,3209.395 833.605003,3210.165 832.905,3210.755 C832.204996,3211.345 831.425004,3211.76 830.565,3212 C829.704996,3212.24 828.835004,3212.36 827.955,3212.36 C827.094996,3212.36 826.230004,3212.24 825.36,3212 C824.489996,3211.76 823.705003,3211.345 823.005,3210.755 C822.304997,3210.165 821.740002,3209.395 821.31,3208.445 C820.879998,3207.495 820.665,3206.34001 820.665,3204.98 Z M839.85,3207.53 C839.85,3206.46999 839.865,3205.565 839.895,3204.815 C839.925,3204.065 839.94,3203.32 839.94,3202.58 C839.94,3201.88 839.935,3201.12 839.925,3200.3 C839.915,3199.48 839.9,3198.65 839.88,3197.81 C840.380003,3197.91 840.799998,3197.96 841.14,3197.96 C841.460002,3197.96 841.869997,3197.91 842.37,3197.81 C842.27,3199.01001 842.195,3200.32499 842.145,3201.755 C842.095,3203.18501 842.07,3204.64999 842.07,3206.15 C842.07,3207.19001 842.159999,3207.985 842.34,3208.535 C842.520001,3209.085 842.739999,3209.5 843,3209.78 C843.280001,3210.1 843.634998,3210.365 844.065,3210.575 C844.495002,3210.785 844.999997,3210.89 845.58,3210.89 C846.420004,3210.89 847.119997,3210.705 847.68,3210.335 C848.240003,3209.965 848.649999,3209.51 848.91,3208.97 C849.050001,3208.63 849.16,3208.34 849.24,3208.1 C849.32,3207.86 849.385,3207.54 849.435,3207.14 C849.485,3206.74 849.515,3206.2 849.525,3205.52 C849.535,3204.84 849.54,3203.91001 849.54,3202.73 L849.54,3200.21 C849.54,3199.77 849.535,3199.35 849.525,3198.95 C849.515,3198.55 849.5,3198.17 849.48,3197.81 C849.700001,3197.85 849.909999,3197.885 850.11,3197.915 C850.310001,3197.945 850.519999,3197.96 850.74,3197.96 C850.960001,3197.96 851.169999,3197.945 851.37,3197.915 C851.570001,3197.885 851.769999,3197.85 851.97,3197.81 C851.869999,3199.37001 851.81,3200.87499 851.79,3202.325 C851.77,3203.77501 851.76,3205.31 851.76,3206.93 C851.76,3207.83 851.77,3208.71 851.79,3209.57 C851.81,3210.43 851.84,3211.26 851.88,3212.06 C851.479998,3212.02 851.090002,3212 850.71,3212 C850.329998,3212 849.940002,3212.02 849.54,3212.06 C849.56,3211.88 849.575,3211.69 849.585,3211.49 C849.595,3211.29 849.6,3211.08 849.6,3210.86 L849.6,3209.57 L849.54,3209.57 C849.019997,3210.53 848.35,3211.235 847.53,3211.685 C846.709996,3212.135 845.820005,3212.36 844.86,3212.36 C843.299992,3212.36 842.075004,3211.945 841.185,3211.115 C840.294996,3210.285 839.85,3209.09001 839.85,3207.53 Z M868.305,3204.47 C868.305,3203.55 868.190001,3202.735 867.96,3202.025 C867.729999,3201.315 867.430002,3200.72 867.06,3200.24 C866.689998,3199.76 866.260002,3199.395 865.77,3199.145 C865.279998,3198.895 864.775003,3198.77 864.255,3198.77 C863.634997,3198.77 863.040003,3198.885 862.47,3199.115 C861.899997,3199.345 861.405002,3199.725 860.985,3200.255 C860.564998,3200.785 860.230001,3201.475 859.98,3202.325 C859.729999,3203.175 859.605,3204.21999 859.605,3205.46 C859.605,3209.48002 861.064985,3211.49 863.985,3211.49 C864.605,3211.49 865.174997,3211.325 865.695,3210.995 C866.215003,3210.665 866.669998,3210.19 867.06,3209.57 C867.450002,3208.95 867.754999,3208.21 867.975,3207.35 C868.195001,3206.49 868.305,3205.53001 868.305,3204.47 Z M870.945,3204.56 C870.945,3205.72001 870.770002,3206.78 870.42,3207.74 C870.069998,3208.7 869.590003,3209.525 868.98,3210.215 C868.369997,3210.905 867.650004,3211.435 866.82,3211.805 C865.989996,3212.175 865.095005,3212.36 864.135,3212.36 C863.174995,3212.36 862.310004,3212.155 861.54,3211.745 C860.769996,3211.335 860.185002,3210.84 859.785,3210.26 C859.064996,3210.84 858.395003,3211.42 857.775,3212 L857.235,3212 C857.275,3211.52 857.31,3210.94 857.34,3210.26 C857.37,3209.58 857.395,3208.855 857.415,3208.085 C857.435,3207.315 857.45,3206.53 857.46,3205.73 C857.47,3204.93 857.475,3204.19 857.475,3203.51 L857.475,3198.08 C857.475,3197.4 857.47,3196.66 857.46,3195.86 C857.45,3195.06 857.435,3194.27 857.415,3193.49 C857.395,3192.71 857.37,3191.965 857.34,3191.255 C857.31,3190.545 857.275,3189.94 857.235,3189.44 C857.795003,3189.54 858.244998,3189.59 858.585,3189.59 C858.805001,3189.59 859.034999,3189.575 859.275,3189.545 C859.515001,3189.515 859.774999,3189.48 860.055,3189.44 C859.995,3189.84 859.945,3190.475 859.905,3191.345 C859.865,3192.215 859.835,3193.18499 859.815,3194.255 C859.795,3195.32501 859.775,3196.42499 859.755,3197.555 C859.735,3198.68501 859.715,3199.71 859.695,3200.63 L859.755,3200.63 C860.435003,3199.54999 861.184996,3198.76 862.005,3198.26 C862.825004,3197.76 863.774995,3197.51 864.855,3197.51 C865.895005,3197.51 866.794996,3197.705 867.555,3198.095 C868.315004,3198.485 868.944997,3199 869.445,3199.64 C869.945002,3200.28 870.319999,3201.025 870.57,3201.875 C870.820001,3202.725 870.945,3203.62 870.945,3204.56 Z M876.54,3198.08 C876.54,3197.4 876.535,3196.66 876.525,3195.86 C876.515,3195.06 876.5,3194.27 876.48,3193.49 C876.46,3192.71 876.435,3191.965 876.405,3191.255 C876.375,3190.545 876.34,3189.94 876.3,3189.44 C876.860003,3189.54 877.309998,3189.59 877.65,3189.59 C877.990002,3189.59 878.439997,3189.54 879,3189.44 C878.96,3189.94 878.925,3190.545 878.895,3191.255 C878.865,3191.965 878.84,3192.71 878.82,3193.49 C878.8,3194.27 878.785,3195.06 878.775,3195.86 C878.765,3196.66 878.76,3197.4 878.76,3198.08 L878.76,3203.51 C878.76,3204.19 878.765,3204.93 878.775,3205.73 C878.785,3206.53 878.8,3207.32 878.82,3208.1 C878.84,3208.88 878.865,3209.62 878.895,3210.32 C878.925,3211.02 878.96,3211.6 879,3212.06 C878.539998,3212.02 878.090002,3212 877.65,3212 C877.209998,3212 876.760002,3212.02 876.3,3212.06 C876.34,3211.6 876.375,3211.02 876.405,3210.32 C876.435,3209.62 876.46,3208.88 876.48,3208.1 C876.5,3207.32 876.515,3206.53 876.525,3205.73 C876.535,3204.93 876.54,3204.19 876.54,3203.51 L876.54,3198.08 Z M891.075,3198.47 C890.334996,3198.47 889.710003,3198.64 889.2,3198.98 C888.689997,3199.32 888.270002,3199.745 887.94,3200.255 C887.609998,3200.765 887.360001,3201.325 887.19,3201.935 C887.019999,3202.545 886.915,3203.12 886.875,3203.66 C887.495003,3203.68 888.139997,3203.7 888.81,3203.72 C889.480003,3203.74 890.134997,3203.75 890.775,3203.75 C891.435003,3203.75 892.104997,3203.74 892.785,3203.72 C893.465003,3203.7 894.124997,3203.68 894.765,3203.66 C894.765,3203.12 894.72,3202.55 894.63,3201.95 C894.54,3201.35 894.360001,3200.79 894.09,3200.27 C893.819999,3199.75 893.445002,3199.32 892.965,3198.98 C892.484998,3198.64 891.855004,3198.47 891.075,3198.47 Z M884.145,3205.4 C884.145,3202.93999 884.729994,3201.01 885.9,3199.61 C887.070006,3198.20999 888.774989,3197.51 891.015,3197.51 C892.075005,3197.51 892.989996,3197.675 893.76,3198.005 C894.530004,3198.335 895.174997,3198.775 895.695,3199.325 C896.215003,3199.875 896.599999,3200.52 896.85,3201.26 C897.100001,3202 897.225,3202.79 897.225,3203.63 C897.225,3203.83 897.22,3204.025 897.21,3204.215 C897.2,3204.405 897.185,3204.6 897.165,3204.8 C896.084995,3204.78 895.015005,3204.76 893.955,3204.74 C892.894995,3204.72 891.825005,3204.71 890.745,3204.71 C890.084997,3204.71 889.430003,3204.72 888.78,3204.74 C888.129997,3204.76 887.475003,3204.78 886.815,3204.8 C886.795,3204.9 886.785,3205.05 886.785,3205.25 L886.785,3205.64 C886.785,3206.42 886.899999,3207.15 887.13,3207.83 C887.360001,3208.51 887.694998,3209.095 888.135,3209.585 C888.575002,3210.075 889.114997,3210.465 889.755,3210.755 C890.395003,3211.045 891.134996,3211.19 891.975,3211.19 C892.375002,3211.19 892.784998,3211.135 893.205,3211.025 C893.625002,3210.915 894.034998,3210.765 894.435,3210.575 C894.835002,3210.385 895.209998,3210.16 895.56,3209.9 C895.910002,3209.64 896.214999,3209.36 896.475,3209.06 L896.625,3209.15 L896.445,3210.62 C895.844997,3211.1 895.100004,3211.51 894.21,3211.85 C893.319996,3212.19 892.395005,3212.36 891.435,3212.36 C890.354995,3212.36 889.370004,3212.195 888.48,3211.865 C887.589996,3211.535 886.820003,3211.055 886.17,3210.425 C885.519997,3209.795 885.020002,3209.05 884.67,3208.19 C884.319998,3207.33 884.145,3206.4 884.145,3205.4 Z M910.245,3201.8 C910.245,3200.09999 910.519997,3198.58501 911.07,3197.255 C911.620003,3195.92499 912.389995,3194.8 913.38,3193.88 C914.370005,3192.96 915.554993,3192.26 916.935,3191.78 C918.315007,3191.3 919.824992,3191.06 921.465,3191.06 C923.125008,3191.06 924.644993,3191.3 926.025,3191.78 C927.405007,3192.26 928.589995,3192.96 929.58,3193.88 C930.570005,3194.8 931.339997,3195.92499 931.89,3197.255 C932.440003,3198.58501 932.715,3200.09999 932.715,3201.8 C932.715,3203.20001 932.525002,3204.47499 932.145,3205.625 C931.764998,3206.77501 931.230003,3207.795 930.54,3208.685 C929.849997,3209.575 929.020005,3210.31 928.05,3210.89 C927.079995,3211.47 925.995006,3211.87 924.795,3212.09 C925.875005,3212.95 926.969994,3213.81 928.08,3214.67 C929.190006,3215.53 930.354994,3216.39 931.575,3217.25 C931.054997,3217.29 930.575002,3217.44 930.135,3217.7 C929.694998,3217.96 929.395001,3218.22 929.235,3218.48 C928.134994,3217.45999 927.025006,3216.45001 925.905,3215.45 C924.784994,3214.44999 923.595006,3213.44001 922.335,3212.42 C922.234999,3212.44 922.085001,3212.45 921.885,3212.45 L921.465,3212.45 C919.824992,3212.45 918.315007,3212.225 916.935,3211.775 C915.554993,3211.325 914.370005,3210.64 913.38,3209.72 C912.389995,3208.8 911.620003,3207.67501 911.07,3206.345 C910.519997,3205.01499 910.245,3203.50001 910.245,3201.8 Z M929.775,3201.8 C929.775,3200.13999 929.565002,3198.70501 929.145,3197.495 C928.724998,3196.28499 928.140004,3195.285 927.39,3194.495 C926.639996,3193.705 925.760005,3193.12 924.75,3192.74 C923.739995,3192.36 922.645006,3192.17 921.465,3192.17 C920.304994,3192.17 919.220005,3192.36 918.21,3192.74 C917.199995,3193.12 916.320004,3193.705 915.57,3194.495 C914.819996,3195.285 914.235002,3196.28499 913.815,3197.495 C913.394998,3198.70501 913.185,3200.13999 913.185,3201.8 C913.185,3203.46001 913.394998,3204.89499 913.815,3206.105 C914.235002,3207.31501 914.819996,3208.315 915.57,3209.105 C916.320004,3209.895 917.199995,3210.48 918.21,3210.86 C919.220005,3211.24 920.304994,3211.43 921.465,3211.43 C922.645006,3211.43 923.739995,3211.24 924.75,3210.86 C925.760005,3210.48 926.639996,3209.895 927.39,3209.105 C928.140004,3208.315 928.724998,3207.31501 929.145,3206.105 C929.565002,3204.89499 929.775,3203.46001 929.775,3201.8 Z M937.53,3207.53 C937.53,3206.46999 937.545,3205.565 937.575,3204.815 C937.605,3204.065 937.62,3203.32 937.62,3202.58 C937.62,3201.88 937.615,3201.12 937.605,3200.3 C937.595,3199.48 937.58,3198.65 937.56,3197.81 C938.060002,3197.91 938.479998,3197.96 938.82,3197.96 C939.140002,3197.96 939.549998,3197.91 940.05,3197.81 C939.949999,3199.01001 939.875,3200.32499 939.825,3201.755 C939.775,3203.18501 939.75,3204.64999 939.75,3206.15 C939.75,3207.19001 939.839999,3207.985 940.02,3208.535 C940.200001,3209.085 940.419999,3209.5 940.68,3209.78 C940.960001,3210.1 941.314998,3210.365 941.745,3210.575 C942.175002,3210.785 942.679997,3210.89 943.26,3210.89 C944.100004,3210.89 944.799997,3210.705 945.36,3210.335 C945.920003,3209.965 946.329999,3209.51 946.59,3208.97 C946.730001,3208.63 946.84,3208.34 946.92,3208.1 C947,3207.86 947.065,3207.54 947.115,3207.14 C947.165,3206.74 947.195,3206.2 947.205,3205.52 C947.215,3204.84 947.22,3203.91001 947.22,3202.73 L947.22,3200.21 C947.22,3199.77 947.215,3199.35 947.205,3198.95 C947.195,3198.55 947.18,3198.17 947.16,3197.81 C947.380001,3197.85 947.589999,3197.885 947.79,3197.915 C947.990001,3197.945 948.199999,3197.96 948.42,3197.96 C948.640001,3197.96 948.849999,3197.945 949.05,3197.915 C949.250001,3197.885 949.449999,3197.85 949.65,3197.81 C949.55,3199.37001 949.49,3200.87499 949.47,3202.325 C949.45,3203.77501 949.44,3205.31 949.44,3206.93 C949.44,3207.83 949.45,3208.71 949.47,3209.57 C949.49,3210.43 949.52,3211.26 949.56,3212.06 C949.159998,3212.02 948.770002,3212 948.39,3212 C948.009998,3212 947.620002,3212.02 947.22,3212.06 C947.24,3211.88 947.255,3211.69 947.265,3211.49 C947.275,3211.29 947.28,3211.08 947.28,3210.86 L947.28,3209.57 L947.22,3209.57 C946.699997,3210.53 946.03,3211.235 945.21,3211.685 C944.389996,3212.135 943.500005,3212.36 942.54,3212.36 C940.979992,3212.36 939.755004,3211.945 938.865,3211.115 C937.974996,3210.285 937.53,3209.09001 937.53,3207.53 Z M963.195,3204.59 C962.854998,3204.71 962.460002,3204.81 962.01,3204.89 C961.559998,3204.97 961.105002,3205.055 960.645,3205.145 C960.184998,3205.235 959.730002,3205.35 959.28,3205.49 C958.829998,3205.63 958.430002,3205.82 958.08,3206.06 C957.729998,3206.3 957.450001,3206.6 957.24,3206.96 C957.029999,3207.32 956.925,3207.78 956.925,3208.34 C956.925,3209.28 957.194997,3209.99 957.735,3210.47 C958.275003,3210.95 958.874997,3211.19 959.535,3211.19 C960.295004,3211.19 960.989997,3210.98 961.62,3210.56 C962.250003,3210.14 962.734998,3209.65 963.075,3209.09 L963.195,3204.59 Z M955.785,3199.25 C956.685004,3198.57 957.514996,3198.11 958.275,3197.87 C959.035004,3197.63 959.814996,3197.51 960.615,3197.51 C961.335004,3197.51 961.994997,3197.615 962.595,3197.825 C963.195003,3198.035 963.704998,3198.335 964.125,3198.725 C964.545002,3199.115 964.874999,3199.585 965.115,3200.135 C965.355001,3200.685 965.475,3201.29 965.475,3201.95 C965.475,3203.09001 965.455,3204.22499 965.415,3205.355 C965.375,3206.48501 965.355,3207.67999 965.355,3208.94 C965.355,3209.18 965.36,3209.435 965.37,3209.705 C965.38,3209.975 965.425,3210.215 965.505,3210.425 C965.585,3210.635 965.699999,3210.81 965.85,3210.95 C966.000001,3211.09 966.224998,3211.16 966.525,3211.16 C966.625,3211.16 966.729999,3211.155 966.84,3211.145 C966.950001,3211.135 967.055,3211.1 967.155,3211.04 L967.155,3211.7 C966.934999,3211.8 966.660002,3211.88 966.33,3211.94 C965.999998,3212 965.635002,3212.03 965.235,3212.03 C964.594997,3212.03 964.105002,3211.865 963.765,3211.535 C963.424998,3211.205 963.225,3210.78 963.165,3210.26 C962.444996,3210.98 961.735003,3211.51 961.035,3211.85 C960.334996,3212.19 959.475005,3212.36 958.455,3212.36 C957.954997,3212.36 957.465,3212.29 956.985,3212.15 C956.504998,3212.01 956.080002,3211.78 955.71,3211.46 C955.339998,3211.14 955.040001,3210.755 954.81,3210.305 C954.579999,3209.855 954.465,3209.34 954.465,3208.76 C954.465,3207.55999 954.839996,3206.63 955.59,3205.97 C956.340004,3205.31 957.374993,3204.87 958.695,3204.65 C959.775005,3204.47 960.619997,3204.315 961.23,3204.185 C961.840003,3204.055 962.289999,3203.92 962.58,3203.78 C962.870001,3203.64 963.045,3203.475 963.105,3203.285 C963.165,3203.095 963.195,3202.85 963.195,3202.55 C963.195,3202.05 963.135001,3201.57 963.015,3201.11 C962.894999,3200.65 962.705001,3200.25 962.445,3199.91 C962.184999,3199.57 961.845002,3199.295 961.425,3199.085 C961.004998,3198.875 960.495003,3198.77 959.895,3198.77 C959.094996,3198.77 958.350003,3198.95 957.66,3199.31 C956.969997,3199.67 956.455002,3200.17 956.115,3200.81 L955.785,3200.81 L955.785,3199.25 Z M972.54,3198.08 C972.54,3197.4 972.535,3196.66 972.525,3195.86 C972.515,3195.06 972.5,3194.27 972.48,3193.49 C972.46,3192.71 972.435,3191.965 972.405,3191.255 C972.375,3190.545 972.34,3189.94 972.3,3189.44 C972.860003,3189.54 973.309998,3189.59 973.65,3189.59 C973.990002,3189.59 974.439997,3189.54 975,3189.44 C974.96,3189.94 974.925,3190.545 974.895,3191.255 C974.865,3191.965 974.84,3192.71 974.82,3193.49 C974.8,3194.27 974.785,3195.06 974.775,3195.86 C974.765,3196.66 974.76,3197.4 974.76,3198.08 L974.76,3203.51 C974.76,3204.19 974.765,3204.93 974.775,3205.73 C974.785,3206.53 974.8,3207.32 974.82,3208.1 C974.84,3208.88 974.865,3209.62 974.895,3210.32 C974.925,3211.02 974.96,3211.6 975,3212.06 C974.539998,3212.02 974.090002,3212 973.65,3212 C973.209998,3212 972.760002,3212.02 972.3,3212.06 C972.34,3211.6 972.375,3211.02 972.405,3210.32 C972.435,3209.62 972.46,3208.88 972.48,3208.1 C972.5,3207.32 972.515,3206.53 972.525,3205.73 C972.535,3204.93 972.54,3204.19 972.54,3203.51 L972.54,3198.08 Z M981.735,3192.59 C981.735,3192.17 981.884998,3191.81 982.185,3191.51 C982.485001,3191.21 982.844998,3191.06 983.265,3191.06 C983.685002,3191.06 984.044999,3191.21 984.345,3191.51 C984.645002,3191.81 984.795,3192.17 984.795,3192.59 C984.795,3193.01 984.645002,3193.37 984.345,3193.67 C984.044999,3193.97 983.685002,3194.12 983.265,3194.12 C982.844998,3194.12 982.485001,3193.97 982.185,3193.67 C981.884998,3193.37 981.735,3193.01 981.735,3192.59 Z M982.155,3203.42 C982.155,3202.52 982.14,3201.575 982.11,3200.585 C982.08,3199.595 982.015001,3198.67 981.915,3197.81 C982.475003,3197.91 982.924998,3197.96 983.265,3197.96 C983.605002,3197.96 984.054997,3197.91 984.615,3197.81 C984.514999,3198.67 984.45,3199.595 984.42,3200.585 C984.39,3201.575 984.375,3202.52 984.375,3203.42 L984.375,3206.54 C984.375,3207.44 984.39,3208.385 984.42,3209.375 C984.45,3210.365 984.514999,3211.26 984.615,3212.06 C984.154998,3212.02 983.705002,3212 983.265,3212 C982.824998,3212 982.375002,3212.02 981.915,3212.06 C982.015001,3211.26 982.08,3210.365 982.11,3209.375 C982.14,3208.385 982.155,3207.44 982.155,3206.54 L982.155,3203.42 Z M993.72,3193.79 C993.66,3194.55 993.615,3195.295 993.585,3196.025 C993.555,3196.755 993.52,3197.49 993.48,3198.23 C993.700001,3198.23 994.109997,3198.225 994.71,3198.215 C995.310003,3198.205 995.959996,3198.18 996.66,3198.14 C996.64,3198.2 996.63,3198.31 996.63,3198.47 L996.63,3199.1 C996.63,3199.24 996.64,3199.34 996.66,3199.4 C996.399999,3199.38 996.130001,3199.365 995.85,3199.355 C995.569999,3199.345 995.270002,3199.34 994.95,3199.34 L993.48,3199.34 C993.46,3199.42 993.435,3199.74 993.405,3200.3 C993.375,3200.86 993.35,3201.525 993.33,3202.295 C993.31,3203.065 993.295,3203.87 993.285,3204.71 C993.275,3205.55 993.27,3206.3 993.27,3206.96 C993.27,3207.52 993.285,3208.07 993.315,3208.61 C993.345,3209.15 993.439999,3209.635 993.6,3210.065 C993.760001,3210.495 993.999998,3210.84 994.32,3211.1 C994.640002,3211.36 995.099997,3211.49 995.7,3211.49 C995.860001,3211.49 996.074999,3211.47 996.345,3211.43 C996.615001,3211.39 996.849999,3211.34 997.05,3211.28 L997.05,3212 C996.709998,3212.06 996.335002,3212.135 995.925,3212.225 C995.514998,3212.315 995.120002,3212.36 994.74,3212.36 C993.479994,3212.36 992.550003,3212.05 991.95,3211.43 C991.349997,3210.81 991.05,3209.90001 991.05,3208.7 C991.05,3208.16 991.06,3207.575 991.08,3206.945 C991.1,3206.315 991.125,3205.625 991.155,3204.875 C991.185,3204.125 991.21,3203.295 991.23,3202.385 C991.25,3201.475 991.26,3200.46001 991.26,3199.34 L990.3,3199.34 C990.139999,3199.34 989.970001,3199.345 989.79,3199.355 C989.609999,3199.365 989.420001,3199.38 989.22,3199.4 C989.24,3199.28 989.255,3199.165 989.265,3199.055 C989.275,3198.945 989.28,3198.83 989.28,3198.71 C989.28,3198.61 989.275,3198.51 989.265,3198.41 C989.255,3198.31 989.24,3198.21 989.22,3198.11 C990.120005,3198.17 990.779998,3198.2 991.2,3198.2 C991.18,3197.8 991.165,3197.3 991.155,3196.7 C991.145,3196.1 991.12,3195.48 991.08,3194.84 L993.57,3193.79 L993.72,3193.79 Z M1004.985,3212.09 C1004.765,3211.55 1004.48,3210.85 1004.13,3209.99 C1003.78,3209.13 1003.405,3208.225 1003.005,3207.275 C1002.605,3206.325 1002.195,3205.355 1001.775,3204.365 C1001.355,3203.375 1000.96,3202.445 1000.59,3201.575 C1000.22,3200.705 999.895001,3199.94 999.615,3199.28 C999.334999,3198.62 999.125001,3198.13 998.985,3197.81 C999.245001,3197.85 999.485,3197.885 999.705,3197.915 C999.925001,3197.945 1000.145,3197.96 1000.365,3197.96 C1000.585,3197.96 1000.805,3197.945 1001.025,3197.915 C1001.245,3197.885 1001.485,3197.85 1001.745,3197.81 C1002.365,3199.73001 1003.055,3201.62999 1003.815,3203.51 C1004.575,3205.39001 1005.375,3207.32999 1006.215,3209.33 C1007.055,3207.56999 1007.86,3205.69001 1008.63,3203.69 C1009.4,3201.68999 1010.085,3199.73001 1010.685,3197.81 C1011.085,3197.91 1011.415,3197.96 1011.675,3197.96 C1011.935,3197.96 1012.265,3197.91 1012.665,3197.81 C1012.525,3198.09 1012.3,3198.565 1011.99,3199.235 C1011.68,3199.905 1011.31,3200.705 1010.88,3201.635 C1010.45,3202.565 1009.98,3203.59499 1009.47,3204.725 C1008.96,3205.85501 1008.44,3207.01499 1007.91,3208.205 C1007.38,3209.39501 1006.855,3210.57499 1006.335,3211.745 C1005.815,3212.91501 1005.335,3214.02499 1004.895,3215.075 C1004.455,3216.12501 1004.07,3217.075 1003.74,3217.925 C1003.41,3218.775 1003.165,3219.45 1003.005,3219.95 C1002.605,3219.85 1002.265,3219.8 1001.985,3219.8 C1001.705,3219.8 1001.365,3219.85 1000.965,3219.95 C1002.54501,3217.32999 1003.88499,3214.71001 1004.985,3212.09 Z M1042.665,3210.83 C1042.485,3210.99 1042.2,3211.165 1041.81,3211.355 C1041.42,3211.545 1040.95,3211.715 1040.4,3211.865 C1039.85,3212.015 1039.235,3212.15 1038.555,3212.27 C1037.875,3212.39 1037.165,3212.45 1036.425,3212.45 C1034.84499,3212.45 1033.38501,3212.225 1032.045,3211.775 C1030.70499,3211.325 1029.55,3210.64 1028.58,3209.72 C1027.61,3208.8 1026.85,3207.67501 1026.3,3206.345 C1025.75,3205.01499 1025.475,3203.50001 1025.475,3201.8 C1025.475,3200.09999 1025.75,3198.58501 1026.3,3197.255 C1026.85,3195.92499 1027.62,3194.8 1028.61,3193.88 C1029.6,3192.96 1030.78499,3192.26 1032.165,3191.78 C1033.54501,3191.3 1035.06499,3191.06 1036.725,3191.06 C1038.04501,3191.06 1039.24999,3191.195 1040.34,3191.465 C1041.43001,3191.735 1042.395,3192.06 1043.235,3192.44 C1043.075,3192.72 1042.945,3193.1 1042.845,3193.58 C1042.745,3194.06 1042.665,3194.46 1042.605,3194.78 L1042.425,3194.84 C1042.225,3194.6 1041.945,3194.33 1041.585,3194.03 C1041.225,3193.73 1040.805,3193.44 1040.325,3193.16 C1039.845,3192.88 1039.305,3192.645 1038.705,3192.455 C1038.105,3192.265 1037.445,3192.17 1036.725,3192.17 C1035.54499,3192.17 1034.45001,3192.36 1033.44,3192.74 C1032.42999,3193.12 1031.55,3193.705 1030.8,3194.495 C1030.05,3195.285 1029.465,3196.28499 1029.045,3197.495 C1028.625,3198.70501 1028.415,3200.13999 1028.415,3201.8 C1028.415,3203.46001 1028.625,3204.89499 1029.045,3206.105 C1029.465,3207.31501 1030.05,3208.315 1030.8,3209.105 C1031.55,3209.895 1032.42999,3210.48 1033.44,3210.86 C1034.45001,3211.24 1035.54499,3211.43 1036.725,3211.43 C1037.445,3211.43 1038.11,3211.34 1038.72,3211.16 C1039.33,3210.98 1039.89,3210.765 1040.4,3210.515 C1040.91,3210.265 1041.37,3209.995 1041.78,3209.705 C1042.19,3209.415 1042.535,3209.16 1042.815,3208.94 L1042.935,3209.06 L1042.665,3210.83 Z M1048.02,3198.08 C1048.02,3197.4 1048.015,3196.66 1048.005,3195.86 C1047.995,3195.06 1047.98,3194.27 1047.96,3193.49 C1047.94,3192.71 1047.915,3191.965 1047.885,3191.255 C1047.855,3190.545 1047.82,3189.94 1047.78,3189.44 C1048.34,3189.54 1048.79,3189.59 1049.13,3189.59 C1049.47,3189.59 1049.92,3189.54 1050.48,3189.44 C1050.44,3189.94 1050.405,3190.54 1050.375,3191.24 C1050.345,3191.94 1050.32,3192.675 1050.3,3193.445 C1050.28,3194.215 1050.265,3194.99 1050.255,3195.77 C1050.245,3196.55 1050.24,3197.27 1050.24,3197.93 L1050.24,3200.21 L1050.3,3200.21 C1050.86,3199.35 1051.53,3198.685 1052.31,3198.215 C1053.09,3197.745 1054.01999,3197.51 1055.1,3197.51 C1055.66,3197.51 1056.225,3197.59 1056.795,3197.75 C1057.365,3197.91 1057.88,3198.185 1058.34,3198.575 C1058.8,3198.965 1059.175,3199.495 1059.465,3200.165 C1059.755,3200.835 1059.9,3201.68999 1059.9,3202.73 C1059.9,3203.59 1059.88,3204.475 1059.84,3205.385 C1059.8,3206.295 1059.78,3207.25999 1059.78,3208.28 L1059.78,3210.23 C1059.78,3210.55 1059.785,3210.865 1059.795,3211.175 C1059.805,3211.485 1059.82,3211.78 1059.84,3212.06 C1059.44,3212.02 1059.02,3212 1058.58,3212 C1058.16,3212 1057.75,3212.02 1057.35,3212.06 C1057.39,3211.01999 1057.435,3209.95001 1057.485,3208.85 C1057.535,3207.74999 1057.56,3206.62001 1057.56,3205.46 L1057.56,3203.63 C1057.56,3202.12999 1057.27,3200.995 1056.69,3200.225 C1056.11,3199.455 1055.31001,3199.07 1054.29,3199.07 C1052.88999,3199.07 1051.865,3199.5 1051.215,3200.36 C1050.565,3201.22 1050.24,3202.42999 1050.24,3203.99 C1050.24,3204.55 1050.245,3205.2 1050.255,3205.94 C1050.265,3206.68 1050.28,3207.425 1050.3,3208.175 C1050.32,3208.925 1050.345,3209.65 1050.375,3210.35 C1050.405,3211.05 1050.44,3211.62 1050.48,3212.06 C1050.02,3212.02 1049.57,3212 1049.13,3212 C1048.69,3212 1048.24,3212.02 1047.78,3212.06 C1047.82,3211.6 1047.855,3211.02 1047.885,3210.32 C1047.915,3209.62 1047.94,3208.88 1047.96,3208.1 C1047.98,3207.32 1047.995,3206.53 1048.005,3205.73 C1048.015,3204.93 1048.02,3204.19 1048.02,3203.51 L1048.02,3198.08 Z M1071.435,3198.47 C1070.695,3198.47 1070.07,3198.64 1069.56,3198.98 C1069.05,3199.32 1068.63,3199.745 1068.3,3200.255 C1067.97,3200.765 1067.72,3201.325 1067.55,3201.935 C1067.38,3202.545 1067.275,3203.12 1067.235,3203.66 C1067.855,3203.68 1068.5,3203.7 1069.17,3203.72 C1069.84,3203.74 1070.495,3203.75 1071.135,3203.75 C1071.795,3203.75 1072.465,3203.74 1073.145,3203.72 C1073.825,3203.7 1074.485,3203.68 1075.125,3203.66 C1075.125,3203.12 1075.08,3202.55 1074.99,3201.95 C1074.9,3201.35 1074.72,3200.79 1074.45,3200.27 C1074.18,3199.75 1073.805,3199.32 1073.325,3198.98 C1072.845,3198.64 1072.215,3198.47 1071.435,3198.47 Z M1064.505,3205.4 C1064.505,3202.93999 1065.08999,3201.01 1066.26,3199.61 C1067.43001,3198.20999 1069.13499,3197.51 1071.375,3197.51 C1072.43501,3197.51 1073.35,3197.675 1074.12,3198.005 C1074.89,3198.335 1075.535,3198.775 1076.055,3199.325 C1076.575,3199.875 1076.96,3200.52 1077.21,3201.26 C1077.46,3202 1077.585,3202.79 1077.585,3203.63 C1077.585,3203.83 1077.58,3204.025 1077.57,3204.215 C1077.56,3204.405 1077.545,3204.6 1077.525,3204.8 C1076.44499,3204.78 1075.37501,3204.76 1074.315,3204.74 C1073.25499,3204.72 1072.18501,3204.71 1071.105,3204.71 C1070.445,3204.71 1069.79,3204.72 1069.14,3204.74 C1068.49,3204.76 1067.835,3204.78 1067.175,3204.8 C1067.155,3204.9 1067.145,3205.05 1067.145,3205.25 L1067.145,3205.64 C1067.145,3206.42 1067.26,3207.15 1067.49,3207.83 C1067.72,3208.51 1068.055,3209.095 1068.495,3209.585 C1068.935,3210.075 1069.475,3210.465 1070.115,3210.755 C1070.755,3211.045 1071.495,3211.19 1072.335,3211.19 C1072.735,3211.19 1073.145,3211.135 1073.565,3211.025 C1073.985,3210.915 1074.395,3210.765 1074.795,3210.575 C1075.195,3210.385 1075.57,3210.16 1075.92,3209.9 C1076.27,3209.64 1076.575,3209.36 1076.835,3209.06 L1076.985,3209.15 L1076.805,3210.62 C1076.205,3211.1 1075.46,3211.51 1074.57,3211.85 C1073.68,3212.19 1072.755,3212.36 1071.795,3212.36 C1070.71499,3212.36 1069.73,3212.195 1068.84,3211.865 C1067.95,3211.535 1067.18,3211.055 1066.53,3210.425 C1065.88,3209.795 1065.38,3209.05 1065.03,3208.19 C1064.68,3207.33 1064.505,3206.4 1064.505,3205.4 Z M1080.99,3204.98 C1080.99,3203.67999 1081.21,3202.56 1081.65,3201.62 C1082.09,3200.68 1082.665,3199.905 1083.375,3199.295 C1084.085,3198.685 1084.9,3198.235 1085.82,3197.945 C1086.74,3197.655 1087.68,3197.51 1088.64,3197.51 C1089.74001,3197.51 1090.725,3197.645 1091.595,3197.915 C1092.465,3198.185 1093.09,3198.49 1093.47,3198.83 C1093.33,3199.13 1093.205,3199.445 1093.095,3199.775 C1092.985,3200.105 1092.89,3200.45 1092.81,3200.81 L1092.57,3200.81 C1092.43,3200.55 1092.24,3200.285 1092,3200.015 C1091.76,3199.745 1091.475,3199.495 1091.145,3199.265 C1090.815,3199.035 1090.45,3198.845 1090.05,3198.695 C1089.65,3198.545 1089.21,3198.47 1088.73,3198.47 C1087.83,3198.47 1087.055,3198.635 1086.405,3198.965 C1085.755,3199.295 1085.225,3199.75 1084.815,3200.33 C1084.405,3200.91 1084.105,3201.595 1083.915,3202.385 C1083.725,3203.175 1083.63,3204.03 1083.63,3204.95 C1083.63,3207.01001 1084.07,3208.56499 1084.95,3209.615 C1085.83,3210.66501 1087.11999,3211.19 1088.82,3211.19 C1089.22,3211.19 1089.63,3211.135 1090.05,3211.025 C1090.47,3210.915 1090.88,3210.765 1091.28,3210.575 C1091.68,3210.385 1092.055,3210.16 1092.405,3209.9 C1092.755,3209.64 1093.06,3209.36 1093.32,3209.06 L1093.47,3209.15 C1093.37,3209.63 1093.31,3210.12 1093.29,3210.62 C1092.69,3211.1 1091.945,3211.51 1091.055,3211.85 C1090.165,3212.19 1089.24,3212.36 1088.28,3212.36 C1087.42,3212.36 1086.555,3212.235 1085.685,3211.985 C1084.815,3211.735 1084.03,3211.315 1083.33,3210.725 C1082.63,3210.135 1082.065,3209.37 1081.635,3208.43 C1081.205,3207.49 1080.99,3206.34001 1080.99,3204.98 Z M1097.985,3198.08 C1097.985,3197.4 1097.98,3196.66 1097.97,3195.86 C1097.96,3195.06 1097.945,3194.27 1097.925,3193.49 C1097.905,3192.71 1097.88,3191.965 1097.85,3191.255 C1097.82,3190.545 1097.785,3189.94 1097.745,3189.44 C1098.305,3189.54 1098.755,3189.59 1099.095,3189.59 C1099.435,3189.59 1099.885,3189.54 1100.445,3189.44 C1100.405,3189.94 1100.37,3190.545 1100.34,3191.255 C1100.31,3191.965 1100.285,3192.71 1100.265,3193.49 C1100.245,3194.27 1100.23,3195.06 1100.22,3195.86 C1100.21,3196.66 1100.205,3197.4 1100.205,3198.08 L1100.205,3203.54 C1100.205,3203.92 1100.325,3204.11 1100.565,3204.11 C1100.725,3204.11 1100.9,3204.04 1101.09,3203.9 C1101.28,3203.76 1101.495,3203.6 1101.735,3203.42 C1101.915,3203.28 1102.22,3203.01 1102.65,3202.61 C1103.08,3202.21 1103.56,3201.745 1104.09,3201.215 C1104.62,3200.685 1105.165,3200.12 1105.725,3199.52 C1106.285,3198.92 1106.795,3198.35 1107.255,3197.81 C1107.655,3197.91 1108.035,3197.96 1108.395,3197.96 C1108.615,3197.96 1108.835,3197.945 1109.055,3197.915 C1109.275,3197.885 1109.555,3197.85 1109.895,3197.81 C1108.63499,3198.83001 1107.43001,3199.835 1106.28,3200.825 C1105.12999,3201.815 1104.03501,3202.81999 1102.995,3203.84 C1104.13501,3205.22001 1105.30999,3206.59999 1106.52,3207.98 C1107.73001,3209.36001 1108.96499,3210.71999 1110.225,3212.06 C1109.885,3212.02 1109.58,3212 1109.31,3212 L1107.795,3212 C1107.535,3212 1107.265,3212.02 1106.985,3212.06 C1106.545,3211.56 1106.045,3210.975 1105.485,3210.305 C1104.925,3209.635 1104.37,3208.97 1103.82,3208.31 C1103.27,3207.65 1102.745,3207.03 1102.245,3206.45 C1101.745,3205.87 1101.315,3205.39 1100.955,3205.01 C1100.895,3204.93 1100.825,3204.86 1100.745,3204.8 C1100.665,3204.74 1100.585,3204.71 1100.505,3204.71 C1100.305,3204.71 1100.205,3204.83 1100.205,3205.07 L1100.205,3206.87 C1100.205,3207.77 1100.22,3208.645 1100.25,3209.495 C1100.28,3210.345 1100.345,3211.2 1100.445,3212.06 C1099.985,3212.02 1099.535,3212 1099.095,3212 C1098.655,3212 1098.205,3212.02 1097.745,3212.06 C1097.785,3211.6 1097.82,3211.02 1097.85,3210.32 C1097.88,3209.62 1097.905,3208.88 1097.925,3208.1 C1097.945,3207.32 1097.96,3206.53 1097.97,3205.73 C1097.98,3204.93 1097.985,3204.19 1097.985,3203.51 L1097.985,3198.08 Z" id="DoubleQualityCheck"></path>
        </g>
    </g>
</svg>