<?xml version="1.0" encoding="UTF-8"?>
<svg width="61px" height="22px" viewBox="0 0 61 22" version="1.1" xmlns="http://www.w3.org/2000/svg" xmlns:xlink="http://www.w3.org/1999/xlink">
    <!-- Generator: Sketch 56.2 (81672) - https://sketch.com -->
    <title>txt-keyword3-en</title>
    <desc>Created with Sketch.</desc>
    <g id="Page-1" stroke="none" stroke-width="1" fill="none" fill-rule="evenodd">
        <g id="top-fix" transform="translate(-727.000000, -1820.000000)" fill="#FFFFFF" fill-rule="nonzero">
            <g id="Group-8" transform="translate(727.000000, 1818.000000)">
                <path d="M8.52,12.98 C8.52,12.3666636 8.4433341,11.8233357 8.29,11.35 C8.1366659,10.8766643 7.9366679,10.4800016 7.69,10.16 C7.4433321,9.8399984 7.1566683,9.5966675 6.83,9.43 C6.5033317,9.2633325 6.1666684,9.18 5.82,9.18 C5.4066646,9.18 5.0100019,9.2566659 4.63,9.41 C4.2499981,9.5633341 3.9200014,9.8166649 3.64,10.17 C3.3599986,10.5233351 3.1366675,10.9833305 2.97,11.55 C2.8033325,12.1166695 2.72,12.8133292 2.72,13.64 C2.72,16.3200134 3.6933236,17.66 5.64,17.66 C6.0533354,17.66 6.4333316,17.5500011 6.78,17.33 C7.1266684,17.1099989 7.4299987,16.7933354 7.69,16.38 C7.9500013,15.9666646 8.1533326,15.4733362 8.3,14.9 C8.4466674,14.3266638 8.52,13.6866702 8.52,12.98 Z M10.28,13.04 C10.28,13.8133372 10.1633345,14.5199968 9.93,15.16 C9.6966655,15.8000032 9.3766687,16.3499977 8.97,16.81 C8.5633313,17.2700023 8.0833361,17.6233321 7.53,17.87 C6.9766639,18.1166679 6.3800032,18.24 5.74,18.24 C5.0999968,18.24 4.5233359,18.1033347 4.01,17.83 C3.4966641,17.5566653 3.106668,17.2266686 2.84,16.84 C2.3599976,17.2266686 1.9133354,17.6133314 1.5,18 L1.14,18 C1.1666668,17.6799984 1.1899999,17.2933356 1.21,16.84 C1.2300001,16.3866644 1.2466666,15.9033359 1.26,15.39 C1.2733334,14.8766641 1.2833333,14.353336 1.29,13.82 C1.2966667,13.286664 1.3,12.7933356 1.3,12.34 L1.3,8.72 C1.3,8.2666644 1.2966667,7.773336 1.29,7.24 C1.2833333,6.706664 1.2733334,6.1800026 1.26,5.66 C1.2466666,5.1399974 1.2300001,4.6433357 1.21,4.17 C1.1899999,3.6966643 1.1666668,3.293335 1.14,2.96 C1.5133352,3.026667 1.8133322,3.06 2.04,3.06 C2.1866674,3.06 2.3399992,3.0500001 2.5,3.03 C2.6600008,3.0099999 2.8333324,2.9866668 3.02,2.96 C2.9799998,3.226668 2.9466668,3.6499971 2.92,4.23 C2.8933332,4.8100029 2.8733334,5.4566631 2.86,6.17 C2.8466666,6.8833369 2.8333334,7.6166629 2.82,8.37 C2.8066666,9.1233371 2.7933334,9.8066636 2.78,10.42 L2.82,10.42 C3.2733356,9.6999964 3.7733306,9.173335 4.32,8.84 C4.8666694,8.506665 5.4999964,8.34 6.22,8.34 C6.9133368,8.34 7.5133308,8.4699987 8.02,8.73 C8.5266692,8.9900013 8.946665,9.3333312 9.28,9.76 C9.613335,10.1866688 9.8633325,10.6833305 10.03,11.25 C10.1966675,11.8166695 10.28,12.4133302 10.28,13.04 Z M17.0622222,8.98 C16.5688864,8.98 16.1522239,9.0933322 15.8122222,9.32 C15.4722205,9.5466678 15.1922233,9.8299983 14.9722222,10.17 C14.7522211,10.5100017 14.5855561,10.8833313 14.4722222,11.29 C14.3588883,11.6966687 14.288889,12.0799982 14.2622222,12.44 C14.6755576,12.4533334 15.1055533,12.4666666 15.5522222,12.48 C15.9988911,12.4933334 16.4355534,12.5 16.8622222,12.5 C17.3022244,12.5 17.7488866,12.4933334 18.2022222,12.48 C18.6555578,12.4666666 19.0955534,12.4533334 19.5222222,12.44 C19.5222222,12.0799982 19.4922225,11.700002 19.4322222,11.3 C19.3722219,10.899998 19.2522231,10.5266684 19.0722222,10.18 C18.8922213,9.8333316 18.6422238,9.5466678 18.3222222,9.32 C18.0022206,9.0933322 17.5822248,8.98 17.0622222,8.98 Z M12.4422222,13.6 C12.4422222,11.9599918 12.8322183,10.673338 13.6122222,9.74 C14.3922261,8.806662 15.5288814,8.34 17.0222222,8.34 C17.7288924,8.34 18.3388863,8.4499989 18.8522222,8.67 C19.3655581,8.8900011 19.7955538,9.1833315 20.1422222,9.55 C20.4888906,9.9166685 20.7455547,10.3466642 20.9122222,10.84 C21.0788897,11.3333358 21.1622222,11.8599972 21.1622222,12.42 C21.1622222,12.553334 21.1588889,12.6833327 21.1522222,12.81 C21.1455555,12.9366673 21.1355556,13.066666 21.1222222,13.2 C20.4022186,13.1866666 19.6888924,13.1733334 18.9822222,13.16 C18.275552,13.1466666 17.5622258,13.14 16.8422222,13.14 C16.40222,13.14 15.9655577,13.1466666 15.5322222,13.16 C15.0988867,13.1733334 14.6622244,13.1866666 14.2222222,13.2 C14.2088888,13.266667 14.2022222,13.366666 14.2022222,13.5 L14.2022222,13.76 C14.2022222,14.2800026 14.2788881,14.7666644 14.4322222,15.22 C14.5855563,15.6733356 14.8088874,16.0633317 15.1022222,16.39 C15.395557,16.7166683 15.7555534,16.9766657 16.1822222,17.17 C16.608891,17.3633343 17.1022194,17.46 17.6622222,17.46 C17.9288902,17.46 18.2022208,17.4233337 18.4822222,17.35 C18.7622236,17.2766663 19.0355542,17.1766673 19.3022222,17.05 C19.5688902,16.9233327 19.8188877,16.7733342 20.0522222,16.6 C20.2855567,16.4266658 20.488888,16.240001 20.6622222,16.04 L20.7622222,16.1 L20.6422222,17.08 C20.2422202,17.4000016 19.7455585,17.6733322 19.1522222,17.9 C18.5588859,18.1266678 17.9422222,18.24 17.3022222,18.24 C16.5822186,18.24 15.9255585,18.1300011 15.3322222,17.91 C14.7388859,17.6899989 14.2255577,17.3700021 13.7922222,16.95 C13.3588867,16.5299979 13.0255567,16.0333362 12.7922222,15.46 C12.5588877,14.8866638 12.4422222,14.26667 12.4422222,13.6 Z M29.0244444,13.06 C28.7977766,13.1400004 28.5344459,13.2066664 28.2344444,13.26 C27.9344429,13.3133336 27.6311126,13.3699997 27.3244444,13.43 C27.0177762,13.4900003 26.7144459,13.5666662 26.4144444,13.66 C26.1144429,13.7533338 25.8477789,13.8799992 25.6144444,14.04 C25.3811099,14.2000008 25.1944451,14.3999988 25.0544444,14.64 C24.9144437,14.8800012 24.8444444,15.1866648 24.8444444,15.56 C24.8444444,16.1866698 25.0244426,16.6599984 25.3844444,16.98 C25.7444462,17.3000016 26.1444422,17.46 26.5844444,17.46 C27.0911136,17.46 27.5544423,17.3200014 27.9744444,17.04 C28.3944465,16.7599986 28.7177766,16.4333352 28.9444444,16.06 L29.0244444,13.06 Z M24.0844444,9.5 C24.6844474,9.0466644 25.2377752,8.7400008 25.7444444,8.58 C26.2511136,8.4199992 26.7711084,8.34 27.3044444,8.34 C27.7844468,8.34 28.2244424,8.4099993 28.6244444,8.55 C29.0244464,8.6900007 29.364443,8.8899987 29.6444444,9.15 C29.9244458,9.4100013 30.1444436,9.7233315 30.3044444,10.09 C30.4644452,10.4566685 30.5444444,10.8599978 30.5444444,11.3 C30.5444444,12.0600038 30.5311112,12.8166629 30.5044444,13.57 C30.4777776,14.3233371 30.4644444,15.1199958 30.4644444,15.96 C30.4644444,16.1200008 30.4677777,16.2899991 30.4744444,16.47 C30.4811111,16.6500009 30.5111108,16.8099993 30.5644444,16.95 C30.617778,17.0900007 30.6944439,17.2066662 30.7944444,17.3 C30.8944449,17.3933338 31.0444434,17.44 31.2444444,17.44 C31.3111114,17.44 31.3811107,17.4366667 31.4544444,17.43 C31.5277781,17.4233333 31.5977774,17.4000002 31.6644444,17.36 L31.6644444,17.8 C31.517777,17.866667 31.3344455,17.9199998 31.1144444,17.96 C30.8944433,18.0000002 30.6511124,18.02 30.3844444,18.02 C29.9577756,18.02 29.6311122,17.9100011 29.4044444,17.69 C29.1777766,17.4699989 29.0444446,17.1866684 29.0044444,16.84 C28.524442,17.3200024 28.0511134,17.6733322 27.5844444,17.9 C27.1177754,18.1266678 26.5444478,18.24 25.8644444,18.24 C25.5311094,18.24 25.2044444,18.1933338 24.8844444,18.1 C24.5644428,18.0066662 24.2811123,17.8533344 24.0344444,17.64 C23.7877765,17.4266656 23.5877785,17.1700015 23.4344444,16.87 C23.2811103,16.5699985 23.2044444,16.2266686 23.2044444,15.84 C23.2044444,15.039996 23.4544419,14.4200022 23.9544444,13.98 C24.4544469,13.5399978 25.14444,13.2466674 26.0244444,13.1 C26.744448,12.9799994 27.3077757,12.8766671 27.7144444,12.79 C28.1211131,12.7033329 28.4211101,12.6133338 28.6144444,12.52 C28.8077787,12.4266662 28.9244442,12.3166673 28.9644444,12.19 C29.0044446,12.0633327 29.0244444,11.900001 29.0244444,11.7 C29.0244444,11.366665 28.9844448,11.0466682 28.9044444,10.74 C28.824444,10.4333318 28.6977786,10.1666678 28.5244444,9.94 C28.3511102,9.7133322 28.1244458,9.5300007 27.8444444,9.39 C27.564443,9.2499993 27.2244464,9.18 26.8244444,9.18 C26.2911084,9.18 25.7944467,9.2999988 25.3344444,9.54 C24.8744421,9.7800012 24.5311122,10.1133312 24.3044444,10.54 L24.0844444,10.54 L24.0844444,9.5 Z M34.5066667,15.02 C34.5066667,14.3133298 34.5166666,13.7100025 34.5366667,13.21 C34.5566668,12.7099975 34.5666667,12.2133358 34.5666667,11.72 C34.5666667,11.253331 34.5633334,10.7466694 34.5566667,10.2 C34.55,9.6533306 34.5400001,9.1000028 34.5266667,8.54 C34.8600017,8.606667 35.1399989,8.64 35.3666667,8.64 C35.5800011,8.64 35.8533317,8.606667 36.1866667,8.54 C36.1199997,9.340004 36.0700002,10.2166619 36.0366667,11.17 C36.0033332,12.1233381 35.9866667,13.099995 35.9866667,14.1 C35.9866667,14.7933368 36.0466661,15.3233315 36.1666667,15.69 C36.2866673,16.0566685 36.4333325,16.3333324 36.6066667,16.52 C36.7933343,16.7333344 37.0299986,16.9099993 37.3166667,17.05 C37.6033348,17.1900007 37.9399981,17.26 38.3266667,17.26 C38.8866695,17.26 39.3533315,17.1366679 39.7266667,16.89 C40.1000019,16.6433321 40.3733325,16.3400018 40.5466667,15.98 C40.6400005,15.7533322 40.7133331,15.5600008 40.7666667,15.4 C40.8200003,15.2399992 40.8633332,15.026668 40.8966667,14.76 C40.9300002,14.493332 40.95,14.1333356 40.9566667,13.68 C40.9633334,13.2266644 40.9666667,12.6066706 40.9666667,11.82 L40.9666667,10.14 C40.9666667,9.8466652 40.9633334,9.566668 40.9566667,9.3 C40.95,9.033332 40.9400001,8.7800012 40.9266667,8.54 C41.0733341,8.5666668 41.2133327,8.5899999 41.3466667,8.61 C41.4800007,8.6300001 41.6199993,8.64 41.7666667,8.64 C41.9133341,8.64 42.0533327,8.6300001 42.1866667,8.61 C42.3200007,8.5899999 42.4533327,8.5666668 42.5866667,8.54 C42.5199997,9.5800052 42.4800001,10.5833285 42.4666667,11.55 C42.4533333,12.5166715 42.4466667,13.54 42.4466667,14.62 C42.4466667,15.220003 42.4533333,15.8066638 42.4666667,16.38 C42.4800001,16.9533362 42.4999999,17.506664 42.5266667,18.04 C42.2599987,18.0133332 42.0000013,18 41.7466667,18 C41.4933321,18 41.2333347,18.0133332 40.9666667,18.04 C40.9800001,17.9199994 40.99,17.793334 40.9966667,17.66 C41.0033334,17.526666 41.0066667,17.3866674 41.0066667,17.24 L41.0066667,16.38 L40.9666667,16.38 C40.6199983,17.0200032 40.1733361,17.4899985 39.6266667,17.79 C39.0799973,18.0900015 38.4866699,18.24 37.8466667,18.24 C36.8066615,18.24 35.990003,17.9633361 35.3966667,17.41 C34.8033304,16.8566639 34.5066667,16.0600052 34.5066667,15.02 Z M48.0688889,5.86 C48.0288887,6.3666692 47.998889,6.8633309 47.9788889,7.35 C47.9588888,7.8366691 47.9355557,8.3266642 47.9088889,8.82 C48.0555563,8.82 48.3288869,8.8166667 48.7288889,8.81 C49.1288909,8.8033333 49.5622199,8.7866668 50.0288889,8.76 C50.0155555,8.8000002 50.0088889,8.8733328 50.0088889,8.98 L50.0088889,9.4 C50.0088889,9.4933338 50.0155555,9.5599998 50.0288889,9.6 C49.8555547,9.5866666 49.6755565,9.5766667 49.4888889,9.57 C49.3022213,9.5633333 49.1022233,9.56 48.8888889,9.56 L47.9088889,9.56 C47.8955555,9.6133336 47.878889,9.8266648 47.8588889,10.2 C47.8388888,10.5733352 47.8222223,11.0166641 47.8088889,11.53 C47.7955555,12.0433359 47.7855556,12.5799972 47.7788889,13.14 C47.7722222,13.7000028 47.7688889,14.1999978 47.7688889,14.64 C47.7688889,15.0133352 47.7788888,15.3799982 47.7988889,15.74 C47.818889,16.1000018 47.8822217,16.4233319 47.9888889,16.71 C48.0955561,16.9966681 48.2555545,17.2266658 48.4688889,17.4 C48.6822233,17.5733342 48.9888869,17.66 49.3888889,17.66 C49.4955561,17.66 49.638888,17.6466668 49.8188889,17.62 C49.9988898,17.5933332 50.1555549,17.5600002 50.2888889,17.52 L50.2888889,18 C50.0622211,18.0400002 49.8122236,18.0899997 49.5388889,18.15 C49.2655542,18.2100003 49.0022235,18.24 48.7488889,18.24 C47.9088847,18.24 47.2888909,18.0333354 46.8888889,17.62 C46.4888869,17.2066646 46.2888889,16.600004 46.2888889,15.8 C46.2888889,15.4399982 46.2955555,15.0500021 46.3088889,14.63 C46.3222223,14.2099979 46.3388888,13.7500025 46.3588889,13.25 C46.378889,12.7499975 46.3955555,12.1966697 46.4088889,11.59 C46.4222223,10.9833303 46.4288889,10.3066704 46.4288889,9.56 L45.7888889,9.56 C45.6822217,9.56 45.5688889,9.5633333 45.4488889,9.57 C45.3288883,9.5766667 45.2022229,9.5866666 45.0688889,9.6 C45.0822223,9.5199996 45.0922222,9.4433337 45.0988889,9.37 C45.1055556,9.2966663 45.1088889,9.2200004 45.1088889,9.14 C45.1088889,9.073333 45.1055556,9.006667 45.0988889,8.94 C45.0922222,8.873333 45.0822223,8.806667 45.0688889,8.74 C45.6688919,8.7800002 46.1088875,8.8 46.3888889,8.8 C46.3755555,8.533332 46.3655556,8.200002 46.3588889,7.8 C46.3522222,7.399998 46.3355557,6.9866688 46.3088889,6.56 L47.9688889,5.86 L48.0688889,5.86 Z M55.3511111,18.06 C55.2044437,17.6999982 55.0144456,17.2333362 54.7811111,16.66 C54.5477766,16.0866638 54.2977791,15.4833365 54.0311111,14.85 C53.7644431,14.2166635 53.4911125,13.5700033 53.2111111,12.91 C52.9311097,12.2499967 52.667779,11.6300029 52.4211111,11.05 C52.1744432,10.4699971 51.9577787,9.9600022 51.7711111,9.52 C51.5844435,9.0799978 51.4444449,8.7533344 51.3511111,8.54 C51.5244453,8.5666668 51.6844437,8.5899999 51.8311111,8.61 C51.9777785,8.6300001 52.1244437,8.64 52.2711111,8.64 C52.4177785,8.64 52.5644437,8.6300001 52.7111111,8.61 C52.8577785,8.5899999 53.0177769,8.5666668 53.1911111,8.54 C53.6044465,9.8200064 54.0644419,11.0866604 54.5711111,12.34 C55.0777803,13.5933396 55.6111083,14.88666 56.1711111,16.22 C56.7311139,15.0466608 57.2677752,13.79334 57.7811111,12.46 C58.294447,11.12666 58.7511091,9.8200064 59.1511111,8.54 C59.4177791,8.606667 59.6377769,8.64 59.8111111,8.64 C59.9844453,8.64 60.2044431,8.606667 60.4711111,8.54 C60.3777773,8.7266676 60.2277788,9.0433311 60.0211111,9.49 C59.8144434,9.9366689 59.5677792,10.4699969 59.2811111,11.09 C58.994443,11.7100031 58.6811128,12.3966629 58.3411111,13.15 C58.0011094,13.9033371 57.6544462,14.6766627 57.3011111,15.47 C56.947776,16.2633373 56.5977795,17.0499961 56.2511111,17.83 C55.9044427,18.6100039 55.5844459,19.3499965 55.2911111,20.05 C54.9977763,20.7500035 54.7411122,21.3833305 54.5211111,21.95 C54.30111,22.5166695 54.1377783,22.966665 54.0311111,23.3 C53.7644431,23.233333 53.5377787,23.2 53.3511111,23.2 C53.1644435,23.2 52.9377791,23.233333 52.6711111,23.3 C53.7244497,21.5533246 54.6177741,19.8066754 55.3511111,18.06 Z" id="beauty"></path>
                <polygon id="Line" points="0 23 60 23 60 22 0 22"></polygon>
            </g>
        </g>
    </g>
</svg>