<?xml version="1.0" encoding="UTF-8"?>
<svg width="14px" height="21px" viewBox="0 0 14 21" version="1.1" xmlns="http://www.w3.org/2000/svg" xmlns:xlink="http://www.w3.org/1999/xlink">
    <!-- Generator: Sketch 56.2 (81672) - https://sketch.com -->
    <title>txt-2</title>
    <desc>Created with Sketch.</desc>
    <g id="Page-1" stroke="none" stroke-width="1" fill="none" fill-rule="evenodd">
        <g id="top-fix" transform="translate(-729.000000, -2871.000000)" fill="#4E2700" fill-rule="nonzero">
            <path d="M730.792,2873.956 C731.389336,2873.004 732.098663,2872.304 732.92,2871.856 C733.741337,2871.408 734.739994,2871.184 735.916,2871.184 C736.644004,2871.184 737.334663,2871.27733 737.988,2871.464 C738.641337,2871.65067 739.205998,2871.94933 739.682,2872.36 C740.158002,2872.77067 740.535999,2873.284 740.816,2873.9 C741.096001,2874.516 741.236,2875.26266 741.236,2876.14 C741.236,2876.77467 741.161334,2877.36733 741.012,2877.918 C740.862666,2878.46867 740.643335,2879.00533 740.354,2879.528 C740.064665,2880.05067 739.700669,2880.578 739.262,2881.11 C738.823331,2881.642 738.305336,2882.20666 737.708,2882.804 L736.476,2884.036 C736.009331,2884.50267 735.538002,2884.98333 735.062,2885.478 C734.585998,2885.97267 734.133335,2886.46266 733.704,2886.948 C733.274665,2887.43334 732.910668,2887.88133 732.612,2888.292 L735.272,2888.292 C736.616007,2888.292 737.805995,2888.26867 738.842,2888.222 C739.878005,2888.17533 740.787996,2888.124 741.572,2888.068 C741.478666,2888.47867 741.432,2888.824 741.432,2889.104 C741.432,2889.36533 741.478666,2889.68266 741.572,2890.056 C740.563995,2890.01867 739.565338,2890 738.576,2890 L732.57,2890 C731.571328,2890 730.568005,2890.01867 729.56,2890.056 L729.56,2889.72 C730.866673,2888.43199 732.000662,2887.298 732.962,2886.318 C733.923338,2885.338 734.739997,2884.456 735.412,2883.672 C736.084003,2882.888 736.629998,2882.17867 737.05,2881.544 C737.470002,2880.90933 737.801332,2880.30734 738.044,2879.738 C738.286668,2879.16866 738.45,2878.60867 738.534,2878.058 C738.618,2877.50733 738.66,2876.91467 738.66,2876.28 C738.66,2874.89866 738.347336,2873.87667 737.722,2873.214 C737.096664,2872.55133 736.364004,2872.22 735.524,2872.22 C734.926664,2872.22 734.413335,2872.32733 733.984,2872.542 C733.554665,2872.75667 733.200001,2873.018 732.92,2873.326 C732.639999,2873.634 732.425334,2873.96533 732.276,2874.32 C732.126666,2874.67467 732.024,2874.992 731.968,2875.272 L731.772,2875.328 L730.792,2873.956 Z" id="2"></path>
        </g>
    </g>
</svg>